<?xml version="1.0" encoding="utf-8"?>
<!-- Generator: Adobe Illustrator 28.0.0, SVG Export Plug-In . SVG Version: 6.00 Build 0)  -->
<svg version="1.1" id="Layer_1" xmlns:xodm="http://www.corel.com/coreldraw/odm/2003"
	 xmlns="http://www.w3.org/2000/svg" xmlns:xlink="http://www.w3.org/1999/xlink" x="0px" y="0px" viewBox="0 0 720 720"
	 style="enable-background:new 0 0 720 720;" xml:space="preserve">
<style type="text/css">
	.st0{fill:#F6B24A;}
</style>
<g>
	<path class="st0" d="M536.5,234.5l19.6,19.7l0.7,0.7l0,0l9,9.2h116.8v-24.8l-9.1-9.2l-40.7-41H86.3l-45.1,45.4H536.5z M90,198.3
		H629l44.5,44.7v12H569.6l-20.3-20.4l-9.1-9.2H63.1L90,198.3z"/>
</g>
<g>
	<polygon class="st0" points="41.6,265.3 41.6,248.1 538.6,248.1 541.8,251.3 546.7,256.3 555.7,265.3 	"/>
</g>
<g>
	<path class="st0" d="M186.6,467.3l-19.6-19.7l-0.7-0.7l0,0l-9-9.2H40.5v24.8l9.1,9.2l40.7,41h546.5l45.1-45.4H186.6z M633.1,503.6
		H94.2l-44.5-44.7v-12h103.8l20.3,20.4l9.1,9.2h477.2L633.1,503.6z"/>
</g>
<g>
	<polygon class="st0" points="681.5,436.5 681.5,453.8 184.6,453.8 181.4,450.5 176.4,445.5 167.5,436.5 	"/>
</g>
<g>
	<path class="st0" d="M682,427.1H41.3V274.8H682V427.1z M52.6,415.8h618.1V286.1H52.6V415.8z"/>
</g>
<g>
	<rect x="96.2" y="291.9" class="st0" width="13.7" height="13.9"/>
</g>
<g>
	<rect x="56.5" y="291.2" class="st0" width="13.7" height="14.6"/>
</g>
<g>
	<rect x="76" y="291.9" class="st0" width="13.7" height="13.9"/>
</g>
<g>
	<rect x="652.8" y="398" class="st0" width="13.7" height="13.9"/>
</g>
<g>
	<rect x="613.1" y="397.2" class="st0" width="13.7" height="14.6"/>
</g>
<g>
	<rect x="632.7" y="398" class="st0" width="13.7" height="13.9"/>
</g>
</svg>
