<?xml version="1.0" encoding="utf-8"?>
<!-- Generator: Adobe Illustrator 28.0.0, SVG Export Plug-In . SVG Version: 6.00 Build 0)  -->
<svg version="1.1" id="Layer_1" xmlns:xodm="http://www.corel.com/coreldraw/odm/2003"
	 xmlns="http://www.w3.org/2000/svg" xmlns:xlink="http://www.w3.org/1999/xlink" x="0px" y="0px" viewBox="0 0 720 720"
	 style="enable-background:new 0 0 720 720;" xml:space="preserve">
<style type="text/css">
	.st0{fill-rule:evenodd;clip-rule:evenodd;}
</style>
<path class="st0" d="M359.5,242.2c-82.1,0-148.7,66.6-148.7,148.7s66.6,148.7,148.7,148.7s148.7-66.6,148.7-148.7
	S441.6,242.2,359.5,242.2z M359.7,510.7c-66.2,0-119.8-53.7-119.8-119.8S293.6,271,359.7,271s119.8,53.7,119.8,119.8
	S425.9,510.7,359.7,510.7z"/>
<path class="st0" d="M359.3,578.2c0,0,0.1,0.1,0.1,0.1c0,0,0.1-0.1,0.1-0.1C414.7,663,519,688.6,608.1,639
	c-74.8,28.6-166.6-13.9-197.2-91.7c-10.3-26.3-4-83.1,10.2-112.7c-28.4-19.5-45.3-28.3-62.7-27c-17.5-1-34.2,8-62.4,27.8
	c14.5,29.4,21.6,86.1,11.6,112.5c-29.6,78.2-120.8,121.9-196,94.3C201.2,690.6,305.1,663.7,359.3,578.2z"/>
<path class="st0" d="M520.8,300.3c0,0,0.1-0.1,0.1-0.2c-0.1,0-0.1,0-0.2,0C567.2,210.2,538,106.9,451,53.9
	c61.8,51,70.1,151.8,17.5,216.8c-17.8,22-70.3,44.4-103,46.7c-2.9,34.3-2.3,53.3,7.4,67.9c7.8,15.7,23.8,25.8,55,40.5
	c18.4-27.2,64.2-61.3,92.2-65.6c82.7-12.8,165.6,45,178.7,124C696.6,382.4,621.9,305.2,520.8,300.3z"/>
<path class="st0" d="M199.4,300.2c-0.1,0-0.1,0-0.2,0c0,0,0.1,0.1,0.1,0.2c-101.1,4.9-175.8,82-177.9,183.9
	c13.1-79,96.1-136.8,178.7-124c27.9,4.3,73.7,38.5,92.1,65.7c31.2-14.7,47.2-24.8,55-40.5c9.7-14.6,10.4-33.6,7.4-67.9
	c-32.7-2.3-85.3-24.8-103-46.8c-52.6-65-44.2-165.8,17.6-216.8C182.1,106.9,152.9,210.2,199.4,300.2z"/>
</svg>
