<?xml version="1.0" encoding="utf-8"?>
<!-- Generator: Adobe Illustrator 28.0.0, SVG Export Plug-In . SVG Version: 6.00 Build 0)  -->
<svg version="1.1" id="Layer_1" xmlns:xodm="http://www.corel.com/coreldraw/odm/2003"
	 xmlns="http://www.w3.org/2000/svg" xmlns:xlink="http://www.w3.org/1999/xlink" x="0px" y="0px" viewBox="0 0 720 720"
	 style="enable-background:new 0 0 720 720;" xml:space="preserve">
<style type="text/css">
	.st0{fill:#F7B24B;}
</style>
<g>
	
		<rect x="345.8" y="335" transform="matrix(0.7071 0.7071 -0.7071 0.7071 351.3483 -151.8432)" class="st0" width="26.4" height="26.4"/>
	<polygon class="st0" points="414.5,338.4 359,393.8 359,393.8 358.9,393.8 303.4,338.4 315.6,326.2 359,369.5 402.3,326.2 	"/>
	<polygon class="st0" points="397.9,381.5 383.2,381.5 398.2,366.8 412.9,366.8 	"/>
	<polygon class="st0" points="424.4,381.5 409.7,381.5 424.7,366.8 439.3,366.8 	"/>
	<polygon class="st0" points="450.8,381.5 436.1,381.5 451.1,366.8 465.8,366.8 	"/>
	<polygon class="st0" points="477.3,381.5 462.6,381.5 477.6,366.8 492.3,366.8 	"/>
	<polygon class="st0" points="503.7,381.5 489.1,381.5 504,366.8 518.7,366.8 	"/>
	<g>
		<polygon class="st0" points="529.3,332.8 529.3,342.7 473,342.7 465.6,350 416.8,350 434,332.8 		"/>
	</g>
	<polygon class="st0" points="544.7,331.5 671.5,331.5 671.5,334.1 545.7,334.1 521,358.7 518.5,361.3 399.8,361.3 379.4,381.7 
		377.6,379.9 398.7,358.7 517.5,358.7 544.2,332 	"/>
	<polyline class="st0" points="542.1,332 542.1,331.5 542.6,331.5 	"/>
	<g>
		<polygon class="st0" points="644,340.1 644,342.7 545.8,342.7 534.9,353.5 532.4,356.1 401.2,356.1 401.2,353.5 531.3,353.5 
			542.2,342.7 544.7,340.1 		"/>
	</g>
	
		<rect x="345.8" y="335" transform="matrix(-0.7071 0.7071 -0.7071 -0.7071 859.0017 340.5765)" class="st0" width="26.4" height="26.4"/>
	<polygon class="st0" points="320,381.5 334.7,381.5 319.7,366.8 305.1,366.8 	"/>
	<polygon class="st0" points="293.6,381.5 308.3,381.5 293.3,366.8 278.6,366.8 	"/>
	<polygon class="st0" points="267.1,381.5 281.8,381.5 266.8,366.8 252.1,366.8 	"/>
	<polygon class="st0" points="240.7,381.5 255.3,381.5 240.4,366.8 225.7,366.8 	"/>
	<polygon class="st0" points="214.2,381.5 228.9,381.5 213.9,366.8 199.2,366.8 	"/>
	<g>
		<polygon class="st0" points="188.6,332.8 188.6,342.7 245,342.7 252.3,350 301.1,350 284,332.8 		"/>
	</g>
	<polygon class="st0" points="48.5,331.5 48.5,334.1 174.3,334.1 199,358.7 201.5,361.3 320.2,361.3 340.6,381.7 342.4,379.9 
		321.3,358.7 202.5,358.7 175.3,331.5 	"/>
	<line class="st0" x1="175.8" y1="332" x2="175.3" y2="331.5"/>
	<g>
		<polygon class="st0" points="316.7,353.5 316.7,356.1 185.5,356.1 172.1,342.7 73.9,342.7 73.9,340.1 173.2,340.1 175.7,342.7 
			186.6,353.5 		"/>
	</g>
</g>
</svg>
