<?xml version="1.0" encoding="utf-8"?>
<!-- Generator: Adobe Illustrator 28.0.0, SVG Export Plug-In . SVG Version: 6.00 Build 0)  -->
<svg version="1.1" id="Layer_1" xmlns:xodm="http://www.corel.com/coreldraw/odm/2003"
	 xmlns="http://www.w3.org/2000/svg" xmlns:xlink="http://www.w3.org/1999/xlink" x="0px" y="0px" viewBox="0 0 720 720"
	 style="enable-background:new 0 0 720 720;" xml:space="preserve">
<path d="M652.9,317.1H70.2c-5.7,0-10.4,4.7-10.4,10.4v65c0,5.7,4.7,10.4,10.4,10.4h582.7c5.8,0,10.4-4.7,10.4-10.4v-65
	C663.3,321.8,658.7,317.1,652.9,317.1z M170.1,391.8H71.6v-63.5h50.7l52.6,51.7C179.4,384.3,176.3,391.8,170.1,391.8z M202.8,392
	l-46.2-45.7c-6.7-6.6-2-18,7.4-18h129.6c9.4,0,14.1,11.4,7.4,18L254.8,392H202.8z M425.6,392H296c-9.4,0-14.1-11.4-7.4-18l46.2-45.7
	h52L433,374C439.7,380.6,435,392,425.6,392z M466.8,392l-46.2-45.7c-6.7-6.6-2-18,7.4-18h129.6c9.4,0,14.1,11.4,7.4,18L518.7,392
	H466.8z M650,391.8h-98.5c-6.2,0-9.3-7.5-4.9-11.8l52.7-51.7H650V391.8z"/>
</svg>
