<?xml version="1.0" encoding="utf-8"?>
<!-- Generator: Adobe Illustrator 28.0.0, SVG Export Plug-In . SVG Version: 6.00 Build 0)  -->
<svg version="1.1" id="Layer_1" xmlns:xodm="http://www.corel.com/coreldraw/odm/2003"
	 xmlns="http://www.w3.org/2000/svg" xmlns:xlink="http://www.w3.org/1999/xlink" x="0px" y="0px" viewBox="0 0 720 720"
	 style="enable-background:new 0 0 720 720;" xml:space="preserve">
<style type="text/css">
	.st0{fill:#C10C0C;}
	.st1{fill:#FFFFFF;}
</style>
<polygon points="358.3,606.3 642.7,113.7 73.8,113.7 "/>
<g>
	<g>
		<polygon class="st0" points="642.7,113.7 619.5,154.1 599.3,154.1 622.7,113.7 		"/>
	</g>
	<g>
		<polygon class="st0" points="604.6,113.7 581.2,154.1 561.1,154.1 584.4,113.7 		"/>
	</g>
	<g>
		<polygon class="st0" points="566.4,113.7 543,154.1 522.8,154.1 546.2,113.7 		"/>
	</g>
	<g>
		<polygon class="st0" points="528.2,113.7 504.8,154.1 484.7,154.1 508,113.7 		"/>
	</g>
	<g>
		<polygon class="st0" points="489.9,113.7 466.6,154.1 446.4,154.1 469.8,113.7 		"/>
	</g>
	<g>
		<polygon class="st0" points="451.8,113.7 428.3,154.1 408.2,154.1 431.5,113.7 		"/>
	</g>
	<g>
		<polygon class="st0" points="413.5,113.7 390.2,154.1 370,154.1 393.4,113.7 		"/>
	</g>
	<g>
		<polygon class="st0" points="375.3,113.7 351.9,154.1 331.8,154.1 355.1,113.7 		"/>
	</g>
	<g>
		<polygon class="st0" points="337.1,113.7 313.7,154.1 293.5,154.1 316.9,113.7 		"/>
	</g>
	<g>
		<polygon class="st0" points="298.9,113.7 275.5,154.1 255.4,154.1 278.7,113.7 		"/>
	</g>
	<g>
		<polygon class="st0" points="260.6,113.7 237.3,154.1 217.1,154.1 240.5,113.7 		"/>
	</g>
	<polygon class="st0" points="222.5,113.7 199,154.1 178.9,154.1 202.2,113.7 	"/>
	<polygon class="st0" points="184.2,113.7 160.9,154.1 140.7,154.1 164.1,113.7 	"/>
	<polygon class="st0" points="146,113.7 125.5,149.1 122.6,154.1 102.5,154.1 105.3,149.1 125.8,113.7 	"/>
	<polygon class="st0" points="107.8,113.7 90.8,143.1 80.7,125.7 87.6,113.7 	"/>
</g>
<path class="st1" d="M223.1,248.6V283h-23v-91.7h63l11.5,11.5v34.3l-11.5,11.5H223.1z M223.1,214.3v11.3h28.5v-11.3H223.1z"/>
<path class="st1" d="M306.7,191.3V260h28.5v-68.7h23v80.2L346.7,283h-51.5l-11.5-11.5v-80.2H306.7z"/>
<path class="st1" d="M392.2,191.3V260h51.6v23h-74.6v-91.7H392.2z"/>
<path class="st1" d="M475,191.3V260h51.6v23h-74.6v-91.7H475z"/>
</svg>
