<?xml version="1.0" encoding="utf-8"?>
<!-- Generator: Adobe Illustrator 28.0.0, SVG Export Plug-In . SVG Version: 6.00 Build 0)  -->
<svg version="1.1" id="Layer_1" xmlns:xodm="http://www.corel.com/coreldraw/odm/2003"
	 xmlns="http://www.w3.org/2000/svg" xmlns:xlink="http://www.w3.org/1999/xlink" x="0px" y="0px" viewBox="0 0 720 720"
	 style="enable-background:new 0 0 720 720;" xml:space="preserve">
<style type="text/css">
	.st0{fill:#F6B24A;}
	.st1{opacity:0.5;}
</style>
<g>
	<path class="st0" d="M671.1,372.9h-623c-5.9,0-10.7-4.8-10.7-10.7v-43c0-5.9,4.8-10.7,10.7-10.7h623c5.9,0,10.7,4.8,10.7,10.7v43
		C681.9,368.1,677.1,372.9,671.1,372.9z M48.2,313.6c-3,0-5.5,2.5-5.5,5.5v43c0,3,2.5,5.5,5.5,5.5h623c3,0,5.5-2.5,5.5-5.5v-43
		c0-3-2.5-5.5-5.5-5.5H48.2z"/>
</g>
<g>
	<g>
		<rect x="45.5" y="315" class="st0" width="8.7" height="51.3"/>
	</g>
</g>
<g>
	<g>
		<rect x="56" y="315" class="st0" width="8.7" height="51.3"/>
	</g>
</g>
<g>
	<g>
		<rect x="66.5" y="315" class="st0" width="8.7" height="51.3"/>
	</g>
</g>
<g>
	<g>
		<rect x="77" y="315" class="st0" width="8.7" height="51.3"/>
	</g>
</g>
<g>
	<g>
		<rect x="87.5" y="315" class="st0" width="8.7" height="51.3"/>
	</g>
</g>
<g>
	<g>
		<rect x="98" y="315" class="st0" width="8.7" height="51.3"/>
	</g>
</g>
<g>
	<g>
		<rect x="108.5" y="315" class="st0" width="8.7" height="51.3"/>
	</g>
</g>
<g>
	<g>
		<rect x="119" y="315" class="st0" width="8.7" height="51.3"/>
	</g>
</g>
<g>
	<g>
		<rect x="129.5" y="315" class="st0" width="8.7" height="51.3"/>
	</g>
</g>
<g>
	<g>
		<rect x="140" y="315" class="st0" width="8.7" height="51.3"/>
	</g>
</g>
<g>
	<g>
		<rect x="150.5" y="315" class="st0" width="8.7" height="51.3"/>
	</g>
</g>
<g>
	<g>
		<rect x="161" y="315" class="st0" width="8.7" height="51.3"/>
	</g>
</g>
<g class="st1">
	<g>
		<rect x="171.5" y="315" class="st0" width="8.7" height="51.3"/>
	</g>
</g>
<g class="st1">
	<g>
		<rect x="182" y="315" class="st0" width="8.7" height="51.3"/>
	</g>
</g>
<g class="st1">
	<g>
		<rect x="192.5" y="315" class="st0" width="8.7" height="51.3"/>
	</g>
</g>
<g class="st1">
	<g>
		<rect x="203" y="315" class="st0" width="8.7" height="51.3"/>
	</g>
</g>
<g class="st1">
	<g>
		<rect x="213.5" y="315" class="st0" width="8.7" height="51.3"/>
	</g>
</g>
<g class="st1">
	<g>
		<rect x="224" y="315" class="st0" width="8.7" height="51.3"/>
	</g>
</g>
<g class="st1">
	<g>
		<rect x="234.5" y="315" class="st0" width="8.7" height="51.3"/>
	</g>
</g>
<g class="st1">
	<g>
		<rect x="245" y="315" class="st0" width="8.7" height="51.3"/>
	</g>
</g>
<g class="st1">
	<g>
		<rect x="255.5" y="315" class="st0" width="8.7" height="51.3"/>
	</g>
</g>
<g class="st1">
	<g>
		<rect x="266" y="315" class="st0" width="8.7" height="51.3"/>
	</g>
</g>
<g class="st1">
	<g>
		<rect x="276.5" y="315" class="st0" width="8.7" height="51.3"/>
	</g>
</g>
<g class="st1">
	<g>
		<rect x="287" y="315" class="st0" width="8.7" height="51.3"/>
	</g>
</g>
<g class="st1">
	<g>
		<rect x="297.5" y="315" class="st0" width="8.7" height="51.3"/>
	</g>
</g>
<g class="st1">
	<g>
		<rect x="308" y="315" class="st0" width="8.7" height="51.3"/>
	</g>
</g>
<g class="st1">
	<g>
		<rect x="318.5" y="315" class="st0" width="8.7" height="51.3"/>
	</g>
</g>
<g class="st1">
	<g>
		<rect x="329" y="315" class="st0" width="8.7" height="51.3"/>
	</g>
</g>
<g class="st1">
	<g>
		<rect x="339.5" y="315" class="st0" width="8.7" height="51.3"/>
	</g>
</g>
<g class="st1">
	<g>
		<rect x="350" y="315" class="st0" width="8.7" height="51.3"/>
	</g>
</g>
<g class="st1">
	<g>
		<rect x="360.5" y="315" class="st0" width="8.7" height="51.3"/>
	</g>
</g>
<g class="st1">
	<g>
		<rect x="371" y="315" class="st0" width="8.7" height="51.3"/>
	</g>
</g>
<g class="st1">
	<g>
		<rect x="381.5" y="315" class="st0" width="8.7" height="51.3"/>
	</g>
</g>
<g class="st1">
	<g>
		<rect x="392" y="315" class="st0" width="8.7" height="51.3"/>
	</g>
</g>
<g class="st1">
	<g>
		<rect x="402.5" y="315" class="st0" width="8.7" height="51.3"/>
	</g>
</g>
<g class="st1">
	<g>
		<rect x="413" y="315" class="st0" width="8.7" height="51.3"/>
	</g>
</g>
<g class="st1">
	<g>
		<rect x="423.5" y="315" class="st0" width="8.7" height="51.3"/>
	</g>
</g>
<g class="st1">
	<g>
		<rect x="434" y="315" class="st0" width="8.7" height="51.3"/>
	</g>
</g>
<g class="st1">
	<g>
		<rect x="444.5" y="315" class="st0" width="8.7" height="51.3"/>
	</g>
</g>
<g class="st1">
	<g>
		<rect x="455" y="315" class="st0" width="8.7" height="51.3"/>
	</g>
</g>
<g class="st1">
	<g>
		<rect x="465.5" y="315" class="st0" width="8.7" height="51.3"/>
	</g>
</g>
<g class="st1">
	<g>
		<rect x="476" y="315" class="st0" width="8.7" height="51.3"/>
	</g>
</g>
<g class="st1">
	<g>
		<rect x="486.5" y="315" class="st0" width="8.7" height="51.3"/>
	</g>
</g>
<g class="st1">
	<g>
		<rect x="497" y="315" class="st0" width="8.7" height="51.3"/>
	</g>
</g>
<g class="st1">
	<g>
		<rect x="507.5" y="315" class="st0" width="8.7" height="51.3"/>
	</g>
</g>
<g class="st1">
	<g>
		<rect x="518" y="315" class="st0" width="8.7" height="51.3"/>
	</g>
</g>
<g class="st1">
	<g>
		<rect x="528.5" y="315" class="st0" width="8.7" height="51.3"/>
	</g>
</g>
<g class="st1">
	<g>
		<rect x="539" y="315" class="st0" width="8.7" height="51.3"/>
	</g>
</g>
<g class="st1">
	<g>
		<rect x="549.5" y="315" class="st0" width="8.7" height="51.3"/>
	</g>
</g>
<g class="st1">
	<g>
		<rect x="560" y="315" class="st0" width="8.7" height="51.3"/>
	</g>
</g>
<g class="st1">
	<g>
		<rect x="570.5" y="315" class="st0" width="8.7" height="51.3"/>
	</g>
</g>
<g class="st1">
	<g>
		<rect x="581" y="315" class="st0" width="8.7" height="51.3"/>
	</g>
</g>
<g class="st1">
	<g>
		<rect x="591.5" y="315" class="st0" width="8.7" height="51.3"/>
	</g>
</g>
<g class="st1">
	<g>
		<rect x="602" y="315" class="st0" width="8.7" height="51.3"/>
	</g>
</g>
<g class="st1">
	<g>
		<rect x="612.5" y="315" class="st0" width="8.7" height="51.3"/>
	</g>
</g>
<g class="st1">
	<g>
		<rect x="623" y="315" class="st0" width="8.7" height="51.3"/>
	</g>
</g>
<g class="st1">
	<g>
		<rect x="633.5" y="315" class="st0" width="8.7" height="51.3"/>
	</g>
</g>
<g class="st1">
	<g>
		<rect x="644.1" y="315" class="st0" width="8.7" height="51.3"/>
	</g>
</g>
<g class="st1">
	<g>
		<rect x="654.6" y="315" class="st0" width="8.7" height="51.3"/>
	</g>
</g>
<g class="st1">
	<g>
		<rect x="665.1" y="315" class="st0" width="8.7" height="51.3"/>
	</g>
</g>
<path class="st0" d="M339,301.6l4.8-9.3c0.4-0.8,0.8-1.6,1.1-2.2c0.3-0.6,0.5-1.2,0.7-1.7s0.3-0.9,0.3-1.2c0.1-0.3,0.1-0.7,0.1-0.9
	c0-0.4,0-0.8-0.1-1.1s-0.2-0.5-0.4-0.7c-0.2-0.2-0.4-0.3-0.6-0.4s-0.5-0.1-0.8-0.1c-0.8,0-1.3,0.3-1.6,0.9c-0.3,0.6-0.5,1.5-0.5,2.7
	v1.2h-2.6c-0.1-0.5-0.2-0.9-0.2-1.3c-0.1-0.4-0.1-0.8-0.1-1.3c0-0.6,0.1-1.1,0.3-1.7c0.2-0.6,0.5-1,0.9-1.5c0.4-0.4,0.9-0.8,1.6-1.1
	c0.6-0.3,1.4-0.4,2.3-0.4c1,0,1.8,0.1,2.5,0.3c0.7,0.2,1.2,0.5,1.7,1c0.4,0.4,0.8,0.9,1,1.6c0.2,0.6,0.3,1.3,0.3,2.1
	c0,0.4,0,0.9-0.1,1.3s-0.2,0.9-0.4,1.4c-0.2,0.5-0.4,1-0.7,1.6c-0.3,0.6-0.7,1.2-1.1,2l-4.3,8.2h6.4v2.6H339V301.6z"/>
<path class="st0" d="M351.7,288c0-1,0.1-1.8,0.3-2.5c0.2-0.7,0.4-1.3,0.7-1.8c0.3-0.5,0.6-0.9,1-1.1c0.4-0.3,0.8-0.5,1.2-0.7
	c0.4-0.2,0.8-0.3,1.2-0.3c0.4-0.1,0.8-0.1,1.1-0.1c0.3,0,0.7,0,1.1,0.1c0.4,0,0.8,0.1,1.2,0.3c0.4,0.1,0.8,0.4,1.2,0.7
	s0.7,0.7,1,1.1c0.3,0.5,0.5,1.1,0.7,1.8c0.2,0.7,0.3,1.5,0.3,2.5v9.2c0,1-0.1,1.8-0.3,2.5c-0.2,0.7-0.4,1.3-0.7,1.8
	c-0.3,0.5-0.6,0.9-1,1.2c-0.4,0.3-0.8,0.5-1.2,0.7c-0.4,0.2-0.8,0.3-1.2,0.3c-0.4,0.1-0.7,0.1-1,0.1s-0.7,0-1.1-0.1
	s-0.8-0.2-1.2-0.3c-0.4-0.2-0.8-0.4-1.2-0.7c-0.4-0.3-0.7-0.7-1-1.2s-0.5-1.1-0.7-1.8c-0.2-0.7-0.3-1.5-0.3-2.5V288H351.7z
	 M355.1,298.6c0,0.9,0.2,1.6,0.5,2s0.8,0.6,1.5,0.6s1.1-0.2,1.5-0.6c0.3-0.4,0.5-1.1,0.5-2v-11.8c0-1-0.2-1.7-0.5-2.1
	s-0.8-0.7-1.5-0.7s-1.2,0.2-1.5,0.7c-0.3,0.4-0.5,1.1-0.5,2.1V298.6z"/>
<path class="st0" d="M369.9,293.5c-0.5,0-1-0.1-1.5-0.2s-0.9-0.4-1.3-0.8s-0.7-1-1-1.7s-0.4-1.7-0.4-2.9v-1.4c0-0.8,0.1-1.4,0.2-2
	s0.3-1.1,0.5-1.5s0.4-0.7,0.7-1c0.3-0.2,0.6-0.4,0.9-0.6c0.3-0.1,0.6-0.2,0.9-0.3c0.3-0.1,0.6-0.1,0.9-0.1s0.6,0,0.9,0.1
	c0.3,0,0.6,0.1,0.9,0.3c0.3,0.1,0.6,0.3,0.9,0.6c0.3,0.2,0.5,0.6,0.7,1s0.4,0.9,0.5,1.5s0.2,1.2,0.2,2v1.4c0,1.2-0.1,2.1-0.4,2.8
	s-0.6,1.3-1,1.7s-0.8,0.7-1.3,0.8C370.8,293.5,370.3,293.5,369.9,293.5z M369.9,291.5c0.5,0,0.9-0.2,1.1-0.7s0.3-1.2,0.3-2.2v-2.5
	c0-1-0.1-1.7-0.3-2.2c-0.2-0.5-0.6-0.7-1.1-0.7c-0.6,0-1,0.2-1.2,0.7s-0.3,1.2-0.3,2.2v2.5c0,1,0.1,1.7,0.3,2.2
	C369,291.3,369.4,291.5,369.9,291.5z M377.6,281.5h2.3l-5.9,22.1h-2.3L377.6,281.5z M377.7,296.8c0-1.2,0.1-2.1,0.4-2.8
	s0.6-1.2,1-1.6s0.9-0.6,1.3-0.8c0.5-0.1,1-0.2,1.4-0.2c0.3,0,0.6,0,0.9,0.1c0.3,0,0.6,0.1,0.9,0.3c0.3,0.1,0.6,0.3,0.9,0.6
	c0.3,0.2,0.5,0.6,0.7,1s0.4,0.9,0.5,1.5s0.2,1.2,0.2,2v1.4c0,0.8-0.1,1.5-0.2,2c-0.1,0.6-0.3,1.1-0.5,1.5s-0.5,0.7-0.7,1
	c-0.3,0.3-0.6,0.5-0.9,0.6c-0.3,0.2-0.6,0.3-0.9,0.3c-0.3,0.1-0.6,0.1-0.9,0.1s-0.7,0-1-0.1s-0.6-0.2-0.9-0.3
	c-0.3-0.1-0.6-0.3-0.9-0.6c-0.3-0.3-0.5-0.6-0.7-1s-0.4-0.9-0.5-1.5s-0.2-1.3-0.2-2.1v-1.4H377.7z M380.3,298.9c0,1,0.1,1.7,0.3,2.2
	s0.6,0.7,1.2,0.7c0.5,0,0.9-0.2,1.1-0.7s0.3-1.2,0.3-2.2v-2.5c0-1-0.1-1.7-0.3-2.2c-0.2-0.5-0.6-0.7-1.1-0.7c-0.6,0-1,0.2-1.2,0.7
	s-0.3,1.2-0.3,2.2V298.9z"/>
</svg>
