<?xml version="1.0" encoding="utf-8"?>
<!-- Generator: Adobe Illustrator 28.0.0, SVG Export Plug-In . SVG Version: 6.00 Build 0)  -->
<svg version="1.1" id="Layer_1" xmlns:xodm="http://www.corel.com/coreldraw/odm/2003"
	 xmlns="http://www.w3.org/2000/svg" xmlns:xlink="http://www.w3.org/1999/xlink" x="0px" y="0px" viewBox="0 0 720 720"
	 style="enable-background:new 0 0 720 720;" xml:space="preserve">
<style type="text/css">
	.st0{fill-rule:evenodd;clip-rule:evenodd;fill:#C10C0C;}
	.st1{fill-rule:evenodd;clip-rule:evenodd;fill:#FFFFFF;}
	.st2{fill-rule:evenodd;clip-rule:evenodd;}
	.st3{fill:#C10C0C;}
</style>
<path class="st0" d="M548.1,666.2H171.8c-20.4,0-37-16.5-37-37V83c0-20.4,16.5-37,37-37h376.4c20.4,0,37,16.5,37,37v546.3
	C585,649.6,568.6,666.2,548.1,666.2z"/>
<path class="st1" d="M546.1,65.3H173.8c-11.1,0-20.1,8.9-20.1,20.1V627c0,11.1,8.9,20.1,20.1,20.1h372.4c11.1,0,20.1-8.9,20.1-20.1
	V85.3C566.2,74.2,557.2,65.3,546.1,65.3z M560.6,625.5c0,9.2-7.5,16.7-16.7,16.7H176c-9.2,0-16.7-7.5-16.7-16.7V86.7
	c0-9.2,7.5-16.7,16.7-16.7h367.8c9.2,0,16.7,7.5,16.7,16.7L560.6,625.5L560.6,625.5z"/>
<path class="st1" d="M546.1,69.8H174.9c-9,0-16.3,5.6-16.3,12.5v106.4h403.8V82.2C562.5,75.3,555.2,69.8,546.1,69.8z"/>
<path class="st2" d="M517.7,374.4c-0.1,14.6-3.3,29.2-7.2,42.6c-1.3,4.5-3.8,11.8-4.3,13c-0.4,1.1-0.2,6.6-0.4,9.8
	c-0.4,5.8-1.2,11.7-3.7,18.4c-0.8,3,12.6,19.8,15.8,32.8c1.2,5.1,1,7.9-2.3,12.1c-7.1,8.9-23.6,14.5-33,16.7
	c-10.8,2.5-22.2-2.7-31.8,5.1c-8.2,5.8-17.9,20.7-18.1,26.4c3.5,6.3,12.6,36.2-19.9,42.9c-4.5,0.9-6.5,5.3-10.7,7.3
	c-2.6,1.3-6.9-0.3-10.9,1.7c-9.9,5-21.6,5.4-32,3.4c-10.3,2-21.1,1.6-31-3.4c-4.1-2-8.3-0.5-10.9-1.7c-4.2-2-6.2-6.4-10.7-7.3
	c-32.6-6.7-23.4-36.6-19.9-42.9c-0.2-5.6-8.5-20.4-16.7-26.2c-9.9-6.8-22.4-2.7-33.2-5.2c-8.6-2-24.5-8.2-31.7-15.9
	c-5-5.3-4.1-9.5-1.9-15.9c4.3-12.3,14.8-27,14.1-29.8c-2.5-6.8-3.3-12.6-3.7-18.4c-0.2-3.2,0-8.8-0.4-9.8c-0.5-1.2-3-8.4-4.3-13
	c-3.9-13.4-7.1-27.9-7.2-42.6c2.2-108.5,96.8-155.7,158-154.6C420.9,218.7,515.5,265.9,517.7,374.4L517.7,374.4z"/>
<path class="st1" d="M359.1,551.5c1.8,12.9,5.1,37.6,6.3,38.4c1.9,1.6,13.9,0.7,15.2-1.6c1.2-2.6,0.5-45.7,2-46.2
	c1.2-0.4,6,43.2,6.5,43.7c0.6,0.4,13.4-5.5,13.5-6.4c0.1-0.8-6.9-36.8-6.3-37.2c0.3,0.1,4.2,7.9,7.8,16.1c3.7,8.4,6.8,17.1,7.8,17.8
	c3,1.3,11-6.8,11.1-11.3c0.1-1.9-0.9-5.8-2.6-9.9c-1.7-4.2-3-8.2-5.1-12c-0.2-0.3-0.3-0.5-0.4-0.7c-0.4-0.6-0.7-1-0.6-1.9
	c0.5-4.3,6.1-15.4,7.5-17.7c1.6-2.7,8.6-17.7,28.6-23.2c10-2.3,14-1.6,22.6-2.1c6.6-0.5,13-3,17.3-5.1c5.2-2.5,4.7-4,2.6-9.1
	c-1-2.2-2.1-4.8-3.5-7.6c-2.5-5.3-5.4-11.3-8.7-14.1c-0.7-0.6-2.6-1.3-2.4-2c1.2-6.4,7.5-14,8.1-36.9c0.3-22.1-13.7-43.6-31-55.6
	c-5.1-3.5-9.8-5.1-15.3-7.6c3.4-2.1,17.6-1,23.6,0.6c2.9-6.9,11.1-27-9.4-58.4c11.4,8.8,15.4,17.6,18.5,26.2s5.2,25.4,1.6,36.9
	c3.5,2.9,17.5,15.3,21.1,26.1c2.3-13.9,2.4-40.1-6.7-65.6c-41.9-118-216.7-118-258.6,0c-9.1,25.5-9,51.7-6.7,65.6
	c3.6-10.8,17.6-23.2,21.1-26.1c-3.6-11.5-1.5-28.3,1.6-36.9s7.1-17.3,18.5-26.2c-20.4,31.4-12.3,51.5-9.4,58.4
	c5.9-1.6,20.2-2.7,23.6-0.6c-5.5,2.5-10.2,4.1-15.3,7.6c-17.3,12-31.2,33.5-31,55.6c0.5,22.6,6.7,30.4,8,36.7c0.2,0.6,0,0.8-0.6,1.1
	c-4.2,1.8-7.7,9-10.6,15.2c-1.4,2.9-2.6,5.7-3.6,7.9c-1.9,4.3-1.6,6.7,2.9,8.8c4.3,2,10.6,4.5,17.2,5.1c8.6,0.5,12.7-0.2,22.6,2.1
	c20,5.4,27,20.5,28.6,23.2c1.4,2.4,7.6,13.5,8.1,17.7c0.1,0.9-0.2,1.3-0.6,1.9c-0.1,0.2-0.3,0.4-0.4,0.7c-2.1,3.8-4,7.9-5.7,12
	s-2.7,8-2.6,9.9c0.1,4.4,8.1,12.5,11.1,11.3c1-0.7,4.1-9.4,7.8-17.8c3.6-8.2,7.5-16.1,7.8-16.1c0.6,0.4-6.4,36.4-6.3,37.2
	c0.1,0.9,10.8,7.2,11.3,6.7s7.5-44.4,8.7-44c1.5,0.6,0.8,43.6,2,46.2c1.3,2.3,13.3,3.1,15.2,1.6
	C354.7,589.1,357.4,564.4,359.1,551.5L359.1,551.5z M252.5,467.1c9.3,10.2,12.8,14.4,29.9,16.4c7,1.1,21,5.7,25.5,11
	c-0.2-3.9-5.2-17.4-22.2-19.3C271.7,473.7,266.2,472.4,252.5,467.1z M464.9,467.1c-9.3,10.2-12.8,14.4-29.9,16.4
	c-7,1.1-21,5.7-25.5,11c0.2-3.9,5.2-17.4,22.2-19.3C445.6,473.7,451.2,472.4,464.9,467.1z M372.2,455.9c6,6.9,11.1,19.3,14.1,28.6
	c2.3,6.8,6.7,12.6,5,19.7c-1.8,7.7-13.9,15.9-24,15.9c-2.8,0-5.3-1.1-7.9-1.1s-5.1,1.1-7.8,1.1c-10.1,0-22.2-8.2-24-15.9
	c-1.7-7.1,2.8-12.9,5-19.7c3.1-9.3,8.1-21.7,14.1-28.6C355.1,446.3,363.7,446.3,372.2,455.9L372.2,455.9z M325.3,434.6
	c-21.3,33-82,23.7-75.4-23.1c4.9-34.7,36.3-37.2,49.8-34.6c14.6,2.8,27.5,14.1,34.1,23.2c10.2-15.5-7.4-37-16.5-40.9
	c31.7,4.4,46.6,41.7,22.6,57.6c0.7,5.1,4.8,43.8-40.8,48.8C299,465.6,321.3,454.8,325.3,434.6L325.3,434.6z M392.8,434.5
	c21.3,33,82,23.7,75.4-23.1c-4.9-34.7-36.3-37.2-49.8-34.6c-14.6,2.8-27.5,14.1-34.1,23.2c-10.2-15.5,7.4-37,16.5-40.9
	c-31.7,4.4-46.6,41.7-22.6,57.6c-0.7,5.1-4.8,43.8,40.8,48.8C419.1,465.5,396.8,454.7,392.8,434.5L392.8,434.5z"/>
<g>
	<path class="st3" d="M170,96.2h20.8c8.5,0,14.8,1.2,18.9,3.5c4.2,2.3,7.9,6.1,11.2,11.1c3.3,5.1,4.9,11.5,4.9,19.2
		c0,9.7-2.9,17.9-8.6,24.4c-5.7,6.5-13.7,9.8-23.8,9.8H170V96.2z M185.7,108.7v42.8h6.6c5.8,0,10.1-2.2,12.9-6.5
		c2.8-4.3,4.2-9.4,4.2-15.3c0-4.1-0.8-7.9-2.4-11.5c-1.6-3.5-3.6-6-6-7.4s-5.3-2.1-8.6-2.1H185.7z"/>
	<path class="st3" d="M269.7,96.2l21.3,68.1h-17.1l-4.2-14h-22l-4.3,14h-14l21.8-68.1C251.2,96.2,269.7,96.2,269.7,96.2z
		 M251.5,137.7h14.4l-7.2-23.9L251.5,137.7z"/>
	<path class="st3" d="M350.8,96.2v68.1h-13.6l-26.7-46c0,1.2,0.1,1.9,0.1,2.3c0.1,1.2,0.2,2.1,0.2,2.9v40.8h-12.4V96.2h17.2
		l23.2,40.2c-0.2-2-0.3-3.5-0.3-4.5V96.2H350.8z"/>
	<path class="st3" d="M417.5,127.9v36.4h-7.3c-0.5-2.6-1.3-5.2-2.3-7.8c-4.9,5.9-11,8.9-18.6,8.9c-8.9,0-15.8-3.2-20.7-9.5
		s-7.4-14.6-7.4-24.6c0-10.8,2.6-19.6,7.9-26.1c5.3-6.6,12.4-9.9,21.5-9.9c7.6,0,13.7,2.1,18.4,6.4c4.7,4.3,7.5,9.9,8.5,17l-15.2,2
		c-1.2-8.2-5.1-12.4-11.7-12.4c-4.3,0-7.6,2-9.8,5.9c-2.2,3.9-3.3,9.5-3.3,16.7c0,7,1.2,12.3,3.6,16s5.8,5.5,10.2,5.5
		c2.9,0,5.4-0.9,7.7-2.8c2.2-1.9,3.4-4.8,3.4-8.9h-12.8V128L417.5,127.9L417.5,127.9z"/>
	<path class="st3" d="M478.7,109.1h-32.4v14h25.5v12.8h-25.5v14.9h32.4v13.5H430V96.2h48.6v12.9H478.7z"/>
	<path class="st3" d="M504.3,137.3v27h-16.1V96.2h29.9c5.5,0,10,0.6,13.3,1.9s6.1,3.6,8.3,7.1s3.3,7.2,3.3,11.4
		c0,8.2-3.9,14-11.8,17.6l12.6,30.1h-17.6l-10.5-27H504.3z M504.3,108.3v17.4h9.8c3.2,0,5.5-0.2,7-0.7c1.4-0.4,2.7-1.4,3.9-3
		c1.1-1.5,1.7-3.3,1.7-5.3c0-1.9-0.6-3.6-1.7-5.1s-2.4-2.4-3.7-2.8s-3.8-0.5-7.5-0.5H504.3z"/>
</g>
</svg>
