<?xml version="1.0" encoding="utf-8"?>
<!-- Generator: Adobe Illustrator 28.0.0, SVG Export Plug-In . SVG Version: 6.00 Build 0)  -->
<svg version="1.1" id="Layer_1" xmlns:xodm="http://www.corel.com/coreldraw/odm/2003"
	 xmlns="http://www.w3.org/2000/svg" xmlns:xlink="http://www.w3.org/1999/xlink" x="0px" y="0px" viewBox="0 0 720 720"
	 style="enable-background:new 0 0 720 720;" xml:space="preserve">
<style type="text/css">
	.st0{fill-rule:evenodd;clip-rule:evenodd;fill:#FFFFFF;stroke:#000000;stroke-miterlimit:10;}
	.st1{fill-rule:evenodd;clip-rule:evenodd;fill:#C10C0C;stroke:#000000;stroke-miterlimit:10;}
	.st2{fill:#FFFFFF;}
</style>
<path class="st0" d="M586.7,456.4H133.3c-53.3,0-96.4-43.2-96.4-96.4l0,0c0-53.3,43.2-96.4,96.4-96.4h453.3
	c53.3,0,96.4,43.2,96.4,96.4l0,0C683.1,413.3,639.9,456.4,586.7,456.4z"/>
<path class="st1" d="M583.9,441.6H136.1c-45.7,0-82.7-37-82.7-82.7l0,0c0-45.7,37-82.7,82.7-82.7H584c45.7,0,82.7,37,82.7,82.7l0,0
	C666.7,404.6,629.6,441.6,583.9,441.6z"/>
<path class="st2" d="M251.7,371.7v27.9h-18.6v-74.4h51.1l9.3,9.3v27.8l-9.3,9.3H251.7z M251.7,343.9v9.2h23.2v-9.2H251.7z"/>
<path class="st2" d="M319.6,325.2V381h23.2v-55.8h18.6v65.1l-9.3,9.3h-41.8l-9.3-9.3v-65.1H319.6z"/>
<path class="st2" d="M388,343.9v9.2h32.6l9.3,9.3v27.9l-9.3,9.3h-51.2V381h41.9v-9.3h-32.6l-9.3-9.3v-27.8l9.3-9.3h51.2v18.6H388z"
	/>
<path class="st2" d="M457.5,371.7v27.9h-18.6v-74.4h18.6v27.8h23.2v-27.8h18.6v74.4h-18.6v-27.9H457.5z"/>
</svg>
