<?xml version="1.0" encoding="UTF-8"?>
<svg id="Layer_1" data-name="Layer 1" xmlns="http://www.w3.org/2000/svg" version="1.1" xmlns:xodm="http://www.corel.com/coreldraw/odm/2003" viewBox="0 0 720 720">
  <defs>
    <style>
      .cls-1 {
        fill: #000;
        stroke-width: 0px;
      }
    </style>
  </defs>
  <polygon class="cls-1" points="128.1 272 122.4 218.1 154.6 195.2 158.2 156.1 207.8 133.9 207.8 226 128.1 272"/>
  <polygon class="cls-1" points="295.5 272 301.2 218.1 269 195.2 265.4 156.1 215.8 133.9 215.8 226 295.5 272"/>
  <polygon class="cls-1" points="132 279.1 175.9 310.9 211.8 294.6 247.5 311 291.6 279.1 211.8 233.1 132 279.1"/>
  <polygon class="cls-1" points="128.1 443 122.4 389.1 154.6 366.2 158.2 327 207.8 304.9 207.8 396.9 128.1 443"/>
  <polygon class="cls-1" points="295.5 443 301.2 389.1 269 366.2 265.4 327 215.8 304.9 215.8 396.9 295.5 443"/>
  <polygon class="cls-1" points="132 450.1 175.9 481.9 211.8 465.5 247.5 482 291.6 450.1 211.8 404 132 450.1"/>
  <polygon class="cls-1" points="128.1 444 122.4 390 154.6 367.2 158.2 328 207.8 305.8 207.8 397.9 128.1 444"/>
  <polygon class="cls-1" points="295.5 444 301.2 390 269 367.2 265.4 328 215.8 305.8 215.8 397.9 295.5 444"/>
  <polygon class="cls-1" points="132 451 175.9 482.9 211.8 466.5 247.5 482.9 291.6 451 211.8 405 132 451"/>
  <polygon class="cls-1" points="295.5 614 301.2 560 269 537.1 265.4 498 215.8 475.8 215.8 567.9 295.5 614"/>
  <polygon class="cls-1" points="132 621 175.9 652.9 211.8 636.5 247.5 652.9 291.6 621 211.8 575 132 621"/>
  <polygon class="cls-1" points="128.1 614.9 122.4 561 154.6 538.1 158.2 499 207.8 476.8 207.8 568.9 128.1 614.9"/>
  <polygon class="cls-1" points="295.5 614.9 301.2 561 269 538.1 265.4 499 215.8 476.8 215.8 568.9 295.5 614.9"/>
  <polygon class="cls-1" points="132 622 175.9 653.8 211.8 637.5 247.5 653.9 291.6 622 211.8 576 132 622"/>
  <polygon class="cls-1" points="432.5 269.2 426.8 215.2 459 192.4 462.6 153.2 512.2 131.1 512.2 223.2 432.5 269.2"/>
  <polygon class="cls-1" points="599.9 269.2 605.6 215.2 573.4 192.4 569.8 153.2 520.2 131.1 520.2 223.2 599.9 269.2"/>
  <polygon class="cls-1" points="436.4 276.3 480.3 308.1 516.2 291.8 551.9 308.2 596 276.3 516.2 230.2 436.4 276.3"/>
  <polygon class="cls-1" points="432.5 440.2 426.8 386.3 459 363.3 462.6 324.2 512.2 302.1 512.2 394.1 432.5 440.2"/>
  <polygon class="cls-1" points="599.9 440.2 605.6 386.3 573.4 363.3 569.8 324.2 520.2 302.1 520.2 394.1 599.9 440.2"/>
  <polygon class="cls-1" points="436.4 447.3 480.3 479.1 516.2 462.7 551.9 479.2 596 447.3 516.2 401.2 436.4 447.3"/>
  <polygon class="cls-1" points="432.5 441.2 426.8 387.2 459 364.3 462.6 325.2 512.2 302.9 512.2 395.1 432.5 441.2"/>
  <polygon class="cls-1" points="599.9 441.2 605.6 387.2 573.4 364.3 569.8 325.2 520.2 302.9 520.2 395.1 599.9 441.2"/>
  <polygon class="cls-1" points="436.4 448.2 480.3 480.1 516.2 463.7 551.9 480.1 596 448.2 516.2 402.2 436.4 448.2"/>
  <polygon class="cls-1" points="599.9 611.1 605.6 557.1 573.4 534.3 569.8 495.1 520.2 472.9 520.2 565.1 599.9 611.1"/>
  <polygon class="cls-1" points="436.4 618.1 480.3 650.1 516.2 633.6 551.9 650.1 596 618.1 516.2 572.1 436.4 618.1"/>
  <polygon class="cls-1" points="432.5 612.1 426.8 558.1 459 535.3 462.6 496.1 512.2 473.9 512.2 566.1 432.5 612.1"/>
  <polygon class="cls-1" points="599.9 612.1 605.6 558.1 573.4 535.3 569.8 496.1 520.2 473.9 520.2 566.1 599.9 612.1"/>
  <polygon class="cls-1" points="436.4 619.1 480.3 651 516.2 634.6 551.9 651.1 596 619.1 516.2 573.1 436.4 619.1"/>
  <polygon class="cls-1" points="280.3 183 274.7 129.1 306.8 106.2 310.4 67 360.1 44.9 360.1 136.9 280.3 183"/>
  <polygon class="cls-1" points="447.8 183 453.4 129.1 421.3 106.2 417.7 67 368 44.9 368 136.9 447.8 183"/>
  <polygon class="cls-1" points="284.3 190.1 328.2 221.9 364.1 205.5 399.8 222 443.8 190.1 364.1 144 284.3 190.1"/>
  <polygon class="cls-1" points="280.3 353.9 274.7 300 306.8 277.1 310.4 238 360.1 215.8 360.1 307.9 280.3 353.9"/>
  <polygon class="cls-1" points="447.8 353.9 453.4 300 421.3 277.1 417.7 238 368 215.8 368 307.9 447.8 353.9"/>
  <polygon class="cls-1" points="284.3 361 328.2 392.9 364.1 376.5 399.8 392.9 443.8 361 364.1 315 284.3 361"/>
  <polygon class="cls-1" points="280.3 354.9 274.7 301 306.8 278.1 310.4 239 360.1 216.8 360.1 308.9 280.3 354.9"/>
  <polygon class="cls-1" points="447.8 354.9 453.4 301 421.3 278.1 417.7 239 368 216.8 368 308.9 447.8 354.9"/>
  <polygon class="cls-1" points="284.3 362 328.2 393.8 364.1 377.5 399.8 393.9 443.8 362 364.1 315.9 284.3 362"/>
  <polygon class="cls-1" points="447.8 524.9 453.4 471 421.3 448.1 417.7 409 368 386.8 368 478.9 447.8 524.9"/>
  <polygon class="cls-1" points="284.3 532 328.2 563.8 364.1 547.4 399.8 563.9 443.8 532 364.1 485.9 284.3 532"/>
  <polygon class="cls-1" points="280.3 525.9 274.7 472 306.8 449.1 310.4 409.9 360.1 387.7 360.1 479.8 280.3 525.9"/>
  <polygon class="cls-1" points="447.8 525.9 453.4 472 421.3 449.1 417.7 409.9 368 387.7 368 479.8 447.8 525.9"/>
  <polygon class="cls-1" points="284.3 533 328.2 564.8 364.1 548.4 399.8 564.9 443.8 532.9 364.1 486.9 284.3 533"/>
</svg>