<?xml version="1.0" encoding="utf-8"?>
<!-- Generator: Adobe Illustrator 28.0.0, SVG Export Plug-In . SVG Version: 6.00 Build 0)  -->
<svg version="1.1" id="Layer_1" xmlns:xodm="http://www.corel.com/coreldraw/odm/2003"
	 xmlns="http://www.w3.org/2000/svg" xmlns:xlink="http://www.w3.org/1999/xlink" x="0px" y="0px" viewBox="0 0 720 720"
	 style="enable-background:new 0 0 720 720;" xml:space="preserve">
<style type="text/css">
	.st0{fill:#C02026;}
	.st1{opacity:0.5;}
</style>
<g>
	<path class="st0" d="M649.7,387.6H72.3c-17.8,0-32.1-14.3-32.1-32.1l0,0c0-17.8,14.3-32.1,32.1-32.1h577.4
		c17.8,0,32.1,14.3,32.1,32.1l0,0C681.8,373.1,667.5,387.6,649.7,387.6z M72.3,328.5c-14.8,0-26.9,12-26.9,26.9l0,0
		c0,14.8,12,26.9,26.9,26.9h577.4c14.8,0,26.9-12,26.9-26.9l0,0c0-14.8-12-26.9-26.9-26.9H72.3z"/>
</g>
<g>
	<g>
		<path class="st0" d="M67,330.5l-16.8,37.9c-2.1-3.6-3.3-7.8-3.5-12.2l8.9-20C58.8,333.4,62.7,331.4,67,330.5z"/>
	</g>
</g>
<g>
	<g>
		<path class="st0" d="M54.3,337.3l-7.6,17C47.1,347.7,49.9,341.7,54.3,337.3z"/>
	</g>
</g>
<g>
	<g>
		<path class="st0" d="M77.9,329.9l-20.5,46.2c-2.4-1.7-4.4-3.8-6.1-6.2L69,330.1L77.9,329.9z"/>
	</g>
</g>
<g>
	<g>
		<path class="st0" d="M88.5,329.9L88.5,329.9l-22.3,50.3c-2.7-0.6-5.2-1.7-7.5-3.1l20.9-47.1l0,0H88.5z"/>
	</g>
</g>
<g>
	<g>
		<polygon class="st0" points="76.6,380.9 67.7,380.9 90.3,329.9 99.2,329.9 		"/>
	</g>
</g>
<g>
	<g>
		<polygon class="st0" points="87.2,380.9 78.4,380.9 100.9,329.9 109.8,329.9 		"/>
	</g>
</g>
<g>
	<g>
		<polygon class="st0" points="97.9,380.9 89,380.9 111.6,329.9 120.5,329.9 		"/>
	</g>
</g>
<g>
	<g>
		<polygon class="st0" points="108.5,380.9 99.6,380.9 122.2,329.9 131.1,329.9 		"/>
	</g>
</g>
<g>
	<g>
		<polygon class="st0" points="119.2,380.9 110.3,380.9 133,329.9 141.8,329.9 		"/>
	</g>
</g>
<g>
	<g>
		<polygon class="st0" points="129.8,380.9 120.9,380.9 143.6,329.9 152.4,329.9 		"/>
	</g>
</g>
<g>
	<g>
		<polygon class="st0" points="140.5,380.9 131.6,380.9 154.3,329.9 163,329.9 		"/>
	</g>
</g>
<g>
	<g>
		<polygon class="st0" points="151.1,380.9 142.2,380.9 164.9,329.9 173.8,329.9 		"/>
	</g>
</g>
<g>
	<g>
		<polygon class="st0" points="161.7,380.9 152.9,380.9 175.5,329.9 184.4,329.9 		"/>
	</g>
</g>
<g>
	<g>
		<polygon class="st0" points="172.4,380.9 163.6,380.9 186.2,329.9 195.1,329.9 		"/>
	</g>
</g>
<g>
	<g>
		<polygon class="st0" points="183,380.9 174.2,380.9 196.8,329.9 205.7,329.9 		"/>
	</g>
</g>
<g>
	<g>
		<polygon class="st0" points="193.7,380.9 184.9,380.9 207.5,329.9 216.4,329.9 		"/>
	</g>
</g>
<g>
	<g>
		<polygon class="st0" points="204.4,380.9 195.5,380.9 218.1,329.9 227,329.9 		"/>
	</g>
</g>
<g>
	<g>
		<polygon class="st0" points="215.1,380.9 206.2,380.9 228.8,329.9 237.6,329.9 		"/>
	</g>
</g>
<g>
	<g>
		<polygon class="st0" points="225.7,380.9 216.8,380.9 239.4,329.9 248.3,329.9 		"/>
	</g>
</g>
<g>
	<g>
		<polygon class="st0" points="236.3,380.9 227.5,380.9 250,329.9 258.9,329.9 		"/>
	</g>
</g>
<g>
	<g>
		<polygon class="st0" points="247,380.9 238.1,380.9 260.7,329.9 269.6,329.9 		"/>
	</g>
</g>
<g>
	<g>
		<polygon class="st0" points="257.6,380.9 248.7,380.9 271.3,329.9 280.2,329.9 		"/>
	</g>
</g>
<g>
	<g>
		<polygon class="st0" points="268.3,380.9 259.4,380.9 282.1,329.9 290.9,329.9 		"/>
	</g>
</g>
<g>
	<g>
		<polygon class="st0" points="278.9,380.9 270,380.9 292.7,329.9 301.5,329.9 		"/>
	</g>
</g>
<g>
	<g>
		<polygon class="st0" points="289.6,380.9 280.7,380.9 303.4,329.9 312.1,329.9 		"/>
	</g>
</g>
<g>
	<g>
		<polygon class="st0" points="300.2,380.9 291.3,380.9 314,329.9 322.9,329.9 		"/>
	</g>
</g>
<g>
	<g>
		<polygon class="st0" points="310.9,380.9 302,380.9 324.6,329.9 333.5,329.9 		"/>
	</g>
</g>
<g>
	<g>
		<polygon class="st0" points="321.5,380.9 312.7,380.9 335.3,329.9 344.2,329.9 		"/>
	</g>
</g>
<g>
	<g>
		<polygon class="st0" points="332.1,380.9 323.3,380.9 345.9,329.9 354.8,329.9 		"/>
	</g>
</g>
<g>
	<g>
		<polygon class="st0" points="342.8,380.9 334,380.9 356.6,329.9 365.5,329.9 		"/>
	</g>
</g>
<g>
	<g>
		<polygon class="st0" points="353.5,380.9 344.6,380.9 367.2,329.9 376.1,329.9 		"/>
	</g>
</g>
<g>
	<g>
		<polygon class="st0" points="364.2,380.9 355.3,380.9 377.9,329.9 386.7,329.9 		"/>
	</g>
</g>
<g>
	<g>
		<polygon class="st0" points="374.8,380.9 365.9,380.9 388.5,329.9 397.4,329.9 		"/>
	</g>
</g>
<g>
	<g>
		<polygon class="st0" points="385.4,380.9 376.6,380.9 399.1,329.9 408,329.9 		"/>
	</g>
</g>
<g>
	<g>
		<polygon class="st0" points="396.1,380.9 387.2,380.9 409.8,329.9 418.7,329.9 		"/>
	</g>
</g>
<g>
	<g>
		<polygon class="st0" points="406.7,380.9 397.9,380.9 420.4,329.9 429.3,329.9 		"/>
	</g>
</g>
<g>
	<g>
		<polygon class="st0" points="417.4,380.9 408.5,380.9 431.2,329.9 440,329.9 		"/>
	</g>
</g>
<g>
	<g>
		<polygon class="st0" points="428,380.9 419.1,380.9 441.8,329.9 450.6,329.9 		"/>
	</g>
</g>
<g>
	<g>
		<polygon class="st0" points="438.7,380.9 429.8,380.9 452.5,329.9 461.2,329.9 		"/>
	</g>
</g>
<g>
	<g>
		<polygon class="st0" points="449.3,380.9 440.4,380.9 463.1,329.9 472,329.9 		"/>
	</g>
</g>
<g>
	<g>
		<polygon class="st0" points="460,380.9 451.1,380.9 473.7,329.9 482.6,329.9 		"/>
	</g>
</g>
<g>
	<g>
		<polygon class="st0" points="470.6,380.9 461.8,380.9 484.4,329.9 493.3,329.9 		"/>
	</g>
</g>
<g>
	<g>
		<polygon class="st0" points="481.2,380.9 472.4,380.9 495,329.9 503.9,329.9 		"/>
	</g>
</g>
<g>
	<g>
		<polygon class="st0" points="491.9,380.9 483.1,380.9 505.7,329.9 514.6,329.9 		"/>
	</g>
</g>
<g>
	<g>
		<polygon class="st0" points="502.6,380.9 493.7,380.9 516.3,329.9 525.2,329.9 		"/>
	</g>
</g>
<g>
	<g>
		<polygon class="st0" points="513.3,380.9 504.4,380.9 527,329.9 535.8,329.9 		"/>
	</g>
</g>
<g>
	<g>
		<polygon class="st0" points="523.9,380.9 515,380.9 537.6,329.9 546.5,329.9 		"/>
	</g>
</g>
<g>
	<g>
		<polygon class="st0" points="534.6,380.9 525.7,380.9 548.2,329.9 557.1,329.9 		"/>
	</g>
</g>
<g>
	<g>
		<polygon class="st0" points="545.2,380.9 536.3,380.9 558.9,329.9 567.8,329.9 		"/>
	</g>
</g>
<g>
	<g>
		<polygon class="st0" points="555.8,380.9 547,380.9 569.6,329.9 578.4,329.9 		"/>
	</g>
</g>
<g>
	<g>
		<polygon class="st0" points="566.5,380.9 557.6,380.9 580.3,329.9 589.1,329.9 		"/>
	</g>
</g>
<g>
	<g>
		<polygon class="st0" points="577.1,380.9 568.2,380.9 590.9,329.9 599.7,329.9 		"/>
	</g>
</g>
<g>
	<g>
		<polygon class="st0" points="587.8,380.9 578.9,380.9 601.6,329.9 610.4,329.9 		"/>
	</g>
</g>
<g class="st1">
	<g>
		<polygon class="st0" points="598.4,380.9 589.5,380.9 612.2,329.9 621.1,329.9 		"/>
	</g>
</g>
<g class="st1">
	<g>
		<polygon class="st0" points="609.1,380.9 600.2,380.9 622.8,329.9 631.7,329.9 		"/>
	</g>
</g>
<g class="st1">
	<g>
		<polygon class="st0" points="619.7,380.9 610.9,380.9 633.5,329.9 642.4,329.9 		"/>
	</g>
</g>
<g class="st1">
	<g>
		<polygon class="st0" points="630.3,380.9 621.5,380.9 644.1,329.9 653,329.9 		"/>
	</g>
</g>
<g class="st1">
	<g>
		<path class="st0" d="M662.2,333.3L641,381l0,0h-8.9l0,0l22.4-50.5C657.3,330.9,659.9,331.9,662.2,333.3z"/>
	</g>
</g>
<g class="st1">
	<g>
		<path class="st0" d="M669.9,339.8l-18.1,41l-0.1,0.1h-8.9l0,0l20.7-46.9C666,335.7,668.1,337.6,669.9,339.8z"/>
	</g>
</g>
<g class="st1">
	<g>
		<path class="st0" d="M675,352.3l-10.6,24c-3.1,2.2-6.8,3.8-10.8,4.3l17.4-39.2C673.1,344.6,674.6,348.3,675,352.3z"/>
	</g>
</g>
<g class="st1">
	<g>
		<path class="st0" d="M675.2,355.5c0,7.7-3.4,14.6-8.8,19.3l8.8-19.8C675.2,355,675.2,355.3,675.2,355.5z"/>
	</g>
</g>
<path class="st0" d="M346.4,312.7c0,1-0.1,1.9-0.3,2.6c-0.2,0.7-0.4,1.3-0.7,1.8c-0.3,0.5-0.6,0.8-1,1.2c-0.4,0.3-0.7,0.5-1.2,0.6
	c-0.4,0.2-0.8,0.3-1.2,0.3c-0.4,0-0.7,0.1-1.1,0.1c-0.9,0-1.7-0.1-2.3-0.4c-0.6-0.2-1.1-0.6-1.6-0.9c-0.4-0.4-0.6-0.8-0.8-1.3
	c-0.2-0.5-0.3-1-0.3-1.6c0-0.3,0-0.6,0.1-1c0.1-0.4,0.2-0.7,0.3-1.1h2.5v0.5c0,0.6,0,1.2,0.1,1.6s0.2,0.7,0.4,1
	c0.2,0.3,0.4,0.4,0.6,0.5c0.3,0.1,0.6,0.1,0.9,0.1c0.6,0,1.2-0.3,1.6-0.7c0.4-0.5,0.6-1.3,0.6-2.4v-4c-0.3,0.4-0.7,0.6-1.2,0.9
	c-0.6,0.3-1.1,0.4-1.8,0.4c-0.5,0-1-0.1-1.5-0.3c-0.6-0.2-1-0.5-1.4-0.8s-0.7-0.9-1-1.7c-0.3-0.7-0.4-1.6-0.4-2.7v-2.1
	c0-1.1,0.1-2.1,0.4-3c0.3-0.8,0.6-1.5,1-1.9s1-0.8,1.7-1.1c0.6-0.2,1.4-0.4,2.1-0.4c0.9,0,1.7,0.1,2.4,0.4c0.6,0.2,1.3,0.6,1.8,1.1
	c0.5,0.6,0.8,1.2,1.1,2c0.3,0.8,0.4,1.9,0.4,3.1L346.4,312.7L346.4,312.7z M343.1,302.1c0-0.5,0-0.9-0.1-1.3s-0.2-0.6-0.4-0.8
	c-0.2-0.2-0.4-0.4-0.6-0.5c-0.3-0.1-0.6-0.2-0.9-0.2c-0.6,0-1.1,0.3-1.5,0.7c-0.3,0.5-0.5,1.2-0.5,2.1v3.3c0,0.6,0.1,0.9,0.2,1.3
	c0.1,0.4,0.2,0.6,0.4,0.8c0.2,0.2,0.4,0.4,0.6,0.5c0.3,0.1,0.5,0.2,0.8,0.2c0.2,0,0.5,0,0.6-0.1c0.2-0.1,0.4-0.2,0.6-0.3
	c0.2-0.1,0.4-0.3,0.5-0.4c0.2-0.2,0.3-0.3,0.4-0.5L343.1,302.1L343.1,302.1z"/>
<path class="st0" d="M349.2,303.5c0-0.9,0.1-1.8,0.3-2.5c0.2-0.6,0.4-1.3,0.6-1.8c0.3-0.5,0.6-0.8,1-1.1c0.4-0.3,0.7-0.6,1.1-0.6
	c0.4-0.2,0.8-0.3,1.2-0.3c0.4-0.1,0.7-0.1,1.1-0.1c0.3,0,0.6,0,1,0.1c0.4,0.1,0.7,0.2,1.2,0.3c0.4,0.2,0.7,0.4,1.1,0.6
	c0.4,0.3,0.7,0.6,1,1.1c0.3,0.5,0.6,1,0.6,1.8c0.2,0.7,0.3,1.6,0.3,2.5v9.2c0,0.9-0.1,1.8-0.3,2.5c-0.2,0.6-0.4,1.3-0.7,1.8
	c-0.3,0.5-0.6,0.8-1,1.2c-0.4,0.3-0.7,0.6-1.1,0.7c-0.4,0.2-0.7,0.3-1.2,0.4c-0.4,0.1-0.7,0.1-1,0.1c-0.4,0-0.7,0-1.1-0.1
	c-0.4-0.1-0.8-0.2-1.2-0.4c-0.4-0.2-0.7-0.4-1.1-0.7c-0.4-0.3-0.6-0.6-1-1.2c-0.3-0.5-0.5-1.1-0.6-1.8c-0.2-0.7-0.3-1.5-0.3-2.5
	L349.2,303.5L349.2,303.5z M352.6,314.1c0,0.9,0.2,1.6,0.5,1.9c0.3,0.4,0.8,0.6,1.5,0.6s1.1-0.2,1.5-0.6c0.4-0.5,0.5-1,0.5-1.9
	v-11.8c0-0.9-0.2-1.7-0.5-2s-0.8-0.6-1.5-0.6s-1.2,0.2-1.5,0.6s-0.5,1.1-0.5,2V314.1z"/>
<path class="st0" d="M367.3,309c-0.5,0-0.9-0.1-1.5-0.2c-0.5-0.1-0.9-0.4-1.3-0.8c-0.4-0.4-0.7-0.9-0.9-1.7
	c-0.3-0.7-0.4-1.7-0.4-2.9V302c0-0.7,0.1-1.5,0.2-2c0.1-0.6,0.3-1,0.5-1.5c0.2-0.4,0.5-0.7,0.7-0.9c0.3-0.3,0.6-0.5,0.8-0.6
	s0.6-0.2,0.9-0.3c0.3-0.1,0.6-0.1,0.9-0.1s0.6,0,0.9,0.1c0.3,0.1,0.6,0.1,0.9,0.3c0.3,0.1,0.6,0.4,0.8,0.6c0.3,0.3,0.6,0.6,0.7,0.9
	c0.2,0.4,0.4,0.9,0.5,1.5c0.1,0.6,0.2,1.2,0.2,2v1.4c0,1.2-0.1,2.1-0.4,2.9c-0.3,0.7-0.6,1.3-1,1.7c-0.4,0.4-0.8,0.6-1.3,0.8
	C368.1,309,367.8,309,367.3,309z M367.3,306.9c0.6,0,0.9-0.2,1.1-0.6c0.2-0.5,0.3-1.2,0.3-2.1v-2.5c0-1-0.1-1.7-0.3-2.2
	c-0.2-0.5-0.6-0.7-1.1-0.7s-0.9,0.3-1.2,0.7c-0.2,0.5-0.4,1.2-0.4,2.2v2.5c0,1,0.1,1.7,0.4,2.1C366.4,306.7,366.8,306.9,367.3,306.9
	z M375,297h2.3l-5.8,22h-2.3L375,297z M375.1,312.3c0-1.2,0.1-2.1,0.4-2.8c0.3-0.7,0.6-1.2,1-1.6c0.4-0.4,0.8-0.6,1.3-0.7
	s0.9-0.2,1.4-0.2c0.3,0,0.6,0,0.9,0.1c0.3,0.1,0.6,0.1,0.9,0.3c0.3,0.1,0.6,0.4,0.8,0.6c0.3,0.3,0.6,0.6,0.7,0.9
	c0.2,0.4,0.4,0.9,0.5,1.5c0.1,0.6,0.2,1.2,0.2,2v1.4c0,0.7-0.1,1.5-0.2,2c-0.1,0.6-0.3,1.1-0.5,1.5c-0.2,0.4-0.5,0.7-0.7,1
	s-0.6,0.5-0.8,0.6c-0.3,0.2-0.6,0.3-0.9,0.3c-0.3,0.1-0.6,0.1-0.9,0.1s-0.6,0-1-0.1c-0.4-0.1-0.6-0.2-0.9-0.3
	c-0.3-0.2-0.6-0.4-0.8-0.6c-0.3-0.3-0.5-0.6-0.7-1c-0.2-0.4-0.4-0.9-0.5-1.5c-0.1-0.6-0.2-1.3-0.2-2L375.1,312.3L375.1,312.3z
	 M377.7,314.3c0,1,0.1,1.7,0.4,2.1c0.2,0.5,0.6,0.7,1.2,0.7c0.6,0,0.9-0.3,1.1-0.7s0.3-1.2,0.3-2.1v-2.5c0-1-0.1-1.7-0.3-2.2
	c-0.2-0.5-0.6-0.7-1.1-0.7s-0.9,0.3-1.2,0.7c-0.2,0.5-0.4,1.2-0.4,2.2V314.3z"/>
</svg>
