<?xml version="1.0" encoding="utf-8"?>
<!-- Generator: Adobe Illustrator 28.0.0, SVG Export Plug-In . SVG Version: 6.00 Build 0)  -->
<svg version="1.1" id="Layer_1" xmlns:xodm="http://www.corel.com/coreldraw/odm/2003"
	 xmlns="http://www.w3.org/2000/svg" xmlns:xlink="http://www.w3.org/1999/xlink" x="0px" y="0px" viewBox="0 0 720 720"
	 style="enable-background:new 0 0 720 720;" xml:space="preserve">
<path d="M630.1,158.3c-9.6-12.7-17-21.1-29.2-33.4c-22.4-22.5-46.5-40.7-74.5-56.5c-50.9-28.7-110.9-44.1-170-43.6
	c-6.1,0-12.1,0.2-13.2,0.3c-1.1,0.1-6,0.5-10.9,0.8c-10.8,0.7-29.5,3.4-41,5.7C234.9,43.3,184.7,67.7,138.8,106
	c-8.9,7.4-31.5,30.1-39.2,39.3c-39.3,47.3-63.8,101.6-73,162c-4.6,30.1-4.9,69.8-0.9,99C30.9,443,40.2,473.7,56,506.5
	c34.9,72.2,94.6,128.9,169.5,161c28.3,12.1,57.6,20.4,87,24.6c26.3,3.7,58.4,4.2,84.7,1.1c60.7-7,119.4-30.4,167.7-66.9
	c41.2-31.1,74-70.4,96.9-116.3c21.1-42.3,31.9-83,34.5-130.5C701,297.2,678.5,222.4,630.1,158.3z M665.2,289.9l2.9,25.7l-61,6.9
	l-3.3-18.1L665.2,289.9z M656.7,261.1l-59.9,19.7l-6.4-16.9l57.8-25.1L656.7,261.1z M623.5,192.1l11.8,19.8l-55.1,29.7l-9.6-15.9
	L623.5,192.1z M590.3,149.5l14.9,18.1l-48.8,38.1L544,191.8L590.3,149.5z M550.2,114.1l17.7,14.5l-41.3,46.2l-14.5-11.6L550.2,114.1
	z M504,84.9l20.7,11.4L492,149.6l-15.8-8.4L504,84.9z M454.2,64.3l21.8,8l-22.5,58.2l-17.7-6.8L454.2,64.3z M393.3,113.8l8.1-60.9
	l23.5,4.4l-12.6,60.6L393.3,113.8z M371.9,49.4l-2.6,62.3l-19,1.3l-2.5-63.6H371.9z M295,56.2l22-3.9l9,61.5l-18.2,4L295,56.2z
	 M265.3,64.1l18.4,59.4l-17.5,7.1L243,72.2L265.3,64.1z M243.5,141.2l-16.3,8l-32.8-52.9l20.3-11.3 M168.9,114.1l37.6,49l-13.9,11.8
	l-41.6-46.4L168.9,114.1z M129.2,149.7l45.4,42l-11.7,13.9l-49.4-38.3L129.2,149.7z M97,192.1l51.8,33.5l-9.5,16.1L84.8,212
	L97,192.1z M71.6,238.9l57.1,24.6l-5.9,17.4L63,261.1L71.6,238.9z M54.4,290.3l61.9,14l-3.4,18.8L50.5,314L54.4,290.3z M47.6,344
	l62.6,3.1v19.5l-63,1.7L47.6,344z M53.3,421.3l-3.8-23.1l62.8-6.9l2.6,18.4L53.3,421.3z M69,473.8l-7.7-22.5l59.5-17.5l5.3,18.1
	L69,473.8z M81.9,501.3l54.9-27.6l9.4,16.5l-53.2,32.2L81.9,501.3z M125.4,565.1l-14.9-18.2l49.3-35.5l11.7,13.3L125.4,565.1z
	 M485.2,543.3c-35.7,23.8-77,36.7-120.5,37.8c-54.5,1.3-103.5-14.9-145.5-48.2c-7.1-5.6-24.8-23.3-30.8-30.9
	c-22.4-27.8-38-60.3-45.2-94.3c-3.8-17.6-5-31.6-4.7-52.3c0.3-15.6,0.9-23.1,2.7-33.8c10.2-58.6,43.3-109.2,93.3-142.7
	c29.7-19.9,67.3-33.5,101.1-36.8c3.5-0.3,7.2-0.7,8.3-0.8c4.9-0.5,28.7-0.3,35.3,0.2c82.8,6.8,154.4,58.5,186.3,134.6
	c7.1,16.9,11.9,35.1,14.7,55.8c1.2,8.8,1.7,36.5,0.8,46.8C575.2,446.7,540.4,506.5,485.2,543.3z M593.9,565.2l-46.2-40.1l12.7-13.5
	l48.3,36.1L593.9,565.2z M626,522.1l-52.5-31.6l9.2-16.8l55.4,27.8L626,522.1z M649.7,474l-56.8-22.9l6.4-17.4l59.2,17.9L649.7,474z
	 M665.6,422.1l-60.5-12.3l2.4-17.9l62.6,6.5L665.6,422.1z M609.9,366.2l0.3-18.8l61.2-3.6l1.7,24.5L609.9,366.2z"/>
<path d="M461.3,247.9c-25.1-22-55.1-35.2-87-38.2c-5.7-0.5-23.6-0.7-28.2-0.2c-19.3,2-36.1,6.9-53.2,15.4
	c-13.8,6.9-22.7,12.9-35.2,23.6c-3.4,2.9-6.8,6.2-7,6.4c2.1,1.6,75.4,54.4,75.4,54.4l5-2.5c10.4-5.2,18.8-7,31.2-6.5
	c10.2,0.4,15.7,1.7,24.2,5.9c26.9,13.2,39.7,43.5,30.3,71.9c-6.7,20.1-22.3,34.2-43.7,39.6c-7.1,1.8-20.5,1.7-27.7,0
	c-7.1-1.8-13-4.4-18.9-8.3c-14.8-9.9-23.8-24.6-26.2-43.2c-1.2-9,0.6-20.8,4.4-29.7l2.1-4.8l-58.5-73.5c0,0-2.9,2.6-5.8,6.1
	c-17.5,21.4-28.7,46.5-32.9,74c-1.6,10.6-1.5,36.2,0.3,46.3c5.8,33.6,19.9,61.4,42.7,84.3c17.9,17.9,38.8,30.3,63.5,37.8
	c23.3,7,52.7,7.9,77.9,2.2c35-7.8,67.2-28.7,88.3-57.1c17.2-23.2,26.7-48.3,29.3-77.7C515.8,326.6,496.8,279,461.3,247.9z"/>
</svg>
