<?xml version="1.0" encoding="utf-8"?>
<!-- Generator: Adobe Illustrator 28.0.0, SVG Export Plug-In . SVG Version: 6.00 Build 0)  -->
<svg version="1.1" id="Layer_1" xmlns:xodm="http://www.corel.com/coreldraw/odm/2003"
	 xmlns="http://www.w3.org/2000/svg" xmlns:xlink="http://www.w3.org/1999/xlink" x="0px" y="0px" viewBox="0 0 720 720"
	 style="enable-background:new 0 0 720 720;" xml:space="preserve">
<style type="text/css">
	.st0{fill:#C10C0C;}
</style>
<rect x="62.8" y="63.3" class="st0" width="598.7" height="598.7"/>
<g>
	<polygon points="307.1,134.6 243.6,63.3 199.9,63.3 263.3,134.6 	"/>
	<polygon points="134.3,230.1 63,149.9 63,199.1 134.3,279.3 	"/>
	<polygon points="435.8,134.6 372.4,63.3 328.7,63.3 392.1,134.6 	"/>
	<polygon points="564.6,134.6 501.2,63.3 457.5,63.3 520.9,134.6 	"/>
	<polygon points="134.3,375.1 63,294.8 63,344 134.3,424.3 	"/>
	<polygon points="178.3,134.6 114.9,63.3 71.1,63.3 134.3,134.6 	"/>
	<polygon points="590.2,357.6 661.5,437.8 661.5,388.6 590.2,308.4 	"/>
	<polygon points="590.2,212.6 661.5,293.1 661.5,243.7 590.2,163.4 	"/>
	<polygon points="134.3,520 63,439.8 63,489 134.3,569.2 	"/>
	<polygon points="586.3,63.3 661.5,147.9 661.5,63.3 	"/>
	<polygon points="417.5,590.7 480.9,661.9 524.6,661.9 461.2,590.7 	"/>
	<polygon points="288.7,590.7 352.1,661.9 395.8,661.9 332.4,590.7 	"/>
	<polygon points="159.9,590.7 223.3,661.9 267,661.9 203.6,590.7 	"/>
	<polygon points="546.3,590.7 609.7,661.9 653.4,661.9 590.2,590.7 	"/>
	<polygon points="138.3,661.9 63,577.3 63,661.9 	"/>
	<polygon points="590.2,502.5 661.5,582.8 661.5,533.6 590.2,453.3 	"/>
</g>
</svg>
