<?xml version="1.0" encoding="utf-8"?>
<!-- Generator: Adobe Illustrator 28.0.0, SVG Export Plug-In . SVG Version: 6.00 Build 0)  -->
<svg version="1.1" id="Layer_1" xmlns:xodm="http://www.corel.com/coreldraw/odm/2003"
	 xmlns="http://www.w3.org/2000/svg" xmlns:xlink="http://www.w3.org/1999/xlink" x="0px" y="0px" viewBox="0 0 720 720"
	 style="enable-background:new 0 0 720 720;" xml:space="preserve">
<style type="text/css">
	.st0{fill-rule:evenodd;clip-rule:evenodd;fill:#FFD93E;}
	.st1{fill-rule:evenodd;clip-rule:evenodd;fill:#F9F9F9;}
	.st2{fill-rule:evenodd;clip-rule:evenodd;}
</style>
<path class="st0" d="M340.2,85.9c10-17.4,35.1-17.4,45,0l137.2,237.5l138.8,240.5c9.3,16.1-2.3,36-20.8,36H362.8H85.1
	c-18.5,0-30.1-20-20.8-36l138.8-240.5L340.2,85.9z"/>
<path class="st1" d="M643.7,569.5L506.7,332.4L369.8,95.2c-3.1-5.4-10.8-5.4-13.9,0L218.9,332.4L82,569.5c-3.1,5.4,0.8,12,7,12
	h273.9h273.9C642.8,581.5,646.7,574.8,643.7,569.5z M634.4,576.1H362.8H91.3c-2.8,0-4.5-2.9-3.1-5.4l135.8-235.1l135.8-235.1
	c1.3-2.4,4.8-2.4,6.2,0l135.8,235.1l135.8,235.1C638.8,573,637.1,576.1,634.4,576.1z"/>
<path class="st2" d="M643.7,569.4l-137-237.1l-137-237.2c-3.1-5.4-10.8-5.3-13.9,0L218.9,332.4L82,569.6c-3.1,5.4,0.8,12,7,12
	l273.9-0.1l273.9-0.1C642.9,581.4,646.7,574.8,643.7,569.4z M627.9,570.7H362.8H97.6c-2.7,0-4.4-2.9-3-5.2l132.6-229.6l132.6-229.6
	c1.3-2.4,4.7-2.4,6,0l132.6,229.6l132.6,229.6C632.3,567.7,630.6,570.7,627.9,570.7z"/>
<path class="st2" d="M330.4,393.1l85.2-47.8c0,0-34.9,130.7-35,131l17.9,4.2l-39.2,58.2c0,0-18.2-68-18.3-68.2l18.1,2.4
	c0,0,2.8-67.9,2.7-68c0,0-66.5,32.3-66.5,32.3l56.1-193.8h44.5"/>
</svg>
