<?xml version="1.0" encoding="utf-8"?>
<!-- Generator: Adobe Illustrator 28.0.0, SVG Export Plug-In . SVG Version: 6.00 Build 0)  -->
<svg version="1.1" id="Layer_1" xmlns:xodm="http://www.corel.com/coreldraw/odm/2003"
	 xmlns="http://www.w3.org/2000/svg" xmlns:xlink="http://www.w3.org/1999/xlink" x="0px" y="0px" viewBox="0 0 720 720"
	 style="enable-background:new 0 0 720 720;" xml:space="preserve">
<style type="text/css">
	.st0{fill:#C10C0C;}
	.st1{fill:#FFFFFF;}
</style>
<polygon points="358.3,606.3 642.7,113.7 73.8,113.7 "/>
<g>
	<g>
		<polygon class="st0" points="642.7,113.7 619.5,154.1 599.3,154.1 622.7,113.7 		"/>
	</g>
	<g>
		<polygon class="st0" points="604.6,113.7 581.2,154.1 561.1,154.1 584.4,113.7 		"/>
	</g>
	<g>
		<polygon class="st0" points="566.4,113.7 543,154.1 522.8,154.1 546.2,113.7 		"/>
	</g>
	<g>
		<polygon class="st0" points="528.2,113.7 504.8,154.1 484.7,154.1 508,113.7 		"/>
	</g>
	<g>
		<polygon class="st0" points="489.9,113.7 466.6,154.1 446.4,154.1 469.8,113.7 		"/>
	</g>
	<g>
		<polygon class="st0" points="451.8,113.7 428.3,154.1 408.2,154.1 431.5,113.7 		"/>
	</g>
	<g>
		<polygon class="st0" points="413.5,113.7 390.2,154.1 370,154.1 393.4,113.7 		"/>
	</g>
	<g>
		<polygon class="st0" points="375.3,113.7 351.9,154.1 331.8,154.1 355.1,113.7 		"/>
	</g>
	<g>
		<polygon class="st0" points="337.1,113.7 313.7,154.1 293.5,154.1 316.9,113.7 		"/>
	</g>
	<g>
		<polygon class="st0" points="298.9,113.7 275.5,154.1 255.4,154.1 278.7,113.7 		"/>
	</g>
	<g>
		<polygon class="st0" points="260.6,113.7 237.3,154.1 217.1,154.1 240.5,113.7 		"/>
	</g>
	<polygon class="st0" points="222.5,113.7 199,154.1 178.9,154.1 202.2,113.7 	"/>
	<polygon class="st0" points="184.2,113.7 160.9,154.1 140.7,154.1 164.1,113.7 	"/>
	<polygon class="st0" points="146,113.7 125.5,149.1 122.6,154.1 102.5,154.1 105.3,149.1 125.8,113.7 	"/>
	<polygon class="st0" points="107.8,113.7 90.8,143.1 80.7,125.7 87.6,113.7 	"/>
</g>
<path class="st1" d="M175.3,257.7v-67.2h46.3l8.4,8.4v50.4l-8.4,8.4H175.3z M192.1,207.3v33.5h21v-33.5H192.1z"/>
<path class="st1" d="M262.1,213.7l-13.8,44H232l21-67.1h18.1l21,67.1h-16.3L262.1,213.7z"/>
<path class="st1" d="M296.2,190.6h15.4l26.5,45.5v-45.5H355v67.2h-19.6L313,219.4v38.4h-16.8V190.6z"/>
<path class="st1" d="M370.6,257.8l-8.4-8.4V199l8.4-8.4h37.8l8.4,8.4v8.4H379V241H400v-8.4h-12.5v-16.8h20.9l8.4,8.4v25.2l-8.4,8.4
	H370.6z"/>
<path class="st1" d="M424.9,257.8v-67.2h54.6v16.8h-37.8v8.4h37.8v16.8h-37.8v8.3h37.8v16.8H424.9z"/>
<path class="st1" d="M504.4,232.6v25.2h-16.8v-67.2h46.2l8.4,8.4v25.1l-8.4,8.4h-6.3l14.7,25.2h-16.8l-14.7-25.2H504.4z
	 M504.4,207.4v8.3h20.9v-8.3H504.4z"/>
</svg>
