<?xml version="1.0" encoding="utf-8"?>
<!-- Generator: Adobe Illustrator 28.0.0, SVG Export Plug-In . SVG Version: 6.00 Build 0)  -->
<svg version="1.1" id="Layer_1" xmlns:xodm="http://www.corel.com/coreldraw/odm/2003"
	 xmlns="http://www.w3.org/2000/svg" xmlns:xlink="http://www.w3.org/1999/xlink" x="0px" y="0px" viewBox="0 0 720 720"
	 style="enable-background:new 0 0 720 720;" xml:space="preserve">
<style type="text/css">
	.st0{fill:#FFD93E;}
</style>
<rect x="59.8" y="305.9" class="st0" width="603.5" height="83.3"/>
<rect x="59.8" y="305.9" width="20.8" height="20.8"/>
<rect x="80.6" y="326.7" width="20.8" height="20.8"/>
<rect x="101.4" y="305.9" width="20.8" height="20.8"/>
<rect x="122.2" y="326.7" width="20.8" height="20.8"/>
<rect x="143" y="305.9" width="20.8" height="20.8"/>
<rect x="163.9" y="326.7" width="20.8" height="20.8"/>
<rect x="184.7" y="305.9" width="20.8" height="20.8"/>
<rect x="205.5" y="326.7" width="20.8" height="20.8"/>
<rect x="226.3" y="305.9" width="20.8" height="20.8"/>
<rect x="247.1" y="326.7" width="20.8" height="20.8"/>
<rect x="267.9" y="305.9" width="20.8" height="20.8"/>
<rect x="288.7" y="326.7" width="20.8" height="20.8"/>
<rect x="309.5" y="305.9" width="20.8" height="20.8"/>
<rect x="330.3" y="326.7" width="20.8" height="20.8"/>
<rect x="351.1" y="305.9" width="20.8" height="20.8"/>
<rect x="372" y="326.7" width="20.8" height="20.8"/>
<rect x="392.8" y="305.9" width="20.8" height="20.8"/>
<rect x="413.6" y="326.7" width="20.8" height="20.8"/>
<rect x="434.4" y="305.9" width="20.8" height="20.8"/>
<rect x="455.2" y="326.7" width="20.8" height="20.8"/>
<rect x="476" y="305.9" width="20.8" height="20.8"/>
<rect x="496.8" y="326.7" width="20.8" height="20.8"/>
<rect x="517.6" y="305.9" width="20.8" height="20.8"/>
<rect x="538.4" y="326.7" width="20.8" height="20.8"/>
<rect x="559.2" y="305.9" width="20.8" height="20.8"/>
<rect x="580.1" y="326.7" width="20.8" height="20.8"/>
<rect x="600.9" y="305.9" width="20.8" height="20.8"/>
<rect x="621.7" y="326.7" width="20.8" height="20.8"/>
<rect x="642.5" y="305.9" width="20.8" height="20.8"/>
</svg>
