<?xml version="1.0" encoding="utf-8"?>
<!-- Generator: Adobe Illustrator 28.0.0, SVG Export Plug-In . SVG Version: 6.00 Build 0)  -->
<svg version="1.1" id="Layer_1" xmlns:xodm="http://www.corel.com/coreldraw/odm/2003"
	 xmlns="http://www.w3.org/2000/svg" xmlns:xlink="http://www.w3.org/1999/xlink" x="0px" y="0px" viewBox="0 0 720 720"
	 style="enable-background:new 0 0 720 720;" xml:space="preserve">
<style type="text/css">
	.st0{fill:#F6B24A;}
	.st1{opacity:0.3;}
</style>
<g>
	<rect x="533" y="299.5" class="st0" width="14.2" height="23.5"/>
</g>
<g>
	<rect x="553.4" y="299.5" class="st0" width="14.2" height="23.5"/>
</g>
<g>
	<rect x="574.3" y="299.5" class="st0" width="91.3" height="23.5"/>
</g>
<g>
	<rect x="533" y="366.1" class="st0" width="14.2" height="23.5"/>
</g>
<g>
	<rect x="553.4" y="366.1" class="st0" width="14.2" height="23.5"/>
</g>
<g>
	<rect x="574.3" y="366.1" class="st0" width="91.3" height="23.5"/>
</g>
<g>
	<polygon class="st0" points="95.1,337.5 40.4,337.5 40.4,283 149.9,283 	"/>
</g>
<g>
	<path class="st0" d="M682.3,337.6h-493l57.1-54.6h435.9V337.6z M207.1,330.5h468.2v-40.4H249.3L207.1,330.5z"/>
</g>
<g>
	<polygon class="st0" points="228.4,323.1 505.3,323.1 505.3,299.5 250.6,299.5 	"/>
</g>
<g>
	<rect x="512.7" y="299.5" class="st0" width="14.2" height="23.5"/>
</g>
<g>
	<polygon class="st0" points="95.1,351.7 40.4,351.7 40.4,406.2 149.9,406.2 	"/>
</g>
<g>
	<g>
		<polygon class="st0" points="579.7,181.8 563.9,197.6 158.8,197.6 143,181.8 		"/>
	</g>
</g>
<g>
	<path class="st0" d="M626.7,182.2h-29.1l-30.8,29H155.7l-30.8-29H94.7l-54,50.9v39h641.1v-37.9L626.7,182.2z M674.2,264.8H48.5V236
		l49.4-46.6h23.8l30.8,29H570l30.8-29h22.7l50.7,47.8V264.8z"/>
</g>
<g>
	<polygon class="st0" points="105.1,337.6 136.7,337.6 190.9,282.9 159.3,282.9 	"/>
</g>
<g>
	<polygon class="st0" points="145.1,337.6 176.7,337.6 230.9,282.9 199.3,282.9 	"/>
</g>
<g>
	<g>
		<polygon class="st0" points="579.7,507.4 563.9,491.6 158.8,491.6 143,507.4 		"/>
	</g>
</g>
<g>
	<path class="st0" d="M681.9,455v-37.9H40.8v39l54,50.9h30.2l30.8-29h411.1l30.8,29h29.1L681.9,455z M674.2,452l-50.7,47.8h-22.7
		l-30.8-29H152.5l-30.8,29H97.9l-49.4-46.6v-28.8h625.7V452z"/>
</g>
<g>
	<polygon class="st0" points="105.1,351.7 136.7,351.7 190.9,406.3 159.3,406.3 	"/>
</g>
<g>
	<polygon class="st0" points="145.1,351.7 176.7,351.7 230.9,406.3 199.3,406.3 	"/>
</g>
<g>
	<path class="st0" d="M682.3,406.3H246.5l-57.1-54.6h493V406.3z M249.3,399.2h425.9v-40.4H207.1L249.3,399.2z"/>
</g>
<g>
	<polygon class="st0" points="228.4,366.1 505.3,366.1 505.3,389.7 250.6,389.7 	"/>
</g>
<g>
	<rect x="512.7" y="366.1" class="st0" width="14.2" height="23.5"/>
</g>
<g class="st1">
	<polyline class="st0" points="553.4,366.1 553.4,389.7 567.7,389.7 567.7,366.1 	"/>
</g>
<g class="st1">
	<polyline class="st0" points="574.3,366.1 574.3,389.7 665.6,389.7 665.6,366.1 	"/>
</g>
</svg>
