<?xml version="1.0" encoding="UTF-8"?>
<svg id="Layer_1" data-name="Layer 1" xmlns="http://www.w3.org/2000/svg" version="1.1" xmlns:xodm="http://www.corel.com/coreldraw/odm/2003" viewBox="0 0 720 720">
  <defs>
    <style>
      .cls-1, .cls-2 {
        fill: #000;
        stroke-width: 0px;
      }

      .cls-2 {
        isolation: isolate;
        opacity: .5;
      }
    </style>
  </defs>
  <ellipse class="cls-2" cx="601.1" cy="360.4" rx="80.8" ry="37.4"/>
  <ellipse class="cls-2" cx="555.1" cy="219" rx="80.8" ry="37.4" transform="translate(-22.7 368.1) rotate(-36)"/>
  <ellipse class="cls-1" cx="434.8" cy="131.6" rx="80.8" ry="37.4" transform="translate(175.3 504.5) rotate(-72)"/>
  <ellipse class="cls-2" cx="286.1" cy="131.6" rx="37.4" ry="80.8" transform="translate(-26.7 94.8) rotate(-18)"/>
  <ellipse class="cls-2" cx="165.9" cy="219" rx="37.4" ry="80.8" transform="translate(-108.8 224.5) rotate(-54)"/>
  <ellipse class="cls-2" cx="119.9" cy="360.4" rx="80.8" ry="37.4"/>
  <ellipse class="cls-2" cx="165.9" cy="501.8" rx="80.8" ry="37.4" transform="translate(-263.3 193.3) rotate(-36)"/>
  <ellipse class="cls-2" cx="286.2" cy="589.2" rx="80.8" ry="37.4" transform="translate(-362.7 679.3) rotate(-72)"/>
  <ellipse class="cls-2" cx="434.8" cy="589.2" rx="37.4" ry="80.8" transform="translate(-160.8 163.2) rotate(-18)"/>
  <ellipse class="cls-2" cx="555.1" cy="501.8" rx="37.4" ry="80.8" transform="translate(-177.2 655.9) rotate(-54)"/>
  <g>
    <path class="cls-1" d="M264.2,399.3h11.5v-67.4l-12.3,10.8-6.5-7.6,22.5-23.4h11.2-.1c0,.1.1,0,.1,0v87.5h11.4v11.3h-37.7v-11.2h-.1Z"/>
    <path class="cls-1" d="M309.5,339.9c0-4.3.4-8.1,1.2-11.2.8-3.1,1.8-5.8,3.1-7.9,1.3-2.1,2.8-3.9,4.5-5.2,1.7-1.3,3.4-2.3,5.2-3,1.8-.7,3.6-1.2,5.4-1.4,1.8-.2,3.4-.3,5-.3s3,.1,4.8.3c1.8.2,3.5.7,5.3,1.3,1.8.7,3.5,1.7,5.2,3s3.2,3,4.5,5.2,2.3,4.8,3.1,8c.8,3.2,1.2,6.9,1.2,11.3v41.8c0,4.3-.4,8.1-1.2,11.2-.8,3.1-1.8,5.8-3.2,8-1.3,2.2-2.8,4-4.5,5.4s-3.4,2.4-5.2,3.2c-1.8.8-3.5,1.3-5.3,1.5-1.8.3-3.3.4-4.7.4s-3.2-.1-5-.4-3.6-.8-5.4-1.5c-1.8-.8-3.6-1.8-5.2-3.2-1.7-1.4-3.2-3.1-4.4-5.3-1.3-2.2-2.3-4.9-3.1-8-.8-3.2-1.2-6.9-1.2-11.2v-42h0ZM324.8,388c0,4.1.7,7.1,2.2,8.9,1.5,1.9,3.7,2.8,6.8,2.8s5.2-.9,6.7-2.8,2.2-4.8,2.2-8.9v-53.5c0-4.3-.7-7.5-2.2-9.4-1.5-2-3.7-3-6.7-3s-5.3,1-6.8,3-2.2,5.1-2.2,9.4v53.5Z"/>
    <path class="cls-1" d="M391.7,365.1c-2.2,0-4.4-.3-6.6-.9s-4.2-1.8-6-3.6c-1.8-1.8-3.3-4.3-4.4-7.6s-1.7-7.6-1.7-13v-6.2c0-3.5.3-6.6.8-9.1.5-2.6,1.3-4.8,2.2-6.6.9-1.8,2-3.3,3.3-4.4,1.2-1.1,2.5-2,3.9-2.6s2.8-1,4.3-1.3c1.4-.2,2.9-.3,4.3-.3s2.7.1,4.1.3c1.4.2,2.8.6,4.2,1.2,1.4.6,2.7,1.5,3.9,2.6,1.2,1.1,2.3,2.6,3.2,4.4.9,1.8,1.7,4,2.2,6.6s.8,5.7.8,9.2v6.2c0,5.3-.6,9.6-1.8,12.9-1.2,3.3-2.7,5.9-4.5,7.7-1.8,1.8-3.8,3-6,3.7-2.2.4-4.2.8-6.2.8ZM391.9,355.9c2.4,0,4.1-1.1,5.1-3.2s1.4-5.4,1.4-9.8v-11.2c0-4.5-.5-7.8-1.4-9.9-1-2.1-2.7-3.2-5.1-3.2s-4.3,1.1-5.4,3.2c-1,2.1-1.5,5.4-1.5,9.9v11.2c0,4.4.5,7.7,1.5,9.8,1,2.1,2.8,3.2,5.4,3.2ZM426.8,310.6h10.5l-26.6,100h-10.5l26.6-100ZM426.9,380c0-5.3.6-9.5,1.8-12.7,1.2-3.2,2.7-5.6,4.5-7.4,1.8-1.7,3.9-2.9,6-3.4,2.2-.6,4.3-.8,6.4-.8s2.7.1,4.1.3c1.4.2,2.8.6,4.2,1.2,1.4.6,2.7,1.5,3.9,2.6,1.2,1.1,2.3,2.6,3.2,4.4.9,1.8,1.7,4,2.2,6.6s.8,5.7.8,9.2v6.2c0,3.6-.3,6.6-.8,9.3-.6,2.6-1.3,4.9-2.3,6.7-.9,1.9-2,3.4-3.3,4.6-1.2,1.2-2.5,2.1-3.9,2.8-1.4.7-2.8,1.2-4.2,1.4-1.4.3-2.8.4-4.1.4s-2.9-.1-4.4-.4-2.9-.7-4.3-1.4c-1.4-.7-2.7-1.6-3.9-2.8s-2.3-2.7-3.2-4.6c-.9-1.9-1.6-4.1-2.1-6.7s-.8-5.8-.8-9.3v-6.2h.2ZM438.8,389.3c0,4.4.5,7.7,1.5,9.8,1,2.1,2.8,3.2,5.4,3.2s4.1-1.1,5.1-3.2,1.4-5.4,1.4-9.8v-11.3c0-4.5-.5-7.8-1.4-9.9-1-2.1-2.7-3.2-5.1-3.2s-4.3,1.1-5.4,3.2c-1,2.1-1.5,5.4-1.5,9.9v11.3Z"/>
  </g>
</svg>