<?xml version="1.0" encoding="utf-8"?>
<!-- Generator: Adobe Illustrator 28.0.0, SVG Export Plug-In . SVG Version: 6.00 Build 0)  -->
<svg version="1.1" id="Layer_1" xmlns:xodm="http://www.corel.com/coreldraw/odm/2003"
	 xmlns="http://www.w3.org/2000/svg" xmlns:xlink="http://www.w3.org/1999/xlink" x="0px" y="0px" viewBox="0 0 720 720"
	 style="enable-background:new 0 0 720 720;" xml:space="preserve">
<style type="text/css">
	.st0{fill:none;stroke:#000000;stroke-width:2.9574;stroke-miterlimit:10;}
</style>
<g>
	<line class="st0" x1="59.8" y1="327.3" x2="59.8" y2="355.9"/>
</g>
<g>
	<line class="st0" x1="75.6" y1="308.7" x2="75.6" y2="337.4"/>
</g>
<g>
	<line class="st0" x1="91.5" y1="332.6" x2="91.5" y2="361.3"/>
</g>
<g>
	<line class="st0" x1="107.3" y1="331.1" x2="107.3" y2="359.8"/>
</g>
<g>
	<line class="st0" x1="123.2" y1="354.2" x2="123.2" y2="382.9"/>
</g>
<g>
	<line class="st0" x1="139" y1="362" x2="139" y2="390.7"/>
</g>
<g>
	<line class="st0" x1="154.8" y1="349.7" x2="154.8" y2="378.4"/>
</g>
<g>
	<line class="st0" x1="170.7" y1="322.6" x2="170.7" y2="351.3"/>
</g>
<g>
	<line class="st0" x1="186.5" y1="304.8" x2="186.5" y2="333.5"/>
</g>
<g>
	<line class="st0" x1="202.4" y1="322.6" x2="202.4" y2="351.3"/>
</g>
<g>
	<line class="st0" x1="218.2" y1="336.9" x2="218.2" y2="365.6"/>
</g>
<g>
	<line class="st0" x1="234.1" y1="349.7" x2="234.1" y2="378.4"/>
</g>
<g>
	<line class="st0" x1="249.9" y1="319.5" x2="249.9" y2="348.2"/>
</g>
<g>
	<line class="st0" x1="265.7" y1="304.8" x2="265.7" y2="333.5"/>
</g>
<g>
	<line class="st0" x1="281.6" y1="282.4" x2="281.6" y2="311.1"/>
</g>
<g>
	<line class="st0" x1="297.4" y1="297.1" x2="297.4" y2="325.8"/>
</g>
<g>
	<line class="st0" x1="313.3" y1="300.2" x2="313.3" y2="328.9"/>
</g>
<g>
	<line class="st0" x1="329.1" y1="331.1" x2="329.1" y2="359.8"/>
</g>
<g>
	<line class="st0" x1="345" y1="336.9" x2="345" y2="365.6"/>
</g>
<g>
	<line class="st0" x1="360.8" y1="345" x2="360.8" y2="373.7"/>
</g>
<g>
	<line class="st0" x1="376.6" y1="327.3" x2="376.6" y2="355.9"/>
</g>
<g>
	<line class="st0" x1="392.5" y1="317.2" x2="392.5" y2="345.9"/>
</g>
<g>
	<line class="st0" x1="408.3" y1="333.6" x2="408.3" y2="362.3"/>
</g>
<g>
	<line class="st0" x1="424.2" y1="319.5" x2="424.2" y2="348.2"/>
</g>
<g>
	<line class="st0" x1="440" y1="333.6" x2="440" y2="362.3"/>
</g>
<g>
	<line class="st0" x1="455.9" y1="349.7" x2="455.9" y2="378.4"/>
</g>
<g>
	<line class="st0" x1="471.7" y1="353.5" x2="471.7" y2="382.2"/>
</g>
<g>
	<line class="st0" x1="487.5" y1="367.4" x2="487.5" y2="396.1"/>
</g>
<g>
	<line class="st0" x1="503.4" y1="348.1" x2="503.4" y2="376.8"/>
</g>
<g>
	<line class="st0" x1="519.2" y1="331.1" x2="519.2" y2="359.8"/>
</g>
<g>
	<line class="st0" x1="535.1" y1="353.5" x2="535.1" y2="382.2"/>
</g>
<g>
	<line class="st0" x1="550.9" y1="331.1" x2="550.9" y2="359.8"/>
</g>
<g>
	<line class="st0" x1="566.7" y1="325.7" x2="566.7" y2="354.4"/>
</g>
<g>
	<line class="st0" x1="582.6" y1="346.7" x2="582.6" y2="375.4"/>
</g>
<g>
	<line class="st0" x1="598.4" y1="370.5" x2="598.4" y2="399.2"/>
</g>
<g>
	<line class="st0" x1="614.3" y1="381.7" x2="614.3" y2="410.4"/>
</g>
<g>
	<line class="st0" x1="630.1" y1="389.9" x2="630.1" y2="418.5"/>
</g>
<g>
	<line class="st0" x1="646" y1="353.5" x2="646" y2="382.2"/>
</g>
<g>
	<line class="st0" x1="661.8" y1="336.9" x2="661.8" y2="365.6"/>
</g>
<g>
	<g>
		<rect x="59.1" y="254.3" width="1.5" height="64.9"/>
		<rect x="59.1" y="364" width="1.5" height="77.6"/>
	</g>
</g>
<g>
	<g>
		<rect x="74.9" y="254.3" width="1.5" height="46.4"/>
		<rect x="74.9" y="345.5" width="1.5" height="96.1"/>
	</g>
</g>
<g>
	<g>
		<rect x="90.7" y="254.3" width="1.5" height="70.3"/>
		<rect x="90.7" y="369.4" width="1.5" height="72.2"/>
	</g>
</g>
<g>
	<g>
		<rect x="106.6" y="254.3" width="1.5" height="68.8"/>
		<rect x="106.6" y="367.8" width="1.5" height="73.7"/>
	</g>
</g>
<g>
	<g>
		<rect x="122.4" y="254.3" width="1.5" height="91.9"/>
		<rect x="122.4" y="391" width="1.5" height="50.6"/>
	</g>
</g>
<g>
	<g>
		<rect x="138.2" y="254.3" width="1.5" height="99.7"/>
		<rect x="138.2" y="398.8" width="1.5" height="42.8"/>
	</g>
</g>
<g>
	<g>
		<rect x="154.1" y="254.3" width="1.5" height="87.3"/>
		<rect x="154.1" y="386.4" width="1.5" height="55.1"/>
	</g>
</g>
<g>
	<g>
		<rect x="170" y="254.3" width="1.5" height="60.3"/>
		<rect x="170" y="359.3" width="1.5" height="82.2"/>
	</g>
</g>
<g>
	<g>
		<rect x="185.8" y="254.3" width="1.5" height="42.5"/>
		<rect x="185.8" y="341.6" width="1.5" height="99.9"/>
	</g>
</g>
<g>
	<g>
		<rect x="201.6" y="254.3" width="1.5" height="60.3"/>
		<rect x="201.6" y="359.3" width="1.5" height="82.2"/>
	</g>
</g>
<g>
	<g>
		<rect x="217.5" y="254.3" width="1.5" height="74.5"/>
		<rect x="217.5" y="373.7" width="1.5" height="67.9"/>
	</g>
</g>
<g>
	<g>
		<rect x="233.3" y="254.3" width="1.5" height="87.3"/>
		<rect x="233.3" y="386.4" width="1.5" height="55.1"/>
	</g>
</g>
<g>
	<g>
		<rect x="249.1" y="254.3" width="1.5" height="57.2"/>
		<rect x="249.1" y="356.3" width="1.5" height="85.3"/>
	</g>
</g>
<g>
	<g>
		<rect x="265" y="254.3" width="1.5" height="42.5"/>
		<rect x="265" y="341.6" width="1.5" height="99.9"/>
	</g>
</g>
<g>
	<g>
		<rect x="280.9" y="254.3" width="1.5" height="20.1"/>
		<rect x="280.9" y="319.2" width="1.5" height="122.4"/>
	</g>
</g>
<g>
	<g>
		<rect x="296.7" y="254.3" width="1.5" height="34.7"/>
		<rect x="296.7" y="333.9" width="1.5" height="107.7"/>
	</g>
</g>
<g>
	<g>
		<rect x="312.5" y="254.3" width="1.5" height="37.9"/>
		<rect x="312.5" y="337" width="1.5" height="104.6"/>
	</g>
</g>
<g>
	<g>
		<rect x="328.4" y="254.3" width="1.5" height="68.8"/>
		<rect x="328.4" y="367.8" width="1.5" height="73.7"/>
	</g>
</g>
<g>
	<g>
		<rect x="344.2" y="254.3" width="1.5" height="74.5"/>
		<rect x="344.2" y="373.7" width="1.5" height="67.9"/>
	</g>
</g>
<g>
	<g>
		<rect x="360" y="254.3" width="1.5" height="82.7"/>
		<rect x="360" y="381.8" width="1.5" height="59.8"/>
	</g>
</g>
<g>
	<g>
		<rect x="375.9" y="254.3" width="1.5" height="64.9"/>
		<rect x="375.9" y="364" width="1.5" height="77.6"/>
	</g>
</g>
<g>
	<g>
		<rect x="391.7" y="254.3" width="1.5" height="54.8"/>
		<rect x="391.7" y="354" width="1.5" height="87.6"/>
	</g>
</g>
<g>
	<g>
		<rect x="407.6" y="254.3" width="1.5" height="71.2"/>
		<rect x="407.6" y="370.3" width="1.5" height="71.3"/>
	</g>
</g>
<g>
	<g>
		<rect x="423.4" y="254.3" width="1.5" height="57.2"/>
		<rect x="423.4" y="356.3" width="1.5" height="85.3"/>
	</g>
</g>
<g>
	<g>
		<rect x="439.3" y="254.3" width="1.5" height="71.2"/>
		<rect x="439.3" y="370.3" width="1.5" height="71.3"/>
	</g>
</g>
<g>
	<g>
		<rect x="455.1" y="254.3" width="1.5" height="87.3"/>
		<rect x="455.1" y="386.4" width="1.5" height="55.1"/>
	</g>
</g>
<g>
	<g>
		<rect x="471" y="254.3" width="1.5" height="91.2"/>
		<rect x="471" y="390.3" width="1.5" height="51.3"/>
	</g>
</g>
<g>
	<g>
		<rect x="486.8" y="254.3" width="1.5" height="105.1"/>
		<rect x="486.8" y="404.2" width="1.5" height="37.4"/>
	</g>
</g>
<g>
	<g>
		<rect x="502.6" y="254.3" width="1.5" height="85.8"/>
		<rect x="502.6" y="384.8" width="1.5" height="56.7"/>
	</g>
</g>
<g>
	<g>
		<rect x="518.5" y="254.3" width="1.5" height="68.8"/>
		<rect x="518.5" y="367.8" width="1.5" height="73.7"/>
	</g>
</g>
<g>
	<g>
		<rect x="534.3" y="254.3" width="1.5" height="91.2"/>
		<rect x="534.3" y="390.3" width="1.5" height="51.3"/>
	</g>
</g>
<g>
	<g>
		<rect x="550.2" y="254.3" width="1.5" height="68.8"/>
		<rect x="550.2" y="367.8" width="1.5" height="73.7"/>
	</g>
</g>
<g>
	<g>
		<rect x="566" y="254.3" width="1.5" height="63.3"/>
		<rect x="566" y="362.5" width="1.5" height="79.1"/>
	</g>
</g>
<g>
	<g>
		<rect x="581.9" y="254.3" width="1.5" height="84.3"/>
		<rect x="581.9" y="383.4" width="1.5" height="58.1"/>
	</g>
</g>
<g>
	<g>
		<rect x="597.7" y="254.3" width="1.5" height="108.2"/>
		<rect x="597.7" y="407.3" width="1.5" height="34.3"/>
	</g>
</g>
<g>
	<g>
		<rect x="613.5" y="254.3" width="1.5" height="119.4"/>
		<rect x="613.5" y="418.5" width="1.5" height="23.1"/>
	</g>
</g>
<g>
	<g>
		<rect x="629.4" y="254.3" width="1.5" height="127.5"/>
		<rect x="629.4" y="426.6" width="1.5" height="15"/>
	</g>
</g>
<g>
	<g>
		<rect x="645.2" y="254.3" width="1.5" height="91.2"/>
		<rect x="645.2" y="390.3" width="1.5" height="51.3"/>
	</g>
</g>
<g>
	<g>
		<rect x="661" y="254.3" width="1.5" height="74.5"/>
		<rect x="661" y="373.7" width="1.5" height="67.9"/>
	</g>
</g>
</svg>
