<?xml version="1.0" encoding="utf-8"?>
<!-- Generator: Adobe Illustrator 28.0.0, SVG Export Plug-In . SVG Version: 6.00 Build 0)  -->
<svg version="1.1" id="Layer_1" xmlns:xodm="http://www.corel.com/coreldraw/odm/2003"
	 xmlns="http://www.w3.org/2000/svg" xmlns:xlink="http://www.w3.org/1999/xlink" x="0px" y="0px" viewBox="0 0 720 720"
	 style="enable-background:new 0 0 720 720;" xml:space="preserve">
<style type="text/css">
	.st0{fill-rule:evenodd;clip-rule:evenodd;fill:#D5EFFD;stroke:#D5EFFD;stroke-miterlimit:10;}
	.st1{fill-rule:evenodd;clip-rule:evenodd;fill:#21B4F9;stroke:#21B4F9;stroke-miterlimit:10;}
	.st2{fill:#21B4F9;stroke:#21B4F9;stroke-miterlimit:10;}
</style>
<path class="st0" d="M568.9,360.4c-0.2,115.2-93.6,208.5-208.9,208.5c-115.4,0-208.9-93.5-208.9-208.9c0-45.6,14.6-87.7,39.4-122.1
	l-77.8-56.3C76.5,231.8,55.1,293.4,55.1,360c0,168.4,136.5,304.9,304.9,304.9c168.3,0,304.8-136.4,304.9-304.8L568.9,360.4z"/>
<path class="st1" d="M359.9,151.4c115.4,0,208.9,93.5,208.9,208.9c0,0,0,0,0,0.1l96-0.2C664.7,191.8,528.2,55.4,359.9,55.4
	c-101.7,0-191.7,49.8-247.1,126.2l77.8,56.3C228.5,185.5,290.2,151.4,359.9,151.4z"/>
<path class="st2" d="M219.1,378.9l38.1-82.7h21.2l-37.1,81.7h55.6v18.4h-77.7v-17.4H219.1z M268.5,344.9h19.2v69.6h-19.2V344.9z"/>
<path class="st2" d="M324.4,406.8c-5.9-5.9-8.8-14.2-8.8-24.7v-53.8c0-10.6,3-18.9,8.9-24.8s14.5-8.8,25.7-8.8
	c11.3,0,19.9,2.9,25.8,8.8s8.8,14.1,8.8,24.8v53.8c0,10.6-3,18.9-8.9,24.8s-14.5,8.8-25.7,8.8C338.9,415.7,330.3,412.7,324.4,406.8z
	 M361.6,392.5c2.4-3.1,3.7-7.5,3.7-13.2v-48.1c0-5.7-1.2-10.2-3.7-13.2c-2.4-3.1-6.3-4.6-11.5-4.6s-9,1.5-11.5,4.6
	c-2.4,3.1-3.7,7.5-3.7,13.2v48.1c0,5.8,1.2,10.2,3.7,13.2s6.3,4.6,11.5,4.6C355.3,397.1,359.2,395.5,361.6,392.5z"/>
<path class="st2" d="M412.6,346.8c-3.6-3.7-5.4-8.8-5.4-15.3v-10.2c0-6.6,1.8-11.7,5.4-15.3s8.6-5.5,15.1-5.5
	c6.6,0,11.6,1.8,15.2,5.5s5.3,8.8,5.3,15.5v10c0,6.6-1.8,11.7-5.4,15.4c-3.6,3.6-8.6,5.5-15.1,5.5
	C421.2,352.2,416.2,350.4,412.6,346.8z M480.2,301.6h17.3l-63,118.3h-17.4L480.2,301.6z M431.3,335.9c0.8-1,1.3-2.5,1.3-4.4V321
	c0-1.8-0.4-3.2-1.3-4.2c-0.8-1-2-1.5-3.6-1.5s-2.8,0.5-3.6,1.5c-0.8,1-1.3,2.4-1.3,4.3v10.4c0,2,0.4,3.4,1.3,4.4
	c0.8,1,2,1.5,3.6,1.5C429.3,337.4,430.5,336.9,431.3,335.9z M471.4,415.6c-3.6-3.7-5.4-8.8-5.4-15.3v-10.2c0-6.6,1.8-11.7,5.4-15.3
	c3.6-3.7,8.6-5.5,15.1-5.5c6.6,0,11.6,1.8,15.2,5.5s5.3,8.8,5.3,15.5v10c0,6.6-1.8,11.7-5.4,15.4s-8.6,5.5-15.1,5.5
	C480,421.1,475,419.2,471.4,415.6z M490.2,404.7c0.8-1,1.3-2.5,1.3-4.4v-10.5c0-1.8-0.4-3.2-1.3-4.2c-0.8-1-2-1.5-3.6-1.5
	s-2.8,0.5-3.6,1.5c-0.8,1-1.3,2.4-1.3,4.3v10.4c0,2,0.4,3.4,1.3,4.4c0.8,1,2,1.5,3.6,1.5C488.1,406.2,489.3,405.7,490.2,404.7z"/>
</svg>
