<?xml version="1.0" encoding="utf-8"?>
<!-- Generator: Adobe Illustrator 28.0.0, SVG Export Plug-In . SVG Version: 6.00 Build 0)  -->
<svg version="1.1" id="Layer_1" xmlns:xodm="http://www.corel.com/coreldraw/odm/2003"
	 xmlns="http://www.w3.org/2000/svg" xmlns:xlink="http://www.w3.org/1999/xlink" x="0px" y="0px" viewBox="0 0 720 720"
	 style="enable-background:new 0 0 720 720;" xml:space="preserve">
<style type="text/css">
	.st0{fill-rule:evenodd;clip-rule:evenodd;}
</style>
<path class="st0" d="M160.8,178.8c-0.7,78.3-11.4,293.3-1.9,378.2c4.5,40,12.9,67.6,45.1,92.5c39.8,30.7,90.2,24,137.4,24.1
	c53.3,0.1,98.6,1.7,124.1-51.9c31.3-66,113.5-267.5,128.6-305.1c-16-26.4-65.8-20.7-80.4,15.5c-16.1,32.7-48.9,113.7-56.4,130
	c-0.8-8.1,0.7-66.6,0.8-133.4c0-70.8-0.2-145.4-0.1-214c0-41.8-64.6-41.2-64.8,0c-0.7,70.8-0.6,143.3,0,214.1c-3.2,0-8.4,0-13.3,0
	c-0.2-83.7,0.7-174-0.2-255.9c0.1-38.1-64.4-38.2-64.3,0.1c-0.8,84.2,0.7,170.9-0.1,255.9c-2,0-12.3,0-12.7,0
	c-0.5-73,0.3-155.9-0.3-214.1c0.4-41.8-63.9-41.7-63.6-0.2c-0.7,71.5-0.6,142-0.2,214.3c-1.4,0-10.3,0-13,0c0-9.2,0.7-108.9-0.1-147
	C225.5,136,160.9,139.1,160.8,178.8L160.8,178.8z"/>
</svg>
