<?xml version="1.0" encoding="utf-8"?>
<!-- Generator: Adobe Illustrator 28.0.0, SVG Export Plug-In . SVG Version: 6.00 Build 0)  -->
<svg version="1.1" id="Layer_1" xmlns:xodm="http://www.corel.com/coreldraw/odm/2003"
	 xmlns="http://www.w3.org/2000/svg" xmlns:xlink="http://www.w3.org/1999/xlink" x="0px" y="0px" viewBox="0 0 720 720"
	 style="enable-background:new 0 0 720 720;" xml:space="preserve">
<path d="M360.4,494.2c-73.8,0-133.8-60-133.8-133.8c0-73.8,60-133.8,133.8-133.8c73.8,0,133.8,60,133.8,133.8
	C494.3,434.2,434.2,494.2,360.4,494.2z M360.4,231.3c-71.2,0-129.1,57.9-129.1,129.1c0,71.2,57.9,129.1,129.1,129.1
	c71.2,0,129.1-57.9,129.1-129.1C489.6,289.2,431.6,231.3,360.4,231.3z"/>
<path d="M360.4,547.8c-103.3,0-187.3-84-187.3-187.3s84-187.3,187.3-187.3s187.3,84,187.3,187.3S463.7,547.8,360.4,547.8z
	 M360.4,177.7c-100.7,0-182.7,81.9-182.7,182.7s81.9,182.7,182.7,182.7s182.7-81.9,182.7-182.7S461.2,177.7,360.4,177.7z"/>
<path d="M376,38.5v99.1c52.3,3.6,99.8,25.4,136,59l70.1-70.1C527.9,75,455.7,42.3,376,38.5z"/>
<path d="M137.1,354.6c1.3-51.3,20-98.3,50.3-135.4L117.2,149c-48.1,55.2-77.6,127-79,205.6H137.1z"/>
<path d="M196.6,512c-31.5-34-52.6-77.8-58.1-126.3H39.1c5.9,75.8,38.1,144.3,87.4,196.3L196.6,512z"/>
<path d="M208.8,196.5c36.3-33.6,83.7-55.3,136-59V38.5c-79.7,3.8-151.9,36.6-206.1,88L208.8,196.5z"/>
<path d="M533.4,219.3c30.3,37.1,49,84.1,50.3,135.4h98.9c-1.4-78.6-30.9-150.4-79-205.6L533.4,219.3z"/>
<path d="M582.4,385.8c-5.5,48.5-26.6,92.2-58.1,126.3l70.1,70.1c49.3-52,81.5-120.5,87.4-196.3H582.4z"/>
<path d="M501.6,533.4c-34.7,28.4-78.1,46.6-125.6,49.8v99.1c74.8-3.6,142.9-32.6,195.9-78.7L501.6,533.4z"/>
<path d="M344.9,583.2c-47.4-3.3-90.9-21.4-125.6-49.8L149,603.7c52.9,46.1,121.1,75.1,195.9,78.7V583.2z"/>
</svg>
