<?xml version="1.0" encoding="utf-8"?>
<!-- Generator: Adobe Illustrator 28.0.0, SVG Export Plug-In . SVG Version: 6.00 Build 0)  -->
<svg version="1.1" id="Layer_1" xmlns:xodm="http://www.corel.com/coreldraw/odm/2003"
	 xmlns="http://www.w3.org/2000/svg" xmlns:xlink="http://www.w3.org/1999/xlink" x="0px" y="0px" viewBox="0 0 720 720"
	 style="enable-background:new 0 0 720 720;" xml:space="preserve">
<style type="text/css">
	.st0{fill:#C02026;}
	.st1{opacity:0.5;}
</style>
<path class="st0" d="M649.6,387.1H70.2c-17.8,0-32.2-14.4-32.2-32.2l0,0c0-17.8,14.4-32.2,32.2-32.2h579.4
	c17.8,0,32.2,14.4,32.2,32.2l0,0C681.8,372.6,667.4,387.1,649.6,387.1z M70.2,327.9c-14.9,0-27,12.1-27,27l0,0c0,14.9,12.1,27,27,27
	h579.4c14.9,0,27-12.1,27-27l0,0c0-14.9-12.1-27-27-27H70.2z"/>
<g class="st1">
	<path class="st0" d="M64.9,329.8l-16.8,38c-2.1-3.6-3.3-7.8-3.5-12.3l8.9-20.1C56.8,332.7,60.7,330.7,64.9,329.8z"/>
</g>
<g class="st1">
	<path class="st0" d="M52.2,336.7l-7.6,17.1C45,347.1,47.8,341.1,52.2,336.7z"/>
</g>
<g class="st1">
	<path class="st0" d="M75.9,329.3l-20.5,46.3c-2.4-1.7-4.5-3.8-6.1-6.2L67,329.4L75.9,329.3z"/>
</g>
<g class="st1">
	<path class="st0" d="M86.6,329.3L86.6,329.3l-22.4,50.4c-2.7-0.6-5.2-1.7-7.5-3.2l21-47.3l0,0H86.6z"/>
</g>
<g class="st1">
	<polygon class="st0" points="74.6,380.4 65.7,380.4 88.3,329.3 97.2,329.3 	"/>
</g>
<g class="st1">
	<polygon class="st0" points="85.3,380.4 76.4,380.4 99,329.3 107.9,329.3 	"/>
</g>
<g class="st1">
	<polygon class="st0" points="95.9,380.4 87,380.4 109.7,329.3 118.6,329.3 	"/>
</g>
<g class="st1">
	<polygon class="st0" points="106.6,380.4 97.7,380.4 120.4,329.3 129.3,329.3 	"/>
</g>
<g class="st1">
	<polygon class="st0" points="117.3,380.4 108.4,380.4 131.1,329.3 140,329.3 	"/>
</g>
<g class="st1">
	<polygon class="st0" points="128,380.4 119.1,380.4 141.8,329.3 150.6,329.3 	"/>
</g>
<g class="st1">
	<polygon class="st0" points="138.7,380.4 129.7,380.4 152.5,329.3 161.3,329.3 	"/>
</g>
<g class="st1">
	<polygon class="st0" points="149.3,380.4 140.4,380.4 163.2,329.3 172.1,329.3 	"/>
</g>
<g class="st1">
	<polygon class="st0" points="160,380.4 151.1,380.4 173.9,329.3 182.8,329.3 	"/>
</g>
<g class="st1">
	<polygon class="st0" points="170.7,380.4 161.9,380.4 184.5,329.3 193.4,329.3 	"/>
</g>
<g class="st1">
	<polygon class="st0" points="181.4,380.4 172.6,380.4 195.2,329.3 204.1,329.3 	"/>
</g>
<g class="st1">
	<polygon class="st0" points="192.1,380.4 183.2,380.4 205.9,329.3 214.8,329.3 	"/>
</g>
<g class="st1">
	<polygon class="st0" points="202.8,380.4 193.9,380.4 216.6,329.3 225.5,329.3 	"/>
</g>
<g class="st1">
	<polygon class="st0" points="213.5,380.4 204.6,380.4 227.2,329.3 236.2,329.3 	"/>
</g>
<g class="st1">
	<polygon class="st0" points="224.2,380.4 215.3,380.4 237.9,329.3 246.8,329.3 	"/>
</g>
<g class="st1">
	<polygon class="st0" points="234.9,380.4 225.9,380.4 248.6,329.3 257.5,329.3 	"/>
</g>
<g class="st1">
	<polygon class="st0" points="245.5,380.4 236.6,380.4 259.3,329.3 268.2,329.3 	"/>
</g>
<g class="st1">
	<polygon class="st0" points="256.2,380.4 247.3,380.4 270,329.3 278.9,329.3 	"/>
</g>
<g class="st1">
	<polygon class="st0" points="266.9,380.4 258,380.4 280.7,329.3 289.6,329.3 	"/>
</g>
<g class="st1">
	<polygon class="st0" points="277.6,380.4 268.7,380.4 291.4,329.3 300.2,329.3 	"/>
</g>
<g class="st1">
	<polygon class="st0" points="288.3,380.4 279.3,380.4 302.1,329.3 310.9,329.3 	"/>
</g>
<g class="st1">
	<polygon class="st0" points="298.9,380.4 290,380.4 312.8,329.3 321.7,329.3 	"/>
</g>
<g class="st1">
	<polygon class="st0" points="309.6,380.4 300.7,380.4 323.5,329.3 332.4,329.3 	"/>
</g>
<g class="st1">
	<polygon class="st0" points="320.3,380.4 311.5,380.4 334.1,329.3 343,329.3 	"/>
</g>
<g class="st1">
	<polygon class="st0" points="331,380.4 322.2,380.4 344.8,329.3 353.7,329.3 	"/>
</g>
<g class="st1">
	<polygon class="st0" points="341.7,380.4 332.8,380.4 355.5,329.3 364.4,329.3 	"/>
</g>
<g class="st1">
	<polygon class="st0" points="352.4,380.4 343.5,380.4 366.2,329.3 375.1,329.3 	"/>
</g>
<g class="st1">
	<polygon class="st0" points="363.1,380.4 354.2,380.4 376.8,329.3 385.8,329.3 	"/>
</g>
<g class="st1">
	<polygon class="st0" points="373.8,380.4 364.9,380.4 387.5,329.3 396.4,329.3 	"/>
</g>
<g class="st1">
	<polygon class="st0" points="384.5,380.4 375.5,380.4 398.2,329.3 407.1,329.3 	"/>
</g>
<g class="st1">
	<polygon class="st0" points="395.1,380.4 386.2,380.4 408.9,329.3 417.8,329.3 	"/>
</g>
<g class="st1">
	<polygon class="st0" points="405.8,380.4 396.9,380.4 419.6,329.3 428.5,329.3 	"/>
</g>
<g class="st1">
	<polygon class="st0" points="416.5,380.4 407.6,380.4 430.3,329.3 439.2,329.3 	"/>
</g>
<g class="st1">
	<polygon class="st0" points="427.2,380.4 418.3,380.4 441,329.3 449.8,329.3 	"/>
</g>
<g class="st1">
	<polygon class="st0" points="437.9,380.4 428.9,380.4 451.7,329.3 460.5,329.3 	"/>
</g>
<g class="st1">
	<polygon class="st0" points="448.5,380.4 439.6,380.4 462.4,329.3 471.3,329.3 	"/>
</g>
<g class="st1">
	<polygon class="st0" points="459.2,380.4 450.3,380.4 473.1,329.3 482,329.3 	"/>
</g>
<g class="st1">
	<polygon class="st0" points="469.9,380.4 461.1,380.4 483.7,329.3 492.6,329.3 	"/>
</g>
<g class="st1">
	<polygon class="st0" points="480.6,380.4 471.8,380.4 494.4,329.3 503.3,329.3 	"/>
</g>
<g class="st1">
	<polygon class="st0" points="491.3,380.4 482.4,380.4 505.1,329.3 514,329.3 	"/>
</g>
<g class="st1">
	<polygon class="st0" points="502,380.4 493.1,380.4 515.8,329.3 524.7,329.3 	"/>
</g>
<g class="st1">
	<polygon class="st0" points="512.7,380.4 503.8,380.4 526.4,329.3 535.4,329.3 	"/>
</g>
<g class="st1">
	<polygon class="st0" points="523.4,380.4 514.5,380.4 537.1,329.3 546,329.3 	"/>
</g>
<g class="st1">
	<polygon class="st0" points="534.1,380.4 525.1,380.4 547.8,329.3 556.7,329.3 	"/>
</g>
<g class="st1">
	<polygon class="st0" points="544.7,380.4 535.8,380.4 558.5,329.3 567.4,329.3 	"/>
</g>
<g class="st1">
	<polygon class="st0" points="555.4,380.4 546.5,380.4 569.3,329.3 578.1,329.3 	"/>
</g>
<g class="st1">
	<polygon class="st0" points="566.1,380.4 557.2,380.4 579.9,329.3 588.8,329.3 	"/>
</g>
<g class="st1">
	<polygon class="st0" points="576.8,380.4 567.9,380.4 590.6,329.3 599.4,329.3 	"/>
</g>
<g class="st1">
	<polygon class="st0" points="587.5,380.4 578.5,380.4 601.3,329.3 610.1,329.3 	"/>
</g>
<g class="st1">
	<polygon class="st0" points="598.1,380.4 589.2,380.4 612,329.3 620.9,329.3 	"/>
</g>
<g class="st1">
	<polygon class="st0" points="608.8,380.4 599.9,380.4 622.6,329.3 631.6,329.3 	"/>
</g>
<g class="st1">
	<polygon class="st0" points="619.5,380.4 610.7,380.4 633.3,329.3 642.2,329.3 	"/>
</g>
<g class="st1">
	<polygon class="st0" points="630.2,380.4 621.3,380.4 644,329.3 652.9,329.3 	"/>
</g>
<g class="st1">
	<path class="st0" d="M662.1,332.6l-21.3,47.9l0,0h-8.9l0,0l22.5-50.7C657.2,330.3,659.8,331.2,662.1,332.6z"/>
</g>
<g class="st1">
	<path class="st0" d="M669.8,339.2l-18.2,41.1l-0.1,0.1h-8.9l0,0l20.8-47.1C665.9,335,668.1,337,669.8,339.2z"/>
</g>
<g class="st1">
	<path class="st0" d="M675,351.7l-10.7,24.1c-3.2,2.2-6.9,3.8-10.9,4.4l17.5-39.4C673.1,344,674.6,347.7,675,351.7z"/>
</g>
<g class="st1">
	<path class="st0" d="M675.2,354.9c0,7.7-3.4,14.7-8.8,19.3l8.8-19.9C675.2,354.4,675.2,354.7,675.2,354.9z"/>
</g>
<path class="st0" d="M339.9,302.7c0-0.9,0.1-1.8,0.3-2.5c0.2-0.6,0.4-1.3,0.6-1.8c0.3-0.5,0.6-0.8,1-1.1c0.4-0.3,0.7-0.6,1.1-0.6
	c0.4-0.2,0.8-0.3,1.2-0.3c0.4-0.1,0.7-0.1,1.1-0.1c0.3,0,0.6,0,1,0.1s0.7,0.2,1.2,0.3c0.4,0.2,0.7,0.4,1.1,0.6
	c0.4,0.3,0.7,0.6,1,1.1c0.3,0.5,0.6,1,0.6,1.8c0.2,0.7,0.3,1.6,0.3,2.5v9.2c0,0.9-0.1,1.8-0.3,2.5c-0.2,0.6-0.4,1.3-0.6,1.8
	c-0.3,0.5-0.6,0.8-1,1.2c-0.4,0.3-0.7,0.6-1.1,0.7c-0.4,0.2-0.7,0.3-1.2,0.4c-0.4,0.1-0.7,0.1-1,0.1c-0.4,0-0.7,0-1.1-0.1
	c-0.4-0.1-0.8-0.2-1.2-0.4c-0.4-0.2-0.7-0.4-1.1-0.7c-0.4-0.3-0.7-0.6-1-1.2c-0.3-0.5-0.5-1.1-0.6-1.8c-0.2-0.7-0.3-1.5-0.3-2.5
	V302.7z M343.2,313.3c0,0.9,0.2,1.6,0.5,2c0.4,0.4,0.8,0.6,1.5,0.6c0.6,0,1.1-0.2,1.5-0.6c0.3-0.4,0.5-1,0.5-2v-11.8
	c0-0.9-0.2-1.7-0.5-2c-0.3-0.5-0.8-0.6-1.5-0.6c-0.6,0-1.2,0.2-1.5,0.6c-0.4,0.5-0.5,1.1-0.5,2V313.3z"/>
<path class="st0" d="M358,308.3c-0.5,0-0.9-0.1-1.5-0.2c-0.5-0.1-0.9-0.4-1.3-0.8c-0.4-0.4-0.7-0.9-0.9-1.7
	c-0.3-0.7-0.4-1.7-0.4-2.9v-1.4c0-0.7,0.1-1.5,0.2-2s0.3-1,0.5-1.5c0.2-0.4,0.5-0.7,0.7-0.9c0.3-0.3,0.6-0.5,0.8-0.6
	s0.6-0.2,0.9-0.3c0.3-0.1,0.6-0.1,0.9-0.1s0.6,0,0.9,0.1c0.3,0.1,0.6,0.1,0.9,0.3c0.3,0.1,0.6,0.4,0.8,0.6c0.3,0.3,0.6,0.6,0.7,0.9
	c0.2,0.4,0.4,0.9,0.5,1.5s0.2,1.2,0.2,2v1.4c0,1.2-0.1,2.1-0.4,2.9c-0.3,0.7-0.6,1.3-1,1.7c-0.4,0.4-0.8,0.6-1.3,0.8
	C358.9,308.3,358.5,308.3,358,308.3z M358,306.2c0.6,0,0.9-0.3,1.1-0.7c0.2-0.5,0.3-1.2,0.3-2.1v-2.5c0-1-0.1-1.7-0.3-2.2
	c-0.2-0.5-0.6-0.7-1.1-0.7s-0.9,0.3-1.2,0.7c-0.2,0.5-0.4,1.2-0.4,2.2v2.5c0,1,0.1,1.7,0.4,2.1C357.1,306,357.4,306.2,358,306.2z
	 M365.7,296.2h2.3l-5.9,22.1h-2.3L365.7,296.2z M365.8,311.5c0-1.2,0.1-2.1,0.4-2.8c0.3-0.6,0.6-1.2,1-1.6c0.4-0.4,0.8-0.6,1.3-0.7
	c0.5-0.1,0.9-0.2,1.4-0.2c0.3,0,0.6,0,0.9,0.1c0.3,0.1,0.6,0.1,0.9,0.3c0.3,0.1,0.6,0.4,0.8,0.6c0.3,0.3,0.5,0.6,0.7,0.9
	c0.2,0.4,0.4,0.9,0.5,1.5c0.1,0.6,0.2,1.2,0.2,2v1.4c0,0.7-0.1,1.5-0.2,2c-0.1,0.6-0.3,1.1-0.5,1.5s-0.5,0.7-0.7,1
	c-0.3,0.3-0.6,0.5-0.8,0.6c-0.3,0.2-0.6,0.3-0.9,0.3c-0.3,0.1-0.6,0.1-0.9,0.1c-0.3,0-0.6,0-1-0.1s-0.6-0.2-0.9-0.3
	c-0.3-0.2-0.6-0.4-0.8-0.6c-0.3-0.3-0.5-0.6-0.6-1c-0.2-0.4-0.4-0.9-0.5-1.5s-0.2-1.3-0.2-2L365.8,311.5L365.8,311.5z M368.4,313.6
	c0,1,0.1,1.7,0.4,2.1c0.2,0.5,0.6,0.7,1.2,0.7c0.6,0,0.9-0.2,1.1-0.7c0.2-0.5,0.3-1.2,0.3-2.1v-2.5c0-1-0.1-1.7-0.3-2.2
	c-0.2-0.5-0.6-0.7-1.1-0.7c-0.6,0-0.9,0.3-1.2,0.7c-0.2,0.5-0.4,1.2-0.4,2.2V313.6z"/>
</svg>
