<?xml version="1.0" encoding="utf-8"?>
<!-- Generator: Adobe Illustrator 28.0.0, SVG Export Plug-In . SVG Version: 6.00 Build 0)  -->
<svg version="1.1" id="Layer_1" xmlns:xodm="http://www.corel.com/coreldraw/odm/2003"
	 xmlns="http://www.w3.org/2000/svg" xmlns:xlink="http://www.w3.org/1999/xlink" x="0px" y="0px" viewBox="0 0 720 720"
	 style="enable-background:new 0 0 720 720;" xml:space="preserve">
<g>
	<polygon points="359.3,575 344.5,560.2 348.2,556.5 359.3,567.6 370.4,556.5 374.1,560.2 	"/>
</g>
<g>
	<path d="M384.6,549.7l-3.7-3.7l24.5-24.5l3.7,3.7L384.6,549.7z M419.6,514.6l-3.7-3.7l24.5-24.5l3.7,3.7L419.6,514.6z M454.6,479.6
		l-3.7-3.7l24.5-24.5l3.7,3.7L454.6,479.6z M489.7,444.6l-3.7-3.7l24.5-24.5l3.7,3.7L489.7,444.6z M524.7,409.6l-3.7-3.7l24.5-24.5
		l3.7,3.7L524.7,409.6z"/>
</g>
<g>
	<polygon points="559.7,374.6 556,370.9 567.1,359.8 556,348.7 559.7,345 574.5,359.8 	"/>
</g>
<g>
	<path d="M545.5,338.1L521,313.6l3.7-3.7l24.5,24.5L545.5,338.1z M510.5,303.1L486,278.6l3.7-3.7l24.5,24.5L510.5,303.1z
		 M475.5,268.1l-24.5-24.5l3.7-3.7l24.5,24.5L475.5,268.1z M440.4,233.1l-24.5-24.5l3.7-3.7l24.5,24.5L440.4,233.1z M405.4,198.1
		l-24.5-24.5l3.7-3.7l24.5,24.5L405.4,198.1z"/>
</g>
<g>
	<polygon points="348.2,163 344.5,159.3 359.3,144.5 374.1,159.3 370.4,163 359.3,151.9 	"/>
</g>
<g>
	<path d="M173.1,338.1l-3.7-3.7l24.5-24.5l3.7,3.7L173.1,338.1z M208.1,303.1l-3.7-3.7l24.5-24.5l3.7,3.7L208.1,303.1z M243.1,268.1
		l-3.7-3.7l24.5-24.5l3.7,3.7L243.1,268.1z M278.1,233.1l-3.7-3.7l24.5-24.5l3.7,3.7L278.1,233.1z M313.2,198.1l-3.7-3.7l24.5-24.5
		l3.7,3.7L313.2,198.1z"/>
</g>
<g>
	<polygon points="158.9,374.6 144.1,359.8 158.9,345 162.6,348.7 151.5,359.8 162.6,370.9 	"/>
</g>
<g>
	<path d="M334,549.7l-24.5-24.5l3.7-3.7l24.5,24.5L334,549.7z M299,514.6l-24.5-24.5l3.7-3.7l24.5,24.5L299,514.6z M263.9,479.6
		l-24.5-24.5l3.7-3.7l24.5,24.5L263.9,479.6z M228.9,444.6l-24.5-24.5l3.7-3.7l24.5,24.5L228.9,444.6z M193.9,409.6l-24.5-24.5
		l3.7-3.7l24.5,24.5L193.9,409.6z"/>
</g>
<path d="M359.3,236.4c-68.1,0-123.4,55.2-123.4,123.4s55.2,123.4,123.4,123.4s123.4-55.2,123.4-123.4S427.4,236.4,359.3,236.4z
	 M359.3,457.3c-53.8,0-97.5-43.8-97.5-97.5c0-53.8,43.8-97.5,97.5-97.5c53.8,0,97.5,43.8,97.5,97.5
	C456.8,413.5,413.1,457.3,359.3,457.3z"/>
<path d="M310.2,328c4.3-6.7,10-12.4,16.6-16.8l-12-20.8c-10.2,6.6-18.9,15.3-25.4,25.6L310.2,328z"/>
<path d="M310.9,392.5l-20.8,12c6.5,10.1,15.2,18.6,25.3,25l12-20.8C320.9,404.4,315.2,398.9,310.9,392.5z"/>
<path d="M300.9,356.9c0.4-8.1,2.4-15.8,5.8-22.7l-20.8-12c-5.4,10.5-8.6,22.3-9,34.8H300.9z"/>
<path d="M408.4,328l20.8-12c-6.5-10.3-15.1-19.1-25.4-25.6l-12,20.8C398.4,315.6,404.1,321.4,408.4,328z"/>
<path d="M362.8,301.4c8.2,0.5,15.9,2.7,22.9,6.2l12-20.8c-10.5-5.5-22.3-8.9-34.9-9.4V301.4z"/>
<path d="M332.9,307.6c6.9-3.5,14.7-5.7,22.9-6.2v-24c-12.6,0.5-24.4,3.9-34.9,9.4L332.9,307.6z"/>
<path d="M417.6,364c-0.6,8-2.8,15.6-6.3,22.4l20.8,12c5.5-10.4,8.9-22,9.5-34.4H417.6z"/>
<path d="M411.9,334.2c3.4,6.9,5.4,14.6,5.8,22.7h24c-0.4-12.5-3.6-24.3-9-34.8L411.9,334.2z"/>
<path d="M407.7,392.5c-4.4,6.4-10,11.9-16.5,16.2l12,20.8c10.1-6.4,18.8-14.9,25.3-25L407.7,392.5z"/>
<path d="M355.7,418.1c-7.9-0.5-15.5-2.5-22.2-5.9l-12,20.8c10.3,5.3,22,8.6,34.3,9.1V418.1z"/>
<path d="M307.3,386.4c-3.5-6.8-5.7-14.4-6.3-22.4h-24.1c0.6,12.4,4,24.1,9.5,34.4L307.3,386.4z"/>
<path d="M385.1,412.2c-6.8,3.3-14.3,5.4-22.2,5.9v24c12.3-0.5,23.9-3.7,34.3-9.1L385.1,412.2z"/>
<path d="M167.4,235.8c16.9-26.1,38.9-48.5,64.7-65.8l-47-81.4c-39.9,25.7-73.8,60-99.1,100.2L167.4,235.8z"/>
<path d="M170.1,487.8l-81.4,47c25.5,39.3,59.2,72.7,98.8,97.7l47-81.4C209.1,534.4,187.1,512.9,170.1,487.8z"/>
<path d="M131,348.7c1.5-31.7,9.5-61.8,22.7-88.8l-81.4-47c-21,41-33.5,87-35.2,135.8H131z"/>
<path d="M551.1,235.8l81.4-47c-25.2-40.3-59.1-74.5-99.1-100.2l-47,81.4C512.2,187.3,534.2,209.7,551.1,235.8z"/>
<path d="M373.1,131.7c32,1.9,62.3,10.5,89.4,24.3l47-81.4c-41-21.7-87.3-34.8-136.4-36.8V131.7z"/>
<path d="M256,156c27.2-13.8,57.4-22.4,89.4-24.3V37.8c-49.1,2.1-95.4,15.2-136.4,36.8L256,156z"/>
<path d="M587.2,376.4c-2.3,31.4-10.9,61-24.6,87.6l81.4,47c21.5-40.5,34.8-86.1,37.2-134.6H587.2z"/>
<path d="M564.8,259.9c13.2,27.1,21.2,57.1,22.7,88.8h93.8c-1.6-48.8-14.1-94.9-35.2-135.8L564.8,259.9z"/>
<path d="M548.5,487.8c-17,25.1-39,46.6-64.4,63.3l47,81.4c39.6-25,73.4-58.4,98.8-97.7L548.5,487.8z"/>
<path d="M345.5,587.8c-31.1-1.9-60.4-10-87-23l-47,81.4c40.4,20.9,85.8,33.5,134,35.6V587.8z"/>
<path d="M156,463.9c-13.7-26.6-22.3-56.2-24.6-87.6H37.4c2.5,48.5,15.7,94.1,37.2,134.6L156,463.9z"/>
<path d="M460.1,564.8c-26.5,13.1-55.9,21.2-87,23v93.9c48.1-2,93.5-14.7,134-35.6L460.1,564.8z"/>
<circle cx="359.3" cy="359.8" r="37.1"/>
</svg>
