<?xml version="1.0" encoding="utf-8"?>
<!-- Generator: Adobe Illustrator 28.0.0, SVG Export Plug-In . SVG Version: 6.00 Build 0)  -->
<svg version="1.1" id="Layer_1" xmlns:xodm="http://www.corel.com/coreldraw/odm/2003"
	 xmlns="http://www.w3.org/2000/svg" xmlns:xlink="http://www.w3.org/1999/xlink" x="0px" y="0px" viewBox="0 0 720 720"
	 style="enable-background:new 0 0 720 720;" xml:space="preserve">
<style type="text/css">
	.st0{fill-rule:evenodd;clip-rule:evenodd;}
</style>
<path class="st0" d="M306.4,24.9c-17.2,2-41.2,7.4-47.3,10.7c-3.1,1.7,46.3-2.9,62.8-0.6c22.7,3.2,52.3,12,90.2,27.1
	c59.1,23.5,79.5,35.7,116.1,69.7c10.8,10,12.5,11.3,15.3,11.3c5.5,0,8.9-5.5,6.3-10.3c-1.6-3-24.1-24-36-33.5
	C473.2,66.8,405.6,40,355.9,26.6C342.1,22.9,320.7,23.3,306.4,24.9C306.4,24.9,306.4,24.9,306.4,24.9z M277.7,54.6
	c-60.4,7.4-115.5,41.2-154.2,94.9c-6.6,9.1-11.8,20-16.9,35.2c-4.2,12.7-8.4,28.3-8.4,31.3c0,1,2.3-2.6,5.2-7.9
	c8.7-16.5,25.3-41.4,39.8-59.7c49.6-62.8,125.7-93.7,204.8-72c22.7,6.2,59.8,21,103.4,41.2c6.2,2.9,12.4,5.2,13.8,5.2
	c6.1,0,10.2-8.2,4.4-12.8c-4.7-3.8-58.3-27.3-85-37.3C351.3,60.1,313.3,50.3,277.7,54.6L277.7,54.6L277.7,54.6z M271.5,90.4
	c-44.7,6.5-83.4,30.5-112.6,69.8c-14.2,19.1-30.3,44.4-43.3,68.2c-6,11-11.8,24.1-16.2,36.3l-2.5,7.1l-0.3,28.7
	c-0.4,38.2,0.6,53.3,4.7,69.4c7.7,30.4,18.2,56.4,35.5,87.8c24.9,45.2,48.9,71.3,80.1,87c9.8,4.9,13,5.4,16.3,2.1
	c1.8-1.8,2.2-2.9,1.9-6l-0.3-3.7c-22.6-11.7-37.8-19.6-54.5-40.4c-38.6-48.3-67.4-113.1-71.8-174.9c-2.7-38.2,4-60.2,32.7-108
	c32.1-53.6,54.6-77.8,87.3-94.1c85.3-42.5,211.8,16,271.4,82.6c48.8,54.5,73,94.8,90.7,151.3c2.5,8,4.9,15.4,5.3,16.4
	c0.4,1,0.8-7,0.8-19.1c0.1-23.2,0-23.8-8.2-43.5C543.7,199.1,446.2,111.3,330.7,93C312,89.1,287.5,88,271.5,90.4L271.5,90.4
	L271.5,90.4z M285.2,126.3c-44.2,3.5-74,23.5-99.7,57.5c-23.1,30.5-53.5,79.3-56.2,118c-0.4,6.3-0.3,7.2,1.3,8.7
	c2.7,2.4,7.4,2.9,9.8,0.9c1.5-1.3,2.3-3.4,3.3-9.6c7.3-42.6,42-101.7,72.5-130.5c64.4-60.9,172.6-18.4,231.8,29.1
	c14.8,11.9,32.2,31.1,55.7,61.6c29.2,37.8,52.1,77.8,60.8,125.3c16.3,88.8-27.9,180-74.5,253.5c-4.1,6.5-7.3,12-7.1,12.2
	c0.7,0.7,24.6-17.7,29.1-22.4c11.2-11.5,40.3-71,54.4-111.7c11.2-32,16.1-59.6,16.1-89.8c0-52.3-15.9-101.2-48.9-150.8
	c-50.4-75.6-113.9-133.6-207.1-149.9C312.3,125.9,299.6,125.1,285.2,126.3L285.2,126.3L285.2,126.3z M496.5,138.1
	c-2.2,2.2-2.8,6-1.4,8.3c0.4,0.6,5.5,6.2,11.3,12.4c25,26.5,43.9,48.3,57.9,66.9c7.7,10.2,23.1,33.1,27.2,40.5
	c1.6,2.8,3.2,5.1,3.7,5.1s0.8-5.3,0.8-11.8c0-13.5-0.3-14.2-9.5-27.5c-19.1-27.5-50.8-65.3-73.4-87.3c-7.4-7.3-9.3-8.6-11.6-8.6
	C499.7,135.9,497.9,136.7,496.5,138.1L496.5,138.1L496.5,138.1z M286.7,160.7c-3.1,0.4-9,1.6-13.2,2.7c-32.9,8.2-62.9,36.2-78,72.5
	c-4.9,11.8-5.3,14.4-2.4,17.2c1.6,1.6,3.2,2.3,5.7,2.3c4.3,0,5.5-1.3,8.6-9.3c8.5-21.7,22.9-41.2,39.8-54
	c44.8-33.6,109.6-11.6,152.2,15.1c28.5,17.9,60.1,49.3,84.6,84.2c70.6,100.6,59.9,166.6,12.3,269c-24,51.7-56,96.1-86.4,120.3
	c-6.7,5.3-9.2,8-6.5,7c0.7-0.2,7-2.2,14-4.2c7.1-2.1,14.2-4.5,15.9-5.4c5.7-2.8,23.5-22.8,35.5-39.8
	c39.4-55.5,79.4-139.7,79.4-208.2c0-36-7.8-68.4-24.4-101.5c-39.1-78-111.3-151.1-199.8-166.5C314.4,160.4,294.2,159.6,286.7,160.7
	L286.7,160.7L286.7,160.7z M294.9,196.2c-13.8,1.3-28.4,6.6-41.3,15.2c-13.3,8.8-21.1,17.3-19.7,21.7c1,3.1,4,5.4,7,5.4
	c2.4,0,4.3-1.2,9.9-6.2c21.2-18.7,45-24.9,72.8-19.5c66.7,12.8,115.9,67.4,150.3,122.4c36.6,58.5,33.4,120.5,7,181.7
	c-30.6,70.9-62.3,116.4-101.1,145.2c-16,11.8-33.5,20.6-54.2,27.1c-7.4,2.3-13.5,4.5-13.5,4.8c0,0.3,8.3,0.8,18.4,1
	c17.5,0.4,18.6,0.4,23.7-1.5c62.2-23.3,106.5-96.1,132.7-153c15.9-34.5,22.8-55.1,26.6-79.2c7.5-48.3-4.5-98.3-30.6-139.3
	c-27.9-43.9-60.5-78.6-92.1-98.2C362.6,206.5,328.5,193,294.9,196.2L294.9,196.2L294.9,196.2z M297.1,236.7
	c-14.6,3.2-28.7,9.2-41.6,17.7c-33.1,21.8-49.3,53.7-47.5,93.4c1.3,26.5,9.1,50,22.4,66.7c11.3,14.3,23.9,22.6,58.7,38.6
	c18.7,8.6,27.3,12.9,31.4,15.3c11.4,6.7,1.2,23.7-15.1,17.8c-8.5-3-19.5-7.2-28.7-11.3c-11.7-5.3-24.5-12.9-30.2-16.7
	c-22.9-15.4-40.6-38.1-49.4-63.5c-8.9-25.8-11.7-58.9-8.4-85.7c2.7-21.8,2.7-21.2,0.5-23.4c-2.7-2.7-8.5-2.3-10.8,0.8
	c-1.9,2.6-3.9,14.5-5.4,32.9c-2,25.6,2.5,59.4,11.3,83.8c9.4,26.1,29.4,51,54.4,67.7c9.6,6.4,44.8,23.9,55,27.3
	c22.4,7.9,38.5-1.4,43.9-17.1c9-26.1-32-35.2-49.4-44.9c-24-10.8-36.2-18.9-45.7-30.3c-45.2-54.4-12-147,65.6-155.7
	c12.4-1.4,31.5,1.7,48.2,7.9c8.8,3.2,10.9,3.3,13.8,0.4c1.8-1.8,2.2-2.9,2-5.9c-0.2-3.3-0.7-3.9-3.8-5.7
	C350.9,237,316.3,232.5,297.1,236.7L297.1,236.7L297.1,236.7z M309.1,270.9c-42.8,6.6-72.6,45.2-63.7,88.7
	c3.8,19,13.9,35.6,27.7,45.8c8,5.9,23.2,13.6,28.1,14.1c3.1,0.3,4.2,0.1,5.7-1.4c4.3-4.3,3.1-9.9-2.6-12.7
	c-1.7-0.8-6.4-3.2-10.5-5.2c-44.4-21.6-46.7-84.9-2.6-107.8c41.1-21.4,99.7,13.8,132.5,40.2c4.7,3.8,8.1,4.1,11.2,0.9
	c3.2-3.2,2.9-6.8-1.1-11.2c-3.5-3.9-19.3-16-28.1-21.6c-9.4-6-28-15.2-40.7-20.2C348.7,274.3,326.7,268.2,309.1,270.9L309.1,270.9
	L309.1,270.9z M312.1,307.4c-45,14.6-41.2,69.3,8.4,84.6c19.7,6.1,34.7,15,48.7,29.1c17.3,17.5,28.7,43.2,22.6,68.2
	c-10.3,42.3-82.6,106.7-125.4,114.1c-44.3,7.7-93.5-13-123.8-45c-13.1-13.9-30-38.7-40.6-59.6c-2.5-5-3.9-7-3.9-5.7
	c0,7.2,10.9,41.7,16.9,53.3c14.8,28.6,52.8,54.8,83,65.1c26.1,8.9,56.9,11.4,83.6,3.6c46.8-13.7,120.8-83.5,126-131.3
	c5-46.1-28.1-89.1-81.7-106c-43.2-13.7-35.1-54-4-56.8c18.2-1.6,71.5,26.6,85.3,39.7c26.7,25.3,34,54.8,24.6,99.3
	c-6.7,31.7-17,57.2-32.4,80.4c-34.1,51.1-78.3,85-124,95.1c-28.5,6.3-65.6,2.5-92.9-9.5c-8.5-3.7-19.9-9.8-25.5-13.7
	c-1.9-1.3-3.7-2.2-3.9-1.9c-0.6,0.6,16.2,17.6,26,26.2c7.3,6.4,8.7,7.2,15.9,9.5c15.9,5.1,30.8,7.1,51.3,7.1
	c78.9,0,148.4-64.1,180.8-131.9c12.5-26.1,20.9-57.4,23-85.9c3-40.1-14.3-75.4-47.9-97.9C384.4,325.6,334.7,300.1,312.1,307.4
	L312.1,307.4L312.1,307.4z M318.3,348.2c0,1.9,0.6,4,1.4,4.8c0.8,0.8,11.4,6.3,23.7,12.3c24.7,12.1,43.4,22.5,61.4,44.1
	c2.1,2.5,3.4,3.3,5.6,3.3c3.8,0,5.9-1.3,6.9-4.4c1.5-4.2-2.2-10.4-12.6-20.8c-9.9-10-17.9-15.9-33.7-24.9
	c-13.5-7.7-42.8-21.5-45.7-21.5c-1.2,0-3.3,0.8-4.5,1.8L318.3,348.2L318.3,348.2z M449.4,348.5c-2.9,3-2.4,6.2,2.4,16
	c25,51.7,18.7,94.2-2,145.4c-18.3,45.5-36,73.9-62.4,100.1c-22,21.9-47.4,38.3-77,49.9c-17.6,6.9-43.8,12-62,12
	c-4.8,0-8.8,0.3-8.8,0.8c0,0.4,6.1,3.2,13.6,6.2c15.5,6.2,16.9,6.3,30.8,3.7c93.7-18.1,148.4-88.2,181.6-172.5
	c17.2-43.8,23.4-83.5,8.4-129.2c-3.9-11.7-12.1-29.7-14.9-32.5C456.5,345.7,451.9,345.8,449.4,348.5L449.4,348.5L449.4,348.5z
	 M137.1,355.6c-2.3,2.4-2.2,4.6,0.9,16.3c7.1,27.1,30.1,75.3,47.4,99.4c26.2,36.6,97.7,76.3,144.4,61.8
	c20.6-6.4,36.7-22.9,42.4-43.5c5.5-20-2.1-43.8-19.5-60.8c-5.7-5.6-8.8-6.9-12.1-5.4c-3.1,1.5-5,5.1-4.3,8.1c0.3,1.3,3.3,5.4,6.7,9
	c13.7,14.7,21.5,32.8,11.9,52.3c-20,40.5-64.6,28.1-97.7,14.9c-31.2-12.4-51.3-29.9-70-60.7c-6.5-10.8-22-42.7-27.6-56.9
	c-1.9-4.7-10.8-33.6-12.3-35.1C145.1,352.7,139.6,353,137.1,355.6L137.1,355.6L137.1,355.6z M96.4,429.8c0.1,21.1,0.6,23.8,7.8,38
	c19.4,38.8,46.8,75.6,68.6,92.1c25,22.7,64,32.2,95.2,23.7c15.7-4.2,33.6-15.2,33.6-20.6c0-2.9-2-5.6-5.3-7c-2.5-1-3.2-0.9-7.8,1.7
	c-40.8,22.4-80.8,14.7-115.5-17.6c-30.4-28.4-54.6-73.6-71-111.2c-2.4-5.5-4.6-9.9-5-9.9C96.7,418.9,96.4,423.8,96.4,429.8
	L96.4,429.8L96.4,429.8z M591.5,499.5c-2.3,6.5-7.7,21.9-12.1,34.2c-4.4,12.3-8.2,23.8-8.5,25.6c-0.8,5.7,11-19.2,15.2-32
	c4.5-13.7,10.1-35.5,9.7-38C595.7,488.4,593.7,492.9,591.5,499.5L591.5,499.5z"/>
</svg>
