<?xml version="1.0" encoding="utf-8"?>
<!-- Generator: Adobe Illustrator 28.0.0, SVG Export Plug-In . SVG Version: 6.00 Build 0)  -->
<svg version="1.1" id="Layer_1" xmlns:xodm="http://www.corel.com/coreldraw/odm/2003"
	 xmlns="http://www.w3.org/2000/svg" xmlns:xlink="http://www.w3.org/1999/xlink" x="0px" y="0px" viewBox="0 0 720 720"
	 style="enable-background:new 0 0 720 720;" xml:space="preserve">
<style type="text/css">
	.st0{fill:#C10C0C;}
	.st1{fill:none;}
	.st2{fill-rule:evenodd;clip-rule:evenodd;fill:#FFD93E;}
	.st3{fill-rule:evenodd;clip-rule:evenodd;}
	.st4{fill:#FFFFFF;}
</style>
<polygon points="637.2,217.9 637.2,486.1 72.1,486.1 72.1,310.9 165.8,217.9 "/>
<polygon class="st0" points="229.3,217.9 165.8,217.9 72.1,311.7 72.1,371.4 59.8,358.5 59.8,306.5 160.7,205.7 215.3,205.7 "/>
<line class="st1" x1="65.3" y1="301" x2="59.8" y2="306.5"/>
<polygon class="st0" points="663.3,387.6 663.3,510.1 359,510.1 384.3,486.1 637.2,486.1 637.2,414.6 "/>
<g>
	<polygon class="st0" points="662.6,311.5 637.2,337.8 637.2,311.5 	"/>
	<polygon class="st0" points="663.3,324.3 663.3,342.4 637.2,369.6 637.2,351.3 	"/>
	<polygon class="st0" points="637.2,383.5 663.3,356.5 663.3,375.1 637.2,402.1 	"/>
</g>
<circle class="st2" cx="173.4" cy="391.2" r="72.1"/>
<path class="st3" d="M173.4,317.3c40.8,0,73.9,33.1,73.9,73.9s-33.1,73.9-73.9,73.9S99.5,432,99.5,391.2S132.6,317.3,173.4,317.3z
	 M173.4,322.4c38,0,68.8,30.8,68.8,68.8S211.4,460,173.4,460s-68.8-30.8-68.8-68.8S135.5,322.4,173.4,322.4z"/>
<path class="st3" d="M173.4,317.3c40.8,0,73.9,33.1,73.9,73.9s-33.1,73.9-73.9,73.9S99.5,432,99.5,391.2S132.6,317.3,173.4,317.3z
	 M173.4,322.4c38,0,68.8,30.8,68.8,68.8S211.4,460,173.4,460s-68.8-30.8-68.8-68.8S135.5,322.4,173.4,322.4z"/>
<circle class="st3" cx="173.4" cy="391.2" r="11.9"/>
<path class="st3" d="M181.2,377.8c0,0,8.4,5.3,7.4,13.3c8.8,0.1,37.4,0.1,43.9,0c-0.1-5.5,0-34-29.4-51.2
	C197.7,348.4,181.2,377.8,181.2,377.8L181.2,377.8z"/>
<path class="st3" d="M165.7,377.9c0,0-8.4,5.3-7.4,13.3c-8.8,0.1-37.4,0.1-43.9,0c0.1-5.5,0-34,29.4-51.2
	C149.2,348.5,165.7,377.9,165.7,377.9L165.7,377.9z"/>
<path class="st3" d="M165.8,404.8c0,0,8.8,4.6,15.2-0.3c4.5,7.5,19,32.3,22.1,37.9c-4.8,2.7-29.3,17.1-59,0.5
	C148.7,433.8,165.8,404.8,165.8,404.8L165.8,404.8z"/>
<path class="st4" d="M290.3,365.2v16h-10.7v-42.7H309l5.3,5.3v16l-5.3,5.3h-4l9.3,16h-10.7l-9.3-16h-4V365.2z M290.3,349.2v5.3h13.3
	v-5.3H290.3z"/>
<path class="st4" d="M334.2,353.2l-8.8,28h-10.3l13.4-42.6H340l13.4,42.6H343L334.2,353.2z"/>
<path class="st4" d="M355.9,381.1v-42.7h29.4l5.3,5.3v32l-5.3,5.3h-29.4V381.1z M366.6,349.1v21.3H380v-21.3H366.6z"/>
<path class="st4" d="M406.5,338.5v42.7h-10.7v-42.7H406.5z"/>
<path class="st4" d="M426.8,353.2l-8.8,28h-10.3l13.4-42.6h11.5l13.4,42.6h-10.3L426.8,353.2z"/>
<path class="st4" d="M453.4,349.2h-12.5v-10.7h34.7v10.7H464v32h-10.6V349.2z"/>
<path class="st4" d="M490.9,338.5v42.7h-10.7v-42.7H490.9z"/>
<path class="st4" d="M500.8,381.2l-5.3-5.3v-32l5.3-5.3h24l5.3,5.3v32l-5.3,5.3H500.8z M506.2,349.2v21.3h13.3v-21.3H506.2z"/>
<path class="st4" d="M535.3,338.5h9.8l16.9,28.9v-28.9h10.7v42.7h-12.5L546,356.8v24.4h-10.7V338.5z"/>
<path class="st4" d="M265.5,420.2v21.5h16.1v7.2h-23.3v-28.6h7.2V420.2z"/>
<path class="st4" d="M284.2,448.9v-28.6h23.2v7.2h-16.1v3.6h16.1v7.2h-16.1v3.5h16.1v7.2h-23.2V448.9z"/>
<path class="st4" d="M321,430.1l-5.9,18.7h-6.9l9-28.6h7.7l9,28.6H327L321,430.1z"/>
<path class="st4" d="M337,420.2l5.6,18.1l5.6-18.1h7.2l-9,28.6h-7.7l-9-28.6H337z"/>
<path class="st4" d="M357.3,448.9v-28.6h23.2v7.2h-16.1v3.6h16.1v7.2h-16.1v3.5h16.1v7.2h-23.2V448.9z"/>
<path class="st4" d="M403.2,427.4h-8.4v-7.2H418v7.2h-7.8v21.5h-7.1L403.2,427.4L403.2,427.4z"/>
<path class="st4" d="M428.4,438.1v10.7h-7.2v-28.6h7.2v10.7h8.9v-10.7h7.2v28.6h-7.2v-10.7H428.4z"/>
<path class="st4" d="M455,420.2v28.6h-7.2v-28.6H455z"/>
<path class="st4" d="M465.3,427.4v3.5h12.5l3.6,3.6v10.7l-3.6,3.6h-19.7v-7.2h16.1V438h-12.5l-3.6-3.6v-10.7l3.6-3.6h19.7v7.2h-16.1
	V427.4z"/>
<path class="st4" d="M506.3,430.1l-5.9,18.7h-6.9l9-28.6h7.7l9,28.6h-6.9L506.3,430.1z"/>
<path class="st4" d="M528,438.1v10.7h-7.2v-28.6h19.7l3.6,3.6v10.7l-3.6,3.6h-2.7l6.2,10.7h-7.2l-6.2-10.7L528,438.1L528,438.1z
	 M528,427.4v3.5h8.9v-3.5H528z"/>
<path class="st4" d="M547.2,448.9v-28.6h23.2v7.2h-16.1v3.6h16.1v7.2h-16.1v3.5h16.1v7.2h-23.2V448.9z"/>
<path class="st4" d="M583.9,430.1l-5.9,18.7h-6.9l9-28.6h7.7l9,28.6h-6.9L583.9,430.1z"/>
<path class="st4" d="M606.2,420.2v19.7H599v-19.7H606.2z M606.2,441.7v7.2H599v-7.2H606.2z"/>
<g>
	<polygon class="st4" points="152.1,296.8 137.6,296.8 166.6,255.3 181.1,255.3 	"/>
	<polygon class="st4" points="177.3,296.8 162.7,296.8 191.8,255.3 206.3,255.3 	"/>
	<polygon class="st4" points="202.4,296.8 187.9,296.8 216.9,255.3 231.5,255.3 	"/>
	<polygon class="st4" points="227.6,296.8 213.1,296.8 242.1,255.3 256.6,255.3 	"/>
	<polygon class="st4" points="252.8,296.8 238.2,296.8 267.3,255.3 281.8,255.3 	"/>
	<polygon class="st4" points="277.9,296.8 263.4,296.8 292.5,255.3 307,255.3 	"/>
	<polygon class="st4" points="303.1,296.8 288.6,296.8 317.6,255.3 332.1,255.3 	"/>
	<polygon class="st4" points="328.3,296.8 313.7,296.8 342.8,255.3 357.3,255.3 	"/>
	<polygon class="st4" points="353.4,296.8 338.9,296.8 368,255.3 382.5,255.3 	"/>
	<polygon class="st4" points="378.6,296.8 364.1,296.8 393.1,255.3 407.6,255.3 	"/>
	<polygon class="st4" points="403.8,296.8 389.3,296.8 418.3,255.3 432.8,255.3 	"/>
	<polygon class="st4" points="428.9,296.8 414.4,296.8 443.5,255.3 458,255.3 	"/>
	<polygon class="st4" points="454.1,296.8 439.6,296.8 468.6,255.3 483.2,255.3 	"/>
	<polygon class="st4" points="479.3,296.8 464.8,296.8 493.8,255.3 508.3,255.3 	"/>
	<polygon class="st4" points="504.5,296.8 489.9,296.8 519,255.3 533.5,255.3 	"/>
	<polygon class="st4" points="529.6,296.8 515.1,296.8 544.1,255.3 558.7,255.3 	"/>
	<polygon class="st4" points="554.8,296.8 540.3,296.8 569.3,255.3 583.8,255.3 	"/>
	<polygon class="st4" points="580,296.8 565.4,296.8 594.5,255.3 609,255.3 	"/>
</g>
</svg>
