<?xml version="1.0" encoding="utf-8"?>
<!-- Generator: Adobe Illustrator 28.0.0, SVG Export Plug-In . SVG Version: 6.00 Build 0)  -->
<svg version="1.1" id="Layer_1" xmlns:xodm="http://www.corel.com/coreldraw/odm/2003"
	 xmlns="http://www.w3.org/2000/svg" xmlns:xlink="http://www.w3.org/1999/xlink" x="0px" y="0px" viewBox="0 0 720 720"
	 style="enable-background:new 0 0 720 720;" xml:space="preserve">
<style type="text/css">
	.st0{fill:#F7B24B;}
	.st1{fill:#FFFFFF;}
</style>
<rect x="181.2" y="46" width="357.5" height="625"/>
<path class="st0" d="M501.4,391.8H218.8c-5.3,0-9.6-4.3-9.6-9.6V81.4c0-5.3,4.3-9.6,9.6-9.6h282.7c5.3,0,9.6,4.3,9.6,9.6v300.8
	C511,387.5,506.7,391.8,501.4,391.8z"/>
<rect x="235.5" y="98.1" class="st1" width="249.3" height="267.4"/>
<path d="M305.1,338.7L278.3,312v-53.2l26.8-26.8l-26.8-26.8v-53.6l26.8-26.8h120.5l26.8,26.8v53.6l-26.8,26.8l26.8,26.8V312
	l-26.8,26.8H305.1z M331.9,178.4v26.8h67v-26.8H331.9z M331.9,258.7v26.4h67v-26.4H331.9z"/>
</svg>
