<?xml version="1.0" encoding="utf-8"?>
<!-- Generator: Adobe Illustrator 28.0.0, SVG Export Plug-In . SVG Version: 6.00 Build 0)  -->
<svg version="1.1" id="Layer_1" xmlns:xodm="http://www.corel.com/coreldraw/odm/2003"
	 xmlns="http://www.w3.org/2000/svg" xmlns:xlink="http://www.w3.org/1999/xlink" x="0px" y="0px" viewBox="0 0 720 720"
	 style="enable-background:new 0 0 720 720;" xml:space="preserve">
<style type="text/css">
	.st0{fill:#C12026;}
	.st1{opacity:0.5;fill:#C12026;}
</style>
<path class="st0" d="M261.7,332.8c0-5.4,0.5-10.2,1.5-14.1c1-4,2.3-7.3,3.9-10c1.6-2.7,3.5-4.9,5.7-6.5s4.3-2.9,6.6-3.8
	c2.3-0.9,4.5-1.5,6.8-1.8c2.3-0.3,4.3-0.4,6.2-0.4c1.8,0,3.8,0.1,6,0.4c2.2,0.3,4.5,0.8,6.7,1.7c2.3,0.9,4.5,2.1,6.6,3.7
	c2.1,1.6,4,3.8,5.6,6.5c1.6,2.7,2.9,6.1,3.9,10.1c1,4,1.5,8.8,1.5,14.3v52.7c0,5.5-0.5,10.2-1.5,14.1c-1,4-2.3,7.3-4,10.1
	c-1.7,2.8-3.6,5-5.7,6.8c-2.1,1.7-4.3,3.1-6.6,4c-2.2,0.9-4.5,1.6-6.7,1.9c-2.2,0.3-4.2,0.5-5.9,0.5c-1.9,0-4.1-0.2-6.3-0.5
	c-2.3-0.3-4.6-1-6.9-1.9c-2.3-1-4.5-2.3-6.6-4c-2.1-1.7-4-3.9-5.6-6.7c-1.6-2.8-2.9-6.2-3.9-10.1c-1-4-1.5-8.7-1.5-14.2V332.8z
	 M281.1,393.5c0,5.2,0.9,8.9,2.8,11.2c1.9,2.3,4.7,3.5,8.6,3.5c3.7,0,6.5-1.2,8.4-3.5c1.8-2.3,2.8-6.1,2.8-11.2V326
	c0-5.4-0.9-9.4-2.8-11.9c-1.8-2.5-4.6-3.7-8.4-3.7c-3.8,0-6.7,1.2-8.6,3.7c-1.9,2.5-2.8,6.4-2.8,11.9V393.5z"/>
<path class="st0" d="M365.5,364.5c-2.8,0-5.6-0.4-8.4-1.2c-2.8-0.8-5.3-2.3-7.6-4.6c-2.3-2.3-4.1-5.5-5.5-9.6
	c-1.4-4.2-2.1-9.6-2.1-16.4v-7.8c0-4.4,0.3-8.3,1-11.5c0.7-3.2,1.6-6,2.8-8.3c1.2-2.3,2.6-4.1,4.1-5.5c1.6-1.4,3.2-2.5,5-3.3
	c1.8-0.8,3.5-1.3,5.4-1.6c1.8-0.3,3.6-0.4,5.4-0.4c1.7,0,3.4,0.1,5.2,0.4c1.8,0.3,3.6,0.8,5.3,1.6c1.7,0.8,3.4,1.9,4.9,3.2
	c1.6,1.4,2.9,3.2,4.1,5.5c1.2,2.3,2.1,5.1,2.8,8.3c0.7,3.3,1,7.1,1,11.6v7.8c0,6.7-0.8,12.1-2.3,16.2c-1.5,4.2-3.4,7.4-5.7,9.7
	c-2.3,2.3-4.8,3.8-7.6,4.6S367.9,364.5,365.5,364.5z M365.6,352.9c3.1,0,5.2-1.3,6.4-4s1.8-6.8,1.8-12.4v-14.2
	c0-5.6-0.6-9.8-1.8-12.5c-1.2-2.7-3.4-4-6.4-4c-3.2,0-5.5,1.3-6.8,4c-1.3,2.7-1.9,6.8-1.9,12.5v14.2c0,5.6,0.6,9.7,1.9,12.4
	S362.4,352.9,365.6,352.9z M409.7,295.8h13.2l-33.5,126h-13.3L409.7,295.8z M409.8,383.4c0-6.7,0.7-12,2.2-16s3.4-7.1,5.7-9.3
	c2.3-2.2,4.9-3.6,7.6-4.3c2.8-0.7,5.4-1.1,8-1.1c1.7,0,3.4,0.1,5.2,0.4c1.8,0.3,3.6,0.8,5.3,1.6c1.7,0.8,3.4,1.9,4.9,3.2
	c1.6,1.4,2.9,3.2,4.1,5.5c1.2,2.3,2.1,5.1,2.8,8.3c0.7,3.3,1,7.1,1,11.6v7.8c0,4.5-0.4,8.4-1.1,11.7s-1.7,6.1-2.8,8.5
	c-1.2,2.3-2.6,4.3-4.1,5.8c-1.6,1.5-3.2,2.7-4.9,3.6c-1.7,0.9-3.5,1.5-5.3,1.8c-1.8,0.3-3.5,0.5-5.1,0.5c-1.8,0-3.7-0.2-5.6-0.5
	c-1.9-0.3-3.7-0.9-5.4-1.7c-1.7-0.8-3.4-2-4.9-3.5c-1.5-1.5-2.9-3.4-4-5.8c-1.1-2.3-2-5.2-2.7-8.5c-0.7-3.3-1-7.3-1-11.8V383.4z
	 M424.8,395c0,5.6,0.6,9.7,1.9,12.4s3.5,4,6.8,4c3.1,0,5.2-1.3,6.4-4c1.2-2.7,1.8-6.8,1.8-12.4v-14.2c0-5.6-0.6-9.8-1.8-12.5
	c-1.2-2.7-3.4-4-6.4-4c-3.2,0-5.5,1.3-6.8,4c-1.3,2.7-1.9,6.8-1.9,12.5V395z"/>
<path class="st1" d="M198.2,302.4c8.3-23.9,22-45.9,40.5-64.3c5.5-5.5,11.3-10.5,17.4-15.2l-78.9-108.6
	c-49,36.6-86.6,87.6-106.6,146.7L198.2,302.4z"/>
<path class="st1" d="M188.7,358.6c0-16.9,2.4-33.4,7.2-49.2L68.2,268c-8.9,28.6-13.7,59.1-13.7,90.7s4.8,62,13.7,90.7l127.7-41.5
	C191.1,392.1,188.7,375.5,188.7,358.6z"/>
<path class="st1" d="M529.7,358.6c0,16.9-2.4,33.4-7.2,49.2l127.7,41.5c8.9-28.6,13.7-59.1,13.7-90.7s-4.8-62-13.7-90.7l-127.7,41.5
	C527.3,325.2,529.7,341.7,529.7,358.6z"/>
<path class="st1" d="M520.3,414.9c-8.3,23.9-22,45.9-40.5,64.3c-5.5,5.5-11.3,10.5-17.4,15.2L541.3,603
	c49-36.6,86.6-87.6,106.6-146.7L520.3,414.9z"/>
<path class="st1" d="M238.6,479.2c-18.5-18.5-32.1-40.4-40.5-64.3L70.5,456.3c20,59.1,57.6,110.1,106.6,146.7L256,494.4
	C249.9,489.7,244.1,484.7,238.6,479.2z"/>
<path class="st1" d="M479.8,238.1c18.5,18.5,32.1,40.4,40.5,64.3L648,260.9c-20-59.1-57.6-110.1-106.6-146.7l-78.9,108.6
	C468.5,227.5,474.3,232.6,479.8,238.1z"/>
<path class="st1" d="M456.4,498.8c-27.3,19.1-59.6,29.6-93.5,30.3v134.3c64.2-0.8,123.6-21.4,172.4-56L456.4,498.8z"/>
<path class="st1" d="M355.5,529.1c-33.9-0.7-66.2-11.3-93.5-30.3l-78.9,108.6c48.8,34.6,108.2,55.2,172.4,56V529.1z"/>
<path class="st1" d="M262,218.5c27.3-19.1,59.6-29.6,93.5-30.3V53.9c-64.2,0.8-123.6,21.4-172.4,56L262,218.5z"/>
<path class="st1" d="M362.9,188.2c33.9,0.7,66.2,11.3,93.5,30.3l78.9-108.6c-48.8-34.6-108.2-55.2-172.4-56V188.2z"/>
</svg>
