<?xml version="1.0" encoding="utf-8"?>
<!-- Generator: Adobe Illustrator 28.0.0, SVG Export Plug-In . SVG Version: 6.00 Build 0)  -->
<svg version="1.1" id="Layer_1" xmlns:xodm="http://www.corel.com/coreldraw/odm/2003"
	 xmlns="http://www.w3.org/2000/svg" xmlns:xlink="http://www.w3.org/1999/xlink" x="0px" y="0px" viewBox="0 0 720 720"
	 style="enable-background:new 0 0 720 720;" xml:space="preserve">
<style type="text/css">
	.st0{opacity:0.5;}
</style>
<ellipse cx="600.8" cy="357.8" rx="81.1" ry="37.5"/>
<ellipse transform="matrix(0.809 -0.5878 0.5878 0.809 -20.9996 367.3203)" cx="554.7" cy="216" rx="81.1" ry="37.5"/>
<ellipse transform="matrix(0.309 -0.9511 0.9511 0.309 177.9169 501.529)" cx="434.1" cy="128.3" rx="81.1" ry="37.5"/>
<ellipse transform="matrix(0.9511 -0.309 0.309 0.9511 -25.7061 94.3457)" class="st0" cx="285" cy="128.3" rx="37.5" ry="81.1"/>
<ellipse transform="matrix(0.5878 -0.809 0.809 0.5878 -106.983 221.9843)" class="st0" cx="164.3" cy="216" rx="37.5" ry="81.1"/>
<ellipse cx="118.3" cy="357.8" rx="81.1" ry="37.5"/>
<ellipse transform="matrix(0.809 -0.5878 0.5878 0.809 -262.2832 192.0174)" cx="164.3" cy="499.6" rx="81.1" ry="37.5"/>
<ellipse transform="matrix(0.309 -0.9511 0.9511 0.309 -361.6098 676.8318)" cx="285" cy="587.3" rx="81.1" ry="37.5"/>
<ellipse transform="matrix(0.9511 -0.309 0.309 0.9511 -160.2305 162.8893)" cx="434.1" cy="587.3" rx="37.5" ry="81.1"/>
<ellipse transform="matrix(0.5878 -0.809 0.809 0.5878 -175.5266 654.7517)" cx="554.7" cy="499.6" rx="37.5" ry="81.1"/>
<path d="M251.2,378c0-2.9,0.3-5.5,0.9-7.7c0.6-2.2,1.5-4.2,2.6-5.9c1.1-1.7,2.4-3.2,3.9-4.4c1.5-1.2,3.1-2.3,4.9-3.2v-0.5
	c-1.3-0.7-2.6-1.6-3.9-2.6c-1.3-1-2.5-2.3-3.5-3.9c-1-1.5-1.9-3.3-2.6-5.4c-0.7-2.1-1-4.4-1-7.1v-7c0-3.2,0.4-6,1.2-8.4
	c0.8-2.4,1.8-4.4,3.1-6c1.3-1.7,2.7-3,4.4-4c1.7-1,3.4-1.8,5.1-2.4c1.8-0.6,3.5-1,5.3-1.2c1.8-0.2,3.4-0.3,4.8-0.3
	c1.5,0,3.1,0.1,4.9,0.3c1.7,0.2,3.5,0.6,5.3,1.2c1.8,0.6,3.5,1.4,5.1,2.4c1.6,1,3.1,2.4,4.4,4c1.3,1.6,2.3,3.6,3.1,6
	c0.8,2.4,1.2,5.1,1.2,8.4v7c0,2.7-0.3,5-1,7.1c-0.7,2.1-1.5,3.9-2.6,5.4c-1,1.5-2.2,2.8-3.5,3.9c-1.3,1-2.6,1.9-3.9,2.6v0.5
	c1.8,0.9,3.4,1.9,4.9,3.2c1.5,1.2,2.8,2.7,3.9,4.4c1.1,1.7,2,3.7,2.6,5.9c0.6,2.2,0.9,4.8,0.9,7.7v6.1c0,3.4-0.3,6.4-1,8.9
	s-1.7,4.8-2.9,6.6c-1.2,1.9-2.6,3.4-4.3,4.6c-1.6,1.2-3.4,2.2-5.3,2.9c-1.9,0.7-3.8,1.2-5.9,1.5c-2,0.3-4.1,0.4-6.1,0.4
	s-4-0.1-6-0.4c-2-0.3-4-0.8-5.8-1.5c-1.9-0.7-3.6-1.7-5.3-2.9c-1.6-1.2-3-2.7-4.2-4.6c-1.2-1.8-2.1-4-2.8-6.6c-0.7-2.6-1-5.5-1-8.9
	V378z M266.5,385.3c0,2.5,0.3,4.6,0.8,6.2c0.6,1.6,1.3,2.9,2.2,3.8s2,1.5,3.2,1.9c1.2,0.3,2.4,0.5,3.7,0.5s2.5-0.2,3.7-0.5
	c1.2-0.4,2.3-1,3.2-1.9s1.7-2.2,2.3-3.8c0.6-1.6,0.9-3.7,0.9-6.2v-10.9c0-2.2-0.2-4-0.7-5.5s-1.1-2.8-1.9-3.8c-0.8-1-1.8-1.7-3-2.2
	c-1.2-0.4-2.4-0.7-3.8-0.7h-1.5c-2.8,0-5.1,1-6.7,2.9c-1.7,2-2.5,5-2.5,9.3V385.3z M277.2,351.4c1.1,0,2.2-0.2,3.2-0.5
	c1-0.4,1.8-1,2.6-1.9c0.7-0.9,1.3-2.1,1.7-3.6c0.4-1.5,0.6-3.4,0.6-5.7v-8.2c0-4.1-0.7-7.2-2.1-9.3c-1.4-2.1-3.6-3.2-6.8-3.2
	c-3.1,0-5.4,1.1-6.7,3.3s-2,5.3-2,9.4v8.1c0,2.2,0.2,4.1,0.6,5.5c0.4,1.5,0.9,2.7,1.6,3.6c0.7,0.9,1.5,1.6,2.5,1.9
	c1,0.4,2.1,0.6,3.3,0.6H277.2z"/>
<path d="M312.8,337.3c0-4.3,0.4-8.1,1.2-11.2c0.8-3.2,1.8-5.8,3.1-8c1.3-2.2,2.8-3.9,4.5-5.2c1.7-1.3,3.5-2.3,5.3-3
	c1.8-0.7,3.6-1.2,5.4-1.4c1.8-0.2,3.5-0.3,5-0.3c1.4,0,3,0.1,4.8,0.3s3.5,0.7,5.3,1.3c1.8,0.7,3.5,1.7,5.2,3c1.7,1.3,3.2,3,4.5,5.2
	c1.3,2.2,2.3,4.8,3.1,8c0.8,3.2,1.2,7,1.2,11.4v41.9c0,4.3-0.4,8.1-1.2,11.2c-0.8,3.2-1.8,5.8-3.2,8c-1.3,2.2-2.8,4-4.5,5.4
	c-1.7,1.4-3.4,2.4-5.2,3.2c-1.8,0.8-3.6,1.3-5.3,1.5c-1.8,0.3-3.3,0.4-4.7,0.4c-1.5,0-3.2-0.1-5.1-0.4c-1.8-0.3-3.6-0.8-5.5-1.5
	c-1.8-0.8-3.6-1.8-5.3-3.2c-1.7-1.4-3.2-3.1-4.4-5.3c-1.3-2.2-2.3-4.9-3.1-8.1c-0.8-3.2-1.2-6.9-1.2-11.3V337.3z M328.2,385.5
	c0,4.1,0.7,7.1,2.2,8.9c1.5,1.9,3.8,2.8,6.8,2.8c3,0,5.2-0.9,6.7-2.8c1.5-1.9,2.2-4.8,2.2-8.9v-53.7c0-4.3-0.7-7.5-2.2-9.5
	c-1.5-2-3.7-3-6.7-3c-3.1,0-5.3,1-6.8,3c-1.5,2-2.2,5.1-2.2,9.5V385.5z"/>
<path d="M395.3,362.5c-2.2,0-4.4-0.3-6.6-0.9c-2.2-0.6-4.2-1.8-6-3.6c-1.8-1.8-3.3-4.4-4.4-7.7c-1.1-3.3-1.7-7.7-1.7-13V331
	c0-3.5,0.3-6.6,0.8-9.1c0.5-2.6,1.3-4.8,2.2-6.6c1-1.8,2-3.3,3.3-4.4c1.2-1.1,2.6-2,3.9-2.6c1.4-0.6,2.8-1,4.3-1.3
	c1.5-0.2,2.9-0.3,4.3-0.3c1.3,0,2.7,0.1,4.1,0.3c1.4,0.2,2.8,0.6,4.2,1.2c1.4,0.6,2.7,1.5,3.9,2.6c1.2,1.1,2.3,2.6,3.3,4.4
	c0.9,1.8,1.7,4,2.2,6.6c0.5,2.6,0.8,5.7,0.8,9.2v6.2c0,5.3-0.6,9.6-1.8,12.9c-1.2,3.3-2.7,5.9-4.6,7.7c-1.8,1.8-3.9,3-6,3.7
	C399.3,362.2,397.2,362.5,395.3,362.5z M395.4,353.2c2.4,0,4.1-1.1,5.1-3.2c1-2.1,1.5-5.4,1.5-9.8V329c0-4.5-0.5-7.8-1.5-9.9
	c-1-2.1-2.7-3.2-5.1-3.2c-2.6,0-4.3,1.1-5.4,3.2c-1,2.1-1.5,5.4-1.5,9.9v11.3c0,4.4,0.5,7.7,1.5,9.8
	C391.1,352.2,392.8,353.2,395.4,353.2z M430.5,307.8H441l-26.7,100.3h-10.6L430.5,307.8z M430.6,377.5c0-5.3,0.6-9.6,1.8-12.7
	c1.2-3.2,2.7-5.7,4.5-7.4c1.8-1.7,3.9-2.9,6.1-3.4c2.2-0.6,4.3-0.8,6.4-0.8c1.3,0,2.7,0.1,4.1,0.3c1.4,0.2,2.8,0.6,4.2,1.2
	c1.4,0.6,2.7,1.5,3.9,2.6c1.2,1.1,2.3,2.6,3.3,4.4c0.9,1.8,1.7,4,2.2,6.6c0.5,2.6,0.8,5.7,0.8,9.2v6.2c0,3.6-0.3,6.7-0.8,9.3
	c-0.6,2.6-1.3,4.9-2.3,6.7c-0.9,1.9-2,3.4-3.3,4.6c-1.2,1.2-2.5,2.1-3.9,2.8c-1.4,0.7-2.8,1.2-4.2,1.4c-1.4,0.2-2.8,0.4-4.1,0.4
	c-1.5,0-2.9-0.1-4.4-0.4c-1.5-0.3-2.9-0.7-4.3-1.4c-1.4-0.7-2.7-1.6-3.9-2.8c-1.2-1.2-2.3-2.7-3.2-4.6c-0.9-1.9-1.6-4.1-2.1-6.8
	c-0.5-2.7-0.8-5.8-0.8-9.4V377.5z M442.5,386.7c0,4.4,0.5,7.7,1.5,9.8c1,2.1,2.8,3.2,5.4,3.2c2.4,0,4.1-1.1,5.1-3.2
	c1-2.1,1.5-5.4,1.5-9.8v-11.3c0-4.5-0.5-7.8-1.5-9.9c-1-2.1-2.7-3.2-5.1-3.2c-2.6,0-4.3,1.1-5.4,3.2c-1,2.1-1.5,5.4-1.5,9.9V386.7z"
	/>
</svg>
