<?xml version="1.0" encoding="utf-8"?>
<!-- Generator: Adobe Illustrator 28.0.0, SVG Export Plug-In . SVG Version: 6.00 Build 0)  -->
<svg version="1.1" id="Layer_1" xmlns:xodm="http://www.corel.com/coreldraw/odm/2003"
	 xmlns="http://www.w3.org/2000/svg" xmlns:xlink="http://www.w3.org/1999/xlink" x="0px" y="0px" viewBox="0 0 720 720"
	 style="enable-background:new 0 0 720 720;" xml:space="preserve">
<style type="text/css">
	.st0{fill-rule:evenodd;clip-rule:evenodd;fill:#21B4F9;stroke:#21B4F9;stroke-miterlimit:10;}
	.st1{fill-rule:evenodd;clip-rule:evenodd;fill:#D5EFFD;stroke:#D5EFFD;stroke-miterlimit:10;}
	.st2{fill:#21B4F9;stroke:#21B4F9;stroke-miterlimit:10;}
</style>
<path class="st0" d="M360,151.1c115.3,0,208.7,93.4,208.9,208.6h96C664.7,191.5,528.3,55.1,360,55.1S55.3,191.5,55.1,359.7h96
	C151.3,244.5,244.7,151.1,360,151.1z"/>
<path class="st1" d="M360,568.9c-115.4,0-208.9-93.5-208.9-208.9h-96c0,168.4,136.5,304.9,304.9,304.9S664.9,528.4,664.9,360h-96
	C568.9,475.4,475.4,568.9,360,568.9z"/>
<path class="st2" d="M412.5,345.9c-3.6-3.7-5.4-8.8-5.4-15.3v-10.2c0-6.6,1.8-11.7,5.4-15.3s8.6-5.5,15.1-5.5
	c6.6,0,11.6,1.8,15.2,5.5s5.3,8.8,5.3,15.5v10c0,6.6-1.8,11.7-5.4,15.4c-3.6,3.6-8.6,5.5-15.1,5.5
	C421.1,351.3,416.1,349.5,412.5,345.9z M480.1,300.7h17.3l-63,118.3H417L480.1,300.7z M431.2,335c0.8-1,1.3-2.5,1.3-4.4v-10.5
	c0-1.8-0.4-3.2-1.3-4.2c-0.8-1-2-1.5-3.6-1.5s-2.8,0.5-3.6,1.5c-0.8,1-1.3,2.4-1.3,4.3v10.4c0,2,0.4,3.4,1.3,4.4
	c0.8,1,2,1.5,3.6,1.5C429.2,336.5,430.4,336,431.2,335z M471.3,414.7c-3.6-3.7-5.4-8.8-5.4-15.3v-10.2c0-6.6,1.8-11.7,5.4-15.3
	c3.6-3.7,8.6-5.5,15.1-5.5c6.6,0,11.6,1.8,15.2,5.5s5.3,8.8,5.3,15.5v10c0,6.6-1.8,11.7-5.4,15.4s-8.6,5.5-15.1,5.5
	C479.9,420.2,474.9,418.3,471.3,414.7z M490.1,403.8c0.8-1,1.3-2.5,1.3-4.4v-10.5c0-1.8-0.4-3.2-1.3-4.2c-0.8-1-2-1.5-3.6-1.5
	s-2.8,0.5-3.6,1.5c-0.8,1-1.3,2.4-1.3,4.3v10.4c0,2,0.4,3.4,1.3,4.4c0.8,1,2,1.5,3.6,1.5C488,405.3,489.2,404.8,490.1,403.8z"/>
<path class="st2" d="M241.3,416.4c-4.9-2.5-8.8-6.3-11.8-11.2c-3-4.9-4.9-10.8-5.6-17.5v-0.1h19.4v0.1c0.5,4.3,2,7.7,4.6,10.1
	c2.5,2.4,5.9,3.6,10,3.6c4.6,0,8.2-1.5,10.7-4.6c2.5-3,3.8-7.3,3.8-12.9V374c0-5.5-1.2-9.8-3.6-12.9c-2.4-3-5.8-4.6-10.2-4.6
	c-3,0-5.8,0.8-8.3,2.4s-4.4,3.9-5.8,6.8h-18v-65.2h61.9v18.6H246v23.8c1.8-1.7,4.1-3,6.9-3.9c2.7-0.9,5.5-1.4,8.3-1.4
	c6.5,0,12,1.4,16.6,4.2c4.6,2.8,8.1,6.9,10.5,12.4c2.4,5.4,3.6,12,3.6,19.6v9.9c0,7.6-1.3,14.2-4,19.6s-6.6,9.6-11.7,12.4
	S265,420,257.8,420C251.6,420.2,246.1,418.9,241.3,416.4z"/>
<path class="st2" d="M323.5,411.3c-5.9-5.9-8.8-14.2-8.8-24.7v-53.8c0-10.6,3-18.9,8.9-24.8s14.5-8.8,25.7-8.8
	c11.3,0,19.9,2.9,25.8,8.8s8.8,14.1,8.8,24.8v53.8c0,10.6-3,18.9-8.9,24.8s-14.5,8.8-25.7,8.8C337.9,420.2,329.4,417.2,323.5,411.3z
	 M360.7,397c2.4-3.1,3.7-7.5,3.7-13.2v-48.1c0-5.7-1.2-10.2-3.7-13.2c-2.4-3.1-6.3-4.6-11.5-4.6s-9,1.5-11.5,4.6
	c-2.4,3.1-3.7,7.5-3.7,13.2v48.1c0,5.8,1.2,10.2,3.7,13.2s6.3,4.6,11.5,4.6C354.4,401.5,358.2,400,360.7,397z"/>
</svg>
