<?xml version="1.0" encoding="utf-8"?>
<!-- Generator: Adobe Illustrator 28.0.0, SVG Export Plug-In . SVG Version: 6.00 Build 0)  -->
<svg version="1.1" id="Layer_1" xmlns:xodm="http://www.corel.com/coreldraw/odm/2003"
	 xmlns="http://www.w3.org/2000/svg" xmlns:xlink="http://www.w3.org/1999/xlink" x="0px" y="0px" viewBox="0 0 720 720"
	 style="enable-background:new 0 0 720 720;" xml:space="preserve">
<style type="text/css">
	.st0{fill:none;stroke:#000000;stroke-width:3.6572;stroke-miterlimit:10;}
	.st1{opacity:0.5;}
</style>
<polygon class="st0" points="611.4,417.2 275.8,417.2 327.7,364.1 663.3,364.1 "/>
<path d="M515.2,313.9l-12.7-12.7H353.9v-0.1H177.3l-3.9,3.9l-14.5,14.4l-1.9,1.9l1.9,1.9l11.6,11.6l-62.7,62.7h-27l-2.7,2.7
	L63.4,415l-3.9,3.9h194.9l3.9-3.9l64.2-64.2h229.6L515.2,313.9z M321.4,348.1l-2.7,2.7L254.5,415H67.3l14.6-14.6h27l63.5-63.5
	l1.9-1.9l-13.5-13.5l16.4-16.4h175.7l6.2,8.9h152.2l34.2,34.2H321.4z"/>
<polygon points="106.7,388.4 163.5,331.6 149.1,330.3 92.3,387.1 "/>
<polygon points="324.2,403 345.3,402.6 367.6,378.2 346.5,378.7 "/>
<polygon points="355.7,403 376.8,402.6 399.1,378.2 378,378.7 "/>
<polygon points="387.2,403 408.3,402.6 430.6,378.2 409.6,378.7 "/>
<polygon class="st1" points="418.8,403 439.8,402.6 462.1,378.2 441.1,378.7 "/>
<polygon class="st1" points="450.3,403 471.3,402.6 493.7,378.2 472.6,378.7 "/>
<polygon class="st1" points="481.8,403 502.8,402.6 525.2,378.2 504.1,378.7 "/>
<polygon class="st1" points="513.3,403 534.4,402.6 556.7,378.2 535.6,378.7 "/>
<polygon class="st1" points="544.8,403 565.9,402.6 588.2,378.2 567.1,378.7 "/>
<polygon class="st1" points="576.3,403 597.4,402.6 619.7,378.2 598.6,378.7 "/>
</svg>
