<?xml version="1.0" encoding="utf-8"?>
<!-- Generator: Adobe Illustrator 28.0.0, SVG Export Plug-In . SVG Version: 6.00 Build 0)  -->
<svg version="1.1" id="Layer_1" xmlns:xodm="http://www.corel.com/coreldraw/odm/2003"
	 xmlns="http://www.w3.org/2000/svg" xmlns:xlink="http://www.w3.org/1999/xlink" x="0px" y="0px" viewBox="0 0 720 720"
	 style="enable-background:new 0 0 720 720;" xml:space="preserve">
<style type="text/css">
	.st0{fill:#71CCD8;}
	.st1{fill:#F7B34C;}
	.st2{fill:#F6B24A;}
</style>
<g>
	<path class="st0" d="M686.5,412.2H40V299.8h646.5V412.2z M42.9,409.3h640.6V302.7H42.9V409.3z"/>
</g>
<g>
	<rect x="49" y="307.7" class="st1" width="628.7" height="96"/>
</g>
<g>
	<path class="st2" d="M688.6,285.7H37.9v-42.9l16.3-16.6H501l33.8-34h104.5l49.2,49.6V285.7z M45,278.6h636.5v-33.8l-45.1-45.4
		h-98.6l-33.8,34H57.2L45,245.7V278.6z"/>
</g>
<g>
	<polygon class="st1" points="517.4,192.2 496.3,213.4 128,213.4 149,192.2 	"/>
</g>
<polygon class="st1" points="132,192.2 111,213.4 64.9,213.4 85.9,192.2 "/>
<rect x="616.4" y="256.3" class="st1" width="16.2" height="16.4"/>
<rect x="638.2" y="256.3" class="st1" width="16.2" height="16.4"/>
<rect x="660" y="256.3" class="st1" width="16.2" height="16.4"/>
<g>
	<path class="st2" d="M191.7,519.7H87.2l-49.3-49.6v-43.8h650.7v43l-16.3,16.5H225.4l-15.2,15.4L191.7,519.7z M90.1,512.6h98.6
		l16.4-16.5l17.3-17.5h446.8l12.2-12.3v-32.9H45v33.8L90.1,512.6z"/>
</g>
<g>
	<polygon class="st1" points="209.1,519.8 230.2,498.6 598.5,498.6 577.4,519.8 	"/>
</g>
<polygon class="st1" points="594.4,519.8 615.5,498.6 661.6,498.6 640.5,519.8 "/>
<rect x="93.9" y="439.3" class="st1" width="16.2" height="16.4"/>
<rect x="72.1" y="439.3" class="st1" width="16.2" height="16.4"/>
<rect x="50.3" y="439.3" class="st1" width="16.2" height="16.4"/>
<g>
	<g>
		<path class="st2" d="M688.6,414.3H37.9V297.7h650.7V414.3z M45,407.2h636.5V304.8H45V407.2z"/>
	</g>
</g>
</svg>
