<?xml version="1.0" encoding="utf-8"?>
<!-- Generator: Adobe Illustrator 28.0.0, SVG Export Plug-In . SVG Version: 6.00 Build 0)  -->
<svg version="1.1" id="Layer_1" xmlns:xodm="http://www.corel.com/coreldraw/odm/2003"
	 xmlns="http://www.w3.org/2000/svg" xmlns:xlink="http://www.w3.org/1999/xlink" x="0px" y="0px" viewBox="0 0 720 720"
	 style="enable-background:new 0 0 720 720;" xml:space="preserve">
<path d="M653,314.5H70c-5.6,0-10.2,4.6-10.2,10.2v69.5c0,5.7,4.6,10.3,10.2,10.3h583c5.6,0,10.3-4.6,10.3-10.3v-69.5
	C663.3,319.1,658.7,314.5,653,314.5z M659.8,394.2c0,3.7-3.1,6.8-6.8,6.8H70c-3.7,0-6.7-3.1-6.7-6.8v-69.5c0-3.7,3-6.7,6.7-6.7h583
	c3.7,0,6.8,3,6.8,6.7V394.2z"/>
<g>
	<polygon points="175.4,318 170.5,318 167,314.5 171.9,314.5 	"/>
</g>
<g>
	<polygon points="556.1,314.5 552.6,318 547.7,318 551.2,314.5 	"/>
</g>
<polygon points="552.6,318 544.1,326.5 179,326.5 170.5,318 175.4,318 180.4,323 542.7,323 547.7,318 "/>
<polygon points="542.6,396 180.4,396 175.4,401 170.4,401 179,392.5 539.2,392.5 "/>
<polygon points="175.4,401 171.9,404.5 167,404.5 170.4,401 "/>
<g>
	<polygon points="556.1,404.5 551.2,404.5 547.7,401 552.6,401 	"/>
</g>
<g>
	<polygon points="552.6,401 547.7,401 542.6,396 539.2,392.5 544.1,392.5 	"/>
</g>
</svg>
