<?xml version="1.0" encoding="utf-8"?>
<!-- Generator: Adobe Illustrator 28.0.0, SVG Export Plug-In . SVG Version: 6.00 Build 0)  -->
<svg version="1.1" id="Layer_1" xmlns:xodm="http://www.corel.com/coreldraw/odm/2003"
	 xmlns="http://www.w3.org/2000/svg" xmlns:xlink="http://www.w3.org/1999/xlink" x="0px" y="0px" viewBox="0 0 720 720"
	 style="enable-background:new 0 0 720 720;" xml:space="preserve">
<style type="text/css">
	.st0{fill:#C12026;}
	.st1{opacity:0.5;fill:#C12026;}
</style>
<path class="st0" d="M248.2,411.8h14.5v-85.6L247.2,340l-8.2-9.6l28.5-29.7h14.2l-0.1,0.1l0.1-0.1v111.1h14.5v14.3h-47.9V411.8z"/>
<path class="st0" d="M305.8,336.5c0-5.5,0.5-10.2,1.5-14.2c1-4,2.3-7.3,4-10.1c1.6-2.7,3.5-4.9,5.7-6.6c2.2-1.7,4.4-2.9,6.7-3.9
	c2.3-0.9,4.6-1.5,6.8-1.8c2.3-0.3,4.4-0.4,6.3-0.4c1.8,0,3.8,0.1,6.1,0.4s4.5,0.8,6.8,1.7c2.3,0.9,4.5,2.1,6.6,3.7
	c2.1,1.6,4,3.8,5.7,6.6c1.6,2.7,3,6.1,4,10.1c1,4,1.5,8.8,1.5,14.4v53c0,5.5-0.5,10.2-1.5,14.2c-1,4-2.3,7.4-4,10.2
	c-1.7,2.8-3.6,5.1-5.7,6.8c-2.2,1.7-4.4,3.1-6.6,4c-2.3,1-4.5,1.6-6.7,1.9c-2.2,0.3-4.2,0.5-6,0.5c-2,0-4.1-0.2-6.4-0.5
	c-2.3-0.3-4.6-1-6.9-1.9c-2.3-1-4.5-2.3-6.7-4c-2.1-1.7-4-4-5.6-6.8c-1.6-2.8-2.9-6.2-3.9-10.2c-1-4-1.5-8.8-1.5-14.3V336.5z
	 M325.2,397.6c0,5.2,0.9,9,2.8,11.3c1.9,2.4,4.8,3.5,8.6,3.5c3.8,0,6.6-1.2,8.4-3.5c1.9-2.4,2.8-6.1,2.8-11.3v-68
	c0-5.5-0.9-9.5-2.8-12c-1.9-2.5-4.7-3.7-8.4-3.7c-3.9,0-6.7,1.2-8.6,3.7c-1.9,2.5-2.8,6.5-2.8,12V397.6z"/>
<path class="st0" d="M410.2,368.4c-2.8,0-5.6-0.4-8.4-1.2c-2.8-0.8-5.4-2.3-7.6-4.6c-2.3-2.3-4.1-5.5-5.5-9.7
	c-1.4-4.2-2.1-9.7-2.1-16.5v-7.9c0-4.5,0.3-8.3,1-11.6c0.7-3.3,1.6-6,2.8-8.3c1.2-2.3,2.6-4.2,4.2-5.6s3.2-2.5,5-3.3
	c1.8-0.8,3.6-1.3,5.4-1.6c1.8-0.3,3.6-0.4,5.4-0.4c1.7,0,3.4,0.1,5.2,0.4c1.8,0.3,3.6,0.8,5.3,1.6c1.7,0.8,3.4,1.9,5,3.3
	c1.6,1.4,2.9,3.2,4.1,5.5c1.2,2.3,2.1,5.1,2.8,8.4s1,7.2,1,11.7v7.9c0,6.7-0.8,12.2-2.3,16.3c-1.5,4.2-3.4,7.4-5.8,9.7
	c-2.3,2.3-4.9,3.9-7.6,4.7C415.2,368,412.6,368.4,410.2,368.4z M410.3,356.7c3.1,0,5.2-1.3,6.5-4s1.8-6.8,1.8-12.5V326
	c0-5.7-0.6-9.9-1.8-12.6c-1.2-2.7-3.4-4-6.5-4c-3.2,0-5.5,1.3-6.8,4c-1.3,2.7-1.9,6.9-1.9,12.6v14.3c0,5.6,0.6,9.8,1.9,12.5
	C404.8,355.4,407.1,356.7,410.3,356.7z M454.7,299.3H468l-33.7,126.9h-13.4L454.7,299.3z M454.8,387.4c0-6.7,0.7-12.1,2.2-16.1
	c1.5-4,3.4-7.2,5.7-9.3c2.3-2.2,4.9-3.6,7.7-4.3c2.8-0.7,5.5-1.1,8.1-1.1c1.7,0,3.4,0.1,5.2,0.4c1.8,0.3,3.6,0.8,5.3,1.6
	c1.7,0.8,3.4,1.9,5,3.3c1.6,1.4,2.9,3.2,4.1,5.5c1.2,2.3,2.1,5.1,2.8,8.4c0.7,3.3,1,7.2,1,11.7v7.9c0,4.5-0.4,8.4-1.1,11.8
	c-0.7,3.3-1.7,6.2-2.9,8.5c-1.2,2.4-2.6,4.3-4.1,5.8c-1.6,1.5-3.2,2.7-5,3.6c-1.7,0.9-3.5,1.5-5.3,1.8c-1.8,0.3-3.5,0.5-5.1,0.5
	c-1.9,0-3.7-0.2-5.6-0.5c-1.9-0.3-3.7-0.9-5.4-1.7c-1.7-0.8-3.4-2-4.9-3.5c-1.5-1.5-2.9-3.5-4-5.8c-1.1-2.4-2-5.2-2.7-8.6
	c-0.7-3.4-1-7.3-1-11.9V387.4z M469.9,399.1c0,5.6,0.6,9.8,1.9,12.5c1.3,2.7,3.6,4,6.8,4c3.1,0,5.2-1.3,6.5-4s1.8-6.8,1.8-12.5
	v-14.3c0-5.7-0.6-9.9-1.8-12.6c-1.2-2.7-3.4-4-6.5-4c-3.2,0-5.5,1.3-6.8,4c-1.3,2.7-1.9,6.9-1.9,12.6V399.1z"/>
<path class="st1" d="M198.5,306.1c8.4-24,22.1-46,40.6-64.5c5.5-5.5,11.3-10.6,17.4-15.2l-79.1-108.9
	c-49.1,36.7-86.9,87.8-106.9,147L198.5,306.1z"/>
<path class="st1" d="M189,362.5c0-16.9,2.5-33.5,7.2-49.3l-128-41.6c-8.9,28.7-13.8,59.2-13.8,90.9s4.8,62.2,13.8,90.9l128-41.6
	C191.5,396,189,379.4,189,362.5z"/>
<path class="st1" d="M531,362.5c0,16.9-2.5,33.5-7.2,49.3l128,41.6c8.9-28.7,13.8-59.2,13.8-90.9s-4.8-62.2-13.8-90.9l-128,41.6
	C528.5,329,531,345.5,531,362.5z"/>
<path class="st1" d="M521.5,418.8c-8.4,24-22.1,46-40.6,64.5c-5.5,5.5-11.3,10.6-17.4,15.2l79.1,108.9
	c49.1-36.7,86.9-87.8,106.9-147L521.5,418.8z"/>
<path class="st1" d="M239.1,483.4c-18.5-18.5-32.2-40.5-40.6-64.5l-128,41.6c20,59.3,57.8,110.4,106.9,147l79.1-108.9
	C250.4,493.9,244.6,488.9,239.1,483.4z"/>
<path class="st1" d="M480.9,241.6c18.5,18.5,32.2,40.5,40.6,64.5l128-41.6c-20-59.3-57.8-110.4-106.9-147l-79.1,108.9
	C469.6,231,475.4,236.1,480.9,241.6z"/>
<path class="st1" d="M457.5,503c-27.4,19.1-59.8,29.7-93.8,30.4V668c64.4-0.8,124-21.4,172.9-56.1L457.5,503z"/>
<path class="st1" d="M356.3,533.4c-34-0.7-66.4-11.3-93.8-30.4l-79.1,108.9c48.9,34.7,108.5,55.4,172.9,56.1V533.4z"/>
<path class="st1" d="M262.5,222c27.4-19.1,59.8-29.7,93.8-30.4V56.9c-64.4,0.8-124,21.4-172.9,56.1L262.5,222z"/>
<path class="st0" d="M363.7,191.6c34,0.7,66.4,11.3,93.8,30.4l79.1-108.9c-48.9-34.7-108.5-55.4-172.9-56.1V191.6z"/>
</svg>
