<?xml version="1.0" encoding="utf-8"?>
<!-- Generator: Adobe Illustrator 28.0.0, SVG Export Plug-In . SVG Version: 6.00 Build 0)  -->
<svg version="1.1" id="Layer_1" xmlns:xodm="http://www.corel.com/coreldraw/odm/2003"
	 xmlns="http://www.w3.org/2000/svg" xmlns:xlink="http://www.w3.org/1999/xlink" x="0px" y="0px" viewBox="0 0 720 720"
	 style="enable-background:new 0 0 720 720;" xml:space="preserve">
<style type="text/css">
	.st0{fill-rule:evenodd;clip-rule:evenodd;fill:#D5EFFD;stroke:#D5EFFD;stroke-miterlimit:10;}
	.st1{fill:#21B4F9;stroke:#21B4F9;stroke-miterlimit:10;}
</style>
<path class="st0" d="M359.8,55.1C191.5,55.1,55,191.6,55,360s136.5,304.9,304.9,304.9S664.8,528.4,664.8,360S528.2,55.1,359.8,55.1z
	 M359.8,568.9c-115.4,0-208.9-93.5-208.9-208.9s93.6-208.9,208.9-208.9S568.6,244.6,568.6,360S475.2,568.9,359.8,568.9z"/>
<path class="st1" d="M569,360.8l96,0.1c-0.1-67-21.9-129-58.7-179.2l-77.6,56.4C554,272.5,568.9,314.9,569,360.8z"/>
<path class="st1" d="M269.9,414.4h-19.4v-96.2l-15.6,7.9v-20.4l17.1-9.6h17.8v118.3H269.9z"/>
<path class="st1" d="M303.9,406.8c-5.9-5.9-8.8-14.2-8.8-24.7v-53.8c0-10.6,3-18.9,8.9-24.8s14.5-8.8,25.7-8.8
	c11.3,0,19.9,2.9,25.8,8.8s8.8,14.1,8.8,24.8v53.8c0,10.6-3,18.9-8.9,24.8s-14.5,8.8-25.7,8.8C318.4,415.6,309.8,412.7,303.9,406.8z
	 M341.1,392.4c2.4-3.1,3.7-7.5,3.7-13.2v-48.1c0-5.7-1.2-10.2-3.7-13.2c-2.4-3.1-6.3-4.6-11.5-4.6s-9,1.5-11.5,4.6
	c-2.4,3.1-3.7,7.5-3.7,13.2v48.1c0,5.8,1.2,10.2,3.7,13.2s6.3,4.6,11.5,4.6C334.9,397,338.7,395.5,341.1,392.4z"/>
<path class="st1" d="M392.2,346.5c-3.6-3.7-5.4-8.8-5.4-15.3V321c0-6.6,1.8-11.7,5.4-15.3s8.6-5.5,15.1-5.5c6.6,0,11.6,1.8,15.2,5.5
	s5.3,8.8,5.3,15.5v10c0,6.6-1.8,11.7-5.4,15.4c-3.6,3.6-8.6,5.5-15.1,5.5C400.8,351.9,395.8,350.1,392.2,346.5z M459.8,301.3H477
	l-63,118.3h-17.4L459.8,301.3z M410.9,335.6c0.8-1,1.3-2.5,1.3-4.4v-10.5c0-1.8-0.4-3.2-1.3-4.2c-0.8-1-2-1.5-3.6-1.5
	s-2.8,0.5-3.6,1.5c-0.8,1-1.3,2.4-1.3,4.3v10.4c0,2,0.4,3.4,1.3,4.4c0.8,1,2,1.5,3.6,1.5C408.9,337.1,410.1,336.6,410.9,335.6z
	 M451,415.3c-3.6-3.7-5.4-8.8-5.4-15.3v-10.2c0-6.6,1.8-11.7,5.4-15.3c3.6-3.7,8.6-5.5,15.1-5.5c6.6,0,11.6,1.8,15.2,5.5
	s5.3,8.8,5.3,15.5v10c0,6.6-1.8,11.7-5.4,15.4s-8.6,5.5-15.1,5.5C459.6,420.8,454.6,418.9,451,415.3z M469.8,404.4
	c0.8-1,1.3-2.5,1.3-4.4v-10.5c0-1.8-0.4-3.2-1.3-4.2c-0.8-1-2-1.5-3.6-1.5s-2.8,0.5-3.6,1.5c-0.8,1-1.3,2.4-1.3,4.3V400
	c0,2,0.4,3.4,1.3,4.4c0.8,1,2,1.5,3.6,1.5C467.7,405.9,468.9,405.4,469.8,404.4z"/>
</svg>
