<?xml version="1.0" encoding="utf-8"?>
<!-- Generator: Adobe Illustrator 28.0.0, SVG Export Plug-In . SVG Version: 6.00 Build 0)  -->
<svg version="1.1" id="Layer_1" xmlns:xodm="http://www.corel.com/coreldraw/odm/2003"
	 xmlns="http://www.w3.org/2000/svg" xmlns:xlink="http://www.w3.org/1999/xlink" x="0px" y="0px" viewBox="0 0 720 720"
	 style="enable-background:new 0 0 720 720;" xml:space="preserve">
<style type="text/css">
	.st0{fill:#C10C0C;}
	.st1{fill:#FFFFFF;}
</style>
<polygon points="358.3,606.3 642.7,113.7 73.8,113.7 "/>
<g>
	<g>
		<polygon class="st0" points="642.7,113.7 619.5,154.1 599.3,154.1 622.7,113.7 		"/>
	</g>
	<g>
		<polygon class="st0" points="604.6,113.7 581.2,154.1 561.1,154.1 584.4,113.7 		"/>
	</g>
	<g>
		<polygon class="st0" points="566.4,113.7 543,154.1 522.8,154.1 546.2,113.7 		"/>
	</g>
	<g>
		<polygon class="st0" points="528.2,113.7 504.8,154.1 484.7,154.1 508,113.7 		"/>
	</g>
	<g>
		<polygon class="st0" points="489.9,113.7 466.6,154.1 446.4,154.1 469.8,113.7 		"/>
	</g>
	<g>
		<polygon class="st0" points="451.8,113.7 428.3,154.1 408.2,154.1 431.5,113.7 		"/>
	</g>
	<g>
		<polygon class="st0" points="413.5,113.7 390.2,154.1 370,154.1 393.4,113.7 		"/>
	</g>
	<g>
		<polygon class="st0" points="375.3,113.7 351.9,154.1 331.8,154.1 355.1,113.7 		"/>
	</g>
	<g>
		<polygon class="st0" points="337.1,113.7 313.7,154.1 293.5,154.1 316.9,113.7 		"/>
	</g>
	<g>
		<polygon class="st0" points="298.9,113.7 275.5,154.1 255.4,154.1 278.7,113.7 		"/>
	</g>
	<g>
		<polygon class="st0" points="260.6,113.7 237.3,154.1 217.1,154.1 240.5,113.7 		"/>
	</g>
	<polygon class="st0" points="222.5,113.7 199,154.1 178.9,154.1 202.2,113.7 	"/>
	<polygon class="st0" points="184.2,113.7 160.9,154.1 140.7,154.1 164.1,113.7 	"/>
	<polygon class="st0" points="146,113.7 125.5,149.1 122.6,154.1 102.5,154.1 105.3,149.1 125.8,113.7 	"/>
	<polygon class="st0" points="107.8,113.7 90.8,143.1 80.7,125.7 87.6,113.7 	"/>
</g>
<path class="st1" d="M175.1,239.7v-49.4h34l6.2,6.2v12.4l-6.2,6.2l6.2,6.2v12.3l-6.2,6.2H175.1z M187.5,202.7v6.2H203v-6.2H187.5z
	 M187.5,221.2v6.1H203v-6.1H187.5z"/>
<path class="st1" d="M233.7,190.4v49.4h-12.4v-49.4H233.7z"/>
<path class="st1" d="M245.1,239.8l-6.2-6.2v-37.1l6.2-6.2h27.8l6.2,6.2v37.1l-6.2,6.2H245.1z M251.3,202.8v24.7h15.4v-24.7H251.3z"
	/>
<path class="st1" d="M297.4,221.2v18.6H285v-49.4h12.4v18.5h15.4v-18.5h12.4v49.4h-12.4v-18.6H297.4z"/>
<path class="st1" d="M348.8,207.4l-10.2,32.4h-12l15.5-49.4h13.3l15.5,49.4h-12L348.8,207.4z"/>
<path class="st1" d="M371.9,239.8l21.1-37.1h-21.1v-12.4H412l-21.1,37.1H412v12.4H371.9z"/>
<path class="st1" d="M434,207.4l-10.2,32.4h-12l15.5-49.4h13.3l15.5,49.4h-12L434,207.4z"/>
<path class="st1" d="M471.5,221.2v18.6h-12.4v-49.4h34l6.2,6.2v18.5l-6.2,6.2h-4.6l10.8,18.6h-12.4l-10.8-18.6H471.5z M471.5,202.8
	v6.1h15.4v-6.1H471.5z"/>
<path class="st1" d="M504.7,239.7v-49.4h34l6.2,6.2v37.1l-6.2,6.2H504.7z M517,202.7v24.7h15.5v-24.7H517z"/>
</svg>
