<?xml version="1.0" encoding="utf-8"?>
<!-- Generator: Adobe Illustrator 28.0.0, SVG Export Plug-In . SVG Version: 6.00 Build 0)  -->
<svg version="1.1" id="Layer_1" xmlns:xodm="http://www.corel.com/coreldraw/odm/2003"
	 xmlns="http://www.w3.org/2000/svg" xmlns:xlink="http://www.w3.org/1999/xlink" x="0px" y="0px" viewBox="0 0 720 720"
	 style="enable-background:new 0 0 720 720;" xml:space="preserve">
<style type="text/css">
	.st0{fill:none;stroke:#000000;stroke-width:14.8764;stroke-miterlimit:10;}
	.st1{fill:none;}
</style>
<polygon class="st0" points="568.7,510.6 568.7,267 357.8,145.2 146.9,267 146.9,510.6 357.8,632.4 "/>
<polygon points="345.7,58.3 345.7,363.9 302.8,290.3 302.8,132.1 "/>
<polygon points="412.8,132.1 412.8,290.3 369.9,363.9 369.9,58.3 "/>
<polygon points="342.3,411.7 300,485.7 229.2,526.5 221,531.2 220.9,531.2 163,564.7 77.7,564.6 178.1,506.5 186.4,501.8 "/>
<polygon points="650.1,543.6 549.8,485.7 541.3,480.8 385.5,390.8 470.6,390.4 541.3,431.2 549.8,436.1 607.6,469.6 "/>
<polygon points="638,564.6 552.6,564.7 494.8,531.2 494.7,531.2 486.4,526.5 415.6,485.7 373.3,411.7 529.1,501.8 537.5,506.5 "/>
<path d="M418.5,496.9c-17.9,10.1-38.7,15.9-60.7,15.9s-42.7-5.8-60.7-15.9l-5.7,9.9c19.6,11,42.3,17.3,66.3,17.3s46.7-6.3,66.3-17.3
	L418.5,496.9z M288.8,272.4c-39.2,23.4-65.8,66-66.3,114.7h11.3c0.6-44.6,24.8-83.6,60.7-105L288.8,272.4z M426.9,272.4l-5.7,9.8
	c35.8,21.4,60.1,60.4,60.7,105h11.3C492.6,338.4,466.1,295.8,426.9,272.4z"/>
<line class="st1" x1="297.2" y1="496.9" x2="291.5" y2="506.8"/>
<line class="st1" x1="233.8" y1="387.2" x2="222.4" y2="387.2"/>
<line class="st1" x1="297.2" y1="496.9" x2="291.5" y2="506.8"/>
<polygon points="179.1,227.5 129.6,256.1 129.6,317.2 126.4,317.2 126.4,254.2 129.6,252.3 177.5,224.8 "/>
<polygon points="542.4,227 591.9,255.6 591.9,316.7 595.1,316.7 595.1,253.7 591.9,251.9 544,224.3 "/>
<polygon points="407.4,626.3 357.8,655 304.9,624.4 303.3,627.1 357.9,658.7 361.1,656.8 408.9,629.1 "/>
<path d="M412.8,198.9v9.8l34.1,19.7l0.2,32.2l62,40.6l0.1,0.1l4.1,74l27.9,16.3v39.6l8.5,4.9V277.9L412.8,198.9z M165.9,277.9v158.2
	l8.4-4.8v-39.7l28-16.3l4.1-74l0.1-0.1l62-40.6l0.2-32.2l34.1-19.7v-9.8L165.9,277.9z M357.8,167.2l-12.1,7v9.8l12.1-7l12.1,7v-9.8
	L357.8,167.2z M486.4,526.5l-34.2,19.7l-28-16L358,563.6h-0.1l-66.2-33.4l-28.1,16l-34.2-19.7l-8.3,4.8l136.8,79.1l136.8-79.1
	L486.4,526.5z M541.3,480.8v13.9l-12.1,7l8.4,4.8l12.2-7v-13.8L541.3,480.8z M174.3,494.7v-13.9l-8.4,4.9v13.8l12.2,7l8.3-4.8
	L174.3,494.7z"/>
<polygon points="330.1,390.8 174.3,480.8 165.9,485.7 65.5,543.6 108,469.6 165.9,436.1 174.3,431.3 245,390.4 "/>
</svg>
