<?xml version="1.0" encoding="utf-8"?>
<!-- Generator: Adobe Illustrator 28.0.0, SVG Export Plug-In . SVG Version: 6.00 Build 0)  -->
<svg version="1.1" id="Layer_1" xmlns:xodm="http://www.corel.com/coreldraw/odm/2003"
	 xmlns="http://www.w3.org/2000/svg" xmlns:xlink="http://www.w3.org/1999/xlink" x="0px" y="0px" viewBox="0 0 720 720"
	 style="enable-background:new 0 0 720 720;" xml:space="preserve">
<path d="M590.8,402.2l0.3-45.8l24-13.8V233.9l-94.1-54.3l-24,13.8l-39.8-22.6v-28.1l-97.6-56.4l-97.6,56.4v28.1L222,193.4l-24-13.8
	l-94.1,54.3v108.7l24,13.8l0.4,45.8l-24.3,14.1V529l97.6,56.4l24.3-14.1l39.4,23.2v27.6l94.1,54.3l94.1-54.3v-27.6l39.5-23.2
	l24.3,14.1L615,529h0.1V416.3L590.8,402.2z M578.3,507.8l-70.8,40.9l-54,31L359.4,634l-94.1-54.3l-54-31l-70.7-40.9l-0.1-81.7
	l0.1-62.3V255.1l94.1-54.3l53.8-31.3l70.8-40.8l70.8,40.8l53.8,31.3l94.1,54.3v108.7l0.1,62.3V507.8z"/>
<g>
	<polygon points="457.1,216.3 457.1,312.6 434.2,325.6 434.2,229.5 359.4,186.3 284.6,229.5 284.6,325.6 261.8,312.6 261.8,216.3 
		359.3,160.2 359.6,160.2 	"/>
	<polygon points="359.6,160.1 359.6,160.2 359.4,160.2 	"/>
</g>
<g>
	<line x1="288.8" y1="169.8" x2="288.6" y2="169.5"/>
</g>
<g>
	<g>
		<polygon points="255.4,232.1 255.4,246.4 190.5,283.8 190.5,358.8 178.1,365.9 178.2,276.7 		"/>
	</g>
</g>
<g>
	<rect x="355.9" y="233" width="3.6" height="73.9"/>
</g>
<g>
	<polygon points="359.4,160.2 359.3,160.2 359.3,160.1 	"/>
</g>
<g>
	<line x1="430.2" y1="169.8" x2="430.3" y2="169.5"/>
</g>
<g>
	<g>
		<polygon points="540.8,276.7 540.8,365.9 528.4,358.8 528.4,283.8 463.5,246.4 463.5,232.1 		"/>
	</g>
</g>
<g>
	<g>
		<polygon points="457.1,102.4 457.1,116.7 359.4,60.3 261.8,116.7 261.8,102.4 359.4,46 		"/>
	</g>
</g>
<g>
	<rect x="359.5" y="233" width="3.6" height="73.9"/>
</g>
<g>
	<polygon points="551.1,492.1 551.1,492.2 551,492.1 	"/>
</g>
<g>
	<line x1="578.1" y1="426" x2="578.4" y2="426"/>
</g>
<g>
	<g>
		<polygon points="650,549.2 552.2,605.4 539.9,598.4 637.4,541.9 637.6,429.2 649.9,436.3 		"/>
	</g>
</g>
<g>
	<polygon points="423.9,418.5 425.7,415.5 489.7,452.5 487.9,455.6 	"/>
</g>
<g>
	<g>
		<polygon points="407.3,399.7 403.2,406.7 399.2,413.6 359.4,390.7 319.6,413.6 315.6,406.7 311.6,399.7 351.4,376.7 351.4,330.8 
			367.5,330.8 367.5,376.7 		"/>
	</g>
</g>
<g>
	<polygon points="551.2,379.4 551.1,491.8 551.1,492.1 551,492.1 453.6,548.5 370.2,500.4 370.4,474.1 453.6,522.2 528.4,479 
		534.8,482.7 528.4,478.9 528.5,392.5 445.2,344.5 467.9,331.3 	"/>
	<polygon points="551.2,491.9 551.1,492.1 551.1,491.8 	"/>
</g>
<g>
	<line x1="507.4" y1="548.5" x2="507.6" y2="548.7"/>
</g>
<g>
	<g>
		<polygon points="436.8,546.2 359.4,590.7 282.1,546.2 294.7,539 359.4,576.5 424.3,539 		"/>
	</g>
</g>
<g>
	<rect x="453.3" y="401.6" transform="matrix(0.5 -0.866 0.866 0.5 -152.2671 613.3496)" width="3.6" height="73.9"/>
</g>
<g>
	<polygon points="348.6,474.1 348.6,500.4 265.3,548.5 168,492.1 167.9,492.1 167.9,491.8 167.7,379.4 251,331.3 273.7,344.5 
		190.5,392.5 190.5,479 265.3,522.2 	"/>
	<polygon points="167.9,491.8 167.9,492.1 167.8,491.9 	"/>
</g>
<g>
	<line x1="211.5" y1="548.5" x2="211.4" y2="548.7"/>
</g>
<g>
	<g>
		<polygon points="179,598.4 166.7,605.4 69,549.2 69,436.3 81.4,429.2 81.4,541.9 		"/>
	</g>
</g>
<g>
	<rect x="227" y="436.9" transform="matrix(0.866 -0.5 0.5 0.866 -183.991 190.7546)" width="73.9" height="3.6"/>
</g>
<g>
	<polygon points="168,492.1 167.9,492.2 167.9,492.1 	"/>
</g>
<g>
	<line x1="140.8" y1="426" x2="140.5" y2="426"/>
</g>
<g>
	<polygon points="295.1,418.7 231.1,455.6 229.3,452.6 293.3,415.6 	"/>
</g>
</svg>
