<?xml version="1.0" encoding="utf-8"?>
<!-- Generator: Adobe Illustrator 28.0.0, SVG Export Plug-In . SVG Version: 6.00 Build 0)  -->
<svg version="1.1" id="Layer_1" xmlns:xodm="http://www.corel.com/coreldraw/odm/2003"
	 xmlns="http://www.w3.org/2000/svg" xmlns:xlink="http://www.w3.org/1999/xlink" x="0px" y="0px" viewBox="0 0 720 720"
	 style="enable-background:new 0 0 720 720;" xml:space="preserve">
<style type="text/css">
	.st0{fill:#F7B24B;}
</style>
<g>
	<path class="st0" d="M386.1,325.7"/>
	<g>
		<polygon class="st0" points="643.7,369 632.3,380.5 599.3,380.5 594.7,385 440,385 452,369 		"/>
	</g>
	<polygon class="st0" points="375,363.5 398,363.5 410.6,347.9 387.6,347.9 	"/>
	<g>
		<polygon class="st0" points="674,347.8 674,350 424.6,350 412.2,365.2 410.4,367.4 309.6,367.4 307.8,365.2 295.4,350 46,350 
			46,347.8 296.5,347.8 296.6,348 310.7,365.2 409.3,365.2 423.4,348 423.5,347.8 		"/>
		<polygon class="st0" points="423.5,347.8 423.4,348 423.4,347.8 		"/>
	</g>
	<g>
		<polygon class="st0" points="76.3,369 87.7,380.5 120.7,380.5 125.3,385 280,385 268.1,369 		"/>
	</g>
	<polygon class="st0" points="345,363.5 322,363.5 309.4,347.9 332.4,347.9 	"/>
	<g>
		<path class="st0" d="M430.4,377.6l9-11h209.1v-6.3H441.7l-5.1,6.3l-9,11h-34.3l-3.2-4l-1.8-2.2h-56.5l-1.8,2.2l-3.2,4h-34.3l-9-11
			l-5.1-6.3H71.4v6.3h209.1l9,11l1.8,2.2h33.5l-6,7.3l-242.4,0.9l0,6.3l257.3-1l0-6.3l-12,0l6-7.3h64.5l6,7.3l-12,0l0,6.3l257.3,1
			l0-6.3L401,387.1l-6-7.3h33.5L430.4,377.6z M329.6,377.6l3.2-4h54.4l3.2,4H329.6z"/>
	</g>
	<g>
		<polygon class="st0" points="296.6,347.8 296.6,348 296.5,347.8 		"/>
	</g>
</g>
</svg>
