<?xml version="1.0" encoding="utf-8"?>
<!-- Generator: Adobe Illustrator 28.0.0, SVG Export Plug-In . SVG Version: 6.00 Build 0)  -->
<svg version="1.1" id="Layer_1" xmlns:xodm="http://www.corel.com/coreldraw/odm/2003"
	 xmlns="http://www.w3.org/2000/svg" xmlns:xlink="http://www.w3.org/1999/xlink" x="0px" y="0px" viewBox="0 0 720 720"
	 style="enable-background:new 0 0 720 720;" xml:space="preserve">
<style type="text/css">
	.st0{fill:#C10C0C;}
</style>
<path d="M590.7,564.9H132.4c-40.1,0-72.6-32.5-72.6-72.6V212.8c0-40.1,32.5-72.6,72.6-72.6h458.2c40.1,0,72.6,32.5,72.6,72.6v279.4
	C663.3,532.3,630.8,564.9,590.7,564.9z"/>
<path class="st0" d="M390.3,544.1H133.7c-28.9,0-52.4-23.5-52.4-52.4V211.1c0-28.9,23.5-52.4,52.4-52.4h256.6
	c28.9,0,52.4,23.5,52.4,52.4v280.6C442.7,520.7,419.2,544.1,390.3,544.1z"/>
<path d="M227.1,296.8v27.9h97.7l27.9,27.9v83.4l-27.9,27.9H199.2l-27.9-27.9V268.9l27.9-27.9h153.5v55.8H227.1z M227.1,380.5V408
	h69.8v-27.5H227.1z"/>
</svg>
