<?xml version="1.0" encoding="utf-8"?>
<!-- Generator: Adobe Illustrator 28.0.0, SVG Export Plug-In . SVG Version: 6.00 Build 0)  -->
<svg version="1.1" id="Layer_1" xmlns:xodm="http://www.corel.com/coreldraw/odm/2003"
	 xmlns="http://www.w3.org/2000/svg" xmlns:xlink="http://www.w3.org/1999/xlink" x="0px" y="0px" viewBox="0 0 720 720"
	 style="enable-background:new 0 0 720 720;" xml:space="preserve">
<style type="text/css">
	.st0{fill:#C12026;}
	.st1{opacity:0.5;fill:#C12026;}
</style>
<path class="st0" d="M222.6,335.1c0-5.8,0.5-10.7,1.6-14.8c1-4.1,2.4-7.5,4.2-10.3c1.7-2.8,3.7-5,6-6.7c2.2-1.6,4.5-2.9,6.9-3.8
	c2.4-0.9,4.7-1.4,7.1-1.7c2.3-0.2,4.5-0.4,6.4-0.4c5,0,9.3,0.6,12.9,1.9c3.6,1.3,6.5,3,8.7,5.2c2.3,2.2,3.9,4.7,4.9,7.6
	c1,2.9,1.5,5.9,1.5,9.1c0,1.7-0.2,3.6-0.5,5.6c-0.3,2-0.8,4.1-1.5,6.1h-14.4v-3.8c0-3.8-0.2-6.9-0.7-9.3s-1.2-4.3-2.1-5.7
	c-0.9-1.4-2.2-2.3-3.6-2.9c-1.5-0.5-3.2-0.8-5.3-0.8c-4.2,0-7.4,1.4-9.6,4.3s-3.3,7.4-3.3,13.7v24.1c1.9-2,4.3-3.8,7.3-5.2
	c3-1.4,6.5-2.1,10.4-2.1c2.8,0,5.7,0.5,8.6,1.4c2.9,0.9,5.5,2.5,7.9,4.8c2.4,2.3,4.3,5.5,5.8,9.4c1.5,4,2.2,9.1,2.2,15.3v12.1
	c0,6.7-0.7,12.3-2.1,16.9c-1.4,4.6-3.4,8.3-6,11.2c-2.6,2.8-5.7,4.9-9.3,6.2c-3.6,1.3-7.7,1.9-12.2,1.9c-5.1,0-9.6-0.7-13.6-2
	c-3.9-1.4-7.2-3.6-9.9-6.6c-2.7-3-4.8-7-6.1-11.8c-1.4-4.8-2.1-10.8-2.1-17.7V335.1z M241.8,393.5c0,5.8,1,10,3,12.7
	c2,2.7,5.1,4.1,9.4,4.1c3.8,0,6.5-1.3,8.3-4c1.8-2.7,2.6-6.7,2.6-12.1v-18.6c0-3-0.3-5.6-0.8-7.6c-0.5-2-1.3-3.7-2.3-4.9
	c-1-1.2-2.1-2.1-3.5-2.7c-1.4-0.5-2.9-0.8-4.6-0.8c-1.3,0-2.6,0.2-3.8,0.6c-1.2,0.4-2.3,0.9-3.3,1.5c-1,0.6-2,1.4-2.8,2.2
	c-0.8,0.8-1.6,1.7-2.2,2.5V393.5z"/>
<path class="st0" d="M299.2,334.3c0-5.5,0.5-10.2,1.5-14.2c1-4,2.3-7.3,3.9-10c1.6-2.7,3.5-4.9,5.7-6.5c2.1-1.7,4.3-2.9,6.6-3.8
	c2.3-0.9,4.5-1.5,6.8-1.8c2.3-0.3,4.3-0.4,6.2-0.4c1.8,0,3.8,0.1,6,0.4c2.2,0.3,4.5,0.8,6.7,1.7c2.3,0.9,4.5,2.1,6.6,3.7
	c2.1,1.6,4,3.8,5.6,6.5c1.6,2.7,2.9,6.1,3.9,10.1c1,4,1.5,8.8,1.5,14.3v52.8c0,5.5-0.5,10.2-1.5,14.2c-1,4-2.3,7.3-4,10.1
	c-1.7,2.8-3.6,5-5.7,6.8c-2.1,1.7-4.3,3.1-6.6,4c-2.2,0.9-4.5,1.6-6.7,1.9c-2.2,0.3-4.2,0.5-6,0.5c-2,0-4.1-0.2-6.4-0.5
	c-2.3-0.3-4.6-1-6.9-1.9c-2.3-0.9-4.5-2.3-6.6-4c-2.1-1.7-4-4-5.6-6.7c-1.6-2.8-2.9-6.2-3.9-10.2c-1-4-1.5-8.7-1.5-14.2V334.3z
	 M318.5,395.1c0,5.2,0.9,8.9,2.8,11.3c1.9,2.3,4.7,3.5,8.6,3.5c3.8,0,6.6-1.2,8.4-3.5c1.9-2.3,2.8-6.1,2.8-11.3v-67.6
	c0-5.5-0.9-9.4-2.8-11.9c-1.9-2.5-4.7-3.7-8.4-3.7c-3.8,0-6.7,1.2-8.6,3.7c-1.9,2.5-2.8,6.5-2.8,11.9V395.1z"/>
<path class="st0" d="M403.1,366c-2.8,0-5.6-0.4-8.4-1.2c-2.8-0.8-5.3-2.3-7.6-4.6c-2.3-2.3-4.1-5.5-5.5-9.6
	c-1.4-4.2-2.1-9.6-2.1-16.4v-7.8c0-4.4,0.3-8.3,1-11.5c0.7-3.2,1.6-6,2.8-8.3c1.2-2.3,2.6-4.1,4.1-5.6c1.6-1.4,3.2-2.5,5-3.3
	c1.8-0.8,3.5-1.3,5.4-1.6c1.8-0.3,3.6-0.4,5.4-0.4c1.7,0,3.4,0.1,5.2,0.4c1.8,0.3,3.6,0.8,5.3,1.6c1.7,0.8,3.4,1.9,4.9,3.3
	c1.6,1.4,2.9,3.2,4.1,5.5c1.2,2.3,2.1,5.1,2.8,8.3c0.7,3.3,1,7.1,1,11.6v7.8c0,6.7-0.8,12.1-2.3,16.3c-1.5,4.2-3.4,7.4-5.7,9.7
	c-2.3,2.3-4.9,3.8-7.6,4.6C408.1,365.6,405.5,366,403.1,366z M403.2,354.4c3.1,0,5.2-1.3,6.4-4s1.8-6.8,1.8-12.4v-14.2
	c0-5.7-0.6-9.8-1.8-12.5c-1.2-2.7-3.4-4-6.4-4c-3.2,0-5.5,1.3-6.8,4c-1.3,2.7-1.9,6.8-1.9,12.5V338c0,5.6,0.6,9.7,1.9,12.4
	C397.8,353.1,400,354.4,403.2,354.4z M447.4,297.2h13.2l-33.6,126.3h-13.3L447.4,297.2z M447.5,385c0-6.7,0.7-12,2.2-16.1
	c1.5-4,3.4-7.1,5.7-9.3c2.3-2.2,4.9-3.6,7.6-4.3c2.8-0.7,5.5-1.1,8-1.1c1.7,0,3.4,0.1,5.2,0.4c1.8,0.3,3.6,0.8,5.3,1.6
	c1.7,0.8,3.4,1.9,4.9,3.3c1.6,1.4,2.9,3.2,4.1,5.5c1.2,2.3,2.1,5.1,2.8,8.3c0.7,3.3,1,7.1,1,11.6v7.8c0,4.5-0.4,8.4-1.1,11.7
	c-0.7,3.3-1.7,6.1-2.9,8.5c-1.2,2.3-2.6,4.3-4.1,5.8c-1.6,1.5-3.2,2.7-4.9,3.6c-1.7,0.9-3.5,1.5-5.3,1.8c-1.8,0.3-3.5,0.5-5.1,0.5
	c-1.9,0-3.7-0.2-5.6-0.5c-1.9-0.3-3.7-0.9-5.4-1.7c-1.7-0.8-3.4-2-4.9-3.5c-1.5-1.5-2.9-3.4-4-5.8c-1.1-2.3-2-5.2-2.7-8.5
	c-0.7-3.3-1-7.3-1-11.8V385z M462.5,396.6c0,5.6,0.6,9.7,1.9,12.4c1.3,2.7,3.5,4,6.8,4c3.1,0,5.2-1.3,6.4-4s1.8-6.8,1.8-12.4v-14.2
	c0-5.7-0.6-9.8-1.8-12.5c-1.2-2.7-3.4-4-6.4-4c-3.2,0-5.5,1.3-6.8,4c-1.3,2.7-1.9,6.9-1.9,12.5V396.6z"/>
<path class="st1" d="M197.8,304c8.3-23.9,22-45.8,40.4-64.2c5.5-5.5,11.3-10.5,17.3-15.1l-78.7-108.4
	c-48.9,36.5-86.4,87.4-106.4,146.3L197.8,304z"/>
<path class="st1" d="M188.4,360.1c0-16.9,2.4-33.4,7.2-49.1L68.1,269.7c-8.9,28.6-13.7,59-13.7,90.5s4.8,61.9,13.7,90.5l127.4-41.4
	C190.8,393.5,188.4,377,188.4,360.1z"/>
<path class="st0" d="M528.7,360.1c0,16.9-2.4,33.4-7.2,49.1L649,450.6c8.9-28.6,13.7-59,13.7-90.5s-4.8-61.9-13.7-90.5l-127.4,41.4
	C526.2,326.8,528.7,343.3,528.7,360.1z"/>
<path class="st0" d="M519.3,416.3c-8.3,23.9-22,45.8-40.4,64.2c-5.5,5.5-11.3,10.5-17.3,15.1L540.3,604
	c48.9-36.5,86.4-87.4,106.4-146.3L519.3,416.3z"/>
<path class="st1" d="M238.2,480.5c-18.4-18.4-32.1-40.3-40.4-64.2L70.4,457.7c20,59,57.5,109.8,106.4,146.3l78.7-108.4
	C249.5,491,243.7,485.9,238.2,480.5z"/>
<path class="st0" d="M478.9,239.8c18.4,18.4,32.1,40.3,40.4,64.2l127.4-41.4c-20-59-57.5-109.8-106.4-146.3l-78.7,108.4
	C467.6,229.3,473.4,234.4,478.9,239.8z"/>
<path class="st0" d="M455.6,500c-27.3,19-59.5,29.6-93.3,30.3v134c64.1-0.8,123.4-21.3,172.1-55.9L455.6,500z"/>
<path class="st0" d="M354.8,530.2c-33.8-0.7-66-11.3-93.3-30.3l-78.7,108.4c48.7,34.5,108,55.1,172.1,55.9V530.2z"/>
<path class="st1" d="M261.5,220.3c27.3-19,59.5-29.6,93.3-30.3v-134c-64.1,0.8-123.4,21.3-172.1,55.9L261.5,220.3z"/>
<path class="st0" d="M362.2,190c33.8,0.7,66,11.3,93.3,30.3L534.3,112c-48.7-34.5-108-55.1-172.1-55.9V190z"/>
</svg>
