<?xml version="1.0" encoding="utf-8"?>
<!-- Generator: Adobe Illustrator 28.0.0, SVG Export Plug-In . SVG Version: 6.00 Build 0)  -->
<svg version="1.1" id="Layer_1" xmlns:xodm="http://www.corel.com/coreldraw/odm/2003"
	 xmlns="http://www.w3.org/2000/svg" xmlns:xlink="http://www.w3.org/1999/xlink" x="0px" y="0px" viewBox="0 0 720 720"
	 style="enable-background:new 0 0 720 720;" xml:space="preserve">
<style type="text/css">
	.st0{opacity:0.5;}
</style>
<ellipse cx="578.5" cy="357.4" rx="74.1" ry="34.3"/>
<ellipse transform="matrix(0.809 -0.5878 0.5878 0.809 -31.4056 358.7438)" cx="536.3" cy="227.7" rx="74.1" ry="34.3"/>
<ellipse transform="matrix(0.309 -0.9511 0.9511 0.309 154.0511 507.1068)" cx="426" cy="147.5" rx="74.1" ry="34.3"/>
<ellipse transform="matrix(0.9511 -0.309 0.309 0.9511 -31.4159 96.7215)" class="st0" cx="289.6" cy="147.5" rx="34.3" ry="74.1"/>
<ellipse transform="matrix(0.5878 -0.809 0.809 0.5878 -110.3053 238.9138)" class="st0" cx="179.3" cy="227.7" rx="34.3" ry="74.1"/>
<ellipse class="st0" cx="137.2" cy="357.4" rx="74.1" ry="34.3"/>
<ellipse transform="matrix(0.809 -0.5878 0.5878 0.809 -252.0761 198.4173)" class="st0" cx="179.3" cy="487.1" rx="74.1" ry="34.3"/>
<ellipse transform="matrix(0.309 -0.9511 0.9511 0.309 -339.3831 667.4333)" class="st0" cx="289.6" cy="567.3" rx="74.1" ry="34.3"/>
<ellipse transform="matrix(0.9511 -0.309 0.309 0.9511 -154.4478 159.4094)" class="st0" cx="426" cy="567.3" rx="34.3" ry="74.1"/>
<ellipse transform="matrix(0.5878 -0.809 0.809 0.5878 -172.9931 634.7094)" cx="536.3" cy="487.1" rx="34.3" ry="74.1"/>
<g>
	<path d="M257.1,379.9l26.4-67.2h16.4v63.7h8.4v10.8h-8.4v16.2h-12.8v-16.2h-30.1V379.9z M287.1,376.4V363l1.3-34.2h-1.6l-15.7,47.6
		H287.1z"/>
	<path d="M316.7,338.6c0-4,0.4-7.4,1.1-10.3c0.7-2.9,1.7-5.3,2.9-7.3c1.2-2,2.6-3.6,4.1-4.8c1.6-1.2,3.2-2.1,4.8-2.8
		c1.6-0.7,3.3-1.1,4.9-1.3c1.6-0.2,3.2-0.3,4.5-0.3c1.3,0,2.8,0.1,4.4,0.3c1.6,0.2,3.2,0.6,4.9,1.2s3.2,1.5,4.8,2.7
		c1.5,1.2,2.9,2.8,4.1,4.8c1.2,2,2.1,4.4,2.9,7.3c0.7,2.9,1.1,6.4,1.1,10.4V377c0,4-0.4,7.4-1.1,10.3c-0.7,2.9-1.7,5.3-2.9,7.4
		c-1.2,2-2.6,3.7-4.1,4.9c-1.6,1.3-3.2,2.2-4.8,2.9c-1.6,0.7-3.2,1.2-4.9,1.4c-1.6,0.2-3.1,0.4-4.3,0.4c-1.4,0-3-0.1-4.6-0.4
		c-1.7-0.3-3.3-0.7-5-1.4c-1.7-0.7-3.3-1.7-4.8-2.9c-1.5-1.2-2.9-2.9-4.1-4.9c-1.2-2-2.1-4.5-2.8-7.4c-0.7-2.9-1.1-6.3-1.1-10.3
		V338.6z M330.8,382.8c0,3.8,0.7,6.5,2,8.2c1.4,1.7,3.4,2.5,6.2,2.5c2.7,0,4.8-0.9,6.1-2.5c1.3-1.7,2-4.4,2-8.2v-49.1
		c0-4-0.7-6.9-2-8.7c-1.3-1.8-3.4-2.7-6.1-2.7c-2.8,0-4.9,0.9-6.2,2.7c-1.4,1.8-2,4.7-2,8.7V382.8z"/>
	<path d="M392.2,361.7c-2,0-4-0.3-6.1-0.9c-2-0.6-3.9-1.7-5.5-3.3c-1.6-1.6-3-4-4-7c-1-3-1.5-7-1.5-11.9v-5.7c0-3.2,0.2-6,0.7-8.4
		c0.5-2.4,1.2-4.4,2-6c0.9-1.7,1.9-3,3-4c1.1-1,2.3-1.8,3.6-2.4c1.3-0.6,2.6-1,3.9-1.2c1.3-0.2,2.6-0.3,3.9-0.3
		c1.2,0,2.5,0.1,3.8,0.3c1.3,0.2,2.6,0.6,3.8,1.1c1.3,0.6,2.5,1.4,3.6,2.4c1.1,1,2.1,2.3,3,4c0.8,1.7,1.5,3.7,2,6.1s0.7,5.2,0.7,8.4
		v5.7c0,4.8-0.6,8.8-1.6,11.8c-1.1,3-2.5,5.4-4.2,7c-1.7,1.7-3.5,2.8-5.5,3.4C395.9,361.4,394,361.7,392.2,361.7z M392.3,353.2
		c2.2,0,3.8-1,4.7-2.9c0.9-1.9,1.3-4.9,1.3-9V331c0-4.1-0.4-7.1-1.3-9.1c-0.9-1.9-2.4-2.9-4.7-2.9c-2.3,0-4,1-4.9,2.9
		c-0.9,1.9-1.4,5-1.4,9.1v10.3c0,4.1,0.5,7.1,1.4,9C388.3,352.3,390,353.2,392.3,353.2z M424.4,311.7h9.6l-24.4,91.7H400
		L424.4,311.7z M424.5,375.4c0-4.8,0.5-8.7,1.6-11.7c1.1-2.9,2.5-5.2,4.1-6.7c1.7-1.6,3.5-2.6,5.5-3.1c2-0.5,4-0.8,5.8-0.8
		c1.2,0,2.5,0.1,3.8,0.3c1.3,0.2,2.6,0.6,3.8,1.1c1.3,0.6,2.5,1.4,3.6,2.4c1.1,1,2.1,2.3,3,4c0.9,1.7,1.5,3.7,2,6.1
		c0.5,2.4,0.7,5.2,0.7,8.4v5.7c0,3.3-0.3,6.1-0.8,8.5c-0.5,2.4-1.2,4.5-2.1,6.2c-0.9,1.7-1.9,3.1-3,4.2c-1.1,1.1-2.3,2-3.6,2.6
		c-1.3,0.6-2.5,1.1-3.9,1.3c-1.3,0.2-2.5,0.3-3.7,0.3c-1.3,0-2.7-0.1-4.1-0.3c-1.4-0.2-2.7-0.6-3.9-1.2c-1.3-0.6-2.4-1.5-3.6-2.6
		c-1.1-1.1-2.1-2.5-2.9-4.2c-0.8-1.7-1.5-3.8-1.9-6.2c-0.5-2.4-0.7-5.3-0.7-8.6V375.4z M435.4,383.9c0,4.1,0.5,7.1,1.4,9
		c0.9,1.9,2.6,2.9,4.9,2.9c2.2,0,3.8-1,4.7-2.9s1.3-4.9,1.3-9v-10.3c0-4.1-0.4-7.1-1.3-9.1c-0.9-1.9-2.4-2.9-4.7-2.9
		c-2.3,0-4,1-4.9,2.9c-0.9,1.9-1.4,5-1.4,9.1V383.9z"/>
</g>
</svg>
