<?xml version="1.0" encoding="utf-8"?>
<!-- Generator: Adobe Illustrator 28.0.0, SVG Export Plug-In . SVG Version: 6.00 Build 0)  -->
<svg version="1.1" id="Layer_1" xmlns:xodm="http://www.corel.com/coreldraw/odm/2003"
	 xmlns="http://www.w3.org/2000/svg" xmlns:xlink="http://www.w3.org/1999/xlink" x="0px" y="0px" viewBox="0 0 720 720"
	 style="enable-background:new 0 0 720 720;" xml:space="preserve">
<style type="text/css">
	.st0{fill-rule:evenodd;clip-rule:evenodd;}
	.st1{fill:none;}
</style>
<path class="st0" d="M362.7,234.4c73.8,0,133.6,59.8,133.6,133.6s-59.8,133.6-133.6,133.6c-73.8,0-133.6-59.8-133.6-133.6
	C229.1,294.2,288.9,234.4,362.7,234.4z M362.7,248.9c65.8,0,119.1,53.3,119.1,119.1c0,65.8-53.3,119.1-119.1,119.1
	c-65.8,0-119.1-53.3-119.1-119.1C243.7,302.3,297,248.9,362.7,248.9L362.7,248.9z"/>
<path class="st0" d="M362.7,264.5c57.2,0,103.5,46.3,103.5,103.5s-46.3,103.5-103.5,103.5c-57.2,0-103.5-46.3-103.5-103.5
	C259.2,310.9,305.6,264.5,362.7,264.5L362.7,264.5z M362.7,295.2c40.2,0,72.8,32.6,72.8,72.8s-32.6,72.8-72.8,72.8
	c-40.2,0-72.8-32.6-72.8-72.8C289.9,327.8,322.5,295.2,362.7,295.2L362.7,295.2z"/>
<circle class="st1" cx="362.7" cy="368" r="72.8"/>
<path class="st0" d="M362.7,309.3c32.4,0,58.7,26.3,58.7,58.7s-26.3,58.7-58.7,58.7s-58.7-26.3-58.7-58.7S330.3,309.3,362.7,309.3z
	 M362.7,337.2c17.1,0,30.9,13.8,30.9,30.9c0,17.1-13.8,30.9-30.9,30.9c-17.1,0-30.9-13.8-30.9-30.9
	C331.9,351,345.7,337.2,362.7,337.2z"/>
<path class="st0" d="M372.1,112.4v128.9h-19.2v-129c-11.3-4-19.4-14.8-19.4-27.5c0-16.1,13.1-29.2,29.2-29.2
	c16.1,0,29.2,13.1,29.2,29.2C391.9,97.6,383.6,108.5,372.1,112.4L372.1,112.4z"/>
<path class="st0" d="M107.1,358.6h127.7v19.2H107c-4,11.3-14.8,19.4-27.5,19.4c-16.1,0-29.2-13.1-29.2-29.2
	c0-16.1,13.1-29.2,29.2-29.2C92.3,338.8,103.2,347.1,107.1,358.6L107.1,358.6z"/>
<path class="st0" d="M372.1,623.5V495.7h-19.2v128c-11.3,4-19.4,14.8-19.4,27.5c0,16.1,13.1,29.2,29.2,29.2
	c16.1,0,29.2-13.1,29.2-29.2C391.9,638.3,383.6,627.4,372.1,623.5L372.1,623.5z"/>
<path class="st0" d="M618.2,358.6H490.5v19.2h127.9c4,11.3,14.8,19.4,27.5,19.4c16.1,0,29.2-13.1,29.2-29.2
	c0-16.1-13.1-29.2-29.2-29.2C633.1,338.8,622.1,347.1,618.2,358.6L618.2,358.6z"/>
<path class="st0" d="M435.9,168.4l-23.5,21.4c-4.1,3.7-5.8,8.8-5.7,14.3l0.3,41.1l0,0c0.4,0.2,0.8,0.3,1.3,0.5
	c0.6,0.2,1.1,0.4,1.7,0.6c0.4,0.2,0.8,0.3,1.3,0.5c0.6,0.2,1.2,0.5,1.7,0.7c0.4,0.2,0.8,0.3,1.2,0.5c0.6,0.3,1.2,0.5,1.8,0.8
	c0.4,0.2,0.7,0.3,1.1,0.5c0.6,0.3,1.2,0.6,1.8,0.8c0.3,0.2,0.7,0.3,1,0.5c0.6,0.3,1.2,0.6,1.8,0.9c0.3,0.2,0.6,0.3,1,0.5
	c0.6,0.3,1.2,0.7,1.9,1l0.2-50.3l25.4-24.1c2,0.5,4.1,0.8,6.2,0.8c13.5,0,24.4-10.9,24.4-24.4c0-13.5-10.9-24.4-24.4-24.4
	c-13.5,0-24.4,10.9-24.4,24.4C431.9,160,433.4,164.6,435.9,168.4L435.9,168.4z"/>
<path class="st0" d="M160.2,293.2l21.4,23.5c3.7,4.1,8.8,5.8,14.3,5.7l44.7-0.3c2.3-6.1,5-11.9,8.1-17.5l-54.2-0.2L170.4,279
	c0.5-2,0.8-4.1,0.8-6.2c0-13.5-10.9-24.4-24.4-24.4c-13.5,0-24.4,10.9-24.4,24.4c0,13.5,10.9,24.4,24.4,24.4
	C151.7,297.2,156.3,295.7,160.2,293.2z"/>
<path class="st0" d="M435.9,568.9l-23.5-21.4c-4.1-3.7-5.8-8.8-5.7-14.3l0.3-42.4c6.1-2.2,11.9-4.8,17.6-7.8l0.2,51.6l25.4,24.1
	c2-0.5,4.1-0.8,6.2-0.8c13.5,0,24.4,10.9,24.4,24.4c0,13.5-10.9,24.4-24.4,24.4c-13.5,0-24.4-10.9-24.4-24.4
	C431.9,577.3,433.4,572.7,435.9,568.9L435.9,568.9z"/>
<path class="st0" d="M560.6,293.2l-21.4,23.5c-3.7,4.1-8.8,5.8-14.3,5.7l-40-0.3c-2.3-6.1-5-11.9-8.1-17.6l49.6-0.2l24.1-25.4
	c-0.5-2-0.8-4.1-0.8-6.2c0-13.5,10.9-24.4,24.4-24.4c13.5,0,24.4,10.9,24.4,24.4c0,13.5-10.9,24.4-24.4,24.4
	C569.1,297.2,564.5,295.7,560.6,293.2L560.6,293.2z"/>
<path class="st0" d="M284.9,168.4l23.5,21.4c4.1,3.7,5.8,8.8,5.7,14.3l-0.3,43c-0.3,0.1-0.5,0.2-0.8,0.3c-0.7,0.3-1.4,0.6-2.2,0.9
	c-0.2,0.1-0.5,0.2-0.7,0.3c-0.7,0.3-1.5,0.7-2.2,1l-0.6,0.3c-0.8,0.4-1.6,0.8-2.4,1.1l-0.4,0.2c-0.9,0.4-1.7,0.9-2.6,1.3l-0.1,0.1
	c-0.9,0.5-1.7,0.9-2.6,1.4l-0.1,0.1c-0.9,0.5-1.7,1-2.6,1.5l-0.3,0.2l-0.2-53l-25.4-24.1c-2,0.5-4.1,0.8-6.2,0.8
	c-13.5,0-24.4-10.9-24.4-24.4s10.9-24.4,24.4-24.4c13.5,0,24.4,10.9,24.4,24.4C288.9,159.9,287.4,164.5,284.9,168.4L284.9,168.4z"/>
<path class="st0" d="M160.1,444.1l21.4-23.5c3.7-4.1,8.8-5.8,14.3-5.7l45.3,0.3c2.4,6.1,5.1,11.9,8.3,17.5l-55,0.2l-24.1,25.4
	c0.5,2,0.8,4.1,0.8,6.2c0,13.5-10.9,24.4-24.4,24.4c-13.5,0-24.4-10.9-24.4-24.4s10.9-24.4,24.4-24.4
	C151.7,440.2,156.3,441.6,160.1,444.1L160.1,444.1z"/>
<path class="st0" d="M284.9,568.9l23.5-21.4c4.1-3.7,5.8-8.8,5.7-14.3l-0.3-44.2c-6.1-2.5-11.9-5.4-17.5-8.7l-0.2,54.3l-25.4,24.1
	c-2-0.5-4.1-0.8-6.2-0.8c-13.5,0-24.4,10.9-24.4,24.4c0,13.5,10.9,24.4,24.4,24.4s24.4-10.9,24.4-24.4
	C288.9,577.4,287.4,572.8,284.9,568.9L284.9,568.9z"/>
<path class="st0" d="M560.7,444.1l-21.4-23.5c-3.7-4.1-8.8-5.8-14.3-5.7l-40.5,0.2c-2.4,6.1-5.2,12-8.4,17.6l50.3,0.2l24.1,25.4
	c-0.5,2-0.8,4.1-0.8,6.2c0,13.5,10.9,24.4,24.4,24.4c13.5,0,24.4-10.9,24.4-24.4s-10.9-24.4-24.4-24.4
	C569.1,440.2,564.5,441.6,560.7,444.1z"/>
<path class="st1" d="M313.3,681"/>
<path class="st0" d="M550.6,122.9c10.8,0,19.6,8.8,19.6,19.6c0,10.8-8.8,19.6-19.6,19.6c-0.3,0-0.5,0-0.8,0l0,26.7
	c0,9.6-3.5,17.8-10.4,24.5l-78.8,76c-3.8-4.8-8-9.3-12.5-13.4l82.8-79.9c0-17.7,0.1-36,0.1-53.4c0-1.6,0.2-3.2,0.6-4.7
	C533.7,129.2,541.4,122.9,550.6,122.9L550.6,122.9z M433.7,315.2L410.1,338c-3.4-5.2-7.5-9.8-12.3-13.6l23.4-22.7
	C425.8,305.7,430,310.3,433.7,315.2L433.7,315.2z"/>
<path class="st0" d="M538.2,614.3c10.8,0,19.6-8.8,19.6-19.6s-8.8-19.6-19.6-19.6c-0.3,0-0.5,0-0.8,0l0-26.7c0-9.6-3.4-18-10.4-24.5
	l-74-68.5c-4.3,4.4-8.9,8.5-13.8,12.3l79.2,73.5c0,17.7,0.1,36,0.1,53.4c0,1.6,0.2,3.2,0.6,4.7C521.3,607.9,529,614.3,538.2,614.3
	L538.2,614.3z M425.7,430.1l-26.4-24.8c-4.5,4.4-9.6,8.1-15.3,10.8l27.4,25.7C416.6,438.5,421.4,434.6,425.7,430.1L425.7,430.1z"/>
<path class="st0" d="M179.9,122.9c-10.8,0-19.6,8.8-19.6,19.6c0,10.8,8.8,19.6,19.6,19.6c0.3,0,0.5,0,0.8,0l0,26.7
	c0,9.6,3.5,17.8,10.4,24.5l76,73.3c4-4.7,8.3-9,12.9-13.1l-80.3-77.5c0-17.7-0.1-36-0.1-53.4c0-1.6-0.2-3.2-0.6-4.7
	C196.8,129.2,189.1,122.9,179.9,122.9L179.9,122.9z M294,312.4l24,23.2c3.7-4.9,8.1-9.3,13.1-12.9l-24.1-23.3
	C302.2,303.3,297.8,307.6,294,312.4L294,312.4z"/>
<path class="st0" d="M167.5,614.3c-10.8,0-19.6-8.8-19.6-19.6s8.8-19.6,19.6-19.6c0.3,0,0.5,0,0.8,0l0-26.7
	c0-9.6,3.6-17.8,10.4-24.5l83.4-80.6c3.7,4.9,7.7,9.5,12.1,13.9l-86.9,84.1c0,17.7-0.1,36-0.1,53.4c0,1.6-0.2,3.2-0.6,4.7
	C184.4,607.9,176.7,614.3,167.5,614.3L167.5,614.3z M289.2,417.1l24-22.4c3,5.5,6.8,10.4,11.2,14.7l-23.5,21.9
	C296.5,427,292.6,422.2,289.2,417.1L289.2,417.1z"/>
</svg>
