<?xml version="1.0" encoding="utf-8"?>
<!-- Generator: Adobe Illustrator 28.0.0, SVG Export Plug-In . SVG Version: 6.00 Build 0)  -->
<svg version="1.1" id="Layer_1" xmlns:xodm="http://www.corel.com/coreldraw/odm/2003"
	 xmlns="http://www.w3.org/2000/svg" xmlns:xlink="http://www.w3.org/1999/xlink" x="0px" y="0px" viewBox="0 0 720 720"
	 style="enable-background:new 0 0 720 720;" xml:space="preserve">
<style type="text/css">
	.st0{fill-rule:evenodd;clip-rule:evenodd;fill:#C10C0C;}
	.st1{fill-rule:evenodd;clip-rule:evenodd;fill:#F9F9F9;}
	.st2{fill-rule:evenodd;clip-rule:evenodd;fill:#FFFFFF;}
</style>
<path class="st0" d="M334.7,55.3c11.2-19.5,39.3-19.5,50.5,0L539,321.5l155.6,269.6c10.4,18-2.6,40.4-23.3,40.4H360H48.7
	c-20.7,0-33.7-22.4-23.3-40.4L181,321.5L334.7,55.3z"/>
<path class="st1" d="M674.8,597.9L521.3,332.1L367.8,66.2c-3.5-6-12.1-6-15.6,0L198.7,332.1L45.2,597.9c-3.5,6,0.9,13.5,7.8,13.5
	h307h307C673.9,611.4,678.2,603.9,674.8,597.9z M664.4,605.3H360H55.6c-3.1,0-5-3.3-3.5-6l152.2-263.6L356.5,72.1
	c1.5-2.7,5.4-2.7,6.9,0l152.2,263.6l152.2,263.6C669.4,601.9,667.5,605.3,664.4,605.3z"/>
<path class="st2" d="M318.3,391.4l97.6-54.7c0,0-40,149.7-40,150l20.4,4.8l-44.9,66.7c0,0-20.9-77.8-21-78.1l20.7,2.8
	c0,0,3.2-77.8,3-77.9c-0.1-0.1-76.1,37-76.1,37l64.3-221.9h51"/>
</svg>
