<?xml version="1.0" encoding="utf-8"?>
<!-- Generator: Adobe Illustrator 28.0.0, SVG Export Plug-In . SVG Version: 6.00 Build 0)  -->
<svg version="1.1" id="Layer_1" xmlns:xodm="http://www.corel.com/coreldraw/odm/2003"
	 xmlns="http://www.w3.org/2000/svg" xmlns:xlink="http://www.w3.org/1999/xlink" x="0px" y="0px" viewBox="0 0 720 720"
	 style="enable-background:new 0 0 720 720;" xml:space="preserve">
<style type="text/css">
	.st0{fill-rule:evenodd;clip-rule:evenodd;}
</style>
<g>
	<path class="st0" d="M380.7,9.9c-21.9,5.9-30.1,32.2-17.7,50.4c6,8.9,55.6,58.7,55.6,58.7L75.4,454.5L76.3,711
		c0,0,472.7-460.3,473.2-460.3c0,0,52.3,55.9,63,61.6c23.4,12.8,49.6-1.9,51.5-24.2l-0.3-127.3l-0.3-120c0-19.2-15.3-31.6-33.8-31.6
		L511.9,9.1C412.8,8.9,383.7,9,380.7,9.9L380.7,9.9L380.7,9.9z M516.9,165l-14.3-14.1c9.9-9.8,19.8-19.6,29.4-29.9l-21.1-22
		c-4.2-4.3-1.6-11.3,4.3-12.2l33.7-4.7l38-5.3c4.9-0.6,8.9,3.5,8.1,8.4l-6.8,37.7l-6,33.6c-1,5.8-8.2,8.1-12.3,3.8L547,136.4
		L516.9,165z"/>
</g>
</svg>
