<?xml version="1.0" encoding="UTF-8"?>
<!DOCTYPE svg PUBLIC "-//W3C//DTD SVG 1.1//EN" "http://www.w3.org/Graphics/SVG/1.1/DTD/svg11.dtd">
<!-- Creator: CorelDRAW -->
<svg xmlns="http://www.w3.org/2000/svg" xml:space="preserve" width="10in" height="10in" version="1.1" style="shape-rendering:geometricPrecision; text-rendering:geometricPrecision; image-rendering:optimizeQuality; fill-rule:evenodd; clip-rule:evenodd"
viewBox="0 0 10000 10000"
 xmlns:xlink="http://www.w3.org/1999/xlink"
 xmlns:xodm="http://www.corel.com/coreldraw/odm/2003">
 <defs>
  <style type="text/css">
   <![CDATA[
    .fil0 {fill:black}
   ]]>
  </style>
 </defs>
 <g id="Layer_x0020_1">
  <metadata id="CorelCorpID_0Corel-Layer"/>
  <path class="fil0" d="M6987.24 6650.25c181.03,-57.47 936.25,-366.11 938.54,-1553.83 246.7,171.88 1151.37,2721.75 -759.85,3987.49 -1110.81,735.66 -2058.37,-152.05 -1832.94,-1278.59 181.52,-907.07 1308.09,-1158.36 522.87,-2483.54 -92.81,771.73 -489.44,1121.33 -1011.39,1515.77 -610.11,461.07 -1265.98,1360.93 -128.84,2521.74 -632.4,281.96 -3379.9,136.3 -3248.43,-2561.94 246.93,489.94 661.8,722.24 867.39,825.49 -712.93,-1543.93 2017.96,-2484.72 -16.43,-3884.52 235.7,-246.58 2180.1,45.07 1320.1,2288.16 2826.59,-1334.26 -1138.77,-3872.84 1536.07,-5272.85 -1016.52,1875.26 2906.07,2487.78 1812.91,5896.63z"/>
 </g>
</svg>
