<?xml version="1.0" encoding="utf-8"?>
<!-- Generator: Adobe Illustrator 28.0.0, SVG Export Plug-In . SVG Version: 6.00 Build 0)  -->
<svg version="1.1" id="Layer_1" xmlns:xodm="http://www.corel.com/coreldraw/odm/2003"
	 xmlns="http://www.w3.org/2000/svg" xmlns:xlink="http://www.w3.org/1999/xlink" x="0px" y="0px" viewBox="0 0 720 720"
	 style="enable-background:new 0 0 720 720;" xml:space="preserve">
<style type="text/css">
	.st0{fill-rule:evenodd;clip-rule:evenodd;fill:#D5EFFD;stroke:#D5EFFD;stroke-miterlimit:10;}
	.st1{fill-rule:evenodd;clip-rule:evenodd;fill:#21B4F9;stroke:#21B4F9;stroke-miterlimit:10;}
	.st2{fill:#21B4F9;stroke:#21B4F9;stroke-miterlimit:10;}
</style>
<path class="st0" d="M568.9,360.5c-0.3,115.2-93.7,208.4-208.9,208.4c-69.4,0-130.9-33.9-168.9-86l-77.8,56.3
	c55.4,76.2,145.3,125.7,246.7,125.7c168.2,0,304.6-136.3,304.9-304.4L568.9,360.5L568.9,360.5z"/>
<path class="st1" d="M151,360.3c0-115.4,93.5-208.9,208.9-208.9s208.9,93.5,208.9,208.9c0,0.1,0,0.1,0,0.2h96c0-0.1,0-0.1,0-0.2
	c0-168.4-136.5-304.9-304.9-304.9S55,191.9,55,360.3c0,66.9,21.6,128.8,58.1,179.1l77.8-56.3C165.9,448.6,151,406.2,151,360.3z"/>
<path class="st2" d="M243.2,411.5c-5-2.8-8.9-6.9-11.6-12.2c-2.7-5.3-4-11.8-4-19.3v-0.1c0-4.3,0.5-8.9,1.6-13.7s2.6-9.6,4.5-14.4
	c0.3-0.8,0.7-1.6,1-2.4c0.4-0.8,0.7-1.6,1.1-2.3l24.9-50.9h21.5l-29.3,59l-2.8-2.9c1.4-2.5,3.3-4.5,5.9-5.9c2.6-1.4,5.6-2.1,9.1-2.1
	c6.3,0,11.7,1.4,16.2,4.1c4.5,2.8,7.9,6.8,10.3,12.1c2.4,5.3,3.5,11.6,3.5,19.1v0.1c0,7.6-1.3,14.1-4,19.5s-6.5,9.5-11.6,12.4
	c-5.1,2.8-11.2,4.2-18.3,4.2C254.3,415.7,248.3,414.3,243.2,411.5z M272.1,392.8c2.5-2.8,3.7-6.7,3.7-11.9v-0.1
	c0-5.7-1.3-10.2-3.8-13.3c-2.6-3.1-6.2-4.7-11-4.7c-4.4,0-7.9,1.6-10.3,4.7c-2.4,3.1-3.6,7.6-3.6,13.3v0.1c0,5.2,1.2,9.1,3.7,11.8
	c2.5,2.7,6,4.1,10.6,4.1C266,397,269.6,395.6,272.1,392.8z"/>
<path class="st2" d="M324.5,406.8c-5.9-5.9-8.8-14.2-8.8-24.7v-53.8c0-10.6,3-18.9,8.9-24.8s14.5-8.8,25.7-8.8
	c11.3,0,19.9,2.9,25.8,8.8s8.8,14.1,8.8,24.8v53.8c0,10.6-3,18.9-8.9,24.8s-14.5,8.8-25.7,8.8C338.9,415.7,330.3,412.7,324.5,406.8z
	 M361.7,392.5c2.4-3.1,3.7-7.5,3.7-13.2v-48.1c0-5.7-1.2-10.2-3.7-13.2c-2.4-3.1-6.3-4.6-11.5-4.6s-9,1.5-11.5,4.6
	c-2.4,3.1-3.7,7.5-3.7,13.2v48.1c0,5.8,1.2,10.2,3.7,13.2s6.3,4.6,11.5,4.6C355.4,397.1,359.2,395.5,361.7,392.5z"/>
<path class="st2" d="M412.7,346.8c-3.6-3.7-5.4-8.8-5.4-15.3v-10.2c0-6.6,1.8-11.7,5.4-15.3s8.6-5.5,15.1-5.5
	c6.6,0,11.6,1.8,15.2,5.5s5.3,8.8,5.3,15.5v10c0,6.6-1.8,11.7-5.4,15.4c-3.6,3.6-8.6,5.5-15.1,5.5
	C421.3,352.2,416.3,350.4,412.7,346.8z M480.3,301.6h17.3l-63,118.3h-17.4L480.3,301.6z M431.4,335.9c0.8-1,1.3-2.5,1.3-4.4V321
	c0-1.8-0.4-3.2-1.3-4.2c-0.8-1-2-1.5-3.6-1.5s-2.8,0.5-3.6,1.5c-0.8,1-1.3,2.4-1.3,4.3v10.4c0,2,0.4,3.4,1.3,4.4
	c0.8,1,2,1.5,3.6,1.5C429.4,337.4,430.6,336.9,431.4,335.9z M471.5,415.6c-3.6-3.7-5.4-8.8-5.4-15.3v-10.2c0-6.6,1.8-11.7,5.4-15.3
	c3.6-3.7,8.6-5.5,15.1-5.5c6.6,0,11.6,1.8,15.2,5.5s5.3,8.8,5.3,15.5v10c0,6.6-1.8,11.7-5.4,15.4s-8.6,5.5-15.1,5.5
	C480.1,421.1,475.1,419.2,471.5,415.6z M490.3,404.7c0.8-1,1.3-2.5,1.3-4.4v-10.5c0-1.8-0.4-3.2-1.3-4.2c-0.8-1-2-1.5-3.6-1.5
	s-2.8,0.5-3.6,1.5c-0.8,1-1.3,2.4-1.3,4.3v10.4c0,2,0.4,3.4,1.3,4.4c0.8,1,2,1.5,3.6,1.5C488.2,406.2,489.4,405.7,490.3,404.7z"/>
</svg>
