<?xml version="1.0" encoding="utf-8"?>
<!-- Generator: Adobe Illustrator 28.0.0, SVG Export Plug-In . SVG Version: 6.00 Build 0)  -->
<svg version="1.1" id="Layer_1" xmlns:xodm="http://www.corel.com/coreldraw/odm/2003"
	 xmlns="http://www.w3.org/2000/svg" xmlns:xlink="http://www.w3.org/1999/xlink" x="0px" y="0px" viewBox="0 0 720 720"
	 style="enable-background:new 0 0 720 720;" xml:space="preserve">
<style type="text/css">
	.st0{fill-rule:evenodd;clip-rule:evenodd;}
</style>
<path class="st0" d="M367,72.6c-164.9,0-298.6,133.7-298.6,298.6S202.1,669.8,367,669.8s298.6-133.7,298.6-298.6
	S531.9,72.6,367,72.6z M367.5,411.8c-19.7,0-35.6-15.9-35.6-35.6c0-15.1,9.4-28,22.6-33.2l8.9-123.1h6l8.3,122.2
	c14.7,4.4,25.4,18,25.4,34.1C403.1,395.9,387.2,411.8,367.5,411.8z M648.5,383.2l-46.2-0.2c-1.2,28.7-6.9,55.4-16.3,79.6l38.5,19.6
	c1.6,0.8,2.3,2.8,1.4,4.4l-9.4,18.4c-0.8,1.6-2.8,2.3-4.4,1.4l-37.5-19.1c-14.1,26.4-33.1,49.1-55.8,67.4l25.9,37.1
	c1.1,1.5,0.7,3.6-0.8,4.6l-17,11.9c-1.5,1-3.6,0.7-4.6-0.8l-25.8-36.9c-24.5,15.3-52.3,26.2-82.4,31.9l-9.6-53.1
	c82.6-17.3,144.6-90.6,144.6-178.4c0-100.7-81.6-182.3-182.3-182.3s-182.3,81.6-182.3,182.3c0,89.5,64.5,164,149.6,179.3L324,603.3
	c-31.5-5.4-60.6-16.5-86.2-32.5l-25.7,36.8c-1,1.5-3.1,1.8-4.6,0.8l-17-11.9c-1.5-1-1.9-3.1-0.8-4.6l25.8-36.9
	c-22.8-18.4-41.8-41.1-56-67.4l-37.1,18.9c-1.6,0.9-3.6,0.2-4.4-1.4l-9.4-18.4c-0.9-1.6-0.2-3.6,1.4-4.5l38-19.3
	c-9.6-24.3-15.3-51.1-16.6-79.8L86,383.2c-1.8,0-3.3-1.5-3.3-3.3l-0.1-20.7c0-1.8,1.5-3.3,3.3-3.3l45.9-0.2
	c2-28.4,9.5-55.9,21.6-81.3l-44.4-22.7c-1.6-0.8-2.3-2.7-1.4-4.4l9.4-18.4c0.8-1.6,2.8-2.3,4.4-1.4l45,23
	c14-22.7,31.8-43.1,52.4-60.3l-29.8-42.6c-1.1-1.5-0.7-3.6,0.8-4.6l17-11.9c1.5-1,3.6-0.7,4.6,0.8l29.4,42
	c33-21.7,71.7-35.5,113.1-37.9V84.3c0-1.8,1.5-3.3,3.3-3.3h20.7c1.8,0,3.3,1.5,3.3,3.3v51.8c41.2,2.6,79.6,16.5,112.4,38.3
	l29.7-42.4c1-1.5,3.1-1.8,4.6-0.8l17,11.9c1.5,1,1.8,3.1,0.8,4.6l-30.1,43.1c20.3,17,37.7,37.1,51.6,59.4l44.4-22.6
	c1.6-0.9,3.6-0.2,4.4,1.4l9.4,18.4c0.8,1.7,0.2,3.6-1.5,4.4L580.1,274c12.2,25.6,19.8,53.3,21.9,81.7l46.6,0.2
	c1.8,0,3.3,1.5,3.3,3.3l-0.1,20.7C651.8,381.7,650.3,383.2,648.5,383.2z"/>
</svg>
