<?xml version="1.0" encoding="utf-8"?>
<!-- Generator: Adobe Illustrator 28.0.0, SVG Export Plug-In . SVG Version: 6.00 Build 0)  -->
<svg version="1.1" id="Layer_1" xmlns:xodm="http://www.corel.com/coreldraw/odm/2003"
	 xmlns="http://www.w3.org/2000/svg" xmlns:xlink="http://www.w3.org/1999/xlink" x="0px" y="0px" viewBox="0 0 720 720"
	 style="enable-background:new 0 0 720 720;" xml:space="preserve">
<style type="text/css">
	.st0{fill:none;stroke:#FFFFFF;stroke-width:1.019;stroke-miterlimit:10;}
	.st1{fill:none;}
	.st2{fill:#C10C0C;}
	.st3{fill:#FFFFFF;}
</style>
<polyline points="570.1,233.9 664,373.7 664.8,434 622.4,487.8 92,487.8 92,233.9 "/>
<line class="st0" x1="648.2" y1="427.2" x2="107.5" y2="427.2"/>
<g>
	<path d="M82.9,204.1"/>
	<path d="M82.9,515.9"/>
	<line class="st1" x1="167.2" y1="487.8" x2="168.8" y2="487.8"/>
	<path d="M84.5,514.3"/>
	<path d="M84.5,205.7"/>
	<path d="M168.7,233.9"/>
</g>
<g>
	<g>
		<path class="st2" d="M378.8,456.3l-10.9,15.9h6.3l11.2-15.8L374,439.1h-7L378.8,456.3z"/>
	</g>
</g>
<g>
	<g>
		<path class="st2" d="M393.9,456.3L383,472.2h6.3l11.2-15.8l-11.4-17.3H382L393.9,456.3z"/>
	</g>
</g>
<g>
	<g>
		<path class="st2" d="M409.1,456.3l-10.9,15.9h6.3l11.2-15.8l-11.4-17.3h-7.1L409.1,456.3z"/>
	</g>
</g>
<g>
	<g>
		<path class="st2" d="M424.2,456.3l-10.9,15.9h6.3l11.2-15.8l-11.4-17.3h-7.1L424.2,456.3z"/>
	</g>
</g>
<g>
	<g>
		<path class="st2" d="M439.4,456.3l-10.9,15.9h6.3l11.2-15.8l-11.4-17.3h-7.1L439.4,456.3z"/>
	</g>
</g>
<g>
	<g>
		<path class="st2" d="M454.5,456.3l-10.9,15.9h6.3l11.2-15.8l-11.4-17.3h-7.1L454.5,456.3z"/>
	</g>
</g>
<g>
	<g>
		<path class="st2" d="M469.7,456.3l-10.9,15.9h6.3l11.2-15.8l-11.4-17.3h-7.1L469.7,456.3z"/>
	</g>
</g>
<g>
	<g>
		<path class="st2" d="M484.8,456.3l-10.9,15.9h6.3l11.2-15.8L480,439.1h-7L484.8,456.3z"/>
	</g>
</g>
<g>
	<g>
		<path class="st2" d="M500,456.3l-10.9,15.9h6.3l11.2-15.8l-11.4-17.3h-7.1L500,456.3z"/>
	</g>
</g>
<g>
	<g>
		<path class="st2" d="M515.1,456.3l-10.9,15.9h6.3l11.2-15.8l-11.4-17.3h-7.1L515.1,456.3z"/>
	</g>
</g>
<g>
	<g>
		<path class="st2" d="M530.3,456.3l-10.9,15.9h6.3l11.2-15.8l-11.4-17.3h-7.1L530.3,456.3z"/>
	</g>
</g>
<g>
	<g>
		<path class="st2" d="M545.4,456.3l-10.9,15.9h6.3l11.2-15.8l-11.4-17.3h-7.1L545.4,456.3z"/>
	</g>
</g>
<g>
	<g>
		<path class="st2" d="M560.6,456.3l-10.9,15.9h6.3l11.2-15.8l-11.4-17.3h-7.1L560.6,456.3z"/>
	</g>
</g>
<g>
	<g>
		<path class="st2" d="M575.7,456.3l-10.9,15.9h6.3l11.2-15.8L571,439.1h-7.1L575.7,456.3z"/>
	</g>
</g>
<g>
	<g>
		<path class="st2" d="M590.9,456.3L580,472.2h6.3l11.2-15.8l-11.4-17.3H579L590.9,456.3z"/>
	</g>
</g>
<g>
	<g>
		<path class="st2" d="M606,456.3l-10.9,15.9h6.3l11.2-15.8l-11.4-17.3h-7.1L606,456.3z"/>
	</g>
</g>
<g>
	<g>
		<path class="st2" d="M137.1,456.3l-10.9,15.9h6.3l11.2-15.8l-11.4-17.3h-7.1L137.1,456.3z"/>
	</g>
</g>
<g>
	<g>
		<path class="st2" d="M152.2,456.3l-10.9,15.9h6.3l11.2-15.8l-11.4-17.3h-7.1L152.2,456.3z"/>
	</g>
</g>
<g>
	<g>
		<path class="st2" d="M167.4,456.3l-10.9,15.9h6.3l11.2-15.8l-11.4-17.3h-7.1L167.4,456.3z"/>
	</g>
</g>
<g>
	<g>
		<path class="st2" d="M182.5,456.3l-10.9,15.9h6.3l11.2-15.8l-11.4-17.3h-7.1L182.5,456.3z"/>
	</g>
</g>
<g>
	<g>
		<path class="st2" d="M197.7,456.3l-10.9,15.9h6.3l11.2-15.8l-11.4-17.3h-7.1L197.7,456.3z"/>
	</g>
</g>
<g>
	<g>
		<path class="st2" d="M212.8,456.3l-10.9,15.9h6.3l11.2-15.8L208,439.1h-7L212.8,456.3z"/>
	</g>
</g>
<g>
	<g>
		<path class="st2" d="M228,456.3l-10.9,15.9h6.3l11.2-15.8l-11.4-17.3h-7.1L228,456.3z"/>
	</g>
</g>
<g>
	<g>
		<path class="st2" d="M243.1,456.3l-10.9,15.9h6.3l11.2-15.8l-11.4-17.3h-7.1L243.1,456.3z"/>
	</g>
</g>
<g>
	<g>
		<path class="st2" d="M258.3,456.3l-10.9,15.9h6.3l11.2-15.8l-11.4-17.3h-7.1L258.3,456.3z"/>
	</g>
</g>
<g>
	<g>
		<path class="st2" d="M273.4,456.3l-10.9,15.9h6.3l11.2-15.8l-11.4-17.3h-7.1L273.4,456.3z"/>
	</g>
</g>
<g>
	<g>
		<path class="st2" d="M288.5,456.3l-10.9,15.9h6.3l11.2-15.8l-11.4-17.3h-7.1L288.5,456.3z"/>
	</g>
</g>
<g>
	<g>
		<path class="st2" d="M303.7,456.3l-10.9,15.9h6.3l11.2-15.8L299,439.1h-7.1L303.7,456.3z"/>
	</g>
</g>
<g>
	<g>
		<path class="st2" d="M318.8,456.3l-10.9,15.9h6.3l11.2-15.8L314,439.1h-7L318.8,456.3z"/>
	</g>
</g>
<g>
	<g>
		<path class="st2" d="M334,456.3l-10.9,15.9h6.3l11.2-15.8l-11.4-17.3h-7.1L334,456.3z"/>
	</g>
</g>
<g>
	<g>
		<path class="st2" d="M349.1,456.3l-10.9,15.9h6.3l11.2-15.8l-11.4-17.3h-7.1L349.1,456.3z"/>
	</g>
</g>
<g>
	<g>
		<path class="st2" d="M364.3,456.3l-10.9,15.9h6.3l11.2-15.8l-11.4-17.3h-7.1L364.3,456.3z"/>
	</g>
</g>
<polygon points="84.5,489.5 60.3,459.3 60.3,264 84.5,233.9 "/>
<path class="st3" d="M130.6,333.5l-8.8-8.8v-52.5l8.8-8.8h39.5l8.8,8.8v17.5h-17.5V281h-21.9v35h21.9v-8.8h17.5v17.5l-8.8,8.8H130.6
	z"/>
<path class="st3" d="M212.4,287.5L198,333.4h-17l21.9-70h18.9l21.9,70h-17L212.4,287.5z"/>
<path class="st3" d="M265.5,263.4v52.5h21.8v-52.5h17.5v61.3l-8.8,8.8h-39.4l-8.8-8.8v-61.3H265.5z"/>
<path class="st3" d="M332.7,281h-20.5v-17.5h56.9V281h-19v52.5h-17.4V281z"/>
<path class="st3" d="M394.4,263.4v70.1h-17.5v-70.1H394.4z"/>
<path class="st3" d="M410.6,333.5l-8.8-8.8v-52.5l8.8-8.8h39.4l8.8,8.8v52.5l-8.8,8.8H410.6z M419.4,281v35h21.8v-35H419.4z"/>
<path class="st3" d="M467.2,263.4h16.1l27.7,47.5v-47.5h17.5v70.1H508l-23.3-40v40h-17.5V263.4z"/>
<path class="st3" d="M555.9,263.4v48.1h-17.5v-48.1H555.9z M555.9,315.9v17.5h-17.5v-17.5H555.9z"/>
<path class="st3" d="M133.8,361.2l5.9,9.5l5.9-9.5h11.9l-11.9,19l11.9,19.1h-11.1l-6.4-10.1l-6.3,10.1h-11.9l12.3-19.7l-11.5-18.4
	H133.8z"/>
<path class="st3" d="M182.5,377.6v8.8h-24.2v-8.8H182.5z"/>
<path class="st3" d="M195,384.9v14.3h-9.5v-38.1h26.2l4.8,4.8v14.2l-4.8,4.8h-3.5l8.3,14.3h-9.5l-8.3-14.3H195z M195,370.7v4.7h11.9
	v-4.7H195z"/>
<path class="st3" d="M234.2,374.2l-7.8,24.9h-9.2l11.9-38h10.3l11.9,38H242L234.2,374.2z"/>
<path class="st3" d="M256.3,380.2l-11.9-19h9.5l7.1,11.4l6.7-11.4h9.2l-11.1,19v19.1h-9.5V380.2z"/>
<path class="st3" d="M303.8,384.9v14.3h-9.5v-38.1h26.2l4.8,4.8v14.2l-4.8,4.8h-3.5l8.3,14.3h-9.5l-8.3-14.3H303.8z M303.8,370.7
	v4.7h11.9v-4.7H303.8z"/>
<path class="st3" d="M343,374.2l-7.8,24.9h-9.2l11.9-38h10.3l11.9,38h-9.2L343,374.2z"/>
<path class="st3" d="M362.3,399.2v-38.1h26.2l4.8,4.8v28.5l-4.8,4.8H362.3z M371.8,370.6v19h11.9v-19H371.8z"/>
<path class="st3" d="M407.4,361.2v38.1h-9.5v-38.1H407.4z"/>
<path class="st3" d="M425.5,374.2l-7.8,24.9h-9.2l11.9-38h10.3l11.9,38h-9.2L425.5,374.2z"/>
<path class="st3" d="M449.2,370.7h-11.1v-9.5H469v9.5h-10.3v28.5h-9.5V370.7z"/>
<path class="st3" d="M482.7,361.2v38.1h-9.5v-38.1H482.7z"/>
<path class="st3" d="M491.5,399.2l-4.8-4.8v-28.5l4.8-4.8h21.4l4.8,4.8v28.5l-4.8,4.8H491.5z M496.3,370.7v19h11.9v-19H496.3z"/>
<path class="st3" d="M522.3,361.2h8.7l15,25.8v-25.8h9.5v38.1h-11.1l-12.6-21.8v21.8h-9.5V361.2z"/>
</svg>
