<?xml version="1.0" encoding="utf-8"?>
<!-- Generator: Adobe Illustrator 28.0.0, SVG Export Plug-In . SVG Version: 6.00 Build 0)  -->
<svg version="1.1" id="Layer_1" xmlns:xodm="http://www.corel.com/coreldraw/odm/2003"
	 xmlns="http://www.w3.org/2000/svg" xmlns:xlink="http://www.w3.org/1999/xlink" x="0px" y="0px" viewBox="0 0 720 720"
	 style="enable-background:new 0 0 720 720;" xml:space="preserve">
<style type="text/css">
	.st0{opacity:0.5;}
</style>
<g>
	<ellipse cx="580.2" cy="359.5" rx="74.1" ry="34.3"/>
	<ellipse transform="matrix(0.809 -0.5878 0.5878 0.809 -32.3152 360.1304)" cx="538" cy="229.8" rx="74.1" ry="34.3"/>
	<ellipse transform="matrix(0.309 -0.9511 0.9511 0.309 153.2207 510.15)" cx="427.7" cy="149.6" rx="74.1" ry="34.3"/>
	
		<ellipse transform="matrix(0.9511 -0.309 0.309 0.9511 -31.9805 97.3429)" class="st0" cx="291.3" cy="149.6" rx="34.3" ry="74.1"/>
	<ellipse transform="matrix(0.5878 -0.809 0.809 0.5878 -111.3065 241.135)" class="st0" cx="181" cy="229.8" rx="34.3" ry="74.1"/>
	<ellipse class="st0" cx="138.8" cy="359.5" rx="74.1" ry="34.3"/>
	
		<ellipse transform="matrix(0.809 -0.5878 0.5878 0.809 -252.9857 199.8039)" class="st0" cx="181" cy="489.2" rx="74.1" ry="34.3"/>
	
		<ellipse transform="matrix(0.309 -0.9511 0.9511 0.309 -340.2136 670.4764)" class="st0" cx="291.3" cy="569.4" rx="74.1" ry="34.3"/>
	<ellipse transform="matrix(0.9511 -0.309 0.309 0.9511 -155.0124 160.0307)" cx="427.7" cy="569.4" rx="34.3" ry="74.1"/>
	<ellipse transform="matrix(0.5878 -0.809 0.809 0.5878 -173.9943 636.9306)" cx="538" cy="489.2" rx="34.3" ry="74.1"/>
	<g>
		<path d="M261.8,386.9c0-3.2,0.4-6.7,1.3-10.5h10.7v7.4c0,4.3,0.6,7.4,1.9,9.3c1.3,1.9,3.3,2.8,6.2,2.8c2.9,0,5-1,6.2-3.1
			c1.2-2.1,1.8-5.1,1.8-9v-17.5c0-2.3-0.2-4.1-0.6-5.5c-0.4-1.4-0.9-2.5-1.6-3.3c-0.7-0.8-1.5-1.3-2.4-1.6c-0.9-0.3-1.9-0.4-2.9-0.4
			c-2,0-3.7,0.6-5.1,1.7c-1.4,1.1-2.6,2.5-3.5,4h-10.1v-46.3h39V327h-27.5v22.4c1.5-1.7,3.4-3,5.6-4c2.2-1,4.6-1.4,7-1.4
			c5.6,0,9.8,1.9,12.4,5.7c2.6,3.8,3.9,9.4,3.9,16.7v15.4c0,4.7-0.6,8.6-1.8,11.7c-1.2,3.1-2.8,5.6-4.8,7.5c-2,1.9-4.3,3.2-6.9,4.1
			c-2.6,0.8-5.3,1.2-8,1.2c-3.4,0-6.3-0.5-8.9-1.4c-2.6-0.9-4.8-2.2-6.5-3.9c-1.7-1.7-3.1-3.7-4-6.1
			C262.3,392.5,261.8,389.8,261.8,386.9z"/>
		<path d="M315.4,340.7c0-4,0.4-7.4,1.1-10.3c0.7-2.9,1.7-5.3,2.9-7.3c1.2-2,2.6-3.6,4.1-4.8c1.6-1.2,3.2-2.1,4.8-2.8
			c1.6-0.7,3.3-1.1,4.9-1.3c1.6-0.2,3.2-0.3,4.5-0.3c1.3,0,2.8,0.1,4.4,0.3c1.6,0.2,3.2,0.6,4.9,1.2c1.6,0.6,3.2,1.5,4.8,2.7
			c1.5,1.2,2.9,2.8,4.1,4.8c1.2,2,2.1,4.4,2.9,7.3c0.7,2.9,1.1,6.4,1.1,10.4v38.3c0,4-0.4,7.4-1.1,10.3c-0.7,2.9-1.7,5.3-2.9,7.4
			c-1.2,2-2.6,3.7-4.1,4.9c-1.6,1.3-3.2,2.2-4.8,2.9c-1.6,0.7-3.2,1.2-4.9,1.4c-1.6,0.2-3.1,0.4-4.3,0.4c-1.4,0-3-0.1-4.6-0.4
			c-1.7-0.3-3.3-0.7-5-1.4c-1.7-0.7-3.3-1.7-4.8-2.9c-1.5-1.2-2.9-2.9-4.1-4.9c-1.2-2-2.1-4.5-2.8-7.4c-0.7-2.9-1.1-6.3-1.1-10.3
			V340.7z M329.4,384.9c0,3.8,0.7,6.5,2,8.2c1.4,1.7,3.4,2.5,6.2,2.5c2.7,0,4.8-0.9,6.1-2.5c1.3-1.7,2-4.4,2-8.2v-49.1
			c0-4-0.7-6.9-2-8.7c-1.3-1.8-3.4-2.7-6.1-2.7c-2.8,0-4.9,0.9-6.2,2.7c-1.4,1.8-2,4.7-2,8.7V384.9z"/>
		<path d="M390.8,363.8c-2,0-4-0.3-6.1-0.9c-2-0.6-3.9-1.7-5.5-3.3c-1.6-1.6-3-4-4-7c-1-3-1.5-7-1.5-11.9V335c0-3.2,0.2-6,0.7-8.4
			c0.5-2.4,1.2-4.4,2-6c0.9-1.7,1.9-3,3-4c1.1-1,2.3-1.8,3.6-2.4c1.3-0.6,2.6-1,3.9-1.2c1.3-0.2,2.6-0.3,3.9-0.3
			c1.2,0,2.5,0.1,3.8,0.3c1.3,0.2,2.6,0.6,3.9,1.1c1.3,0.6,2.5,1.4,3.6,2.4c1.1,1,2.1,2.3,3,4c0.9,1.7,1.5,3.7,2,6.1
			c0.5,2.4,0.7,5.2,0.7,8.4v5.7c0,4.8-0.5,8.8-1.6,11.8c-1.1,3-2.5,5.4-4.2,7c-1.7,1.7-3.5,2.8-5.5,3.4S392.6,363.8,390.8,363.8z
			 M390.9,355.3c2.2,0,3.8-1,4.7-2.9c0.9-1.9,1.3-4.9,1.3-9v-10.3c0-4.1-0.4-7.1-1.3-9.1c-0.9-1.9-2.4-2.9-4.7-2.9
			c-2.3,0-4,1-4.9,2.9c-0.9,1.9-1.4,5-1.4,9.1v10.3c0,4.1,0.5,7.1,1.4,9C387,354.4,388.6,355.3,390.9,355.3z M423,313.8h9.6
			l-24.4,91.7h-9.7L423,313.8z M423.1,377.5c0-4.8,0.5-8.7,1.6-11.7c1.1-2.9,2.5-5.2,4.1-6.7c1.7-1.6,3.5-2.6,5.5-3.1
			c2-0.5,4-0.8,5.8-0.8c1.2,0,2.5,0.1,3.8,0.3c1.3,0.2,2.6,0.6,3.9,1.1c1.3,0.6,2.5,1.4,3.6,2.4c1.1,1,2.1,2.3,3,4
			c0.9,1.7,1.5,3.7,2,6.1c0.5,2.4,0.7,5.2,0.7,8.4v5.7c0,3.3-0.3,6.1-0.8,8.5c-0.5,2.4-1.2,4.5-2.1,6.2c-0.9,1.7-1.9,3.1-3,4.2
			c-1.1,1.1-2.3,2-3.6,2.6c-1.3,0.6-2.5,1.1-3.9,1.3c-1.3,0.2-2.5,0.3-3.7,0.3c-1.3,0-2.7-0.1-4.1-0.3c-1.4-0.2-2.7-0.6-3.9-1.2
			c-1.3-0.6-2.4-1.5-3.6-2.6c-1.1-1.1-2.1-2.5-2.9-4.2c-0.8-1.7-1.5-3.8-1.9-6.2c-0.5-2.4-0.7-5.3-0.7-8.6V377.5z M434,386
			c0,4.1,0.5,7.1,1.4,9s2.6,2.9,4.9,2.9c2.2,0,3.8-1,4.7-2.9s1.3-4.9,1.3-9v-10.3c0-4.1-0.4-7.1-1.3-9.1c-0.9-1.9-2.4-2.9-4.7-2.9
			c-2.3,0-4,1-4.9,2.9c-0.9,1.9-1.4,5-1.4,9.1V386z"/>
	</g>
</g>
</svg>
