<?xml version="1.0" encoding="utf-8"?>
<!-- Generator: Adobe Illustrator 28.0.0, SVG Export Plug-In . SVG Version: 6.00 Build 0)  -->
<svg version="1.1" id="Layer_1" xmlns:xodm="http://www.corel.com/coreldraw/odm/2003"
	 xmlns="http://www.w3.org/2000/svg" xmlns:xlink="http://www.w3.org/1999/xlink" x="0px" y="0px" viewBox="0 0 720 720"
	 style="enable-background:new 0 0 720 720;" xml:space="preserve">
<style type="text/css">
	.st0{fill:#C02026;}
	.st1{opacity:0.5;}
</style>
<g>
	<path class="st0" d="M649.6,388H70.9c-17.8,0-32.2-14.4-32.2-32.2l0,0c0-17.8,14.4-32.2,32.2-32.2h578.7
		c17.8,0,32.2,14.4,32.2,32.2l0,0C681.8,373.5,667.4,388,649.6,388z M70.9,328.8c-14.8,0-27,12.1-27,27l0,0c0,14.8,12.1,27,27,27
		h578.7c14.8,0,27-12.1,27-27l0,0c0-14.8-12.1-27-27-27H70.9z"/>
</g>
<g>
	<g>
		<path class="st0" d="M65.6,330.7l-16.8,37.9c-2.1-3.6-3.3-7.8-3.5-12.2l8.9-20C57.5,333.6,61.4,331.7,65.6,330.7z"/>
	</g>
</g>
<g>
	<g>
		<path class="st0" d="M52.9,337.6l-7.6,17.1C45.7,348,48.5,342,52.9,337.6z"/>
	</g>
</g>
<g>
	<g>
		<path class="st0" d="M76.6,330.2l-20.5,46.3c-2.4-1.7-4.5-3.8-6.1-6.2l17.7-39.9L76.6,330.2z"/>
	</g>
</g>
<g>
	<g>
		<path class="st0" d="M87.3,330.2L87.3,330.2l-22.4,50.4c-2.7-0.6-5.2-1.7-7.5-3.2l21-47.2l0,0H87.3z"/>
	</g>
</g>
<g>
	<g>
		<polygon class="st0" points="75.3,381.3 66.4,381.3 89,330.2 97.9,330.2 		"/>
	</g>
</g>
<g>
	<g>
		<polygon class="st0" points="86,381.3 77.1,381.3 99.7,330.2 108.6,330.2 		"/>
	</g>
</g>
<g>
	<g>
		<polygon class="st0" points="96.6,381.3 87.7,381.3 110.4,330.2 119.3,330.2 		"/>
	</g>
</g>
<g>
	<g>
		<polygon class="st0" points="107.3,381.3 98.4,381.3 121,330.2 129.9,330.2 		"/>
	</g>
</g>
<g>
	<g>
		<polygon class="st0" points="118,381.3 109.1,381.3 131.8,330.2 140.6,330.2 		"/>
	</g>
</g>
<g>
	<g>
		<polygon class="st0" points="128.6,381.3 119.7,381.3 142.4,330.2 151.3,330.2 		"/>
	</g>
</g>
<g>
	<g>
		<polygon class="st0" points="139.3,381.3 130.4,381.3 153.1,330.2 161.9,330.2 		"/>
	</g>
</g>
<g>
	<g>
		<polygon class="st0" points="150,381.3 141.1,381.3 163.8,330.2 172.7,330.2 		"/>
	</g>
</g>
<g>
	<g>
		<polygon class="st0" points="160.6,381.3 151.7,381.3 174.4,330.2 183.4,330.2 		"/>
	</g>
</g>
<g>
	<g>
		<polygon class="st0" points="171.3,381.3 162.5,381.3 185.1,330.2 194,330.2 		"/>
	</g>
</g>
<g>
	<g>
		<polygon class="st0" points="182,381.3 173.1,381.3 195.8,330.2 204.7,330.2 		"/>
	</g>
</g>
<g>
	<g>
		<polygon class="st0" points="192.6,381.3 183.8,381.3 206.4,330.2 215.4,330.2 		"/>
	</g>
</g>
<g>
	<g>
		<polygon class="st0" points="203.4,381.3 194.5,381.3 217.1,330.2 226,330.2 		"/>
	</g>
</g>
<g>
	<g>
		<polygon class="st0" points="214.1,381.3 205.1,381.3 227.8,330.2 236.7,330.2 		"/>
	</g>
</g>
<g>
	<g>
		<polygon class="st0" points="224.7,381.3 215.8,381.3 238.4,330.2 247.4,330.2 		"/>
	</g>
</g>
<g>
	<g>
		<polygon class="st0" points="235.4,381.3 226.5,381.3 249.1,330.2 258,330.2 		"/>
	</g>
</g>
<g>
	<g>
		<polygon class="st0" points="246.1,381.3 237.1,381.3 259.8,330.2 268.7,330.2 		"/>
	</g>
</g>
<g>
	<g>
		<polygon class="st0" points="256.7,381.3 247.8,381.3 270.4,330.2 279.4,330.2 		"/>
	</g>
</g>
<g>
	<g>
		<polygon class="st0" points="267.4,381.3 258.5,381.3 281.2,330.2 290,330.2 		"/>
	</g>
</g>
<g>
	<g>
		<polygon class="st0" points="278.1,381.3 269.1,381.3 291.9,330.2 300.7,330.2 		"/>
	</g>
</g>
<g>
	<g>
		<polygon class="st0" points="288.7,381.3 279.8,381.3 302.5,330.2 311.3,330.2 		"/>
	</g>
</g>
<g>
	<g>
		<polygon class="st0" points="299.4,381.3 290.5,381.3 313.2,330.2 322.1,330.2 		"/>
	</g>
</g>
<g>
	<g>
		<polygon class="st0" points="310.1,381.3 301.1,381.3 323.9,330.2 332.8,330.2 		"/>
	</g>
</g>
<g>
	<g>
		<polygon class="st0" points="320.7,381.3 311.9,381.3 334.5,330.2 343.4,330.2 		"/>
	</g>
</g>
<g>
	<g>
		<polygon class="st0" points="331.4,381.3 322.6,381.3 345.2,330.2 354.1,330.2 		"/>
	</g>
</g>
<g>
	<g>
		<polygon class="st0" points="342.1,381.3 333.2,381.3 355.9,330.2 364.8,330.2 		"/>
	</g>
</g>
<g>
	<g>
		<polygon class="st0" points="352.8,381.3 343.9,381.3 366.5,330.2 375.4,330.2 		"/>
	</g>
</g>
<g>
	<g>
		<polygon class="st0" points="363.5,381.3 354.6,381.3 377.2,330.2 386.1,330.2 		"/>
	</g>
</g>
<g>
	<g>
		<polygon class="st0" points="374.1,381.3 365.2,381.3 387.9,330.2 396.8,330.2 		"/>
	</g>
</g>
<g>
	<g>
		<polygon class="st0" points="384.8,381.3 375.9,381.3 398.5,330.2 407.4,330.2 		"/>
	</g>
</g>
<g>
	<g>
		<polygon class="st0" points="395.5,381.3 386.6,381.3 409.2,330.2 418.1,330.2 		"/>
	</g>
</g>
<g>
	<g>
		<polygon class="st0" points="406.1,381.3 397.2,381.3 419.9,330.2 428.8,330.2 		"/>
	</g>
</g>
<g>
	<g>
		<polygon class="st0" points="416.8,381.3 407.9,381.3 430.6,330.2 439.4,330.2 		"/>
	</g>
</g>
<g class="st1">
	<g>
		<polygon class="st0" points="427.5,381.3 418.6,381.3 441.3,330.2 450.1,330.2 		"/>
	</g>
</g>
<g class="st1">
	<g>
		<polygon class="st0" points="438.1,381.3 429.2,381.3 452,330.2 460.8,330.2 		"/>
	</g>
</g>
<g class="st1">
	<g>
		<polygon class="st0" points="448.8,381.3 439.9,381.3 462.6,330.2 471.5,330.2 		"/>
	</g>
</g>
<g class="st1">
	<g>
		<polygon class="st0" points="459.5,381.3 450.6,381.3 473.3,330.2 482.2,330.2 		"/>
	</g>
</g>
<g class="st1">
	<g>
		<polygon class="st0" points="470.1,381.3 461.3,381.3 484,330.2 492.9,330.2 		"/>
	</g>
</g>
<g class="st1">
	<g>
		<polygon class="st0" points="480.8,381.3 472,381.3 494.6,330.2 503.5,330.2 		"/>
	</g>
</g>
<g class="st1">
	<g>
		<polygon class="st0" points="491.5,381.3 482.7,381.3 505.3,330.2 514.2,330.2 		"/>
	</g>
</g>
<g class="st1">
	<g>
		<polygon class="st0" points="502.2,381.3 493.3,381.3 516,330.2 524.9,330.2 		"/>
	</g>
</g>
<g class="st1">
	<g>
		<polygon class="st0" points="512.9,381.3 504,381.3 526.6,330.2 535.5,330.2 		"/>
	</g>
</g>
<g class="st1">
	<g>
		<polygon class="st0" points="523.6,381.3 514.7,381.3 537.3,330.2 546.2,330.2 		"/>
	</g>
</g>
<g class="st1">
	<g>
		<polygon class="st0" points="534.2,381.3 525.3,381.3 548,330.2 556.9,330.2 		"/>
	</g>
</g>
<g class="st1">
	<g>
		<polygon class="st0" points="544.9,381.3 536,381.3 558.6,330.2 567.5,330.2 		"/>
	</g>
</g>
<g class="st1">
	<g>
		<polygon class="st0" points="555.6,381.3 546.7,381.3 569.4,330.2 578.2,330.2 		"/>
	</g>
</g>
<g class="st1">
	<g>
		<polygon class="st0" points="566.2,381.3 557.3,381.3 580.1,330.2 588.9,330.2 		"/>
	</g>
</g>
<g class="st1">
	<g>
		<polygon class="st0" points="576.9,381.3 568,381.3 590.7,330.2 599.5,330.2 		"/>
	</g>
</g>
<g class="st1">
	<g>
		<polygon class="st0" points="587.6,381.3 578.7,381.3 601.4,330.2 610.2,330.2 		"/>
	</g>
</g>
<g class="st1">
	<g>
		<polygon class="st0" points="598.2,381.3 589.3,381.3 612.1,330.2 621,330.2 		"/>
	</g>
</g>
<g class="st1">
	<g>
		<polygon class="st0" points="608.9,381.3 600,381.3 622.7,330.2 631.6,330.2 		"/>
	</g>
</g>
<g class="st1">
	<g>
		<polygon class="st0" points="619.6,381.3 610.8,381.3 633.4,330.2 642.3,330.2 		"/>
	</g>
</g>
<g class="st1">
	<g>
		<polygon class="st0" points="630.2,381.3 621.4,381.3 644.1,330.2 653,330.2 		"/>
	</g>
</g>
<g class="st1">
	<g>
		<path class="st0" d="M662.1,333.5l-21.2,47.9l0,0H632l0,0l22.4-50.6C657.2,331.2,659.8,332.1,662.1,333.5z"/>
	</g>
</g>
<g class="st1">
	<g>
		<path class="st0" d="M669.8,340.1l-18.2,41.1l-0.1,0.1h-8.9l0,0l20.8-47C665.9,335.9,668.1,337.9,669.8,340.1z"/>
	</g>
</g>
<g class="st1">
	<g>
		<path class="st0" d="M675,352.6l-10.7,24c-3.2,2.2-6.9,3.8-10.9,4.4l17.4-39.3C673.1,344.9,674.6,348.6,675,352.6z"/>
	</g>
</g>
<g class="st1">
	<g>
		<path class="st0" d="M675.2,355.8c0,7.7-3.4,14.7-8.8,19.3l8.8-19.8C675.2,355.3,675.2,355.6,675.2,355.8z"/>
	</g>
</g>
<path class="st0" d="M338.2,305c0-1,0.1-1.9,0.3-2.6c0.2-0.7,0.5-1.3,0.7-1.8c0.3-0.5,0.6-0.8,1-1.2c0.4-0.3,0.8-0.5,1.2-0.6
	c0.4-0.2,0.8-0.3,1.2-0.3s0.7-0.1,1.1-0.1c0.8,0,1.7,0.1,2.2,0.4c0.6,0.2,1.1,0.6,1.5,0.9c0.4,0.4,0.6,0.8,0.8,1.3
	c0.2,0.5,0.3,1,0.3,1.6c0,0.3,0,0.6-0.1,1c-0.1,0.4-0.2,0.7-0.3,1.1h-2.5v-0.6c0-0.6,0-1.2-0.1-1.6c-0.1-0.4-0.2-0.7-0.4-1
	c-0.2-0.3-0.4-0.4-0.6-0.5c-0.3-0.1-0.6-0.1-0.9-0.1c-0.7,0-1.3,0.3-1.7,0.7c-0.4,0.5-0.6,1.3-0.6,2.4v4.2c0.3-0.4,0.7-0.6,1.3-0.9
	c0.6-0.3,1.1-0.4,1.9-0.4c0.5,0,1,0.1,1.5,0.3c0.5,0.2,0.9,0.5,1.4,0.8c0.4,0.4,0.7,0.9,1,1.7c0.3,0.6,0.4,1.6,0.4,2.7v2.1
	c0,1.2-0.1,2.1-0.4,3c-0.3,0.8-0.6,1.5-1,1.9c-0.5,0.5-1,0.8-1.7,1.1c-0.6,0.2-1.4,0.4-2.1,0.4c-0.9,0-1.7-0.1-2.4-0.4
	c-0.6-0.3-1.3-0.6-1.8-1.1c-0.5-0.6-0.8-1.2-1.1-2c-0.3-0.8-0.4-1.9-0.4-3.1V305H338.2z M341.6,315.2c0,1,0.2,1.8,0.6,2.2
	c0.4,0.5,0.9,0.7,1.7,0.7c0.6,0,1.1-0.3,1.5-0.7c0.3-0.5,0.5-1.2,0.5-2.1v-3.2c0-0.6-0.1-0.9-0.2-1.3c-0.1-0.4-0.2-0.6-0.4-0.8
	c-0.2-0.2-0.4-0.4-0.6-0.5c-0.3-0.1-0.5-0.2-0.8-0.2c-0.2,0-0.5,0-0.6,0.1c-0.2,0.1-0.4,0.2-0.6,0.3c-0.2,0.1-0.4,0.3-0.5,0.4
	c-0.2,0.2-0.3,0.3-0.4,0.5L341.6,315.2L341.6,315.2z"/>
<path class="st0" d="M351.6,305c0-0.9,0.1-1.8,0.3-2.5c0.2-0.6,0.4-1.3,0.6-1.8c0.3-0.5,0.6-0.8,1-1.1c0.4-0.3,0.7-0.6,1.1-0.6
	c0.4-0.2,0.8-0.3,1.2-0.3c0.4-0.1,0.7-0.1,1.1-0.1c0.3,0,0.6,0,1,0.1c0.4,0.1,0.7,0.2,1.2,0.3c0.4,0.2,0.7,0.4,1.1,0.6
	c0.4,0.3,0.7,0.6,1,1.1c0.3,0.5,0.6,1,0.6,1.8c0.2,0.7,0.3,1.6,0.3,2.5v9.2c0,0.9-0.1,1.8-0.3,2.5c-0.2,0.6-0.4,1.3-0.7,1.8
	c-0.3,0.5-0.6,0.8-1,1.2c-0.4,0.3-0.7,0.6-1.1,0.7c-0.4,0.2-0.7,0.3-1.2,0.4c-0.4,0.1-0.7,0.1-1,0.1c-0.4,0-0.7,0-1.1-0.1
	c-0.4-0.1-0.8-0.2-1.2-0.4c-0.4-0.2-0.7-0.4-1.1-0.6c-0.4-0.3-0.6-0.6-1-1.2c-0.3-0.5-0.5-1.1-0.6-1.8c-0.2-0.7-0.3-1.5-0.3-2.5
	L351.6,305L351.6,305z M355,315.5c0,0.9,0.2,1.6,0.5,1.9c0.4,0.4,0.8,0.6,1.5,0.6c0.6,0,1.1-0.2,1.5-0.6c0.3-0.4,0.5-1,0.5-1.9
	v-11.8c0-0.9-0.2-1.7-0.5-2c-0.3-0.5-0.8-0.6-1.5-0.6c-0.6,0-1.2,0.2-1.5,0.6c-0.4,0.5-0.5,1.1-0.5,2V315.5z"/>
<path class="st0" d="M369.8,310.5c-0.5,0-0.9-0.1-1.5-0.2c-0.5-0.1-0.9-0.4-1.3-0.8c-0.4-0.4-0.7-0.9-0.9-1.7
	c-0.3-0.7-0.4-1.7-0.4-2.9v-1.4c0-0.7,0.1-1.5,0.2-2c0.1-0.6,0.3-1,0.5-1.5c0.2-0.4,0.5-0.7,0.7-0.9c0.3-0.3,0.6-0.5,0.8-0.6
	s0.6-0.2,0.9-0.3c0.3-0.1,0.6-0.1,0.9-0.1s0.6,0,0.9,0.1c0.3,0.1,0.6,0.1,0.9,0.3c0.3,0.1,0.6,0.4,0.8,0.6c0.3,0.3,0.6,0.6,0.7,0.9
	c0.2,0.4,0.4,0.9,0.5,1.5c0.1,0.6,0.2,1.2,0.2,2v1.4c0,1.2-0.1,2.1-0.4,2.9s-0.6,1.3-1,1.7c-0.4,0.4-0.8,0.6-1.3,0.8
	C370.6,310.4,370.2,310.5,369.8,310.5z M369.8,308.5c0.6,0,0.9-0.3,1.1-0.7c0.2-0.5,0.3-1.2,0.3-2.1v-2.5c0-1-0.1-1.7-0.3-2.2
	c-0.2-0.5-0.6-0.7-1.1-0.7s-0.9,0.3-1.2,0.7c-0.2,0.5-0.4,1.2-0.4,2.2v2.5c0,1,0.1,1.7,0.4,2.1C368.9,308.2,369.2,308.5,369.8,308.5
	z M377.5,298.5h2.3l-5.8,22.1h-2.3L377.5,298.5z M377.6,313.8c0-1.2,0.1-2.1,0.4-2.8c0.3-0.7,0.6-1.2,1-1.6c0.5-0.4,0.8-0.6,1.3-0.7
	c0.5-0.1,0.9-0.2,1.4-0.2c0.3,0,0.6,0,0.9,0.1c0.3,0.1,0.6,0.1,0.9,0.3c0.3,0.1,0.6,0.4,0.8,0.6c0.3,0.3,0.6,0.6,0.7,0.9
	c0.2,0.4,0.4,0.9,0.5,1.5c0.1,0.6,0.2,1.2,0.2,2v1.4c0,0.7-0.1,1.5-0.2,2c-0.1,0.6-0.3,1.1-0.5,1.5c-0.2,0.4-0.5,0.7-0.7,1
	c-0.3,0.3-0.6,0.5-0.8,0.6s-0.6,0.3-0.9,0.3c-0.3,0.1-0.6,0.1-0.9,0.1s-0.6,0-1-0.1s-0.6-0.2-0.9-0.3c-0.3-0.2-0.6-0.4-0.8-0.6
	s-0.5-0.6-0.7-1c-0.2-0.4-0.4-0.9-0.5-1.5c-0.1-0.6-0.2-1.3-0.2-2L377.6,313.8L377.6,313.8z M380.2,315.8c0,1,0.1,1.7,0.4,2.1
	c0.2,0.5,0.6,0.6,1.2,0.6c0.6,0,0.9-0.2,1.1-0.6c0.2-0.5,0.3-1.2,0.3-2.1v-2.5c0-1-0.1-1.7-0.3-2.2c-0.2-0.5-0.6-0.7-1.1-0.7
	s-0.9,0.3-1.2,0.7c-0.2,0.5-0.4,1.2-0.4,2.2V315.8z"/>
</svg>
