<?xml version="1.0" encoding="utf-8"?>
<!-- Generator: Adobe Illustrator 28.0.0, SVG Export Plug-In . SVG Version: 6.00 Build 0)  -->
<svg version="1.1" id="Layer_1" xmlns:xodm="http://www.corel.com/coreldraw/odm/2003"
	 xmlns="http://www.w3.org/2000/svg" xmlns:xlink="http://www.w3.org/1999/xlink" x="0px" y="0px" viewBox="0 0 720 720"
	 style="enable-background:new 0 0 720 720;" xml:space="preserve">
<style type="text/css">
	.st0{fill:none;}
	.st1{fill-rule:evenodd;clip-rule:evenodd;}
</style>
<path class="st0" d="M231.6,281.6c-1.9,12.7-1.5,25.7,1.6,38.7c7.8,22.9,8.8,21.3,13.1,28.7c0.5-5.3-1-9.5-1.5-13.3
	c-0.4-3.5-0.3-6.4-0.5-6.9c-0.8-2.2-3.2-4.1-3.9-6.4c-0.8-2.5-0.6-5.3,0.1-8.4c0.2-4.9,0.5-10.7-0.9-17.5
	C237.6,286.9,235.6,285.5,231.6,281.6L231.6,281.6z"/>
<g>
	<path class="st1" d="M370.1,364.4c-5.6-8.1-11.3-8.1-16.9,0c-4,5.8-7.4,16.4-9.4,24.3c-1.5,5.8-4.4,10.8-3.3,16.8
		c1.2,6.6,9.2,13.5,15.9,13.5c1.8,0,3.5-1,5.2-1c1.8,0,3.5,1,5.3,1c6.7,0,14.7-6.9,15.9-13.5c1.1-6-1.8-11-3.3-16.8
		C377.5,380.8,374.1,370.2,370.1,364.4z"/>
	<path class="st1" d="M337.2,366.5c-8.1,9.8-17.8,16.2-29.6,24.1c-1,0.9-0.2,1.5,0.8,1.9c5.4,1.7,15.2-1.9,22.1-8.4
		c5.2-4.9,8.8-11.5,9.5-17.2C340,365,338.1,365.4,337.2,366.5z"/>
	<path class="st1" d="M349.1,337.1c0.3-10-17.3-25.3-37.8-31.1c-4.8-3.9-9.7-20.3-13.8-31.5c-5.4-14.8-9-32.4-13.6-45.5
		c-0.5-1.5-1.2-4-2.5-6.5c-0.8-1.6-1.5-4.4-2-3.8c-0.7,0.9-0.3,5.1,0,8.2c1.1,10.4,5.3,22.8,8,33.1c1.7,6.7,9,39.5,10.9,44h-0.2
		c-5-2.8-9.4-8.1-11.2-13.5c-2.2-6.7-5.6-20-6.3-22.6c-0.9-3.1-7.2-28.8-9.6-35.4c-0.2-0.5-0.4-0.9-0.5-1.2
		c-1.8-3.3-3.1-8.1-3.1-3.9s-0.1,6.5,1.8,16.9c3.9,14.6,5.6,37.2,11.1,50c1.2,2.7,2.6,4.7,3.2,7.3c0.4,2,0.2,3.9,0,4.6
		c-17.1,7-20.2,28.2-20.1,32.3c0,5.3-2.5,32.9,34.4,37.4C320.3,378.3,349.2,359.1,349.1,337.1z"/>
	<path class="st1" d="M341.3,295.2c14.9,18.2,25.9,18.2,40.8,0c2.7-3.3,8.5-8.5,12.9-10.7c3.8-1.9,7.8-3.7,11.7-5.5
		c-10.4-0.9-14.6,1.5-18.5,3.2c-2.5,0.9-7.5,3.3-11.2,5.7c-11.3,7.2-19.1,7.2-30.5,0c-3.8-2.4-8.8-4.8-11.2-5.7
		c-3.9-1.7-8.2-4.1-18.6-3.2c3.9,1.7,7.9,3.5,11.7,5.5C332.7,286.7,338.6,292,341.3,295.2z"/>
	<path class="st1" d="M427.5,304c-25.9,0-53.4,20.6-53,33.1c0,2.1,0.2,4.1,0.7,6.2c4.6,19.3,30.2,34.9,50.6,32.7
		c36.9-4.5,34.4-32.1,34.4-37.4c0-1.2-0.2-4.1-1.1-7.6c0-0.2-0.1-0.4-0.1-0.6C456.3,319.9,448.4,303.7,427.5,304z"/>
	<path class="st1" d="M197.1,150.7v419.8h328.5V150.7H197.1z M457.1,487.8c-0.8,9.2-9.8,18.5-17.8,25.7c-10.4,9.4-27.1,21.3-40,29.2
		c-6.6,3.3-18.7,4.4-26.8,2.7c-1.8-0.4-5.3-1.5-8-2.9c-2.2-1.5-3.4-1.4-5.5-0.1c-2.7,1.4-6.3,2.6-8.2,3c-8.1,1.8-20.2,0.7-26.8-2.7
		c-12.9-7.9-29.6-19.8-40-29.2c-8-7.1-17-16.5-17.8-25.7c-1.1-8.2,4.1-19.6,4.8-37.7c1.1-19-0.5-36.4-0.5-36.4
		c5.6,0.9,8.8,2.6,11.1,5.7c8.5,12.6,5,49.8,10.5,66.2c2.5,7.2,6.2,11.2,11,14.9c32.3,19.8,84.9,19.8,117.2,0
		c4.9-3.6,8.6-7.6,11-14.9c5.4-16.4,2-53.7,10.5-66.2c2.2-3.1,5.4-4.8,11-5.7c0,0-1.7,17.4-0.5,36.4
		C453,468.2,458.2,479.6,457.1,487.8z M297.7,473.3c0.7-0.2,4.4,4.1,4.6,4.5c0.1,0.3-0.3,3.4-0.4,6.7c-0.1,3.5,0,7.1-0.1,7.2
		c-1.1,0.6-5.3-5.7-5.5-7.3C296,480.6,297.1,473.5,297.7,473.3z M311.5,491.6c0.1,2.6,0.1,6.9,0.6,7.9c0.3,0.5,0.2,1.3-0.1,1.4
		c-0.2,0.2-5.5-1.5-5.7-2.5c-0.2-1-0.4-18.6-0.3-18.6c0-0.1,4.3,2.7,5.2,3.2C312,483.4,311.4,488.3,311.5,491.6z M311.1,458.3
		c0,0.6-8.7-5.4-8.6-6.1c0-0.2,2.5-12,3-12.1c0.3-0.1,2.4,1.5,3,1.9c0.7,0.3,1.1,1,1.4,1.4c0.6,0.6,2.1,2.1,2.1,2.7
		C312,446.8,311.2,457.6,311.1,458.3z M326.2,504.4c0.1,0.6,0.1,1.2-0.1,1.4c-0.5,0.4-5.2-1.6-7-2.4c-0.8-0.4-1.4-1.1-1.7-2.2
		c-0.6-2.5-1.2-15-0.2-15.3c1.1-0.3,7,1.7,8,2.3c0.5,0.3,0.2,3.5,0.2,4.3C325.5,496.6,325.8,500.3,326.2,504.4z M325.2,464.2
		c-0.7,0.4-9.5-2.6-9.5-3.5c0-0.8,0.7-5.6,1.2-8.7c0.3-1.7,2.1-7.8,2.8-8.1c0.4-0.2,1.9,0.6,2.7,1.4c0.8,0.9,1.8,1.8,2.7,2.3
		c1.4,1.1,0.5,5.6,0.5,7.7C325.6,458.6,325.7,463.9,325.2,464.2z M343,510.2c0,0.5-2.3,0.1-4.3-0.3c-1.9-0.4-3.5-0.9-3.7-1.3
		c-0.2-0.4-1.3-4.5-2-8.8c-0.8-4.9-1-10-0.8-10.3c0.3-0.3,9.3,0.9,10.3,1.2c0.5,0.1,0.2,4.8,0.2,9.6
		C342.8,505,343.1,509.4,343,510.2z M342,468.8c-0.3,0.5-3.6-0.7-6.1-1.3c-2.6-0.7-6.2-1.1-6.1-2.6c0.7-6.8,4.6-17.5,5-18.2
		c0.4-0.7,2.6-0.4,4-0.2c1.2,0.1,2.3,0.2,2.8,1c1.4,2,0.8,8.2,0.8,11.7C342.4,462.1,342.8,467.7,342,468.8z M347.6,491.4
		c0.5-0.2,10.4,0.3,10.7,0.7c0.3,0.4-0.1,20.6-0.6,20.7s-1.9,0.1-3.4,0.1s-3.1,0-3.6-0.2C349.7,512.1,347,491.8,347.6,491.4z
		 M348.3,452.9c0.8-3.1,2.5-4.9,4.5-5.3c1.9-0.3,2.7,0.5,4.6,2.6c0.3,0.4,0.6,1.4,0.8,2.6c0.8,5.1,0.3,15.3,0.2,15.5
		c-0.1,0.1-2.9,0.2-5.6,0.2c-2.6-0.1-5.1-0.2-5.2-0.5C347.5,467.6,347.4,455.9,348.3,452.9z M369.7,468.5c-2.8,0-5.6-0.1-5.6-0.2
		c-0.1-0.2-0.6-10.4,0.2-15.5c0.4-2.7,2.5-5.6,5.4-5.2c2,0.4,3.7,2.2,4.5,5.3c0.9,3,0.8,14.7,0.7,15.1
		C374.8,468.3,372.3,468.4,369.7,468.5z M371.7,512.6c-0.5,0.2-2.1,0.2-3.6,0.2s-2.9,0-3.4-0.1c-0.5-0.1-0.9-20.3-0.6-20.7
		c0.3-0.4,10.2-0.9,10.7-0.7C375.4,491.7,372.7,512,371.7,512.6z M380.1,491.1c1-0.3,10-1.5,10.3-1.2c0.2,0.3,0,5.4-0.8,10.3
		c-0.7,4.3-1.8,8.4-2,8.8c-0.2,0.4-1.8,0.9-3.7,1.3c-2,0.4-4.3,0.8-4.3,0.3c-0.1-0.8,0.2-5.2,0.3-9.9
		C379.9,495.9,379.6,491.2,380.1,491.1z M380.8,447.5c0.5-0.8,1.6-0.9,2.8-1c1.4-0.2,3.6-0.5,4,0.2c0.4,0.7,4.3,11.4,5,18.2
		c0.1,1.5-3.5,1.9-6.1,2.6c-2.5,0.6-5.8,1.8-6.1,1.3c-0.8-1.1-0.4-6.7-0.4-9.6C380,455.7,379.5,449.5,380.8,447.5z M396.9,492.5
		c0-0.8-0.3-4,0.2-4.3c1-0.6,6.9-2.6,8-2.3c1,0.4,0.4,12.9-0.2,15.3c-0.3,1.1-0.9,1.8-1.7,2.2c-1.8,0.8-6.5,2.8-7,2.4
		c-0.2-0.2-0.2-0.8-0.1-1.4C396.5,500.3,396.8,496.6,396.9,492.5z M396.7,445.4c0.2-0.1,1.7-0.4,3.2-0.6s3.1-0.4,3.2-0.3
		c0.7,0.3,2.1,5.9,2.4,7.6c0.5,3.1,1.2,8.2,1.3,9c0,0.9-8.8,3.9-9.5,3.5c-0.5-0.3-0.5-5.8-0.5-9.1
		C396.8,453.4,395.6,445.9,396.7,445.4z M411.4,482.9c0.9-0.5,5.2-3.2,5.3-3.2c0.7,0,0.5,17.6-0.3,18.6c-0.2,1-5.5,2.7-5.7,2.5
		c-0.1,0,0.6-4.4,0.6-8.8C411.4,487.7,410.9,483.2,411.4,482.9z M410.7,445.8c0-1.2,1.9-3.1,2.6-3.6c0.6-0.5,3.3-2.2,3.7-2.1
		c0.4,0.2,3.4,12.2,3.4,12.4c0.1,0.7-8.6,6.6-8.6,6.2C411.8,458,410.7,446.5,410.7,445.8z M420.6,477.8c0.2-0.4,3.8-4.7,4.6-4.5
		c0.6,0.2,1.7,7.3,1.4,11.1c-0.2,1.6-4.4,7.9-5.5,7.3c-0.1-0.1,0-3.7-0.1-7.2C420.9,481.2,420.5,478.1,420.6,477.8z M488.9,320.6
		c-7.8,22.9-8.3,21-12.6,28.4c-2.8-14.5,2.9-20.4,4.6-28.2c3.3-15.1-7.3-28.8-14.9-40.9c-4.4-9-8.3-15.4-8.5-15.6
		c-1.1-2.1-13.3,16.1,11.1,52.6c9.7,19-0.3,43.5,6.8,60.3c7.9,14.5,14.4,15.7,12.4,21.3c-0.5,1.4-2.1,4.2-3.3,5.1
		c-0.4,0.3-0.9,0.6-1.3,0.8c-8.4,4.6-20.8-3.5-37.9,2.3c-11.4,3.9-20,2.9-21.9,17.5c-0.5,17.2-34.3,21-45.1,20.4
		c-0.8,0-1.7-0.7-2.4-0.7c-0.7-0.1-4.7,2.1-6.6,2.1c-2.8,0.1-4.9-0.9-7.5-1c-2.3,0.1-5.3,1-7.5,1c-2,0-5.9-2.1-6.6-2.1
		c-0.6,0-1.5,0.7-2.4,0.7c-10.8,0.6-44.7-3.2-45.1-20.4c-1.9-14.6-10.5-13.6-21.9-17.5c-13.2-4.5-31.8,1.6-38.3-1.9
		c-0.5-0.2-0.9-0.5-1.3-0.8c-1.2-0.9-2.8-3.7-3.3-5.1c-2.1-5.6,4.4-6.8,12.4-21.3c7.1-16.8-2.8-41.2,6.8-60.3c1.6-2.4,3-4.7,4.3-6.9
		v-0.6c4.5-7.8,9.4-16.6,10.6-23.2c1.6-8.4,0.8-15.9-1.1-22.5c-2.6-0.4-8.3,10.2-11.2,15.9c-6.6,13.4-18.8,24.3-15.1,41.4
		c1.7,7.8,7.3,13.7,4.6,28.2c-4.3-7.4-4.8-5.5-12.6-28.4c-20.2-72.9,54-148.2,124.8-148.1c1.9,0,3.3,0,5.4,0
		C436.6,173,508.4,250,488.9,320.6z"/>
	<path class="st1" d="M386.1,366.5c-0.9-1.1-2.8-1.5-2.8,0.4c0.7,5.7,4.3,12.3,9.5,17.2c6.8,6.5,16.6,10.1,22.1,8.4
		c1-0.4,1.8-1,0.8-1.9C403.9,382.7,394.2,376.3,386.1,366.5z"/>
</g>
<polygon class="st1" points="467.3,55.1 361.5,162.4 254.4,55.1 "/>
<polygon class="st1" points="467.3,670.8 361.5,563.5 254.4,670.8 "/>
<polygon class="st0" points="467.3,670.8 361.5,563.5 254.4,670.8 "/>
<polygon class="st1" points="669.1,205.4 513.9,359.7 669,516.8 "/>
<polygon class="st1" points="53.6,205.4 208.8,359.7 53.6,516.8 "/>
<polygon class="st0" points="53.6,205.4 208.8,359.7 53.7,516.8 "/>
<polygon class="st1" points="588.2,55.1 466.8,176.1 521.6,233.7 669.3,86.7 669.3,55.1 "/>
<polygon class="st1" points="134.4,55.1 255.8,176.1 201,233.7 53.3,86.7 53.3,55.1 "/>
<polygon class="st1" points="134.4,670.9 255.8,549.9 201,492.4 53.3,639.4 53.3,670.9 "/>
<polygon class="st1" points="587.9,670.9 466.5,549.9 521.3,492.4 669,639.4 669,670.9 "/>
</svg>
