<?xml version="1.0" encoding="utf-8"?>
<!-- Generator: Adobe Illustrator 28.0.0, SVG Export Plug-In . SVG Version: 6.00 Build 0)  -->
<svg version="1.1" id="Layer_1" xmlns:xodm="http://www.corel.com/coreldraw/odm/2003"
	 xmlns="http://www.w3.org/2000/svg" xmlns:xlink="http://www.w3.org/1999/xlink" x="0px" y="0px" viewBox="0 0 720 720"
	 style="enable-background:new 0 0 720 720;" xml:space="preserve">
<style type="text/css">
	.st0{fill-rule:evenodd;clip-rule:evenodd;fill:#C10C0C;}
	.st1{fill-rule:evenodd;clip-rule:evenodd;fill:#FFFFFF;}
</style>
<path class="st0" d="M568.2,703.1H151.8c-22.6,0-40.9-18.3-40.9-40.9V57.8c0-22.6,18.3-40.9,40.9-40.9h416.5
	c22.6,0,40.9,18.3,40.9,40.9v604.4C609,684.8,590.8,703.1,568.2,703.1z"/>
<path class="st1" d="M566,38.2H154c-12.3,0-22.2,9.9-22.2,22.2v599.2c0,12.3,9.9,22.2,22.2,22.2h412c12.3,0,22.2-9.9,22.2-22.2V60.4
	C588.2,48.1,578.2,38.2,566,38.2z M582,658.1c0,10.2-8.3,18.5-18.5,18.5h-407c-10.2,0-18.5-8.3-18.5-18.5V61.9
	c0-10.2,8.3-18.5,18.5-18.5h407c10.2,0,18.5,8.3,18.5,18.5V658.1z"/>
<path class="st1" d="M566,43.2H155.2c-10,0-18,6.6-18,14.9V185H584V58.1C584.1,49.8,576,43.2,566,43.2z"/>
<path d="M138,154.6V73.4h56l10.2,10.2v60.9L194,154.6H138z M158.4,93.6v40.6h25.5V93.6H158.4z"/>
<path d="M243.2,101.4l-16.7,53.2h-19.7l25.5-81.1h21.9l25.5,81.1h-19.7L243.2,101.4z"/>
<path d="M284.3,73.5H303l32.1,55.1V73.5h20.4v81.3h-23.7l-27-46.5v46.5h-20.4V73.5z"/>
<path d="M374.4,154.8l-10.2-10.2v-61l10.2-10.2h45.8l10.2,10.2v10.2h-45.8v40.6h25.3v-10.2h-15.1v-20.4h25.3l10.2,10.2v30.5
	l-10.2,10.2h-45.8V154.8z"/>
<path d="M440.1,154.8V73.5h66v20.4h-45.8v10.2h45.8v20.1h-45.8v10.1h45.8v20.4H440.1z"/>
<path d="M536.2,124.1v30.5h-20.4V73.4h56L582,83.6v30.4l-10.2,10.2h-7.6l17.7,30.5h-20.4l-17.7-30.5L536.2,124.1L536.2,124.1z
	 M536.2,93.8v10.1h25.3V93.8H536.2z"/>
<path class="st1" d="M457.4,506.8c8.9-2.7,45.6-17.7,45.6-76.3c12.3,8.2,56.5,132.8-36.8,194.8c-54.5,36.1-100.8-7.5-89.9-62.7
	c8.9-44.3,64-56.5,25.2-121.2c-4.8,37.5-23.8,54.5-49.7,74.2c-30,22.5-62,66.8-6.1,123.3c-30.7,13.6-165.5,6.8-158.7-125.3
	c12.3,23.8,32.7,35.4,42.2,40.2c-34.7-75.6,98.8-121.2-0.7-190c11.6-12.3,106.3,2,64.7,111.7c138.3-65.4-55.9-189.4,74.9-257.5
	C319.2,310,511.2,339.9,457.4,506.8L457.4,506.8z"/>
</svg>
