<?xml version="1.0" encoding="utf-8"?>
<!-- Generator: Adobe Illustrator 28.0.0, SVG Export Plug-In . SVG Version: 6.00 Build 0)  -->
<svg version="1.1" id="Layer_1" xmlns:xodm="http://www.corel.com/coreldraw/odm/2003"
	 xmlns="http://www.w3.org/2000/svg" xmlns:xlink="http://www.w3.org/1999/xlink" x="0px" y="0px" viewBox="0 0 720 720"
	 style="enable-background:new 0 0 720 720;" xml:space="preserve">
<path d="M309.9,162.2c-5.6-3.2-10-4.8-16.5-1c-60.6,35.4-121.2,70.5-182.1,105.3c-6.8,3.9-9.1,8.1-9,15.8
	c0.3,59.2,0.2,118.5,0.1,177.7c0,4.6,1.2,9-4.7,12.5c-12,7.4-16,19.3-12.3,31.2c3.9,12.2,13.9,19.6,26.3,19.6
	c11.7-0.1,22.4-7.8,25.9-18.8c3.8-12-0.2-23.7-11.7-31.6c-3.5-2.4-5.3-4.4-5.3-8.8c0.1-58.5,0.1-117,0-175.5c0-4.2,1.2-6.9,5-9.1
	c56.8-32.6,113.7-65.4,170.5-98.2c3.2-1.9,5.8-2.5,9.4-0.3c12.6,7.6,40.1,23.3,40.1,23.3l19-10.5C364.4,193.7,328,172.8,309.9,162.2
	z M112.1,504.9c-5.9,0.5-9.5-3.6-9.5-8.9c0-5.3,3.5-9.4,9.4-9c5.1,0.3,7.9,3.7,8.5,8.8C120,501,117.2,504.5,112.1,504.9z"/>
<path d="M165.7,305.1c-5.6,3.2-9.2,6.3-9.1,13.8c0.3,70.1,0.4,140.2,0.1,210.4c0,7.8,2.5,11.9,9.2,15.7
	c51.4,29.3,102.7,59.1,154,88.7c4,2.3,8.4,3.5,8.5,10.3c0.4,14.1,8.7,23.5,20.9,26.2c12.5,2.7,24-2.3,30.1-13
	c5.8-10.2,4.4-23.3-3.3-31.8c-8.5-9.4-20.6-11.7-33.2-5.6c-3.8,1.8-6.5,2.4-10.3,0.2c-50.6-29.4-101.3-58.6-152-87.7
	c-3.7-2.1-5.4-4.5-5.4-8.9c0.2-65.5,0.2-131.1,0.2-196.7c0-3.7,0.8-6.3,4.4-8.3c12.9-7.1,40.2-23.1,40.2-23.1l0.4-21.7
	C220.3,273.6,183.9,294.7,165.7,305.1z M363.6,647.7c-2.5,5.3-7.8,6.4-12.5,3.8c-4.6-2.6-6.4-7.7-3.1-12.7c2.8-4.3,7.2-5,11.9-2.9
	C364.2,639,365.8,643.1,363.6,647.7z"/>
<path d="M217.4,501.4c0,6.5,0.8,11.1,7.4,14.8C285.7,551,346.4,586,407,621.3c6.8,4,11.6,3.8,18.2-0.1
	c51.1-29.9,102.5-59.4,153.8-89c4-2.3,7.2-5.5,13.2-2.2c12.4,6.7,24.7,4.2,33.1-5c8.6-9.5,10-21.9,3.8-32.5
	c-5.9-10.1-18-15.5-29.2-13c-12.4,2.7-20.5,12-21.5,26c-0.3,4.2-1.1,6.8-5,9c-50.7,29.1-101.4,58.4-152,87.7
	c-3.7,2.1-6.6,2.5-10.4,0.2c-56.7-32.9-113.4-65.7-170.2-98.5c-3.2-1.8-5-3.8-5-7.9c0.3-14.7,0.1-46.3,0.1-46.3l-18.6-11.2
	C217.4,438.4,217.5,480.4,217.4,501.4z M613,501.3c3.3,4.9,1.6,10-2.9,12.7c-4.6,2.7-9.8,1.7-12.5-3.6c-2.3-4.6-0.8-8.7,3.4-11.8
	C605.8,496.4,610.2,497.1,613,501.3z"/>
<path d="M413.2,554.8c5.6,3.2,10,4.8,16.5,1c60.6-35.4,121.2-70.5,182.1-105.3c6.8-3.9,9.1-8.1,9-15.8
	c-0.3-59.2-0.2-118.5-0.1-177.7c0-4.6-1.2-9,4.7-12.5c12-7.4,16-19.3,12.3-31.2c-3.9-12.2-13.9-19.6-26.3-19.6
	c-11.7,0.1-22.4,7.8-25.9,18.8c-3.8,12,0.2,23.7,11.7,31.6c3.5,2.4,5.3,4.4,5.3,8.8c-0.1,58.5-0.1,117,0,175.5c0,4.2-1.2,6.9-5,9.1
	c-56.8,32.6-113.7,65.4-170.5,98.2c-3.2,1.9-5.8,2.5-9.4,0.3c-12.6-7.6-40.1-23.3-40.1-23.3l-19,10.5
	C358.7,523.3,395.1,544.2,413.2,554.8z M611,212.1c5.9-0.5,9.5,3.6,9.5,8.9c0,5.3-3.5,9.4-9.4,9c-5.1-0.3-7.9-3.7-8.5-8.8
	C603.1,216,605.9,212.5,611,212.1z"/>
<path d="M557.4,411.9c5.6-3.2,9.2-6.3,9.1-13.8c-0.3-70.1-0.4-140.2-0.1-210.4c0-7.8-2.5-11.9-9.2-15.7
	c-51.4-29.3-102.7-59.1-154-88.7c-4-2.3-8.4-3.5-8.5-10.3c-0.4-14.1-8.7-23.5-20.9-26.2c-12.5-2.7-24,2.3-30.1,13
	c-5.8,10.2-4.4,23.3,3.3,31.8c8.5,9.4,20.6,11.7,33.2,5.6c3.8-1.8,6.5-2.4,10.3-0.2c50.6,29.4,101.3,58.6,152,87.7
	c3.7,2.1,5.4,4.5,5.4,8.9c-0.2,65.5-0.2,131.1-0.2,196.7c0,3.7-0.8,6.3-4.4,8.3c-12.9,7.1-40.2,23.1-40.2,23.1l-0.4,21.7
	C502.8,443.4,539.1,422.3,557.4,411.9z M359.5,69.3c2.5-5.3,7.8-6.4,12.5-3.8c4.6,2.6,6.4,7.7,3.1,12.7c-2.8,4.3-7.2,5-11.9,2.9
	C358.9,78,357.3,73.9,359.5,69.3z"/>
<path d="M505.7,215.6c0-6.5-0.8-11.1-7.4-14.8C437.4,166,376.7,131,316.1,95.7c-6.8-4-11.6-3.8-18.2,0.1
	c-51.1,29.9-102.5,59.4-153.8,89c-4,2.3-7.2,5.5-13.2,2.2c-12.4-6.7-24.7-4.2-33.1,5c-8.6,9.5-10,21.9-3.8,32.5
	c5.9,10.1,18,15.5,29.2,13c12.4-2.7,20.5-12,21.5-26c0.3-4.2,1.1-6.8,5-9c50.7-29.1,101.4-58.4,152-87.7c3.7-2.1,6.6-2.5,10.4-0.2
	c56.7,32.9,113.4,65.7,170.2,98.5c3.2,1.8,5,3.8,5,7.9c-0.3,14.7-0.1,46.3-0.1,46.3l18.6,11.2C505.7,278.6,505.6,236.6,505.7,215.6z
	 M110,215.6c-3.3-4.9-1.6-10,2.9-12.7c4.6-2.7,9.8-1.7,12.5,3.6c2.3,4.6,0.8,8.7-3.4,11.8C117.3,220.6,112.9,219.9,110,215.6z"/>
<polygon points="505.7,278.6 502.8,443.4 358.7,523.3 217.4,438.4 220.3,273.6 364.4,193.7 "/>
</svg>
