<?xml version="1.0" encoding="utf-8"?>
<!-- Generator: Adobe Illustrator 28.0.0, SVG Export Plug-In . SVG Version: 6.00 Build 0)  -->
<svg version="1.1" id="Layer_1" xmlns:xodm="http://www.corel.com/coreldraw/odm/2003"
	 xmlns="http://www.w3.org/2000/svg" xmlns:xlink="http://www.w3.org/1999/xlink" x="0px" y="0px" viewBox="0 0 720 720"
	 style="enable-background:new 0 0 720 720;" xml:space="preserve">
<style type="text/css">
	.st0{fill-rule:evenodd;clip-rule:evenodd;}
</style>
<polygon class="st0" points="363.4,348.3 399.8,314.2 384.1,297.4 378.7,248.6 373.5,260 359,41 344.5,260 339.2,248.6 333.9,297.4 
	318.2,314.2 354.5,348.3 359,203.4 "/>
<polygon class="st0" points="363.4,380.2 399.8,414.3 384.1,431.2 378.7,480 373.5,468.5 359,687.5 344.5,468.5 339.2,480 
	333.9,431.2 318.2,414.3 354.5,380.2 359,525.2 "/>
<polygon class="st0" points="347.4,360.2 247.2,269.2 319.9,348.4 275.4,356.3 174.4,364.3 275.4,372.3 319.9,380.2 247.2,459.4 
	347.4,368.4 270.9,364.3 "/>
<polygon class="st0" points="370.7,360.2 470.9,269.2 398.2,348.4 442.7,356.3 543.7,364.3 442.7,372.3 398.2,380.2 470.9,459.4 
	370.7,368.4 447.2,364.3 "/>
</svg>
