<?xml version="1.0" encoding="utf-8"?>
<!-- Generator: Adobe Illustrator 28.0.0, SVG Export Plug-In . SVG Version: 6.00 Build 0)  -->
<svg version="1.1" id="Layer_1" xmlns:xodm="http://www.corel.com/coreldraw/odm/2003"
	 xmlns="http://www.w3.org/2000/svg" xmlns:xlink="http://www.w3.org/1999/xlink" x="0px" y="0px" viewBox="0 0 720 720"
	 style="enable-background:new 0 0 720 720;" xml:space="preserve">
<style type="text/css">
	.st0{fill-rule:evenodd;clip-rule:evenodd;fill:#C10C0C;}
	.st1{fill-rule:evenodd;clip-rule:evenodd;fill:#FFFFFF;}
</style>
<circle class="st0" cx="360" cy="360" r="343.5"/>
<path class="st1" d="M360,37.3C181.8,37.3,37.3,181.8,37.3,360S181.8,682.7,360,682.7S682.7,538.2,682.7,360S538.2,37.3,360,37.3z
	 M360,674.8c-174.8,0-316.4-141.6-316.4-316.4S185.2,41.9,360,41.9s316.4,141.7,316.4,316.5S534.8,674.8,360,674.8z"/>
<path class="st1" d="M312.3,271.5l15.7,39.8l4.7,0v260.6h3.2V311.3l10.2,0v284.6h3.2V311.3l9.7,0v121.9h3.2V311.2l9.9,0v207.3h3.2
	V311.2l10.1,0v198h3.2v-198l5.2,0l15.8-39.7c88.1-4.3,153.7-25.3,154.2-38.9c0.5-13.6-51.7-27-127.1-34.5
	c2.2-41.4-35.8-73.9-75.4-73.9c-39.5,0-78.1,32.1-76.1,73.3c-77.3,7.9-129.6,20.1-129.2,35.1C156.5,247.4,223.5,267.3,312.3,271.5
	L312.3,271.5z M182.1,225.5c41.2-19.9,283.7-26.4,356.8,1.7C409.9,213.9,285.7,216.7,182.1,225.5L182.1,225.5z M330.9,146
	c-4.4,6.2-11.3,21-13.9,27.3c-2.5,6.3,3.8,16.9,8.7,16.7c3-0.2,4-13.5,19.7-25.9c15.7-12.5,31.2-21.2,33.3-25.2
	C383,131,362,127.1,347,131C340.3,132.8,335.3,139.8,330.9,146L330.9,146z"/>
</svg>
