<?xml version="1.0" encoding="utf-8"?>
<!-- Generator: Adobe Illustrator 28.0.0, SVG Export Plug-In . SVG Version: 6.00 Build 0)  -->
<svg version="1.1" id="Layer_1" xmlns:xodm="http://www.corel.com/coreldraw/odm/2003"
	 xmlns="http://www.w3.org/2000/svg" xmlns:xlink="http://www.w3.org/1999/xlink" x="0px" y="0px" viewBox="0 0 720 720"
	 style="enable-background:new 0 0 720 720;" xml:space="preserve">
<style type="text/css">
	.st0{fill-rule:evenodd;clip-rule:evenodd;fill:#FFFFFF;stroke:#000000;stroke-miterlimit:10;}
	.st1{fill-rule:evenodd;clip-rule:evenodd;fill:#C10C0C;stroke:#000000;stroke-miterlimit:10;}
	.st2{fill:#FFFFFF;}
</style>
<path class="st0" d="M586.7,456.4H133.3c-53.3,0-96.4-43.2-96.4-96.4l0,0c0-53.3,43.2-96.4,96.4-96.4h453.3
	c53.3,0,96.4,43.2,96.4,96.4l0,0C683.1,413.3,639.9,456.4,586.7,456.4z"/>
<path class="st1" d="M583.9,441.6H136.1c-45.7,0-82.7-37-82.7-82.7l0,0c0-45.7,37-82.7,82.7-82.7H584c45.7,0,82.7,37,82.7,82.7l0,0
	C666.7,404.6,629.6,441.6,583.9,441.6z"/>
<path class="st2" d="M129.9,321.2l14.9,47.7l9.8-47.7h18.3l9.3,44.6l13.9-44.6h20.4l-24.9,79.5h-20.4l-7.4-35.9l-7.5,35.9h-23.1
	l-24.9-79.5H129.9z"/>
<path class="st2" d="M242.1,348.6l-16.3,52.1h-19.3l24.9-79.4h21.4l24.9,79.4h-19.3L242.1,348.6z"/>
<path class="st2" d="M302.4,370.9v29.9h-19.9v-79.5h54.6l10,10V361l-10,10h-7.4l17.4,29.9h-19.9L309.8,371h-7.4V370.9z M302.4,341.2
	v9.8h24.8v-9.8H302.4z"/>
<path class="st2" d="M355.8,321.2H374l31.4,53.9v-53.9h19.9v79.5h-23.2l-26.4-45.5v45.5h-19.9V321.2z"/>
<path class="st2" d="M454.8,321.2v79.5h-19.9v-79.5H454.8z"/>
<path class="st2" d="M464.3,321.2h18.3l31.4,53.9v-53.9h19.9v79.5h-23.2l-26.4-45.5v45.5h-19.9v-79.5H464.3z"/>
<path class="st2" d="M552.4,400.8l-10-10v-59.6l10-10h44.7l10,10v10h-44.7v39.7h24.8v-10h-14.8V351h24.8l10,10v29.9l-10,10h-44.8
	V400.8z"/>
</svg>
