<?xml version="1.0" encoding="utf-8"?>
<!-- Generator: Adobe Illustrator 28.0.0, SVG Export Plug-In . SVG Version: 6.00 Build 0)  -->
<svg version="1.1" id="Layer_1" xmlns:xodm="http://www.corel.com/coreldraw/odm/2003"
	 xmlns="http://www.w3.org/2000/svg" xmlns:xlink="http://www.w3.org/1999/xlink" x="0px" y="0px" viewBox="0 0 720 720"
	 style="enable-background:new 0 0 720 720;" xml:space="preserve">
<style type="text/css">
	.st0{fill:#F7B24B;}
</style>
<g>
	<g>
		<polygon class="st0" points="462.1,336.8 453,345.8 451.1,347.7 435.7,363.1 433.8,365 392.5,365 381,376.4 380.1,377.3 
			379.1,378.3 338.9,378.3 325.6,365 284.7,365 282.8,363.1 267.4,347.7 256.5,336.8 288,336.8 288.9,337.7 289.8,338.7 297,345.8 
			421.5,345.8 428.7,338.7 429.6,337.7 430.6,336.8 		"/>
	</g>
</g>
<rect x="46" y="336.8" class="st0" width="199.1" height="9.9"/>
<rect x="474.9" y="336.8" transform="matrix(-1 -1.224647e-16 1.224647e-16 -1 1148.9487 683.4001)" class="st0" width="199.1" height="9.9"/>
<g>
	<polygon class="st0" points="394.2,374.3 433.3,374.3 430.6,376.9 394.2,376.9 	"/>
	<polygon class="st0" points="598.7,353.2 598.7,355.9 465.7,355.9 460.4,362.6 458.3,365.2 451,374.3 448.9,376.9 434.4,376.9 
		437,374.3 447.7,374.3 454.9,365.2 457,362.6 462.3,355.9 464.5,353.2 	"/>
</g>
<g>
	<polygon class="st0" points="457,362.6 454.9,365.2 446.1,365.2 437,374.3 434.4,376.9 428.1,383.2 359.3,383.2 359.3,383.2 
		290.9,383.2 284.6,376.9 288.4,376.9 292,380.6 427,380.6 430.6,376.9 433.3,374.3 442.4,365.2 445,362.6 	"/>
	<polygon class="st0" points="491.4,362.6 491.4,365.2 458.3,365.2 460.4,362.6 	"/>
</g>
<g>
	<polygon class="st0" points="325.2,374.3 325.2,376.9 270.4,376.9 268.3,374.3 261.1,365.3 259,362.6 253.6,355.9 120.6,355.9 
		120.6,353.2 254.9,353.2 257,355.9 262.4,362.6 264.5,365.3 271.7,374.3 	"/>
</g>
<g>
	<polygon class="st0" points="261.1,365.3 227.9,365.3 227.9,362.6 259,362.6 	"/>
	<polygon class="st0" points="285.7,374.3 282,374.3 273,365.3 264.5,365.3 262.4,362.6 274.1,362.6 276.7,365.3 	"/>
</g>
</svg>
