<?xml version="1.0" encoding="utf-8"?>
<!-- Generator: Adobe Illustrator 28.0.0, SVG Export Plug-In . SVG Version: 6.00 Build 0)  -->
<svg version="1.1" id="Layer_1" xmlns:xodm="http://www.corel.com/coreldraw/odm/2003"
	 xmlns="http://www.w3.org/2000/svg" xmlns:xlink="http://www.w3.org/1999/xlink" x="0px" y="0px" viewBox="0 0 720 720"
	 style="enable-background:new 0 0 720 720;" xml:space="preserve">
<path d="M653.7,553.5l-76.1-131.8l-25.5,14.7L450,259.8l25.6-14.7l-72.9-126.2c-8.5-14.8-24-23.7-41.2-23.7
	c-17.2,0-32.7,8.9-41.2,23.7l-72.8,126.2l25.5,14.7l-102,176.7l-25.5-14.7L69.5,553.5c-8.7,14.8-8.7,32.7-0.1,47.6
	c8.7,14.8,24.1,23.7,41.3,23.7h148.9v-35.1h204v35.1h148.9c17.2,0,32.7-8.9,41.3-23.7C662.3,586.2,662.3,568.4,653.7,553.5z
	 M115.7,574.4l245.9-426l246,426H115.7z"/>
</svg>
