<?xml version="1.0" encoding="utf-8"?>
<!-- Generator: Adobe Illustrator 28.0.0, SVG Export Plug-In . SVG Version: 6.00 Build 0)  -->
<svg version="1.1" id="Layer_1" xmlns:xodm="http://www.corel.com/coreldraw/odm/2003"
	 xmlns="http://www.w3.org/2000/svg" xmlns:xlink="http://www.w3.org/1999/xlink" x="0px" y="0px" viewBox="0 0 720 720"
	 style="enable-background:new 0 0 720 720;" xml:space="preserve">
<polygon points="302.5,672.5 417.6,672.5 475.2,572.8 417.6,473.1 302.5,473.1 245,572.8 "/>
<polygon points="60.6,253.9 118.1,353.6 233.2,353.6 290.8,253.9 233.2,154.2 118.1,154.2 "/>
<polygon points="118,366.9 60.4,466.6 118,566.3 233.1,566.3 290.6,466.6 233.1,366.9 "/>
<polygon points="475.2,359.9 417.6,260.2 302.5,260.2 245,359.9 302.5,459.6 417.6,459.6 "/>
<polygon points="417.8,246.9 475.3,147.2 417.8,47.5 302.7,47.5 245.1,147.2 302.7,246.9 "/>
<polygon points="601.7,366.7 486.6,366.7 429.1,466.3 486.6,566 601.7,566 659.3,466.3 "/>
<polygon points="602,153.9 486.9,153.9 429.4,253.6 486.9,353.3 602,353.3 659.6,253.6 "/>
</svg>
