<?xml version="1.0" encoding="utf-8"?>
<!-- Generator: Adobe Illustrator 28.0.0, SVG Export Plug-In . SVG Version: 6.00 Build 0)  -->
<svg version="1.1" id="Layer_1" xmlns:xodm="http://www.corel.com/coreldraw/odm/2003"
	 xmlns="http://www.w3.org/2000/svg" xmlns:xlink="http://www.w3.org/1999/xlink" x="0px" y="0px" viewBox="0 0 720 720"
	 style="enable-background:new 0 0 720 720;" xml:space="preserve">
<style type="text/css">
	.st0{fill:#F6B24A;}
	.st1{opacity:0.5;}
</style>
<circle class="st0" cx="640.1" cy="357.9" r="23.3"/>
<g class="st1">
	<circle class="st0" cx="82" cy="357.9" r="23.3"/>
</g>
<circle class="st0" cx="361.1" cy="78.9" r="38.7"/>
<g class="st1">
	<circle class="st0" cx="197.1" cy="132.2" r="38.7"/>
</g>
<g class="st1">
	<circle class="st0" cx="95.7" cy="271.7" r="38.7"/>
</g>
<g class="st1">
	<circle class="st0" cx="95.7" cy="444.1" r="38.7"/>
</g>
<g class="st1">
	<circle class="st0" cx="197.1" cy="583.7" r="38.7"/>
</g>
<circle class="st0" cx="361.1" cy="637" r="38.7"/>
<circle class="st0" cx="525.1" cy="583.7" r="38.7"/>
<circle class="st0" cx="626.5" cy="444.1" r="38.7"/>
<circle class="st0" cx="626.5" cy="271.7" r="38.7"/>
<circle class="st0" cx="525.1" cy="132.2" r="38.7"/>
<g class="st1">
	<circle class="st0" cx="274.8" cy="92.5" r="23.3"/>
</g>
<g class="st1">
	<circle class="st0" cx="135.3" cy="193.9" r="23.3"/>
</g>
<g class="st1">
	<circle class="st0" cx="135.3" cy="521.9" r="23.3"/>
</g>
<circle class="st0" cx="274.8" cy="623.3" r="23.3"/>
<circle class="st0" cx="447.3" cy="623.3" r="23.3"/>
<circle class="st0" cx="586.8" cy="521.9" r="23.3"/>
<circle class="st0" cx="586.8" cy="193.9" r="23.3"/>
<circle class="st0" cx="447.3" cy="92.5" r="23.3"/>
<path class="st0" d="M204.1,325.1c0-6.6,0.6-12.2,1.8-16.8c1.2-4.7,2.8-8.6,4.8-11.8c2-3.2,4.2-5.7,6.8-7.6c2.6-1.9,5.2-3.3,7.9-4.3
	c2.7-1,5.4-1.6,8-1.9c2.7-0.3,5.1-0.4,7.3-0.4c5.7,0,10.6,0.7,14.7,2.2c4.1,1.5,7.4,3.4,10,5.9c2.6,2.5,4.5,5.3,5.6,8.6
	c1.2,3.3,1.8,6.7,1.8,10.3c0,1.9-0.2,4.1-0.5,6.4c-0.4,2.3-0.9,4.7-1.7,7H254v-4.3c0-4.3-0.3-7.9-0.8-10.6c-0.5-2.7-1.3-4.9-2.4-6.5
	c-1.1-1.6-2.5-2.7-4.1-3.3c-1.7-0.6-3.7-0.9-6-0.9c-4.8,0-8.4,1.6-11,4.9s-3.8,8.5-3.8,15.6v27.4c2.1-2.3,4.9-4.3,8.3-5.9
	c3.4-1.6,7.4-2.4,11.9-2.4c3.2,0,6.5,0.5,9.8,1.5c3.3,1,6.3,2.9,9,5.5c2.7,2.6,4.9,6.2,6.6,10.7c1.7,4.5,2.5,10.3,2.5,17.4V386
	c0,7.6-0.8,14-2.4,19.3c-1.6,5.2-3.8,9.5-6.8,12.7c-2.9,3.2-6.5,5.6-10.6,7c-4.1,1.4-8.8,2.2-14,2.2c-5.8,0-11-0.8-15.5-2.3
	c-4.5-1.6-8.2-4.1-11.3-7.5c-3.1-3.4-5.4-7.9-7-13.5c-1.6-5.5-2.4-12.3-2.4-20.2V325.1z M225.9,391.7c0,6.6,1.1,11.4,3.4,14.5
	c2.3,3.1,5.8,4.7,10.7,4.7c4.3,0,7.4-1.5,9.4-4.6c2-3.1,3-7.6,3-13.8v-21.2c0-3.4-0.3-6.3-0.9-8.7c-0.6-2.3-1.5-4.2-2.6-5.6
	c-1.1-1.4-2.4-2.4-4-3c-1.6-0.6-3.3-0.9-5.3-0.9c-1.5,0-2.9,0.2-4.3,0.7c-1.4,0.4-2.6,1-3.8,1.8c-1.2,0.7-2.2,1.6-3.2,2.5
	c-0.9,0.9-1.8,1.9-2.5,2.8V391.7z"/>
<path class="st0" d="M291.3,324.2c0-6.2,0.6-11.6,1.7-16.1c1.1-4.5,2.6-8.3,4.5-11.4c1.9-3.1,4-5.6,6.5-7.5c2.4-1.9,5-3.3,7.5-4.4
	c2.6-1,5.2-1.7,7.8-2c2.6-0.3,5-0.5,7.1-0.5c2.1,0,4.4,0.2,6.9,0.5s5.1,0.9,7.7,1.9c2.6,1,5.1,2.4,7.5,4.3c2.4,1.9,4.6,4.3,6.4,7.5
	c1.9,3.1,3.4,6.9,4.5,11.5c1.1,4.6,1.7,10,1.7,16.3v60.2c0,6.2-0.6,11.6-1.7,16.1c-1.1,4.5-2.7,8.4-4.5,11.5
	c-1.9,3.2-4.1,5.7-6.5,7.7c-2.4,2-4.9,3.5-7.5,4.6c-2.6,1.1-5.1,1.8-7.6,2.2c-2.5,0.4-4.8,0.6-6.8,0.6c-2.2,0-4.6-0.2-7.2-0.6
	c-2.6-0.4-5.2-1.1-7.8-2.2c-2.6-1.1-5.1-2.6-7.5-4.5c-2.4-1.9-4.5-4.5-6.4-7.7c-1.8-3.2-3.3-7-4.4-11.6c-1.1-4.6-1.7-9.9-1.7-16.2
	V324.2z M313.4,393.5c0,5.9,1.1,10.2,3.2,12.8c2.1,2.7,5.4,4,9.8,4c4.3,0,7.5-1.3,9.6-4c2.1-2.7,3.2-6.9,3.2-12.8v-77.1
	c0-6.2-1.1-10.8-3.2-13.6c-2.1-2.8-5.3-4.2-9.6-4.2c-4.4,0-7.6,1.4-9.8,4.2c-2.1,2.8-3.2,7.4-3.2,13.6V393.5z"/>
<path class="st0" d="M409.7,360.4c-3.2,0-6.3-0.4-9.5-1.3c-3.2-0.9-6.1-2.6-8.7-5.2c-2.6-2.6-4.7-6.2-6.3-11
	c-1.6-4.8-2.4-11-2.4-18.7v-8.9c0-5.1,0.4-9.4,1.2-13.1c0.8-3.7,1.8-6.9,3.2-9.5c1.4-2.6,2.9-4.7,4.7-6.3c1.8-1.6,3.7-2.9,5.7-3.8
	c2-0.9,4-1.5,6.1-1.8c2.1-0.3,4.1-0.5,6.1-0.5c1.9,0,3.9,0.2,5.9,0.5c2.1,0.3,4.1,0.9,6,1.8c2,0.9,3.8,2.1,5.6,3.7
	c1.8,1.6,3.3,3.7,4.7,6.3c1.3,2.6,2.4,5.8,3.2,9.5s1.2,8.1,1.2,13.2v8.9c0,7.6-0.9,13.8-2.6,18.5c-1.7,4.8-3.9,8.4-6.5,11
	c-2.6,2.6-5.5,4.4-8.7,5.3C415.5,359.9,412.5,360.4,409.7,360.4z M409.9,347.1c3.5,0,5.9-1.5,7.3-4.5c1.4-3,2.1-7.7,2.1-14.1v-16.2
	c0-6.4-0.7-11.2-2.1-14.2c-1.4-3.1-3.8-4.6-7.3-4.6c-3.7,0-6.2,1.5-7.7,4.6c-1.5,3.1-2.2,7.8-2.2,14.2v16.2c0,6.4,0.7,11.1,2.2,14.1
	C403.7,345.6,406.2,347.1,409.9,347.1z M460.3,282h15.1l-38.3,143.9h-15.2L460.3,282z M460.4,382c0-7.6,0.8-13.7,2.5-18.3
	c1.7-4.6,3.9-8.1,6.5-10.6c2.6-2.5,5.5-4.1,8.7-4.9c3.2-0.8,6.2-1.2,9.2-1.2c1.9,0,3.9,0.2,5.9,0.5c2.1,0.3,4.1,0.9,6,1.8
	c2,0.9,3.9,2.1,5.6,3.7c1.8,1.6,3.3,3.7,4.7,6.3c1.3,2.6,2.4,5.8,3.2,9.5c0.8,3.7,1.2,8.1,1.2,13.3v8.9c0,5.1-0.4,9.6-1.2,13.3
	c-0.8,3.8-1.9,7-3.3,9.7c-1.4,2.7-2.9,4.9-4.7,6.6c-1.8,1.7-3.7,3.1-5.6,4.1c-2,1-4,1.7-6,2c-2.1,0.4-4,0.5-5.8,0.5
	c-2.1,0-4.2-0.2-6.4-0.5c-2.1-0.4-4.2-1-6.2-2c-2-0.9-3.8-2.3-5.6-4c-1.8-1.7-3.3-3.9-4.5-6.6c-1.3-2.7-2.3-5.9-3-9.7
	c-0.8-3.8-1.1-8.3-1.1-13.5V382z M477.5,395.2c0,6.4,0.7,11.1,2.2,14.1c1.5,3,4,4.5,7.7,4.5c3.5,0,5.9-1.5,7.3-4.5s2.1-7.7,2.1-14.1
	v-16.2c0-6.4-0.7-11.2-2.1-14.3c-1.4-3.1-3.8-4.6-7.3-4.6c-3.7,0-6.2,1.5-7.7,4.6c-1.5,3.1-2.2,7.8-2.2,14.3V395.2z"/>
</svg>
