<?xml version="1.0" encoding="utf-8"?>
<!-- Generator: Adobe Illustrator 28.0.0, SVG Export Plug-In . SVG Version: 6.00 Build 0)  -->
<svg version="1.1" id="Layer_1" xmlns:xodm="http://www.corel.com/coreldraw/odm/2003"
	 xmlns="http://www.w3.org/2000/svg" xmlns:xlink="http://www.w3.org/1999/xlink" x="0px" y="0px" viewBox="0 0 720 720"
	 style="enable-background:new 0 0 720 720;" xml:space="preserve">
<style type="text/css">
	.st0{fill:#F6B24A;}
	.st1{opacity:0.5;}
</style>
<g>
	<path class="st0" d="M671.2,372.6H48.7c-5.9,0-10.7-4.8-10.7-10.7v-43c0-5.9,4.8-10.7,10.7-10.7h622.4c5.9,0,10.7,4.8,10.7,10.7v43
		C681.9,367.8,677.1,372.6,671.2,372.6z M48.7,313.4c-3,0-5.5,2.5-5.5,5.5v43c0,3,2.5,5.5,5.5,5.5h622.4c3,0,5.5-2.5,5.5-5.5v-43
		c0-3-2.5-5.5-5.5-5.5H48.7z"/>
</g>
<g>
	<g>
		<rect x="46.1" y="314.8" class="st0" width="8.7" height="51.3"/>
	</g>
</g>
<g>
	<g>
		<rect x="56.6" y="314.8" class="st0" width="8.7" height="51.3"/>
	</g>
</g>
<g>
	<g>
		<rect x="67.1" y="314.8" class="st0" width="8.7" height="51.3"/>
	</g>
</g>
<g>
	<g>
		<rect x="77.6" y="314.8" class="st0" width="8.7" height="51.3"/>
	</g>
</g>
<g>
	<g>
		<rect x="88.1" y="314.8" class="st0" width="8.7" height="51.3"/>
	</g>
</g>
<g>
	<g>
		<rect x="98.6" y="314.8" class="st0" width="8.7" height="51.3"/>
	</g>
</g>
<g>
	<g>
		<rect x="109.1" y="314.8" class="st0" width="8.7" height="51.3"/>
	</g>
</g>
<g>
	<g>
		<rect x="119.6" y="314.8" class="st0" width="8.7" height="51.3"/>
	</g>
</g>
<g>
	<g>
		<rect x="130.1" y="314.8" class="st0" width="8.7" height="51.3"/>
	</g>
</g>
<g>
	<g>
		<rect x="140.6" y="314.8" class="st0" width="8.7" height="51.3"/>
	</g>
</g>
<g>
	<g>
		<rect x="151.1" y="314.8" class="st0" width="8.7" height="51.3"/>
	</g>
</g>
<g>
	<g>
		<rect x="161.6" y="314.8" class="st0" width="8.7" height="51.3"/>
	</g>
</g>
<g>
	<g>
		<rect x="172.1" y="314.8" class="st0" width="8.7" height="51.3"/>
	</g>
</g>
<g>
	<g>
		<rect x="182.6" y="314.8" class="st0" width="8.7" height="51.3"/>
	</g>
</g>
<g>
	<g>
		<rect x="193.1" y="314.8" class="st0" width="8.7" height="51.3"/>
	</g>
</g>
<g>
	<g>
		<rect x="203.7" y="314.8" class="st0" width="8.7" height="51.3"/>
	</g>
</g>
<g>
	<g>
		<rect x="214.2" y="314.8" class="st0" width="8.7" height="51.3"/>
	</g>
</g>
<g>
	<g>
		<rect x="224.7" y="314.8" class="st0" width="8.7" height="51.3"/>
	</g>
</g>
<g>
	<g>
		<rect x="235.2" y="314.8" class="st0" width="8.7" height="51.3"/>
	</g>
</g>
<g>
	<g>
		<rect x="245.7" y="314.8" class="st0" width="8.7" height="51.3"/>
	</g>
</g>
<g>
	<g>
		<rect x="256.2" y="314.8" class="st0" width="8.7" height="51.3"/>
	</g>
</g>
<g>
	<g>
		<rect x="266.7" y="314.8" class="st0" width="8.7" height="51.3"/>
	</g>
</g>
<g>
	<g>
		<rect x="277.2" y="314.8" class="st0" width="8.7" height="51.3"/>
	</g>
</g>
<g>
	<g>
		<rect x="287.7" y="314.8" class="st0" width="8.7" height="51.3"/>
	</g>
</g>
<g>
	<g>
		<rect x="298.2" y="314.8" class="st0" width="8.7" height="51.3"/>
	</g>
</g>
<g>
	<g>
		<rect x="308.7" y="314.8" class="st0" width="8.7" height="51.3"/>
	</g>
</g>
<g>
	<g>
		<rect x="319.2" y="314.8" class="st0" width="8.7" height="51.3"/>
	</g>
</g>
<g>
	<g>
		<rect x="329.7" y="314.8" class="st0" width="8.7" height="51.3"/>
	</g>
</g>
<g>
	<g>
		<rect x="340.2" y="314.8" class="st0" width="8.7" height="51.3"/>
	</g>
</g>
<g>
	<g>
		<rect x="350.7" y="314.8" class="st0" width="8.7" height="51.3"/>
	</g>
</g>
<g>
	<g>
		<rect x="361.2" y="314.8" class="st0" width="8.7" height="51.3"/>
	</g>
</g>
<g>
	<g>
		<rect x="371.7" y="314.8" class="st0" width="8.7" height="51.3"/>
	</g>
</g>
<g>
	<g>
		<rect x="382.2" y="314.8" class="st0" width="8.7" height="51.3"/>
	</g>
</g>
<g>
	<g>
		<rect x="392.8" y="314.8" class="st0" width="8.7" height="51.3"/>
	</g>
</g>
<g>
	<g>
		<rect x="403.3" y="314.8" class="st0" width="8.7" height="51.3"/>
	</g>
</g>
<g>
	<g>
		<rect x="413.8" y="314.8" class="st0" width="8.7" height="51.3"/>
	</g>
</g>
<g>
	<g>
		<rect x="424.3" y="314.8" class="st0" width="8.7" height="51.3"/>
	</g>
</g>
<g>
	<g>
		<rect x="434.8" y="314.8" class="st0" width="8.7" height="51.3"/>
	</g>
</g>
<g>
	<g>
		<rect x="445.3" y="314.8" class="st0" width="8.7" height="51.3"/>
	</g>
</g>
<g>
	<g>
		<rect x="455.8" y="314.8" class="st0" width="8.7" height="51.3"/>
	</g>
</g>
<g>
	<g>
		<rect x="466.3" y="314.8" class="st0" width="8.7" height="51.3"/>
	</g>
</g>
<g>
	<g>
		<rect x="476.8" y="314.8" class="st0" width="8.7" height="51.3"/>
	</g>
</g>
<g class="st1">
	<g>
		<rect x="487.3" y="314.8" class="st0" width="8.7" height="51.3"/>
	</g>
</g>
<g class="st1">
	<g>
		<rect x="497.8" y="314.8" class="st0" width="8.7" height="51.3"/>
	</g>
</g>
<g class="st1">
	<g>
		<rect x="508.3" y="314.8" class="st0" width="8.7" height="51.3"/>
	</g>
</g>
<g class="st1">
	<g>
		<rect x="518.8" y="314.8" class="st0" width="8.7" height="51.3"/>
	</g>
</g>
<g class="st1">
	<g>
		<rect x="529.3" y="314.8" class="st0" width="8.7" height="51.3"/>
	</g>
</g>
<g class="st1">
	<g>
		<rect x="539.8" y="314.8" class="st0" width="8.7" height="51.3"/>
	</g>
</g>
<g class="st1">
	<g>
		<rect x="550.3" y="314.8" class="st0" width="8.7" height="51.3"/>
	</g>
</g>
<g class="st1">
	<g>
		<rect x="560.8" y="314.8" class="st0" width="8.7" height="51.3"/>
	</g>
</g>
<g class="st1">
	<g>
		<rect x="571.4" y="314.8" class="st0" width="8.7" height="51.3"/>
	</g>
</g>
<g class="st1">
	<g>
		<rect x="581.9" y="314.8" class="st0" width="8.7" height="51.3"/>
	</g>
</g>
<g class="st1">
	<g>
		<rect x="592.4" y="314.8" class="st0" width="8.7" height="51.3"/>
	</g>
</g>
<g class="st1">
	<g>
		<rect x="602.9" y="314.8" class="st0" width="8.7" height="51.3"/>
	</g>
</g>
<g class="st1">
	<g>
		<rect x="613.4" y="314.8" class="st0" width="8.7" height="51.3"/>
	</g>
</g>
<g class="st1">
	<g>
		<rect x="623.9" y="314.8" class="st0" width="8.7" height="51.3"/>
	</g>
</g>
<g class="st1">
	<g>
		<rect x="634.4" y="314.8" class="st0" width="8.7" height="51.3"/>
	</g>
</g>
<g class="st1">
	<g>
		<rect x="644.9" y="314.8" class="st0" width="8.7" height="51.3"/>
	</g>
</g>
<g class="st1">
	<g>
		<rect x="655.5" y="314.8" class="st0" width="8.7" height="51.3"/>
	</g>
</g>
<g class="st1">
	<g>
		<rect x="666" y="314.8" class="st0" width="8.7" height="51.3"/>
	</g>
</g>
<path class="st0" d="M352.3,284.1h-6.4v-2.9h10v1.8l-6,20.1h-3.6L352.3,284.1z"/>
<path class="st0" d="M357.6,287.4c0-1,0.1-1.8,0.3-2.5c0.2-0.7,0.4-1.3,0.7-1.8c0.3-0.5,0.6-0.9,1-1.1c0.4-0.3,0.8-0.5,1.2-0.7
	s0.8-0.3,1.2-0.3c0.4-0.1,0.8-0.1,1.1-0.1c0.3,0,0.7,0,1.1,0.1s0.8,0.1,1.2,0.3s0.8,0.4,1.2,0.7c0.4,0.3,0.7,0.7,1,1.1
	c0.3,0.5,0.5,1.1,0.7,1.8c0.2,0.7,0.3,1.5,0.3,2.5v9.2c0,1-0.1,1.8-0.3,2.5c-0.2,0.7-0.4,1.3-0.7,1.8c-0.3,0.5-0.6,0.9-1,1.2
	c-0.4,0.3-0.8,0.5-1.2,0.7c-0.4,0.2-0.8,0.3-1.2,0.3c-0.4,0.1-0.7,0.1-1,0.1s-0.7,0-1.1-0.1s-0.8-0.2-1.2-0.3
	c-0.4-0.2-0.8-0.4-1.2-0.7c-0.4-0.3-0.7-0.7-1-1.2s-0.5-1.1-0.7-1.8c-0.2-0.7-0.3-1.5-0.3-2.5v-9.2H357.6z M361,298
	c0,0.9,0.2,1.6,0.5,2s0.8,0.6,1.5,0.6s1.1-0.2,1.5-0.6c0.3-0.4,0.5-1.1,0.5-2v-11.8c0-1-0.2-1.7-0.5-2.1s-0.8-0.7-1.5-0.7
	s-1.2,0.2-1.5,0.7c-0.3,0.4-0.5,1.1-0.5,2.1V298z"/>
<path class="st0" d="M375.8,293c-0.5,0-1-0.1-1.5-0.2s-0.9-0.4-1.3-0.8s-0.7-1-1-1.7c-0.2-0.7-0.4-1.7-0.4-2.9V286
	c0-0.8,0.1-1.4,0.2-2s0.3-1.1,0.5-1.5s0.4-0.7,0.7-1c0.3-0.2,0.6-0.4,0.9-0.6c0.3-0.1,0.6-0.2,0.9-0.3c0.3-0.1,0.6-0.1,0.9-0.1
	s0.6,0,0.9,0.1c0.3,0,0.6,0.1,0.9,0.3c0.3,0.1,0.6,0.3,0.9,0.6c0.3,0.2,0.5,0.6,0.7,1s0.4,0.9,0.5,1.5s0.2,1.2,0.2,2v1.4
	c0,1.2-0.1,2.1-0.4,2.8c-0.3,0.7-0.6,1.3-1,1.7c-0.4,0.4-0.8,0.7-1.3,0.8S376.2,293,375.8,293z M375.8,290.9c0.5,0,0.9-0.2,1.1-0.7
	s0.3-1.2,0.3-2.2v-2.5c0-1-0.1-1.7-0.3-2.2c-0.2-0.5-0.6-0.7-1.1-0.7c-0.6,0-1,0.2-1.2,0.7s-0.3,1.2-0.3,2.2v2.5
	c0,1,0.1,1.7,0.3,2.2C374.8,290.7,375.2,290.9,375.8,290.9z M383.5,280.9h2.3L380,303h-2.3L383.5,280.9z M383.5,296.3
	c0-1.2,0.1-2.1,0.4-2.8c0.3-0.7,0.6-1.2,1-1.6s0.9-0.6,1.3-0.8c0.5-0.1,1-0.2,1.4-0.2c0.3,0,0.6,0,0.9,0.1c0.3,0,0.6,0.1,0.9,0.3
	c0.3,0.1,0.6,0.3,0.9,0.6c0.3,0.2,0.5,0.6,0.7,1s0.4,0.9,0.5,1.5s0.2,1.3,0.2,2v1.4c0,0.8-0.1,1.5-0.2,2c-0.1,0.6-0.3,1.1-0.5,1.5
	s-0.5,0.7-0.7,1c-0.3,0.3-0.6,0.5-0.9,0.6c-0.3,0.2-0.6,0.3-0.9,0.3c-0.3,0.1-0.6,0.1-0.9,0.1s-0.7,0-1-0.1s-0.6-0.2-0.9-0.3
	c-0.3-0.1-0.6-0.4-0.9-0.6c-0.3-0.3-0.5-0.6-0.7-1s-0.4-0.9-0.5-1.5s-0.2-1.3-0.2-2.1v-1.4H383.5z M386.2,298.3c0,1,0.1,1.7,0.3,2.2
	c0.2,0.5,0.6,0.7,1.2,0.7c0.5,0,0.9-0.2,1.1-0.7s0.3-1.2,0.3-2.2v-2.5c0-1-0.1-1.7-0.3-2.2c-0.2-0.5-0.6-0.7-1.1-0.7
	c-0.6,0-1,0.2-1.2,0.7s-0.3,1.2-0.3,2.2V298.3z"/>
</svg>
