<?xml version="1.0" encoding="utf-8"?>
<!-- Generator: Adobe Illustrator 28.0.0, SVG Export Plug-In . SVG Version: 6.00 Build 0)  -->
<svg version="1.1" id="Layer_1" xmlns:xodm="http://www.corel.com/coreldraw/odm/2003"
	 xmlns="http://www.w3.org/2000/svg" xmlns:xlink="http://www.w3.org/1999/xlink" x="0px" y="0px" viewBox="0 0 720 720"
	 style="enable-background:new 0 0 720 720;" xml:space="preserve">
<style type="text/css">
	.st0{fill-rule:evenodd;clip-rule:evenodd;fill:#C10C0C;}
	.st1{fill-rule:evenodd;clip-rule:evenodd;fill:#FFFFFF;}
</style>
<polygon class="st0" points="489,44.4 226.5,44.4 40.9,230.1 40.9,492.6 226.5,678.2 489,678.2 674.7,492.6 674.7,230.1 "/>
<path class="st1" d="M480.6,64.9H235L61.3,238.5v245.6L235,657.8h245.6l173.7-173.7V238.5L480.6,64.9z M648.9,481.9L478.4,652.4
	H237.2L66.7,481.9V240.8L237.2,70.2h241.2l170.5,170.5V481.9z"/>
<g id="Layer_x0020_1">
	<path class="st1" d="M233.9,222.9c-0.5,57-8.3,213.4-1.4,275.2c3.3,29.1,9.4,49.2,32.8,67.3c29,22.4,65.7,17.4,100,17.5
		c38.8,0.1,71.8,1.2,90.3-37.8c22.8-48,82.6-194.7,93.6-222c-11.6-19.2-47.9-15.1-58.5,11.3c-11.7,23.8-35.5,82.7-41,94.6
		c-0.6-5.9,0.5-48.5,0.5-97c0-51.5-0.1-105.8-0.1-155.8c0-30.4-47-30-47.2,0c-0.5,51.5-0.4,104.3,0,155.8c-2.4,0-6.1,0-9.6,0
		c-0.1-60.9,0.5-126.6-0.1-186.2c0.1-27.7-46.8-27.8-46.8,0.1c-0.6,61.3,0.5,124.4,0,186.2c-1.5,0-8.9,0-9.3,0
		c-0.3-53.1,0.2-113.4-0.2-155.8c0.3-30.4-46.5-30.4-46.3-0.2c-0.5,52.1-0.5,103.4-0.2,155.9c-1,0-7.5,0-9.4,0
		c0-6.7,0.5-79.3-0.1-107C281,191.8,234,194.1,233.9,222.9L233.9,222.9z"/>
</g>
</svg>
