<?xml version="1.0" encoding="utf-8"?>
<!-- Generator: Adobe Illustrator 28.0.0, SVG Export Plug-In . SVG Version: 6.00 Build 0)  -->
<svg version="1.1" id="Layer_1" xmlns:xodm="http://www.corel.com/coreldraw/odm/2003"
	 xmlns="http://www.w3.org/2000/svg" xmlns:xlink="http://www.w3.org/1999/xlink" x="0px" y="0px" viewBox="0 0 720 720"
	 style="enable-background:new 0 0 720 720;" xml:space="preserve">
<style type="text/css">
	.st0{fill:#F6B24A;}
	.st1{opacity:0.5;}
</style>
<g>
	<path class="st0" d="M671.2,372.7H49c-5.9,0-10.7-4.8-10.7-10.7v-43c0-5.9,4.8-10.7,10.7-10.7h622.2c5.9,0,10.7,4.8,10.7,10.7v43
		C682,367.9,677.1,372.7,671.2,372.7z M49,313.5c-3,0-5.5,2.5-5.5,5.5v43c0,3,2.5,5.5,5.5,5.5h622.2c3,0,5.5-2.5,5.5-5.5v-43
		c0-3-2.5-5.5-5.5-5.5H49z"/>
</g>
<g>
	<g>
		<rect x="46.3" y="314.9" class="st0" width="8.6" height="51.2"/>
	</g>
</g>
<g>
	<g>
		<rect x="56.8" y="314.9" class="st0" width="8.6" height="51.2"/>
	</g>
</g>
<g>
	<g>
		<rect x="67.3" y="314.9" class="st0" width="8.6" height="51.2"/>
	</g>
</g>
<g>
	<g>
		<rect x="77.8" y="314.9" class="st0" width="8.6" height="51.2"/>
	</g>
</g>
<g>
	<g>
		<rect x="88.3" y="314.9" class="st0" width="8.6" height="51.2"/>
	</g>
</g>
<g>
	<g>
		<rect x="98.8" y="314.9" class="st0" width="8.6" height="51.2"/>
	</g>
</g>
<g>
	<g>
		<rect x="109.3" y="314.9" class="st0" width="8.6" height="51.2"/>
	</g>
</g>
<g>
	<g>
		<rect x="119.7" y="314.9" class="st0" width="8.6" height="51.2"/>
	</g>
</g>
<g>
	<g>
		<rect x="130.2" y="314.9" class="st0" width="8.6" height="51.2"/>
	</g>
</g>
<g>
	<g>
		<rect x="140.7" y="314.9" class="st0" width="8.6" height="51.2"/>
	</g>
</g>
<g>
	<g>
		<rect x="151.2" y="314.9" class="st0" width="8.6" height="51.2"/>
	</g>
</g>
<g>
	<g>
		<rect x="161.7" y="314.9" class="st0" width="8.6" height="51.2"/>
	</g>
</g>
<g>
	<g>
		<rect x="172.2" y="314.9" class="st0" width="8.6" height="51.2"/>
	</g>
</g>
<g>
	<g>
		<rect x="182.7" y="314.9" class="st0" width="8.6" height="51.2"/>
	</g>
</g>
<g>
	<g>
		<rect x="193.2" y="314.9" class="st0" width="8.6" height="51.2"/>
	</g>
</g>
<g>
	<g>
		<rect x="203.6" y="314.9" class="st0" width="8.6" height="51.2"/>
	</g>
</g>
<g>
	<g>
		<rect x="214.1" y="314.9" class="st0" width="8.6" height="51.2"/>
	</g>
</g>
<g>
	<g>
		<rect x="224.6" y="314.9" class="st0" width="8.6" height="51.2"/>
	</g>
</g>
<g class="st1">
	<g>
		<rect x="235.1" y="314.9" class="st0" width="8.6" height="51.2"/>
	</g>
</g>
<g class="st1">
	<g>
		<rect x="245.6" y="314.9" class="st0" width="8.6" height="51.2"/>
	</g>
</g>
<g class="st1">
	<g>
		<rect x="256.1" y="314.9" class="st0" width="8.6" height="51.2"/>
	</g>
</g>
<g class="st1">
	<g>
		<rect x="266.6" y="314.9" class="st0" width="8.6" height="51.2"/>
	</g>
</g>
<g class="st1">
	<g>
		<rect x="277.1" y="314.9" class="st0" width="8.6" height="51.2"/>
	</g>
</g>
<g class="st1">
	<g>
		<rect x="287.6" y="314.9" class="st0" width="8.6" height="51.2"/>
	</g>
</g>
<g class="st1">
	<g>
		<rect x="298" y="314.9" class="st0" width="8.6" height="51.2"/>
	</g>
</g>
<g class="st1">
	<g>
		<rect x="308.5" y="314.9" class="st0" width="8.6" height="51.2"/>
	</g>
</g>
<g class="st1">
	<g>
		<rect x="319" y="314.9" class="st0" width="8.6" height="51.2"/>
	</g>
</g>
<g class="st1">
	<g>
		<rect x="329.5" y="314.9" class="st0" width="8.6" height="51.2"/>
	</g>
</g>
<g class="st1">
	<g>
		<rect x="340" y="314.9" class="st0" width="8.6" height="51.2"/>
	</g>
</g>
<g class="st1">
	<g>
		<rect x="350.5" y="314.9" class="st0" width="8.6" height="51.2"/>
	</g>
</g>
<g class="st1">
	<g>
		<rect x="361" y="314.9" class="st0" width="8.6" height="51.2"/>
	</g>
</g>
<g class="st1">
	<g>
		<rect x="371.5" y="314.9" class="st0" width="8.6" height="51.2"/>
	</g>
</g>
<g class="st1">
	<g>
		<rect x="381.9" y="314.9" class="st0" width="8.6" height="51.2"/>
	</g>
</g>
<g class="st1">
	<g>
		<rect x="392.4" y="314.9" class="st0" width="8.6" height="51.2"/>
	</g>
</g>
<g class="st1">
	<g>
		<rect x="402.9" y="314.9" class="st0" width="8.6" height="51.2"/>
	</g>
</g>
<g class="st1">
	<g>
		<rect x="413.4" y="314.9" class="st0" width="8.6" height="51.2"/>
	</g>
</g>
<g class="st1">
	<g>
		<rect x="423.9" y="314.9" class="st0" width="8.6" height="51.2"/>
	</g>
</g>
<g class="st1">
	<g>
		<rect x="434.4" y="314.9" class="st0" width="8.6" height="51.2"/>
	</g>
</g>
<g class="st1">
	<g>
		<rect x="444.9" y="314.9" class="st0" width="8.6" height="51.2"/>
	</g>
</g>
<g class="st1">
	<g>
		<rect x="455.4" y="314.9" class="st0" width="8.6" height="51.2"/>
	</g>
</g>
<g class="st1">
	<g>
		<rect x="465.8" y="314.9" class="st0" width="8.6" height="51.2"/>
	</g>
</g>
<g class="st1">
	<g>
		<rect x="476.3" y="314.9" class="st0" width="8.6" height="51.2"/>
	</g>
</g>
<g class="st1">
	<g>
		<rect x="486.8" y="314.9" class="st0" width="8.6" height="51.2"/>
	</g>
</g>
<g class="st1">
	<g>
		<rect x="497.3" y="314.9" class="st0" width="8.6" height="51.2"/>
	</g>
</g>
<g class="st1">
	<g>
		<rect x="507.8" y="314.9" class="st0" width="8.6" height="51.2"/>
	</g>
</g>
<g class="st1">
	<g>
		<rect x="518.3" y="314.9" class="st0" width="8.6" height="51.2"/>
	</g>
</g>
<g class="st1">
	<g>
		<rect x="528.8" y="314.9" class="st0" width="8.6" height="51.2"/>
	</g>
</g>
<g class="st1">
	<g>
		<rect x="539.3" y="314.9" class="st0" width="8.6" height="51.2"/>
	</g>
</g>
<g class="st1">
	<g>
		<rect x="549.7" y="314.9" class="st0" width="8.6" height="51.2"/>
	</g>
</g>
<g class="st1">
	<g>
		<rect x="560.2" y="314.9" class="st0" width="8.6" height="51.2"/>
	</g>
</g>
<g class="st1">
	<g>
		<rect x="570.7" y="314.9" class="st0" width="8.6" height="51.2"/>
	</g>
</g>
<g class="st1">
	<g>
		<rect x="581.2" y="314.9" class="st0" width="8.6" height="51.2"/>
	</g>
</g>
<g class="st1">
	<g>
		<rect x="591.7" y="314.9" class="st0" width="8.6" height="51.2"/>
	</g>
</g>
<g class="st1">
	<g>
		<rect x="602.2" y="314.9" class="st0" width="8.6" height="51.2"/>
	</g>
</g>
<g class="st1">
	<g>
		<rect x="612.7" y="314.9" class="st0" width="8.6" height="51.2"/>
	</g>
</g>
<g class="st1">
	<g>
		<rect x="623.2" y="314.9" class="st0" width="8.6" height="51.2"/>
	</g>
</g>
<g class="st1">
	<g>
		<rect x="633.6" y="314.9" class="st0" width="8.6" height="51.2"/>
	</g>
</g>
<g class="st1">
	<g>
		<rect x="644.2" y="314.9" class="st0" width="8.6" height="51.2"/>
	</g>
</g>
<g class="st1">
	<g>
		<rect x="654.7" y="314.9" class="st0" width="8.6" height="51.2"/>
	</g>
</g>
<g class="st1">
	<g>
		<rect x="665.2" y="314.9" class="st0" width="8.6" height="51.2"/>
	</g>
</g>
<path class="st0" d="M340.4,297.9c0-0.4,0-0.8,0.1-1.2c0.1-0.4,0.1-0.9,0.2-1.4h2.6v1.1c0,0.7,0.1,1.3,0.2,1.7
	c0.1,0.5,0.3,0.8,0.5,1.1c0.2,0.3,0.4,0.5,0.7,0.6c0.3,0.1,0.6,0.2,0.9,0.2s0.6,0,0.9-0.1s0.5-0.2,0.7-0.4c0.2-0.2,0.3-0.5,0.4-0.8
	s0.1-0.7,0.1-1.2v-2.4c0-0.5,0-0.9-0.1-1.2c-0.1-0.4-0.2-0.7-0.4-0.9c-0.2-0.2-0.4-0.4-0.7-0.6c-0.3-0.1-0.6-0.2-1.1-0.2H344v-2.4
	h1.4c0.3,0,0.5,0,0.8-0.1c0.2-0.1,0.4-0.2,0.6-0.4c0.2-0.2,0.3-0.5,0.4-0.8s0.2-0.7,0.2-1.1v-2.3c0-0.8-0.2-1.4-0.5-1.8
	s-0.8-0.6-1.4-0.6c-0.7,0-1.2,0.3-1.6,0.9s-0.6,1.5-0.6,2.7v1.2h-2.6c-0.1-0.4-0.2-0.8-0.2-1.3c-0.1-0.4-0.1-0.9-0.1-1.3
	c0-0.6,0.1-1.1,0.3-1.7s0.5-1,0.9-1.5c0.4-0.4,0.9-0.8,1.6-1.1c0.6-0.3,1.4-0.4,2.2-0.4c0.9,0,1.7,0.1,2.4,0.3s1.2,0.5,1.6,0.9
	s0.7,0.9,0.9,1.5c0.2,0.6,0.3,1.3,0.3,2.1v1.3c0,0.6-0.1,1.2-0.2,1.7c-0.2,0.5-0.4,0.9-0.6,1.3c-0.3,0.4-0.5,0.7-0.9,0.9
	c-0.3,0.3-0.6,0.5-1,0.6v0.1c0.4,0.1,0.8,0.3,1.2,0.6c0.4,0.2,0.7,0.5,1,0.9s0.5,0.8,0.6,1.3c0.2,0.5,0.2,1.1,0.2,1.9v1.4
	c0,1-0.1,1.9-0.4,2.5c-0.3,0.7-0.7,1.2-1.2,1.7c-0.5,0.4-1.1,0.7-1.7,0.9c-0.7,0.2-1.4,0.3-2.1,0.3c-1.7,0-2.9-0.4-3.8-1.2
	C340.8,300.5,340.4,299.4,340.4,297.9z"/>
<path class="st0" d="M353.7,286.8c0-1,0.1-1.8,0.3-2.5c0.2-0.7,0.4-1.3,0.7-1.8c0.3-0.5,0.6-0.9,1-1.1c0.4-0.3,0.8-0.5,1.2-0.7
	c0.4-0.2,0.8-0.3,1.2-0.3c0.4-0.1,0.8-0.1,1.1-0.1c0.3,0,0.7,0,1.1,0.1c0.4,0,0.8,0.1,1.2,0.3c0.4,0.1,0.8,0.4,1.1,0.7
	c0.4,0.3,0.7,0.7,1,1.1c0.3,0.5,0.5,1.1,0.7,1.8c0.2,0.7,0.3,1.5,0.3,2.5v9.2c0,1-0.1,1.8-0.3,2.5c-0.2,0.7-0.4,1.3-0.7,1.8
	c-0.3,0.5-0.6,0.9-1,1.2c-0.4,0.3-0.8,0.5-1.2,0.7c-0.4,0.2-0.8,0.3-1.2,0.3c-0.4,0.1-0.7,0.1-1,0.1s-0.7,0-1.1-0.1
	s-0.8-0.2-1.2-0.3c-0.4-0.2-0.8-0.4-1.2-0.7c-0.4-0.3-0.7-0.7-1-1.2s-0.5-1.1-0.7-1.8c-0.2-0.7-0.3-1.5-0.3-2.5V286.8z M357.1,297.4
	c0,0.9,0.2,1.6,0.5,2s0.8,0.6,1.5,0.6s1.1-0.2,1.5-0.6c0.3-0.4,0.5-1.1,0.5-2v-11.8c0-1-0.2-1.6-0.5-2.1c-0.3-0.4-0.8-0.7-1.5-0.7
	s-1.2,0.2-1.5,0.7c-0.3,0.4-0.5,1.1-0.5,2.1V297.4z"/>
<path class="st0" d="M371.8,292.3c-0.5,0-1-0.1-1.5-0.2s-0.9-0.4-1.3-0.8s-0.7-1-1-1.7c-0.2-0.7-0.4-1.7-0.4-2.9v-1.4
	c0-0.8,0.1-1.4,0.2-2s0.3-1,0.5-1.5c0.2-0.4,0.4-0.7,0.7-1c0.3-0.2,0.6-0.4,0.9-0.6c0.3-0.1,0.6-0.2,0.9-0.3
	c0.3-0.1,0.6-0.1,0.9-0.1s0.6,0,0.9,0.1c0.3,0,0.6,0.1,0.9,0.3c0.3,0.1,0.6,0.3,0.9,0.6c0.3,0.2,0.5,0.6,0.7,1s0.4,0.9,0.5,1.5
	s0.2,1.2,0.2,2v1.4c0,1.2-0.1,2.1-0.4,2.8c-0.3,0.7-0.6,1.3-1,1.7c-0.4,0.4-0.8,0.7-1.3,0.8C372.7,292.2,372.3,292.3,371.8,292.3z
	 M371.9,290.3c0.5,0,0.9-0.2,1.1-0.7s0.3-1.2,0.3-2.2v-2.5c0-1-0.1-1.7-0.3-2.2c-0.2-0.5-0.6-0.7-1.1-0.7c-0.6,0-1,0.2-1.2,0.7
	s-0.3,1.2-0.3,2.2v2.5c0,1,0.1,1.7,0.3,2.2C370.9,290,371.3,290.3,371.9,290.3z M379.6,280.3h2.3l-5.9,22.1h-2.3L379.6,280.3z
	 M379.6,295.6c0-1.2,0.1-2.1,0.4-2.8c0.3-0.7,0.6-1.2,1-1.6s0.8-0.6,1.3-0.8c0.5-0.1,1-0.2,1.4-0.2c0.3,0,0.6,0,0.9,0.1
	c0.3,0,0.6,0.1,0.9,0.3c0.3,0.1,0.6,0.3,0.9,0.6c0.3,0.2,0.5,0.6,0.7,1s0.4,0.9,0.5,1.5s0.2,1.2,0.2,2v1.4c0,0.8-0.1,1.5-0.2,2
	c-0.1,0.6-0.3,1.1-0.5,1.5s-0.4,0.7-0.7,1c-0.3,0.3-0.6,0.5-0.9,0.6c-0.3,0.2-0.6,0.3-0.9,0.3c-0.3,0.1-0.6,0.1-0.9,0.1
	s-0.7,0-1-0.1s-0.6-0.2-0.9-0.3c-0.3-0.1-0.6-0.3-0.9-0.6c-0.3-0.3-0.5-0.6-0.7-1s-0.4-0.9-0.5-1.5s-0.2-1.3-0.2-2.1v-1.4H379.6z
	 M382.2,297.6c0,1,0.1,1.7,0.3,2.2c0.2,0.5,0.6,0.7,1.2,0.7c0.5,0,0.9-0.2,1.1-0.7s0.3-1.2,0.3-2.2v-2.5c0-1-0.1-1.7-0.3-2.2
	c-0.2-0.5-0.6-0.7-1.1-0.7c-0.6,0-1,0.2-1.2,0.7s-0.3,1.2-0.3,2.2V297.6z"/>
</svg>
