<?xml version="1.0" encoding="utf-8"?>
<!-- Generator: Adobe Illustrator 28.0.0, SVG Export Plug-In . SVG Version: 6.00 Build 0)  -->
<svg version="1.1" id="Layer_1" xmlns:xodm="http://www.corel.com/coreldraw/odm/2003"
	 xmlns="http://www.w3.org/2000/svg" xmlns:xlink="http://www.w3.org/1999/xlink" x="0px" y="0px" viewBox="0 0 720 720"
	 style="enable-background:new 0 0 720 720;" xml:space="preserve">
<style type="text/css">
	.st0{fill-rule:evenodd;clip-rule:evenodd;fill:#C10C0C;}
	.st1{fill-rule:evenodd;clip-rule:evenodd;fill:#F9F9F9;}
</style>
<path class="st0" d="M334.7,79.2c11.2-19.5,39.3-19.5,50.5,0L539,345.4L694.6,615c10.4,18-2.6,40.4-23.3,40.4H360H48.7
	C28,655.4,15,633,25.4,615L181,345.4L334.7,79.2z"/>
<path class="st1" d="M674.8,621.8L521.3,356L367.8,90.1c-3.5-6-12.1-6-15.6,0L198.7,356L45.2,621.8c-3.5,6,0.9,13.5,7.8,13.5h307
	h307C673.9,635.3,678.2,627.8,674.8,621.8z M664.4,629.2H360H55.6c-3.1,0-5-3.3-3.5-6l152.2-263.6L356.5,96c1.5-2.7,5.4-2.7,6.9,0
	l152.2,263.6l152.2,263.6C669.4,625.8,667.5,629.2,664.4,629.2z"/>
</svg>
