<?xml version="1.0" encoding="utf-8"?>
<!-- Generator: Adobe Illustrator 28.0.0, SVG Export Plug-In . SVG Version: 6.00 Build 0)  -->
<svg version="1.1" id="Layer_1" xmlns:xodm="http://www.corel.com/coreldraw/odm/2003"
	 xmlns="http://www.w3.org/2000/svg" xmlns:xlink="http://www.w3.org/1999/xlink" x="0px" y="0px" viewBox="0 0 720 720"
	 style="enable-background:new 0 0 720 720;" xml:space="preserve">
<style type="text/css">
	.st0{opacity:0.4;}
	.st1{opacity:0.6;}
</style>
<g class="st0">
	<rect x="258.3" y="256" transform="matrix(0.7071 -0.7071 0.7071 0.7071 -147.8004 360.0403)" width="204.8" height="204.8"/>
	<path d="M360.7,504L215.2,358.4l145.5-145.5l145.5,145.5L360.7,504z M216.6,358.4l144.1,144.1l144.1-144.1L360.7,214.3L216.6,358.4
		z"/>
</g>
<g class="st1">
	<rect x="288" y="289.1" transform="matrix(0.7071 -0.7071 0.7071 0.7071 -149.8523 360.3044)" width="143.9" height="143.9"/>
	<path d="M360,463.5L257.5,361L360,258.6L462.5,361L360,463.5z M258.9,361L360,462.1L461.1,361L360,260L258.9,361z"/>
</g>
<g>
	<g>
		<polygon points="623.3,377 618.1,371.8 631.5,358.4 618.1,345 623.3,339.9 641.8,358.4 		"/>
	</g>
</g>
<g>
	<g>
		<path d="M383.2,617.1l-5.1-5.1l30.4-30.4l5.1,5.1L383.2,617.1z M417.5,582.8l-5.1-5.1l30.4-30.4l5.1,5.1L417.5,582.8z
			 M451.8,548.5l-5.1-5.1L477,513l5.1,5.1L451.8,548.5z M486.1,514.2l-5.1-5.1l30.4-30.4l5.1,5.1L486.1,514.2z M520.4,479.9
			l-5.1-5.1l30.4-30.4l5.1,5.1L520.4,479.9z M554.7,445.6l-5.1-5.1l30.4-30.4l5.1,5.1L554.7,445.6z M589,411.3l-5.1-5.1l30.4-30.4
			l5.1,5.1L589,411.3z"/>
		<path d="M383.2,617.8l-5.8-5.8l31.1-31.1l5.8,5.8L383.2,617.8z M378.7,611.9l4.4,4.4l29.7-29.7l-4.4-4.4L378.7,611.9z
			 M417.5,583.5l-5.8-5.8l31.1-31.1l5.8,5.8L417.5,583.5z M413,577.6l4.4,4.4l29.7-29.7l-4.4-4.4L413,577.6z M451.8,549.2l-5.8-5.8
			l31.1-31.1l5.8,5.8L451.8,549.2z M447.3,543.3l4.4,4.4l29.7-29.7l-4.4-4.4L447.3,543.3z M486.1,514.9l-5.8-5.8l31.1-31.1l5.8,5.8
			L486.1,514.9z M481.6,509l4.4,4.4l29.7-29.7l-4.4-4.4L481.6,509z M520.4,480.6l-5.8-5.8l31.1-31.1l5.8,5.8L520.4,480.6z
			 M515.9,474.7l4.4,4.4l29.7-29.7l-4.4-4.4L515.9,474.7z M554.7,446.3l-5.8-5.8l31.1-31.1l5.8,5.8L554.7,446.3z M550.2,440.4
			l4.4,4.4l29.7-29.7l-4.4-4.4L550.2,440.4z M589,412l-5.8-5.8l31.1-31.1l5.8,5.8L589,412z M584.5,406.1l4.4,4.4l29.7-29.7l-4.4-4.4
			L584.5,406.1z"/>
	</g>
</g>
<g>
	<g>
		<polygon points="360.7,639.5 342.2,621 347.3,615.9 360.7,629.3 374.1,615.9 379.2,621 		"/>
	</g>
</g>
<g>
	<g>
		<path d="M338.2,617.1l-30.4-30.4l5.1-5.1l30.4,30.4L338.2,617.1z M303.9,582.8l-30.4-30.4l5.1-5.1l30.4,30.4L303.9,582.8z
			 M269.6,548.5l-30.4-30.4l5.1-5.1l30.4,30.4L269.6,548.5z M235.3,514.2L205,483.8l5.1-5.1l30.4,30.4L235.3,514.2z M201,479.9
			l-30.4-30.4l5.1-5.1l30.4,30.4L201,479.9z M166.7,445.6l-30.4-30.4l5.1-5.1l30.4,30.4L166.7,445.6z M132.4,411.3l-30.4-30.4
			l5.1-5.1l30.4,30.4L132.4,411.3z"/>
		<path d="M338.2,617.8l-31.1-31.1l5.8-5.8l31.1,31.1L338.2,617.8z M308.6,586.7l29.7,29.7l4.4-4.4L313,582.3L308.6,586.7z
			 M303.9,583.5l-31.1-31.1l5.8-5.8l31.1,31.1L303.9,583.5z M274.3,552.4l29.7,29.7l4.4-4.4L278.7,548L274.3,552.4z M269.6,549.2
			l-31.1-31.1l5.8-5.8l31.1,31.1L269.6,549.2z M240,518.1l29.7,29.7l4.4-4.4l-29.7-29.7L240,518.1z M235.3,514.9l-31.1-31.1l5.8-5.8
			l31.1,31.1L235.3,514.9z M205.7,483.8l29.7,29.7l4.4-4.4l-29.7-29.7L205.7,483.8z M201,480.6L170,449.5l5.8-5.8l31.1,31.1
			L201,480.6z M171.4,449.5l29.7,29.7l4.4-4.4l-29.7-29.7L171.4,449.5z M166.7,446.3l-31.1-31.1l5.8-5.8l31.1,31.1L166.7,446.3z
			 M137.1,415.2l29.7,29.7l4.4-4.4l-29.7-29.7L137.1,415.2z M132.4,412l-31.1-31.1l5.8-5.8l31.1,31.1L132.4,412z M102.8,380.9
			l29.7,29.7l4.4-4.4l-29.7-29.7L102.8,380.9z"/>
	</g>
</g>
<g>
	<g>
		<polygon points="98.1,377 79.6,358.4 98.1,339.9 103.3,345 89.9,358.4 103.3,371.8 		"/>
	</g>
</g>
<g>
	<g>
		<path d="M107.2,341.1l-5.1-5.1l30.4-30.4l5.1,5.1L107.2,341.1z M141.5,306.8l-5.1-5.1l30.4-30.4l5.1,5.1L141.5,306.8z
			 M175.8,272.5l-5.1-5.1L201,237l5.1,5.1L175.8,272.5z M210.1,238.2l-5.1-5.1l30.4-30.4l5.1,5.1L210.1,238.2z M244.4,203.9
			l-5.1-5.1l30.4-30.4l5.1,5.1L244.4,203.9z M278.7,169.6l-5.1-5.1l30.4-30.4l5.1,5.1L278.7,169.6z M313,135.3l-5.1-5.1l30.4-30.4
			l5.1,5.1L313,135.3z"/>
	</g>
</g>
<g>
	<g>
		<polygon points="374.1,101 360.7,87.6 347.3,101 342.2,95.9 360.7,77.3 379.2,95.9 		"/>
	</g>
</g>
<g>
	<g>
		<path d="M614.2,341.1l-30.4-30.4l5.1-5.1l30.4,30.4L614.2,341.1z M579.9,306.8l-30.4-30.4l5.1-5.1l30.4,30.4L579.9,306.8z
			 M545.6,272.5l-30.4-30.4l5.1-5.1l30.4,30.4L545.6,272.5z M511.3,238.2l-30.4-30.4l5.1-5.1l30.4,30.4L511.3,238.2z M477,203.9
			l-30.4-30.4l5.1-5.1l30.4,30.4L477,203.9z M442.7,169.6l-30.4-30.4l5.1-5.1l30.4,30.4L442.7,169.6z M408.4,135.3L378,104.9
			l5.1-5.1l30.4,30.4L408.4,135.3z"/>
		<path d="M614.2,341.8l-31.1-31.1l5.8-5.8l31.1,31.1L614.2,341.8z M584.5,310.7l29.7,29.7l4.4-4.4L589,306.3L584.5,310.7z
			 M579.9,307.5l-31.1-31.1l5.8-5.8l31.1,31.1L579.9,307.5z M550.2,276.4l29.7,29.7l4.4-4.4L554.7,272L550.2,276.4z M545.6,273.2
			l-31.1-31.1l5.8-5.8l31.1,31.1L545.6,273.2z M515.9,242.1l29.7,29.7l4.4-4.4l-29.7-29.7L515.9,242.1z M511.3,238.9l-31.1-31.1
			l5.8-5.8l31.1,31.1L511.3,238.9z M481.6,207.8l29.7,29.7l4.4-4.4l-29.7-29.7L481.6,207.8z M477,204.6l-31.1-31.1l5.8-5.8
			l31.1,31.1L477,204.6z M447.3,173.5l29.7,29.7l4.4-4.4l-29.7-29.7L447.3,173.5z M442.7,170.3l-31.1-31.1l5.8-5.8l31.1,31.1
			L442.7,170.3z M413,139.2l29.7,29.7l4.4-4.4l-29.7-29.7L413,139.2z M408.4,136l-31.1-31.1l5.8-5.8l31.1,31.1L408.4,136z
			 M378.7,104.9l29.7,29.7l4.4-4.4l-29.7-29.7L378.7,104.9z"/>
	</g>
</g>
<g>
	<g>
		<g>
			<polygon points="667.8,371.7 662,365.8 669.3,358.4 662,351.1 667.8,345.2 681,358.4 			"/>
			<path d="M667.8,372.4l-6.6-6.6l7.4-7.4l-7.4-7.4l6.6-6.6l13.9,13.9L667.8,372.4z M662.7,365.8l5.1,5.1l12.5-12.5l-12.5-12.5
				l-5.1,5.1l7.4,7.4L662.7,365.8z"/>
		</g>
	</g>
	<g>
		<g>
			<path d="M579,460.5l-5.8-5.8l18.5-18.5l5.8,5.8L579,460.5z M601.2,438.3l-5.8-5.8l18.5-18.5l5.8,5.8L601.2,438.3z M623.4,416.1
				l-5.8-5.8l18.5-18.5l5.8,5.8L623.4,416.1z M645.6,393.9l-5.8-5.8l18.5-18.5l5.8,5.8L645.6,393.9z"/>
			<path d="M579,461.2l-6.6-6.6l19.2-19.2l6.6,6.6L579,461.2z M573.9,454.6l5.1,5.1l17.8-17.8l-5.1-5.1L573.9,454.6z M601.2,439
				l-6.6-6.6l19.2-19.2l6.6,6.6L601.2,439z M596.1,432.4l5.1,5.1l17.8-17.8l-5.1-5.1L596.1,432.4z M623.4,416.8l-6.6-6.6l19.2-19.2
				l6.6,6.6L623.4,416.8z M618.3,410.2l5.1,5.1l17.8-17.8l-5.1-5.1L618.3,410.2z M645.6,394.6L639,388l19.2-19.2l6.6,6.6
				L645.6,394.6z M640.5,388l5.1,5.1l17.8-17.8l-5.1-5.1L640.5,388z"/>
		</g>
	</g>
	<g>
		<g>
			<polygon points="566.2,486.1 557.9,486.1 557.9,469.8 569.4,458.3 575.3,464.2 566.2,473.3 			"/>
			<path d="M566.7,486.6h-9.3v-17l12-12l6.6,6.6l-9.3,9.3V486.6z M558.4,485.6h7.3v-12.6l8.9-8.9l-5.1-5.1l-11,11V485.6z"/>
		</g>
	</g>
	<g>
		<g>
			<path d="M566.2,540.7h-8.3v-22.7h8.3V540.7z M566.2,513.4h-8.3v-22.7h8.3V513.4z"/>
			<path d="M566.7,541.2h-9.3v-23.7h9.3V541.2z M558.4,540.2h7.3v-21.7h-7.3V540.2z M566.7,513.9h-9.3v-23.7h9.3V513.9z
				 M558.4,512.9h7.3v-21.7h-7.3V512.9z"/>
		</g>
	</g>
	<g>
		<g>
			<polygon points="566.2,563.9 547.5,563.9 547.5,555.7 557.9,555.7 557.9,545.2 566.2,545.2 			"/>
			<path d="M566.7,564.4H547v-9.3h10.4v-10.4h9.3V564.4z M548,563.4h17.7v-17.7h-7.3v10.4H548V563.4z"/>
		</g>
	</g>
	<g>
		<g>
			<path d="M543,563.9h-22.7v-8.3H543V563.9z M515.7,563.9h-22.7v-8.3h22.7V563.9z"/>
			<path d="M543.5,564.4h-23.7v-9.3h23.7V564.4z M520.7,563.4h21.7v-7.3h-21.7V563.4z M516.2,564.4h-23.7v-9.3h23.7V564.4z
				 M493.4,563.4h21.7v-7.3h-21.7V563.4z"/>
		</g>
	</g>
	<g>
		<g>
			<polygon points="466.4,573 460.6,567.2 472.1,555.7 488.4,555.7 488.4,563.9 475.5,563.9 			"/>
			<path d="M466.4,573.7l-6.6-6.6l12-12h17v9.3h-13.2L466.4,573.7z M461.3,567.2l5.1,5.1l8.9-8.9h12.6v-7.3h-15.6L461.3,567.2z"/>
		</g>
	</g>
	<g>
		<g>
			<path d="M377.6,661.8l-5.8-5.8l18.5-18.5l5.8,5.8L377.6,661.8z M399.8,639.6l-5.8-5.8l18.5-18.5l5.8,5.8L399.8,639.6z M422,617.4
				l-5.8-5.8l18.5-18.5l5.8,5.8L422,617.4z M444.2,595.2l-5.8-5.8l18.5-18.5l5.8,5.8L444.2,595.2z"/>
			<path d="M377.6,662.5l-6.6-6.6l19.2-19.2l6.6,6.6L377.6,662.5z M372.5,656l5.1,5.1l17.8-17.8l-5.1-5.1L372.5,656z M399.8,640.3
				l-6.6-6.6l19.2-19.2l6.6,6.6L399.8,640.3z M394.7,633.8l5.1,5.1l17.8-17.8l-5.1-5.1L394.7,633.8z M422,618.1l-6.6-6.6l19.2-19.2
				l6.6,6.6L422,618.1z M416.9,611.6l5.1,5.1l17.8-17.8l-5.1-5.1L416.9,611.6z M444.2,595.9l-6.6-6.6l19.2-19.2l6.6,6.6L444.2,595.9
				z M439.1,589.4l5.1,5.1l17.8-17.8l-5.1-5.1L439.1,589.4z"/>
		</g>
	</g>
	<g>
		<g>
			<polygon points="360.7,678.8 347.5,665.5 353.3,659.7 360.7,667.1 368.1,659.7 373.9,665.5 			"/>
			<path d="M360.7,679.5l-13.9-13.9l6.6-6.6l7.4,7.4l7.4-7.4l6.6,6.6L360.7,679.5z M348.2,665.5l12.5,12.5l12.5-12.5l-5.1-5.1
				l-7.4,7.4l-7.4-7.4L348.2,665.5z"/>
		</g>
	</g>
	<g>
		<g>
			<path d="M343.8,661.8l-18.5-18.5l5.8-5.8l18.5,18.5L343.8,661.8z M321.6,639.6l-18.5-18.5l5.8-5.8l18.5,18.5L321.6,639.6z
				 M299.4,617.4l-18.5-18.5l5.8-5.8l18.5,18.5L299.4,617.4z M277.2,595.2l-18.5-18.5l5.8-5.8l18.5,18.5L277.2,595.2z"/>
			<path d="M343.8,662.5l-19.2-19.2l6.6-6.6l19.2,19.2L343.8,662.5z M326,643.3l17.8,17.8l5.1-5.1l-17.8-17.8L326,643.3z
				 M321.6,640.3l-19.2-19.2l6.6-6.6l19.2,19.2L321.6,640.3z M303.8,621.1l17.8,17.8l5.1-5.1L308.9,616L303.8,621.1z M299.4,618.1
				l-19.2-19.2l6.6-6.6l19.2,19.2L299.4,618.1z M281.6,598.9l17.8,17.8l5.1-5.1l-17.8-17.8L281.6,598.9z M277.2,595.9L258,576.7
				l6.6-6.6l19.2,19.2L277.2,595.9z M259.4,576.7l17.8,17.8l5.1-5.1l-17.8-17.8L259.4,576.7z"/>
		</g>
	</g>
	<g>
		<g>
			<polygon points="255,573 245.9,563.9 233,563.9 233,555.7 249.3,555.7 260.8,567.2 			"/>
			<path d="M255,573.7l-9.3-9.3h-13.2v-9.3h17l12,12L255,573.7z M233.5,563.4h12.6l8.9,8.9l5.1-5.1l-11-11h-15.6V563.4z"/>
		</g>
	</g>
	<g>
		<g>
			<path d="M228.5,563.9h-22.7v-8.3h22.7V563.9z M201.2,563.9h-22.7v-8.3h22.7V563.9z"/>
			<path d="M229,564.4h-23.7v-9.3H229V564.4z M206.2,563.4H228v-7.3h-21.7V563.4z M201.7,564.4H178v-9.3h23.7V564.4z M179,563.4
				h21.7v-7.3H179V563.4z"/>
		</g>
	</g>
	<g>
		<g>
			<polygon points="173.9,563.9 155.2,563.9 155.2,545.2 163.5,545.2 163.5,555.7 173.9,555.7 			"/>
			<path d="M174.4,564.4h-19.7v-19.7h9.3v10.4h10.4V564.4z M155.7,563.4h17.7v-7.3H163v-10.4h-7.3V563.4z"/>
		</g>
	</g>
	<g>
		<g>
			<path d="M163.5,540.7h-8.3v-22.7h8.3V540.7z M163.5,513.4h-8.3v-22.7h8.3V513.4z"/>
			<path d="M164,541.2h-9.3v-23.7h9.3V541.2z M155.7,540.2h7.3v-21.7h-7.3V540.2z M164,513.9h-9.3v-23.7h9.3V513.9z M155.7,512.9
				h7.3v-21.7h-7.3V512.9z"/>
		</g>
	</g>
	<g>
		<g>
			<polygon points="163.5,486.1 155.2,486.1 155.2,473.2 146.1,464.2 152,458.3 163.5,469.8 			"/>
			<path d="M164,486.6h-9.3v-13.2l-9.3-9.3l6.6-6.6l12,12V486.6z M155.7,485.6h7.3V470l-11-11l-5.1,5.1l8.9,8.9V485.6z"/>
		</g>
	</g>
	<g>
		<g>
			<path d="M142.4,460.5L123.9,442l5.8-5.8l18.5,18.5L142.4,460.5z M120.2,438.3l-18.5-18.5l5.8-5.8l18.5,18.5L120.2,438.3z
				 M98,416.1l-18.5-18.5l5.8-5.8l18.5,18.5L98,416.1z M75.8,393.9l-18.5-18.5l5.8-5.8L81.7,388L75.8,393.9z"/>
			<path d="M142.4,461.2L123.2,442l6.6-6.6l19.2,19.2L142.4,461.2z M124.6,442l17.8,17.8l5.1-5.1l-17.8-17.8L124.6,442z M120.2,439
				L101,419.8l6.6-6.6l19.2,19.2L120.2,439z M102.4,419.8l17.8,17.8l5.1-5.1l-17.8-17.8L102.4,419.8z M98,416.8l-19.2-19.2l6.6-6.6
				l19.2,19.2L98,416.8z M80.2,397.6L98,415.3l5.1-5.1l-17.8-17.8L80.2,397.6z M75.8,394.6l-19.2-19.2l6.6-6.6L82.4,388L75.8,394.6z
				 M58,375.4l17.8,17.8L81,388l-17.8-17.8L58,375.4z"/>
		</g>
	</g>
	<g>
		<g>
			<polygon points="53.6,371.7 40.4,358.4 53.6,345.2 59.5,351.1 52.1,358.4 59.5,365.8 			"/>
			<path d="M53.6,372.4l-13.9-13.9l13.9-13.9l6.6,6.6l-7.4,7.4l7.4,7.4L53.6,372.4z M41.1,358.4L53.6,371l5.1-5.1l-7.4-7.4l7.4-7.4
				l-5.1-5.1L41.1,358.4z"/>
		</g>
	</g>
	<g>
		<g>
			<path d="M63.6,346.9l-5.8-5.8l20.9-20.9l5.8,5.8L63.6,346.9z M88.8,321.7l-5.8-5.8l20.9-20.9l5.8,5.8L88.8,321.7z M113.9,296.6
				l-5.8-5.8l20.9-20.9l5.8,5.8L113.9,296.6z M139,271.5l-5.8-5.8l20.9-20.9l5.8,5.8L139,271.5z M163.5,242.7h-8.3v-29.6h8.3V242.7z
				 M163.5,207.2h-8.3v-29.6h8.3V207.2z"/>
			<path d="M63.6,347.6l-6.6-6.6l21.6-21.6l6.6,6.6L63.6,347.6z M58.5,341l5.1,5.1l20.2-20.2l-5.1-5.1L58.5,341z M88.8,322.5
				l-6.6-6.6l21.6-21.6l6.6,6.6L88.8,322.5z M83.6,315.9l5.1,5.1l20.2-20.2l-5.1-5.1L83.6,315.9z M113.9,297.3l-6.6-6.6l21.6-21.6
				l6.6,6.6L113.9,297.3z M108.7,290.8l5.1,5.1l20.2-20.2l-5.1-5.1L108.7,290.8z M139,272.2l-6.6-6.6l21.6-21.6l6.6,6.6L139,272.2z
				 M133.9,265.7l5.1,5.1l20.2-20.2l-5.1-5.1L133.9,265.7z M164,243.2h-9.3v-30.6h9.3V243.2z M155.7,242.2h7.3v-28.6h-7.3V242.2z
				 M164,207.7h-9.3V177h9.3V207.7z M155.7,206.7h7.3V178h-7.3V206.7z"/>
		</g>
	</g>
	<g>
		<g>
			<polygon points="163.5,171.6 155.2,171.6 155.2,152.9 173.9,152.9 173.9,161.2 163.5,161.2 			"/>
			<path d="M164,172.1h-9.3v-19.7h19.7v9.3H164V172.1z M155.7,171.1h7.3v-10.4h10.4v-7.3h-17.7V171.1z"/>
		</g>
	</g>
	<g>
		<g>
			<path d="M245,161.2h-29.6v-8.3H245V161.2z M209.4,161.2h-29.6v-8.3h29.6V161.2z M252.8,157.7l-5.8-5.8l20.9-20.9l5.8,5.8
				L252.8,157.7z M278,132.5l-5.8-5.8l20.9-20.9l5.8,5.8L278,132.5z M303.1,107.4l-5.8-5.8l20.9-20.9l5.8,5.8L303.1,107.4z
				 M328.2,82.3l-5.8-5.8l20.9-20.9l5.8,5.8L328.2,82.3z"/>
			<path d="M245.5,161.7h-30.6v-9.3h30.6V161.7z M215.9,160.7h28.6v-7.3h-28.6V160.7z M209.9,161.7h-30.6v-9.3h30.6V161.7z
				 M180.3,160.7h28.6v-7.3h-28.6V160.7z M252.8,158.4l-6.6-6.6l21.6-21.6l6.6,6.6L252.8,158.4z M247.7,151.8l5.1,5.1l20.2-20.2
				l-5.1-5.1L247.7,151.8z M278,133.3l-6.6-6.6l21.6-21.6l6.6,6.6L278,133.3z M272.8,126.7l5.1,5.1l20.2-20.2l-5.1-5.1L272.8,126.7z
				 M303.1,108.1l-6.6-6.6l21.6-21.6l6.6,6.6L303.1,108.1z M297.9,101.6l5.1,5.1l20.2-20.2l-5.1-5.1L297.9,101.6z M328.2,83
				l-6.6-6.6l21.6-21.6l6.6,6.6L328.2,83z M323.1,76.5l5.1,5.1l20.2-20.2l-5.1-5.1L323.1,76.5z"/>
		</g>
	</g>
	<g>
		<g>
			<polygon points="368.1,57.2 360.7,49.8 353.3,57.2 347.5,51.3 360.7,38.1 373.9,51.3 			"/>
			<path d="M353.3,57.9l-6.6-6.6l13.9-13.9l13.9,13.9l-6.6,6.6l-7.4-7.4L353.3,57.9z M360.7,49.1l7.4,7.4l5.1-5.1l-12.5-12.5
				l-12.5,12.5l5.1,5.1L360.7,49.1z"/>
		</g>
	</g>
	<g>
		<g>
			<path d="M541.6,161.2H512v-8.3h29.6V161.2z M506.1,161.2h-29.6v-8.3h29.6V161.2z M468.6,157.7l-20.9-20.9l5.8-5.8l20.9,20.9
				L468.6,157.7z M443.4,132.5l-20.9-20.9l5.8-5.8l20.9,20.9L443.4,132.5z M418.3,107.4l-20.9-20.9l5.8-5.8l20.9,20.9L418.3,107.4z
				 M393.2,82.3l-20.9-20.9l5.8-5.8l20.9,20.9L393.2,82.3z"/>
			<path d="M542.1,161.7h-30.6v-9.3h30.6V161.7z M512.5,160.7h28.6v-7.3h-28.6V160.7z M506.6,161.7h-30.6v-9.3h30.6V161.7z
				 M476.9,160.7h28.6v-7.3h-28.6V160.7z M468.6,158.4l-21.6-21.6l6.6-6.6l21.6,21.6L468.6,158.4z M448.3,136.7l20.2,20.2l5.1-5.1
				l-20.2-20.2L448.3,136.7z M443.4,133.2l-21.6-21.6l6.6-6.6l21.6,21.6L443.4,133.2z M423.2,111.6l20.2,20.2l5.1-5.1l-20.2-20.2
				L423.2,111.6z M418.3,108.1l-21.6-21.6l6.6-6.6l21.6,21.6L418.3,108.1z M398.1,86.5l20.2,20.2l5.1-5.1l-20.2-20.2L398.1,86.5z
				 M393.2,83l-21.6-21.6l6.6-6.6l21.6,21.6L393.2,83z M373,61.4l20.2,20.2l5.1-5.1l-20.2-20.2L373,61.4z"/>
		</g>
	</g>
	<g>
		<g>
			<polygon points="566.2,171.6 557.9,171.6 557.9,161.2 547.5,161.2 547.5,152.9 566.2,152.9 			"/>
			<path d="M566.7,172.1h-9.3v-10.4H547v-9.3h19.7V172.1z M558.4,171.1h7.3v-17.7H548v7.3h10.4V171.1z"/>
		</g>
	</g>
	<g>
		<g>
			<path d="M657.8,346.9l-20.9-20.9l5.8-5.8l20.9,20.9L657.8,346.9z M632.6,321.7l-20.9-20.9l5.8-5.8l20.9,20.9L632.6,321.7z
				 M607.5,296.6l-20.9-20.9l5.8-5.8l20.9,20.9L607.5,296.6z M582.4,271.5l-20.9-20.9l5.8-5.8l20.9,20.9L582.4,271.5z M566.2,242.7
				h-8.3v-29.6h8.3V242.7z M566.2,207.2h-8.3v-29.6h8.3V207.2z"/>
			<path d="M657.8,347.6l-21.6-21.6l6.6-6.6l21.6,21.6L657.8,347.6z M637.5,325.9l20.2,20.2l5.1-5.1l-20.2-20.2L637.5,325.9z
				 M632.6,322.5L611,300.8l6.6-6.6l21.6,21.6L632.6,322.5z M612.4,300.8l20.2,20.2l5.1-5.1l-20.2-20.2L612.4,300.8z M607.5,297.3
				l-21.6-21.6l6.6-6.6l21.6,21.6L607.5,297.3z M587.3,275.7l20.2,20.2l5.1-5.1l-20.2-20.2L587.3,275.7z M582.4,272.2l-21.6-21.6
				l6.6-6.6l21.6,21.6L582.4,272.2z M562.2,250.6l20.2,20.2l5.1-5.1l-20.2-20.2L562.2,250.6z M566.7,243.2h-9.3v-30.6h9.3V243.2z
				 M558.4,242.2h7.3v-28.6h-7.3V242.2z M566.7,207.7h-9.3V177h9.3V207.7z M558.4,206.7h7.3V178h-7.3V206.7z"/>
		</g>
	</g>
</g>
<g>
	<path d="M360.7,161.6c2.8,130.8,2.8,263,0,393.7C357.9,424.5,357.9,292.3,360.7,161.6L360.7,161.6z"/>
	<path d="M361.2,555.3h-1c-2.8-130.1-2.8-262.6,0-393.8h1C364,292.7,364,425.2,361.2,555.3z M360.7,186.5
		c-2.1,114.7-2.1,230.2,0,344.1C362.9,416.7,362.9,301.2,360.7,186.5z"/>
</g>
<g>
	<path d="M557.6,358.4c-130.8,2.8-263,2.8-393.7,0C294.6,355.6,426.8,355.6,557.6,358.4L557.6,358.4z"/>
	<path d="M360.3,361c-65.8,0-131.4-0.7-196.5-2.1v-1c130.1-2.8,262.6-2.8,393.8,0v1C492,360.3,426.1,361,360.3,361z M188.6,358.4
		c113.9,2.1,229.4,2.1,344.1,0C418,356.3,302.4,356.3,188.6,358.4z"/>
</g>
</svg>
