<?xml version="1.0" encoding="utf-8"?>
<!-- Generator: Adobe Illustrator 28.0.0, SVG Export Plug-In . SVG Version: 6.00 Build 0)  -->
<svg version="1.1" id="Layer_1" xmlns:xodm="http://www.corel.com/coreldraw/odm/2003"
	 xmlns="http://www.w3.org/2000/svg" xmlns:xlink="http://www.w3.org/1999/xlink" x="0px" y="0px" viewBox="0 0 720 720"
	 style="enable-background:new 0 0 720 720;" xml:space="preserve">
<style type="text/css">
	.st0{fill-rule:evenodd;clip-rule:evenodd;fill:#D5EFFD;stroke:#D5EFFD;stroke-miterlimit:10;}
	.st1{fill-rule:evenodd;clip-rule:evenodd;fill:#21B4F9;stroke:#21B4F9;stroke-miterlimit:10;}
	.st2{fill:#21B4F9;stroke:#21B4F9;stroke-miterlimit:10;}
</style>
<path class="st0" d="M360,55.1C191.6,55.1,55.1,191.6,55.1,360S191.6,664.9,360,664.9S664.9,528.4,664.9,360S528.4,55.1,360,55.1z
	 M360,568.9c-115.4,0-208.9-93.5-208.9-208.9S244.6,151.1,360,151.1S568.9,244.6,568.9,360S475.4,568.9,360,568.9z"/>
<path class="st1" d="M568.8,359.7l96-0.2C664.4,224.3,576.1,109.8,454,70.3l-29.2,91.5C508.2,188.9,568.5,267.3,568.8,359.7z"/>
<path class="st2" d="M225.7,396.1l40.9-54.2c2.1-2.8,3.8-5.6,4.9-8.6c1.2-3,1.7-5.7,1.7-8.3v-0.2c0-4-1.2-7-3.6-9.2
	s-5.8-3.3-10.3-3.3c-4.3,0-7.7,1.3-10.4,3.9c-2.6,2.6-4.2,6.4-4.8,11.2v0.1h-20v-0.1c0.8-7.1,2.7-13.2,5.7-18.2s7.1-8.9,12-11.6
	c5-2.7,10.7-4,17.2-4c7.2,0,13.4,1.2,18.5,3.6s9,5.9,11.7,10.5s4,10.2,4,16.7v0.1c0,4.8-0.9,9.6-2.7,14.5c-1.8,4.9-4.3,9.5-7.5,13.8
	l-31.7,41.7H294v18.6h-68.3V396.1z"/>
<path class="st2" d="M322.4,405.7c-5.9-5.9-8.8-14.2-8.8-24.7v-53.8c0-10.6,3-18.9,8.9-24.8s14.5-8.8,25.7-8.8
	c11.3,0,19.9,2.9,25.8,8.8s8.8,14.1,8.8,24.8V381c0,10.6-3,18.9-8.9,24.8s-14.5,8.8-25.7,8.8C336.9,414.6,328.3,411.6,322.4,405.7z
	 M359.6,391.4c2.4-3.1,3.7-7.5,3.7-13.2v-48.1c0-5.7-1.2-10.2-3.7-13.2c-2.4-3.1-6.3-4.6-11.5-4.6s-9,1.5-11.5,4.6
	c-2.4,3.1-3.7,7.5-3.7,13.2v48.1c0,5.8,1.2,10.2,3.7,13.2s6.3,4.6,11.5,4.6C353.3,396,357.2,394.4,359.6,391.4z"/>
<path class="st2" d="M410.6,345.7c-3.6-3.7-5.4-8.8-5.4-15.3v-10.2c0-6.6,1.8-11.7,5.4-15.3s8.6-5.5,15.1-5.5
	c6.6,0,11.6,1.8,15.2,5.5s5.3,8.8,5.3,15.5v10c0,6.6-1.8,11.7-5.4,15.4c-3.6,3.6-8.6,5.5-15.1,5.5
	C419.2,351.1,414.2,349.3,410.6,345.7z M478.2,300.5h17.3l-63,118.3h-17.4L478.2,300.5z M429.3,334.8c0.8-1,1.3-2.5,1.3-4.4v-10.5
	c0-1.8-0.4-3.2-1.3-4.2c-0.8-1-2-1.5-3.6-1.5s-2.8,0.5-3.6,1.5c-0.8,1-1.3,2.4-1.3,4.3v10.4c0,2,0.4,3.4,1.3,4.4
	c0.8,1,2,1.5,3.6,1.5C427.3,336.3,428.5,335.8,429.3,334.8z M469.4,414.5c-3.6-3.7-5.4-8.8-5.4-15.3V389c0-6.6,1.8-11.7,5.4-15.3
	c3.6-3.7,8.6-5.5,15.1-5.5c6.6,0,11.6,1.8,15.2,5.5s5.3,8.8,5.3,15.5v10c0,6.6-1.8,11.7-5.4,15.4s-8.6,5.5-15.1,5.5
	C478,420,473,418.1,469.4,414.5z M488.2,403.6c0.8-1,1.3-2.5,1.3-4.4v-10.5c0-1.8-0.4-3.2-1.3-4.2c-0.8-1-2-1.5-3.6-1.5
	s-2.8,0.5-3.6,1.5c-0.8,1-1.3,2.4-1.3,4.3v10.4c0,2,0.4,3.4,1.3,4.4c0.8,1,2,1.5,3.6,1.5C486.1,405.1,487.3,404.6,488.2,403.6z"/>
</svg>
