<?xml version="1.0" encoding="utf-8"?>
<!-- Generator: Adobe Illustrator 28.0.0, SVG Export Plug-In . SVG Version: 6.00 Build 0)  -->
<svg version="1.1" id="Layer_1" xmlns:xodm="http://www.corel.com/coreldraw/odm/2003"
	 xmlns="http://www.w3.org/2000/svg" xmlns:xlink="http://www.w3.org/1999/xlink" x="0px" y="0px" viewBox="0 0 720 720"
	 style="enable-background:new 0 0 720 720;" xml:space="preserve">
<style type="text/css">
	.st0{fill-rule:evenodd;clip-rule:evenodd;fill:#C10C0C;}
	.st1{fill-rule:evenodd;clip-rule:evenodd;fill:#FFFFFF;}
</style>
<circle class="st0" cx="360" cy="360" r="343.5"/>
<path class="st1" d="M360,37.3C181.8,37.3,37.3,181.8,37.3,360S181.8,682.7,360,682.7S682.7,538.2,682.7,360S538.2,37.3,360,37.3z
	 M360,674.8c-174.8,0-316.4-141.6-316.4-316.4S185.2,41.9,360,41.9s316.4,141.7,316.4,316.5S534.8,674.8,360,674.8z"/>
<path class="st1" d="M393.2,597.2c62.9-28.2,169.4-148,62.4-272.2c1.2,11.9,1.8,47-31,66c46.3-162.9-66.3-237.2-107.9-271.7
	c29.3,47.2,36.1,82.2,32.7,101.9c-2.1-11.9-17.2-37-26.4-43.8c41.7,112.2-103.5,163.3-66.1,265.6c-13.8-13.7-22.3-30-24.4-53.8
	c-20.2,36.5-35.8,160.5,88.8,208.2c-74.3-60.6-27.7-191.2,66.9-229.6C314.9,480.7,509,478.1,393.2,597.2L393.2,597.2z"/>
</svg>
