<?xml version="1.0" encoding="utf-8"?>
<!-- Generator: Adobe Illustrator 28.0.0, SVG Export Plug-In . SVG Version: 6.00 Build 0)  -->
<svg version="1.1" id="Layer_1" xmlns:xodm="http://www.corel.com/coreldraw/odm/2003"
	 xmlns="http://www.w3.org/2000/svg" xmlns:xlink="http://www.w3.org/1999/xlink" x="0px" y="0px" viewBox="0 0 720 720"
	 style="enable-background:new 0 0 720 720;" xml:space="preserve">
<style type="text/css">
	.st0{fill:#C02026;}
	.st1{opacity:0.5;}
</style>
<g>
	<path class="st0" d="M649.6,387.7H70.2c-17.8,0-32.2-14.4-32.2-32.2l0,0c0-17.8,14.4-32.2,32.2-32.2h579.4
		c17.8,0,32.2,14.4,32.2,32.2l0,0C681.8,373.2,667.4,387.7,649.6,387.7z M70.2,328.4c-14.9,0-27,12.1-27,27l0,0
		c0,14.9,12.1,27,27,27h579.4c14.9,0,27-12.1,27-27l0,0c0-14.9-12.1-27-27-27H70.2z"/>
</g>
<g>
	<g>
		<path class="st0" d="M64.9,330.4l-16.8,38c-2.1-3.6-3.3-7.8-3.5-12.3l8.9-20.1C56.8,333.3,60.7,331.3,64.9,330.4z"/>
	</g>
</g>
<g>
	<g>
		<path class="st0" d="M52.2,337.2l-7.6,17.1C45,347.6,47.8,341.6,52.2,337.2z"/>
	</g>
</g>
<g>
	<g>
		<path class="st0" d="M75.9,329.8l-20.5,46.3c-2.4-1.7-4.5-3.8-6.1-6.2L67,330L75.9,329.8z"/>
	</g>
</g>
<g>
	<g>
		<path class="st0" d="M86.6,329.8L86.6,329.8l-22.4,50.4c-2.7-0.6-5.2-1.7-7.5-3.2l21-47.3l0,0H86.6z"/>
	</g>
</g>
<g>
	<g>
		<polygon class="st0" points="74.6,381 65.7,381 88.3,329.8 97.2,329.8 		"/>
	</g>
</g>
<g>
	<g>
		<polygon class="st0" points="85.3,381 76.4,381 99,329.8 107.9,329.8 		"/>
	</g>
</g>
<g>
	<g>
		<polygon class="st0" points="95.9,381 87,381 109.7,329.8 118.6,329.8 		"/>
	</g>
</g>
<g class="st1">
	<g>
		<polygon class="st0" points="106.6,381 97.7,381 120.4,329.8 129.3,329.8 		"/>
	</g>
</g>
<g class="st1">
	<g>
		<polygon class="st0" points="117.3,381 108.4,381 131.1,329.8 140,329.8 		"/>
	</g>
</g>
<g class="st1">
	<g>
		<polygon class="st0" points="128,381 119.1,381 141.8,329.8 150.6,329.8 		"/>
	</g>
</g>
<g class="st1">
	<g>
		<polygon class="st0" points="138.7,381 129.7,381 152.5,329.8 161.3,329.8 		"/>
	</g>
</g>
<g class="st1">
	<g>
		<polygon class="st0" points="149.3,381 140.4,381 163.2,329.8 172.1,329.8 		"/>
	</g>
</g>
<g class="st1">
	<g>
		<polygon class="st0" points="160,381 151.1,381 173.9,329.8 182.8,329.8 		"/>
	</g>
</g>
<g class="st1">
	<g>
		<polygon class="st0" points="170.7,381 161.9,381 184.5,329.8 193.4,329.8 		"/>
	</g>
</g>
<g class="st1">
	<g>
		<polygon class="st0" points="181.4,381 172.6,381 195.2,329.8 204.1,329.8 		"/>
	</g>
</g>
<g class="st1">
	<g>
		<polygon class="st0" points="192.1,381 183.2,381 205.9,329.8 214.8,329.8 		"/>
	</g>
</g>
<g class="st1">
	<g>
		<polygon class="st0" points="202.8,381 193.9,381 216.6,329.8 225.5,329.8 		"/>
	</g>
</g>
<g class="st1">
	<g>
		<polygon class="st0" points="213.5,381 204.6,381 227.2,329.8 236.2,329.8 		"/>
	</g>
</g>
<g class="st1">
	<g>
		<polygon class="st0" points="224.2,381 215.3,381 237.9,329.8 246.8,329.8 		"/>
	</g>
</g>
<g class="st1">
	<g>
		<polygon class="st0" points="234.9,381 225.9,381 248.6,329.8 257.5,329.8 		"/>
	</g>
</g>
<g class="st1">
	<g>
		<polygon class="st0" points="245.5,381 236.6,381 259.3,329.8 268.2,329.8 		"/>
	</g>
</g>
<g class="st1">
	<g>
		<polygon class="st0" points="256.2,381 247.3,381 270,329.8 278.9,329.8 		"/>
	</g>
</g>
<g class="st1">
	<g>
		<polygon class="st0" points="266.9,381 258,381 280.7,329.8 289.6,329.8 		"/>
	</g>
</g>
<g class="st1">
	<g>
		<polygon class="st0" points="277.6,381 268.7,381 291.4,329.8 300.2,329.8 		"/>
	</g>
</g>
<g class="st1">
	<g>
		<polygon class="st0" points="288.3,381 279.3,381 302.1,329.8 310.9,329.8 		"/>
	</g>
</g>
<g class="st1">
	<g>
		<polygon class="st0" points="298.9,381 290,381 312.8,329.8 321.7,329.8 		"/>
	</g>
</g>
<g class="st1">
	<g>
		<polygon class="st0" points="309.6,381 300.7,381 323.5,329.8 332.4,329.8 		"/>
	</g>
</g>
<g class="st1">
	<g>
		<polygon class="st0" points="320.3,381 311.5,381 334.1,329.8 343,329.8 		"/>
	</g>
</g>
<g class="st1">
	<g>
		<polygon class="st0" points="331,381 322.2,381 344.8,329.8 353.7,329.8 		"/>
	</g>
</g>
<g class="st1">
	<g>
		<polygon class="st0" points="341.7,381 332.8,381 355.5,329.8 364.4,329.8 		"/>
	</g>
</g>
<g class="st1">
	<g>
		<polygon class="st0" points="352.4,381 343.5,381 366.2,329.8 375.1,329.8 		"/>
	</g>
</g>
<g class="st1">
	<g>
		<polygon class="st0" points="363.1,381 354.2,381 376.8,329.8 385.8,329.8 		"/>
	</g>
</g>
<g class="st1">
	<g>
		<polygon class="st0" points="373.8,381 364.9,381 387.5,329.8 396.4,329.8 		"/>
	</g>
</g>
<g class="st1">
	<g>
		<polygon class="st0" points="384.5,381 375.5,381 398.2,329.8 407.1,329.8 		"/>
	</g>
</g>
<g class="st1">
	<g>
		<polygon class="st0" points="395.1,381 386.2,381 408.9,329.8 417.8,329.8 		"/>
	</g>
</g>
<g class="st1">
	<g>
		<polygon class="st0" points="405.8,381 396.9,381 419.6,329.8 428.5,329.8 		"/>
	</g>
</g>
<g class="st1">
	<g>
		<polygon class="st0" points="416.5,381 407.6,381 430.3,329.8 439.2,329.8 		"/>
	</g>
</g>
<g class="st1">
	<g>
		<polygon class="st0" points="427.2,381 418.3,381 441,329.8 449.8,329.8 		"/>
	</g>
</g>
<g class="st1">
	<g>
		<polygon class="st0" points="437.9,381 428.9,381 451.7,329.8 460.5,329.8 		"/>
	</g>
</g>
<g class="st1">
	<g>
		<polygon class="st0" points="448.5,381 439.6,381 462.4,329.8 471.3,329.8 		"/>
	</g>
</g>
<g class="st1">
	<g>
		<polygon class="st0" points="459.2,381 450.3,381 473.1,329.8 482,329.8 		"/>
	</g>
</g>
<g class="st1">
	<g>
		<polygon class="st0" points="469.9,381 461.1,381 483.7,329.8 492.6,329.8 		"/>
	</g>
</g>
<g class="st1">
	<g>
		<polygon class="st0" points="480.6,381 471.8,381 494.4,329.8 503.3,329.8 		"/>
	</g>
</g>
<g class="st1">
	<g>
		<polygon class="st0" points="491.3,381 482.4,381 505.1,329.8 514,329.8 		"/>
	</g>
</g>
<g class="st1">
	<g>
		<polygon class="st0" points="502,381 493.1,381 515.8,329.8 524.7,329.8 		"/>
	</g>
</g>
<g class="st1">
	<g>
		<polygon class="st0" points="512.7,381 503.8,381 526.4,329.8 535.4,329.8 		"/>
	</g>
</g>
<g class="st1">
	<g>
		<polygon class="st0" points="523.4,381 514.5,381 537.1,329.8 546,329.8 		"/>
	</g>
</g>
<g class="st1">
	<g>
		<polygon class="st0" points="534.1,381 525.1,381 547.8,329.8 556.7,329.8 		"/>
	</g>
</g>
<g class="st1">
	<g>
		<polygon class="st0" points="544.7,381 535.8,381 558.5,329.8 567.4,329.8 		"/>
	</g>
</g>
<g class="st1">
	<g>
		<polygon class="st0" points="555.4,381 546.5,381 569.3,329.8 578.1,329.8 		"/>
	</g>
</g>
<g class="st1">
	<g>
		<polygon class="st0" points="566.1,381 557.2,381 579.9,329.8 588.8,329.8 		"/>
	</g>
</g>
<g class="st1">
	<g>
		<polygon class="st0" points="576.8,381 567.9,381 590.6,329.8 599.4,329.8 		"/>
	</g>
</g>
<g class="st1">
	<g>
		<polygon class="st0" points="587.5,381 578.5,381 601.3,329.8 610.1,329.8 		"/>
	</g>
</g>
<g class="st1">
	<g>
		<polygon class="st0" points="598.1,381 589.2,381 612,329.8 620.9,329.8 		"/>
	</g>
</g>
<g class="st1">
	<g>
		<polygon class="st0" points="608.8,381 599.9,381 622.6,329.8 631.6,329.8 		"/>
	</g>
</g>
<g class="st1">
	<g>
		<polygon class="st0" points="619.5,381 610.7,381 633.3,329.8 642.2,329.8 		"/>
	</g>
</g>
<g class="st1">
	<g>
		<polygon class="st0" points="630.2,381 621.3,381 644,329.8 652.9,329.8 		"/>
	</g>
</g>
<g class="st1">
	<g>
		<path class="st0" d="M662.1,333.2l-21.3,47.9l0,0h-8.9l0,0l22.5-50.7C657.2,330.8,659.8,331.8,662.1,333.2z"/>
	</g>
</g>
<g class="st1">
	<g>
		<path class="st0" d="M669.8,339.8l-18.2,41.1l-0.1,0.1h-8.9l0,0l20.8-47.1C665.9,335.6,668.1,337.5,669.8,339.8z"/>
	</g>
</g>
<g class="st1">
	<g>
		<path class="st0" d="M675,352.3l-10.7,24.1c-3.2,2.2-6.9,3.8-10.9,4.4l17.5-39.4C673.1,344.6,674.6,348.3,675,352.3z"/>
	</g>
</g>
<g class="st1">
	<g>
		<path class="st0" d="M675.2,355.4c0,7.7-3.4,14.7-8.8,19.3l8.8-19.9C675.2,355,675.2,355.3,675.2,355.4z"/>
	</g>
</g>
<path class="st0" d="M340.6,315.8h2.5V301l-2.7,2.4l-1.4-1.7l4.9-5.2h2.5l0,0l0,0v19.3h2.5v2.5h-8.4L340.6,315.8L340.6,315.8z"/>
<path class="st0" d="M350.7,302.7c0-0.9,0.1-1.8,0.3-2.5c0.2-0.6,0.4-1.3,0.6-1.8c0.3-0.5,0.6-0.8,1-1.1c0.4-0.3,0.7-0.6,1.1-0.6
	c0.4-0.1,0.8-0.3,1.2-0.3c0.4-0.1,0.7-0.1,1.1-0.1c0.3,0,0.6,0,1,0.1s0.7,0.2,1.2,0.3c0.4,0.2,0.7,0.4,1.1,0.6
	c0.4,0.3,0.7,0.6,1,1.1c0.3,0.5,0.6,1,0.6,1.8c0.2,0.7,0.3,1.6,0.3,2.5v9.2c0,0.9-0.1,1.8-0.3,2.5c-0.2,0.6-0.4,1.3-0.6,1.8
	c-0.3,0.5-0.6,0.8-1,1.2c-0.4,0.3-0.7,0.6-1.1,0.7c-0.4,0.2-0.7,0.3-1.2,0.4c-0.4,0.1-0.7,0.1-1,0.1c-0.4,0-0.7,0-1.1-0.1
	c-0.4-0.1-0.8-0.2-1.2-0.4c-0.4-0.2-0.7-0.4-1.1-0.7c-0.4-0.3-0.7-0.6-1-1.2c-0.3-0.5-0.5-1.1-0.6-1.8c-0.2-0.7-0.3-1.5-0.3-2.5
	V302.7z M354,313.3c0,0.9,0.2,1.6,0.5,2c0.4,0.4,0.8,0.6,1.5,0.6s1.1-0.2,1.5-0.6c0.3-0.4,0.5-1,0.5-2v-11.8c0-0.9-0.2-1.7-0.5-2
	c-0.3-0.5-0.8-0.6-1.5-0.6s-1.2,0.2-1.5,0.6c-0.4,0.5-0.5,1.1-0.5,2V313.3z"/>
<path class="st0" d="M368.8,308.2c-0.5,0-0.9-0.1-1.5-0.2c-0.5-0.1-0.9-0.4-1.3-0.8c-0.4-0.4-0.7-0.9-0.9-1.7
	c-0.3-0.7-0.4-1.7-0.4-2.9v-1.4c0-0.7,0.1-1.5,0.2-2c0.1-0.6,0.3-1,0.5-1.5c0.2-0.4,0.5-0.7,0.7-0.9c0.3-0.3,0.6-0.5,0.8-0.6
	s0.6-0.2,0.9-0.3c0.3-0.1,0.6-0.1,0.9-0.1s0.6,0,0.9,0.1c0.3,0.1,0.6,0.1,0.9,0.3c0.3,0.1,0.6,0.4,0.8,0.6c0.3,0.3,0.6,0.6,0.7,0.9
	c0.2,0.4,0.4,0.9,0.5,1.5c0.1,0.6,0.2,1.2,0.2,2v1.4c0,1.2-0.1,2.1-0.4,2.9c-0.3,0.7-0.6,1.3-1,1.7c-0.4,0.4-0.8,0.6-1.3,0.8
	C369.7,308.2,369.2,308.2,368.8,308.2z M368.9,306.3c0.6,0,0.9-0.3,1.1-0.7c0.2-0.5,0.3-1.2,0.3-2.1v-2.5c0-1-0.1-1.7-0.3-2.2
	c-0.2-0.5-0.6-0.7-1.1-0.7s-0.9,0.3-1.2,0.7c-0.2,0.5-0.4,1.2-0.4,2.2v2.5c0,1,0.1,1.7,0.4,2.1C367.8,306,368.3,306.3,368.9,306.3z
	 M376.6,296.2h2.3l-5.9,22.1h-2.3L376.6,296.2z M376.6,311.6c0-1.2,0.1-2.1,0.4-2.8c0.3-0.7,0.6-1.2,1-1.6c0.4-0.4,0.8-0.6,1.3-0.7
	c0.5-0.1,0.9-0.2,1.4-0.2c0.3,0,0.6,0,0.9,0.1c0.3,0.1,0.6,0.1,0.9,0.3c0.3,0.1,0.6,0.4,0.8,0.6c0.3,0.3,0.6,0.6,0.7,0.9
	c0.2,0.4,0.4,0.9,0.5,1.5c0.1,0.6,0.2,1.2,0.2,2v1.4c0,0.7-0.1,1.5-0.2,2c-0.1,0.6-0.3,1.1-0.5,1.5s-0.5,0.7-0.7,1
	c-0.3,0.3-0.6,0.5-0.8,0.6s-0.6,0.3-0.9,0.3c-0.3,0.1-0.6,0.1-0.9,0.1c-0.3,0-0.6,0-1-0.1s-0.6-0.2-0.9-0.3
	c-0.3-0.2-0.6-0.4-0.8-0.6c-0.3-0.3-0.5-0.6-0.7-1c-0.2-0.4-0.4-0.9-0.5-1.5c-0.1-0.6-0.2-1.3-0.2-2L376.6,311.6L376.6,311.6z
	 M379.2,313.6c0,1,0.1,1.7,0.4,2.1c0.2,0.5,0.6,0.7,1.2,0.7c0.6,0,0.9-0.2,1.1-0.7c0.2-0.5,0.3-1.2,0.3-2.1v-2.5
	c0-1-0.1-1.7-0.3-2.2c-0.2-0.5-0.6-0.7-1.1-0.7c-0.6,0-0.9,0.3-1.2,0.7c-0.2,0.5-0.4,1.2-0.4,2.2V313.6z"/>
</svg>
