<?xml version="1.0" encoding="utf-8"?>
<!-- Generator: Adobe Illustrator 28.0.0, SVG Export Plug-In . SVG Version: 6.00 Build 0)  -->
<svg version="1.1" id="Layer_1" xmlns:xodm="http://www.corel.com/coreldraw/odm/2003"
	 xmlns="http://www.w3.org/2000/svg" xmlns:xlink="http://www.w3.org/1999/xlink" x="0px" y="0px" viewBox="0 0 720 720"
	 style="enable-background:new 0 0 720 720;" xml:space="preserve">
<style type="text/css">
	.st0{opacity:0.5;}
	.st1{fill:#F6B24A;}
</style>
<g class="st0">
	<circle class="st1" cx="77.5" cy="357" r="23.4"/>
</g>
<circle class="st1" cx="357.8" cy="76.7" r="38.9"/>
<g class="st0">
	<circle class="st1" cx="193" cy="130.3" r="38.9"/>
</g>
<g class="st0">
	<circle class="st1" cx="91.2" cy="270.4" r="38.9"/>
</g>
<g class="st0">
	<circle class="st1" cx="91.2" cy="443.6" r="38.9"/>
</g>
<g class="st0">
	<circle class="st1" cx="193" cy="583.8" r="38.9"/>
</g>
<g class="st0">
	<circle class="st1" cx="357.8" cy="637.3" r="38.9"/>
</g>
<circle class="st1" cx="522.5" cy="583.8" r="38.9"/>
<circle class="st1" cx="624.3" cy="443.6" r="38.9"/>
<circle class="st1" cx="624.3" cy="270.4" r="38.9"/>
<circle class="st1" cx="522.5" cy="130.3" r="38.9"/>
<g class="st0">
	<circle class="st1" cx="271.1" cy="90.4" r="23.4"/>
</g>
<g class="st0">
	<circle class="st1" cx="131" cy="192.3" r="23.4"/>
</g>
<g class="st0">
	<circle class="st1" cx="131" cy="521.8" r="23.4"/>
</g>
<g class="st0">
	<circle class="st1" cx="271.1" cy="623.6" r="23.4"/>
</g>
<circle class="st1" cx="444.4" cy="623.6" r="23.4"/>
<circle class="st1" cx="584.5" cy="521.8" r="23.4"/>
<circle class="st1" cx="638.1" cy="357" r="23.4"/>
<circle class="st1" cx="584.5" cy="192.3" r="23.4"/>
<circle class="st1" cx="444.4" cy="90.4" r="23.4"/>
<path class="st1" d="M203.8,401.1c0-5.1,0.7-10.6,2.1-16.6h16.9v11.7c0,6.8,1,11.7,3,14.7c2,3,5.2,4.5,9.8,4.5
	c4.6,0,7.8-1.6,9.7-4.9c1.9-3.3,2.8-8,2.8-14.2v-27.6c0-3.6-0.3-6.5-0.9-8.7c-0.6-2.2-1.5-3.9-2.5-5.2c-1.1-1.3-2.3-2.1-3.7-2.6
	c-1.4-0.4-3-0.7-4.6-0.7c-3.1,0-5.8,0.9-8,2.6c-2.2,1.8-4.1,3.9-5.5,6.3h-16v-73h61.4v19.2h-43.4V342c2.3-2.7,5.3-4.8,8.8-6.3
	c3.5-1.5,7.2-2.3,11.1-2.3c8.9,0,15.4,3,19.5,9c4.1,6,6.2,14.8,6.2,26.4v24.3c0,7.4-1,13.5-2.8,18.5c-1.9,4.9-4.4,8.9-7.5,11.9
	c-3.1,3-6.7,5.1-10.8,6.4c-4.1,1.3-8.3,1.9-12.7,1.9c-5.3,0-10-0.7-14.1-2.1c-4.1-1.4-7.5-3.5-10.3-6.1c-2.8-2.7-4.9-5.9-6.3-9.7
	C204.5,410,203.8,405.8,203.8,401.1z"/>
<path class="st1" d="M288.3,328.4c0-6.2,0.6-11.6,1.7-16.2c1.1-4.5,2.7-8.4,4.5-11.5c1.9-3.1,4-5.6,6.5-7.5c2.5-1.9,5-3.4,7.6-4.4
	c2.6-1,5.2-1.7,7.8-2s5-0.5,7.2-0.5c2.1,0,4.4,0.2,6.9,0.5c2.5,0.3,5.1,1,7.7,1.9c2.6,1,5.1,2.4,7.5,4.3c2.4,1.9,4.6,4.4,6.4,7.5
	c1.9,3.1,3.4,7,4.5,11.6c1.1,4.6,1.7,10,1.7,16.4v60.4c0,6.2-0.6,11.6-1.7,16.2c-1.1,4.5-2.7,8.4-4.6,11.6c-1.9,3.2-4.1,5.8-6.5,7.7
	c-2.5,2-5,3.5-7.5,4.6c-2.6,1.1-5.1,1.8-7.7,2.2c-2.5,0.4-4.8,0.6-6.8,0.6c-2.2,0-4.7-0.2-7.3-0.6c-2.6-0.4-5.2-1.1-7.9-2.2
	c-2.6-1.1-5.2-2.6-7.6-4.6c-2.4-2-4.6-4.5-6.4-7.7c-1.8-3.2-3.3-7.1-4.4-11.6c-1.1-4.6-1.7-10-1.7-16.2V328.4z M310.5,397.9
	c0,5.9,1.1,10.2,3.2,12.9c2.1,2.7,5.4,4,9.8,4c4.3,0,7.5-1.3,9.6-4c2.1-2.7,3.2-7,3.2-12.9v-77.4c0-6.2-1.1-10.8-3.2-13.6
	c-2.1-2.8-5.3-4.3-9.6-4.3c-4.4,0-7.7,1.4-9.8,4.3c-2.1,2.8-3.2,7.4-3.2,13.6V397.9z"/>
<path class="st1" d="M407.2,364.7c-3.2,0-6.4-0.4-9.6-1.3c-3.2-0.9-6.1-2.6-8.7-5.2c-2.6-2.6-4.7-6.3-6.3-11
	c-1.6-4.8-2.4-11-2.4-18.8v-9c0-5.1,0.4-9.5,1.2-13.2s1.9-6.9,3.2-9.5c1.4-2.6,2.9-4.7,4.7-6.4c1.8-1.6,3.7-2.9,5.7-3.8
	c2-0.9,4.1-1.5,6.2-1.8c2.1-0.3,4.1-0.5,6.2-0.5c1.9,0,3.9,0.2,5.9,0.5c2.1,0.3,4.1,0.9,6.1,1.8c2,0.9,3.9,2.1,5.6,3.7
	c1.8,1.6,3.3,3.7,4.7,6.3s2.4,5.8,3.2,9.5c0.8,3.7,1.2,8.2,1.2,13.3v9c0,7.6-0.9,13.8-2.6,18.6c-1.7,4.8-3.9,8.5-6.6,11.1
	s-5.6,4.4-8.7,5.3C413,364.2,410,364.7,407.2,364.7z M407.4,351.4c3.5,0,6-1.5,7.4-4.6c1.4-3,2.1-7.8,2.1-14.2v-16.2
	c0-6.5-0.7-11.2-2.1-14.3c-1.4-3.1-3.9-4.6-7.4-4.6c-3.7,0-6.3,1.5-7.7,4.6c-1.5,3.1-2.2,7.8-2.2,14.3v16.2c0,6.4,0.7,11.1,2.2,14.2
	C401.1,349.9,403.7,351.4,407.4,351.4z M458,285.9h15.1l-38.4,144.6h-15.2L458,285.9z M458.1,386.4c0-7.6,0.9-13.8,2.6-18.4
	c1.7-4.6,3.9-8.2,6.5-10.6c2.7-2.5,5.6-4.1,8.7-4.9c3.2-0.8,6.2-1.2,9.2-1.2c1.9,0,3.9,0.2,5.9,0.5c2.1,0.3,4.1,0.9,6.1,1.8
	c2,0.9,3.9,2.1,5.7,3.7c1.8,1.6,3.3,3.7,4.7,6.3c1.3,2.6,2.4,5.8,3.2,9.5c0.8,3.7,1.2,8.2,1.2,13.3v9c0,5.1-0.4,9.6-1.2,13.4
	c-0.8,3.8-1.9,7-3.3,9.7c-1.4,2.7-2.9,4.9-4.7,6.6c-1.8,1.7-3.7,3.1-5.6,4.1c-2,1-4,1.7-6.1,2.1c-2.1,0.4-4,0.5-5.9,0.5
	c-2.1,0-4.3-0.2-6.4-0.5c-2.1-0.4-4.2-1-6.2-2c-2-1-3.9-2.3-5.6-4c-1.8-1.7-3.3-3.9-4.6-6.6c-1.3-2.7-2.3-5.9-3.1-9.8
	c-0.8-3.8-1.1-8.3-1.1-13.5V386.4z M475.3,399.7c0,6.4,0.7,11.1,2.2,14.2s4.1,4.6,7.7,4.6c3.5,0,6-1.5,7.4-4.6
	c1.4-3,2.1-7.8,2.1-14.2v-16.2c0-6.5-0.7-11.2-2.1-14.3c-1.4-3.1-3.9-4.6-7.4-4.6c-3.7,0-6.3,1.5-7.7,4.6c-1.5,3.1-2.2,7.8-2.2,14.3
	V399.7z"/>
</svg>
