<?xml version="1.0" encoding="utf-8"?>
<!-- Generator: Adobe Illustrator 28.0.0, SVG Export Plug-In . SVG Version: 6.00 Build 0)  -->
<svg version="1.1" id="Layer_1" xmlns:xodm="http://www.corel.com/coreldraw/odm/2003"
	 xmlns="http://www.w3.org/2000/svg" xmlns:xlink="http://www.w3.org/1999/xlink" x="0px" y="0px" viewBox="0 0 720 720"
	 style="enable-background:new 0 0 720 720;" xml:space="preserve">
<style type="text/css">
	.st0{fill-rule:evenodd;clip-rule:evenodd;}
</style>
<polygon class="st0" points="312.2,267.5 306.8,262.2 306.8,203.5 312.2,198.9 317.5,210 331.9,210.1 337.3,198.9 342.5,203.5 
	342.5,262.3 337.3,267.5 332,256.2 317.5,256.2 "/>
<polygon class="st0" points="313.5,137.1 308.2,142.4 308.2,190.8 313.6,195.3 318.9,185.2 330.6,185.2 335.9,195.3 341.1,190.7 
	341.1,142.4 335.9,137.2 330.6,147.7 324.7,147.7 318.9,147.7 "/>
<path class="st0" d="M314.6,134.4l-5.4-5.2l0-34v0c0.1-1.4,0.2-2.5,0.6-3.8c1.9-6.4,7.4-11,15.2-11c8.3,0,14.2,5.4,15.5,12.4
	c0.2,0.9,0.2,1.6,0.2,2.4v0l0,1.3l0,32.5l-5.5,5.3l-5.3-8.1l-5.2,0l-4.8,0C319.9,126.2,314.6,134.4,314.6,134.4z"/>
<polygon class="st0" points="321.5,264.4 328.4,264.4 327.5,284.6 322.3,284.4 "/>
<polygon class="st0" points="325.7,379.5 326.5,376.1 331.2,377.6 330.5,380.3 "/>
<polygon class="st0" points="327.2,373.6 329,369.9 333.8,372.7 332.4,375.5 "/>
<polygon class="st0" points="329.9,367.5 332.6,363.7 337.6,367.9 335.5,370.8 "/>
<polygon class="st0" points="323.9,132.5 327.1,132.5 326.7,141.8 324.3,141.8 "/>
<polygon class="st0" points="362.8,265.9 356.9,260.2 356.9,203.4 362.8,198.4 368.6,210.6 384.4,210.6 390.2,198.4 395.9,203.4 
	396,260.2 390.2,265.9 384.4,253.6 368.6,253.6 "/>
<polygon class="st0" points="364.3,125 358.3,130.7 358.4,188.8 364.3,193.8 370.1,182.7 382.9,182.7 388.7,193.8 394.4,188.8 
	394.5,130.7 388.7,125 382.9,136.6 376.5,136.6 370.1,136.6 "/>
<path class="st0" d="M365.4,121.7l-5.9-5.7l0-38.5v0c0.1-1.5,0.2-2.8,0.6-4.2c2.1-7,8.1-12.1,16.6-12.1c9.1,0,15.5,5.9,17,13.6
	c0.2,0.9,0.2,1.7,0.2,2.7l0,0l0,1.5l0,36.9l-6,5.8l-5.8-8.9l-5.6,0l-5.3,0L365.4,121.7L365.4,121.7z"/>
<polygon class="st0" points="373,262.6 380.5,262.6 379.5,284.7 373.8,284.5 "/>
<polygon class="st0" points="375.6,119.8 379.1,119.8 378.6,130.1 376,130 "/>
<polygon class="st0" points="323.5,191.3 327.5,191.3 327,202.9 324,202.8 "/>
<polygon class="st0" points="375.6,190.5 379.5,190.5 379,202.1 376,201.9 "/>
<polygon class="st0" points="424.2,191.6 428.1,191.6 427.6,203.2 424.6,203.1 "/>
<polygon class="st0" points="414.1,269 409.2,264.2 409.2,202.9 414.1,198.7 419,208.9 432.1,208.9 436.9,198.7 441.7,202.9 
	441.7,264.2 436.9,269 432.1,258.8 419,258.8 "/>
<polygon class="st0" points="415.3,140.4 410.4,145.2 410.4,189.3 415.4,193.4 420.2,184.2 430.8,184.2 435.7,193.4 440.4,189.2 
	440.4,145.2 435.7,140.4 430.8,150 425.5,150 420.2,150 "/>
<path class="st0" d="M416.2,137.9l-4.9-4.8l0-30.9v0c0.1-1.2,0.2-2.3,0.5-3.5c1.7-5.8,6.7-10,13.8-10c7.6,0,12.9,4.9,14.1,11.3
	c0.1,0.8,0.2,1.4,0.2,2.2v0l0,1.2l0,29.6l-5,4.8l-4.8-7.4l-4.7,0l-4.4,0L416.2,137.9L416.2,137.9z"/>
<polygon class="st0" points="420.9,264.9 427.1,264.9 426.3,285.4 421.6,285.2 "/>
<polygon class="st0" points="424.8,135.4 427.6,135.4 427.3,143.9 425.1,143.8 "/>
<polygon class="st0" points="446.7,294.7 443,289.9 451.2,252.2 456.5,249.5 459.2,258.8 470.8,260.9 477.1,253.1 480.7,257.4 
	473.1,295.2 467.8,298.4 465.2,289 453.1,286.9 "/>
<polygon class="st0" points="465.3,204.2 460.1,207.8 453.3,243.1 457.4,247.2 463.1,239.8 473,240.9 476.3,249.3 481.3,246.3 
	488.1,211 484.3,206.4 478.6,214.1 473.6,213.5 468.7,212.9 "/>
<path class="st0" d="M466.8,200.6L463,196l6.2-33.3l0,0c0.3-1,0.5-1.9,1-2.9c2.5-4.7,7.8-7.6,14.3-6.7c7,1,11.3,5.9,11.4,11.5
	c0,0.7,0,1.2-0.1,1.9l0,0l-0.2,1l-6,32.2l-5.4,3.4l-3.4-6.9l-4.4-0.6l-4.1-0.6L466.8,200.6L466.8,200.6z"/>
<polygon class="st0" points="474.4,199.9 477,200.3 475.3,207.5 473.3,207.1 "/>
<polygon class="st0" points="466.2,245.1 469.4,245.6 467.5,254.2 465.1,253.8 "/>
<polygon class="st0" points="454.9,291.5 459.6,292.2 456.8,304.9 453.2,304.3 "/>
<path class="st0" d="M202.1,231.9c2,3.1,8.9,15.3,9.7,21.2c0.2,1.7,5.6-0.4,6.4,1.9c0.8,2.1,0.7,6.8,0.8,9.1
	c0.1,6.3,0.3,12.7,0.5,19c0.1,3.4,0.5,9.5,4.2,8.7c4.6-1.1,15.9-9.5,18.1-11.7c1.1-1.1,2.6-2.7,2.2-7.2c-1.3-17.4-8.6-45.9-27-49.7
	C212.4,222.4,200.5,229.4,202.1,231.9L202.1,231.9z"/>
<path class="st0" d="M207.3,235.7l1.7-0.9c0.3-0.2,0.8,0,1,0.3l2,3.9c0.2,0.3,0,0.8-0.3,1l-1.7,0.9c-0.3,0.2-0.8,0-1-0.3l-2-3.9
	C206.8,236.3,206.9,235.9,207.3,235.7z"/>
<path class="st0" d="M211.5,244.4l1.5-0.6c0.3-0.1,0.7,0.2,0.9,0.7l2,5.6c0.2,0.5,0.1,1-0.2,1.1l-1.5,0.6c-0.3,0.1-0.7-0.2-0.9-0.7
	l-2-5.6C211.1,245,211.2,244.5,211.5,244.4z"/>
<path class="st0" d="M209.6,255.1c0.3,13.2,1,44,1.3,56.6c0,0.5,0.2,1.7,0.7,2c0.4,0.3,0.9,0.1,1.1-0.3c0.3-0.8,0.3-1.6,0.5-2.3
	c0.3-0.9,1.6-1.8,2.3-2.3c0,0,0.3-0.2,0.7-0.5c4.5-2.8,27.4-17.2,30.1-18.6c0.7-0.4,2.2-0.4,2.9,0.1c0.2,0.1,0.5,0.3,0.6,0.4
	c0.2,0.1,0.3,0,0.2-0.2c-0.3-0.8-3.4-4-4-4.9c-0.6-0.8-1.4-1.7-1.4-1.4c-0.1,0.3-0.3,0.9-0.3,0.9l-1.2-0.3l-0.3,1.4l-1.5-0.5
	l-0.2,1.5l-1.8-0.6l-0.2,1.7l-1.7-0.3l0,1.6l-1.9-0.2l0,1.9l-2.2-0.8c-0.4-0.1,0.6,2.2-0.4,2.7c-0.5,0.3-1.3,0.2-2.2-1.4
	c-0.5-0.8-2.2,0.5-3.1,0.9c-1.8,0.8-4.2,1.8-6.4,1.5c-2.6-0.4-3.3-4.5-3.7-8.3c-0.8-6.3-0.9-26.8-0.9-27.4c-0.1-0.6,0.1-2.1-0.8-2.5
	c-0.4-0.2-2.6-0.2-3.5-0.1c-0.9,0-1.2-0.2-1.7-0.5C210.1,254.8,209.6,255.1,209.6,255.1L209.6,255.1z"/>
<polygon class="st0" points="248.1,295 221.2,311.2 238.7,361.1 261.9,322.8 "/>
<polygon class="st0" points="268.1,324.3 243.2,365.3 245.1,366.5 269.9,325.1 "/>
<path class="st0" d="M275.2,322.6c0,0,2.6,1.5,3.3,1.7c0.7-0.2,1.2-1.7,2.4-4c1.2-2.3,13.7-25.7,13.7-25.7l26.9,20l-51.6,114.8
	l30.7,37.8l10.9,5.4l-16.1-4.5l-37.7-46.7l-22.5-47.8c0,0-0.8-1.4-0.8-2.6c0-1.2,1.1-2,1.6-1.8c0.6,0.2,7.2,6.3,8,6.9
	c0.8,0.5,1.5-0.5,1.8-2c0.3-1.5,1.9-0.2,2-0.1c0.1,0.1,0.8-0.1,0.6-0.6c-0.2-0.5-1.5-1-1.2-1.6c0.2-0.6,1.6,0.1,1.6,0.1l-0.7-1.7
	l1.7,0.2l-0.8-1.7l1.8,0.2l-0.8-1.9l2.1,0.4l-1.3-2l2.4,0.3l-1.3-1.9l2.2,0.2l-0.9-2.1l1.9,0.2L254,360l2.1-0.1l-0.8-2.1l2.1,0.2
	l-1.2-1.7l2.1,0.1l-1.2-1.7l2.3,0.5l-1.4-2.2l2.2,0.9l-1.2-2.6l2.4,0.4l-1.3-2l2.4,0.3l-1.2-2.5l2.1,0.5l-0.8-2.2l2,0.2l-1.1-1.7
	l2,0.1l-0.7-2.1l2.2,0.1l-1.3-2l2.4,0l-1.4-1.8l2.6,0.2l-1.4-2.1l2.5,0.3l-1.1-2.1l2.1,0.1l-1.1-1.8l2.3,0l-1.1-1.3l2.1,0.1
	l-1.2-1.5l1.7,0l-1-1.5l1.7,0l-0.7-1.3l2,0c0,0,0.3,0.3,0.4-0.6c-0.3-1-2.4-1.9-2.4-1.9L275.2,322.6L275.2,322.6z"/>
<path class="st0" d="M303.5,279.1l-2.4,3.8c0,0,22.5,17.1,25.2,17.4c2.7,0.3,22.9-8.4,22.9-8.4l-1.2-4.4c0,0-17.4,7.6-20.8,7.6
	C325.1,295.1,303.5,279.1,303.5,279.1L303.5,279.1z"/>
<path class="st0" d="M300.5,287.7l-1.9,0.3c0,0,24,19.4,26.7,19.6c2.7,0.2,27.6-10.2,27.6-10.2l-1.7-0.9c0,0-22.3,9.6-25.8,9.6
	C323.3,306.1,300.5,287.7,300.5,287.7L300.5,287.7z"/>
<path class="st0" d="M353.8,279.6c7.1,4,26.1,17,44.8-1.3c0.8-0.8,3.2,1.4,2.2,2.4c-1.5,1.8-21.2,20.5-49,2.9
	C350.1,282.7,352.4,278.9,353.8,279.6L353.8,279.6z"/>
<path class="st0" d="M404.6,285.5c3.9,4.7,19.5,19.8,32.1,9c0.8-0.7,1.5,0.5,0.9,0.8c-1.3,1-13.8,12.8-33.9-8.9
	C403,285.7,404,284.8,404.6,285.5L404.6,285.5z"/>
<path class="st0" d="M398.5,286.8c0.8-0.8,3.2,1.4,2.2,2.4c-5.2,6.4-14.4,9.7-23.8,9.9v-2.7C384.5,296.2,392.2,292.9,398.5,286.8
	L398.5,286.8z"/>
<path class="st0" d="M352.4,286.8c-0.8-0.8-3.2,1.4-2.2,2.4c5.2,6.4,14.4,9.7,23.8,9.9v-2.7C366.4,296.2,358.7,292.9,352.4,286.8z"
	/>
<path class="st0" d="M230.8,360.2v3.5l2.8-0.1c0,0-0.2-0.9-0.4-2.5c-0.3-1.6-0.3-2.3-1-2.4C231.3,358.7,230.8,359.2,230.8,360.2z"/>
<path class="st0" d="M420.6,289.2l7.4,0.5c0.3,0,0.6,0.3,0.5,0.6l0,0c0,0.3-0.3,0.6-0.6,0.5l-7.4-0.5c-0.3,0-0.6-0.3-0.5-0.6l0,0
	C420,289.4,420.3,289.2,420.6,289.2z"/>
<polygon class="st0" points="402.3,296 399,299.7 457.9,373.6 458.8,367.3 "/>
<polygon class="st0" points="410.3,306.3 414.5,311.6 414.1,298.7 411.1,297.9 "/>
<polygon class="st0" points="431.2,332.7 435.7,338.4 435.5,302.9 431.4,302.8 "/>
<polygon class="st0" points="438.4,341.8 442.8,347.3 443.1,307.1 439,304.9 "/>
<path class="st0" d="M461.7,309.5l3.5,0c0-0.1,0-0.1,0-0.2c0-0.9,0.9-1.6,2-1.6c1.1,0,2,0.7,2,1.6c0,0.1,0,0.1,0,0.2h0l-2.4,61.5
	l-9,66.6l-24.3,22.9l-9.2,3.7l27.1-29.8l8.4-64.4L461.7,309.5L461.7,309.5z"/>
<path class="st0" d="M315.3,374.1c6.5-25.6,33.6-43.9,60.3-41.4c51.8,4.8,55.3,40.9,58.6,56.7c-1.2,0-3.4,0.2-3.9,0.2
	c-0.1-0.5-0.6-4.4-1.4-8.2c-6.3-28.3-23.3-42.1-53.2-44.7c-25.2-2.2-50.8,14-56.7,38.7C317.7,374.9,315.3,374.1,315.3,374.1
	L315.3,374.1z"/>
<path class="st0" d="M318.5,422.8c9.1,16.2,24.7,30.2,45.8,33.2v-3.7c-19.7-3.5-37.1-19.8-42.4-31.2
	C320.6,421.7,318.5,422.8,318.5,422.8L318.5,422.8z"/>
<path class="st0" d="M384.1,455.6c39.9-6.8,52.2-42.6,50.3-65.3c-1.2,0-3.4,0.1-3.9,0.2c0,1.2,0,2.4,0.1,3.6
	c1.7,32.9-22,51.6-46.5,57.3L384.1,455.6L384.1,455.6z"/>
<path class="st0" d="M319.9,382.2c5.2,1.4,9,6.2,9,11.9c0,5.8-4,10.7-9.4,12c0.1,1.8-0.1,4.3,0,4.7c0,0.7-1,0.3-1.1,0.9
	c-0.1,1,0.3,2.5,1,4.2c0.6,1.5,2.1,4.6,2.1,4.6l-3.4,1.7c-0.4-1-1.3-3.1-2-5.1c-0.9-2.6-1.1-4.7-1.5-5c-0.8-0.2-1.1,0-1.2-0.7
	c-0.1-1.6-0.2-4.2-0.1-5.5c-5.1-1.5-8.8-6.2-8.8-11.9c0-5.3,3.3-9.8,7.9-11.6c0.6-2.2,2.2-7,2.7-7.5c0.2,0,3.4,0.8,3.5,0.9
	C318.9,376,319.6,380.5,319.9,382.2L319.9,382.2z"/>
<path class="st0" d="M374.7,365.1c16.3,0,29.5,13.2,29.5,29.5c0,16.3-13.2,29.5-29.5,29.5s-29.5-13.2-29.5-29.5
	C345.2,378.3,358.4,365.1,374.7,365.1z M384.6,409.4c-2.9,2.3-6.6,3.7-10.7,3.7c-9.3,0-16.9-7.3-16.9-16.3c0-0.9,0.1-1.9,0.2-2.8
	l0.7,0c-0.2,0.9-0.2,1.8-0.2,2.7c0,8.6,7.2,15.7,16.2,15.7c3.9,0,7.5-1.3,10.3-3.6l-5.9-7.3c-0.1-0.1-0.1-0.4,0.1-0.5l0,0
	c0.1-0.1,0.4-0.1,0.5,0.1l10.9,13.4c0.1,0.1,0.1,0.4-0.1,0.5l0,0c-0.1,0.1-0.4,0.1-0.5-0.1L384.6,409.4L384.6,409.4z M374.7,373.5
	c11.7,0,21.1,9.5,21.1,21.1c0,2.7-0.5,5.3-1.5,7.7h-7c1.4-2.2,2.2-4.9,2.2-7.7c0-8.2-6.6-14.8-14.8-14.8c-7.5,0-13.7,5.6-14.7,12.9
	l-6.4,0C354.6,382,363.7,373.5,374.7,373.5L374.7,373.5z"/>
<path class="st0" d="M389.8,351.2c0,0,11.4,3.2,19.7,16.4c1,1.5,5-0.5,4.1-2.6c-1.5-3.5-11.6-15.6-22.3-18.1
	C389.5,346.5,388.6,350.8,389.8,351.2L389.8,351.2z"/>
<path class="st0" d="M346.1,356.4c9.1-5.8,19.6-9.5,39-6.1c2.6,0,3.2-4.2,0.6-4.9c-5.1-1.3-27.6-3.9-41.9,7
	C341.8,353.6,344.5,357.2,346.1,356.4L346.1,356.4z"/>
<path class="st0" d="M334.3,361.8c1.5,0.8,4.4,2.2,5.8,2.8c1.3-1.4,2.7-2.9,3.8-4.3c-1.3-2.4-2.1-3.8-3.2-5.6
	C338.5,357.1,336.1,359.5,334.3,361.8L334.3,361.8z"/>
<polygon class="st0" points="340.5,424.9 336.3,431 342.1,435.9 343.9,428.2 "/>
<polygon class="st0" points="407.7,424.8 411.9,430.9 406,435.7 404.3,428 "/>
<polygon class="st0" points="348.3,431.4 346.6,438.7 351.5,441.4 352.4,434.3 "/>
<polygon class="st0" points="399.9,431.3 401.6,438.6 396.7,441.2 395.8,434.1 "/>
<polygon class="st0" points="356.1,436.5 355.9,444.1 360,445.5 360.5,438 "/>
<polygon class="st0" points="392.1,436.3 392.3,444 388.2,445.4 387.7,437.9 "/>
<polygon class="st0" points="364.1,438.1 364.1,448.2 373.4,445.5 375.6,445.5 385.1,448.1 385.1,438.1 375.5,441.6 373.4,441.6 "/>
<path class="st0" d="M295.8,523.4c-0.3,1.4-4.3,47.9-3.6,51.4s14,33.4,15.5,36.4s6.9,1.5,7.3-0.3c0.4-1.8,1.4-61.5,0.7-63.8
	C315,544.7,296.9,523.3,295.8,523.4L295.8,523.4z"/>
<path class="st0" d="M452.9,523.4c0.3,1.4,4.3,47.9,3.6,51.4s-14,33.4-15.5,36.4c-1.5,2.9-6.9,1.5-7.3-0.3
	c-0.4-1.8-1.4-61.5-0.7-63.8C433.7,544.7,451.7,523.3,452.9,523.4L452.9,523.4z"/>
<polygon class="st0" points="291,587.1 285.2,661 307.3,622.6 "/>
<polygon class="st0" points="457.6,587.1 463.5,661 441.4,622.6 "/>
<polygon class="st0" points="315,474.7 315,502.1 318.2,499 318.2,476.3 "/>
<polygon class="st0" points="433.6,474.7 433.6,502.1 430.4,499 430.4,476.3 "/>
<path class="st0" d="M318.5,499.3l-3.3,3.2c0,0,32.3,17.4,33.8,18.1c1.5,0.7,3.4-2.9,2.7-3.5C349,515.2,318.5,499.3,318.5,499.3z"/>
<path class="st0" d="M430.1,499.3l3.3,3.2c0,0-32.3,17.4-33.8,18.1c-1.5,0.7-3.4-2.9-2.7-3.5C399.6,515.2,430.1,499.3,430.1,499.3z"
	/>
<path class="st0" d="M318.7,484.5l0,1.8l34.6,18.1c-0.1,0.4-0.2,0.9-0.2,1.3c0,2.2,1.8,4.1,4.1,4.1s4.1-1.8,4.1-4.1
	s-1.8-4.1-4.1-4.1c-1.2,0-2.2,0.5-2.9,1.3L318.7,484.5L318.7,484.5z"/>
<path class="st0" d="M430,484.5l0,1.8l-34.6,18.1c0.1,0.4,0.2,0.9,0.2,1.3c0,2.2-1.8,4.1-4.1,4.1s-4.1-1.8-4.1-4.1s1.8-4.1,4.1-4.1
	c1.2,0,2.2,0.5,2.9,1.3L430,484.5L430,484.5z"/>
<path class="st0" d="M306.4,485.4v50.4h-1.4v-50.4c-2.3-0.3-4.1-2.3-4.1-4.7c0-2.6,2.1-4.8,4.8-4.8s4.8,2.1,4.8,4.8
	C310.4,483.1,308.7,485,306.4,485.4L306.4,485.4z"/>
<path class="st0" d="M442.3,485.4v50.4h1.4v-50.4c2.3-0.3,4.1-2.3,4.1-4.7c0-2.6-2.1-4.8-4.8-4.8c-2.6,0-4.8,2.1-4.8,4.8
	C438.2,483.1,440,485,442.3,485.4L442.3,485.4z"/>
<path class="st0" d="M348.1,516.6h0.6c0.8,0,1.4,0.5,1.4,1.2v124.7c0,0.7-0.6,1.2-1.4,1.2h-0.6c-0.8,0-1.4-0.5-1.4-1.2V517.8
	C346.8,517.1,347.4,516.6,348.1,516.6z"/>
<path class="st0" d="M399.8,516.6h0.6c0.8,0,1.4,0.5,1.4,1.2v124.7c0,0.7-0.6,1.2-1.4,1.2h-0.6c-0.8,0-1.4-0.5-1.4-1.2V517.8
	C398.5,517.1,399.1,516.6,399.8,516.6z"/>
<path class="st0" d="M357.8,510.3h0.5c0.6,0,1.1,0.5,1.1,1.1v119.8c0,0.6-0.5,1.1-1.1,1.1h-0.5c-0.6,0-1.1-0.5-1.1-1.1V511.4
	C356.7,510.8,357.2,510.3,357.8,510.3z"/>
<path class="st0" d="M390.4,510.3h0.5c0.6,0,1.1,0.5,1.1,1.1v119.8c0,0.6-0.5,1.1-1.1,1.1h-0.5c-0.6,0-1.1-0.5-1.1-1.1V511.4
	C389.3,510.8,389.8,510.3,390.4,510.3z"/>
<path class="st0" d="M346.9,492.3L346.9,492.3c0.3,0.1,0.5,0.5,0.3,0.8l-4.5,11.5c-0.1,0.3-0.5,0.5-0.8,0.3l0,0
	c-0.3-0.1-0.5-0.5-0.3-0.8l4.5-11.5C346.2,492.4,346.5,492.2,346.9,492.3z"/>
<path class="st0" d="M401.8,492.3L401.8,492.3c-0.3,0.1-0.5,0.5-0.3,0.8l4.5,11.5c0.1,0.3,0.5,0.5,0.8,0.3l0,0
	c0.3-0.1,0.5-0.5,0.3-0.8l-4.5-11.5C402.4,492.4,402.1,492.2,401.8,492.3z"/>
<path class="st0" d="M312.8,625.2v25.6h-1v-25.7c-0.9-0.3-1.6-1.2-1.6-2.2c0-1.3,1-2.3,2.3-2.3s2.3,1,2.3,2.3
	C314.8,624,313.9,625,312.8,625.2L312.8,625.2z"/>
<path class="st0" d="M435.8,625.2v25.6h1v-25.7c0.9-0.3,1.6-1.2,1.6-2.2c0-1.3-1-2.3-2.3-2.3s-2.3,1-2.3,2.3
	C433.8,624,434.7,625,435.8,625.2L435.8,625.2z"/>
<path class="st0" d="M372.1,454.3h4.8c0.3,0,0.5,0.2,0.5,0.5v0.4c0,0.3-0.2,0.5-0.5,0.5h-4.8c-0.3,0-0.5-0.2-0.5-0.5v-0.4
	C371.5,454.6,371.8,454.3,372.1,454.3z"/>
<path class="st0" d="M371,537.7h6.7c0.4,0,0.7,0.2,0.7,0.5v0.4c0,0.3-0.3,0.5-0.7,0.5H371c-0.4,0-0.7-0.2-0.7-0.5v-0.4
	C370.3,537.9,370.6,537.7,371,537.7z"/>
<path class="st0" d="M371,608h6.7c0.4,0,0.7,0.2,0.7,0.5v0.4c0,0.3-0.3,0.5-0.7,0.5H371c-0.4,0-0.7-0.2-0.7-0.5v-0.4
	C370.3,608.3,370.6,608,371,608z"/>
<path class="st0" d="M372.1,458.5h4.7c0.3,0,0.6,0.3,0.6,0.6v0.3c0,0.3-0.3,0.6-0.6,0.6h-4.7c-0.3,0-0.6-0.3-0.6-0.6V459
	C371.5,458.7,371.8,458.5,372.1,458.5z"/>
<path class="st0" d="M371.1,541.8h6.5c0.4,0,0.8,0.3,0.8,0.6v0.3c0,0.3-0.4,0.6-0.8,0.6h-6.5c-0.4,0-0.8-0.3-0.8-0.6v-0.3
	C370.3,542.1,370.6,541.8,371.1,541.8z"/>
<path class="st0" d="M371.1,612.8h6.5c0.4,0,0.8,0.3,0.8,0.6v0.3c0,0.3-0.4,0.6-0.8,0.6h-6.5c-0.4,0-0.8-0.3-0.8-0.6v-0.3
	C370.3,613.1,370.6,612.8,371.1,612.8z"/>
<path class="st0" d="M372.1,462.6h4.8c0.3,0,0.5,0.2,0.5,0.5v0.4c0,0.3-0.2,0.5-0.5,0.5h-4.8c-0.3,0-0.5-0.2-0.5-0.5v-0.4
	C371.5,462.8,371.8,462.6,372.1,462.6z"/>
<path class="st0" d="M371,545.3h6.7c0.4,0,0.7,0.2,0.7,0.5v0.4c0,0.3-0.3,0.5-0.7,0.5H371c-0.4,0-0.7-0.2-0.7-0.5v-0.4
	C370.3,545.5,370.6,545.3,371,545.3z"/>
<path class="st0" d="M371,617.3h6.7c0.4,0,0.7,0.2,0.7,0.5v0.4c0,0.3-0.3,0.5-0.7,0.5H371c-0.4,0-0.7-0.2-0.7-0.5v-0.4
	C370.3,617.6,370.6,617.3,371,617.3z"/>
<path class="st0" d="M372.1,466.1h4.8c0.3,0,0.5,0.2,0.5,0.5v0.4c0,0.3-0.2,0.5-0.5,0.5h-4.8c-0.3,0-0.5-0.2-0.5-0.5v-0.4
	C371.5,466.3,371.8,466.1,372.1,466.1z"/>
<path class="st0" d="M371,549.1h6.7c0.4,0,0.7,0.2,0.7,0.5v0.4c0,0.3-0.3,0.5-0.7,0.5H371c-0.4,0-0.7-0.2-0.7-0.5v-0.4
	C370.3,549.3,370.6,549.1,371,549.1z"/>
<path class="st0" d="M371,621.8h6.7c0.4,0,0.7,0.2,0.7,0.5v0.4c0,0.3-0.3,0.5-0.7,0.5H371c-0.4,0-0.7-0.2-0.7-0.5v-0.4
	C370.3,622,370.6,621.8,371,621.8z"/>
<path class="st0" d="M371.8,469.2h5.3c0.3,0,0.6,0.2,0.6,0.5v0.3c0,0.3-0.3,0.5-0.6,0.5h-5.3c-0.3,0-0.6-0.2-0.6-0.5v-0.3
	C371.2,469.5,371.5,469.2,371.8,469.2z"/>
<path class="st0" d="M370.7,555h7.4c0.5,0,0.9,0.2,0.9,0.5v0.3c0,0.3-0.4,0.5-0.9,0.5h-7.4c-0.5,0-0.9-0.2-0.9-0.5v-0.3
	C369.8,555.2,370.2,555,370.7,555z"/>
<path class="st0" d="M370.7,627h7.4c0.5,0,0.9,0.4,0.9,0.9v0.6c0,0.5-0.4,0.9-0.9,0.9h-7.4c-0.5,0-0.9-0.4-0.9-0.9V628
	C369.8,627.4,370.2,627,370.7,627z"/>
<path class="st0" d="M371.5,472.5h5.9c0.4,0,0.7,0.2,0.7,0.5v0.3c0,0.3-0.3,0.5-0.7,0.5h-5.9c-0.4,0-0.7-0.2-0.7-0.5V473
	C370.9,472.7,371.2,472.5,371.5,472.5z"/>
<path class="st0" d="M370.3,558.9h8.1c0.5,0,0.9,0.2,0.9,0.5v0.3c0,0.3-0.4,0.5-0.9,0.5h-8.1c-0.5,0-0.9-0.2-0.9-0.5v-0.3
	C369.4,559.1,369.8,558.9,370.3,558.9z"/>
<path class="st0" d="M371.5,476h5.9c0.4,0,0.7,0.2,0.7,0.5v0.3c0,0.3-0.3,0.5-0.7,0.5h-5.9c-0.4,0-0.7-0.2-0.7-0.5v-0.3
	C370.9,476.2,371.2,476,371.5,476z"/>
<path class="st0" d="M370.3,563.3h8.1c0.5,0,0.9,0.4,0.9,0.9v0.5c0,0.5-0.4,0.9-0.9,0.9h-8.1c-0.5,0-0.9-0.4-0.9-0.9v-0.5
	C369.4,563.7,369.8,563.3,370.3,563.3z"/>
<path class="st0" d="M370.3,633.3h8.1c0.5,0,0.9,0.3,0.9,0.8v0.5c0,0.4-0.4,0.8-0.9,0.8h-8.1c-0.5,0-0.9-0.3-0.9-0.8v-0.5
	C369.4,633.7,369.8,633.3,370.3,633.3z"/>
<path class="st0" d="M371.5,479.5h5.9c0.4,0,0.7,0.3,0.7,0.7v0.5c0,0.4-0.3,0.7-0.7,0.7h-5.9c-0.4,0-0.7-0.3-0.7-0.7v-0.5
	C370.9,479.8,371.2,479.5,371.5,479.5z"/>
<path class="st0" d="M370.3,568.3h8.2c0.5,0,0.9,0.3,0.9,0.7v0.5c0,0.4-0.4,0.7-0.9,0.7h-8.2c-0.5,0-0.9-0.3-0.9-0.7V569
	C369.4,568.6,369.8,568.3,370.3,568.3z"/>
<path class="st0" d="M370.3,638h8.2c0.5,0,0.9,0.4,0.9,0.9v0.6c0,0.5-0.4,0.9-0.9,0.9h-8.2c-0.5,0-0.9-0.4-0.9-0.9v-0.6
	C369.4,638.4,369.8,638,370.3,638z"/>
<path class="st0" d="M371.2,483.6h6.6c0.4,0,0.7,0.3,0.7,0.8v0.6c0,0.4-0.3,0.8-0.7,0.8h-6.6c-0.4,0-0.7-0.3-0.7-0.8v-0.6
	C370.5,484,370.8,483.6,371.2,483.6z"/>
<path class="st0" d="M369.8,573.1h9.1c0.6,0,1,0.3,1,0.8v0.6c0,0.4-0.5,0.8-1,0.8h-9.1c-0.6,0-1-0.3-1-0.8v-0.6
	C368.8,573.5,369.2,573.1,369.8,573.1z"/>
<path class="st0" d="M369.8,643.1h9.1c0.6,0,1,0.3,1,0.8v0.6c0,0.4-0.5,0.8-1,0.8h-9.1c-0.6,0-1-0.3-1-0.8v-0.6
	C368.8,643.5,369.2,643.1,369.8,643.1z"/>
<path class="st0" d="M371.3,488.2h6.4c0.4,0,0.8,0.4,0.8,0.8v0.4c0,0.5-0.4,0.8-0.8,0.8h-6.4c-0.4,0-0.8-0.4-0.8-0.8v-0.4
	C370.5,488.6,370.8,488.2,371.3,488.2z"/>
<path class="st0" d="M369.9,578.7h8.9c0.6,0,1.1,0.4,1.1,0.8v0.4c0,0.5-0.5,0.8-1.1,0.8h-8.9c-0.6,0-1.1-0.4-1.1-0.8v-0.4
	C368.8,579.1,369.3,578.7,369.9,578.7z"/>
<path class="st0" d="M371.8,500.2h5.3c0.3,0,0.6,0.3,0.6,0.7v0.4c0,0.4-0.3,0.7-0.6,0.7h-5.3c-0.3,0-0.6-0.3-0.6-0.7v-0.4
	C371.2,500.5,371.5,500.2,371.8,500.2z"/>
<path class="st0" d="M370.7,588.3h7.4c0.5,0,0.9,0.3,0.9,0.7v0.4c0,0.4-0.4,0.7-0.9,0.7h-7.4c-0.5,0-0.9-0.3-0.9-0.7V589
	C369.8,588.7,370.2,588.3,370.7,588.3z"/>
<path class="st0" d="M371.8,505.1h5.4c0.3,0,0.6,0.3,0.6,0.6v0.5c0,0.3-0.3,0.6-0.6,0.6h-5.4c-0.3,0-0.6-0.3-0.6-0.6v-0.5
	C371.2,505.3,371.5,505.1,371.8,505.1z"/>
<path class="st0" d="M370.6,594.9h7.5c0.4,0,0.8,0.3,0.8,0.6v0.5c0,0.3-0.4,0.6-0.8,0.6h-7.5c-0.4,0-0.8-0.3-0.8-0.6v-0.5
	C369.8,595.2,370.2,594.9,370.6,594.9z"/>
<path class="st0" d="M371.8,513h5.4c0.3,0,0.6,0.3,0.6,0.7v0.5c0,0.4-0.3,0.7-0.6,0.7h-5.4c-0.3,0-0.6-0.3-0.6-0.7v-0.5
	C371.2,513.3,371.5,513,371.8,513z"/>
<path class="st0" d="M370.6,602.8h7.5c0.5,0,0.8,0.3,0.8,0.7v0.5c0,0.4-0.4,0.7-0.8,0.7h-7.5c-0.5,0-0.8-0.3-0.8-0.7v-0.5
	C369.8,603.1,370.2,602.8,370.6,602.8z"/>
<path class="st0" d="M371.7,516.9h5.7c0.2,0,0.4,0.5,0.4,1.2v2.3c0,0.7-0.2,1.2-0.4,1.2h-5.7c-0.2,0-0.4-0.5-0.4-1.2v-2.3
	C371.3,517.4,371.5,516.9,371.7,516.9z"/>
<path class="st0" d="M371.7,509.1h5.5c0.3,0,0.5,0.2,0.5,0.5v0.5c0,0.3-0.2,0.5-0.5,0.5h-5.5c-0.3,0-0.5-0.2-0.5-0.5v-0.5
	C371.2,509.4,371.4,509.1,371.7,509.1z"/>
<path class="st0" d="M370.5,599h7.6c0.4,0,0.8,0.2,0.8,0.5v0.5c0,0.3-0.3,0.5-0.8,0.5h-7.6c-0.4,0-0.8-0.2-0.8-0.5v-0.5
	C369.8,599.2,370.1,599,370.5,599z"/>
<path class="st0" d="M371.7,494.5h5.5c0.4,0,0.6,0.5,0.6,1.1v0.7c0,0.6-0.3,1.1-0.6,1.1h-5.5c-0.4,0-0.6-0.5-0.6-1.1v-0.7
	C371.1,495,371.4,494.5,371.7,494.5z"/>
<path class="st0" d="M370.6,583.8h7.6c0.5,0,0.9,0.3,0.9,0.6v0.3c0,0.3-0.4,0.6-0.9,0.6h-7.6c-0.5,0-0.9-0.3-0.9-0.6v-0.3
	C369.7,584.1,370.1,583.8,370.6,583.8z"/>
<path class="st0" d="M369.9,527.4h9.2c1.5,0,2.7,1.1,2.7,2.5v1c0,1.4-1.2,2.5-2.7,2.5h-9.2c-1.5,0-2.7-1.1-2.7-2.5v-1
	C367.2,528.6,368.4,527.4,369.9,527.4z"/>
</svg>
