<?xml version="1.0" encoding="utf-8"?>
<!-- Generator: Adobe Illustrator 28.0.0, SVG Export Plug-In . SVG Version: 6.00 Build 0)  -->
<svg version="1.1" id="Layer_1" xmlns:xodm="http://www.corel.com/coreldraw/odm/2003"
	 xmlns="http://www.w3.org/2000/svg" xmlns:xlink="http://www.w3.org/1999/xlink" x="0px" y="0px" viewBox="0 0 720 720"
	 style="enable-background:new 0 0 720 720;" xml:space="preserve">
<style type="text/css">
	.st0{fill:#C02026;}
	.st1{opacity:0.5;}
</style>
<g>
	<path class="st0" d="M649.7,387.8H72.3c-17.8,0-32.1-14.3-32.1-32.1l0,0c0-17.8,14.3-32.1,32.1-32.1h577.3
		c17.8,0,32.1,14.3,32.1,32.1l0,0C681.8,373.3,667.5,387.8,649.7,387.8z M72.3,328.7c-14.8,0-26.9,12-26.9,26.9l0,0
		c0,14.8,12,26.9,26.9,26.9h577.3c14.8,0,26.9-12,26.9-26.9l0,0c0-14.8-12-26.9-26.9-26.9H72.3z"/>
</g>
<g>
	<g>
		<path class="st0" d="M67.1,330.7l-16.7,37.8c-2.1-3.6-3.3-7.8-3.5-12.2l8.9-20C58.9,333.5,62.8,331.6,67.1,330.7z"/>
	</g>
</g>
<g>
	<g>
		<path class="st0" d="M54.4,337.5l-7.6,17C47.2,347.9,49.9,341.9,54.4,337.5z"/>
	</g>
</g>
<g>
	<g>
		<path class="st0" d="M78,330.1l-20.5,46.2c-2.4-1.7-4.4-3.8-6.1-6.2l17.7-39.8L78,330.1z"/>
	</g>
</g>
<g>
	<g>
		<path class="st0" d="M88.6,330.1L88.6,330.1l-22.3,50.2c-2.7-0.6-5.2-1.7-7.5-3.1l20.9-47.1l0,0H88.6z"/>
	</g>
</g>
<g>
	<g>
		<polygon class="st0" points="76.7,381.1 67.8,381.1 90.4,330.1 99.3,330.1 		"/>
	</g>
</g>
<g>
	<g>
		<polygon class="st0" points="87.3,381.1 78.5,381.1 101,330.1 109.9,330.1 		"/>
	</g>
</g>
<g>
	<g>
		<polygon class="st0" points="98,381.1 89.1,381.1 111.7,330.1 120.6,330.1 		"/>
	</g>
</g>
<g>
	<g>
		<polygon class="st0" points="108.6,381.1 99.7,381.1 122.3,330.1 131.2,330.1 		"/>
	</g>
</g>
<g>
	<g>
		<polygon class="st0" points="119.3,381.1 110.4,381.1 133,330.1 141.8,330.1 		"/>
	</g>
</g>
<g>
	<g>
		<polygon class="st0" points="129.9,381.1 121,381.1 143.7,330.1 152.5,330.1 		"/>
	</g>
</g>
<g>
	<g>
		<polygon class="st0" points="140.5,381.1 131.7,381.1 154.3,330.1 163.1,330.1 		"/>
	</g>
</g>
<g>
	<g>
		<polygon class="st0" points="151.2,381.1 142.3,381.1 165,330.1 173.9,330.1 		"/>
	</g>
</g>
<g>
	<g>
		<polygon class="st0" points="161.8,381.1 152.9,381.1 175.6,330.1 184.5,330.1 		"/>
	</g>
</g>
<g>
	<g>
		<polygon class="st0" points="172.5,381.1 163.7,381.1 186.3,330.1 195.1,330.1 		"/>
	</g>
</g>
<g>
	<g>
		<polygon class="st0" points="183.1,381.1 174.3,381.1 196.9,330.1 205.8,330.1 		"/>
	</g>
</g>
<g>
	<g>
		<polygon class="st0" points="193.8,381.1 185,381.1 207.5,330.1 216.4,330.1 		"/>
	</g>
</g>
<g>
	<g>
		<polygon class="st0" points="204.5,381.1 195.6,381.1 218.2,330.1 227.1,330.1 		"/>
	</g>
</g>
<g>
	<g>
		<polygon class="st0" points="215.1,381.1 206.2,381.1 228.8,330.1 237.7,330.1 		"/>
	</g>
</g>
<g>
	<g>
		<polygon class="st0" points="225.8,381.1 216.9,381.1 239.5,330.1 248.4,330.1 		"/>
	</g>
</g>
<g>
	<g>
		<polygon class="st0" points="236.4,381.1 227.5,381.1 250.1,330.1 259,330.1 		"/>
	</g>
</g>
<g>
	<g>
		<polygon class="st0" points="247.1,381.1 238.2,381.1 260.8,330.1 269.6,330.1 		"/>
	</g>
</g>
<g>
	<g>
		<polygon class="st0" points="257.7,381.1 248.8,381.1 271.4,330.1 280.3,330.1 		"/>
	</g>
</g>
<g>
	<g>
		<polygon class="st0" points="268.3,381.1 259.5,381.1 282.1,330.1 290.9,330.1 		"/>
	</g>
</g>
<g>
	<g>
		<polygon class="st0" points="279,381.1 270.1,381.1 292.8,330.1 301.6,330.1 		"/>
	</g>
</g>
<g>
	<g>
		<polygon class="st0" points="289.6,381.1 280.7,381.1 303.4,330.1 312.2,330.1 		"/>
	</g>
</g>
<g>
	<g>
		<polygon class="st0" points="300.3,381.1 291.4,381.1 314.1,330.1 322.9,330.1 		"/>
	</g>
</g>
<g>
	<g>
		<polygon class="st0" points="310.9,381.1 302,381.1 324.7,330.1 333.6,330.1 		"/>
	</g>
</g>
<g>
	<g>
		<polygon class="st0" points="321.5,381.1 312.8,381.1 335.3,330.1 344.2,330.1 		"/>
	</g>
</g>
<g>
	<g>
		<polygon class="st0" points="332.2,381.1 323.4,381.1 346,330.1 354.9,330.1 		"/>
	</g>
</g>
<g>
	<g>
		<polygon class="st0" points="342.8,381.1 334,381.1 356.6,330.1 365.5,330.1 		"/>
	</g>
</g>
<g>
	<g>
		<polygon class="st0" points="353.6,381.1 344.7,381.1 367.3,330.1 376.1,330.1 		"/>
	</g>
</g>
<g>
	<g>
		<polygon class="st0" points="364.2,381.1 355.3,381.1 377.9,330.1 386.8,330.1 		"/>
	</g>
</g>
<g>
	<g>
		<polygon class="st0" points="374.9,381.1 366,381.1 388.5,330.1 397.4,330.1 		"/>
	</g>
</g>
<g>
	<g>
		<polygon class="st0" points="385.5,381.1 376.6,381.1 399.2,330.1 408.1,330.1 		"/>
	</g>
</g>
<g>
	<g>
		<polygon class="st0" points="396.1,381.1 387.3,381.1 409.8,330.1 418.7,330.1 		"/>
	</g>
</g>
<g>
	<g>
		<polygon class="st0" points="406.8,381.1 397.9,381.1 420.5,330.1 429.4,330.1 		"/>
	</g>
</g>
<g>
	<g>
		<polygon class="st0" points="417.4,381.1 408.5,381.1 431.2,330.1 440,330.1 		"/>
	</g>
</g>
<g>
	<g>
		<polygon class="st0" points="428.1,381.1 419.2,381.1 441.8,330.1 450.6,330.1 		"/>
	</g>
</g>
<g>
	<g>
		<polygon class="st0" points="438.7,381.1 429.8,381.1 452.5,330.1 461.3,330.1 		"/>
	</g>
</g>
<g>
	<g>
		<polygon class="st0" points="449.3,381.1 440.5,381.1 463.1,330.1 472,330.1 		"/>
	</g>
</g>
<g>
	<g>
		<polygon class="st0" points="460,381.1 451.1,381.1 473.8,330.1 482.7,330.1 		"/>
	</g>
</g>
<g>
	<g>
		<polygon class="st0" points="470.6,381.1 461.8,381.1 484.4,330.1 493.3,330.1 		"/>
	</g>
</g>
<g>
	<g>
		<polygon class="st0" points="481.3,381.1 472.5,381.1 495.1,330.1 503.9,330.1 		"/>
	</g>
</g>
<g>
	<g>
		<polygon class="st0" points="491.9,381.1 483.1,381.1 505.7,330.1 514.6,330.1 		"/>
	</g>
</g>
<g>
	<g>
		<polygon class="st0" points="502.6,381.1 493.8,381.1 516.3,330.1 525.2,330.1 		"/>
	</g>
</g>
<g>
	<g>
		<polygon class="st0" points="513.3,381.1 504.4,381.1 527,330.1 535.9,330.1 		"/>
	</g>
</g>
<g>
	<g>
		<polygon class="st0" points="523.9,381.1 515,381.1 537.6,330.1 546.5,330.1 		"/>
	</g>
</g>
<g>
	<g>
		<polygon class="st0" points="534.6,381.1 525.7,381.1 548.3,330.1 557.2,330.1 		"/>
	</g>
</g>
<g>
	<g>
		<polygon class="st0" points="545.2,381.1 536.3,381.1 558.9,330.1 567.8,330.1 		"/>
	</g>
</g>
<g class="st1">
	<g>
		<polygon class="st0" points="555.9,381.1 547,381.1 569.6,330.1 578.4,330.1 		"/>
	</g>
</g>
<g class="st1">
	<g>
		<polygon class="st0" points="566.5,381.1 557.6,381.1 580.3,330.1 589.1,330.1 		"/>
	</g>
</g>
<g class="st1">
	<g>
		<polygon class="st0" points="577.1,381.1 568.3,381.1 590.9,330.1 599.7,330.1 		"/>
	</g>
</g>
<g class="st1">
	<g>
		<polygon class="st0" points="587.8,381.1 578.9,381.1 601.6,330.1 610.4,330.1 		"/>
	</g>
</g>
<g class="st1">
	<g>
		<polygon class="st0" points="598.4,381.1 589.5,381.1 612.2,330.1 621.1,330.1 		"/>
	</g>
</g>
<g class="st1">
	<g>
		<polygon class="st0" points="609.1,381.1 600.2,381.1 622.9,330.1 631.7,330.1 		"/>
	</g>
</g>
<g class="st1">
	<g>
		<polygon class="st0" points="619.7,381.1 610.9,381.1 633.5,330.1 642.4,330.1 		"/>
	</g>
</g>
<g class="st1">
	<g>
		<polygon class="st0" points="630.4,381.1 621.6,381.1 644.1,330.1 653,330.1 		"/>
	</g>
</g>
<g class="st1">
	<g>
		<path class="st0" d="M662.2,333.5L641,381.2l0,0h-8.9l0,0l22.4-50.5C657.3,331.1,659.9,332.1,662.2,333.5z"/>
	</g>
</g>
<g class="st1">
	<g>
		<path class="st0" d="M669.9,340l-18.1,41l-0.1,0.1h-8.9l0,0l20.7-46.9C666,335.9,668.1,337.8,669.9,340z"/>
	</g>
</g>
<g class="st1">
	<g>
		<path class="st0" d="M675,352.5l-10.6,24c-3.1,2.2-6.8,3.8-10.8,4.3l17.4-39.2C673.1,344.8,674.6,348.5,675,352.5z"/>
	</g>
</g>
<g class="st1">
	<g>
		<path class="st0" d="M675.2,355.7c0,7.7-3.4,14.6-8.8,19.2l8.8-19.8C675.2,355.2,675.2,355.5,675.2,355.7z"/>
	</g>
</g>
<path class="st0" d="M337.7,313.1c0-0.6,0.1-1.2,0.2-1.7c0.1-0.5,0.4-0.9,0.6-1.3c0.3-0.4,0.6-0.7,0.8-0.9c0.4-0.3,0.6-0.5,1.1-0.7
	v-0.1c-0.3-0.2-0.6-0.4-0.8-0.6c-0.3-0.2-0.6-0.6-0.7-0.8c-0.2-0.4-0.5-0.7-0.6-1.2c-0.2-0.5-0.2-1-0.2-1.6v-1.6
	c0-0.7,0.1-1.3,0.3-1.9c0.2-0.6,0.4-0.9,0.6-1.3c0.3-0.4,0.6-0.6,0.9-0.9c0.4-0.2,0.7-0.4,1.1-0.6c0.4-0.2,0.7-0.2,1.2-0.3
	c0.4,0,0.7-0.1,1-0.1c0.4,0,0.6,0,1.1,0.1c0.4,0,0.7,0.1,1.2,0.3c0.4,0.1,0.7,0.3,1.1,0.6c0.4,0.2,0.6,0.6,0.9,0.8
	c0.3,0.4,0.5,0.8,0.6,1.3c0.2,0.6,0.3,1.1,0.3,1.9v1.6c0,0.6-0.1,1.1-0.2,1.6c-0.2,0.5-0.4,0.8-0.6,1.2c-0.2,0.4-0.5,0.6-0.7,0.8
	c-0.3,0.2-0.6,0.5-0.8,0.6v0.1c0.4,0.2,0.7,0.5,1.1,0.6c0.4,0.3,0.6,0.6,0.8,0.9c0.3,0.4,0.5,0.8,0.6,1.3c0.1,0.5,0.2,1,0.2,1.7v1.3
	c0,0.7-0.1,1.4-0.2,1.9c-0.2,0.6-0.4,1-0.6,1.5c-0.3,0.4-0.6,0.7-0.9,1s-0.7,0.5-1.1,0.6c-0.4,0.2-0.8,0.3-1.3,0.4
	c-0.5,0.1-0.9,0.1-1.3,0.1s-0.9,0-1.3-0.1c-0.5-0.1-0.8-0.2-1.3-0.4c-0.4-0.2-0.8-0.4-1.1-0.6c-0.4-0.3-0.6-0.6-0.9-1
	c-0.3-0.4-0.5-0.9-0.6-1.5s-0.2-1.2-0.2-1.9v-1.1H337.7z M341.1,314.7c0,0.6,0.1,1,0.2,1.4c0.1,0.4,0.3,0.6,0.5,0.8s0.5,0.4,0.7,0.4
	c0.3,0.1,0.6,0.1,0.8,0.1c0.3,0,0.6,0,0.8-0.1c0.3-0.1,0.5-0.2,0.7-0.5c0.2-0.2,0.4-0.5,0.5-0.8c0.1-0.4,0.2-0.8,0.2-1.4v-2.4
	c0-0.5-0.1-0.9-0.2-1.2c-0.1-0.4-0.3-0.6-0.4-0.8c-0.2-0.2-0.4-0.4-0.6-0.5c-0.3-0.1-0.6-0.2-0.8-0.2h-0.3c-0.6,0-1.1,0.2-1.5,0.6
	c-0.4,0.5-0.6,1.1-0.6,2L341.1,314.7L341.1,314.7z M343.5,307.3c0.3,0,0.5,0,0.7-0.1c0.2-0.1,0.4-0.2,0.6-0.4
	c0.2-0.2,0.3-0.5,0.4-0.8c0.1-0.4,0.2-0.7,0.2-1.2V303c0-0.9-0.2-1.6-0.5-2s-0.8-0.7-1.5-0.7s-1.2,0.3-1.5,0.7
	c-0.3,0.5-0.5,1.2-0.5,2v1.8c0,0.5,0,0.9,0.1,1.2s0.2,0.6,0.4,0.8c0.2,0.2,0.4,0.4,0.6,0.5c0.2,0.1,0.5,0.1,0.7,0.1L343.5,307.3
	L343.5,307.3z"/>
<path class="st0" d="M351.3,304.1c0-0.9,0.1-1.8,0.3-2.5c0.2-0.6,0.4-1.3,0.6-1.8c0.3-0.5,0.6-0.8,1-1.1c0.4-0.3,0.7-0.6,1.1-0.6
	c0.4-0.2,0.8-0.3,1.2-0.3c0.4-0.1,0.7-0.1,1.1-0.1c0.3,0,0.6,0,1,0.1c0.4,0.1,0.7,0.2,1.2,0.3c0.4,0.2,0.7,0.4,1.1,0.6
	c0.4,0.3,0.7,0.6,1,1.1c0.3,0.5,0.6,1,0.6,1.8c0.2,0.7,0.3,1.6,0.3,2.5v9.2c0,0.9-0.1,1.8-0.3,2.5c-0.2,0.6-0.4,1.3-0.7,1.8
	c-0.3,0.5-0.6,0.8-1,1.2c-0.4,0.3-0.7,0.6-1.1,0.7c-0.4,0.2-0.7,0.3-1.2,0.4c-0.4,0.1-0.7,0.1-1,0.1c-0.4,0-0.7,0-1.1-0.1
	c-0.4-0.1-0.8-0.2-1.2-0.4s-0.7-0.4-1.1-0.6c-0.4-0.3-0.6-0.6-1-1.2c-0.3-0.5-0.5-1.1-0.6-1.8c-0.2-0.7-0.3-1.5-0.3-2.5L351.3,304.1
	L351.3,304.1z M354.6,314.8c0,0.9,0.2,1.6,0.5,1.9c0.4,0.4,0.8,0.6,1.5,0.6c0.6,0,1.1-0.2,1.5-0.6c0.3-0.4,0.5-1,0.5-1.9V303
	c0-0.9-0.2-1.7-0.5-2c-0.3-0.5-0.8-0.6-1.5-0.6c-0.6,0-1.2,0.2-1.5,0.6c-0.4,0.5-0.5,1.1-0.5,2V314.8z"/>
<path class="st0" d="M369.3,309.7c-0.5,0-0.9-0.1-1.5-0.2c-0.5-0.1-0.9-0.4-1.3-0.8c-0.4-0.4-0.7-0.9-0.9-1.7
	c-0.3-0.7-0.4-1.7-0.4-2.9v-1.4c0-0.7,0.1-1.5,0.2-2c0.1-0.6,0.3-1,0.5-1.5c0.2-0.4,0.5-0.7,0.7-0.9c0.3-0.3,0.6-0.5,0.8-0.6
	c0.3-0.1,0.6-0.2,0.9-0.3c0.3-0.1,0.6-0.1,0.9-0.1c0.3,0,0.6,0,0.9,0.1c0.3,0.1,0.6,0.1,0.9,0.3c0.3,0.1,0.6,0.4,0.8,0.6
	c0.3,0.3,0.6,0.6,0.7,0.9c0.2,0.4,0.4,0.9,0.5,1.5c0.1,0.6,0.2,1.2,0.2,2v1.4c0,1.2-0.1,2.1-0.4,2.9c-0.3,0.7-0.6,1.3-1,1.7
	c-0.4,0.4-0.8,0.6-1.3,0.8C370.2,309.6,369.8,309.7,369.3,309.7z M369.4,307.6c0.6,0,0.9-0.3,1.1-0.7c0.2-0.5,0.3-1.2,0.3-2.1v-2.5
	c0-1-0.1-1.7-0.3-2.2c-0.2-0.5-0.6-0.7-1.1-0.7s-0.9,0.3-1.2,0.7c-0.2,0.5-0.4,1.2-0.4,2.2v2.5c0,1,0.1,1.7,0.4,2.1
	C368.4,307.4,368.8,307.6,369.4,307.6z M377.1,297.7h2.3l-5.8,22h-2.3L377.1,297.7z M377.1,313c0-1.2,0.1-2.1,0.4-2.8
	c0.3-0.7,0.6-1.2,1-1.6c0.4-0.4,0.8-0.6,1.3-0.7c0.5-0.1,0.9-0.2,1.4-0.2c0.3,0,0.6,0,0.9,0.1c0.3,0.1,0.6,0.1,0.9,0.3
	c0.3,0.1,0.6,0.4,0.8,0.6c0.3,0.3,0.6,0.6,0.7,0.9s0.4,0.9,0.5,1.5c0.1,0.6,0.2,1.2,0.2,2v1.4c0,0.7-0.1,1.5-0.2,2
	c-0.1,0.6-0.3,1.1-0.5,1.5c-0.2,0.4-0.5,0.7-0.7,1c-0.3,0.3-0.6,0.5-0.8,0.6s-0.6,0.3-0.9,0.3c-0.3,0.1-0.6,0.1-0.9,0.1
	s-0.6,0-1-0.1c-0.4-0.1-0.6-0.2-0.9-0.3c-0.3-0.2-0.6-0.4-0.8-0.6c-0.3-0.3-0.5-0.6-0.7-1c-0.2-0.4-0.4-0.9-0.5-1.5
	c-0.1-0.6-0.2-1.3-0.2-2L377.1,313L377.1,313z M379.7,315c0,1,0.1,1.7,0.4,2.1c0.2,0.5,0.6,0.6,1.2,0.6c0.6,0,0.9-0.2,1.1-0.6
	c0.2-0.5,0.3-1.2,0.3-2.1v-2.5c0-1-0.1-1.7-0.3-2.2c-0.2-0.5-0.6-0.7-1.1-0.7s-0.9,0.3-1.2,0.7c-0.2,0.5-0.4,1.2-0.4,2.2V315z"/>
</svg>
