<?xml version="1.0" encoding="utf-8"?>
<!-- Generator: Adobe Illustrator 28.0.0, SVG Export Plug-In . SVG Version: 6.00 Build 0)  -->
<svg version="1.1" id="Layer_1" xmlns:xodm="http://www.corel.com/coreldraw/odm/2003"
	 xmlns="http://www.w3.org/2000/svg" xmlns:xlink="http://www.w3.org/1999/xlink" x="0px" y="0px" viewBox="0 0 720 720"
	 style="enable-background:new 0 0 720 720;" xml:space="preserve">
<style type="text/css">
	.st0{fill:#F6B24A;}
</style>
<g>
	<g>
		<g>
			<g>
				<path class="st0" d="M38,311v70.9l10-10.2v-50.7L38,311z"/>
				<path class="st0" d="M671.8,321.2v50.7l10,10.2v-71L671.8,321.2z"/>
			</g>
		</g>
	</g>
</g>
<path class="st0" d="M681.9,299.1v-77.9l-17.3-17.5H55.4l-17.3,17.5v77.9l10,10.2l0,0l12,12.1v49.9l-1.6,1.6l0.2,0.2l-10.6,10.7
	l-10,10.2v79.8l17.3,17.5h609.1l17.3-17.5v-79.8l-10-10.2l-10.6-10.7l0.2-0.2l-1.6-1.6v-49.9l12-12.1l0,0L681.9,299.1z M651.5,317.9
	v56.8l20.3,20.6v74.2l-11.6,11.6H59.5L48,469.5v-74.2l20.3-20.6v-56.8L48,297.3v-72l11.6-11.6h600.8l11.6,11.6v71.9L651.5,317.9z"/>
<path class="st0" d="M652.4,190.2l-23.4-23.4l-0.5-0.5h-25.9l24.3,24.3h25.9L652.4,190.2z M584.2,166.8l-0.5-0.5h-23.6l0.5,0.5
	l23.4,23.4l0.5,0.5H608l-0.5-0.5L584.2,166.8z M540.6,166.3H179.3l-0.5,0.5l-23.4,23.4l-0.5,0.5H565L540.6,166.3z M136.2,166.3
	l-24.3,24.3h23.6l24.3-24.3H136.2z M91.3,166.3L67,190.6h25.9l24.3-24.3H91.3z"/>
<path class="st0" d="M112.3,190.2l-0.8,0.8h23.6l0.8-0.8H112.3z M652.4,190.2h-25.9l0.8,0.8h25.9L652.4,190.2z M607.5,190.2H584
	l0.8,0.8h23.6L607.5,190.2z M564.5,190.2h-409l-0.8,0.8h410.8L564.5,190.2z M67.4,190.2l-0.8,0.8h25.9l0.8-0.8H67.4z M91.8,166
	l-0.8,0.8h25.9l0.8-0.8H91.8z M540.2,166H179.7l-0.8,0.8h362.2L540.2,166z M583.3,166h-23.6l0.8,0.8h23.6L583.3,166z M628.1,166
	h-25.9l0.8,0.8H629L628.1,166z M136.6,166l-0.8,0.8h23.6l0.8-0.8H136.6z"/>
<path class="st0" d="M652.9,504.3H627l-24.3,24.3h25.9l0.5-0.5l23.4-23.4L652.9,504.3z M607.5,504.8l0.5-0.5h-23.6l-0.5,0.5
	l-23.4,23.4l-0.5,0.5h23.6l0.5-0.5L607.5,504.8z M564.9,504.3H154.9l0.5,0.5l23.4,23.4l0.5,0.5h361.3L564.9,504.3z M159.8,528.7
	l-24.3-24.3h-23.6l24.3,24.3H159.8z M117.2,528.7l-24.3-24.3H67l24.3,24.3H117.2z"/>
<path class="st0" d="M135.9,504.8l-0.8-0.8h-23.6l0.8,0.8H135.9z M653.3,503.9h-25.9l-0.8,0.8h25.9L653.3,503.9z M608.5,503.9h-23.6
	l-0.8,0.8h23.6L608.5,503.9z M565.3,503.9H154.6l0.8,0.8h409L565.3,503.9z M93.3,504.8l-0.8-0.8H66.6l0.8,0.8H93.3z M117.7,529
	l-0.8-0.8H90.9l0.8,0.8H117.7z M541,528.2H178.8l0.8,0.8h360.5L541,528.2z M584.2,528.2h-23.6l-0.8,0.8h23.6L584.2,528.2z
	 M629.1,528.2h-25.9l-0.8,0.8h25.9L629.1,528.2z M160.1,529l-0.8-0.8h-23.6l0.8,0.8H160.1z"/>
</svg>
