<?xml version="1.0" encoding="utf-8"?>
<!-- Generator: Adobe Illustrator 28.0.0, SVG Export Plug-In . SVG Version: 6.00 Build 0)  -->
<svg version="1.1" id="Layer_1" xmlns:xodm="http://www.corel.com/coreldraw/odm/2003"
	 xmlns="http://www.w3.org/2000/svg" xmlns:xlink="http://www.w3.org/1999/xlink" x="0px" y="0px" viewBox="0 0 720 720"
	 style="enable-background:new 0 0 720 720;" xml:space="preserve">
<style type="text/css">
	.st0{fill:#C10C0C;}
	.st1{fill:none;}
	.st2{fill:#FFFFFF;}
</style>
<polygon points="637.2,217.9 637.2,486.1 72.1,486.1 72.1,310.9 165.8,217.9 "/>
<polygon class="st0" points="229.3,217.9 165.8,217.9 72.1,311.7 72.1,371.4 59.8,358.5 59.8,306.5 160.7,205.7 215.3,205.7 "/>
<line class="st1" x1="65.3" y1="301" x2="59.8" y2="306.5"/>
<polygon class="st0" points="663.3,387.6 663.3,510.1 359,510.1 384.3,486.1 637.2,486.1 637.2,414.6 "/>
<g>
	<polygon class="st0" points="151.8,296.8 137.3,296.8 166.3,255.3 180.8,255.3 	"/>
	<polygon class="st0" points="177,296.8 162.4,296.8 191.5,255.3 206,255.3 	"/>
	<polygon class="st0" points="202.1,296.8 187.6,296.8 216.6,255.3 231.2,255.3 	"/>
	<polygon class="st0" points="227.3,296.8 212.8,296.8 241.8,255.3 256.3,255.3 	"/>
	<polygon class="st0" points="252.5,296.8 237.9,296.8 267,255.3 281.5,255.3 	"/>
	<polygon class="st0" points="277.6,296.8 263.1,296.8 292.2,255.3 306.7,255.3 	"/>
	<polygon class="st0" points="302.8,296.8 288.3,296.8 317.3,255.3 331.8,255.3 	"/>
	<polygon class="st0" points="328,296.8 313.4,296.8 342.5,255.3 357,255.3 	"/>
	<polygon class="st0" points="353.1,296.8 338.6,296.8 367.7,255.3 382.2,255.3 	"/>
	<polygon class="st0" points="378.3,296.8 363.8,296.8 392.8,255.3 407.3,255.3 	"/>
	<polygon class="st0" points="403.5,296.8 389,296.8 418,255.3 432.5,255.3 	"/>
	<polygon class="st0" points="428.6,296.8 414.1,296.8 443.2,255.3 457.7,255.3 	"/>
	<polygon class="st0" points="453.8,296.8 439.3,296.8 468.3,255.3 482.9,255.3 	"/>
	<polygon class="st0" points="479,296.8 464.5,296.8 493.5,255.3 508,255.3 	"/>
	<polygon class="st0" points="504.2,296.8 489.6,296.8 518.7,255.3 533.2,255.3 	"/>
	<polygon class="st0" points="529.3,296.8 514.8,296.8 543.8,255.3 558.4,255.3 	"/>
	<polygon class="st0" points="554.5,296.8 540,296.8 569,255.3 583.5,255.3 	"/>
	<polygon class="st0" points="579.7,296.8 565.1,296.8 594.2,255.3 608.7,255.3 	"/>
</g>
<g>
	<polygon class="st0" points="662.6,311.5 637.2,337.8 637.2,311.5 	"/>
	<polygon class="st0" points="663.3,324.3 663.3,342.4 637.2,369.6 637.2,351.3 	"/>
	<polygon class="st0" points="637.2,383.5 663.3,356.5 663.3,375.1 637.2,402.1 	"/>
</g>
<path class="st2" d="M155.3,417.1l-8.7-8.7v-51.8l8.7-8.7h39l8.7,8.7v17.3h-17.3v-8.7h-21.6v34.5h21.6v-8.7h17.3v17.3l-8.7,8.7
	H155.3z"/>
<path class="st2" d="M236,371.7l-14.2,45.3H205l21.6-69h18.6l21.6,69h-16.8L236,371.7z"/>
<path class="st2" d="M288.4,347.9v51.8h21.5v-51.8h17.3v60.5l-8.7,8.7h-38.8l-8.7-8.7v-60.5H288.4z"/>
<path class="st2" d="M354.7,365.2h-20.2v-17.3h56.2v17.3h-18.8v51.8h-17.2V365.2z"/>
<path class="st2" d="M415.6,347.9v69.1h-17.3v-69.1H415.6z"/>
<path class="st2" d="M431.6,417.1l-8.7-8.7v-51.8l8.7-8.7h38.8l8.7,8.7v51.8l-8.7,8.7H431.6z M440.2,365.2v34.5h21.5v-34.5H440.2z"
	/>
<path class="st2" d="M487.4,347.9h15.9l27.3,46.8v-46.8h17.3v69.1h-20.2l-23-39.5v39.5h-17.3V347.9z"/>
<path class="st2" d="M575,347.9v47.5h-17.3v-47.5H575z M575,399.7v17.3h-17.3v-17.3H575z"/>
</svg>
