<?xml version="1.0" encoding="utf-8"?>
<!-- Generator: Adobe Illustrator 28.0.0, SVG Export Plug-In . SVG Version: 6.00 Build 0)  -->
<svg version="1.1" id="Layer_1" xmlns:xodm="http://www.corel.com/coreldraw/odm/2003"
	 xmlns="http://www.w3.org/2000/svg" xmlns:xlink="http://www.w3.org/1999/xlink" x="0px" y="0px" viewBox="0 0 720 720"
	 style="enable-background:new 0 0 720 720;" xml:space="preserve">
<style type="text/css">
	.st0{fill-rule:evenodd;clip-rule:evenodd;fill:#C10C0C;}
	.st1{fill-rule:evenodd;clip-rule:evenodd;fill:#FFFFFF;}
</style>
<path class="st0" d="M568.2,703.1H151.8c-22.6,0-40.9-18.3-40.9-40.9V57.8c0-22.6,18.3-40.9,40.9-40.9h416.5
	c22.6,0,40.9,18.3,40.9,40.9v604.4C609,684.8,590.8,703.1,568.2,703.1z"/>
<path class="st1" d="M566,38.2h-412c-12.3,0-22.2,9.9-22.2,22.2v599.2c0,12.3,9.9,22.2,22.2,22.2h412c12.3,0,22.2-9.9,22.2-22.2
	V60.4C588.2,48.1,578.2,38.2,566,38.2z M582,658.1c0,10.2-8.3,18.5-18.5,18.5h-407c-10.2,0-18.5-8.3-18.5-18.5V61.9
	c0-10.2,8.3-18.5,18.5-18.5h407c10.2,0,18.5,8.3,18.5,18.5V658.1z"/>
</svg>
