<?xml version="1.0" encoding="utf-8"?>
<!-- Generator: Adobe Illustrator 28.0.0, SVG Export Plug-In . SVG Version: 6.00 Build 0)  -->
<svg version="1.1" id="Layer_1" xmlns:xodm="http://www.corel.com/coreldraw/odm/2003"
	 xmlns="http://www.w3.org/2000/svg" xmlns:xlink="http://www.w3.org/1999/xlink" x="0px" y="0px" viewBox="0 0 720 720"
	 style="enable-background:new 0 0 720 720;" xml:space="preserve">
<style type="text/css">
	.st0{fill:#C02026;}
	.st1{opacity:0.5;}
</style>
<g>
	<path class="st0" d="M647.9,387H70.1C52.4,387,38,372.7,38,354.9l0,0c0-17.8,14.4-32.1,32.1-32.1h577.8c17.8,0,32.1,14.4,32.1,32.1
		l0,0C680,372.6,665.7,387,647.9,387z M70.1,327.9c-14.8,0-26.9,12-26.9,26.9l0,0c0,14.8,12,26.9,26.9,26.9h577.8
		c14.8,0,26.9-12,26.9-26.9l0,0c0-14.8-12-26.9-26.9-26.9H70.1z"/>
</g>
<g>
	<g>
		<path class="st0" d="M64.9,329.9l-16.8,37.9c-2.1-3.6-3.3-7.8-3.5-12.2l8.9-20C56.7,332.8,60.6,330.8,64.9,329.9z"/>
	</g>
</g>
<g>
	<g>
		<path class="st0" d="M52.2,336.7l-7.6,17C44.9,347.1,47.7,341.1,52.2,336.7z"/>
	</g>
</g>
<g>
	<g>
		<path class="st0" d="M75.8,329.3l-20.5,46.2c-2.4-1.7-4.4-3.8-6.1-6.2l17.7-39.8L75.8,329.3z"/>
	</g>
</g>
<g>
	<g>
		<path class="st0" d="M86.4,329.3L86.4,329.3l-22.3,50.3c-2.7-0.6-5.2-1.7-7.5-3.1l20.9-47.1l0,0H86.4z"/>
	</g>
</g>
<g>
	<g>
		<polygon class="st0" points="74.5,380.4 65.6,380.4 88.2,329.3 97.1,329.3 		"/>
	</g>
</g>
<g>
	<g>
		<polygon class="st0" points="85.1,380.4 76.2,380.4 98.8,329.3 107.7,329.3 		"/>
	</g>
</g>
<g>
	<g>
		<polygon class="st0" points="95.8,380.4 86.9,380.4 109.5,329.3 118.4,329.3 		"/>
	</g>
</g>
<g>
	<g>
		<polygon class="st0" points="106.4,380.4 97.5,380.4 120.1,329.3 129,329.3 		"/>
	</g>
</g>
<g>
	<g>
		<polygon class="st0" points="117.1,380.4 108.2,380.4 130.9,329.3 139.7,329.3 		"/>
	</g>
</g>
<g>
	<g>
		<polygon class="st0" points="127.7,380.4 118.8,380.4 141.5,329.3 150.3,329.3 		"/>
	</g>
</g>
<g>
	<g>
		<polygon class="st0" points="138.4,380.4 129.5,380.4 152.2,329.3 161,329.3 		"/>
	</g>
</g>
<g>
	<g>
		<polygon class="st0" points="149,380.4 140.1,380.4 162.8,329.3 171.7,329.3 		"/>
	</g>
</g>
<g>
	<g>
		<polygon class="st0" points="159.7,380.4 150.8,380.4 173.5,329.3 182.4,329.3 		"/>
	</g>
</g>
<g>
	<g>
		<polygon class="st0" points="170.3,380.4 161.5,380.4 184.1,329.3 193,329.3 		"/>
	</g>
</g>
<g>
	<g>
		<polygon class="st0" points="181,380.4 172.2,380.4 194.8,329.3 203.7,329.3 		"/>
	</g>
</g>
<g>
	<g>
		<polygon class="st0" points="191.6,380.4 182.8,380.4 205.4,329.3 214.3,329.3 		"/>
	</g>
</g>
<g>
	<g>
		<polygon class="st0" points="202.4,380.4 193.5,380.4 216.1,329.3 225,329.3 		"/>
	</g>
</g>
<g>
	<g>
		<polygon class="st0" points="213,380.4 204.1,380.4 226.7,329.3 235.6,329.3 		"/>
	</g>
</g>
<g>
	<g>
		<polygon class="st0" points="223.7,380.4 214.8,380.4 237.4,329.3 246.3,329.3 		"/>
	</g>
</g>
<g>
	<g>
		<polygon class="st0" points="234.3,380.4 225.4,380.4 248,329.3 256.9,329.3 		"/>
	</g>
</g>
<g>
	<g>
		<polygon class="st0" points="245,380.4 236.1,380.4 258.7,329.3 267.6,329.3 		"/>
	</g>
</g>
<g>
	<g>
		<polygon class="st0" points="255.6,380.4 246.7,380.4 269.3,329.3 278.2,329.3 		"/>
	</g>
</g>
<g>
	<g>
		<polygon class="st0" points="266.3,380.4 257.4,380.4 280.1,329.3 288.9,329.3 		"/>
	</g>
</g>
<g>
	<g>
		<polygon class="st0" points="276.9,380.4 268,380.4 290.7,329.3 299.5,329.3 		"/>
	</g>
</g>
<g>
	<g>
		<polygon class="st0" points="287.6,380.4 278.7,380.4 301.4,329.3 310.2,329.3 		"/>
	</g>
</g>
<g class="st1">
	<g>
		<polygon class="st0" points="298.2,380.4 289.3,380.4 312,329.3 320.9,329.3 		"/>
	</g>
</g>
<g class="st1">
	<g>
		<polygon class="st0" points="308.9,380.4 300,380.4 322.7,329.3 331.6,329.3 		"/>
	</g>
</g>
<g class="st1">
	<g>
		<polygon class="st0" points="319.5,380.4 310.7,380.4 333.3,329.3 342.2,329.3 		"/>
	</g>
</g>
<g class="st1">
	<g>
		<polygon class="st0" points="330.2,380.4 321.4,380.4 344,329.3 352.9,329.3 		"/>
	</g>
</g>
<g class="st1">
	<g>
		<polygon class="st0" points="340.8,380.4 332,380.4 354.6,329.3 363.5,329.3 		"/>
	</g>
</g>
<g class="st1">
	<g>
		<polygon class="st0" points="351.6,380.4 342.7,380.4 365.3,329.3 374.2,329.3 		"/>
	</g>
</g>
<g class="st1">
	<g>
		<polygon class="st0" points="362.2,380.4 353.3,380.4 375.9,329.3 384.8,329.3 		"/>
	</g>
</g>
<g class="st1">
	<g>
		<polygon class="st0" points="372.9,380.4 364,380.4 386.6,329.3 395.5,329.3 		"/>
	</g>
</g>
<g class="st1">
	<g>
		<polygon class="st0" points="383.5,380.4 374.6,380.4 397.2,329.3 406.1,329.3 		"/>
	</g>
</g>
<g class="st1">
	<g>
		<polygon class="st0" points="394.2,380.4 385.3,380.4 407.9,329.3 416.8,329.3 		"/>
	</g>
</g>
<g class="st1">
	<g>
		<polygon class="st0" points="404.8,380.4 395.9,380.4 418.5,329.3 427.4,329.3 		"/>
	</g>
</g>
<g class="st1">
	<g>
		<polygon class="st0" points="415.5,380.4 406.6,380.4 429.3,329.3 438,329.3 		"/>
	</g>
</g>
<g class="st1">
	<g>
		<polygon class="st0" points="426.1,380.4 417.2,380.4 439.9,329.3 448.7,329.3 		"/>
	</g>
</g>
<g class="st1">
	<g>
		<polygon class="st0" points="436.8,380.4 427.9,380.4 450.6,329.3 459.3,329.3 		"/>
	</g>
</g>
<g class="st1">
	<g>
		<polygon class="st0" points="447.4,380.4 438.5,380.4 461.2,329.3 470.1,329.3 		"/>
	</g>
</g>
<g class="st1">
	<g>
		<polygon class="st0" points="458.1,380.4 449.2,380.4 471.8,329.3 480.7,329.3 		"/>
	</g>
</g>
<g class="st1">
	<g>
		<polygon class="st0" points="468.7,380.4 459.9,380.4 482.5,329.3 491.4,329.3 		"/>
	</g>
</g>
<g class="st1">
	<g>
		<polygon class="st0" points="479.4,380.4 470.6,380.4 493.1,329.3 502,329.3 		"/>
	</g>
</g>
<g class="st1">
	<g>
		<polygon class="st0" points="490,380.4 481.2,380.4 503.8,329.3 512.7,329.3 		"/>
	</g>
</g>
<g class="st1">
	<g>
		<polygon class="st0" points="500.7,380.4 491.9,380.4 514.4,329.3 523.3,329.3 		"/>
	</g>
</g>
<g class="st1">
	<g>
		<polygon class="st0" points="511.4,380.4 502.5,380.4 525.1,329.3 534,329.3 		"/>
	</g>
</g>
<g class="st1">
	<g>
		<polygon class="st0" points="522,380.4 513.2,380.4 535.7,329.3 544.6,329.3 		"/>
	</g>
</g>
<g class="st1">
	<g>
		<polygon class="st0" points="532.7,380.4 523.8,380.4 546.4,329.3 555.3,329.3 		"/>
	</g>
</g>
<g class="st1">
	<g>
		<polygon class="st0" points="543.3,380.4 534.5,380.4 557,329.3 565.9,329.3 		"/>
	</g>
</g>
<g class="st1">
	<g>
		<polygon class="st0" points="554,380.4 545.1,380.4 567.8,329.3 576.6,329.3 		"/>
	</g>
</g>
<g class="st1">
	<g>
		<polygon class="st0" points="564.6,380.4 555.7,380.4 578.4,329.3 587.2,329.3 		"/>
	</g>
</g>
<g class="st1">
	<g>
		<polygon class="st0" points="575.3,380.4 566.4,380.4 589.1,329.3 597.9,329.3 		"/>
	</g>
</g>
<g class="st1">
	<g>
		<polygon class="st0" points="585.9,380.4 577,380.4 599.7,329.3 608.5,329.3 		"/>
	</g>
</g>
<g class="st1">
	<g>
		<polygon class="st0" points="596.6,380.4 587.7,380.4 610.4,329.3 619.3,329.3 		"/>
	</g>
</g>
<g class="st1">
	<g>
		<polygon class="st0" points="607.2,380.4 598.3,380.4 621,329.3 629.9,329.3 		"/>
	</g>
</g>
<g class="st1">
	<g>
		<polygon class="st0" points="617.9,380.4 609.1,380.4 631.7,329.3 640.6,329.3 		"/>
	</g>
</g>
<g class="st1">
	<g>
		<polygon class="st0" points="628.5,380.4 619.7,380.4 642.3,329.3 651.2,329.3 		"/>
	</g>
</g>
<g class="st1">
	<g>
		<path class="st0" d="M660.4,332.7l-21.2,47.8l0,0h-8.9l0,0l22.4-50.6C655.5,330.3,658.1,331.3,660.4,332.7z"/>
	</g>
</g>
<g class="st1">
	<g>
		<path class="st0" d="M668.1,339.2l-18.2,41l-0.1,0.1h-8.9l0,0l20.7-47C664.2,335.1,666.3,337,668.1,339.2z"/>
	</g>
</g>
<g class="st1">
	<g>
		<path class="st0" d="M673.3,351.7l-10.6,24c-3.1,2.2-6.9,3.8-10.8,4.4l17.4-39.3C671.3,344.1,672.8,347.8,673.3,351.7z"/>
	</g>
</g>
<g class="st1">
	<g>
		<path class="st0" d="M673.4,354.9c0,7.7-3.4,14.6-8.8,19.3l8.8-19.8C673.4,354.4,673.4,354.7,673.4,354.9z"/>
	</g>
</g>
<path class="st0" d="M336.9,312.7l6.4-16.1h4v15.3h2v2.6h-2v3.9h-3.1v-3.9H337L336.9,312.7L336.9,312.7z M344.1,311.7v-3.2l0.3-8.2
	h-0.4l-3.8,11.4L344.1,311.7L344.1,311.7z"/>
<path class="st0" d="M351.2,302.8c0-0.9,0.1-1.8,0.3-2.5c0.2-0.6,0.4-1.3,0.6-1.8c0.3-0.5,0.6-0.8,1-1.1c0.4-0.3,0.7-0.6,1.1-0.6
	c0.4-0.2,0.8-0.3,1.2-0.3c0.4-0.1,0.7-0.1,1.1-0.1c0.3,0,0.6,0,1,0.1c0.4,0.1,0.7,0.2,1.2,0.3c0.4,0.2,0.7,0.4,1.1,0.6
	c0.4,0.3,0.7,0.6,1,1.1c0.3,0.5,0.6,1,0.6,1.8c0.2,0.7,0.3,1.6,0.3,2.5v9.2c0,0.9-0.1,1.8-0.3,2.5c-0.2,0.6-0.4,1.3-0.6,1.8
	c-0.3,0.5-0.6,0.8-1,1.2c-0.4,0.3-0.7,0.6-1.1,0.7c-0.4,0.2-0.7,0.3-1.2,0.4c-0.4,0.1-0.7,0.1-1,0.1c-0.4,0-0.7,0-1.1-0.1
	c-0.4-0.1-0.8-0.2-1.2-0.4c-0.4-0.2-0.7-0.4-1.1-0.6c-0.4-0.3-0.7-0.6-1-1.2c-0.3-0.5-0.5-1.1-0.6-1.8c-0.2-0.7-0.3-1.5-0.3-2.5
	V302.8z M354.6,313.3c0,0.9,0.2,1.6,0.5,1.9c0.4,0.4,0.8,0.6,1.5,0.6c0.6,0,1.1-0.2,1.5-0.6c0.3-0.4,0.5-1,0.5-1.9v-11.8
	c0-0.9-0.2-1.7-0.5-2c-0.3-0.5-0.8-0.6-1.5-0.6c-0.6,0-1.2,0.2-1.5,0.6c-0.4,0.5-0.5,1.1-0.5,2V313.3z"/>
<path class="st0" d="M369.3,308.2c-0.5,0-0.9-0.1-1.5-0.2c-0.5-0.1-0.9-0.4-1.3-0.8c-0.4-0.4-0.7-0.9-0.9-1.7
	c-0.3-0.7-0.4-1.7-0.4-2.9v-1.4c0-0.7,0.1-1.5,0.2-2c0.1-0.6,0.3-1,0.5-1.5c0.2-0.4,0.5-0.7,0.7-0.9c0.3-0.3,0.6-0.5,0.8-0.6
	c0.3-0.1,0.6-0.2,0.9-0.3c0.3-0.1,0.6-0.1,0.9-0.1s0.6,0,0.9,0.1c0.3,0.1,0.6,0.1,0.9,0.3c0.3,0.1,0.6,0.4,0.8,0.6
	c0.3,0.3,0.6,0.6,0.7,0.9c0.2,0.4,0.4,0.9,0.5,1.5c0.1,0.6,0.2,1.2,0.2,2v1.4c0,1.2-0.1,2.1-0.4,2.9s-0.6,1.3-1,1.7
	c-0.4,0.4-0.8,0.6-1.3,0.8C370.2,308.2,369.8,308.2,369.3,308.2z M369.3,306.2c0.6,0,0.9-0.3,1.1-0.7c0.2-0.5,0.3-1.2,0.3-2.1v-2.5
	c0-1-0.1-1.7-0.3-2.2c-0.2-0.5-0.6-0.7-1.1-0.7s-0.9,0.3-1.2,0.7c-0.2,0.5-0.4,1.2-0.4,2.2v2.5c0,1,0.1,1.7,0.4,2.1
	C368.4,306,368.8,306.2,369.3,306.2z M377,296.3h2.3l-5.8,22h-2.3L377,296.3z M377.1,311.6c0-1.2,0.1-2.1,0.4-2.8
	c0.3-0.7,0.6-1.2,1-1.6c0.4-0.4,0.8-0.6,1.3-0.7c0.5-0.1,0.9-0.2,1.4-0.2c0.3,0,0.6,0,0.9,0.1c0.3,0.1,0.6,0.1,0.9,0.3
	c0.3,0.1,0.6,0.4,0.8,0.6c0.3,0.3,0.6,0.6,0.7,0.9s0.4,0.9,0.5,1.5s0.2,1.2,0.2,2v1.4c0,0.7-0.1,1.5-0.2,2c-0.1,0.6-0.3,1.1-0.5,1.5
	c-0.2,0.4-0.5,0.7-0.7,1c-0.3,0.3-0.6,0.5-0.8,0.6c-0.3,0.2-0.6,0.3-0.9,0.3c-0.3,0.1-0.6,0.1-0.9,0.1s-0.6,0-1-0.1
	c-0.4-0.1-0.6-0.2-0.9-0.3c-0.3-0.2-0.6-0.4-0.8-0.6c-0.3-0.3-0.5-0.6-0.7-1c-0.2-0.4-0.4-0.9-0.5-1.5c-0.1-0.6-0.2-1.3-0.2-2
	L377.1,311.6L377.1,311.6z M379.7,313.6c0,1,0.1,1.7,0.4,2.1c0.2,0.5,0.6,0.6,1.2,0.6c0.6,0,0.9-0.2,1.1-0.6
	c0.2-0.5,0.3-1.2,0.3-2.1v-2.5c0-1-0.1-1.7-0.3-2.2c-0.2-0.5-0.6-0.7-1.1-0.7s-0.9,0.3-1.2,0.7c-0.2,0.5-0.4,1.2-0.4,2.2V313.6z"/>
</svg>
