<?xml version="1.0" encoding="utf-8"?>
<!-- Generator: Adobe Illustrator 28.0.0, SVG Export Plug-In . SVG Version: 6.00 Build 0)  -->
<svg version="1.1" id="Layer_1" xmlns:xodm="http://www.corel.com/coreldraw/odm/2003"
	 xmlns="http://www.w3.org/2000/svg" xmlns:xlink="http://www.w3.org/1999/xlink" x="0px" y="0px" viewBox="0 0 720 720"
	 style="enable-background:new 0 0 720 720;" xml:space="preserve">
<style type="text/css">
	.st0{fill:#C12026;}
	.st1{opacity:0.5;fill:#C12026;}
</style>
<path class="st0" d="M223.4,393.1l36.4-92.4h22.6v87.5h11.5V403h-11.5v22.3h-17.6V403h-41.3V393.1z M264.7,388.2v-18.4l1.8-47h-2.2
	l-21.6,65.4H264.7z"/>
<path class="st0" d="M305.4,336.3c0-5.5,0.5-10.2,1.5-14.1c1-4,2.3-7.3,3.9-10c1.6-2.7,3.5-4.9,5.7-6.5c2.1-1.7,4.3-2.9,6.6-3.8
	c2.3-0.9,4.5-1.5,6.8-1.8c2.3-0.3,4.3-0.4,6.2-0.4c1.8,0,3.8,0.1,6,0.4s4.5,0.8,6.7,1.7c2.3,0.9,4.5,2.1,6.6,3.7
	c2.1,1.6,4,3.8,5.6,6.5c1.6,2.7,2.9,6.1,3.9,10.1c1,4,1.5,8.8,1.5,14.3V389c0,5.5-0.5,10.2-1.5,14.1c-1,4-2.3,7.3-4,10.1
	c-1.7,2.8-3.6,5-5.7,6.8c-2.1,1.7-4.3,3.1-6.6,4c-2.2,0.9-4.5,1.6-6.7,1.9c-2.2,0.3-4.2,0.5-6,0.5c-1.9,0-4.1-0.2-6.4-0.5
	c-2.3-0.3-4.6-1-6.9-1.9c-2.3-0.9-4.5-2.3-6.6-4c-2.1-1.7-4-3.9-5.6-6.7c-1.6-2.8-2.9-6.2-3.9-10.1c-1-4-1.5-8.7-1.5-14.2V336.3z
	 M324.8,396.9c0,5.2,0.9,8.9,2.8,11.2c1.9,2.3,4.7,3.5,8.6,3.5c3.7,0,6.5-1.2,8.4-3.5c1.8-2.3,2.8-6.1,2.8-11.2v-67.5
	c0-5.5-0.9-9.4-2.8-11.9c-1.8-2.5-4.7-3.7-8.4-3.7c-3.8,0-6.7,1.2-8.6,3.7c-1.9,2.5-2.8,6.5-2.8,11.9V396.9z"/>
<path class="st0" d="M409.2,368c-2.8,0-5.6-0.4-8.4-1.2c-2.8-0.8-5.3-2.3-7.6-4.6c-2.3-2.3-4.1-5.5-5.5-9.6
	c-1.4-4.2-2.1-9.6-2.1-16.4v-7.8c0-4.4,0.3-8.3,1-11.5c0.7-3.2,1.6-6,2.8-8.3c1.2-2.3,2.6-4.1,4.1-5.5c1.6-1.4,3.2-2.5,5-3.3
	c1.8-0.8,3.5-1.3,5.4-1.6c1.8-0.3,3.6-0.4,5.4-0.4c1.7,0,3.4,0.1,5.2,0.4c1.8,0.3,3.6,0.8,5.3,1.6c1.7,0.8,3.4,1.9,4.9,3.3
	c1.6,1.4,2.9,3.2,4.1,5.5c1.2,2.3,2.1,5.1,2.8,8.3c0.7,3.3,1,7.1,1,11.6v7.8c0,6.7-0.8,12.1-2.3,16.2s-3.4,7.4-5.7,9.7
	c-2.3,2.3-4.8,3.8-7.6,4.6C414.2,367.6,411.6,368,409.2,368z M409.3,356.3c3.1,0,5.2-1.3,6.4-4c1.2-2.7,1.8-6.8,1.8-12.4v-14.2
	c0-5.6-0.6-9.8-1.8-12.5c-1.2-2.7-3.4-4-6.4-4c-3.2,0-5.5,1.3-6.8,4c-1.3,2.7-1.9,6.8-1.9,12.5V340c0,5.6,0.6,9.7,1.9,12.4
	C403.9,355,406.1,356.3,409.3,356.3z M453.4,299.2h13.2l-33.5,126.1h-13.3L453.4,299.2z M453.6,386.9c0-6.7,0.7-12,2.2-16
	c1.5-4,3.4-7.1,5.7-9.3c2.3-2.2,4.9-3.6,7.6-4.3c2.8-0.7,5.5-1.1,8-1.1c1.7,0,3.4,0.1,5.2,0.4c1.8,0.3,3.6,0.8,5.3,1.6
	c1.7,0.8,3.4,1.9,4.9,3.3c1.6,1.4,2.9,3.2,4.1,5.5s2.1,5.1,2.8,8.3c0.7,3.3,1,7.1,1,11.6v7.8c0,4.5-0.4,8.4-1.1,11.7
	c-0.7,3.3-1.7,6.1-2.8,8.5c-1.2,2.3-2.6,4.3-4.1,5.8c-1.6,1.5-3.2,2.7-4.9,3.6c-1.7,0.9-3.5,1.5-5.3,1.8c-1.8,0.3-3.5,0.5-5.1,0.5
	c-1.8,0-3.7-0.2-5.6-0.5c-1.9-0.3-3.7-0.9-5.4-1.7c-1.7-0.8-3.4-2-4.9-3.5c-1.5-1.5-2.9-3.4-4-5.8c-1.1-2.3-2-5.2-2.7-8.5
	c-0.7-3.3-1-7.3-1-11.8V386.9z M468.5,398.5c0,5.6,0.6,9.7,1.9,12.4c1.3,2.7,3.5,4,6.8,4c3.1,0,5.2-1.3,6.4-4s1.8-6.8,1.8-12.4
	v-14.2c0-5.6-0.6-9.8-1.8-12.5c-1.2-2.7-3.4-4-6.4-4c-3.2,0-5.5,1.3-6.8,4c-1.3,2.7-1.9,6.8-1.9,12.5V398.5z"/>
<path class="st1" d="M201.4,306.1c8.3-23.9,22-45.7,40.3-64.1c5.5-5.5,11.3-10.5,17.3-15.1l-78.6-108.2
	C131.6,155,94.1,205.8,74.2,264.7L201.4,306.1z"/>
<path class="st1" d="M192,362.1c0-16.8,2.4-33.3,7.1-49L71.9,271.7c-8.9,28.5-13.7,58.9-13.7,90.3s4.8,61.8,13.7,90.3l127.2-41.3
	C194.5,395.4,192,378.9,192,362.1z"/>
<path class="st0" d="M531.8,362.1c0,16.8-2.4,33.3-7.1,49l127.2,41.3c8.9-28.5,13.7-58.9,13.7-90.3s-4.8-61.8-13.7-90.3l-127.2,41.3
	C529.4,328.8,531.8,345.2,531.8,362.1z"/>
<path class="st0" d="M522.4,418.1c-8.3,23.9-22,45.7-40.3,64.1c-5.5,5.5-11.3,10.5-17.3,15.1l78.6,108.2
	c48.8-36.4,86.3-87.2,106.2-146.1L522.4,418.1z"/>
<path class="st1" d="M241.8,482.2c-18.4-18.4-32-40.3-40.3-64.1L74.2,459.4c19.9,58.9,57.4,109.7,106.2,146.1l78.6-108.2
	C253,492.7,247.2,487.7,241.8,482.2z"/>
<path class="st0" d="M482,241.9c18.4,18.4,32,40.3,40.3,64.1l127.2-41.3c-19.9-58.9-57.4-109.7-106.2-146.1l-78.6,108.2
	C470.8,231.4,476.6,236.5,482,241.9z"/>
<path class="st1" d="M458.8,501.7c-27.2,19-59.4,29.5-93.2,30.2v133.8c64-0.8,123.2-21.3,171.8-55.8L458.8,501.7z"/>
<path class="st1" d="M358.2,531.9c-33.8-0.7-65.9-11.2-93.2-30.2l-78.6,108.2c48.6,34.5,107.8,55,171.8,55.8V531.9z"/>
<path class="st1" d="M265,222.5c27.2-19,59.4-29.5,93.2-30.2V58.5c-64,0.8-123.2,21.3-171.8,55.8L265,222.5z"/>
<path class="st0" d="M365.6,192.2c33.8,0.7,65.9,11.2,93.2,30.2l78.6-108.2c-48.6-34.5-107.8-55-171.8-55.8V192.2z"/>
</svg>
