<?xml version="1.0" encoding="utf-8"?>
<!-- Generator: Adobe Illustrator 28.0.0, SVG Export Plug-In . SVG Version: 6.00 Build 0)  -->
<svg version="1.1" id="Layer_1" xmlns:xodm="http://www.corel.com/coreldraw/odm/2003"
	 xmlns="http://www.w3.org/2000/svg" xmlns:xlink="http://www.w3.org/1999/xlink" x="0px" y="0px" viewBox="0 0 720 720"
	 style="enable-background:new 0 0 720 720;" xml:space="preserve">
<path d="M247.3,409.6c-17.9,0-32.7,14.4-32.7,32.7c0,17.9,14.8,32.7,32.7,32.7c17.9,0,32.7-14.8,32.7-32.7
	C279.9,424,265.2,409.6,247.3,409.6z M247.3,327.1c-17.9,0-32.7,14.8-32.7,32.7c0,18.3,14.8,32.7,32.7,32.7
	c17.9,0,32.7-14.4,32.7-32.7C279.9,341.9,265.2,327.1,247.3,327.1z M247.3,245.1c-17.9,0-32.7,14.8-32.7,32.7
	c0,18.3,14.8,32.7,32.7,32.7c17.9,0,32.7-14.4,32.7-32.7C279.9,259.8,265.2,245.1,247.3,245.1z M323.9,323.6
	c-17.9,0-32.7,14.8-32.7,32.7c0,17.9,14.8,32.7,32.7,32.7c18.3,0,32.7-14.8,32.7-32.7C356.6,338.4,342.2,323.6,323.9,323.6z
	 M168.3,491.7c-17.9,0-32.7,14.4-32.7,32.7c0,17.9,14.8,32.7,32.7,32.7c18.3,0,32.7-14.8,32.7-32.7C201,506,186.6,491.7,168.3,491.7
	z M168.3,245.1c-17.9,0-32.7,14.8-32.7,32.7c0,18.3,14.8,32.7,32.7,32.7c18.3,0,32.7-14.4,32.7-32.7
	C201,259.8,186.6,245.1,168.3,245.1z M168.3,163c-17.9,0-32.7,14.8-32.7,32.7c0,18.3,14.8,32.7,32.7,32.7
	c18.3,0,32.7-14.4,32.7-32.7C201,177.8,186.6,163,168.3,163z M92.5,573.7c-18.3,0-32.7,14.4-32.7,32.7c0,17.9,14.4,32.7,32.7,32.7
	c17.9,0,32.7-14.8,32.7-32.7C125.1,588.1,110.4,573.7,92.5,573.7z M92.5,491.7c-18.3,0-32.7,14.4-32.7,32.7
	c0,17.9,14.4,32.7,32.7,32.7c17.9,0,32.7-14.8,32.7-32.7C125.1,506,110.4,491.7,92.5,491.7z M92.5,409.6
	c-18.3,0-32.7,14.4-32.7,32.7c0,17.9,14.4,32.7,32.7,32.7c17.9,0,32.7-14.8,32.7-32.7C125.1,424,110.4,409.6,92.5,409.6z
	 M92.5,327.1c-18.3,0-32.7,14.8-32.7,32.7c0,18.3,14.4,32.7,32.7,32.7c17.9,0,32.7-14.4,32.7-32.7
	C125.1,341.9,110.4,327.1,92.5,327.1z M92.5,163c-18.3,0-32.7,14.8-32.7,32.7c0,18.3,14.4,32.7,32.7,32.7
	c17.9,0,32.7-14.4,32.7-32.7C125.1,177.8,110.4,163,92.5,163z M92.5,80.9c-18.3,0-32.7,14.8-32.7,32.7c0,18.3,14.4,32.7,32.7,32.7
	c17.9,0,32.7-14.4,32.7-32.7C125.1,95.7,110.4,80.9,92.5,80.9z"/>
<path d="M125.1,277.7c0,18.3-14.8,32.7-32.7,32.7c-18.3,0-32.7-14.4-32.7-32.7c0-17.9,14.4-32.7,32.7-32.7
	C110.4,245.1,125.1,259.8,125.1,277.7z"/>
<path d="M201,442.3c0,17.9-14.4,32.7-32.7,32.7c-17.9,0-32.7-14.8-32.7-32.7c0-18.3,14.8-32.7,32.7-32.7
	C186.7,409.6,201,424,201,442.3z"/>
<path d="M201,359.8c0,18.3-14.4,32.7-32.7,32.7c-17.9,0-32.7-14.4-32.7-32.7c0-17.9,14.8-32.7,32.7-32.7
	C186.6,327.1,201,341.9,201,359.8z"/>
<path d="M554,409.6c-17.9,0-32.7,14.4-32.7,32.7c0,17.9,14.8,32.7,32.7,32.7c17.9,0,32.7-14.8,32.7-32.7
	C586.7,424,571.9,409.6,554,409.6z M554,327.1c-17.9,0-32.7,14.8-32.7,32.7c0,18.3,14.8,32.7,32.7,32.7c17.9,0,32.7-14.4,32.7-32.7
	C586.7,341.9,571.9,327.1,554,327.1z M554,245.1c-17.9,0-32.7,14.8-32.7,32.7c0,18.3,14.8,32.7,32.7,32.7
	c17.9,0,32.7-14.4,32.7-32.7C586.7,259.8,571.9,245.1,554,245.1z M630.6,323.6c-17.9,0-32.7,14.8-32.7,32.7
	c0,17.9,14.8,32.7,32.7,32.7c18.3,0,32.7-14.8,32.7-32.7C663.3,338.4,648.9,323.6,630.6,323.6z M475.1,491.7
	c-17.9,0-32.7,14.4-32.7,32.7c0,17.9,14.8,32.7,32.7,32.7c18.3,0,32.7-14.8,32.7-32.7C507.7,506,493.3,491.7,475.1,491.7z
	 M475.1,245.1c-17.9,0-32.7,14.8-32.7,32.7c0,18.3,14.8,32.7,32.7,32.7c18.3,0,32.7-14.4,32.7-32.7
	C507.7,259.8,493.3,245.1,475.1,245.1z M475.1,163c-17.9,0-32.7,14.8-32.7,32.7c0,18.3,14.8,32.7,32.7,32.7
	c18.3,0,32.7-14.4,32.7-32.7C507.7,177.8,493.3,163,475.1,163z M399.2,573.7c-18.3,0-32.7,14.4-32.7,32.7
	c0,17.9,14.4,32.7,32.7,32.7c17.9,0,32.7-14.8,32.7-32.7C431.9,588.1,417.1,573.7,399.2,573.7z M399.2,491.7
	c-18.3,0-32.7,14.4-32.7,32.7c0,17.9,14.4,32.7,32.7,32.7c17.9,0,32.7-14.8,32.7-32.7C431.9,506,417.1,491.7,399.2,491.7z
	 M399.2,409.6c-18.3,0-32.7,14.4-32.7,32.7c0,17.9,14.4,32.7,32.7,32.7c17.9,0,32.7-14.8,32.7-32.7
	C431.9,424,417.1,409.6,399.2,409.6z M399.2,327.1c-18.3,0-32.7,14.8-32.7,32.7c0,18.3,14.4,32.7,32.7,32.7
	c17.9,0,32.7-14.4,32.7-32.7C431.9,341.9,417.1,327.1,399.2,327.1z M399.2,163c-18.3,0-32.7,14.8-32.7,32.7
	c0,18.3,14.4,32.7,32.7,32.7c17.9,0,32.7-14.4,32.7-32.7C431.9,177.8,417.1,163,399.2,163z M399.2,80.9c-18.3,0-32.7,14.8-32.7,32.7
	c0,18.3,14.4,32.7,32.7,32.7c17.9,0,32.7-14.4,32.7-32.7C431.9,95.7,417.1,80.9,399.2,80.9z"/>
<path d="M431.9,277.7c0,18.3-14.8,32.7-32.7,32.7c-18.3,0-32.7-14.4-32.7-32.7c0-17.9,14.4-32.7,32.7-32.7
	C417.1,245.1,431.9,259.8,431.9,277.7z"/>
<path d="M507.8,442.3c0,17.9-14.4,32.7-32.7,32.7c-17.9,0-32.7-14.8-32.7-32.7c0-18.3,14.8-32.7,32.7-32.7
	C493.4,409.6,507.8,424,507.8,442.3z"/>
<path d="M507.7,359.8c0,18.3-14.4,32.7-32.7,32.7c-17.9,0-32.7-14.4-32.7-32.7c0-17.9,14.8-32.7,32.7-32.7
	C493.3,327.1,507.7,341.9,507.7,359.8z"/>
</svg>
