<?xml version="1.0" encoding="utf-8"?>
<!-- Generator: Adobe Illustrator 28.0.0, SVG Export Plug-In . SVG Version: 6.00 Build 0)  -->
<svg version="1.1" id="Layer_1" xmlns:xodm="http://www.corel.com/coreldraw/odm/2003"
	 xmlns="http://www.w3.org/2000/svg" xmlns:xlink="http://www.w3.org/1999/xlink" x="0px" y="0px" viewBox="0 0 720 720"
	 style="enable-background:new 0 0 720 720;" xml:space="preserve">
<style type="text/css">
	.st0{fill-rule:evenodd;clip-rule:evenodd;fill:#FFFFFF;stroke:#000000;stroke-miterlimit:10;}
	.st1{fill-rule:evenodd;clip-rule:evenodd;fill:#C10C0C;stroke:#000000;stroke-miterlimit:10;}
	.st2{fill:#FFFFFF;}
</style>
<path class="st0" d="M586.7,456.4H133.3c-53.3,0-96.4-43.2-96.4-96.4l0,0c0-53.3,43.2-96.4,96.4-96.4h453.3
	c53.3,0,96.4,43.2,96.4,96.4l0,0C683.1,413.3,639.9,456.4,586.7,456.4z"/>
<path class="st1" d="M583.9,441.6H136.1c-45.7,0-82.7-37-82.7-82.7l0,0c0-45.7,37-82.7,82.7-82.7H584c45.7,0,82.7,37,82.7,82.7l0,0
	C666.7,404.6,629.6,441.6,583.9,441.6z"/>
<path class="st2" d="M122.2,402.3L112,392.1V331l10.2-10.2h45.9l10.2,10.2v20.4h-20.4v-10.2h-25.5v40.7h25.5v-10.2h20.4v20.4
	l-10.2,10.3H122.2z"/>
<path class="st2" d="M217.3,348.8l-16.8,53.4h-19.8l25.5-81.4h22l25.5,81.4h-19.8L217.3,348.8z"/>
<path class="st2" d="M279.1,320.8v61.1h25.4v-61.1h20.4v71.3l-10.2,10.2h-45.8l-10.2-10.2v-71.3H279.1z"/>
<path class="st2" d="M357.4,341.2h-23.8v-20.4h66.2v20.4h-22.1v61.1h-20.3V341.2z"/>
<path class="st2" d="M429.1,320.8v81.5h-20.4v-81.5H429.1z"/>
<path class="st2" d="M448,402.3l-10.2-10.2V331l10.2-10.2h45.8L504,331v61.1l-10.2,10.2H448z M458.2,341.2v40.7h25.4v-40.7H458.2z"
	/>
<path class="st2" d="M513.8,320.8h18.7l32.2,55.2v-55.2h20.4v81.5h-23.8l-27.1-46.6v46.6h-20.4V320.8z"/>
<path class="st2" d="M617.1,320.8v56h-20.4v-56H617.1z M617.1,381.9v20.4h-20.4v-20.4H617.1z"/>
</svg>
