<?xml version="1.0" encoding="utf-8"?>
<!-- Generator: Adobe Illustrator 28.0.0, SVG Export Plug-In . SVG Version: 6.00 Build 0)  -->
<svg version="1.1" id="Layer_1" xmlns:xodm="http://www.corel.com/coreldraw/odm/2003"
	 xmlns="http://www.w3.org/2000/svg" xmlns:xlink="http://www.w3.org/1999/xlink" x="0px" y="0px" viewBox="0 0 720 720"
	 style="enable-background:new 0 0 720 720;" xml:space="preserve">
<style type="text/css">
	.st0{fill-rule:evenodd;clip-rule:evenodd;fill:#FFD93E;}
	.st1{fill-rule:evenodd;clip-rule:evenodd;fill:#F9F9F9;}
	.st2{fill-rule:evenodd;clip-rule:evenodd;}
</style>
<path class="st0" d="M339.3,94.8c10-17.4,35-17.4,45,0l137.1,237.3L660,572.4c9.3,16-2.3,36-20.8,36H361.8H84.3
	c-18.5,0-30-20-20.8-36l138.7-240.3L339.3,94.8z"/>
<path class="st1" d="M642.4,578L505.6,341.1l-136.8-237c-3.1-5.3-10.8-5.3-13.9,0l-136.8,237L81.2,578c-3.1,5.3,0.8,12,7,12h273.6
	h273.6C641.6,590.1,645.4,583.4,642.4,578z M633.1,584.6H361.8H90.5c-2.8,0-4.5-2.9-3.1-5.3L223,344.3l135.7-234.9
	c1.3-2.4,4.8-2.4,6.2,0l135.7,234.9l135.7,234.9C637.6,581.6,635.9,584.6,633.1,584.6z"/>
<path class="st2" d="M642.4,578L505.5,341.1l-136.9-237c-3.1-5.3-10.8-5.3-13.9,0L218,341.2L81.2,578.1c-3.1,5.3,0.8,12,7,12
	l273.6-0.1l273.6-0.1C641.6,590,645.4,583.3,642.4,578z M626.7,579.2H361.8H96.8c-2.7,0-4.4-2.9-3-5.2l132.5-229.4l132.5-229.4
	c1.3-2.4,4.7-2.4,6,0l132.5,229.4L629.7,574C631.1,576.3,629.4,579.2,626.7,579.2z"/>
<circle class="st2" cx="359.1" cy="421.6" r="27.1"/>
<path class="st2" d="M376.7,391c0,0,19.2,12,16.8,30.2c20,0.3,85.4,0.2,100,0c-0.2-12.6,0-77.5-67.1-116.8
	C414.3,323.9,376.7,391,376.7,391L376.7,391z"/>
<path class="st2" d="M341.4,391.3c0,0-19.2,12-16.8,30.2c-20,0.3-85.4,0.2-100,0c0.2-12.6,0-77.5,67.1-116.8
	C303.7,324.2,341.4,391.3,341.4,391.3L341.4,391.3z"/>
<path class="st2" d="M341.5,452.5c0,0,20,10.5,34.6-0.8c10.4,17.1,43.3,73.6,50.5,86.3c-11,6.2-66.9,39.1-134.7,1.1
	C302.6,518.9,341.5,452.5,341.5,452.5L341.5,452.5z"/>
</svg>
