<?xml version="1.0" encoding="utf-8"?>
<!-- Generator: Adobe Illustrator 28.0.0, SVG Export Plug-In . SVG Version: 6.00 Build 0)  -->
<svg version="1.1" id="Layer_1" xmlns:xodm="http://www.corel.com/coreldraw/odm/2003"
	 xmlns="http://www.w3.org/2000/svg" xmlns:xlink="http://www.w3.org/1999/xlink" x="0px" y="0px" viewBox="0 0 720 720"
	 style="enable-background:new 0 0 720 720;" xml:space="preserve">
<style type="text/css">
	.st0{opacity:0.5;}
</style>
<ellipse cx="600.9" cy="359.3" rx="81" ry="37.5"/>
<ellipse transform="matrix(0.809 -0.5878 0.5878 0.809 -21.9781 367.7405)" cx="554.9" cy="217.7" rx="81" ry="37.5"/>
<ellipse transform="matrix(0.309 -0.9511 0.9511 0.309 176.3938 503.0813)" cx="434.4" cy="130.1" rx="81" ry="37.5"/>
<ellipse transform="matrix(0.9511 -0.309 0.309 0.9511 -26.2458 94.5868)" class="st0" cx="285.5" cy="130.1" rx="37.5" ry="81"/>
<ellipse transform="matrix(0.5878 -0.809 0.809 0.5878 -108.1071 223.2099)" cx="165" cy="217.7" rx="37.5" ry="81"/>
<ellipse cx="119" cy="359.3" rx="81" ry="37.5"/>
<ellipse transform="matrix(0.809 -0.5878 0.5878 0.809 -262.963 192.6546)" cx="165" cy="501" rx="81" ry="37.5"/>
<ellipse transform="matrix(0.309 -0.9511 0.9511 0.309 -362.465 678.1671)" cx="285.5" cy="588.5" rx="81" ry="37.5"/>
<ellipse transform="matrix(0.9511 -0.309 0.309 0.9511 -160.6037 163.0456)" cx="434.4" cy="588.5" rx="37.5" ry="81"/>
<ellipse transform="matrix(0.5878 -0.809 0.809 0.5878 -176.5658 655.4416)" cx="554.9" cy="501" rx="37.5" ry="81"/>
<path d="M300.4,380.6c0,4.6-0.4,8.5-1.2,11.7c-0.8,3.2-1.9,6-3.2,8.2c-1.4,2.2-2.9,4-4.6,5.3c-1.7,1.3-3.5,2.3-5.4,3
	c-1.9,0.7-3.7,1.1-5.5,1.3c-1.8,0.2-3.4,0.3-5,0.3c-4.1,0-7.6-0.5-10.5-1.5c-2.9-1-5.3-2.4-7.1-4.1c-1.8-1.7-3.2-3.7-4-6
	c-0.9-2.3-1.3-4.7-1.3-7.2c0-1.4,0.1-2.8,0.4-4.5c0.2-1.6,0.6-3.2,1.2-4.9h11.4v2.1c0,3,0.2,5.5,0.6,7.4c0.4,1.9,1,3.4,1.8,4.5
	c0.8,1.1,1.8,1.9,3.1,2.3c1.2,0.4,2.7,0.6,4.4,0.6c3.1,0,5.5-1.1,7.2-3.4c1.7-2.3,2.5-5.9,2.5-10.9v-18.2c-1.5,1.6-3.4,3-5.7,4.1
	c-2.3,1.1-5,1.7-8.2,1.7c-2.2,0-4.5-0.4-6.8-1.1c-2.3-0.7-4.4-2-6.3-3.8s-3.4-4.3-4.6-7.5c-1.2-3.2-1.8-7.2-1.8-12.1v-9.6
	c0-5.3,0.6-9.7,1.7-13.4c1.1-3.7,2.7-6.6,4.7-8.9c2-2.3,4.5-3.9,7.4-4.9c2.9-1,6.1-1.5,9.7-1.5c4.1,0,7.6,0.5,10.8,1.5
	c3.1,1,5.7,2.7,7.9,5c2.1,2.3,3.8,5.4,4.9,9.2c1.1,3.8,1.7,8.4,1.7,14V380.6z M285.3,332.7c0-2.2-0.2-4.1-0.6-5.7
	c-0.4-1.6-1-2.8-1.8-3.8c-0.8-0.9-1.8-1.6-3-2.1c-1.2-0.4-2.7-0.6-4.4-0.6c-3,0-5.2,1.1-6.6,3.2c-1.4,2.1-2.1,5.3-2.1,9.6v15.2
	c0,2.4,0.2,4.4,0.6,6c0.4,1.6,1,2.9,1.8,3.9c0.8,1,1.7,1.7,2.8,2.1c1.1,0.4,2.3,0.6,3.7,0.6c1,0,2-0.2,3-0.5
	c0.9-0.3,1.8-0.7,2.6-1.2c0.8-0.5,1.5-1.1,2.2-1.7c0.7-0.7,1.2-1.3,1.7-2V332.7z"/>
<path d="M313.2,338.8c0-4.3,0.4-8.1,1.2-11.2c0.8-3.2,1.8-5.8,3.1-7.9c1.3-2.1,2.8-3.9,4.5-5.2c1.7-1.3,3.4-2.3,5.2-3
	c1.8-0.7,3.6-1.2,5.4-1.4c1.8-0.2,3.4-0.3,5-0.3c1.4,0,3,0.1,4.8,0.3s3.5,0.7,5.3,1.3c1.8,0.7,3.5,1.7,5.2,3c1.7,1.3,3.2,3,4.5,5.2
	c1.3,2.2,2.3,4.8,3.1,8c0.8,3.2,1.2,7,1.2,11.4v41.9c0,4.3-0.4,8.1-1.2,11.2c-0.8,3.2-1.8,5.8-3.2,8c-1.3,2.2-2.8,4-4.5,5.4
	c-1.7,1.4-3.4,2.4-5.2,3.2c-1.8,0.8-3.5,1.3-5.3,1.5c-1.8,0.3-3.3,0.4-4.7,0.4c-1.5,0-3.2-0.1-5-0.4c-1.8-0.3-3.6-0.8-5.4-1.5
	c-1.8-0.8-3.6-1.8-5.2-3.2c-1.7-1.4-3.2-3.1-4.4-5.3c-1.3-2.2-2.3-4.9-3.1-8.1s-1.2-6.9-1.2-11.3V338.8z M328.6,387
	c0,4.1,0.7,7.1,2.2,8.9c1.5,1.9,3.8,2.8,6.8,2.8c3,0,5.2-0.9,6.7-2.8c1.5-1.9,2.2-4.8,2.2-8.9v-53.6c0-4.3-0.7-7.5-2.2-9.5
	c-1.5-2-3.7-3-6.7-3c-3.1,0-5.3,1-6.8,3c-1.5,2-2.2,5.1-2.2,9.5V387z"/>
<path d="M395.6,364c-2.2,0-4.4-0.3-6.6-0.9c-2.2-0.6-4.2-1.8-6-3.6c-1.8-1.8-3.3-4.3-4.4-7.7s-1.7-7.6-1.7-13v-6.2
	c0-3.5,0.3-6.6,0.8-9.1c0.5-2.6,1.3-4.8,2.2-6.6c0.9-1.8,2-3.3,3.3-4.4c1.2-1.1,2.6-2,3.9-2.6c1.4-0.6,2.8-1,4.3-1.3
	c1.4-0.2,2.9-0.3,4.3-0.3c1.3,0,2.7,0.1,4.1,0.3c1.4,0.2,2.8,0.6,4.2,1.2c1.4,0.6,2.7,1.5,3.9,2.6c1.2,1.1,2.3,2.6,3.2,4.4
	c0.9,1.8,1.7,4,2.2,6.6c0.5,2.6,0.8,5.7,0.8,9.2v6.2c0,5.3-0.6,9.6-1.8,12.9c-1.2,3.3-2.7,5.9-4.5,7.7c-1.8,1.8-3.8,3-6,3.7
	C399.6,363.7,397.5,364,395.6,364z M395.7,354.8c2.4,0,4.1-1.1,5.1-3.2s1.4-5.4,1.4-9.8v-11.2c0-4.5-0.5-7.8-1.4-9.9
	c-1-2.1-2.7-3.2-5.1-3.2c-2.6,0-4.3,1.1-5.4,3.2c-1,2.1-1.5,5.4-1.5,9.9v11.2c0,4.4,0.5,7.7,1.5,9.8
	C391.4,353.7,393.2,354.8,395.7,354.8z M430.7,309.4h10.5l-26.6,100.1h-10.6L430.7,309.4z M430.9,379c0-5.3,0.6-9.5,1.8-12.7
	c1.2-3.2,2.7-5.6,4.5-7.4c1.8-1.7,3.9-2.9,6.1-3.4c2.2-0.6,4.3-0.8,6.4-0.8c1.3,0,2.7,0.1,4.1,0.3c1.4,0.2,2.8,0.6,4.2,1.2
	c1.4,0.6,2.7,1.5,3.9,2.6c1.2,1.1,2.3,2.6,3.2,4.4c0.9,1.8,1.7,4,2.2,6.6c0.5,2.6,0.8,5.7,0.8,9.2v6.2c0,3.6-0.3,6.6-0.8,9.3
	c-0.6,2.6-1.3,4.9-2.3,6.7c-0.9,1.9-2,3.4-3.3,4.6c-1.2,1.2-2.5,2.1-3.9,2.8c-1.4,0.7-2.8,1.2-4.2,1.4c-1.4,0.3-2.8,0.4-4.1,0.4
	c-1.5,0-2.9-0.1-4.4-0.4c-1.5-0.2-2.9-0.7-4.3-1.4c-1.4-0.7-2.7-1.6-3.9-2.8c-1.2-1.2-2.3-2.7-3.2-4.6c-0.9-1.9-1.6-4.1-2.1-6.8
	c-0.5-2.6-0.8-5.8-0.8-9.4V379z M442.7,388.2c0,4.4,0.5,7.7,1.5,9.8c1,2.1,2.8,3.2,5.4,3.2c2.4,0,4.1-1.1,5.1-3.2
	c1-2.1,1.4-5.4,1.4-9.8V377c0-4.5-0.5-7.8-1.4-9.9c-1-2.1-2.7-3.2-5.1-3.2c-2.6,0-4.3,1.1-5.4,3.2c-1,2.1-1.5,5.4-1.5,9.9V388.2z"/>
</svg>
