<?xml version="1.0" encoding="utf-8"?>
<!-- Generator: Adobe Illustrator 28.0.0, SVG Export Plug-In . SVG Version: 6.00 Build 0)  -->
<svg version="1.1" id="Layer_1" xmlns:xodm="http://www.corel.com/coreldraw/odm/2003"
	 xmlns="http://www.w3.org/2000/svg" xmlns:xlink="http://www.w3.org/1999/xlink" x="0px" y="0px" viewBox="0 0 720 720"
	 style="enable-background:new 0 0 720 720;" xml:space="preserve">
<style type="text/css">
	.st0{fill:none;stroke:#000000;stroke-width:4.0571;stroke-miterlimit:10;}
	.st1{fill:none;stroke:#000000;stroke-width:3.375;stroke-miterlimit:10;}
</style>
<circle class="st0" cx="514.1" cy="248.4" r="10.9"/>
<circle class="st0" cx="555.8" cy="248.4" r="10.9"/>
<circle class="st0" cx="597.6" cy="248.4" r="10.9"/>
<circle class="st0" cx="639.4" cy="248.4" r="10.9"/>
<polyline class="st0" points="514.1,259.3 514.1,280.5 461.7,280.5 "/>
<polyline class="st0" points="555.8,258.1 555.8,303.2 461.7,303.2 "/>
<polyline class="st0" points="597.3,260 597.3,325.8 461.7,325.8 "/>
<polyline class="st0" points="639.4,259.3 639.4,348.7 461.7,348.7 "/>
<circle class="st0" cx="514.1" cy="638" r="10.9"/>
<circle class="st0" cx="555.8" cy="638" r="10.9"/>
<circle class="st0" cx="597.6" cy="638" r="10.9"/>
<circle class="st0" cx="639.4" cy="638" r="10.9"/>
<polyline class="st0" points="514.1,627.1 514.1,439.5 461.7,439.5 "/>
<polyline class="st0" points="555.8,628.3 555.8,416.8 461.7,416.8 "/>
<polyline class="st0" points="597.3,626.4 597.3,394.2 461.7,394.2 "/>
<polyline class="st0" points="639.4,627.1 639.4,371.3 461.7,371.3 "/>
<circle class="st0" cx="209.4" cy="82" r="10.9"/>
<circle class="st0" cx="167.6" cy="82" r="10.9"/>
<circle class="st0" cx="125.8" cy="82" r="10.9"/>
<circle class="st0" cx="84.1" cy="82" r="10.9"/>
<polyline class="st0" points="209.4,92.9 209.4,280.5 261.7,280.5 "/>
<polyline class="st0" points="167.6,91.7 167.6,303.2 261.7,303.2 "/>
<polyline class="st0" points="126.2,93.6 126.2,325.8 261.7,325.8 "/>
<polyline class="st0" points="84.1,92.9 84.1,348.7 261.7,348.7 "/>
<circle class="st0" cx="209.4" cy="471.6" r="10.9"/>
<circle class="st0" cx="167.6" cy="471.6" r="10.9"/>
<circle class="st0" cx="125.8" cy="471.6" r="10.9"/>
<circle class="st0" cx="84.1" cy="471.6" r="10.9"/>
<polyline class="st0" points="209.4,460.7 209.4,439.5 261.7,439.5 "/>
<polyline class="st0" points="167.6,461.9 167.6,416.8 261.7,416.8 "/>
<polyline class="st0" points="126.2,460 126.2,394.2 261.7,394.2 "/>
<polyline class="st0" points="84.1,460.7 84.1,371.3 261.7,371.3 "/>
<path class="st0" d="M250.1,196.8c-6,0-10.9,4.9-10.9,10.9c0,6,4.9,10.9,10.9,10.9c6,0,10.9-4.9,10.9-10.9
	C261,201.7,256.1,196.8,250.1,196.8z"/>
<path class="st0" d="M250.1,155c-6,0-10.9,4.9-10.9,10.9s4.9,10.9,10.9,10.9c6,0,10.9-4.9,10.9-10.9S256.1,155,250.1,155z"/>
<path class="st0" d="M250.1,113.2c-6,0-10.9,4.9-10.9,10.9c0,6,4.9,10.9,10.9,10.9c6,0,10.9-4.9,10.9-10.9
	C261,118.1,256.1,113.2,250.1,113.2z"/>
<path class="st0" d="M250.1,71.4c-6,0-10.9,4.9-10.9,10.9c0,6,4.9,10.9,10.9,10.9c6,0,10.9-4.9,10.9-10.9
	C261,76.3,256.1,71.4,250.1,71.4z"/>
<polyline class="st0" points="261,207.7 282.2,207.7 282.2,260 "/>
<polyline class="st0" points="259.8,165.9 304.9,165.9 304.9,260 "/>
<polyline class="st0" points="261.7,124.5 327.5,124.5 327.5,260 "/>
<polyline class="st0" points="261,82.3 350.4,82.3 350.4,260 "/>
<path class="st0" d="M639.4,196.8c6,0,10.9,4.9,10.9,10.9c0,6-4.9,10.9-10.9,10.9s-10.9-4.9-10.9-10.9
	C628.5,201.7,633.4,196.8,639.4,196.8z"/>
<path class="st0" d="M639.4,155c6,0,10.9,4.9,10.9,10.9s-4.9,10.9-10.9,10.9s-10.9-4.9-10.9-10.9S633.4,155,639.4,155z"/>
<path class="st0" d="M639.4,113.2c6,0,10.9,4.9,10.9,10.9c0,6-4.9,10.9-10.9,10.9s-10.9-4.9-10.9-10.9
	C628.5,118.1,633.4,113.2,639.4,113.2z"/>
<path class="st0" d="M639.4,71.4c6,0,10.9,4.9,10.9,10.9c0,6-4.9,10.9-10.9,10.9s-10.9-4.9-10.9-10.9
	C628.5,76.3,633.4,71.4,639.4,71.4z"/>
<polyline class="st0" points="628.5,207.7 441.3,207.7 441.3,260 "/>
<polyline class="st0" points="629.7,165.9 418.6,165.9 418.6,260 "/>
<polyline class="st0" points="627.8,124.5 395.9,124.5 395.9,260 "/>
<polyline class="st0" points="628.5,82.3 373.1,82.3 373.1,260 "/>
<path class="st0" d="M83.7,523.2c-6,0-10.9-4.9-10.9-10.9c0-6,4.9-10.9,10.9-10.9c6,0,10.9,4.9,10.9,10.9
	C94.6,518.3,89.7,523.2,83.7,523.2z"/>
<circle class="st0" cx="83.7" cy="554.1" r="10.9"/>
<path class="st0" d="M83.7,606.8c-6,0-10.9-4.9-10.9-10.9S77.7,585,83.7,585c6,0,10.9,4.9,10.9,10.9S89.7,606.8,83.7,606.8z"/>
<path class="st0" d="M83.7,648.6c-6,0-10.9-4.9-10.9-10.9s4.9-10.9,10.9-10.9c6,0,10.9,4.9,10.9,10.9S89.7,648.6,83.7,648.6z"/>
<polyline class="st0" points="94.6,512.3 282.2,512.3 282.2,460 "/>
<polyline class="st0" points="93.4,554.1 304.9,554.1 304.9,460 "/>
<polyline class="st0" points="95.3,595.5 327.5,595.5 327.5,460 "/>
<polyline class="st0" points="94.6,637.7 350.4,637.7 350.4,460 "/>
<path class="st0" d="M473.4,523.2c6,0,10.9-4.9,10.9-10.9c0-6-4.9-10.9-10.9-10.9c-6,0-10.9,4.9-10.9,10.9
	C462.5,518.3,467.4,523.2,473.4,523.2z"/>
<path class="st0" d="M473.4,565c6,0,10.9-4.9,10.9-10.9s-4.9-10.9-10.9-10.9c-6,0-10.9,4.9-10.9,10.9S467.4,565,473.4,565z"/>
<path class="st0" d="M473.4,606.8c6,0,10.9-4.9,10.9-10.9s-4.9-10.9-10.9-10.9c-6,0-10.9,4.9-10.9,10.9S467.4,606.8,473.4,606.8z"/>
<path class="st0" d="M473.4,648.6c6,0,10.9-4.9,10.9-10.9s-4.9-10.9-10.9-10.9c-6,0-10.9,4.9-10.9,10.9S467.4,648.6,473.4,648.6z"/>
<polyline class="st0" points="462.5,512.3 441.3,512.3 441.3,460 "/>
<polyline class="st0" points="463.7,554.1 418.6,554.1 418.6,460 "/>
<polyline class="st0" points="461.7,595.5 395.9,595.5 395.9,460 "/>
<polyline class="st0" points="462.5,637.7 373.1,637.7 373.1,460 "/>
<rect x="261.7" y="260" class="st0" width="200" height="200"/>
<rect x="278.5" y="276.8" class="st1" width="166.4" height="166.4"/>
<rect x="334.4" y="332.7" width="54.7" height="54.7"/>
</svg>
