<?xml version="1.0" encoding="utf-8"?>
<!-- Generator: Adobe Illustrator 28.0.0, SVG Export Plug-In . SVG Version: 6.00 Build 0)  -->
<svg version="1.1" id="Layer_1" xmlns:xodm="http://www.corel.com/coreldraw/odm/2003"
	 xmlns="http://www.w3.org/2000/svg" xmlns:xlink="http://www.w3.org/1999/xlink" x="0px" y="0px" viewBox="0 0 720 720"
	 style="enable-background:new 0 0 720 720;" xml:space="preserve">
<style type="text/css">
	.st0{fill:#FFD93E;}
	.st1{fill:#FFFFFF;stroke:#000000;stroke-width:3.3784;stroke-miterlimit:10;}
	.st2{fill:none;stroke:#000000;stroke-width:3.3784;stroke-miterlimit:10;}
	.st3{fill-rule:evenodd;clip-rule:evenodd;fill:#FFD93E;}
	.st4{fill-rule:evenodd;clip-rule:evenodd;fill:#F9F9F9;}
	.st5{fill-rule:evenodd;clip-rule:evenodd;}
</style>
<path class="st0" d="M642.2,457.1H69.4c-7.9,0-14.4-6.4-14.4-14.4V241.4c0-7.9,6.4-14.4,14.4-14.4h572.8c7.9,0,14.4,6.4,14.4,14.4
	v201.3C656.6,450.6,650.1,457.1,642.2,457.1z"/>
<rect x="84" y="255.9" class="st1" width="543.6" height="172.2"/>
<line class="st2" x1="254.3" y1="255.9" x2="254.3" y2="428.1"/>
<path class="st3" d="M162.2,283.6c2.3-4,8.1-4,10.3,0l31.5,54.6l31.9,55.3c2.1,3.7-0.5,8.3-4.8,8.3h-63.8h-63.9
	c-4.3,0-6.9-4.6-4.8-8.3l31.9-55.3L162.2,283.6z"/>
<path class="st4" d="M232,394.8l-31.5-54.5L169,285.7c-0.7-1.2-2.5-1.2-3.2,0l-31.5,54.5l-31.5,54.5c-0.7,1.2,0.2,2.8,1.6,2.8h63h63
	C231.8,397.6,232.7,396,232,394.8z M229.8,396.3h-62.4H105c-0.6,0-1-0.7-0.7-1.2l31.2-54.1l31.2-54.1c0.3-0.6,1.1-0.6,1.4,0
	l31.2,54.1l31.2,54.1C230.9,395.6,230.5,396.3,229.8,396.3z"/>
<path class="st5" d="M232,394.8l-31.5-54.5L169,285.7c-0.7-1.2-2.5-1.2-3.2,0l-31.5,54.6l-31.5,54.5c-0.7,1.2,0.2,2.8,1.6,2.8l63,0
	l63,0C231.8,397.5,232.7,396,232,394.8z M228.4,395.1h-61h-61c-0.6,0-1-0.7-0.7-1.2l30.5-52.8l30.5-52.8c0.3-0.6,1.1-0.6,1.4,0
	l30.5,52.8l30.5,52.8C229.4,394.4,229,395.1,228.4,395.1z"/>
<path class="st5" d="M182.3,363.6c1.3-0.4,6.7-2.6,6.7-11.2c1.8,1.2,8.3,19.5-5.4,28.6c-8,5.3-14.8-1.1-13.2-9.2
	c1.3-6.5,9.4-8.3,3.7-17.8c-0.7,5.5-3.5,8-7.3,10.9c-4.4,3.3-9.1,9.8-0.9,18.1c-4.5,2-24.3,1-23.3-18.4c1.8,3.5,4.8,5.2,6.2,5.9
	c-5.1-11.1,14.5-17.8-0.1-27.9c1.7-1.8,15.6,0.3,9.5,16.4c20.3-9.6-8.2-27.8,11-37.8C162,334.7,190.2,339.1,182.3,363.6L182.3,363.6
	z"/>
<path d="M286.5,369.1v-56.5h38.9l7.1,7.1V362l-7.1,7.1H286.5z M300.7,326.7v28.2h17.7v-28.2H300.7z"/>
<path d="M359.6,332.1l-11.6,37h-13.7l17.7-56.4h15.2l17.7,56.4h-13.7L359.6,332.1z"/>
<path d="M388.2,312.7h13l22.3,38.3v-38.3h14.2v56.5h-16.5l-18.8-32.3v32.3h-14.2V312.7z"/>
<path d="M450.8,369.2l-7.1-7.1v-42.4l7.1-7.1h31.8l7.1,7.1v7.1h-31.8V355h17.6v-7.1H465v-14.2h17.6l7.1,7.1v21.2l-7.1,7.1H450.8z"/>
<path d="M496.5,369.2v-56.5h45.9v14.2h-31.8v7.1h31.8V348h-31.8v7h31.8v14.2H496.5z"/>
<path d="M563.3,347.9v21.2h-14.2v-56.5H588l7.1,7.1v21.1l-7.1,7.1h-5.3l12.3,21.2h-14.2l-12.3-21.2H563.3z M563.3,326.8v7h17.6v-7
	H563.3z"/>
</svg>
