<?xml version="1.0" encoding="UTF-8"?>
<svg id="Layer_1" data-name="Layer 1" xmlns="http://www.w3.org/2000/svg" version="1.1" xmlns:xodm="http://www.corel.com/coreldraw/odm/2003" viewBox="0 0 720 720">
  <defs>
    <style>
      .cls-1 {
        opacity: .5;
      }

      .cls-2 {
        fill: #f6b24a;
        stroke-width: 0px;
      }
    </style>
  </defs>
  <path class="cls-2" d="M671.2,372.5H48.7c-5.9,0-10.7-4.8-10.7-10.7v-43c0-5.9,4.8-10.7,10.7-10.7h622.4c5.9,0,10.7,4.8,10.7,10.7v43c0,5.9-4.7,10.7-10.6,10.7ZM48.7,313.3c-3,0-5.5,2.5-5.5,5.5v43c0,3,2.5,5.5,5.5,5.5h622.4c3,0,5.5-2.5,5.5-5.5v-43c0-3-2.5-5.5-5.5-5.5H48.7Z"/>
  <rect class="cls-2" x="46.1" y="314.7" width="8.6" height="51.2"/>
  <rect class="cls-2" x="56.5" y="314.7" width="8.6" height="51.2"/>
  <rect class="cls-2" x="67" y="314.7" width="8.6" height="51.2"/>
  <rect class="cls-2" x="77.5" y="314.7" width="8.6" height="51.2"/>
  <rect class="cls-2" x="88" y="314.7" width="8.6" height="51.2"/>
  <rect class="cls-2" x="98.5" y="314.7" width="8.6" height="51.2"/>
  <rect class="cls-2" x="109" y="314.7" width="8.6" height="51.2"/>
  <rect class="cls-2" x="119.5" y="314.7" width="8.6" height="51.2"/>
  <rect class="cls-2" x="130" y="314.7" width="8.6" height="51.2"/>
  <rect class="cls-2" x="140.5" y="314.7" width="8.6" height="51.2"/>
  <rect class="cls-2" x="151" y="314.7" width="8.6" height="51.2"/>
  <rect class="cls-2" x="161.5" y="314.7" width="8.6" height="51.2"/>
  <rect class="cls-2" x="171.9" y="314.7" width="8.6" height="51.2"/>
  <rect class="cls-2" x="182.4" y="314.7" width="8.6" height="51.2"/>
  <rect class="cls-2" x="192.9" y="314.7" width="8.6" height="51.2"/>
  <rect class="cls-2" x="203.4" y="314.7" width="8.6" height="51.2"/>
  <rect class="cls-2" x="213.9" y="314.7" width="8.6" height="51.2"/>
  <rect class="cls-2" x="224.4" y="314.7" width="8.6" height="51.2"/>
  <rect class="cls-2" x="234.9" y="314.7" width="8.6" height="51.2"/>
  <rect class="cls-2" x="245.4" y="314.7" width="8.6" height="51.2"/>
  <rect class="cls-2" x="255.9" y="314.7" width="8.6" height="51.2"/>
  <rect class="cls-2" x="266.4" y="314.7" width="8.6" height="51.2"/>
  <rect class="cls-2" x="276.9" y="314.7" width="8.6" height="51.2"/>
  <rect class="cls-2" x="287.4" y="314.7" width="8.6" height="51.2"/>
  <rect class="cls-2" x="297.8" y="314.7" width="8.6" height="51.2"/>
  <rect class="cls-2" x="308.3" y="314.7" width="8.6" height="51.2"/>
  <rect class="cls-2" x="318.8" y="314.7" width="8.6" height="51.2"/>
  <rect class="cls-2" x="329.3" y="314.7" width="8.6" height="51.2"/>
  <rect class="cls-2" x="339.8" y="314.7" width="8.6" height="51.2"/>
  <rect class="cls-2" x="350.3" y="314.7" width="8.6" height="51.2"/>
  <g class="cls-1">
    <rect class="cls-2" x="360.8" y="314.7" width="8.6" height="51.2"/>
  </g>
  <g class="cls-1">
    <rect class="cls-2" x="371.3" y="314.7" width="8.6" height="51.2"/>
  </g>
  <g class="cls-1">
    <rect class="cls-2" x="381.8" y="314.7" width="8.6" height="51.2"/>
  </g>
  <g class="cls-1">
    <rect class="cls-2" x="392.3" y="314.7" width="8.6" height="51.2"/>
  </g>
  <g class="cls-1">
    <rect class="cls-2" x="402.8" y="314.7" width="8.6" height="51.2"/>
  </g>
  <g class="cls-1">
    <rect class="cls-2" x="413.2" y="314.7" width="8.6" height="51.2"/>
  </g>
  <g class="cls-1">
    <rect class="cls-2" x="423.7" y="314.7" width="8.6" height="51.2"/>
  </g>
  <g class="cls-1">
    <rect class="cls-2" x="434.2" y="314.7" width="8.6" height="51.2"/>
  </g>
  <g class="cls-1">
    <rect class="cls-2" x="444.7" y="314.7" width="8.6" height="51.2"/>
  </g>
  <g class="cls-1">
    <rect class="cls-2" x="455.2" y="314.7" width="8.6" height="51.2"/>
  </g>
  <g class="cls-1">
    <rect class="cls-2" x="465.7" y="314.7" width="8.6" height="51.2"/>
  </g>
  <g class="cls-1">
    <rect class="cls-2" x="476.2" y="314.7" width="8.6" height="51.2"/>
  </g>
  <g class="cls-1">
    <rect class="cls-2" x="486.7" y="314.7" width="8.6" height="51.2"/>
  </g>
  <g class="cls-1">
    <rect class="cls-2" x="497.2" y="314.7" width="8.6" height="51.2"/>
  </g>
  <g class="cls-1">
    <rect class="cls-2" x="507.7" y="314.7" width="8.6" height="51.2"/>
  </g>
  <g class="cls-1">
    <rect class="cls-2" x="518.2" y="314.7" width="8.6" height="51.2"/>
  </g>
  <g class="cls-1">
    <rect class="cls-2" x="528.6" y="314.7" width="8.6" height="51.2"/>
  </g>
  <g class="cls-1">
    <rect class="cls-2" x="539.1" y="314.7" width="8.6" height="51.2"/>
  </g>
  <g class="cls-1">
    <rect class="cls-2" x="549.6" y="314.7" width="8.6" height="51.2"/>
  </g>
  <g class="cls-1">
    <rect class="cls-2" x="560.1" y="314.7" width="8.6" height="51.2"/>
  </g>
  <g class="cls-1">
    <rect class="cls-2" x="570.6" y="314.7" width="8.6" height="51.2"/>
  </g>
  <g class="cls-1">
    <rect class="cls-2" x="581.1" y="314.7" width="8.6" height="51.2"/>
  </g>
  <g class="cls-1">
    <rect class="cls-2" x="591.6" y="314.7" width="8.6" height="51.2"/>
  </g>
  <g class="cls-1">
    <rect class="cls-2" x="602.1" y="314.7" width="8.6" height="51.2"/>
  </g>
  <g class="cls-1">
    <rect class="cls-2" x="612.6" y="314.7" width="8.6" height="51.2"/>
  </g>
  <g class="cls-1">
    <rect class="cls-2" x="623.1" y="314.7" width="8.6" height="51.2"/>
  </g>
  <g class="cls-1">
    <rect class="cls-2" x="633.6" y="314.7" width="8.6" height="51.2"/>
  </g>
  <g class="cls-1">
    <rect class="cls-2" x="644.1" y="314.7" width="8.6" height="51.2"/>
  </g>
  <g class="cls-1">
    <rect class="cls-2" x="654.6" y="314.7" width="8.6" height="51.2"/>
  </g>
  <g class="cls-1">
    <rect class="cls-2" x="665.2" y="314.7" width="8.6" height="51.2"/>
  </g>
  <path class="cls-2" d="M344.4,299.1c0-.8.1-1.6.3-2.5h2.6v1.8c0,1,.2,1.8.5,2.2.3.5.8.7,1.5.7s1.2-.3,1.5-.8.4-1.2.4-2.2v-4.2c0-.5,0-1-.1-1.3s-.2-.6-.4-.8-.4-.3-.6-.4-.5-.1-.7-.1c-.5,0-.9.1-1.2.4-.3.3-.6.6-.8,1h-2.4v-11.1h9.4v2.9h-6.6v5.4c.4-.4.8-.7,1.3-1s1.1-.3,1.7-.3c1.4,0,2.3.5,3,1.4.6.9.9,2.3.9,4v3.7c0,1.1-.1,2.1-.4,2.8-.3.8-.7,1.4-1.2,1.8-.5.5-1,.8-1.7,1-.6.2-1.3.3-1.9.3s-1.5-.1-2.1-.3c-.6-.2-1.1-.5-1.6-.9-.4-.4-.7-.9-1-1.5-.3-.6-.4-1.3-.4-2Z"/>
  <path class="cls-2" d="M357.3,288c0-1,.1-1.8.3-2.5.2-.7.4-1.3.7-1.8.3-.5.6-.9,1-1.1.4-.3.8-.5,1.2-.7.4-.2.8-.3,1.2-.3.4-.1.8-.1,1.1-.1s.7,0,1.1.1.8.1,1.2.3c.4.1.8.4,1.2.7.4.3.7.7,1,1.1.3.5.5,1.1.7,1.8.2.7.3,1.5.3,2.5v9.2c0,1-.1,1.8-.3,2.5-.2.7-.4,1.3-.7,1.8-.3.5-.6.9-1,1.2-.4.3-.8.5-1.1.7-.4.2-.8.3-1.2.3-.4.1-.7.1-1,.1s-.7,0-1.1-.1-.8-.2-1.2-.3c-.4-.2-.8-.4-1.2-.7-.4-.3-.7-.7-1-1.2s-.5-1.1-.7-1.8c-.2-.7-.3-1.5-.3-2.5v-9.2h-.2ZM360.7,298.6c0,.9.2,1.6.5,2s.8.6,1.5.6,1.1-.2,1.5-.6c.3-.4.5-1.1.5-2v-11.8c0-1-.2-1.6-.5-2.1-.3-.4-.8-.7-1.5-.7s-1.2.2-1.5.7c-.3.4-.5,1.1-.5,2.1v11.8Z"/>
  <path class="cls-2" d="M375.4,293.5c-.5,0-1-.1-1.5-.2s-.9-.4-1.3-.8-.7-1-1-1.7c-.2-.7-.4-1.7-.4-2.9v-1.4c0-.8.1-1.4.2-2s.3-1.1.5-1.5.4-.7.7-1c.3-.2.6-.4.9-.6.3-.1.6-.2.9-.3.3-.1.6-.1.9-.1s.6,0,.9.1c.3,0,.6.1.9.3.3.1.6.3.9.6.3.2.5.6.7,1s.4.9.5,1.5.2,1.2.2,2v1.4c0,1.2-.1,2.1-.4,2.8-.3.7-.6,1.3-1,1.7-.4.4-.8.7-1.3.8-.4.3-.8.3-1.3.3ZM375.5,291.5c.5,0,.9-.2,1.1-.7s.3-1.2.3-2.2v-2.5c0-1-.1-1.7-.3-2.2-.2-.5-.6-.7-1.1-.7s-1,.2-1.2.7-.3,1.2-.3,2.2v2.5c0,1,.1,1.7.3,2.2s.6.7,1.2.7ZM383.2,281.5h2.3l-5.9,22.1h-2.3l5.9-22.1ZM383.2,296.8c0-1.2.1-2.1.4-2.8.3-.7.6-1.2,1-1.6s.8-.6,1.3-.8c.5-.1,1-.2,1.4-.2s.6,0,.9.1c.3,0,.6.1.9.3.3.1.6.3.9.6.3.2.5.6.7,1s.4.9.5,1.5.2,1.2.2,2v1.4c0,.8-.1,1.5-.2,2-.1.6-.3,1.1-.5,1.5s-.5.7-.7,1-.6.5-.9.6c-.3.2-.6.3-.9.3-.3.1-.6.1-.9.1s-.7,0-1-.1-.6-.2-.9-.3c-.3-.1-.6-.3-.9-.6-.3-.3-.5-.6-.7-1s-.4-.9-.5-1.5-.2-1.3-.2-2.1v-1.4h.1ZM385.8,298.9c0,1,.1,1.7.3,2.2.2.5.6.7,1.2.7s.9-.2,1.1-.7.3-1.2.3-2.2v-2.5c0-1-.1-1.7-.3-2.2-.2-.5-.6-.7-1.1-.7s-1,.2-1.2.7-.3,1.2-.3,2.2v2.5Z"/>
</svg>