<?xml version="1.0" encoding="UTF-8"?>
<svg id="Layer_1" data-name="Layer 1" xmlns="http://www.w3.org/2000/svg" version="1.1" xmlns:xodm="http://www.corel.com/coreldraw/odm/2003" viewBox="0 0 720 720">
  <defs>
    <style>
      .cls-1, .cls-2 {
        fill: #000;
        stroke-width: 0px;
      }

      .cls-2 {
        isolation: isolate;
        opacity: .5;
      }
    </style>
  </defs>
  <ellipse class="cls-2" cx="600.9" cy="361.3" rx="81" ry="37.5"/>
  <ellipse class="cls-2" cx="554.9" cy="219.7" rx="81" ry="37.5" transform="translate(-23.2 368.1) rotate(-36)"/>
  <ellipse class="cls-2" cx="434.4" cy="132.2" rx="81" ry="37.5" transform="translate(174.5 504.5) rotate(-72)"/>
  <ellipse class="cls-2" cx="285.5" cy="132.2" rx="37.5" ry="81" transform="translate(-26.9 94.7) rotate(-18)"/>
  <ellipse class="cls-2" cx="165" cy="219.7" rx="37.5" ry="81" transform="translate(-109.7 224) rotate(-54)"/>
  <ellipse class="cls-2" cx="119" cy="361.3" rx="81" ry="37.5"/>
  <ellipse class="cls-2" cx="165" cy="503" rx="81" ry="37.5" transform="translate(-264.1 193.1) rotate(-36)"/>
  <ellipse class="cls-2" cx="285.5" cy="590.5" rx="81" ry="37.5" transform="translate(-364.3 679.5) rotate(-72)"/>
  <ellipse class="cls-2" cx="434.4" cy="590.5" rx="37.5" ry="81" transform="translate(-161.2 163.1) rotate(-18)"/>
  <ellipse class="cls-2" cx="554.9" cy="503" rx="37.5" ry="81" transform="translate(-178.2 656.3) rotate(-54)"/>
  <path class="cls-1" d="M282.5,340.9c0-4.3.4-8.1,1.2-11.2.8-3.2,1.8-5.8,3.1-7.9,1.3-2.1,2.8-3.9,4.5-5.2,1.7-1.3,3.5-2.3,5.2-3,1.8-.7,3.6-1.2,5.4-1.4,1.8-.2,3.4-.3,5-.3s3,.1,4.8.3c1.8.2,3.5.7,5.3,1.3,1.8.7,3.5,1.7,5.2,3s3.2,3,4.5,5.2,2.3,4.8,3.1,8c.8,3.2,1.2,7,1.2,11.4v41.9c0,4.3-.4,8.1-1.2,11.2-.8,3.2-1.8,5.8-3.2,8-1.3,2.2-2.8,4-4.5,5.4s-3.4,2.4-5.2,3.2c-1.8.8-3.5,1.3-5.3,1.5-1.8.3-3.3.4-4.7.4s-3.2-.1-5-.4-3.6-.8-5.4-1.5c-1.8-.8-3.6-1.8-5.2-3.2-1.7-1.4-3.2-3.1-4.4-5.3-1.3-2.2-2.3-4.9-3.1-8.1-.8-3.2-1.2-6.9-1.2-11.3v-42h0ZM297.9,389c0,4.1.7,7.1,2.2,8.9,1.5,1.9,3.8,2.8,6.8,2.8s5.2-.9,6.7-2.8,2.2-4.8,2.2-8.9v-53.6c0-4.3-.7-7.5-2.2-9.5s-3.7-3-6.7-3-5.3,1-6.8,3-2.2,5.1-2.2,9.5v53.6Z"/>
  <path class="cls-1" d="M364.9,366c-2.2,0-4.4-.3-6.6-.9s-4.2-1.8-6-3.6c-1.8-1.8-3.3-4.3-4.4-7.7-1.1-3.3-1.7-7.6-1.7-13v-6.2c0-3.5.3-6.6.8-9.1.5-2.6,1.3-4.8,2.2-6.6.9-1.8,2-3.3,3.3-4.4,1.2-1.1,2.5-2,3.9-2.6s2.8-1,4.3-1.3c1.4-.2,2.9-.3,4.3-.3s2.7.1,4.1.3c1.4.2,2.8.6,4.2,1.2,1.4.6,2.7,1.5,3.9,2.6,1.2,1.1,2.3,2.6,3.2,4.4.9,1.8,1.7,4,2.2,6.6s.8,5.7.8,9.2v6.2c0,5.3-.6,9.6-1.8,12.9s-2.7,5.9-4.6,7.7c-1.8,1.8-3.8,3-6,3.7-2.1.6-4.2.9-6.1.9ZM365,356.8c2.4,0,4.1-1.1,5.1-3.2s1.5-5.4,1.5-9.8v-11.2c0-4.5-.5-7.8-1.5-9.9s-2.7-3.2-5.1-3.2-4.3,1.1-5.4,3.2c-1,2.1-1.5,5.4-1.5,9.9v11.2c0,4.4.5,7.7,1.5,9.8,1.1,2.1,2.9,3.2,5.4,3.2ZM400,311.5h10.5l-26.6,100.1h-10.6l26.7-100.1ZM400.2,381c0-5.3.6-9.5,1.8-12.7,1.2-3.2,2.7-5.6,4.5-7.4,1.8-1.7,3.9-2.9,6.1-3.4,2.2-.6,4.3-.8,6.4-.8s2.7.1,4.1.3c1.4.2,2.8.6,4.2,1.2,1.4.6,2.7,1.5,3.9,2.6,1.2,1.1,2.3,2.6,3.2,4.4.9,1.8,1.7,4,2.2,6.6s.8,5.7.8,9.2v6.2c0,3.6-.3,6.7-.8,9.3-.6,2.6-1.3,4.9-2.3,6.7-.9,1.9-2,3.4-3.3,4.6-1.2,1.2-2.5,2.1-3.9,2.8-1.4.7-2.8,1.2-4.2,1.4-1.4.3-2.8.4-4.1.4s-2.9-.1-4.4-.4-2.9-.7-4.3-1.4c-1.4-.7-2.7-1.6-3.9-2.8s-2.3-2.7-3.2-4.6c-.9-1.9-1.6-4.1-2.1-6.8-.5-2.6-.8-5.8-.8-9.4v-6h0ZM412,390.3c0,4.4.5,7.7,1.5,9.8,1,2.1,2.8,3.2,5.4,3.2s4.1-1.1,5.1-3.2,1.5-5.4,1.5-9.8v-11.3c0-4.5-.5-7.8-1.5-9.9s-2.7-3.2-5.1-3.2-4.3,1.1-5.4,3.2c-1,2.1-1.5,5.4-1.5,9.9v11.3Z"/>
</svg>