<?xml version="1.0" encoding="utf-8"?>
<!-- Generator: Adobe Illustrator 28.0.0, SVG Export Plug-In . SVG Version: 6.00 Build 0)  -->
<svg version="1.1" id="Layer_1" xmlns:xodm="http://www.corel.com/coreldraw/odm/2003"
	 xmlns="http://www.w3.org/2000/svg" xmlns:xlink="http://www.w3.org/1999/xlink" x="0px" y="0px" viewBox="0 0 720 720"
	 style="enable-background:new 0 0 720 720;" xml:space="preserve">
<style type="text/css">
	.st0{fill:none;stroke:#FFFFFF;stroke-width:5.3889;stroke-miterlimit:10;}
	.st1{fill:#FFFFFF;}
</style>
<g>
	<path d="M273.6,277.1L250,239.5H115.6L45,359l74.3,119.5h133.3l38.5-62.8h320.1L673,302.3v-27.2L273.6,277.1z M656.8,298.1
		l-55.2,101.5H282.4l-39.2,62.8H128.3l-63.8-102L125,255.6h116.1l22.3,35.7h393.4V298.1z"/>
</g>
<polygon class="st0" points="656.8,298.1 601.6,399.6 282.4,399.6 243.2,462.3 128.3,462.3 64.5,360.4 125,255.6 241.1,255.6 
	261,287.5 263.4,291.3 656.8,291.3 "/>
<polygon points="656.8,298.1 601.6,399.6 282.4,399.6 243.2,462.3 128.3,462.3 64.5,360.4 125,255.6 241.1,255.6 263.4,291.3 
	656.8,291.3 "/>
<polygon class="st1" points="594.3,389.7 328.6,389.7 267.8,300.3 641.2,300.3 "/>
<path class="st1" d="M126.7,377.8v-92.5h120.4v37h-83.3v18.5h64.8l18.6,18.5v55.3l-18.6,18.5H126.7v-37H210v-18.3H126.7z"/>
</svg>
