<?xml version="1.0" encoding="utf-8"?>
<!-- Generator: Adobe Illustrator 28.0.0, SVG Export Plug-In . SVG Version: 6.00 Build 0)  -->
<svg version="1.1" id="Layer_1" xmlns:xodm="http://www.corel.com/coreldraw/odm/2003"
	 xmlns="http://www.w3.org/2000/svg" xmlns:xlink="http://www.w3.org/1999/xlink" x="0px" y="0px" viewBox="0 0 720 720"
	 style="enable-background:new 0 0 720 720;" xml:space="preserve">
<style type="text/css">
	.st0{fill:#F6B24A;}
</style>
<path class="st0" d="M187,406h16.6v-97.5l-17.7,15.7l-9.4-11l32.5-33.8h16.2l-0.1,0.2l0.1-0.1V406h16.5v16.3H187V406z"/>
<path class="st0" d="M252.6,320.2c0-6.3,0.6-11.7,1.7-16.2c1.1-4.5,2.7-8.4,4.5-11.5c1.9-3.1,4-5.6,6.5-7.5c2.5-1.9,5-3.4,7.6-4.4
	c2.6-1,5.2-1.7,7.8-2.1c2.6-0.3,5-0.5,7.2-0.5c2.1,0,4.4,0.2,6.9,0.5c2.5,0.3,5.1,1,7.7,1.9c2.6,1,5.1,2.4,7.5,4.3
	c2.4,1.9,4.6,4.4,6.5,7.5c1.9,3.1,3.4,7,4.5,11.6c1.1,4.6,1.7,10,1.7,16.4v60.5c0,6.3-0.6,11.7-1.7,16.2c-1.1,4.5-2.7,8.4-4.6,11.6
	c-1.9,3.2-4.1,5.8-6.5,7.7c-2.5,2-5,3.5-7.5,4.6c-2.6,1.1-5.1,1.8-7.7,2.2s-4.8,0.6-6.8,0.6c-2.2,0-4.7-0.2-7.3-0.6
	s-5.2-1.1-7.9-2.2s-5.2-2.6-7.6-4.6c-2.4-2-4.6-4.5-6.4-7.7c-1.8-3.2-3.3-7.1-4.4-11.6c-1.1-4.6-1.7-10-1.7-16.2V320.2z
	 M274.8,389.8c0,5.9,1.1,10.2,3.2,12.9c2.2,2.7,5.4,4,9.8,4c4.3,0,7.5-1.3,9.6-4c2.1-2.7,3.2-7,3.2-12.9v-77.5
	c0-6.3-1.1-10.8-3.2-13.7c-2.1-2.8-5.3-4.3-9.6-4.3c-4.4,0-7.7,1.4-9.8,4.3c-2.2,2.8-3.2,7.4-3.2,13.7V389.8z"/>
<path class="st0" d="M340.3,320.2c0-6.3,0.6-11.7,1.7-16.2c1.1-4.5,2.7-8.4,4.5-11.5c1.9-3.1,4-5.6,6.5-7.5c2.5-1.9,5-3.4,7.6-4.4
	c2.6-1,5.2-1.7,7.8-2.1c2.6-0.3,5-0.5,7.2-0.5c2.1,0,4.4,0.2,6.9,0.5c2.5,0.3,5.1,1,7.7,1.9c2.6,1,5.1,2.4,7.5,4.3
	c2.4,1.9,4.6,4.4,6.4,7.5c1.9,3.1,3.4,7,4.5,11.6c1.1,4.6,1.7,10,1.7,16.4v60.5c0,6.3-0.6,11.7-1.7,16.2c-1.1,4.5-2.7,8.4-4.6,11.6
	c-1.9,3.2-4.1,5.8-6.5,7.7c-2.5,2-5,3.5-7.5,4.6c-2.6,1.1-5.1,1.8-7.7,2.2c-2.5,0.4-4.8,0.6-6.8,0.6c-2.2,0-4.7-0.2-7.3-0.6
	s-5.2-1.1-7.9-2.2c-2.6-1.1-5.2-2.6-7.6-4.6c-2.4-2-4.6-4.5-6.4-7.7c-1.8-3.2-3.3-7.1-4.4-11.6c-1.1-4.6-1.7-10-1.7-16.2V320.2z
	 M362.5,389.8c0,5.9,1.1,10.2,3.2,12.9c2.1,2.7,5.4,4,9.8,4c4.3,0,7.5-1.3,9.6-4c2.1-2.7,3.2-7,3.2-12.9v-77.5
	c0-6.3-1.1-10.8-3.2-13.7c-2.1-2.8-5.3-4.3-9.6-4.3c-4.4,0-7.7,1.4-9.8,4.3c-2.2,2.8-3.2,7.4-3.2,13.7V389.8z"/>
<path class="st0" d="M459.2,356.5c-3.2,0-6.4-0.4-9.6-1.3c-3.2-0.9-6.1-2.6-8.7-5.2c-2.6-2.6-4.7-6.3-6.3-11.1
	c-1.6-4.8-2.4-11-2.4-18.8v-9c0-5.1,0.4-9.5,1.2-13.2c0.8-3.7,1.9-6.9,3.2-9.5c1.4-2.6,2.9-4.8,4.7-6.4s3.7-2.9,5.7-3.8
	c2-0.9,4.1-1.5,6.2-1.8c2.1-0.3,4.1-0.5,6.2-0.5c1.9,0,3.9,0.2,5.9,0.5c2.1,0.3,4.1,0.9,6.1,1.8c2,0.9,3.9,2.1,5.7,3.7
	c1.8,1.6,3.3,3.7,4.7,6.3c1.3,2.6,2.4,5.8,3.2,9.5s1.2,8.2,1.2,13.3v9c0,7.7-0.9,13.9-2.6,18.6c-1.7,4.8-3.9,8.5-6.6,11.1
	c-2.7,2.6-5.6,4.4-8.7,5.3C465,356.1,462,356.5,459.2,356.5z M459.4,343.2c3.5,0,6-1.5,7.4-4.6c1.4-3,2.1-7.8,2.1-14.2v-16.2
	c0-6.5-0.7-11.2-2.1-14.3c-1.4-3.1-3.9-4.6-7.4-4.6c-3.7,0-6.3,1.5-7.7,4.6c-1.5,3.1-2.2,7.8-2.2,14.3v16.2c0,6.4,0.7,11.2,2.2,14.2
	C453.2,341.7,455.7,343.2,459.4,343.2z M510,277.8h15.2l-38.4,144.6h-15.2L510,277.8z M510.2,378.2c0-7.6,0.8-13.8,2.6-18.4
	c1.7-4.6,3.9-8.2,6.5-10.6c2.7-2.5,5.6-4.1,8.7-4.9c3.2-0.8,6.3-1.2,9.2-1.2c1.9,0,3.9,0.2,5.9,0.5c2.1,0.3,4.1,0.9,6.1,1.8
	c2,0.9,3.9,2.1,5.7,3.7c1.8,1.6,3.3,3.7,4.7,6.3c1.3,2.6,2.4,5.8,3.2,9.5c0.8,3.7,1.2,8.2,1.2,13.3v9c0,5.1-0.4,9.6-1.2,13.4
	c-0.8,3.8-1.9,7-3.3,9.7c-1.4,2.7-2.9,4.9-4.7,6.6c-1.8,1.7-3.7,3.1-5.7,4.1c-2,1-4,1.7-6.1,2.1c-2.1,0.4-4,0.5-5.9,0.5
	c-2.1,0-4.3-0.2-6.4-0.5s-4.2-1-6.2-2c-2-0.9-3.9-2.3-5.6-4c-1.8-1.7-3.3-3.9-4.6-6.6s-2.3-5.9-3.1-9.8c-0.8-3.8-1.1-8.3-1.1-13.5
	V378.2z M527.3,391.5c0,6.4,0.7,11.1,2.2,14.2c1.5,3,4.1,4.6,7.7,4.6c3.5,0,6-1.5,7.4-4.6s2.1-7.8,2.1-14.2v-16.2
	c0-6.5-0.7-11.2-2.1-14.3s-3.9-4.6-7.4-4.6c-3.7,0-6.3,1.5-7.7,4.6c-1.5,3.1-2.2,7.8-2.2,14.3V391.5z"/>
<circle class="st0" cx="79.6" cy="356.3" r="23.5"/>
<circle class="st0" cx="360" cy="75.9" r="38.9"/>
<circle class="st0" cx="195.2" cy="129.5" r="38.9"/>
<circle class="st0" cx="93.4" cy="269.7" r="38.9"/>
<circle class="st0" cx="93.4" cy="443" r="38.9"/>
<circle class="st0" cx="195.2" cy="583.2" r="38.9"/>
<circle class="st0" cx="360" cy="636.7" r="38.9"/>
<circle class="st0" cx="524.8" cy="583.2" r="38.9"/>
<circle class="st0" cx="626.7" cy="443" r="38.9"/>
<circle class="st0" cx="626.7" cy="269.7" r="38.9"/>
<circle class="st0" cx="524.8" cy="129.5" r="38.9"/>
<circle class="st0" cx="273.4" cy="89.7" r="23.5"/>
<circle class="st0" cx="133.2" cy="191.5" r="23.5"/>
<circle class="st0" cx="133.2" cy="521.1" r="23.5"/>
<circle class="st0" cx="273.4" cy="623" r="23.5"/>
<circle class="st0" cx="446.7" cy="623" r="23.5"/>
<circle class="st0" cx="586.9" cy="521.1" r="23.5"/>
<circle class="st0" cx="640.4" cy="356.3" r="23.5"/>
<circle class="st0" cx="586.9" cy="191.5" r="23.5"/>
<circle class="st0" cx="446.7" cy="89.7" r="23.5"/>
</svg>
