<?xml version="1.0" encoding="utf-8"?>
<!-- Generator: Adobe Illustrator 28.0.0, SVG Export Plug-In . SVG Version: 6.00 Build 0)  -->
<svg version="1.1" id="Layer_1" xmlns:xodm="http://www.corel.com/coreldraw/odm/2003"
	 xmlns="http://www.w3.org/2000/svg" xmlns:xlink="http://www.w3.org/1999/xlink" x="0px" y="0px" viewBox="0 0 720 720"
	 style="enable-background:new 0 0 720 720;" xml:space="preserve">
<style type="text/css">
	.st0{opacity:0.5;}
	.st1{fill:#F6B24A;}
</style>
<g class="st0">
	<circle class="st1" cx="80" cy="357.1" r="23.4"/>
</g>
<g>
	<circle class="st1" cx="360.2" cy="76.9" r="38.9"/>
</g>
<g class="st0">
	<circle class="st1" cx="195.5" cy="130.4" r="38.9"/>
</g>
<g class="st0">
	<circle class="st1" cx="93.7" cy="270.5" r="38.9"/>
</g>
<g class="st0">
	<circle class="st1" cx="93.7" cy="443.7" r="38.9"/>
</g>
<g class="st0">
	<circle class="st1" cx="195.5" cy="583.8" r="38.9"/>
</g>
<g class="st0">
	<circle class="st1" cx="360.2" cy="637.3" r="38.9"/>
</g>
<g class="st0">
	<circle class="st1" cx="524.9" cy="583.8" r="38.9"/>
</g>
<g>
	<circle class="st1" cx="626.7" cy="443.7" r="38.9"/>
</g>
<g>
	<circle class="st1" cx="626.7" cy="270.5" r="38.9"/>
</g>
<g>
	<circle class="st1" cx="524.9" cy="130.4" r="38.9"/>
</g>
<g class="st0">
	<circle class="st1" cx="273.6" cy="90.6" r="23.4"/>
</g>
<g class="st0">
	<circle class="st1" cx="133.5" cy="192.4" r="23.4"/>
</g>
<g class="st0">
	<circle class="st1" cx="133.5" cy="521.8" r="23.4"/>
</g>
<g class="st0">
	<circle class="st1" cx="273.6" cy="623.6" r="23.4"/>
</g>
<g class="st0">
	<circle class="st1" cx="446.8" cy="623.6" r="23.4"/>
</g>
<g>
	<circle class="st1" cx="586.9" cy="521.8" r="23.4"/>
</g>
<g>
	<circle class="st1" cx="640.4" cy="357.1" r="23.4"/>
</g>
<g>
	<circle class="st1" cx="586.9" cy="192.4" r="23.4"/>
</g>
<g>
	<circle class="st1" cx="446.8" cy="90.6" r="23.4"/>
</g>
<path class="st1" d="M187.7,392.7l41.7-105.9h25.9V387h13.2v17h-13.2v25.6h-20.2V404h-47.4V392.7z M235.1,387V366l2-53.9h-2.5
	l-24.8,75H235.1z"/>
<path class="st1" d="M281.8,327.5c0-6.2,0.6-11.6,1.7-16.2c1.1-4.5,2.7-8.4,4.5-11.5c1.9-3.1,4-5.6,6.5-7.5c2.5-1.9,5-3.4,7.6-4.4
	c2.6-1,5.2-1.7,7.8-2c2.6-0.3,5-0.5,7.2-0.5c2.1,0,4.4,0.2,6.9,0.5s5.1,1,7.7,1.9c2.6,1,5.1,2.4,7.5,4.3c2.4,1.9,4.6,4.4,6.4,7.5
	c1.9,3.1,3.4,7,4.5,11.5c1.1,4.6,1.7,10,1.7,16.4V388c0,6.2-0.6,11.6-1.7,16.2c-1.1,4.5-2.7,8.4-4.6,11.6c-1.9,3.2-4.1,5.8-6.5,7.7
	c-2.5,2-5,3.5-7.5,4.6c-2.6,1.1-5.1,1.8-7.7,2.2c-2.5,0.4-4.8,0.6-6.8,0.6c-2.2,0-4.7-0.2-7.3-0.6c-2.6-0.4-5.2-1.1-7.9-2.2
	c-2.6-1.1-5.1-2.6-7.6-4.6c-2.4-2-4.6-4.5-6.4-7.7c-1.8-3.2-3.3-7.1-4.4-11.6c-1.1-4.6-1.7-10-1.7-16.2V327.5z M303.9,397.1
	c0,5.9,1.1,10.2,3.2,12.9c2.1,2.7,5.4,4,9.8,4c4.3,0,7.5-1.3,9.6-4c2.1-2.7,3.2-7,3.2-12.9v-77.4c0-6.2-1.1-10.8-3.2-13.6
	c-2.1-2.8-5.3-4.3-9.6-4.3c-4.4,0-7.7,1.4-9.8,4.3c-2.1,2.8-3.2,7.4-3.2,13.6V397.1z"/>
<path class="st1" d="M400.7,363.9c-3.2,0-6.4-0.4-9.6-1.3c-3.2-0.9-6.1-2.6-8.7-5.2c-2.6-2.6-4.7-6.3-6.3-11
	c-1.6-4.8-2.4-11-2.4-18.8v-9c0-5.1,0.4-9.5,1.2-13.2c0.8-3.7,1.9-6.9,3.2-9.5c1.4-2.6,2.9-4.7,4.7-6.4c1.8-1.6,3.7-2.9,5.7-3.8
	c2-0.9,4.1-1.5,6.2-1.8c2.1-0.3,4.1-0.5,6.1-0.5c1.9,0,3.9,0.2,5.9,0.5c2.1,0.3,4.1,0.9,6.1,1.8c2,0.9,3.9,2.1,5.7,3.7
	c1.8,1.6,3.3,3.7,4.7,6.3c1.3,2.6,2.4,5.8,3.2,9.5s1.2,8.2,1.2,13.3v9c0,7.6-0.9,13.8-2.6,18.6c-1.7,4.8-3.9,8.5-6.6,11.1
	c-2.7,2.6-5.6,4.4-8.7,5.3C406.4,363.4,403.5,363.9,400.7,363.9z M400.8,350.6c3.5,0,6-1.5,7.4-4.6c1.4-3,2.1-7.8,2.1-14.2v-16.2
	c0-6.5-0.7-11.2-2.1-14.3c-1.4-3.1-3.8-4.6-7.4-4.6c-3.7,0-6.3,1.5-7.7,4.6c-1.5,3.1-2.2,7.8-2.2,14.3v16.2c0,6.4,0.7,11.1,2.2,14.2
	C394.6,349,397.1,350.6,400.8,350.6z M451.4,285.1h15.1l-38.4,144.5h-15.2L451.4,285.1z M451.5,385.5c0-7.6,0.8-13.8,2.6-18.4
	c1.7-4.6,3.9-8.1,6.5-10.6c2.7-2.5,5.6-4.1,8.7-4.9c3.2-0.8,6.3-1.2,9.2-1.2c1.9,0,3.9,0.2,5.9,0.5c2.1,0.3,4.1,0.9,6.1,1.8
	c2,0.9,3.9,2.1,5.7,3.7c1.8,1.6,3.3,3.7,4.7,6.3c1.3,2.6,2.4,5.8,3.2,9.5c0.8,3.7,1.2,8.2,1.2,13.3v9c0,5.1-0.4,9.6-1.2,13.4
	c-0.8,3.8-1.9,7-3.3,9.7c-1.4,2.7-2.9,4.9-4.7,6.6c-1.8,1.7-3.7,3.1-5.7,4.1c-2,1-4,1.7-6.1,2.1c-2.1,0.4-4,0.5-5.9,0.5
	c-2.1,0-4.3-0.2-6.4-0.5c-2.1-0.4-4.2-1-6.2-2c-2-1-3.8-2.3-5.6-4c-1.8-1.7-3.3-3.9-4.6-6.6c-1.3-2.7-2.3-5.9-3.1-9.8
	c-0.8-3.8-1.1-8.3-1.1-13.5V385.5z M468.7,398.8c0,6.4,0.7,11.1,2.2,14.2c1.5,3,4.1,4.6,7.7,4.6c3.5,0,6-1.5,7.4-4.6
	c1.4-3,2.1-7.8,2.1-14.2v-16.2c0-6.5-0.7-11.2-2.1-14.3c-1.4-3.1-3.8-4.6-7.4-4.6c-3.7,0-6.3,1.5-7.7,4.6c-1.5,3.1-2.2,7.8-2.2,14.3
	V398.8z"/>
</svg>
