<?xml version="1.0" encoding="utf-8"?>
<!-- Generator: Adobe Illustrator 28.0.0, SVG Export Plug-In . SVG Version: 6.00 Build 0)  -->
<svg version="1.1" id="Layer_1" xmlns:xodm="http://www.corel.com/coreldraw/odm/2003"
	 xmlns="http://www.w3.org/2000/svg" xmlns:xlink="http://www.w3.org/1999/xlink" x="0px" y="0px" viewBox="0 0 720 720"
	 style="enable-background:new 0 0 720 720;" xml:space="preserve">
<style type="text/css">
	
		.st0{fill:none;stroke:#000000;stroke-width:67.3862;stroke-miterlimit:10;stroke-dasharray:1.910590e-02,11.8971,1.910590e-02,11.9067,11.9162,11.9067;}
</style>
<g>
	<circle class="st0" cx="361.1" cy="359.8" r="288.3"/>
</g>
<path d="M348.4,582.1c-4.3-0.2-8.6-0.6-12.9-1.1l5.3-46.3c3.4,0.4,6.8,0.7,10.2,0.9L348.4,582.1z M374.2,582.1l-2.7-46.5
	c3.4-0.2,6.8-0.5,10.2-0.9l5.4,46.3C382.8,581.4,378.5,581.8,374.2,582.1z M395.9,556.1L395.9,556.1L395.9,556.1L395.9,556.1z
	 M309.9,576.5c-4.2-1-8.4-2.1-12.5-3.3l13.3-44.7c3.3,1,6.6,1.9,9.9,2.6L309.9,576.5z M412.6,576.5l-10.7-45.4
	c3.3-0.8,6.6-1.7,9.9-2.6l13.4,44.7C421,574.3,416.8,575.5,412.6,576.5z M273,564.3c-4-1.7-7.9-3.5-11.8-5.5l20.9-41.7
	c3,1.5,6.2,3,9.3,4.3L273,564.3z M449.4,564.2l-18.5-42.8c3.1-1.3,6.2-2.8,9.2-4.3l21,41.6C457.3,560.7,453.4,562.5,449.4,564.2z
	 M238.8,545.9c-3.6-2.4-7.2-4.9-10.6-7.4l27.8-37.4c2.7,2,5.5,4,8.4,5.9L238.8,545.9z M483.5,545.8l-25.7-38.9
	c2.8-1.9,5.7-3.9,8.4-5.9l27.9,37.4C490.7,540.9,487.1,543.4,483.5,545.8z M208.4,521.8c-3.1-2.9-6.2-6-9.2-9.1l33.9-32
	c2.3,2.5,4.8,4.9,7.3,7.2L208.4,521.8z M513.9,521.7l-32-33.9c2.5-2.3,4.9-4.8,7.2-7.2l33.9,32C520.1,515.7,517.1,518.8,513.9,521.7
	z M208.5,488L208.5,488L208.5,488L208.5,488z M182.6,492.9c-2.6-3.4-5.1-7-7.4-10.6l38.9-25.7c1.9,2.8,3.8,5.7,5.9,8.4L182.6,492.9z
	 M539.7,492.7l-37.4-27.8c2-2.7,4-5.6,5.9-8.4l38.9,25.6C544.8,485.7,542.3,489.3,539.7,492.7z M513.8,487.9L513.8,487.9
	L513.8,487.9z M188.5,459.6L188.5,459.6L188.5,459.6z M162.2,459.9c-1.9-3.8-3.8-7.8-5.5-11.7l42.8-18.5c1.3,3.1,2.8,6.2,4.3,9.3
	L162.2,459.9z M560.1,459.7l-41.6-20.9c1.5-3,3-6.2,4.3-9.3l42.8,18.5C563.9,451.9,562.1,455.8,560.1,459.7z M147.8,423.9
	c-1.2-4.1-2.4-8.3-3.4-12.5l45.4-10.8c0.8,3.3,1.7,6.6,2.7,9.9L147.8,423.9z M574.5,423.6l-44.7-13.3c1-3.3,1.9-6.6,2.6-9.9
	l45.4,10.7C576.8,415.2,575.7,419.4,574.5,423.6z M140,385.9c-0.5-4.3-0.9-8.6-1.1-12.9l46.5-2.7c0.2,3.4,0.5,6.8,0.9,10.2
	L140,385.9z M582.3,385.5l-46.3-5.3c0.4-3.4,0.7-6.8,0.9-10.2l46.5,2.7C583.1,376.9,582.8,381.3,582.3,385.5z M185.4,349.7
	l-46.5-2.6c0.2-4.3,0.6-8.6,1.1-12.9l46.3,5.3C185.8,342.9,185.5,346.3,185.4,349.7z M536.8,349.5c-0.2-3.4-0.5-6.8-0.9-10.2
	l46.3-5.4c0.5,4.3,0.9,8.6,1.1,12.9L536.8,349.5z M189.7,319.4l-45.4-10.7c1-4.2,2.1-8.4,3.3-12.5l44.7,13.3
	C191.4,312.7,190.5,316.1,189.7,319.4z M532.4,319.1c-0.8-3.3-1.7-6.6-2.6-9.9l44.7-13.4c1.2,4.1,2.4,8.3,3.4,12.5L532.4,319.1z
	 M548.4,291.6l-0.2,0.1L548.4,291.6z M199.3,290.2l-42.8-18.4c1.7-4,3.5-7.9,5.5-11.8l41.7,20.9C202.1,284,200.7,287.1,199.3,290.2z
	 M522.8,290c-1.3-3.1-2.8-6.2-4.3-9.3l41.6-21c1.9,3.8,3.8,7.8,5.5,11.7L522.8,290z M213.9,263.2L175,237.6
	c2.4-3.6,4.9-7.2,7.4-10.6l37.4,27.8C217.8,257.5,215.8,260.4,213.9,263.2z M508.2,263.1c-1.9-2.8-3.8-5.7-5.9-8.4l37.4-27.9
	c2.6,3.4,5.1,7,7.4,10.6L508.2,263.1z M232.9,239.1l-33.9-32c2.9-3.1,6-6.2,9.1-9.2l32,33.9C237.7,234.2,235.3,236.6,232.9,239.1z
	 M489.2,239c-2.3-2.5-4.8-4.9-7.2-7.2l32-33.9c3.1,3,6.2,6,9.1,9.2L489.2,239z M489.3,207.1L489.3,207.1L489.3,207.1z M232.8,207.2
	L232.8,207.2L232.8,207.2L232.8,207.2z M255.9,218.7L228,181.3c3.4-2.6,7-5.1,10.6-7.4l25.7,38.9
	C261.4,214.7,258.6,216.6,255.9,218.7z M466.2,218.6c-2.7-2-5.6-4-8.4-5.9l25.7-38.9c3.6,2.4,7.2,4.9,10.6,7.4L466.2,218.6z
	 M281.9,202.5l-21-41.6c3.8-1.9,7.8-3.8,11.7-5.5l18.5,42.8C288.1,199.5,284.9,201,281.9,202.5z M440.1,202.4c-3-1.5-6.2-3-9.3-4.3
	l18.5-42.8c4,1.7,7.9,3.6,11.8,5.5L440.1,202.4z M292.6,172.4v0.1V172.4L292.6,172.4z M310.4,191.2L297,146.6
	c4.1-1.2,8.3-2.4,12.5-3.4l10.8,45.4C316.9,189.3,313.6,190.2,310.4,191.2z M411.6,191.1c-3.3-1-6.6-1.9-9.9-2.6l10.7-45.4
	c4.2,1,8.4,2.1,12.5,3.3L411.6,191.1z M460.7,187.3l0.1-0.1L460.7,187.3z M261.2,187.2L261.2,187.2L261.2,187.2z M340.4,185
	l-5.4-46.3c4.3-0.5,8.6-0.9,12.9-1.1l2.7,46.5C347.2,184.3,343.8,184.6,340.4,185z M381.6,184.9c-3.4-0.4-6.8-0.7-10.2-0.9l2.7-46.5
	c4.3,0.2,8.6,0.6,12.9,1.1L381.6,184.9z"/>
</svg>
