<?xml version="1.0" encoding="utf-8"?>
<!-- Generator: Adobe Illustrator 28.0.0, SVG Export Plug-In . SVG Version: 6.00 Build 0)  -->
<svg version="1.1" id="Layer_1" xmlns:xodm="http://www.corel.com/coreldraw/odm/2003"
	 xmlns="http://www.w3.org/2000/svg" xmlns:xlink="http://www.w3.org/1999/xlink" x="0px" y="0px" viewBox="0 0 720 720"
	 style="enable-background:new 0 0 720 720;" xml:space="preserve">
<style type="text/css">
	.st0{fill-rule:evenodd;clip-rule:evenodd;}
</style>
<path class="st0" d="M246.8,486.8c-3.5,2.3-5.8,3.1-10.8,6.1c2.6,5.1,11.7,31.4,13.3,37.6c1.4,5.5,3.5,17.7,0,23.7
	c-4.6,7.6-28.2,16.8-38.4,22.9c-17.1,10.2-35.5,19.6-37.4,19.5c-1.3,0-2.9,0.1-4.8-0.6c-7.7-2.6-36.4-37.4-57-75.4
	c-20-36.9-32.1-77-30.3-84.6c0.5-1.9,1.4-3.2,2.1-4.3c1-1.6,18.8-12.1,36.6-20.9c10.6-5.2,31.1-20.2,40-19.9
	c7,0.3,16.1,8.6,19.9,12.8c4.3,4.7,21.6,26.5,24.4,31.5c5.2-2.6,7.1-4.1,10.9-5.8c-2.9-6.9-5.3-13.4,2.4-19.1
	c3.4-2.5,6.9-3.2,12.3-1.7c32.7,9.5,51.8,44.5,42.1,77.1c-1.6,5.4-4.1,8-8.1,9.5C255.2,498.5,251.1,492.9,246.8,486.8L246.8,486.8z
	 M256,444.9c8,14.9,9.4,31.2,4.9,44.1l-38.8-71.8l-0.3-0.6C235.1,419.9,247.9,430,256,444.9L256,444.9z"/>
<path class="st0" d="M479.6,486.8c3.5,2.3,5.8,3.1,10.8,6.1c-2.6,5.1-11.7,31.4-13.3,37.6c-1.4,5.5-3.5,17.7,0,23.7
	c4.6,7.6,28.2,16.8,38.4,22.9c17.1,10.2,35.5,19.6,37.4,19.5c1.3,0,2.9,0.1,4.8-0.6c7.7-2.6,36.4-37.4,57-75.4
	c20-36.9,32.1-77,30.3-84.6c-0.5-1.9-1.4-3.2-2.1-4.3c-1-1.6-18.8-12.1-36.6-20.9c-10.6-5.2-31.1-20.2-40-19.9
	c-7,0.3-16.1,8.6-19.9,12.8c-4.3,4.7-21.6,26.5-24.4,31.5c-5.2-2.6-7.1-4.1-10.9-5.8c2.9-6.9,5.3-13.4-2.4-19.1
	c-3.4-2.5-6.9-3.2-12.3-1.7c-32.7,9.5-51.8,44.5-42.1,77.1c1.6,5.4,4.1,8,8.1,9.5C471.2,498.5,475.4,492.9,479.6,486.8L479.6,486.8z
	 M470.4,444.9c-8,14.9-9.4,31.2-4.9,44.1l38.8-71.8l0.3-0.6C491.4,419.9,478.5,430,470.4,444.9L470.4,444.9z"/>
<g>
	<path d="M278.4,234.3c-36.3,0-65.8,29.4-65.8,65.8c0,36.4,29.4,65.8,65.8,65.8c36.3,0,65.8-29.4,65.8-65.8
		C344.2,263.7,314.7,234.3,278.4,234.3z M278.4,355c-30.3,0-54.8-24.5-54.8-54.8s24.6-54.8,54.8-54.8s54.8,24.5,54.8,54.8
		S308.6,355,278.4,355z"/>
	<path d="M558.8,269.8c-0.7-0.8-1.6-1.2-2.6-1.2l-22.8,0.5c4-88.3-32.1-172.5-126.5-203.9c-29.8-9.9-68.8-9.8-98.7,3.5
		c-85.6,38.1-120,115.9-115.6,200.3l-19.5-0.4c-1,0-1.9,0.4-2.6,1.2s-0.9,1.8-0.7,2.8l11.9,53.8c0.3,1.5,1.7,2.6,3.2,2.6l18-0.1
		c0.4,0,0.8-0.1,1.2-0.2c13.5,43.7,38.8,100.2,69.1,144c-5.7,12.6-8.9,26.5-8.9,41.2c0,38.6,21.9,72.1,54,88.7v20h-7.9v15
		c0.3,1.5,4.5,2.9,6.3,3.5c10.3,3.8,27.3,6.2,46.6,6.2c20.8,0,39-2.9,48.9-7.1c0.8-0.3,4.2-1.7,4.2-2.3v-15.4h-7.2V603
		c32.6-16.4,55-50.2,55-89.2c-0.3-15.2-3.8-29.7-9.9-42.6c31.4-45.2,57.3-102.8,69.5-143.6c0.1,0.1,0.1,0.1,0.2,0.2
		c0.6,0.7,1.5,1.1,2.4,1.1l18,0.1c1.6,0,2.9-1.1,3.2-2.6l11.9-53.8C559.7,271.6,559.5,270.6,558.8,269.8z M364.2,448.2
		c16,0,30.6,5.6,42.1,14.9l-25.5,25.5c-4.8-3-10.5-4.8-16.6-4.8c-6.3,0-12.1,1.8-17,5l-25.4-25.4
		C333.3,453.9,348.1,448.2,364.2,448.2z M384,515c0,10.9-8.9,19.8-19.8,19.8s-19.8-8.9-19.8-19.8s8.9-19.8,19.8-19.8
		S384,504.1,384,515z M337.7,498.5c-1.8,2.9-3.2,6.2-4,9.8h-36c1.3-13.3,6.6-25.5,14.5-35.3L337.7,498.5z M278.4,373.3
		c-40.4,0-73.2-32.8-73.2-73.2c0-40.4,32.8-73.2,73.2-73.2c40.5,0,73.3,32.8,73.2,73.2C351.6,340.5,318.8,373.3,278.4,373.3z
		 M312.3,557.1c-8-9.8-13.2-22-14.6-35.3h36c0.8,3.5,2.2,6.8,4,9.8L312.3,557.1z M364.3,581.9c-16.1,0-30.9-5.7-42.4-15.2l25.5-25.5
		c4.9,3.2,10.7,5,16.9,5c6.1,0,11.8-1.7,16.6-4.8l25.4,25.6C394.8,576.3,380.2,581.9,364.3,581.9z M415.8,557.4L390.4,532
		c2-3.1,3.5-6.5,4.3-10.2h36C429.3,535.3,424,547.5,415.8,557.4z M394.7,508.3c-0.8-3.7-2.3-7.1-4.3-10.2l25.5-25.5
		c8.1,9.9,13.5,22.2,14.8,35.7H394.7z M449.5,373.3c-40.4,0-73.2-32.8-73.2-73.2s32.8-73.2,73.2-73.2c40.4,0,73.2,32.8,73.2,73.2
		C522.7,340.5,489.9,373.3,449.5,373.3z"/>
	<path d="M449.5,234.3c-36.3,0-65.8,29.4-65.8,65.8c0,36.4,29.4,65.8,65.8,65.8c36.4,0,65.8-29.4,65.8-65.8
		C515.3,263.7,485.8,234.3,449.5,234.3z M449.6,349.5c-27.2,0-49.3-22.1-49.3-49.3c0-27.2,22-49.3,49.3-49.3
		c27.2,0,49.3,22.1,49.3,49.3C498.9,327.4,476.8,349.5,449.6,349.5z"/>
</g>
</svg>
