<?xml version="1.0" encoding="utf-8"?>
<!-- Generator: Adobe Illustrator 28.0.0, SVG Export Plug-In . SVG Version: 6.00 Build 0)  -->
<svg version="1.1" id="Layer_1" xmlns:xodm="http://www.corel.com/coreldraw/odm/2003"
	 xmlns="http://www.w3.org/2000/svg" xmlns:xlink="http://www.w3.org/1999/xlink" x="0px" y="0px" viewBox="0 0 720 720"
	 style="enable-background:new 0 0 720 720;" xml:space="preserve">
<style type="text/css">
	.st0{fill:#F7B24B;}
	.st1{opacity:0.5;fill:#F7B24B;}
	.st2{fill:#FFFFFF;}
	.st3{fill:#F7B24B;stroke:#000000;stroke-width:1.8147;stroke-miterlimit:10;}
</style>
<path class="st0" d="M46,104.9v457h626.9v-457H46z M649.6,543.3H69.3V179.7h580.4V543.3z"/>
<path class="st0" d="M285.5,574.2v19.6l29.4,21.1l0.3,0.2h254.8l23.6-21.3h80.2v-19.6H285.5z M375.3,595.5h-66.9v-10.9h79.2l-2,1.8
	l-8.5,7.6L375.3,595.5z M521.5,595.5H387.6l1.8-1.6l8.7-7.7l1.8-1.6h121.7V595.5z"/>
<polygon class="st1" points="387.6,584.5 385.6,586.3 377.1,593.9 375.3,595.5 308.4,595.5 308.4,584.5 "/>
<polygon class="st1" points="521.5,584.5 521.5,595.5 387.6,595.5 389.4,593.9 398,586.1 399.8,584.5 "/>
<polygon class="st2" points="387.6,584.5 385.6,586.3 377.1,593.9 375.3,595.5 308.4,595.5 308.4,584.5 "/>
<polygon class="st2" points="521.5,584.5 521.5,595.5 387.6,595.5 389.4,593.9 398,586.1 399.8,584.5 "/>
<g>
	<polygon class="st0" points="674,597.9 674,599.5 596.4,599.5 580.9,613.4 579.4,612.3 593.9,599.3 595.5,597.9 	"/>
</g>
<path class="st3" d="M613.8,600.9"/>
<g>
	<rect x="593.9" y="604.8" class="st0" width="80.1" height="1.6"/>
</g>
</svg>
