<?xml version="1.0" encoding="utf-8"?>
<!-- Generator: Adobe Illustrator 28.0.0, SVG Export Plug-In . SVG Version: 6.00 Build 0)  -->
<svg version="1.1" id="Layer_1" xmlns:xodm="http://www.corel.com/coreldraw/odm/2003"
	 xmlns="http://www.w3.org/2000/svg" xmlns:xlink="http://www.w3.org/1999/xlink" x="0px" y="0px" viewBox="0 0 720 720"
	 style="enable-background:new 0 0 720 720;" xml:space="preserve">
<style type="text/css">
	.st0{fill-rule:evenodd;clip-rule:evenodd;fill:#C10C0C;}
	.st1{fill-rule:evenodd;clip-rule:evenodd;fill:#FFFFFF;}
</style>
<path class="st0" d="M625.9,665.9H92.7c-19.4,0-35.1-15.7-35.1-35.1V97.6c0-19.4,15.7-35.1,35.1-35.1H626
	c19.4,0,35.1,15.7,35.1,35.1v533.2C661,650.1,645.2,665.9,625.9,665.9z"/>
<path class="st1" d="M76.7,97.3V631c0,8.7,7.1,15.8,15.8,15.8h533.7c8.7,0,15.8-7.1,15.8-15.8V97.3c0-8.7-7.1-15.8-15.8-15.8H92.5
	C83.7,81.5,76.7,88.6,76.7,97.3z M625.1,642.2H93.6c-6.8,0-12.3-5.5-12.3-12.3V98.4c0-6.8,5.5-12.3,12.3-12.3h531.5
	c6.8,0,12.3,5.5,12.3,12.3v531.5C637.3,636.7,631.8,642.2,625.1,642.2z"/>
<path class="st1" d="M421.6,445c21.5-30.9,39.1-70.2,47.4-98.1c0,0,0.1,0.1,0.1,0.1c0.4,0.5,1,0.7,1.7,0.7l12.3,0.1
	c1.1,0,2-0.7,2.2-1.8l8.1-36.8c0.2-0.7,0-1.4-0.5-1.9c-0.5-0.6-1.1-0.8-1.8-0.8l-15.6,0.3c2.8-60.3-21.9-117.8-86.4-139.3
	c-20.4-6.8-47-6.7-67.4,2.4c-58.5,26-82,79.2-79,136.8l-13.4-0.3c-0.7,0-1.3,0.3-1.8,0.8c-0.5,0.6-0.6,1.2-0.5,1.9l8.1,36.8
	c0.2,1,1.1,1.8,2.2,1.8l12.3-0.1c0.3,0,0.6,0,0.8-0.1c9.3,29.8,26.5,68.4,47.2,98.4c-3.9,8.6-6.1,18.1-6.1,28.1
	c0,26.4,15,49.2,36.9,60.6v13.7h-5.4v10.3c0.2,1,3.1,2,4.3,2.4c7,2.6,18.7,4.2,31.8,4.2c14.2,0,26.7-2,33.4-4.9
	c0.6-0.2,2.9-1.1,2.9-1.6v-10.5h-4.9v-13.3c22.3-11.2,37.5-34.3,37.5-61C428.1,463.7,425.8,453.8,421.6,445L421.6,445z M418.3,278.1
	c27.6,0,50,22.4,50,50c0,27.6-22.4,50-50,50s-50-22.4-50-50C368.3,300.5,390.7,278.1,418.3,278.1z M418.3,283.2
	c24.8,0,44.9,20.1,44.9,44.9S443.1,373,418.3,373s-44.9-20.1-44.9-44.9S393.5,283.2,418.3,283.2L418.3,283.2z M418.3,294.5
	c18.6,0,33.7,15.1,33.7,33.7c0,18.6-15.1,33.7-33.7,33.7c-18.6,0-33.7-15.1-33.7-33.7C384.7,309.6,399.8,294.5,418.3,294.5
	L418.3,294.5z M301.4,278.1c-27.6,0-50,22.4-50,50s22.4,50,50,50s50-22.4,50-50S329.1,278.1,301.4,278.1L301.4,278.1z M301.4,283.2
	c-24.8,0-44.9,20.1-44.9,44.9s20.1,44.9,44.9,44.9s44.9-20.1,44.9-44.9S326.3,283.2,301.4,283.2z M301.4,290.7
	c-20.7,0-37.4,16.7-37.4,37.4c0,20.7,16.7,37.4,37.4,37.4c20.7,0,37.4-16.7,37.4-37.4C338.8,307.5,322.1,290.7,301.4,290.7z"/>
<path class="st1" d="M279.9,455.7c-2.4,1.6-4,2.1-7.4,4.1c1.8,3.5,8,21.5,9.1,25.7c1,3.8,2.4,12.1,0,16.2
	c-3.1,5.2-19.3,11.5-26.2,15.7c-11.7,7-24.3,13.4-25.6,13.3c-0.9,0-2,0-3.3-0.4c-5.2-1.8-24.9-25.6-39-51.5
	c-13.7-25.2-22-52.6-20.7-57.8c0.3-1.3,1-2.2,1.4-2.9c0.7-1.1,12.8-8.3,25-14.3c7.2-3.6,21.3-13.8,27.3-13.6
	c4.8,0.2,11,5.9,13.6,8.7c3,3.2,14.7,18.1,16.7,21.5c3.6-1.8,4.8-2.8,7.5-4c-2-4.7-3.6-9.2,1.6-13c2.3-1.7,4.7-2.2,8.4-1.1
	c22.3,6.5,35.4,30.4,28.7,52.7c-1.1,3.7-2.8,5.4-5.5,6.5C285.6,463.6,282.8,459.8,279.9,455.7L279.9,455.7z M286.1,427
	c5.5,10.2,6.4,21.3,3.4,30.1l-26.5-49l-0.2-0.4C271.8,410,280.6,416.8,286.1,427L286.1,427z"/>
<path class="st1" d="M438.9,455.7c2.4,1.6,4,2.1,7.4,4.1c-1.8,3.5-8,21.5-9.1,25.7c-1,3.8-2.4,12.1,0,16.2
	c3.1,5.2,19.3,11.5,26.2,15.7c11.7,7,24.3,13.4,25.6,13.3c0.9,0,2,0,3.3-0.4c5.2-1.8,24.9-25.6,39-51.5c13.7-25.2,22-52.6,20.7-57.8
	c-0.3-1.3-1-2.2-1.4-2.9c-0.7-1.1-12.8-8.3-25-14.3c-7.2-3.6-21.3-13.8-27.3-13.6c-4.8,0.2-11,5.9-13.6,8.7
	c-3,3.2-14.7,18.1-16.7,21.5c-3.6-1.8-4.8-2.8-7.5-4c2-4.7,3.6-9.2-1.6-13c-2.3-1.7-4.7-2.2-8.4-1.1c-22.3,6.5-35.4,30.4-28.7,52.7
	c1.1,3.7,2.8,5.4,5.5,6.5C433.1,463.6,436,459.8,438.9,455.7L438.9,455.7z M432.6,427c-5.5,10.2-6.4,21.3-3.4,30.1l26.5-49l0.2-0.4
	C446.9,410,438.1,416.8,432.6,427L432.6,427z"/>
<path class="st0" d="M360,429.3c10.9,0,20.9,3.8,28.8,10.2l-17.4,17.4c-3.3-2.1-7.2-3.3-11.3-3.3c-4.3,0-8.3,1.3-11.6,3.4
	l-17.4-17.4C338.9,433.2,349,429.3,360,429.3L360,429.3z M395.3,446c5.6,6.8,9.2,15.2,10.1,24.4h-24.6c-0.6-2.5-1.6-4.9-2.9-7
	L395.3,446L395.3,446z M339.2,470.3h-24.6c0.9-9.1,4.5-17.4,9.9-24.1l17.4,17.4C340.7,465.6,339.7,467.9,339.2,470.3z M405.5,479.6
	c-0.9,9.2-4.6,17.6-10.2,24.3l-17.4-17.4c1.4-2.1,2.4-4.4,2.9-7L405.5,479.6L405.5,479.6z M388.8,510.4
	c-7.8,6.4-17.8,10.2-28.7,10.2c-11,0-21.1-3.9-29-10.4l17.4-17.4c3.3,2.2,7.3,3.4,11.6,3.4c4.2,0,8-1.2,11.3-3.2L388.8,510.4
	L388.8,510.4z M324.6,503.7c-5.5-6.7-9-15-10-24.1h24.6c0.5,2.4,1.5,4.7,2.8,6.7L324.6,503.7L324.6,503.7z"/>
<circle class="st0" cx="360" cy="474.9" r="13.5"/>
</svg>
