<?xml version="1.0" encoding="utf-8"?>
<!-- Generator: Adobe Illustrator 28.0.0, SVG Export Plug-In . SVG Version: 6.00 Build 0)  -->
<svg version="1.1" id="Layer_1" xmlns:xodm="http://www.corel.com/coreldraw/odm/2003"
	 xmlns="http://www.w3.org/2000/svg" xmlns:xlink="http://www.w3.org/1999/xlink" x="0px" y="0px" viewBox="0 0 720 720"
	 style="enable-background:new 0 0 720 720;" xml:space="preserve">
<path d="M495.7,294.4l-2.1,1.2l2.1,1.2l2.1-1.2L495.7,294.4z"/>
<path d="M589.6,428.6l-28.7-16.8l13.7-7l1-0.5l-8.4-14.5l-46.7-81l-22.7-13.2l-2.1,1.2l21.8,12.7L448.2,346l-19.9-11.7l67.3-37.5
	l-2.1-1.2l-67.3,37.5l-54.7-32v-60.7l14.9-7l107.1,62.1l2.1-1.2l-106.9-62.1l67.1-31.5l50.5,87.7l-10.6,5.9l2.1,1.2l10.4-5.8
	l0.9-0.5l-23.6-41l-28.9-49.9l-26-14.8l13.5-6.8L370.6,49.4l-73.5,127.5l13.5,6.8l-26,14.8l-28.9,49.9l-23.6,41l0.9,0.5l10.4,5.8
	l2.1-1.2l-10.6-5.9l50.5-87.7l67.1,31.5l-106.9,62.1l2.1,1.2l107.1-62.1l14.9,7v60.7l-54.7,32l-67.3-37.5l-2.1,1.2l67.3,37.5
	L293,346l-69.2-36.5l21.8-12.7l-2.1-1.2l-22.7,13.2l-46.7,81l-8.4,14.5l1,0.5l13.7,7l-28.7,16.8l-50.2,87l0.9,0.5L370.6,671
	l268.2-154.9l0.9-0.5L589.6,428.6z M519.2,310.8l53.5,92.6l-14,7.1l-108.4-63.4L519.2,310.8z M556.5,411.7l-184.9,93.4V388.7
	l76.6-40.4L556.5,411.7z M424.1,334.3l-52.6,29.3v-60.1L424.1,334.3z M371.6,55.2L441.2,176l-12.7,6.4l-57-33.2V55.2z M371.6,151.5
	l54.8,31.9l-54.8,27.6V151.5z M300,176l69.7-120.8v94l-57,33.2L300,176z M369.7,151.5v59.6l-54.8-27.6L369.7,151.5z M354.7,231.1
	l-67.4-31.6l25.3-14.8l58,29.2l58-29.2l25.3,14.8l-67.4,31.6l-15.9-9.2L354.7,231.1z M356.9,232.1l13.7-7.9l13.7,7.9l-13.7,6.5
	L356.9,232.1z M369.7,303.5v60.1l-52.6-29.3L369.7,303.5z M315,335.5l55.6,31l55.7-31l19.9,11.6l-75.5,39.9l-75.5-39.9L315,335.5z
	 M293.1,348.3l76.6,40.4v116.4l-184.9-93.4L293.1,348.3z M168.5,403.4l53.5-92.6l68.8,36.3l-108.4,63.4L168.5,403.4z M369.7,668.1
	L104.3,514.9l48.6-84.2L369.7,547V668.1z M154.6,429.3l28-16.4l188,95l188-95l28,16.4L370.6,545.2L154.6,429.3z M371.6,668.1V547
	l216.8-116.2l48.6,84.2L371.6,668.1z"/>
<g>
	<path d="M495.7,294.4l-2.1,1.2l2.1,1.2l2.1-1.2L495.7,294.4z"/>
</g>
</svg>
