<?xml version="1.0" encoding="utf-8"?>
<!-- Generator: Adobe Illustrator 28.0.0, SVG Export Plug-In . SVG Version: 6.00 Build 0)  -->
<svg version="1.1" id="Layer_1" xmlns:xodm="http://www.corel.com/coreldraw/odm/2003"
	 xmlns="http://www.w3.org/2000/svg" xmlns:xlink="http://www.w3.org/1999/xlink" x="0px" y="0px" viewBox="0 0 720 720"
	 style="enable-background:new 0 0 720 720;" xml:space="preserve">
<style type="text/css">
	.st0{fill:#F6B24A;}
	.st1{opacity:0.5;}
</style>
<path class="st0" d="M253.5,309.3h-42V292h65.2v10.4l-39.3,118.8h-23.5L253.5,309.3z"/>
<path class="st0" d="M287.8,328.9c0-5.6,0.6-10.5,1.7-14.6c1.1-4.1,2.6-7.6,4.5-10.3c1.9-2.8,4-5.1,6.5-6.8c2.5-1.7,5-3,7.6-4
	c2.6-0.9,5.2-1.5,7.8-1.8s5-0.5,7.1-0.5c2.1,0,4.4,0.1,6.9,0.4c2.5,0.3,5.1,0.9,7.7,1.7c2.6,0.9,5.1,2.2,7.5,3.9
	c2.4,1.7,4.6,3.9,6.4,6.8c1.9,2.8,3.4,6.3,4.5,10.4c1.1,4.1,1.7,9.1,1.7,14.8v54.5c0,5.6-0.6,10.5-1.7,14.6
	c-1.1,4.1-2.7,7.6-4.6,10.5c-1.9,2.9-4.1,5.2-6.5,7c-2.4,1.8-5,3.2-7.5,4.2c-2.6,1-5.1,1.6-7.7,2c-2.5,0.4-4.8,0.5-6.8,0.5
	c-2.2,0-4.7-0.2-7.3-0.5c-2.6-0.4-5.2-1-7.9-2c-2.6-1-5.1-2.4-7.6-4.1c-2.4-1.8-4.6-4.1-6.4-7c-1.8-2.9-3.3-6.4-4.4-10.5
	c-1.1-4.1-1.7-9-1.7-14.7V328.9z M309.9,391.7c0,5.3,1.1,9.2,3.2,11.6c2.1,2.4,5.4,3.6,9.8,3.6c4.3,0,7.5-1.2,9.6-3.6
	c2.1-2.4,3.2-6.3,3.2-11.6v-69.9c0-5.6-1.1-9.7-3.2-12.3c-2.1-2.6-5.3-3.8-9.6-3.8c-4.4,0-7.7,1.3-9.8,3.8
	c-2.1,2.6-3.2,6.7-3.2,12.3V391.7z"/>
<path class="st0" d="M406.6,361.7c-3.2,0-6.4-0.4-9.6-1.2c-3.2-0.8-6.1-2.4-8.7-4.7c-2.6-2.3-4.7-5.7-6.3-10c-1.6-4.3-2.4-10-2.4-17
	v-8.1c0-4.6,0.4-8.5,1.2-11.9c0.8-3.3,1.9-6.2,3.2-8.6c1.4-2.4,2.9-4.3,4.7-5.7c1.8-1.5,3.7-2.6,5.7-3.4c2-0.8,4.1-1.4,6.1-1.7
	c2.1-0.3,4.1-0.5,6.1-0.5c1.9,0,3.9,0.1,5.9,0.4c2.1,0.3,4.1,0.8,6.1,1.6c2,0.8,3.9,1.9,5.6,3.4c1.8,1.4,3.3,3.3,4.7,5.7
	c1.3,2.4,2.4,5.2,3.2,8.6c0.8,3.4,1.2,7.4,1.2,12v8.1c0,6.9-0.9,12.5-2.6,16.8c-1.7,4.3-3.9,7.6-6.6,10c-2.6,2.4-5.5,4-8.7,4.8
	C412.3,361.3,409.4,361.7,406.6,361.7z M406.7,349.7c3.5,0,6-1.4,7.4-4.1c1.4-2.7,2.1-7,2.1-12.8v-14.7c0-5.8-0.7-10.1-2.1-12.9
	c-1.4-2.8-3.8-4.2-7.4-4.2c-3.7,0-6.3,1.4-7.7,4.2c-1.5,2.8-2.2,7.1-2.2,12.9v14.7c0,5.8,0.7,10.1,2.2,12.8
	C400.5,348.3,403.1,349.7,406.7,349.7z M457.2,290.6h15.1L434,421.1h-15.2L457.2,290.6z M457.4,381.3c0-6.9,0.8-12.4,2.5-16.6
	c1.7-4.2,3.9-7.4,6.5-9.6c2.6-2.2,5.6-3.7,8.7-4.5c3.2-0.7,6.2-1.1,9.2-1.1c1.9,0,3.9,0.1,5.9,0.4c2.1,0.3,4.1,0.8,6.1,1.6
	c2,0.8,3.9,1.9,5.6,3.4c1.8,1.4,3.3,3.3,4.7,5.7c1.3,2.4,2.4,5.2,3.2,8.6c0.8,3.4,1.2,7.4,1.2,12v8.1c0,4.6-0.4,8.7-1.2,12.1
	c-0.8,3.4-1.9,6.3-3.3,8.8c-1.4,2.4-2.9,4.4-4.7,6c-1.8,1.6-3.7,2.8-5.6,3.7c-2,0.9-4,1.5-6.1,1.9c-2.1,0.3-4,0.5-5.9,0.5
	c-2.1,0-4.3-0.2-6.4-0.5c-2.1-0.3-4.2-0.9-6.2-1.8c-2-0.9-3.8-2.1-5.6-3.6c-1.8-1.6-3.3-3.5-4.6-6c-1.3-2.4-2.3-5.4-3.1-8.8
	c-0.7-3.4-1.1-7.5-1.1-12.2V381.3z M474.5,393.3c0,5.8,0.7,10.1,2.2,12.8c1.5,2.7,4.1,4.1,7.7,4.1c3.5,0,6-1.4,7.4-4.1
	c1.4-2.7,2.1-7,2.1-12.8v-14.7c0-5.8-0.7-10.1-2.1-12.9c-1.4-2.8-3.8-4.2-7.4-4.2c-3.7,0-6.3,1.4-7.7,4.2c-1.5,2.8-2.2,7.1-2.2,12.9
	V393.3z"/>
<g class="st1">
	<circle class="st0" cx="81.3" cy="356.9" r="23.4"/>
</g>
<circle class="st0" cx="361.3" cy="76.9" r="38.8"/>
<g class="st1">
	<circle class="st0" cx="196.7" cy="130.4" r="38.8"/>
</g>
<g class="st1">
	<circle class="st0" cx="95" cy="270.3" r="38.8"/>
</g>
<g class="st1">
	<circle class="st0" cx="95" cy="443.4" r="38.8"/>
</g>
<g class="st1">
	<circle class="st0" cx="196.7" cy="583.3" r="38.8"/>
</g>
<circle class="st0" cx="361.3" cy="636.8" r="38.8"/>
<circle class="st0" cx="525.8" cy="583.3" r="38.8"/>
<circle class="st0" cx="627.5" cy="443.4" r="38.8"/>
<circle class="st0" cx="627.5" cy="270.3" r="38.8"/>
<circle class="st0" cx="525.8" cy="130.4" r="38.8"/>
<g class="st1">
	<circle class="st0" cx="274.8" cy="90.6" r="23.4"/>
</g>
<g class="st1">
	<circle class="st0" cx="134.8" cy="192.3" r="23.4"/>
</g>
<g class="st1">
	<circle class="st0" cx="134.8" cy="521.4" r="23.4"/>
</g>
<circle class="st0" cx="274.8" cy="623.1" r="23.4"/>
<circle class="st0" cx="447.8" cy="623.1" r="23.4"/>
<circle class="st0" cx="587.8" cy="521.4" r="23.4"/>
<circle class="st0" cx="641.2" cy="356.9" r="23.4"/>
<circle class="st0" cx="587.8" cy="192.3" r="23.4"/>
<circle class="st0" cx="447.8" cy="90.6" r="23.4"/>
</svg>
