<?xml version="1.0" encoding="utf-8"?>
<!-- Generator: Adobe Illustrator 28.0.0, SVG Export Plug-In . SVG Version: 6.00 Build 0)  -->
<svg version="1.1" id="Layer_1" xmlns:xodm="http://www.corel.com/coreldraw/odm/2003"
	 xmlns="http://www.w3.org/2000/svg" xmlns:xlink="http://www.w3.org/1999/xlink" x="0px" y="0px" viewBox="0 0 720 720"
	 style="enable-background:new 0 0 720 720;" xml:space="preserve">
<g>
	<circle cx="341.3" cy="173" r="11.5"/>
</g>
<g>
	<circle cx="244.3" cy="256.2" r="11.5"/>
</g>
<g>
	<circle cx="551" cy="265.7" r="11.5"/>
</g>
<g>
	<circle cx="647" cy="357" r="11.5"/>
</g>
<g>
	<circle cx="493.7" cy="276.7" r="11.5"/>
</g>
<g>
	<circle cx="369" cy="263.3" r="11.5"/>
</g>
<g>
	<circle cx="175" cy="308.7" r="11.5"/>
</g>
<g>
	<circle cx="188.4" cy="363.7" r="11.5"/>
</g>
<g>
	<circle cx="199.9" cy="248" r="11.5"/>
</g>
<g>
	<path d="M241.2,221.8c-6.7,0-12.2-5.5-12.2-12.2c0-6.7,5.5-12.2,12.2-12.2c6.7,0,12.2,5.5,12.2,12.2
		C253.4,216.3,247.9,221.8,241.2,221.8z M241.2,198.8c-5.9,0-10.7,4.8-10.7,10.7c0,5.9,4.8,10.7,10.7,10.7s10.7-4.8,10.7-10.7
		C251.9,203.7,247.1,198.8,241.2,198.8z"/>
</g>
<g>
	<path d="M447.1,277.7c-6.7,0-12.2-5.5-12.2-12.2c0-6.7,5.5-12.2,12.2-12.2c6.7,0,12.2,5.5,12.2,12.2
		C459.3,272.2,453.8,277.7,447.1,277.7z M447.1,254.7c-5.9,0-10.7,4.8-10.7,10.7s4.8,10.7,10.7,10.7c5.9,0,10.7-4.8,10.7-10.7
		S453,254.7,447.1,254.7z"/>
</g>
<g>
	<path d="M616.7,338.8c-6.7,0-12.2-5.5-12.2-12.2c0-6.7,5.5-12.2,12.2-12.2c6.7,0,12.2,5.5,12.2,12.2
		C628.9,333.3,623.4,338.8,616.7,338.8z M616.7,315.9c-5.9,0-10.7,4.8-10.7,10.7s4.8,10.7,10.7,10.7s10.7-4.8,10.7-10.7
		S622.6,315.9,616.7,315.9z"/>
</g>
<g>
	<path d="M608.1,419.5c-6.7,0-12.2-5.5-12.2-12.2s5.5-12.2,12.2-12.2c6.7,0,12.2,5.5,12.2,12.2S614.8,419.5,608.1,419.5z
		 M608.1,396.6c-5.9,0-10.7,4.8-10.7,10.7s4.8,10.7,10.7,10.7s10.7-4.8,10.7-10.7S614,396.6,608.1,396.6z"/>
</g>
<g>
	<path d="M139.9,334.5c-6.7,0-12.2-5.5-12.2-12.2s5.5-12.2,12.2-12.2c6.7,0,12.2,5.5,12.2,12.2S146.6,334.5,139.9,334.5z
		 M139.9,311.6c-5.9,0-10.7,4.8-10.7,10.7s4.8,10.7,10.7,10.7s10.7-4.8,10.7-10.7S145.8,311.6,139.9,311.6z"/>
</g>
<g>
	<path d="M85.9,439.6c-6.7,0-12.2-5.5-12.2-12.2s5.5-12.2,12.2-12.2s12.2,5.5,12.2,12.2S92.6,439.6,85.9,439.6z M85.9,416.7
		c-5.9,0-10.7,4.8-10.7,10.7s4.8,10.7,10.7,10.7c5.9,0,10.7-4.8,10.7-10.7S91.8,416.7,85.9,416.7z"/>
</g>
<g>
	<path d="M159,482.1c-6.7,0-12.2-5.5-12.2-12.2c0-6.7,5.5-12.2,12.2-12.2c6.7,0,12.2,5.5,12.2,12.2
		C171.2,476.7,165.7,482.1,159,482.1z M159,459.2c-5.9,0-10.7,4.8-10.7,10.7c0,5.9,4.8,10.7,10.7,10.7c5.9,0,10.7-4.8,10.7-10.7
		C169.8,464,164.9,459.2,159,459.2z"/>
</g>
<g>
	<path d="M197.2,466.8c-6.7,0-12.2-5.5-12.2-12.2c0-6.7,5.5-12.2,12.2-12.2c6.7,0,12.2,5.5,12.2,12.2
		C209.4,461.4,203.9,466.8,197.2,466.8z M197.2,443.9c-5.9,0-10.7,4.8-10.7,10.7c0,5.9,4.8,10.7,10.7,10.7c5.9,0,10.7-4.8,10.7-10.7
		C208,448.7,203.2,443.9,197.2,443.9z"/>
</g>
<g>
	<path d="M257.4,408.1c-6.7,0-12.2-5.5-12.2-12.2c0-6.7,5.5-12.2,12.2-12.2c6.7,0,12.2,5.5,12.2,12.2
		C269.6,402.6,264.1,408.1,257.4,408.1z M257.4,385.2c-5.9,0-10.7,4.8-10.7,10.7c0,5.9,4.8,10.7,10.7,10.7c5.9,0,10.7-4.8,10.7-10.7
		C268.2,390,263.3,385.2,257.4,385.2z"/>
</g>
<g>
	<path d="M369.2,403.3c-6.7,0-12.2-5.5-12.2-12.2c0-6.7,5.5-12.2,12.2-12.2c6.7,0,12.2,5.5,12.2,12.2
		C381.4,397.8,375.9,403.3,369.2,403.3z M369.2,380.4c-5.9,0-10.7,4.8-10.7,10.7s4.8,10.7,10.7,10.7c5.9,0,10.7-4.8,10.7-10.7
		S375.1,380.4,369.2,380.4z"/>
</g>
<g>
	<path d="M367.8,484c-6.7,0-12.2-5.5-12.2-12.2c0-6.7,5.5-12.2,12.2-12.2s12.2,5.5,12.2,12.2C380,478.6,374.5,484,367.8,484z
		 M367.8,461.1c-5.9,0-10.7,4.8-10.7,10.7c0,5.9,4.8,10.7,10.7,10.7s10.7-4.8,10.7-10.7C378.5,465.9,373.7,461.1,367.8,461.1z"/>
</g>
<g>
	<path d="M392.1,459.2c-6.7,0-12.2-5.5-12.2-12.2s5.5-12.2,12.2-12.2s12.2,5.5,12.2,12.2S398.9,459.2,392.1,459.2z M392.1,436.3
		c-5.9,0-10.7,4.8-10.7,10.7s4.8,10.7,10.7,10.7s10.7-4.8,10.7-10.7S398.1,436.3,392.1,436.3z"/>
</g>
<g>
	<path d="M507.3,487.4c-6.7,0-12.2-5.5-12.2-12.2s5.5-12.2,12.2-12.2c6.7,0,12.2,5.5,12.2,12.2S514,487.4,507.3,487.4z M507.3,464.5
		c-5.9,0-10.7,4.8-10.7,10.7s4.8,10.7,10.7,10.7c5.9,0,10.7-4.8,10.7-10.7S513.2,464.5,507.3,464.5z"/>
</g>
<g>
	<path d="M341.3,198.1c-13.8,0-25.1-11.3-25.1-25.1s11.3-25.1,25.1-25.1s25.1,11.3,25.1,25.1S355.1,198.1,341.3,198.1z M341.3,149.4
		c-13,0-23.6,10.6-23.6,23.6s10.6,23.6,23.6,23.6s23.6-10.6,23.6-23.6S354.3,149.4,341.3,149.4z"/>
</g>
<g>
	<path d="M369.2,298.2c-19.1,0-34.6-15.5-34.6-34.6s15.5-34.6,34.6-34.6c19.1,0,34.6,15.5,34.6,34.6S388.3,298.2,369.2,298.2z
		 M369.2,230.4c-18.3,0-33.2,14.9-33.2,33.2s14.9,33.2,33.2,33.2c18.3,0,33.2-14.9,33.2-33.2S387.5,230.4,369.2,230.4z"/>
</g>
<g>
	<path d="M369.2,288.6c-13.8,0-25.1-11.3-25.1-25.1c0-13.8,11.3-25.1,25.1-25.1s25.1,11.3,25.1,25.1
		C394.3,277.4,383,288.6,369.2,288.6z M369.2,239.9c-13,0-23.6,10.6-23.6,23.6c0,13,10.6,23.6,23.6,23.6s23.6-10.6,23.6-23.6
		C392.9,250.5,382.3,239.9,369.2,239.9z"/>
</g>
<g>
	<circle cx="562.5" cy="423.8" r="11.5"/>
</g>
<g>
	<path d="M562.7,449.2c-13.8,0-25.1-11.3-25.1-25.1c0-13.8,11.3-25.1,25.1-25.1c13.8,0,25.1,11.3,25.1,25.1
		C587.8,437.9,576.5,449.2,562.7,449.2z M562.7,400.4c-13,0-23.6,10.6-23.6,23.6c0,13,10.6,23.6,23.6,23.6s23.6-10.6,23.6-23.6
		C586.3,411,575.7,400.4,562.7,400.4z"/>
</g>
<g>
	<path d="M188.6,398.5c-19.1,0-34.6-15.5-34.6-34.6c0-19.1,15.5-34.6,34.6-34.6s34.6,15.5,34.6,34.6
		C223.3,383,207.7,398.5,188.6,398.5z M188.6,330.7c-18.3,0-33.2,14.9-33.2,33.2c0,18.3,14.9,33.2,33.2,33.2s33.2-14.9,33.2-33.2
		C221.8,345.6,206.9,330.7,188.6,330.7z"/>
</g>
<g>
	<path d="M188.6,389c-13.8,0-25.1-11.3-25.1-25.1c0-13.8,11.3-25.1,25.1-25.1c13.8,0,25.1,11.3,25.1,25.1
		C213.7,377.7,202.5,389,188.6,389z M188.6,340.2c-13,0-23.6,10.6-23.6,23.6c0,13,10.6,23.6,23.6,23.6c13,0,23.6-10.6,23.6-23.6
		C212.3,350.9,201.7,340.2,188.6,340.2z"/>
</g>
<g>
	<circle cx="295.4" cy="486" r="11.5"/>
</g>
<g>
	<path d="M295.6,511.3c-13.8,0-25.1-11.3-25.1-25.1s11.3-25.1,25.1-25.1c13.8,0,25.1,11.3,25.1,25.1S309.5,511.3,295.6,511.3z
		 M295.6,462.5c-13,0-23.6,10.6-23.6,23.6s10.6,23.6,23.6,23.6c13,0,23.6-10.6,23.6-23.6S308.7,462.5,295.6,462.5z"/>
</g>
<g>
	<rect x="293.4" y="201.7" transform="matrix(0.7071 -0.7071 0.7071 0.7071 -51.9865 279.2715)" width="35.4" height="1.4"/>
</g>
<g>
	<polygon points="268.7,307 260.5,298.7 275.3,283.9 253.3,261.9 254.3,260.9 277.3,283.9 262.5,298.7 268.7,304.9 291.3,282.4 
		291.3,263.6 318.8,236.1 292.3,209.7 318.9,183 320,184.1 294.3,209.7 320.8,236.1 292.7,264.2 292.7,283 	"/>
</g>
<g>
	<rect x="299.1" y="207.1" transform="matrix(0.7071 -0.7071 0.7071 0.7071 -53.8925 285.4783)" width="37" height="1.4"/>
</g>
<g>
	<polygon points="274.1,339.6 242.6,307.5 266.9,283.2 249.7,266 250.8,265 268.9,283.2 244.6,307.5 275.1,338.5 	"/>
</g>
<g>
	<polygon points="279.8,334.8 252.1,307 261,298.2 262,299.2 254.1,307 280.9,333.8 	"/>
</g>
<g>
	<polygon points="301.6,254.3 292.1,244.7 283,253.9 263.9,234.7 263.9,205.4 255.4,196.9 250,202.2 249,201.2 255.4,194.8 
		265.3,204.8 265.3,234.1 283,251.8 292.1,242.7 302.6,253.3 	"/>
</g>
<g>
	<polygon points="183.1,301.2 182,300.2 200.3,282 217.5,282 243.8,255.7 244.8,256.7 218.1,283.4 200.9,283.4 	"/>
</g>
<g>
	<polygon points="200.1,283.2 181,264.1 190.5,254.6 191.5,255.6 183,264.1 201.1,282.2 	"/>
</g>
<g>
	<rect x="139.9" y="292.2" transform="matrix(0.7071 -0.7071 0.7071 0.7071 -157.5648 205.5016)" width="58.8" height="1.4"/>
</g>
<g>
	<polygon points="95.1,420.5 94.1,419.4 121.4,392.1 137.1,392.1 149.2,404.2 164.7,388.7 165.7,389.7 149.2,406.2 136.5,393.5 
		122,393.5 	"/>
</g>
<g>
	<polygon points="168.1,462.4 167.1,461.3 175,453.5 156.1,434.6 167.4,423.3 189.6,445.6 188.6,446.6 167.4,425.3 158.1,434.6 
		177,453.5 	"/>
</g>
<g>
	<polygon points="156.8,435.3 133.6,411.8 144.2,401.1 145.2,402.1 135.7,411.8 157.8,434.3 	"/>
</g>
<g>
	<polygon points="250.3,364.6 222.8,364.6 222.8,363.2 249.8,363.2 280,333 372.1,333 395.5,356.3 636.3,356.3 636.3,357.8 
		394.9,357.8 371.5,334.4 280.5,334.4 	"/>
</g>
<g>
	<polygon points="266.4,388.8 265.4,387.7 274.4,378.7 295.5,378.7 340.9,333.3 341.9,334.4 296.1,380.2 275,380.2 	"/>
</g>
<g>
	<rect x="255.7" y="357.5" width="61.3" height="1.4"/>
</g>
<g>
	<rect x="262" y="351.3" width="61.8" height="1.4"/>
</g>
<g>
	<rect x="268.2" y="345.1" width="62.3" height="1.4"/>
</g>
<g>
	<rect x="274.4" y="338.8" width="61.3" height="1.4"/>
</g>
<g>
	<polygon points="305.8,333.2 304.3,333.2 304.3,290.6 341.1,290.6 344.8,286.9 345.8,288 341.7,292 305.8,292 	"/>
</g>
<g>
	<polygon points="311.2,320.7 309.7,320.7 309.7,295.8 334.3,295.8 334.3,297.2 311.2,297.2 	"/>
</g>
<g>
	<polygon points="396.7,350.3 374.6,328.3 329.1,328.3 329.1,326.9 375.2,326.9 397.7,349.3 	"/>
</g>
<g>
	<polygon points="416.7,357.6 372.4,313.3 456.4,313.3 485.5,284.3 486.5,285.3 457,314.8 375.9,314.8 417.7,356.5 	"/>
</g>
<g>
	<rect x="392.5" y="293.3" transform="matrix(0.7071 -0.7071 0.7071 0.7071 -84.8943 383.0837)" width="55" height="1.4"/>
</g>
<g>
	<rect x="394.8" y="287.7" transform="matrix(0.7072 -0.707 0.707 0.7072 -83.706 377.0996)" width="37.2" height="3.8"/>
</g>
<g>
	<rect x="387.2" y="280" transform="matrix(0.7072 -0.707 0.707 0.7072 -80.5398 369.4568)" width="37.2" height="3.8"/>
</g>
<g>
	<line x1="390.7" y1="330.6" x2="475.5" y2="330.6"/>
	<rect x="390.7" y="329.9" width="84.8" height="1.4"/>
</g>
<g>
	<line x1="396.2" y1="335.9" x2="475.5" y2="335.9"/>
	<rect x="396.2" y="335.1" width="79.3" height="1.4"/>
</g>
<g>
	<line x1="401" y1="341.1" x2="475.5" y2="341.1"/>
	<rect x="401" y="340.4" width="74.5" height="1.4"/>
</g>
<g>
	<line x1="406.5" y1="346.4" x2="475.5" y2="346.4"/>
	<rect x="406.5" y="345.7" width="69" height="1.4"/>
</g>
<g>
	<polygon points="514.1,357 512.6,357 512.6,330.3 547.2,295.7 547.2,276.2 548.7,276.2 548.7,296.3 514.1,330.9 	"/>
</g>
<g>
	<polygon points="520.7,357 519.3,357 519.3,332.7 553.9,298.1 553.9,275.7 555.3,275.7 555.3,298.7 520.7,333.3 	"/>
</g>
<g>
	<polygon points="555.9,357.6 554.9,356.5 568.8,342.7 568.8,325.7 605.1,325.7 605.1,327.1 570.2,327.1 570.2,343.3 	"/>
</g>
<g>
	<polygon points="281.4,466.1 280,466.1 280,433.5 335,378.5 315.9,359.4 316.9,358.4 337,378.5 281.4,434.1 	"/>
</g>
<g>
	<polygon points="358.9,464.5 327.1,432.6 319.3,440.3 280.4,440.3 280.4,438.9 318.8,438.9 327.1,430.6 359.9,463.5 	"/>
</g>
<g>
	<rect x="240.7" y="403.2" transform="matrix(0.7071 -0.7071 0.7071 0.7071 -202.8802 317.981)" width="83.4" height="1.4"/>
</g>
<g>
	<rect x="286.6" y="393.2" transform="matrix(0.7071 -0.7071 0.7071 0.7071 -189.9745 331.1626)" width="36.4" height="3.3"/>
</g>
<g>
	<polygon points="392.4,435.1 390.9,435.1 390.9,413.3 430.5,413.3 430.5,391.8 380.7,391.8 380.7,390.4 431.9,390.4 431.9,414.8 
		392.4,414.8 	"/>
</g>
<g>
	<polygon points="507.8,463.3 506.4,463.3 506.4,406.4 491.8,391.8 468.3,391.8 468.3,357 469.7,357 469.7,390.4 492.4,390.4 
		507.8,405.8 	"/>
</g>
<g>
	<polygon points="538.3,424.8 519.5,424.8 519.5,381.7 532.4,368.9 532.4,357 533.8,357 533.8,369.4 520.9,382.3 520.9,423.4 
		538.3,423.4 	"/>
</g>
<g>
	<polygon points="599.9,399.4 575,374.5 561.1,374.5 544.1,357.6 545.2,356.5 561.7,373.1 575.6,373.1 600.9,398.4 	"/>
</g>
<g>
	<polygon points="476.2,414.8 431.2,414.8 431.2,413.3 474.8,413.3 474.8,391.4 476.2,391.4 	"/>
</g>
</svg>
