<?xml version="1.0" encoding="utf-8"?>
<!-- Generator: Adobe Illustrator 28.0.0, SVG Export Plug-In . SVG Version: 6.00 Build 0)  -->
<svg version="1.1" id="Layer_1" xmlns:xodm="http://www.corel.com/coreldraw/odm/2003"
	 xmlns="http://www.w3.org/2000/svg" xmlns:xlink="http://www.w3.org/1999/xlink" x="0px" y="0px" viewBox="0 0 720 720"
	 style="enable-background:new 0 0 720 720;" xml:space="preserve">
<style type="text/css">
	.st0{fill-rule:evenodd;clip-rule:evenodd;fill:none;stroke:#000000;stroke-width:9.3268;stroke-miterlimit:10;}
</style>
<path class="st0" d="M281.9,603.6l-9.8-16.9H451l-9.8,16.9c-9.9,17.1-28.1,27.6-47.8,27.6h-63.7C310,631.2,291.7,620.7,281.9,603.6z
	"/>
<polygon class="st0" points="324.8,558.8 256,558.8 90.6,272.3 125.7,213.9 "/>
<polygon class="st0" points="324.8,558.8 256,558.8 90.6,272.3 125.7,213.9 "/>
<path class="st0" d="M168.4,88.8l-55.9,92.7l-37.9,63.1l-14.1-24.4c-10.1-17.4-9.9-38.9,0.5-56.1l29.2-48.6
	c10-16.6,27.9-26.7,47.3-26.7H168.4z"/>
<polygon class="st0" points="556.8,148.4 165.2,148.4 201,88.8 520.9,88.8 "/>
<polygon class="st0" points="556.8,148.4 165.2,148.4 201,88.8 520.9,88.8 "/>
<polygon class="st0" points="398.3,558.8 596.8,215 631.9,273.3 467.1,558.8 "/>
<path class="st0" d="M597.9,162.2l-5.7-9.4l-38.5-64.1h25.5c19.4,0,37.3,10.1,47.3,26.7l32.6,54.1c10.4,17.2,10.5,38.7,0.5,56.1
	L648,245.6L597.9,162.2z"/>
</svg>
