<?xml version="1.0" encoding="utf-8"?>
<!-- Generator: Adobe Illustrator 28.0.0, SVG Export Plug-In . SVG Version: 6.00 Build 0)  -->
<svg version="1.1" id="Layer_1" xmlns:xodm="http://www.corel.com/coreldraw/odm/2003"
	 xmlns="http://www.w3.org/2000/svg" xmlns:xlink="http://www.w3.org/1999/xlink" x="0px" y="0px" viewBox="0 0 720 720"
	 style="enable-background:new 0 0 720 720;" xml:space="preserve">
<style type="text/css">
	.st0{fill:#C10C0C;}
	.st1{fill:none;}
	.st2{fill-rule:evenodd;clip-rule:evenodd;fill:#C10C0C;}
	.st3{fill-rule:evenodd;clip-rule:evenodd;fill:#FFFFFF;}
	.st4{fill:#FFFFFF;}
</style>
<g>
	<polygon points="667.6,253.4 667.6,470.1 625.7,512 527.3,512 446.4,431.2 59.8,431.2 59.8,253.4 423.8,253.4 409.3,267.9 
		416.2,274.8 437.5,253.4 454.5,253.4 440,267.9 446.9,274.8 468.2,253.4 485.2,253.4 470.7,267.9 477.6,274.8 499,253.4 
		515.9,253.4 501.4,267.9 508.3,274.8 529.7,253.4 546.7,253.4 532.2,267.9 539,274.8 560.4,253.4 577.4,253.4 562.9,267.9 
		569.7,274.8 591.1,253.4 608.1,253.4 593.6,267.9 600.5,274.8 621.8,253.4 	"/>
</g>
<g>
	<path d="M432.3,431.2"/>
</g>
<polygon class="st0" points="118.2,439.2 150.2,471.2 130.4,471.2 98.5,439.2 "/>
<polygon class="st0" points="180.9,471.2 163.9,471.2 132,439.2 148.9,439.2 "/>
<polygon class="st0" points="179.7,439.2 211.6,471.2 194.7,471.2 162.7,439.2 "/>
<polygon class="st0" points="210.4,439.2 242.4,471.2 225.4,471.2 193.4,439.2 "/>
<polygon class="st0" points="241.1,439.2 273.1,471.2 256.1,471.2 224.1,439.2 "/>
<polygon class="st0" points="271.8,439.2 303.8,471.2 286.8,471.2 254.8,439.2 "/>
<polygon class="st0" points="514.6,512 477.5,512 436.7,471.2 317.5,471.2 285.5,439.2 441.8,439.2 "/>
<polygon class="st0" points="360.8,214.3 59.8,212.9 59.8,253.6 400.9,253.6 "/>
<path class="st1" d="M413.8,258.1"/>
<path class="st2" d="M584.4,497.1c20.6,0.2,43.3-48.6,45.8-66.2c3.9-26.9-5.1-54.2-33.7-63.7c-8.1-2.7-18.7-2.7-26.9,1
	c-24.7,11-33.7,34.1-31.2,58.6C540.4,445.2,563.1,496.9,584.4,497.1L584.4,497.1z"/>
<path class="st3" d="M624.2,425.4c-7.7,0.2-30.5,11.2-33,29.5c0,0.7,0.6,0.9,1.3,1.1c19.9,4.4,29.9-9.3,32.5-27.5
	C625.1,427.8,625.3,425.3,624.2,425.4z"/>
<path class="st3" d="M544.9,425.4c7.7,0.2,30.5,11.2,33,29.5c0,0.7-0.6,0.9-1.3,1.1c-19.9,4.4-29.9-9.3-32.5-27.5
	C544,427.8,543.7,425.4,544.9,425.4L544.9,425.4z"/>
<path class="st4" d="M111.6,336.7l-7.3,23.3h-8.6l11.1-35.5h9.6l11.1,35.5h-8.7L111.6,336.7z"/>
<path class="st4" d="M138.5,324.5v26.6h20v8.9h-28.9v-35.5H138.5z"/>
<path class="st4" d="M173.7,360v-35.5h28.8v8.9h-20v4.4h20v8.9h-20v4.4h20v8.9L173.7,360L173.7,360z"/>
<path class="st4" d="M206.6,324.5h8.2l14,24.1v-24.1h8.9V360h-10.4l-11.8-20.3V360h-8.9V324.5z"/>
<path class="st4" d="M250.5,333.4v4.4h15.6l4.4,4.4v13.3l-4.4,4.4h-24.5V351h20v-4.4H246l-4.4-4.4v-13.3l4.4-4.4h24.5v8.9
	L250.5,333.4L250.5,333.4z"/>
<path class="st4" d="M301.4,336.7l-7.3,23.3h-8.6l11.1-35.5h9.6l11.1,35.5h-8.6L301.4,336.7z"/>
<path class="st4" d="M323.4,360l-4.4-4.4V329l4.4-4.4h20l4.4,4.4v8.9h-8.9v-4.4h-11.1v17.7h11.1v-4.4h8.9v8.9l-4.4,4.5h-20V360z"/>
<path class="st4" d="M362,333.4h-10.4v-8.9h28.8v8.9h-9.6V360H362V333.4z"/>
<path class="st4" d="M393.2,324.5V360h-8.9v-35.5H393.2z"/>
<path class="st4" d="M170,324.5V360h-8.9v-35.5H170z"/>
<path class="st4" d="M404.2,324.5l7,22.5l7-22.5h8.9L416,360h-9.6l-11.1-35.5H404.2z"/>
<path class="st4" d="M438.3,324.5V360h-8.9v-35.5H438.3z"/>
<path class="st4" d="M452.4,333.4H442v-8.9h28.8v8.9h-9.6V360h-8.8V333.4z"/>
<path class="st4" d="M483.3,342.2l-11.1-17.7h8.9l6.6,10.6l6.2-10.6h8.6l-10.4,17.7V360h-8.9L483.3,342.2L483.3,342.2z"/>
</svg>
