<?xml version="1.0" encoding="utf-8"?>
<!-- Generator: Adobe Illustrator 28.0.0, SVG Export Plug-In . SVG Version: 6.00 Build 0)  -->
<svg version="1.1" id="Layer_1" xmlns:xodm="http://www.corel.com/coreldraw/odm/2003"
	 xmlns="http://www.w3.org/2000/svg" xmlns:xlink="http://www.w3.org/1999/xlink" x="0px" y="0px" viewBox="0 0 720 720"
	 style="enable-background:new 0 0 720 720;" xml:space="preserve">
<style type="text/css">
	.st0{fill:#FFD93E;}
	.st1{fill:#FFFFFF;stroke:#000000;stroke-width:3.3784;stroke-miterlimit:10;}
	.st2{fill:none;stroke:#000000;stroke-width:3.3784;stroke-miterlimit:10;}
	.st3{fill-rule:evenodd;clip-rule:evenodd;fill:#FFD93E;}
	.st4{fill-rule:evenodd;clip-rule:evenodd;fill:#F9F9F9;}
	.st5{fill-rule:evenodd;clip-rule:evenodd;}
</style>
<path class="st0" d="M642.2,457.1H69.4c-7.9,0-14.4-6.4-14.4-14.4V241.4c0-7.9,6.4-14.4,14.4-14.4h572.8c7.9,0,14.4,6.4,14.4,14.4
	v201.3C656.6,450.6,650.1,457.1,642.2,457.1z"/>
<rect x="84" y="255.9" class="st1" width="543.6" height="172.2"/>
<line class="st2" x1="254.3" y1="255.9" x2="254.3" y2="428.1"/>
<path class="st3" d="M159.4,279.8c2.4-4.2,8.4-4.2,10.8,0l32.8,56.7l33.2,57.5c2.2,3.8-0.5,8.6-5,8.6h-66.3H98.4
	c-4.4,0-7.2-4.8-5-8.6l33.2-57.5L159.4,279.8z"/>
<path class="st4" d="M231.9,395.4l-32.7-56.7l-32.7-56.7c-0.7-1.3-2.6-1.3-3.3,0l-32.7,56.7l-32.7,56.7c-0.7,1.3,0.2,2.9,1.7,2.9
	h65.4h65.4C231.7,398.3,232.6,396.7,231.9,395.4z M229.6,397h-64.9H99.9c-0.7,0-1.1-0.7-0.7-1.3l32.4-56.2l32.4-56.2
	c0.3-0.6,1.1-0.6,1.5,0l32.4,56.2l32.4,56.2C230.7,396.3,230.3,397,229.6,397z"/>
<path class="st5" d="M231.9,395.4l-32.7-56.7l-32.8-56.7c-0.7-1.3-2.6-1.3-3.3,0l-32.7,56.7l-32.7,56.7c-0.7,1.3,0.2,2.9,1.7,2.9
	l65.4,0l65.4,0C231.7,398.3,232.6,396.7,231.9,395.4z M228.1,395.7h-63.4h-63.4c-0.6,0-1.1-0.7-0.7-1.2l31.7-54.9l31.7-54.9
	c0.3-0.6,1.1-0.6,1.4,0l31.7,54.9l31.7,54.8C229.1,395,228.7,395.7,228.1,395.7z"/>
<path class="st5" d="M164.3,342.2c-8.6,0-15.6,7-15.6,15.6c0,8.6,7,15.6,15.6,15.6s15.6-7,15.6-15.6
	C179.9,349.2,172.9,342.2,164.3,342.2z M164.4,370.4c-6.9,0-12.6-5.6-12.6-12.6c0-6.9,5.6-12.6,12.6-12.6c6.9,0,12.6,5.6,12.6,12.6
	C176.9,364.7,171.3,370.4,164.4,370.4z"/>
<path class="st5" d="M164.3,377.4L164.3,377.4L164.3,377.4c5.8,8.9,16.8,11.6,26.1,6.4c-7.9,3-17.5-1.5-20.7-9.6
	c-1.1-2.8-0.4-8.7,1.1-11.8c-3-2.1-4.8-3-6.6-2.8c-1.8-0.1-3.6,0.8-6.5,2.9c1.5,3.1,2.3,9,1.2,11.8c-3.1,8.2-12.7,12.8-20.6,9.9
	C147.7,389.2,158.6,386.4,164.3,377.4z"/>
<path class="st5" d="M181.3,348.3C181.3,348.3,181.3,348.3,181.3,348.3C181.3,348.3,181.3,348.3,181.3,348.3
	c4.9-9.5,1.8-20.3-7.3-25.9c6.5,5.3,7.4,15.9,1.8,22.8c-1.9,2.3-7.4,4.7-10.8,4.9c-0.3,3.6-0.2,5.6,0.8,7.1c0.8,1.6,2.5,2.7,5.8,4.2
	c1.9-2.9,6.7-6.4,9.7-6.9c8.7-1.3,17.4,4.7,18.7,13C199.7,356.9,191.9,348.8,181.3,348.3z"/>
<path class="st5" d="M147.5,348.3L147.5,348.3C147.5,348.3,147.5,348.3,147.5,348.3c-10.6,0.5-18.5,8.6-18.7,19.3
	c1.4-8.3,10.1-14.3,18.7-13c2.9,0.5,7.7,4,9.7,6.9c3.3-1.6,4.9-2.6,5.8-4.2c1-1.5,1.1-3.5,0.8-7.1c-3.4-0.2-9-2.6-10.8-4.9
	c-5.5-6.8-4.6-17.4,1.8-22.8C145.7,328,142.6,338.8,147.5,348.3z"/>
<path d="M267.8,365.5v-46.7H300l5.9,5.9v11.7l-5.9,5.9l5.9,5.9v11.6l-5.9,5.9H267.8z M279.5,330.5v5.9h14.6v-5.9H279.5z M279.5,348
	v5.8h14.6V348H279.5z"/>
<path d="M323.2,318.8v46.7h-11.7v-46.7H323.2z"/>
<path d="M334,365.6l-5.9-5.9v-35l5.9-5.9h26.3l5.9,5.9v35l-5.9,5.9H334z M339.8,330.5v23.3h14.6v-23.3H339.8z"/>
<path d="M383.4,348v17.6h-11.7v-46.7h11.7v17.5H398v-17.5h11.7v46.7H398V348H383.4z"/>
<path d="M432.1,334.9l-9.6,30.6h-11.3l14.6-46.7h12.6l14.6,46.7h-11.3L432.1,334.9z"/>
<path d="M453.9,365.6l20-35h-20v-11.7h38l-20,35h20v11.7H453.9z"/>
<path d="M512.6,334.9l-9.6,30.6h-11.3l14.6-46.7h12.6l14.6,46.7h-11.3L512.6,334.9z"/>
<path d="M548.1,348v17.6h-11.7v-46.7h32.1l5.9,5.9v17.5l-5.9,5.9h-4.4l10.2,17.6h-11.7L552.4,348H548.1z M548.1,330.5v5.8h14.6v-5.8
	H548.1z"/>
<path d="M579.4,365.5v-46.7h32.2l5.9,5.9v35l-5.9,5.9H579.4z M591.1,330.5v23.3h14.6v-23.3H591.1z"/>
</svg>
