<?xml version="1.0" encoding="utf-8"?>
<!-- Generator: Adobe Illustrator 28.0.0, SVG Export Plug-In . SVG Version: 6.00 Build 0)  -->
<svg version="1.1" id="Layer_1" xmlns:xodm="http://www.corel.com/coreldraw/odm/2003"
	 xmlns="http://www.w3.org/2000/svg" xmlns:xlink="http://www.w3.org/1999/xlink" x="0px" y="0px" viewBox="0 0 720 720"
	 style="enable-background:new 0 0 720 720;" xml:space="preserve">
<style type="text/css">
	.st0{fill-rule:evenodd;clip-rule:evenodd;fill:#C10C0C;}
	.st1{fill-rule:evenodd;clip-rule:evenodd;fill:#F9F9F9;}
	.st2{fill-rule:evenodd;clip-rule:evenodd;fill:#FFFFFF;}
	.st3{fill:#C10C0C;stroke:#C10C0C;stroke-miterlimit:10;}
</style>
<path class="st0" d="M337.1,68c9.4-16.4,33-16.4,42.4,0l129,223.3l130.5,226.1c8.7,15.1-2.2,33.9-19.5,33.9H358.3H97.2
	c-17.4,0-28.3-18.8-19.5-33.9l130.5-226.1L337.1,68z"/>
<path class="st1" d="M622.3,523.1l-128.8-223l-128.8-223c-2.9-5-10.1-5-13.1,0L223,300.2l-128.8,223c-2.9,5,0.8,11.3,6.5,11.3h257.5
	h257.5C621.6,534.5,625.2,528.2,622.3,523.1z M613.6,529.4H358.3H102.9c-2.6,0-4.2-2.8-2.9-5l127.7-221.1L355.3,82.1
	c1.3-2.3,4.5-2.3,5.8,0l127.7,221.1l127.7,221.1C617.8,526.5,616.2,529.4,613.6,529.4z"/>
<path class="st2" d="M362.2,307.1l74.2-2l-62.2,205.7c0,0-0.7-171-0.9-171.2c-0.1-0.1-74.2,1.4-74.2,1.4l59.3-216.1"/>
<polygon class="st3" points="449.7,176.6 558.7,42.2 471.7,174.3 557.3,104.9 553,130.4 663.1,54 573.9,151.7 594.7,151.2 
	525.1,199.2 547.9,200.3 497.5,242.6 673.8,154.9 499.6,261 "/>
<polygon class="st3" points="510.8,282 595.2,236.4 522.9,298.9 656.8,246.4 584.5,294.6 685.3,260.4 594.9,317.4 680,295 
	553.1,352 601.2,356.5 559.7,365.7 "/>
<polygon class="st3" points="269.9,170.5 252.7,146.6 260.6,188.7 "/>
<polygon class="st3" points="254.1,202.7 146,55.7 228.1,190.9 145.4,121 146.2,148.3 42.4,67.3 128.5,165.4 108,166.8 178.4,216.1 
	153,214.8 207.7,262.2 28.5,165.2 208.5,279.6 "/>
<polygon class="st3" points="196.8,298.4 109,249.4 182,311.4 49.2,259.4 123.8,307.4 18,274 114.8,332.2 25.5,307.7 155.4,366 
	105.4,370 149.9,381.3 "/>
<polygon class="st3" points="217.8,557.9 105,658.7 236,561.6 216.7,583.8 239.6,580.1 188,622.3 209.4,622.3 135.6,711.1 
	226.2,634.5 226.9,663.8 300.4,584.9 237.5,709.7 323,575 323,656.2 356.8,583.4 392.4,652.9 390.6,571.4 478,711.1 416.8,585.9 
	491.4,660.5 489.6,634.5 580.9,708.2 510.7,622.3 526.3,622 479.4,580.1 495.1,581.9 478.7,563.4 604.6,652.9 500.1,557.9 "/>
</svg>
