<?xml version="1.0" encoding="utf-8"?>
<!-- Generator: Adobe Illustrator 28.0.0, SVG Export Plug-In . SVG Version: 6.00 Build 0)  -->
<svg version="1.1" id="Layer_1" xmlns:xodm="http://www.corel.com/coreldraw/odm/2003"
	 xmlns="http://www.w3.org/2000/svg" xmlns:xlink="http://www.w3.org/1999/xlink" x="0px" y="0px" viewBox="0 0 720 720"
	 style="enable-background:new 0 0 720 720;" xml:space="preserve">
<style type="text/css">
	.st0{fill:none;stroke:#FFFFFF;stroke-width:1.3184;stroke-miterlimit:10;}
</style>
<polygon points="663.3,334 663.3,338.2 590,265 594.2,265 "/>
<polygon points="663.3,382.9 594.2,452 98.6,452 98.6,265 545.3,265 "/>
<polygon points="79.8,452 59.8,419.7 59.8,288.9 79.8,265 "/>
<polygon points="93.5,260.1 93.5,456.9 170.9,456.9 170.9,465.1 85.3,465.1 85.3,251.9 170.9,251.9 170.9,260.1 "/>
<polygon points="663.3,334 663.3,338.2 590,265 594.2,265 "/>
<polygon points="663.3,341.7 663.3,345.9 582.3,265 586.5,265 "/>
<polygon points="663.3,349.7 663.3,354 574.3,265 578.5,265 "/>
<polygon points="663.3,357.8 663.3,362 566.2,265 570.4,265 "/>
<polygon points="663.3,365.9 663.3,370.1 558.2,265 562.4,265 "/>
<polygon points="663.3,373.9 663.3,378.1 550.1,265 554.3,265 "/>
<line class="st0" x1="582.3" y1="392.8" x2="130.2" y2="392.8"/>
</svg>
