<?xml version="1.0" encoding="utf-8"?>
<!-- Generator: Adobe Illustrator 28.0.0, SVG Export Plug-In . SVG Version: 6.00 Build 0)  -->
<svg version="1.1" id="Layer_1" xmlns:xodm="http://www.corel.com/coreldraw/odm/2003"
	 xmlns="http://www.w3.org/2000/svg" xmlns:xlink="http://www.w3.org/1999/xlink" x="0px" y="0px" viewBox="0 0 720 720"
	 style="enable-background:new 0 0 720 720;" xml:space="preserve">
<style type="text/css">
	.st0{fill:#F6B24A;}
	.st1{opacity:0.5;}
</style>
<g>
	<path class="st0" d="M671.2,372.8H48.7c-5.9,0-10.7-4.8-10.7-10.7v-43c0-5.9,4.8-10.7,10.7-10.7h622.4c5.9,0,10.7,4.8,10.7,10.7v43
		C681.9,367.9,677.1,372.8,671.2,372.8z M48.7,313.6c-3,0-5.5,2.5-5.5,5.5v43c0,3,2.5,5.5,5.5,5.5h622.4c3,0,5.5-2.5,5.5-5.5v-43
		c0-3-2.5-5.5-5.5-5.5H48.7z"/>
</g>
<g>
	<g>
		<rect x="46.1" y="315" class="st0" width="8.6" height="51.2"/>
	</g>
</g>
<g>
	<g>
		<rect x="56.5" y="315" class="st0" width="8.6" height="51.2"/>
	</g>
</g>
<g>
	<g>
		<rect x="67" y="315" class="st0" width="8.6" height="51.2"/>
	</g>
</g>
<g>
	<g>
		<rect x="77.5" y="315" class="st0" width="8.6" height="51.2"/>
	</g>
</g>
<g>
	<g>
		<rect x="88" y="315" class="st0" width="8.6" height="51.2"/>
	</g>
</g>
<g>
	<g>
		<rect x="98.5" y="315" class="st0" width="8.6" height="51.2"/>
	</g>
</g>
<g>
	<g>
		<rect x="109" y="315" class="st0" width="8.6" height="51.2"/>
	</g>
</g>
<g>
	<g>
		<rect x="119.5" y="315" class="st0" width="8.6" height="51.2"/>
	</g>
</g>
<g>
	<g>
		<rect x="130" y="315" class="st0" width="8.6" height="51.2"/>
	</g>
</g>
<g>
	<g>
		<rect x="140.5" y="315" class="st0" width="8.6" height="51.2"/>
	</g>
</g>
<g>
	<g>
		<rect x="151" y="315" class="st0" width="8.6" height="51.2"/>
	</g>
</g>
<g>
	<g>
		<rect x="161.5" y="315" class="st0" width="8.6" height="51.2"/>
	</g>
</g>
<g>
	<g>
		<rect x="171.9" y="315" class="st0" width="8.6" height="51.2"/>
	</g>
</g>
<g>
	<g>
		<rect x="182.4" y="315" class="st0" width="8.6" height="51.2"/>
	</g>
</g>
<g>
	<g>
		<rect x="192.9" y="315" class="st0" width="8.6" height="51.2"/>
	</g>
</g>
<g>
	<g>
		<rect x="203.4" y="315" class="st0" width="8.6" height="51.2"/>
	</g>
</g>
<g>
	<g>
		<rect x="213.9" y="315" class="st0" width="8.6" height="51.2"/>
	</g>
</g>
<g>
	<g>
		<rect x="224.4" y="315" class="st0" width="8.6" height="51.2"/>
	</g>
</g>
<g>
	<g>
		<rect x="234.9" y="315" class="st0" width="8.6" height="51.2"/>
	</g>
</g>
<g>
	<g>
		<rect x="245.4" y="315" class="st0" width="8.6" height="51.2"/>
	</g>
</g>
<g>
	<g>
		<rect x="255.9" y="315" class="st0" width="8.6" height="51.2"/>
	</g>
</g>
<g>
	<g>
		<rect x="266.4" y="315" class="st0" width="8.6" height="51.2"/>
	</g>
</g>
<g>
	<g>
		<rect x="276.9" y="315" class="st0" width="8.6" height="51.2"/>
	</g>
</g>
<g>
	<g>
		<rect x="287.4" y="315" class="st0" width="8.6" height="51.2"/>
	</g>
</g>
<g class="st1">
	<g>
		<rect x="297.8" y="315" class="st0" width="8.6" height="51.2"/>
	</g>
</g>
<g class="st1">
	<g>
		<rect x="308.3" y="315" class="st0" width="8.6" height="51.2"/>
	</g>
</g>
<g class="st1">
	<g>
		<rect x="318.8" y="315" class="st0" width="8.6" height="51.2"/>
	</g>
</g>
<g class="st1">
	<g>
		<rect x="329.3" y="315" class="st0" width="8.6" height="51.2"/>
	</g>
</g>
<g class="st1">
	<g>
		<rect x="339.8" y="315" class="st0" width="8.6" height="51.2"/>
	</g>
</g>
<g class="st1">
	<g>
		<rect x="350.3" y="315" class="st0" width="8.6" height="51.2"/>
	</g>
</g>
<g class="st1">
	<g>
		<rect x="360.8" y="315" class="st0" width="8.6" height="51.2"/>
	</g>
</g>
<g class="st1">
	<g>
		<rect x="371.3" y="315" class="st0" width="8.6" height="51.2"/>
	</g>
</g>
<g class="st1">
	<g>
		<rect x="381.8" y="315" class="st0" width="8.6" height="51.2"/>
	</g>
</g>
<g class="st1">
	<g>
		<rect x="392.3" y="315" class="st0" width="8.6" height="51.2"/>
	</g>
</g>
<g class="st1">
	<g>
		<rect x="402.8" y="315" class="st0" width="8.6" height="51.2"/>
	</g>
</g>
<g class="st1">
	<g>
		<rect x="413.2" y="315" class="st0" width="8.6" height="51.2"/>
	</g>
</g>
<g class="st1">
	<g>
		<rect x="423.7" y="315" class="st0" width="8.6" height="51.2"/>
	</g>
</g>
<g class="st1">
	<g>
		<rect x="434.2" y="315" class="st0" width="8.6" height="51.2"/>
	</g>
</g>
<g class="st1">
	<g>
		<rect x="444.7" y="315" class="st0" width="8.6" height="51.2"/>
	</g>
</g>
<g class="st1">
	<g>
		<rect x="455.2" y="315" class="st0" width="8.6" height="51.2"/>
	</g>
</g>
<g class="st1">
	<g>
		<rect x="465.7" y="315" class="st0" width="8.6" height="51.2"/>
	</g>
</g>
<g class="st1">
	<g>
		<rect x="476.2" y="315" class="st0" width="8.6" height="51.2"/>
	</g>
</g>
<g class="st1">
	<g>
		<rect x="486.7" y="315" class="st0" width="8.6" height="51.2"/>
	</g>
</g>
<g class="st1">
	<g>
		<rect x="497.2" y="315" class="st0" width="8.6" height="51.2"/>
	</g>
</g>
<g class="st1">
	<g>
		<rect x="507.7" y="315" class="st0" width="8.6" height="51.2"/>
	</g>
</g>
<g class="st1">
	<g>
		<rect x="518.2" y="315" class="st0" width="8.6" height="51.2"/>
	</g>
</g>
<g class="st1">
	<g>
		<rect x="528.6" y="315" class="st0" width="8.6" height="51.2"/>
	</g>
</g>
<g class="st1">
	<g>
		<rect x="539.1" y="315" class="st0" width="8.6" height="51.2"/>
	</g>
</g>
<g class="st1">
	<g>
		<rect x="549.6" y="315" class="st0" width="8.6" height="51.2"/>
	</g>
</g>
<g class="st1">
	<g>
		<rect x="560.1" y="315" class="st0" width="8.6" height="51.2"/>
	</g>
</g>
<g class="st1">
	<g>
		<rect x="570.6" y="315" class="st0" width="8.6" height="51.2"/>
	</g>
</g>
<g class="st1">
	<g>
		<rect x="581.1" y="315" class="st0" width="8.6" height="51.2"/>
	</g>
</g>
<g class="st1">
	<g>
		<rect x="591.6" y="315" class="st0" width="8.6" height="51.2"/>
	</g>
</g>
<g class="st1">
	<g>
		<rect x="602.1" y="315" class="st0" width="8.6" height="51.2"/>
	</g>
</g>
<g class="st1">
	<g>
		<rect x="612.6" y="315" class="st0" width="8.6" height="51.2"/>
	</g>
</g>
<g class="st1">
	<g>
		<rect x="623.1" y="315" class="st0" width="8.6" height="51.2"/>
	</g>
</g>
<g class="st1">
	<g>
		<rect x="633.6" y="315" class="st0" width="8.6" height="51.2"/>
	</g>
</g>
<g class="st1">
	<g>
		<rect x="644.1" y="315" class="st0" width="8.6" height="51.2"/>
	</g>
</g>
<g class="st1">
	<g>
		<rect x="654.6" y="315" class="st0" width="8.6" height="51.2"/>
	</g>
</g>
<g class="st1">
	<g>
		<rect x="665.2" y="315" class="st0" width="8.6" height="51.2"/>
	</g>
</g>
<path class="st0" d="M341.8,297.7l6.4-16.2h3.9v15.3h2v2.6h-2v3.9H349v-3.9h-7.2V297.7z M349,296.9v-3.2l0.3-8.2h-0.4l-3.8,11.5
	L349,296.9L349,296.9z"/>
<path class="st0" d="M356.1,287.8c0-1,0.1-1.8,0.3-2.5c0.2-0.7,0.4-1.3,0.7-1.8c0.3-0.5,0.6-0.9,1-1.1c0.4-0.3,0.8-0.5,1.2-0.7
	c0.4-0.2,0.8-0.3,1.2-0.3c0.4-0.1,0.8-0.1,1.1-0.1c0.3,0,0.7,0,1.1,0.1c0.4,0,0.8,0.1,1.2,0.3c0.4,0.1,0.8,0.4,1.2,0.7
	c0.4,0.3,0.7,0.7,1,1.1c0.3,0.5,0.5,1.1,0.7,1.8c0.2,0.7,0.3,1.5,0.3,2.5v9.2c0,1-0.1,1.8-0.3,2.5c-0.2,0.7-0.4,1.3-0.7,1.8
	c-0.3,0.5-0.6,0.9-1,1.2c-0.4,0.3-0.8,0.5-1.1,0.7c-0.4,0.2-0.8,0.3-1.2,0.3c-0.4,0.1-0.7,0.1-1,0.1s-0.7,0-1.1-0.1
	s-0.8-0.2-1.2-0.3c-0.4-0.2-0.8-0.4-1.2-0.7c-0.4-0.3-0.7-0.7-1-1.2s-0.5-1.1-0.7-1.8c-0.2-0.7-0.3-1.5-0.3-2.5v-9.2H356.1z
	 M359.5,298.4c0,0.9,0.2,1.6,0.5,2s0.8,0.6,1.5,0.6s1.1-0.2,1.5-0.6c0.3-0.4,0.5-1.1,0.5-2v-11.8c0-1-0.2-1.6-0.5-2.1
	c-0.3-0.4-0.8-0.7-1.5-0.7s-1.2,0.2-1.5,0.7c-0.3,0.4-0.5,1.1-0.5,2.1V298.4z"/>
<path class="st0" d="M374.3,293.3c-0.5,0-1-0.1-1.5-0.2s-0.9-0.4-1.3-0.8s-0.7-1-1-1.7c-0.2-0.7-0.4-1.7-0.4-2.9v-1.4
	c0-0.8,0.1-1.4,0.2-2s0.3-1.1,0.5-1.5s0.5-0.7,0.7-1c0.3-0.2,0.6-0.4,0.9-0.6c0.3-0.1,0.6-0.2,0.9-0.3c0.3-0.1,0.6-0.1,0.9-0.1
	s0.6,0,0.9,0.1c0.3,0,0.6,0.1,0.9,0.3c0.3,0.1,0.6,0.3,0.9,0.6c0.3,0.2,0.5,0.6,0.7,1s0.4,0.9,0.5,1.5s0.2,1.2,0.2,2v1.4
	c0,1.2-0.1,2.1-0.4,2.8s-0.6,1.3-1,1.7c-0.4,0.4-0.8,0.7-1.3,0.8C375.2,293.3,374.7,293.3,374.3,293.3z M374.3,291.3
	c0.5,0,0.9-0.2,1.1-0.7s0.3-1.2,0.3-2.2V286c0-1-0.1-1.7-0.3-2.2c-0.2-0.5-0.6-0.7-1.1-0.7c-0.6,0-1,0.2-1.2,0.7s-0.3,1.2-0.3,2.2
	v2.5c0,1,0.1,1.7,0.3,2.2C373.4,291.1,373.8,291.3,374.3,291.3z M382,281.3h2.3l-5.9,22.1h-2.3L382,281.3z M382.1,296.7
	c0-1.2,0.1-2.1,0.4-2.8c0.3-0.7,0.6-1.2,1-1.6s0.9-0.6,1.3-0.8c0.5-0.1,1-0.2,1.4-0.2c0.3,0,0.6,0,0.9,0.1c0.3,0,0.6,0.1,0.9,0.3
	c0.3,0.1,0.6,0.3,0.9,0.6c0.3,0.2,0.5,0.6,0.7,1s0.4,0.9,0.5,1.5s0.2,1.2,0.2,2v1.4c0,0.8-0.1,1.5-0.2,2c-0.1,0.6-0.3,1.1-0.5,1.5
	s-0.4,0.7-0.7,1c-0.3,0.3-0.6,0.5-0.9,0.6c-0.3,0.2-0.6,0.3-0.9,0.3c-0.3,0.1-0.6,0.1-0.9,0.1s-0.6,0-1-0.1
	c-0.3-0.1-0.6-0.2-0.9-0.3c-0.3-0.1-0.6-0.3-0.9-0.6c-0.3-0.3-0.5-0.6-0.7-1s-0.4-0.9-0.5-1.5s-0.2-1.3-0.2-2.1v-1.4H382.1z
	 M384.7,298.7c0,1,0.1,1.7,0.3,2.2c0.2,0.5,0.6,0.7,1.2,0.7c0.5,0,0.9-0.2,1.1-0.7s0.3-1.2,0.3-2.2v-2.5c0-1-0.1-1.7-0.3-2.2
	c-0.2-0.5-0.6-0.7-1.1-0.7c-0.6,0-1,0.2-1.2,0.7s-0.3,1.2-0.3,2.2V298.7z"/>
</svg>
