<?xml version="1.0" encoding="utf-8"?>
<!-- Generator: Adobe Illustrator 28.0.0, SVG Export Plug-In . SVG Version: 6.00 Build 0)  -->
<svg version="1.1" id="Layer_1" xmlns:xodm="http://www.corel.com/coreldraw/odm/2003"
	 xmlns="http://www.w3.org/2000/svg" xmlns:xlink="http://www.w3.org/1999/xlink" x="0px" y="0px" viewBox="0 0 720 720"
	 style="enable-background:new 0 0 720 720;" xml:space="preserve">
<style type="text/css">
	.st0{opacity:0.5;}
</style>
<polygon class="st0" points="469.3,426.9 449.1,391.9 408.8,391.9 388.6,426.9 408.8,461.9 449.1,461.9 "/>
<polygon points="538,392 517.8,427 538,461.9 578.4,461.9 598.6,427 578.4,392 "/>
<polygon points="513.7,429.3 473.4,429.3 453.2,464.2 473.4,499.2 513.7,499.2 533.9,464.2 "/>
<polygon points="340,277.7 319.9,242.7 279.5,242.7 259.3,277.7 279.5,312.6 319.9,312.6 "/>
<polygon class="st0" points="384.4,280.1 344,280.1 323.8,315.1 344,350.1 384.4,350.1 404.6,315.1 "/>
<polygon points="384.5,205.5 344.1,205.5 323.9,240.5 344.1,275.4 384.5,275.4 404.7,240.5 "/>
<polygon class="st0" points="190.7,312.6 210.8,277.7 190.7,242.7 150.3,242.7 130.1,277.7 150.3,312.6 "/>
<polygon class="st0" points="215,275.3 255.4,275.3 275.6,240.3 255.4,205.3 215,205.3 194.8,240.3 "/>
<polygon points="255.3,200.8 275.5,165.8 255.3,130.8 214.9,130.8 194.7,165.8 214.9,200.8 "/>
<polygon points="126.1,275.3 146.3,240.3 126.1,205.3 85.7,205.3 65.6,240.3 85.7,275.3 "/>
<polygon points="150.5,237.9 190.8,237.9 211,203 190.8,168 150.5,168 130.3,203 "/>
<polygon class="st0" points="255.3,280 214.9,280 194.7,315 214.9,350 255.3,350 275.5,315 "/>
<polygon points="275.5,464.2 255.3,429.3 214.9,429.3 194.7,464.2 214.9,499.2 255.3,499.2 "/>
<polygon class="st0" points="255.6,424.5 275.5,389.4 255.1,354.5 214.7,354.8 194.8,389.9 215.2,424.7 "/>
<polygon class="st0" points="279.6,387.3 320,387.3 340.2,352.4 320,317.4 279.6,317.4 259.4,352.4 "/>
<polygon points="324,389.7 344.2,424.7 384.6,424.7 404.7,389.7 384.6,354.8 344.2,354.8 "/>
<polygon points="320,392 279.6,392 259.4,427 279.6,461.9 320,461.9 340.2,427 "/>
<polygon points="408.8,536.6 449.1,536.6 469.3,501.6 449.1,466.6 408.8,466.6 388.6,501.6 "/>
<polygon class="st0" points="190.9,387.2 211.1,352.3 190.9,317.3 150.6,317.3 130.4,352.3 150.6,387.2 "/>
<polygon class="st0" points="578.5,536.6 598.7,501.6 578.5,466.6 538.1,466.6 517.9,501.6 538.1,536.6 "/>
<polygon points="602.7,499.3 643.1,499.3 663.3,464.3 643.1,429.4 602.7,429.4 582.5,464.3 "/>
<polygon points="643.1,504 602.7,504 582.5,538.9 602.7,573.9 643.1,573.9 663.3,538.9 "/>
</svg>
