<?xml version="1.0" encoding="utf-8"?>
<!-- Generator: Adobe Illustrator 28.0.0, SVG Export Plug-In . SVG Version: 6.00 Build 0)  -->
<svg version="1.1" id="Layer_1" xmlns:xodm="http://www.corel.com/coreldraw/odm/2003"
	 xmlns="http://www.w3.org/2000/svg" xmlns:xlink="http://www.w3.org/1999/xlink" x="0px" y="0px" viewBox="0 0 720 720"
	 style="enable-background:new 0 0 720 720;" xml:space="preserve">
<style type="text/css">
	.st0{fill-rule:evenodd;clip-rule:evenodd;}
</style>
<path class="st0" d="M298.5,263l20.3,51.6l6.2,0v337.8h4.1V314.6l13.3,0v369h4.1v-369l12.6,0v158h4.1v-158l12.9,0v268.7h4.1V314.4
	l13.1,0v256.7h4.1V314.4l6.8,0l20.5-51.5C539,257.3,624,230,624.6,212.4c0.6-17.6-67-34.9-164.8-44.7c2.9-53.6-46.4-95.8-97.7-95.8
	c-51.2,0-101.3,41.6-98.6,95.1c-100.2,10.3-168,26-167.5,45.4C96.5,231.8,183.4,257.6,298.5,263L298.5,263z M129.7,203.4
	c53.4-25.7,367.8-34.2,462.5,2.2C425,188.4,264,192,129.7,203.4L129.7,203.4z M322.6,100.3c-5.7,8-14.7,27.2-18,35.3
	c-3.3,8.1,4.9,21.9,11.3,21.7c3.9-0.2,5.2-17.4,25.6-33.6c20.3-16.2,40.4-27.5,43.2-32.6c5.5-10.2-21.7-15.3-41.1-10.2
	C334.8,83.2,328.3,92.3,322.6,100.3L322.6,100.3z"/>
</svg>
