<?xml version="1.0" encoding="utf-8"?>
<!-- Generator: Adobe Illustrator 28.0.0, SVG Export Plug-In . SVG Version: 6.00 Build 0)  -->
<svg version="1.1" id="Layer_1" xmlns:xodm="http://www.corel.com/coreldraw/odm/2003"
	 xmlns="http://www.w3.org/2000/svg" xmlns:xlink="http://www.w3.org/1999/xlink" x="0px" y="0px" viewBox="0 0 720 720"
	 style="enable-background:new 0 0 720 720;" xml:space="preserve">
<style type="text/css">
	.st0{fill:#C12026;}
	.st1{opacity:0.5;fill:#C12026;}
</style>
<path class="st0" d="M221.8,386.5c0-3.7,0.4-6.9,1.2-9.8c0.8-2.8,1.9-5.3,3.3-7.5c1.4-2.2,3.1-4,5-5.6c1.9-1.5,4-2.9,6.2-4v-0.6
	c-1.6-0.9-3.3-2-4.9-3.3c-1.6-1.3-3.1-3-4.5-4.9c-1.3-1.9-2.4-4.2-3.2-6.8c-0.8-2.6-1.3-5.6-1.3-9v-8.8c0-4.1,0.5-7.6,1.5-10.6
	c1-3,2.3-5.5,3.9-7.7c1.6-2.1,3.4-3.8,5.6-5.1c2.1-1.3,4.3-2.3,6.5-3.1c2.2-0.7,4.5-1.2,6.7-1.5c2.2-0.2,4.3-0.4,6.1-0.4
	c1.9,0,4,0.1,6.2,0.4c2.2,0.2,4.4,0.7,6.7,1.5c2.3,0.7,4.4,1.8,6.5,3.1c2.1,1.3,3.9,3,5.6,5.1c1.6,2.1,2.9,4.6,3.9,7.6
	c1,3,1.5,6.5,1.5,10.6v8.8c0,3.4-0.4,6.4-1.3,9c-0.8,2.6-1.9,4.9-3.2,6.8c-1.3,1.9-2.8,3.6-4.5,4.9c-1.6,1.3-3.3,2.4-4.9,3.3v0.6
	c2.3,1.1,4.3,2.5,6.2,4c1.9,1.5,3.5,3.4,4.9,5.6c1.4,2.2,2.5,4.7,3.3,7.5c0.8,2.8,1.2,6.1,1.2,9.8v7.7c0,4.3-0.4,8.1-1.3,11.3
	c-0.9,3.2-2.1,6-3.6,8.4c-1.5,2.4-3.4,4.3-5.4,5.8c-2.1,1.5-4.3,2.7-6.7,3.6c-2.4,0.9-4.9,1.5-7.4,1.9c-2.6,0.4-5.1,0.6-7.7,0.6
	c-2.6,0-5.1-0.2-7.7-0.6c-2.6-0.4-5-1-7.4-1.9c-2.4-0.9-4.6-2.1-6.7-3.6c-2.1-1.5-3.8-3.5-5.3-5.8c-1.5-2.3-2.7-5.1-3.6-8.4
	c-0.9-3.2-1.3-7-1.3-11.3V386.5z M241.2,395.8c0,3.2,0.4,5.8,1.1,7.8c0.7,2,1.6,3.6,2.8,4.8c1.2,1.2,2.5,1.9,4,2.4
	c1.5,0.4,3.1,0.7,4.7,0.7c1.6,0,3.2-0.2,4.8-0.7c1.5-0.4,2.9-1.3,4.1-2.4c1.2-1.2,2.1-2.8,2.9-4.8c0.7-2,1.1-4.7,1.1-7.8v-13.8
	c0-2.7-0.3-5.1-0.8-7c-0.6-1.9-1.4-3.5-2.4-4.8c-1-1.3-2.3-2.2-3.8-2.7c-1.5-0.6-3.1-0.8-4.9-0.8h-1.8c-3.6,0-6.4,1.2-8.5,3.7
	c-2.1,2.5-3.2,6.4-3.2,11.8V395.8z M254.7,352.9c1.4,0,2.8-0.2,4-0.7c1.3-0.5,2.3-1.3,3.3-2.4c0.9-1.1,1.7-2.7,2.2-4.6
	c0.5-1.9,0.8-4.3,0.8-7.2v-10.4c0-5.2-0.9-9.2-2.6-11.9c-1.7-2.7-4.6-4.1-8.6-4.1c-4,0-6.8,1.4-8.5,4.1c-1.7,2.7-2.5,6.7-2.5,11.9
	v10.3c0,2.8,0.2,5.1,0.7,7s1.1,3.4,2,4.6s1.9,2,3.2,2.5c1.3,0.5,2.7,0.7,4.2,0.7H254.7z"/>
<path class="st0" d="M299.9,334.9c0-5.5,0.5-10.2,1.5-14.3c1-4,2.3-7.4,4-10.1c1.6-2.7,3.5-4.9,5.7-6.6c2.2-1.7,4.4-3,6.7-3.9
	c2.3-0.9,4.6-1.5,6.9-1.8c2.3-0.3,4.4-0.4,6.3-0.4c1.8,0,3.8,0.1,6.1,0.4s4.5,0.8,6.8,1.7c2.3,0.9,4.5,2.1,6.6,3.8
	c2.1,1.6,4,3.8,5.7,6.6c1.6,2.7,3,6.1,4,10.2c1,4,1.5,8.8,1.5,14.4v53.2c0,5.5-0.5,10.2-1.5,14.3c-1,4-2.3,7.4-4,10.2
	c-1.7,2.8-3.6,5.1-5.7,6.8c-2.2,1.7-4.4,3.1-6.6,4c-2.3,1-4.5,1.6-6.7,2c-2.2,0.3-4.2,0.5-6,0.5c-2,0-4.1-0.2-6.4-0.5
	c-2.3-0.3-4.6-1-6.9-2c-2.3-1-4.5-2.3-6.7-4c-2.1-1.7-4-4-5.6-6.8c-1.6-2.8-2.9-6.2-3.9-10.2c-1-4-1.5-8.8-1.5-14.3V334.9z
	 M319.4,396.1c0,5.2,0.9,9,2.8,11.3c1.9,2.4,4.8,3.5,8.7,3.5c3.8,0,6.6-1.2,8.5-3.5c1.9-2.4,2.8-6.1,2.8-11.3V328
	c0-5.5-0.9-9.5-2.8-12c-1.9-2.5-4.7-3.8-8.5-3.8c-3.9,0-6.8,1.3-8.7,3.8c-1.9,2.5-2.8,6.5-2.8,12V396.1z"/>
<path class="st0" d="M404.6,366.9c-2.8,0-5.6-0.4-8.4-1.2c-2.8-0.8-5.4-2.3-7.7-4.6c-2.3-2.3-4.1-5.5-5.6-9.7
	c-1.4-4.2-2.1-9.7-2.1-16.5v-7.9c0-4.5,0.3-8.3,1-11.6c0.7-3.3,1.6-6.1,2.8-8.4c1.2-2.3,2.6-4.2,4.2-5.6s3.2-2.5,5-3.3
	c1.8-0.8,3.6-1.3,5.4-1.6c1.8-0.3,3.6-0.4,5.4-0.4c1.7,0,3.4,0.1,5.2,0.4c1.8,0.3,3.6,0.8,5.3,1.6c1.7,0.8,3.4,1.9,5,3.3
	c1.6,1.4,2.9,3.3,4.1,5.6c1.2,2.3,2.1,5.1,2.8,8.4c0.7,3.3,1,7.2,1,11.7v7.9c0,6.7-0.8,12.2-2.3,16.4s-3.5,7.5-5.8,9.8
	c-2.3,2.3-4.9,3.9-7.7,4.7C409.6,366.5,407,366.9,404.6,366.9z M404.7,355.2c3.1,0,5.3-1.3,6.5-4c1.2-2.7,1.8-6.8,1.8-12.5v-14.3
	c0-5.7-0.6-9.9-1.8-12.6c-1.2-2.7-3.4-4.1-6.5-4.1c-3.2,0-5.5,1.4-6.8,4.1c-1.3,2.7-2,6.9-2,12.6v14.3c0,5.6,0.6,9.8,2,12.5
	C399.2,353.8,401.5,355.2,404.7,355.2z M449.2,297.6h13.3l-33.8,127.2h-13.4L449.2,297.6z M449.3,386c0-6.7,0.7-12.1,2.2-16.2
	c1.5-4.1,3.4-7.2,5.7-9.4c2.3-2.2,4.9-3.6,7.7-4.3c2.8-0.7,5.5-1.1,8.1-1.1c1.7,0,3.4,0.1,5.2,0.4c1.8,0.3,3.6,0.8,5.3,1.6
	c1.7,0.8,3.4,1.9,5,3.3c1.6,1.4,2.9,3.3,4.1,5.6c1.2,2.3,2.1,5.1,2.8,8.4c0.7,3.3,1,7.2,1,11.7v7.9c0,4.5-0.4,8.5-1.1,11.8
	c-0.7,3.3-1.7,6.2-2.9,8.5c-1.2,2.4-2.6,4.3-4.2,5.8c-1.6,1.5-3.2,2.7-5,3.6c-1.7,0.9-3.5,1.5-5.3,1.8c-1.8,0.3-3.5,0.5-5.2,0.5
	c-1.9,0-3.7-0.2-5.6-0.5c-1.9-0.3-3.7-0.9-5.5-1.7c-1.7-0.8-3.4-2-4.9-3.5c-1.5-1.5-2.9-3.5-4-5.8c-1.1-2.4-2-5.2-2.7-8.6
	c-0.7-3.4-1-7.3-1-11.9V386z M464.4,397.7c0,5.6,0.6,9.8,2,12.5c1.3,2.7,3.6,4,6.8,4c3.1,0,5.3-1.3,6.5-4s1.8-6.8,1.8-12.5v-14.3
	c0-5.7-0.6-9.9-1.8-12.6c-1.2-2.7-3.4-4-6.5-4c-3.2,0-5.5,1.4-6.8,4c-1.3,2.7-2,6.9-2,12.6V397.7z"/>
<path class="st1" d="M197.3,304.4c8.4-24.1,22.1-46.1,40.7-64.7c5.5-5.5,11.4-10.6,17.5-15.3l-79.3-109.2
	c-49.3,36.8-87.1,88-107.2,147.4L197.3,304.4z"/>
<path class="st1" d="M187.8,360.9c0-17,2.5-33.6,7.2-49.4L66.7,269.8c-9,28.8-13.8,59.4-13.8,91.1s4.8,62.3,13.8,91.1L195,410.4
	C190.3,394.5,187.8,377.9,187.8,360.9z"/>
<path class="st0" d="M530.6,360.9c0,17-2.5,33.6-7.2,49.4l128.4,41.7c9-28.8,13.8-59.4,13.8-91.1s-4.8-62.3-13.8-91.1l-128.4,41.7
	C528.2,327.3,530.6,344,530.6,360.9z"/>
<path class="st0" d="M521.1,417.5c-8.4,24.1-22.1,46.1-40.7,64.7c-5.5,5.5-11.4,10.6-17.5,15.3l79.3,109.2
	c49.3-36.8,87.1-88,107.2-147.4L521.1,417.5z"/>
<path class="st0" d="M238,482.1c-18.6-18.6-32.3-40.6-40.7-64.7L69,459.2c20.1,59.4,57.9,110.6,107.2,147.4l79.3-109.2
	C249.4,492.7,243.6,487.7,238,482.1z"/>
<path class="st0" d="M480.4,239.8c18.6,18.6,32.3,40.6,40.7,64.7l128.4-41.7c-20.1-59.4-57.9-110.6-107.2-147.4L463,224.5
	C469.1,229.2,474.9,234.2,480.4,239.8z"/>
<path class="st0" d="M457,501.8c-27.5,19.2-59.9,29.8-94,30.5v135c64.5-0.8,124.3-21.5,173.3-56.3L457,501.8z"/>
<path class="st0" d="M355.5,532.3c-34.1-0.7-66.5-11.3-94-30.5L182.2,611c49,34.8,108.8,55.5,173.3,56.3V532.3z"/>
<path class="st1" d="M261.5,220.1c27.5-19.2,59.9-29.8,94-30.5v-135c-64.5,0.8-124.3,21.5-173.3,56.3L261.5,220.1z"/>
<path class="st0" d="M363,189.6c34.1,0.7,66.5,11.3,94,30.5l79.3-109.2c-49-34.8-108.8-55.5-173.3-56.3V189.6z"/>
</svg>
