<?xml version="1.0" encoding="utf-8"?>
<!-- Generator: Adobe Illustrator 28.0.0, SVG Export Plug-In . SVG Version: 6.00 Build 0)  -->
<svg version="1.1" id="Layer_1" xmlns:xodm="http://www.corel.com/coreldraw/odm/2003"
	 xmlns="http://www.w3.org/2000/svg" xmlns:xlink="http://www.w3.org/1999/xlink" x="0px" y="0px" viewBox="0 0 720 720"
	 style="enable-background:new 0 0 720 720;" xml:space="preserve">
<style type="text/css">
	.st0{fill-rule:evenodd;clip-rule:evenodd;}
</style>
<path class="st0" d="M112.7,532c-7.2,0-13-5.8-13-13s5.8-13,13-13c1,0,2.1,0.1,3,0.4c10.2-10,32-31.3,35.6-34.8
	c4.8-4.6,6.9-5,9.7-5.5c2.2-0.4,25.5-0.3,35-0.2c2.7-4.4,7.6-7.3,13.2-7.3c8.6,0,15.5,6.9,15.5,15.5c0,8.6-6.9,15.5-15.5,15.5
	c-5.1,0-9.6-2.5-12.4-6.2l-32.3-0.2l-39.2,38.7C124,527.7,118.8,532,112.7,532L112.7,532z"/>
<path class="st0" d="M119,592l-11.3,0.1c-5.6,0.1-10.2-4.6-10.2-10.2v-13.8c0-5.6,4.6-10.2,10.2-10.2h9.7c4.6,0,8.7,0.2,13.7,0.1
	c13-13.2,26.4-26.3,39.4-39.5c3.8-3.9,10-4.4,13.6-0.4c3.9,4.2,2.8,9.1-1,12.9c-12.7,12.8-26.1,25.5-38.2,38.7
	c-6,6.5-9.4,5.6-11.3,5.9c-1.8,0.2-1.9,0-4.3,0v6.2C129.2,587.4,124.6,591.9,119,592L119,592z"/>
<path class="st0" d="M177,636.3c-7.2,0-13-5.8-13-13c0-6.9,5.4-12.6,12.2-12.9c1.8-1.7,3.9-3.5,6.3-5.5l42.6-43.1
	c3.8-3.9,10-4.4,13.6-0.4c3.9,4.2,2.8,9.1-1,12.9L196.2,616c-2.1,2.2-4.2,4.4-6.3,6.4c0,0.3,0,0.6,0,0.9
	C189.9,630.5,184.1,636.3,177,636.3L177,636.3z"/>
<path class="st0" d="M563.4,635.2c7.2,0,13-5.8,13-13c0-6.9-5.4-12.6-12.2-12.9c-1.8-1.7-3.9-3.5-6.3-5.5l-42.6-43.1
	c-3.8-3.9-10-4.4-13.6-0.4c-3.9,4.2-2.8,9.1,1,12.9l41.4,41.7c2.1,2.2,4.2,4.4,6.3,6.4c0,0.3,0,0.6,0,0.9
	C550.4,629.4,556.2,635.2,563.4,635.2L563.4,635.2z"/>
<path class="st0" d="M621.3,590.8l11.3,0.1c5.6,0.1,10.2-4.6,10.2-10.2V567c0-5.6-4.6-10.2-10.2-10.2h-9.7c-4.6,0-8.7,0.2-13.7,0.1
	c-13-13.2-26.4-26.3-39.4-39.5c-3.8-3.9-10-4.4-13.6-0.4c-3.9,4.2-2.8,9.1,1,12.9c12.7,12.8,26.1,25.5,38.2,38.7
	c6,6.5,9.4,5.6,11.3,5.9c1.8,0.2,1.9,0,4.3,0v6.2C611.1,586.3,615.7,590.8,621.3,590.8L621.3,590.8z"/>
<path class="st0" d="M627.7,530.9c7.2,0,13-5.8,13-13c0-7.2-5.8-13-13-13c-1,0-2.1,0.1-3,0.4c-10.2-10-32-31.3-35.6-34.8
	c-4.8-4.6-6.9-5-9.7-5.5c-2.2-0.4-25.5-0.3-35-0.2c-2.7-4.4-7.6-7.3-13.2-7.3c-8.6,0-15.5,6.9-15.5,15.5c0,8.6,6.9,15.5,15.5,15.5
	c5.1,0,9.6-2.5,12.4-6.2l32.3-0.2l39.2,38.7C616.3,526.6,621.5,530.9,627.7,530.9L627.7,530.9z"/>
<path class="st0" d="M626.9,185.9c7.2,0,13,5.8,13,13c0,7.2-5.8,13-13,13c-1,0-2.1-0.1-3-0.4c-10.2,10-32,31.3-35.6,34.8
	c-4.8,4.6-6.9,5-9.7,5.5c-2.2,0.4-25.5,0.3-35,0.2c-2.7,4.4-7.6,7.3-13.2,7.3c-8.6,0-15.5-6.9-15.5-15.5c0-8.6,6.9-15.5,15.5-15.5
	c5.1,0,9.6,2.5,12.4,6.2l32.3,0.2l39.2-38.7C615.6,190.2,620.7,185.9,626.9,185.9L626.9,185.9z"/>
<path class="st0" d="M621.2,135.6l11.3-0.1c5.6-0.1,10.2,4.6,10.2,10.2v13.8c0,5.6-4.6,10.2-10.2,10.2h-9.7c-4.6,0-8.7-0.2-13.7-0.1
	c-13,13.2-26.4,26.3-39.4,39.5c-3.8,3.9-10,4.4-13.6,0.4c-3.9-4.2-2.8-9.1,1-12.9c12.7-12.8,26.1-25.5,38.2-38.7
	c6-6.5,9.4-5.6,11.3-5.9c1.8-0.2,1.9,0,4.3,0v-6.2C611,140.1,615.6,135.6,621.2,135.6L621.2,135.6z"/>
<path class="st0" d="M113,185.3c-7.2,0-13,5.8-13,13c0,7.2,5.8,13,13,13c1,0,2.1-0.1,3-0.4c10.2,10,32,31.3,35.6,34.8
	c4.8,4.6,6.9,5,9.7,5.5c2.2,0.4,25.5,0.3,35,0.2c2.7,4.4,7.6,7.3,13.2,7.3c8.6,0,15.5-6.9,15.5-15.5c0-8.6-6.9-15.5-15.5-15.5
	c-5.1,0-9.6,2.5-12.4,6.2l-32.3,0.2l-39.2-38.7C124.3,189.6,119.2,185.3,113,185.3L113,185.3z"/>
<path class="st0" d="M118.7,135l-11.3-0.1c-5.6-0.1-10.2,4.6-10.2,10.2v13.8c0,5.6,4.6,10.2,10.2,10.2h9.7c4.6,0,8.7-0.2,13.7-0.1
	c13,13.2,26.4,26.3,39.4,39.5c3.8,3.9,10,4.4,13.6,0.4c3.9-4.2,2.8-9.1-1-12.9c-12.7-12.8-26.1-25.5-38.2-38.7
	c-6-6.5-9.4-5.6-11.3-5.9c-1.8-0.2-1.9,0-4.3,0v-6.2C128.9,139.6,124.3,135,118.7,135L118.7,135z"/>
<path class="st0" d="M176.6,90.7c-7.2,0-13,5.8-13,13c0,6.9,5.4,12.6,12.2,12.9c1.8,1.7,3.9,3.5,6.3,5.5l42.6,43.1
	c3.8,3.9,10,4.4,13.6,0.4c3.9-4.2,2.8-9.1-1-12.9l-41.4-41.7c-2.1-2.2-4.2-4.4-6.3-6.4c0-0.3,0-0.6,0-0.9
	C189.6,96.5,183.8,90.7,176.6,90.7L176.6,90.7z"/>
<path class="st0" d="M563.2,91.2c7.2,0,13,5.8,13,13c0,6.9-5.4,12.6-12.2,12.9c-1.8,1.7-3.9,3.5-6.3,5.5l-42.6,43.1
	c-3.8,3.9-10,4.4-13.6,0.4c-3.9-4.2-2.8-9.1,1-12.9l41.4-41.7c2.1-2.2,4.2-4.4,6.3-6.4c0-0.3,0-0.6,0-0.9
	C550.3,97,556.1,91.2,563.2,91.2L563.2,91.2z"/>
<path class="st0" d="M511.5,87c8.5,0,15.3,6.9,15.3,15.3c0,8.1-6.2,14.7-14.1,15.3l-54.5,55.2v5.6v23.7c0,4.9-4,8.9-8.9,8.9
	c-4.9,0-8.8-4-8.9-8.9l0-23.7v0v-0.1v-0.1v-0.1v-0.1v0l0-0.4v0l0.1-7.6c0.3-6.9,5.2-9.9,9.4-14.3l47.6-47c-0.9-1.9-1.4-4.1-1.4-6.3
	C496.2,93.8,503.1,87,511.5,87L511.5,87z"/>
<path class="st0" d="M227.7,85.9c-8.5,0-15.3,6.9-15.3,15.3c0,8.1,6.2,14.7,14.1,15.3l54.5,55.2v5.6V201c0,4.9,4,8.9,8.9,8.9
	s8.8-4,8.9-8.9l0-23.7v0v-0.1v-0.1V177v-0.1v0l0-0.4v0l-0.1-7.6c-0.3-6.9-5.2-9.9-9.4-14.3l-47.6-47c0.9-1.9,1.4-4.1,1.4-6.3
	C243.1,92.8,236.2,85.9,227.7,85.9z"/>
<path class="st0" d="M228.1,643.9c-8.5,0-15.3-6.9-15.3-15.3c0-8.1,6.2-14.7,14.1-15.3l54.5-55.2v-5.6v-23.7c0-4.9,4-8.9,8.9-8.9
	c4.9,0,8.8,4,8.9,8.9l0,23.7v0v0.1v0.1v0.1v0.1v0l0,0.4v0l-0.1,7.6c-0.3,6.9-5.2,9.9-9.4,14.3l-47.6,47c0.9,1.9,1.4,4.1,1.4,6.3
	C243.5,637.1,236.6,643.9,228.1,643.9L228.1,643.9z"/>
<path class="st0" d="M512,642.6c8.5,0,15.3-6.9,15.3-15.3c0-8.1-6.2-14.7-14.1-15.3l-54.5-55.2v-5.6v-23.7c0-4.9-4-8.9-8.9-8.9
	s-8.8,4-8.9,8.9l0,23.7v0v0.1v0.1v0.1v0.1v0l0,0.4v0l0.1,7.6c0.3,6.9,5.2,9.9,9.4,14.3l47.6,47c-0.9,1.9-1.4,4.1-1.4,6.3
	C496.7,635.7,503.6,642.6,512,642.6L512,642.6z"/>
<path class="st0" d="M401.8,90.3l0.1,54.1c0,4.9,4,8.9,8.9,8.9s8.9-4,8.9-8.9V90.1c3.9-2.8,6.5-7.4,6.5-12.6c0-8.6-7-15.5-15.5-15.5
	s-15.5,7-15.5,15.5C395,82.8,397.7,87.5,401.8,90.3L401.8,90.3z"/>
<path class="st0" d="M320.2,89.7l0.1,54.1c0,4.9,4,8.9,8.9,8.9s8.9-4,8.9-8.9V89.5c3.9-2.8,6.5-7.4,6.5-12.6c0-8.6-7-15.5-15.5-15.5
	c-8.6,0-15.5,7-15.5,15.5C313.4,82.2,316.1,86.9,320.2,89.7L320.2,89.7z"/>
<path class="st0" d="M320.7,637.2l0.1-50c0-4.9,4-8.9,8.9-8.9s8.9,4,8.9,8.9v50.2c3.9,2.8,6.5,7.4,6.5,12.6c0,8.6-7,15.5-15.5,15.5
	s-15.5-7-15.5-15.5C313.9,644.7,316.6,640,320.7,637.2L320.7,637.2z"/>
<path class="st0" d="M402,637l0.1-50c0-4.9,4-8.9,8.9-8.9s8.9,4,8.9,8.9v50.2c3.9,2.8,6.5,7.4,6.5,12.6c0,8.6-7,15.5-15.5,15.5
	s-15.5-7-15.5-15.5C395.2,644.5,397.9,639.8,402,637L402,637z"/>
<path class="st0" d="M640.7,326.2l-56.8-0.1c-4.9,0-8.9-4-8.9-8.9c0-4.9,4-8.9,8.9-8.9h57c2.8-3.9,7.4-6.5,12.6-6.5
	c8.6,0,15.5,7,15.5,15.5c0,8.6-7,15.5-15.5,15.5C648.2,333,643.5,330.3,640.7,326.2L640.7,326.2z"/>
<path class="st0" d="M100,327.1l56.8-0.1c4.9,0,8.9-4,8.9-8.9s-4-8.9-8.9-8.9h-57c-2.8-3.9-7.4-6.5-12.6-6.5
	c-8.6,0-15.5,7-15.5,15.5c0,8.6,7,15.5,15.5,15.5C92.5,333.9,97.2,331.2,100,327.1L100,327.1z"/>
<path class="st0" d="M640.7,400.5l-56.8-0.1c-4.9,0-8.9-4-8.9-8.9s4-8.9,8.9-8.9h57c2.8-3.9,7.4-6.5,12.6-6.5
	c8.6,0,15.5,7,15.5,15.5s-7,15.5-15.5,15.5C648.2,407.3,643.5,404.6,640.7,400.5L640.7,400.5z"/>
<path class="st0" d="M100,401.3l56.8-0.1c4.9,0,8.9-4,8.9-8.9s-4-8.9-8.9-8.9h-57c-2.8-3.9-7.4-6.5-12.6-6.5
	c-8.6,0-15.5,7-15.5,15.5s7,15.5,15.5,15.5C92.5,408.1,97.2,405.4,100,401.3L100,401.3z"/>
<path class="st0" d="M258.1,224.9h62.3v-32.3c-3.9-2.8-6.5-7.4-6.5-12.6c0-8.6,7-15.5,15.5-15.5c8.6,0,15.5,7,15.5,15.5
	c0,5.3-2.7,10-6.8,12.8l0,32.1h23.8V90.7c-4.2-2.8-7-7.6-7-13c0-8.6,7-15.5,15.5-15.5c8.6,0,15.5,7,15.5,15.5
	c0,5.1-2.4,9.6-6.2,12.4v134.7h22l0-31.6c-4.1-2.8-6.8-7.5-6.8-12.8c0-8.6,7-15.5,15.5-15.5c8.6,0,15.5,7,15.5,15.5
	c0,5.2-2.6,9.8-6.5,12.6v31.8h62.9L626.5,81.1c-0.1-0.9-0.2-1.7-0.2-2.6c0-8.8,7.1-16,16-16c8.8,0,16,7.1,16,16c0,8.8-7.1,16-16,16
	c-1.5,0-3-0.2-4.4-0.6L497.8,234.5v75.7l23.4,0.2c0,0,0-9.9,0-25c0.1-15.2,15.3-13.4,15.3-13.4l46.5-0.3l29.2-29.4c0-0.3,0-0.7,0-1
	c0-7.1,5.8-12.9,12.9-12.9c7.1,0,12.9,5.8,12.9,12.9c0,7-5.6,12.7-12.5,12.9c-6.8,6.8-20.5,20.6-27,27c-7.8,7.7-9.2,7.9-18.4,8
	l-41.5,0.4c0,0,0,10.8-0.2,25.2c-0.2,12.2-4,12.8-14.4,12.8l-26.2,0v18.9h142.4c2.8-4.2,7.7-7,13.1-7c8.7,0,15.8,7.1,15.8,15.9
	c0,8.8-7.1,15.9-15.8,15.9c-5.4,0-10.2-2.7-13.1-6.9H497.8v16.7l25.1,0c10.4,0,14.2,0.6,14.4,12.8c0.2,14.3,0.2,25.2,0.2,25.2
	l41.5,0.4c9.2,0.1,10.6,0.3,18.4,8c6.5,6.4,20.2,20.2,27,27c7,0.2,12.5,5.9,12.5,12.9c0,7.1-5.8,12.9-12.9,12.9
	c-7.1,0-12.9-5.8-12.9-12.9c0-0.3,0-0.7,0-1L582,436.9l-46.5-0.3c0,0-15.3,1.8-15.3-13.4c-0.1-15.2,0-25,0-25l-22.4,0.2v93.3
	L638,632.6c1.4-0.4,2.8-0.6,4.4-0.6c8.8,0,16,7.1,16,16c0,8.8-7.1,16-16,16c-8.8,0-16-7.1-16-16c0-0.9,0.1-1.8,0.2-2.6L486.2,505.1
	h-66.9v35.4c3.9,2.8,6.5,7.4,6.5,12.6c0,8.6-7,15.5-15.5,15.5c-8.6,0-15.5-7-15.5-15.5c0-5.3,2.7-10,6.8-12.8l0-35.2h-21.9V638
	c4.2,2.7,7,7.2,7,12.3c0,8.2-7.1,14.8-15.9,14.8c-8.8,0-15.9-6.6-15.9-14.8c0-5.1,2.7-9.6,6.9-12.2V505.1h-23.2l0,36.3
	c4.1,2.8,6.8,7.5,6.8,12.8c0,8.6-7,15.5-15.5,15.5s-15.5-7-15.5-15.5c0-5.2,2.6-9.8,6.5-12.6v-36.5h-65.7L113.7,646.4
	c0.1,0.9,0.2,1.7,0.2,2.6c0,8.8-7.1,16-16,16c-8.8,0-16-7.1-16-16c0-8.8,7.1-16,16-16c1.5,0,3,0.2,4.4,0.6l140.6-141.2v-92.9
	l-22.7-0.2c0,0,0,9.9,0,25c-0.1,15.2-15.3,13.4-15.3,13.4l-46.5,0.3l-29.2,29.4c0,0.3,0,0.7,0,1c0,7.1-5.8,12.9-12.9,12.9
	c-7.1,0-12.9-5.8-12.9-12.9c0-7,5.6-12.7,12.5-12.9c6.8-6.8,20.5-20.6,27-27c7.8-7.7,9.2-7.9,18.4-8l41.5-0.4c0,0,0-10.8,0.2-25.2
	c0.2-12.2,4-12.8,14.4-12.8l25.5,0v-18.4H99.6c-2.8,4.2-7.6,6.9-13.1,6.9c-8.7,0-15.8-7.1-15.8-15.9S77.8,339,86.5,339
	c5.5,0,10.3,2.8,13.1,7h143.3v-18.9l-27,0c-10.4,0-14.2-0.6-14.4-12.8c-0.2-14.3-0.2-25.2-0.2-25.2l-41.5-0.4
	c-9.2-0.1-10.6-0.3-18.4-8c-6.5-6.4-20.2-20.2-27-27c-7-0.2-12.5-5.9-12.5-12.9c0-7.1,5.8-12.9,12.9-12.9c7.1,0,12.9,5.8,12.9,12.9
	c0,0.3,0,0.7,0,1l29.2,29.4l46.5,0.3c0,0,15.3-1.8,15.3,13.4c0.1,15.2,0,25,0,25l24.2-0.3v-74.9L102,93.3c-1.4,0.4-2.8,0.6-4.4,0.6
	c-8.8,0-16-7.1-16-16c0-8.8,7.1-16,16-16c8.8,0,16,7.1,16,16c0,0.9-0.1,1.8-0.2,2.6L258.1,224.9L258.1,224.9z M575,109.7
	c-1.1,2.3-2.8,4.2-5,5.6L575,109.7z M261,242.2h218.3v245.4H261V242.2L261,242.2z"/>
<path class="st0" d="M369.9,264.1c4.5,0,8.1,3.7,8.1,8.1v25.8c0,4.5-3.7,8.1-8.1,8.1c-4.5,0-8.1-3.7-8.1-8.1v-25.8
	C361.8,267.8,365.5,264.1,369.9,264.1L369.9,264.1z"/>
<path class="st0" d="M369.9,420.7c4.5,0,8.1,3.7,8.1,8.1v25.8c0,4.5-3.7,8.1-8.1,8.1c-4.5,0-8.1-3.7-8.1-8.1v-25.8
	C361.8,424.3,365.5,420.7,369.9,420.7z"/>
<path class="st0" d="M337.7,321.2h64.5c4.4,0,8.1,3.6,8.1,8.1v68.3c0,4.4-3.6,8.1-8.1,8.1h-64.5c-4.4,0-8.1-3.6-8.1-8.1v-68.3
	C329.6,324.9,333.3,321.2,337.7,321.2z M346.2,339.4h46.9V389h-46.9V339.4z"/>
<path class="st0" d="M325.3,288.7l-0.2-9.6l-11,0c-10,0-14.5,2.5-14.2,15.2c0,43.6,0.1,88.2,0.1,131.7c0,12,4.4,15.3,14.1,15.3
	l11.3,0l0-8.3l0.1-5.8c0-5,4.3-9.2,9.1-9.2c4.6,0,8.4,4.3,8.4,9.2l-0.1,6.3c0,2.2,0.1,6.5-0.1,10.5c-0.5,9.3-7.2,14.3-16.1,14.5
	c-4.8,0.1-11.7,0.6-20.2-0.2c-18.8-1.6-23.3-14.6-23.2-32.4c0.3-45.1,0.1-92.7,0.2-137.5c0-16.3,10.3-25.5,23.7-26.2
	c8.5-0.9,15.4-0.3,20.2-0.2c9,0.2,14.8,4.8,15.3,14.1c0.2,4,0.1,8.3,0.1,10.5v7.8c0,5.1-3.9,9.2-8.8,9.2h0c-4.8,0-8.8-4.2-8.8-9.2
	L325.3,288.7L325.3,288.7z"/>
<path class="st0" d="M414.3,288.6l0.2-9.6l11,0c10,0,14.5,2.5,14.2,15.2c0,43.6-0.1,88.2-0.1,131.7c0,12-4.4,15.3-14.1,15.3l-11.3,0
	l0-8.3l-0.1-5.8c0-5-4.3-9.2-9.1-9.2c-4.6,0-8.4,4.3-8.4,9.2l0.1,6.3c0,2.2-0.1,6.5,0.1,10.5c0.5,9.3,7.2,14.3,16.1,14.5
	c4.8,0.1,11.7,0.6,20.2-0.2c18.8-1.6,23.3-14.6,23.2-32.4c-0.3-45.1-0.1-92.7-0.2-137.5c0-16.3-10.3-25.5-23.7-26.2
	c-8.5-0.9-15.4-0.3-20.2-0.2c-9,0.2-14.8,4.8-15.3,14.1c-0.2,4-0.1,8.3-0.1,10.5v7.8c0,5.1,3.9,9.2,8.8,9.2h0c4.8,0,8.8-4.2,8.8-9.2
	L414.3,288.6L414.3,288.6z"/>
<rect x="361.2" y="353.3" class="st0" width="17.4" height="20.4"/>
</svg>
