<?xml version="1.0" encoding="utf-8"?>
<!-- Generator: Adobe Illustrator 28.0.0, SVG Export Plug-In . SVG Version: 6.00 Build 0)  -->
<svg version="1.1" id="Layer_1" xmlns:xodm="http://www.corel.com/coreldraw/odm/2003"
	 xmlns="http://www.w3.org/2000/svg" xmlns:xlink="http://www.w3.org/1999/xlink" x="0px" y="0px" viewBox="0 0 720 720"
	 style="enable-background:new 0 0 720 720;" xml:space="preserve">
<style type="text/css">
	.st0{fill:#C10C0C;}
	.st1{fill:none;}
	.st2{fill-rule:evenodd;clip-rule:evenodd;fill:#FFD93E;}
	.st3{fill-rule:evenodd;clip-rule:evenodd;fill:#F9F9F9;}
	.st4{fill-rule:evenodd;clip-rule:evenodd;}
	.st5{fill:#FFFFFF;}
</style>
<polygon points="637.2,217.9 637.2,486.1 72.1,486.1 72.1,310.9 165.8,217.9 "/>
<polygon class="st0" points="229.3,217.9 165.8,217.9 72.1,311.7 72.1,371.4 59.8,358.5 59.8,306.5 160.7,205.7 215.3,205.7 "/>
<line class="st1" x1="65.3" y1="301" x2="59.8" y2="306.5"/>
<polygon class="st0" points="663.3,387.6 663.3,510.1 359,510.1 384.3,486.1 637.2,486.1 637.2,414.6 "/>
<g>
	<polygon class="st0" points="662.6,311.5 637.2,337.8 637.2,311.5 	"/>
	<polygon class="st0" points="663.3,324.3 663.3,342.4 637.2,369.6 637.2,351.3 	"/>
	<polygon class="st0" points="637.2,383.5 663.3,356.5 663.3,375.1 637.2,402.1 	"/>
</g>
<path class="st2" d="M169.8,327.7c2.6-4.5,9.2-4.5,11.8,0l35.8,62l36.2,62.8c2.4,4.2-0.6,9.4-5.4,9.4h-72.5h-72.5
	c-4.8,0-7.9-5.2-5.4-9.4l36.2-62.8L169.8,327.7z"/>
<path class="st3" d="M249,454l-35.8-61.9l-35.7-61.9c-0.8-1.4-2.8-1.4-3.6,0l-35.8,61.9L102.3,454c-0.8,1.4,0.2,3.2,1.8,3.2h71.5
	h71.5C248.8,457.1,249.8,455.4,249,454z M246.6,455.7h-70.9h-70.9c-0.7,0-1.2-0.8-0.8-1.4l35.5-61.4l35.5-61.4
	c0.3-0.6,1.3-0.6,1.6,0l35.4,61.4l35.5,61.4C247.7,454.9,247.3,455.7,246.6,455.7z"/>
<path class="st4" d="M249,454l-35.8-61.9l-35.8-61.9c-0.8-1.4-2.8-1.4-3.6,0l-35.7,61.9L102.3,454c-0.8,1.4,0.2,3.2,1.8,3.2h71.5
	h71.5C248.8,457.1,249.8,455.4,249,454z M244.9,454.3h-69.2h-69.2c-0.7,0-1.1-0.8-0.8-1.4l34.6-59.9l34.6-59.9
	c0.3-0.6,1.2-0.6,1.6,0L211,393l34.6,59.9C246,453.5,245.6,454.3,244.9,454.3z"/>
<path class="st4" d="M175.2,395.8c-9.4,0-17.1,7.6-17.1,17.1s7.6,17.1,17.1,17.1s17.1-7.6,17.1-17.1S184.6,395.8,175.2,395.8z
	 M175.2,426.6c-7.6,0-13.7-6.2-13.7-13.7c0-7.6,6.2-13.7,13.7-13.7s13.7,6.2,13.7,13.7C189,420.5,182.8,426.6,175.2,426.6z"/>
<path class="st4" d="M175.2,434.4L175.2,434.4L175.2,434.4c6.3,9.7,18.3,12.7,28.5,7c-8.6,3.3-19.1-1.6-22.6-10.5
	c-1.2-3-0.5-9.5,1.2-12.9c-3.3-2.2-5.2-3.2-7.2-3.1c-2-0.1-3.9,0.9-7.1,3.2c1.7,3.4,2.5,9.9,1.3,12.9c-3.4,9-13.9,14-22.5,10.8
	C157,447.2,169,444.2,175.2,434.4z"/>
<path class="st4" d="M193.7,402.5L193.7,402.5L193.7,402.5c5.3-10.3,2-22.2-8-28.3c7.1,5.8,8,17.4,2,24.9c-2,2.5-8.1,5.1-11.8,5.3
	c-0.3,3.9-0.3,6.1,0.9,7.8c0.9,1.8,2.7,2.9,6.3,4.6c2.1-3.1,7.4-7,10.6-7.5c9.5-1.5,19,5.2,20.5,14.2
	C213.8,411.9,205.3,403,193.7,402.5z"/>
<path class="st4" d="M156.8,402.5L156.8,402.5L156.8,402.5c-11.6,0.6-20.2,9.4-20.4,21.1c1.5-9.1,11-15.7,20.5-14.2
	c3.2,0.5,8.5,4.4,10.6,7.5c3.6-1.7,5.4-2.8,6.3-4.6c1.1-1.7,1.2-3.9,0.9-7.8c-3.8-0.3-9.8-2.8-11.8-5.4c-6-7.5-5.1-19,2-24.9
	C154.8,380.3,151.5,392.2,156.8,402.5z"/>
<path class="st5" d="M254.2,418.9v-48.1h33.2l6,6v12.1l-6,6l6,6v12l-6,6H254.2z M266.2,382.8v6h15.1v-6H266.2z M266.2,400.9v5.9
	h15.1v-5.9H266.2z"/>
<path class="st5" d="M311.2,370.8V419h-12.1v-48.1h12.1V370.8z"/>
<path class="st5" d="M322.4,419l-6-6v-36.1l6-6h27l6,6V413l-6,6H322.4z M328.4,382.9v24h15v-24H328.4z"/>
<path class="st5" d="M373.3,400.9V419h-12.1v-48.1h12.1v18h15v-18h12.1V419h-12.1v-18.1H373.3z"/>
<path class="st5" d="M423.4,387.4l-9.9,31.5h-11.7l15.1-48.1h13l15.1,48.1h-11.7L423.4,387.4z"/>
<path class="st5" d="M445.8,419l20.6-36.1h-20.6v-12.1h39.1l-20.6,36.1h20.6V419H445.8z"/>
<path class="st5" d="M506.3,387.4l-9.9,31.5h-11.7l15.1-48.1h13l15.1,48.1h-11.7L506.3,387.4z"/>
<path class="st5" d="M542.8,400.9V419h-12.1v-48.1h33.1l6,6v18l-6,6h-4.5l10.5,18.1h-12.1l-10.5-18.1H542.8z M542.8,382.9v6h15v-6
	H542.8z"/>
<path class="st5" d="M575.1,418.9v-48.1h33.2l6,6v36.1l-6,6H575.1z M587.2,382.8v24h15.1v-24H587.2z"/>
<g>
	<polygon class="st5" points="151.3,296.8 136.8,296.8 165.8,255.3 180.3,255.3 	"/>
	<polygon class="st5" points="176.5,296.8 161.9,296.8 191,255.3 205.5,255.3 	"/>
	<polygon class="st5" points="201.6,296.8 187.1,296.8 216.1,255.3 230.7,255.3 	"/>
	<polygon class="st5" points="226.8,296.8 212.3,296.8 241.3,255.3 255.8,255.3 	"/>
	<polygon class="st5" points="252,296.8 237.4,296.8 266.5,255.3 281,255.3 	"/>
	<polygon class="st5" points="277.1,296.8 262.6,296.8 291.7,255.3 306.2,255.3 	"/>
	<polygon class="st5" points="302.3,296.8 287.8,296.8 316.8,255.3 331.3,255.3 	"/>
	<polygon class="st5" points="327.5,296.8 312.9,296.8 342,255.3 356.5,255.3 	"/>
	<polygon class="st5" points="352.6,296.8 338.1,296.8 367.2,255.3 381.7,255.3 	"/>
	<polygon class="st5" points="377.8,296.8 363.3,296.8 392.3,255.3 406.8,255.3 	"/>
	<polygon class="st5" points="403,296.8 388.5,296.8 417.5,255.3 432,255.3 	"/>
	<polygon class="st5" points="428.1,296.8 413.6,296.8 442.7,255.3 457.2,255.3 	"/>
	<polygon class="st5" points="453.3,296.8 438.8,296.8 467.8,255.3 482.4,255.3 	"/>
	<polygon class="st5" points="478.5,296.8 464,296.8 493,255.3 507.5,255.3 	"/>
	<polygon class="st5" points="503.7,296.8 489.1,296.8 518.2,255.3 532.7,255.3 	"/>
	<polygon class="st5" points="528.8,296.8 514.3,296.8 543.3,255.3 557.9,255.3 	"/>
	<polygon class="st5" points="554,296.8 539.5,296.8 568.5,255.3 583,255.3 	"/>
	<polygon class="st5" points="579.2,296.8 564.6,296.8 593.7,255.3 608.2,255.3 	"/>
</g>
</svg>
