<?xml version="1.0" encoding="utf-8"?>
<!-- Generator: Adobe Illustrator 28.0.0, SVG Export Plug-In . SVG Version: 6.00 Build 0)  -->
<svg version="1.1" id="Layer_1" xmlns:xodm="http://www.corel.com/coreldraw/odm/2003"
	 xmlns="http://www.w3.org/2000/svg" xmlns:xlink="http://www.w3.org/1999/xlink" x="0px" y="0px" viewBox="0 0 720 720"
	 style="enable-background:new 0 0 720 720;" xml:space="preserve">
<style type="text/css">
	.st0{opacity:0.5;}
</style>
<ellipse cx="600.4" cy="361.4" rx="80.9" ry="37.5"/>
<ellipse transform="matrix(0.809 -0.5878 0.5878 0.809 -23.3419 367.8736)" cx="554.4" cy="219.9" rx="80.9" ry="37.5"/>
<ellipse transform="matrix(0.309 -0.9511 0.9511 0.309 174.0048 504.2854)" cx="434" cy="132.4" rx="80.9" ry="37.5"/>
<ellipse transform="matrix(0.9511 -0.309 0.309 0.9511 -26.951 94.6262)" class="st0" cx="285.2" cy="132.4" rx="37.5" ry="80.9"/>
<ellipse transform="matrix(0.5878 -0.809 0.809 0.5878 -109.9071 224.0077)" class="st0" cx="164.9" cy="219.9" rx="37.5" ry="80.9"/>
<ellipse class="st0" cx="118.9" cy="361.4" rx="80.9" ry="37.5"/>
<ellipse transform="matrix(0.809 -0.5878 0.5878 0.809 -264.1045 192.9494)" cx="164.9" cy="502.9" rx="80.9" ry="37.5"/>
<ellipse transform="matrix(0.309 -0.9511 0.9511 0.309 -364.3566 679.2097)" cx="285.2" cy="590.4" rx="80.9" ry="37.5"/>
<ellipse transform="matrix(0.9511 -0.309 0.309 0.9511 -161.185 163.0218)" cx="434" cy="590.4" rx="37.5" ry="80.9"/>
<ellipse transform="matrix(0.5878 -0.809 0.809 0.5878 -178.3027 655.8405)" cx="554.4" cy="502.9" rx="37.5" ry="80.9"/>
<path d="M284.9,329.3h-29.1v-12H301v7.2l-27.2,82.3h-16.3L284.9,329.3z"/>
<path d="M308.7,342.9c0-3.9,0.4-7.3,1.2-10.1c0.8-2.8,1.8-5.2,3.1-7.2c1.3-1.9,2.8-3.5,4.5-4.7s3.4-2.1,5.2-2.7
	c1.8-0.6,3.6-1.1,5.4-1.3c1.8-0.2,3.4-0.3,5-0.3c1.4,0,3,0.1,4.8,0.3c1.8,0.2,3.5,0.6,5.3,1.2c1.8,0.6,3.5,1.5,5.2,2.7
	c1.7,1.2,3.2,2.7,4.5,4.7c1.3,2,2.3,4.4,3.1,7.2c0.8,2.9,1.2,6.3,1.2,10.3v37.8c0,3.9-0.4,7.3-1.2,10.1c-0.8,2.8-1.8,5.3-3.2,7.2
	c-1.3,2-2.8,3.6-4.5,4.8c-1.7,1.2-3.4,2.2-5.2,2.9c-1.8,0.7-3.5,1.1-5.3,1.4c-1.8,0.2-3.3,0.4-4.7,0.4c-1.5,0-3.2-0.1-5-0.4
	c-1.8-0.2-3.6-0.7-5.4-1.4c-1.8-0.7-3.6-1.6-5.2-2.9c-1.7-1.2-3.2-2.8-4.4-4.8c-1.3-2-2.3-4.4-3.1-7.3c-0.8-2.9-1.2-6.2-1.2-10.2
	V342.9z M324,386.4c0,3.7,0.7,6.4,2.2,8.1c1.5,1.7,3.8,2.5,6.8,2.5c3,0,5.2-0.8,6.7-2.5c1.5-1.7,2.2-4.4,2.2-8.1v-48.4
	c0-3.9-0.7-6.8-2.2-8.5c-1.5-1.8-3.7-2.7-6.7-2.7c-3.1,0-5.3,0.9-6.8,2.7c-1.5,1.8-2.2,4.6-2.2,8.5V386.4z"/>
<path d="M391,365.6c-2.2,0-4.4-0.3-6.6-0.8c-2.2-0.6-4.2-1.6-6-3.3c-1.8-1.6-3.3-3.9-4.4-6.9s-1.7-6.9-1.7-11.8v-5.6
	c0-3.2,0.3-5.9,0.8-8.2c0.5-2.3,1.3-4.3,2.2-5.9c0.9-1.6,2-3,3.3-4c1.2-1,2.5-1.8,3.9-2.4c1.4-0.6,2.8-0.9,4.3-1.2
	c1.4-0.2,2.9-0.3,4.3-0.3c1.3,0,2.7,0.1,4.1,0.3c1.4,0.2,2.8,0.6,4.2,1.1c1.4,0.6,2.7,1.3,3.9,2.3c1.2,1,2.3,2.3,3.2,4
	c0.9,1.6,1.7,3.6,2.2,6c0.5,2.3,0.8,5.1,0.8,8.3v5.6c0,4.8-0.6,8.7-1.8,11.6s-2.7,5.3-4.5,6.9c-1.8,1.6-3.8,2.7-6,3.3
	C395,365.3,392.9,365.6,391,365.6z M391.1,357.3c2.4,0,4.1-1,5.1-2.9s1.5-4.9,1.5-8.9v-10.2c0-4-0.5-7-1.5-8.9
	c-1-1.9-2.7-2.9-5.1-2.9c-2.6,0-4.3,1-5.4,2.9c-1,1.9-1.5,4.9-1.5,8.9v10.2c0,4,0.5,7,1.5,8.9C386.8,356.3,388.6,357.3,391.1,357.3z
	 M426.1,316.3h10.5L410,406.7h-10.5L426.1,316.3z M426.2,379.1c0-4.8,0.6-8.6,1.8-11.5c1.2-2.9,2.7-5.1,4.5-6.6s3.9-2.6,6.1-3.1
	s4.3-0.8,6.4-0.8c1.3,0,2.7,0.1,4.1,0.3c1.4,0.2,2.8,0.6,4.2,1.1c1.4,0.6,2.7,1.3,3.9,2.3c1.2,1,2.3,2.3,3.2,4
	c0.9,1.6,1.7,3.6,2.2,6c0.5,2.3,0.8,5.1,0.8,8.3v5.6c0,3.2-0.3,6-0.8,8.4c-0.6,2.4-1.3,4.4-2.3,6.1c-0.9,1.7-2,3.1-3.3,4.1
	s-2.5,1.9-3.9,2.6c-1.4,0.6-2.8,1.1-4.2,1.3c-1.4,0.2-2.8,0.3-4.1,0.3c-1.5,0-2.9-0.1-4.4-0.3c-1.5-0.2-2.9-0.6-4.3-1.2
	c-1.4-0.6-2.7-1.4-3.9-2.5c-1.2-1.1-2.3-2.5-3.2-4.1c-0.9-1.7-1.6-3.7-2.1-6.1c-0.5-2.4-0.8-5.2-0.8-8.5V379.1z M438.1,387.5
	c0,4,0.5,7,1.5,8.9s2.8,2.9,5.4,2.9c2.4,0,4.1-0.9,5.1-2.9s1.5-4.9,1.5-8.9v-10.2c0-4-0.5-7-1.5-9c-1-1.9-2.7-2.9-5.1-2.9
	c-2.5,0-4.3,1-5.4,2.9c-1,1.9-1.5,4.9-1.5,9V387.5z"/>
</svg>
