<?xml version="1.0" encoding="utf-8"?>
<!-- Generator: Adobe Illustrator 28.0.0, SVG Export Plug-In . SVG Version: 6.00 Build 0)  -->
<svg version="1.1" id="Layer_1" xmlns:xodm="http://www.corel.com/coreldraw/odm/2003"
	 xmlns="http://www.w3.org/2000/svg" xmlns:xlink="http://www.w3.org/1999/xlink" x="0px" y="0px" viewBox="0 0 720 720"
	 style="enable-background:new 0 0 720 720;" xml:space="preserve">
<path d="M192.7,345.5c0,1.9,0,3.7,0.2,5.6l-133.2,8.4v-28.1L193,340C192.7,341.9,192.7,343.6,192.7,345.5z"/>
<path d="M207.5,296.9c-2.1,3.1-3.9,6.3-5.6,9.6L82.4,247.2l14-24.3L207.5,296.9z"/>
<path d="M241.6,266.8c-3.3,1.7-6.5,3.5-9.6,5.6l-73.9-111l24.3-14L241.6,266.8z"/>
<path d="M294.7,124.8l-8.4,133.1c-1.9-0.2-3.7-0.2-5.6-0.2c-1.9,0-3.7,0-5.6,0.2l-8.4-133.1H294.7z"/>
<path d="M403.1,161.3l-73.8,111c-3.1-2.1-6.3-3.9-9.6-5.6l59.1-119.5L403.1,161.3z"/>
<path d="M478.8,247.2l-119.4,59.3c-1.7-3.3-3.5-6.5-5.7-9.6l111-73.9L478.8,247.2z"/>
<path d="M663.3,331.5v28.1l-294.8-10.8c0.1-1.1,0.1-2.1,0.1-3.2c0-1.1,0-2.1-0.1-3.2L663.3,331.5z"/>
<path d="M478.8,443.7l-14,24.4l-111-73.9c2.3-3.1,4-6.3,5.7-9.6L478.8,443.7z"/>
<path d="M403.1,529.8l-24.3,13.9l-59.1-119.4c3.3-1.7,6.5-3.5,9.6-5.6L403.1,529.8z"/>
<path d="M294.7,566.3h-28.1l8.4-133.1c1.9,0.2,3.7,0.2,5.6,0.2c1.9,0,3.7,0,5.6-0.2L294.7,566.3z"/>
<path d="M241.6,424.3l-59.3,119.4l-24.3-13.9l73.9-111C235.1,420.9,238.3,422.7,241.6,424.3z"/>
<path d="M207.5,394.2l-111,73.9l-14-24.4l119.5-59.1C203.6,387.9,205.3,391.1,207.5,394.2z"/>
<path d="M192.7,345.5c0,1.9,0,3.7,0.2,5.6l-133.2,8.4v-28.1L193,340C192.7,341.9,192.7,343.6,192.7,345.5z"/>
<path d="M197.3,373.5l-92,30.8l-6-22.1l95.2-19.3C195.2,366.5,196.2,370.1,197.3,373.5z"/>
<path d="M197.4,317.6c-1.2,3.5-2.1,7-2.9,10.6l-95.2-19.3l6-22.3L197.4,317.6z"/>
<path d="M368.6,345.5c0,1.1,0,2.1-0.1,3.2c-0.1,4.9-0.7,9.5-1.7,14.2c-0.7,3.6-1.7,7.1-2.7,10.6c-1.3,3.8-2.9,7.5-4.6,11.1
	c-1.7,3.3-3.5,6.5-5.7,9.6c-2,3.3-4.4,6.4-7.3,9.4c-2.1,2.7-4.9,5.4-7.7,7.7c-3,2.9-6.1,5.2-9.4,7.4c-3.1,2.1-6.3,3.9-9.6,5.6
	c-3.6,1.8-7.3,3.3-11.1,4.6c-3.5,1.1-7,2-10.6,2.7c-3.8,0.8-7.7,1.3-11.8,1.5c-1.9,0.2-3.7,0.2-5.6,0.2c-1.9,0-3.7,0-5.6-0.2
	c-4-0.2-8-0.7-11.9-1.5c-3.6-0.7-7-1.7-10.5-2.9c-3.8-1.2-7.5-2.7-11.1-4.5c-3.3-1.7-6.5-3.5-9.6-5.6c-3.3-2.1-6.5-4.6-9.5-7.4
	c-2.9-2.4-5.5-5-7.6-7.7c-2.9-3-5.2-6.1-7.4-9.4c-2.1-3.1-3.9-6.3-5.6-9.6c-1.8-3.6-3.3-7.3-4.6-11.1c-1.1-3.5-2-7-2.7-10.6
	c-0.8-3.8-1.3-7.7-1.5-11.8c-0.2-1.9-0.2-3.7-0.2-5.6c0-1.9,0-3.7,0.2-5.6c0.2-4,0.7-8,1.5-11.8c0.7-3.6,1.7-7.1,2.9-10.6
	c1.2-3.8,2.7-7.5,4.5-11.1c1.7-3.3,3.5-6.5,5.6-9.6c2.1-3.3,4.6-6.5,7.4-9.5c2.3-2.6,4.8-5.2,7.6-7.6c3-2.7,6.2-5.2,9.5-7.4
	c3.1-2.1,6.3-3.9,9.6-5.6c3.6-1.8,7.3-3.3,11.1-4.5c3.5-1.2,6.9-2.1,10.5-2.9c3.9-0.8,7.9-1.3,11.9-1.5c1.9-0.2,3.7-0.2,5.6-0.2
	c1.9,0,3.7,0,5.6,0.2c4,0.2,8,0.7,11.8,1.5c3.6,0.7,7.1,1.7,10.6,2.7c3.8,1.3,7.5,2.9,11.1,4.6c3.3,1.7,6.5,3.5,9.6,5.6
	c3.3,2.1,6.4,4.5,9.4,7.4c2.9,2.3,5.5,4.9,7.7,7.6c2.7,3,5.2,6.2,7.3,9.5c2.3,3.1,4,6.3,5.7,9.6c1.8,3.6,3.3,7.3,4.5,11.1
	c1.2,3.5,2.1,7,2.9,10.6c1,4.6,1.5,9.3,1.7,14.2C368.6,343.4,368.6,344.5,368.6,345.5z"/>
<path d="M222.5,279.7c-2.9,2.4-5.4,5-7.6,7.6L142,223.1l16.2-16.2L222.5,279.7z"/>
<path d="M263.2,259.4c-3.6,0.7-7,1.7-10.5,2.9l-30.9-92l22.1-6L263.2,259.4z"/>
<path d="M339.5,170.2l-30.8,91.9c-3.5-1.1-7-2-10.6-2.7l19.3-95.1L339.5,170.2z"/>
<path d="M419.3,223.1l-72.8,64.3c-2.3-2.7-4.9-5.4-7.7-7.6l64.3-72.8L419.3,223.1z"/>
<path d="M461.9,308.9l-95.1,19.3c-0.7-3.6-1.7-7.1-2.9-10.6l92-30.9L461.9,308.9z"/>
<path d="M461.9,382.2l-6,22.1l-91.9-30.8c1.1-3.5,2-7,2.7-10.6L461.9,382.2z"/>
<path d="M419.3,467.9L403,484.2l-64.3-72.8c2.9-2.4,5.6-5,7.7-7.7L419.3,467.9z"/>
<path d="M339.5,520.8l-22.1,6l-19.3-95.1c3.6-0.7,7.1-1.7,10.6-2.7L339.5,520.8z"/>
<path d="M263.2,431.7l-19.3,95.1l-22.1-6l30.9-92C256.2,430,259.6,431,263.2,431.7z"/>
<path d="M222.5,411.4l-64.3,72.8L142,467.9l72.8-64.3C217,406.4,219.6,409,222.5,411.4z"/>
<path d="M197.3,373.5l-92,30.8l-6-22.1l95.2-19.3C195.2,366.5,196.2,370.1,197.3,373.5z"/>
</svg>
