<?xml version="1.0" encoding="utf-8"?>
<!-- Generator: Adobe Illustrator 28.0.0, SVG Export Plug-In . SVG Version: 6.00 Build 0)  -->
<svg version="1.1" id="Layer_1" xmlns:xodm="http://www.corel.com/coreldraw/odm/2003"
	 xmlns="http://www.w3.org/2000/svg" xmlns:xlink="http://www.w3.org/1999/xlink" x="0px" y="0px" viewBox="0 0 720 720"
	 style="enable-background:new 0 0 720 720;" xml:space="preserve">
<style type="text/css">
	.st0{fill:none;stroke:#000000;stroke-width:11.7965;stroke-miterlimit:10;}
</style>
<path d="M182.8,186.6l-23.3,40.2c-21.1,36.4-8.7,82.9,27.7,104l238.1,138.2c16,9.3,36.1,7.7,50.5-4l76.9-62.6L182.8,186.6z"/>
<path d="M187.3,178.7c0,0,14.7-25.4,22.1-38.3c151.4,88.2,453.8,264.4,453.8,264.4l-102.1-9.6L187.3,178.7z"/>
<path d="M485.9,466.1c16.6-13.4,69.2-56.4,69.2-56.4l29.4,17c3.1,1.8,3.4,6.1,0.7,8.4l-58.3,48.5c-2.8,2.3-6.7,2.6-9.8,0.8
	C509.1,479.7,493.9,470.7,485.9,466.1z"/>
<circle cx="231.7" cy="486" r="27.7"/>
<circle cx="296.4" cy="386.9" r="23.8"/>
<rect x="102.2" y="452.7" width="19.2" height="67"/>
<rect x="64.9" y="414.1" width="37.3" height="143"/>
<line class="st0" x1="296.4" y1="386.9" x2="231.7" y2="486"/>
<line class="st0" x1="111.8" y1="486.3" x2="231.7" y2="486"/>
</svg>
