<?xml version="1.0" encoding="utf-8"?>
<!-- Generator: Adobe Illustrator 28.0.0, SVG Export Plug-In . SVG Version: 6.00 Build 0)  -->
<svg version="1.1" id="Layer_1" xmlns:xodm="http://www.corel.com/coreldraw/odm/2003"
	 xmlns="http://www.w3.org/2000/svg" xmlns:xlink="http://www.w3.org/1999/xlink" x="0px" y="0px" viewBox="0 0 720 720"
	 style="enable-background:new 0 0 720 720;" xml:space="preserve">
<polygon points="106.8,330.5 149,355.5 119.5,405.4 209.1,564.8 267.1,565.6 266.4,614.6 183.6,613.5 64.7,401.9 "/>
<polygon points="199.4,330.3 241.7,355.2 212.8,404.1 258.7,485.7 315.4,486.5 314.8,535.4 233.2,534.4 157.9,400.6 "/>
<polyline points="655.3,408.6 531.5,617.4 448.7,616.6 449.2,567.6 507.2,568.2 600.4,410.9 572,360.3 614.8,336.3 "/>
<polygon points="402.2,536.5 402.6,487.5 459.4,488 507.1,407.5 479.4,358 522.1,334.1 562,405.3 483.8,537.3 "/>
<polygon points="525.5,177.5 482.8,201.6 454.3,151.1 271.5,148.9 241.8,198.8 199.7,173.7 242,102.6 484.8,105.4 "/>
<polygon points="479.4,257.8 436.7,281.9 408.8,232.5 315.2,231.5 286.1,280.2 244.1,255.2 285.8,185 439.2,186.7 "/>
<g>
	<polygon points="243.6,309.7 362.8,365.2 472.1,309.9 379,396 362.7,523.3 343.5,396 	"/>
</g>
</svg>
