<?xml version="1.0" encoding="utf-8"?>
<!-- Generator: Adobe Illustrator 28.0.0, SVG Export Plug-In . SVG Version: 6.00 Build 0)  -->
<svg version="1.1" id="Layer_1" xmlns:xodm="http://www.corel.com/coreldraw/odm/2003"
	 xmlns="http://www.w3.org/2000/svg" xmlns:xlink="http://www.w3.org/1999/xlink" x="0px" y="0px" viewBox="0 0 720 720"
	 style="enable-background:new 0 0 720 720;" xml:space="preserve">
<style type="text/css">
	.st0{fill:#C02026;}
	.st1{opacity:0.5;}
</style>
<g>
	<path class="st0" d="M648.6,387H70.2C52.4,387,38,372.7,38,354.9l0,0c0-17.8,14.4-32.2,32.2-32.2h578.4c17.8,0,32.2,14.4,32.2,32.2
		l0,0C680.8,372.6,666.4,387,648.6,387z M70.2,327.9c-14.8,0-27,12.1-27,27l0,0c0,14.8,12.1,27,27,27h578.4c14.8,0,27-12.1,27-27
		l0,0c0-14.8-12.1-27-27-27H70.2z"/>
</g>
<g>
	<g>
		<path class="st0" d="M64.9,329.8l-16.8,37.9c-2.1-3.6-3.3-7.8-3.5-12.2l8.9-20C56.7,332.7,60.6,330.8,64.9,329.8z"/>
	</g>
</g>
<g>
	<g>
		<path class="st0" d="M52.2,336.7l-7.6,17.1C45,347.1,47.7,341.1,52.2,336.7z"/>
	</g>
</g>
<g>
	<g>
		<path class="st0" d="M75.8,329.3l-20.5,46.3c-2.4-1.7-4.5-3.8-6.1-6.2l17.7-39.9L75.8,329.3z"/>
	</g>
</g>
<g>
	<g>
		<path class="st0" d="M86.5,329.3L86.5,329.3l-22.3,50.3c-2.7-0.6-5.2-1.7-7.5-3.2l21-47.2l0,0H86.5z"/>
	</g>
</g>
<g>
	<g>
		<polygon class="st0" points="74.5,380.4 65.6,380.4 88.2,329.3 97.2,329.3 		"/>
	</g>
</g>
<g>
	<g>
		<polygon class="st0" points="85.2,380.4 76.3,380.4 98.9,329.3 107.8,329.3 		"/>
	</g>
</g>
<g>
	<g>
		<polygon class="st0" points="95.9,380.4 87,380.4 109.6,329.3 118.5,329.3 		"/>
	</g>
</g>
<g>
	<g>
		<polygon class="st0" points="106.5,380.4 97.6,380.4 120.2,329.3 129.1,329.3 		"/>
	</g>
</g>
<g>
	<g>
		<polygon class="st0" points="117.2,380.4 108.3,380.4 131,329.3 139.8,329.3 		"/>
	</g>
</g>
<g>
	<g>
		<polygon class="st0" points="127.8,380.4 118.9,380.4 141.7,329.3 150.5,329.3 		"/>
	</g>
</g>
<g>
	<g>
		<polygon class="st0" points="138.5,380.4 129.6,380.4 152.3,329.3 161.1,329.3 		"/>
	</g>
</g>
<g>
	<g>
		<polygon class="st0" points="149.2,380.4 140.3,380.4 163,329.3 171.9,329.3 		"/>
	</g>
</g>
<g>
	<g>
		<polygon class="st0" points="159.8,380.4 150.9,380.4 173.6,329.3 182.5,329.3 		"/>
	</g>
</g>
<g>
	<g>
		<polygon class="st0" points="170.5,380.4 161.7,380.4 184.3,329.3 193.2,329.3 		"/>
	</g>
</g>
<g>
	<g>
		<polygon class="st0" points="181.1,380.4 172.3,380.4 195,329.3 203.9,329.3 		"/>
	</g>
</g>
<g>
	<g>
		<polygon class="st0" points="191.8,380.4 183,380.4 205.6,329.3 214.5,329.3 		"/>
	</g>
</g>
<g>
	<g>
		<polygon class="st0" points="202.6,380.4 193.7,380.4 216.3,329.3 225.2,329.3 		"/>
	</g>
</g>
<g>
	<g>
		<polygon class="st0" points="213.2,380.4 204.3,380.4 226.9,329.3 235.8,329.3 		"/>
	</g>
</g>
<g>
	<g>
		<polygon class="st0" points="223.9,380.4 215,380.4 237.6,329.3 246.5,329.3 		"/>
	</g>
</g>
<g>
	<g>
		<polygon class="st0" points="234.5,380.4 225.6,380.4 248.3,329.3 257.2,329.3 		"/>
	</g>
</g>
<g>
	<g>
		<polygon class="st0" points="245.2,380.4 236.3,380.4 258.9,329.3 267.8,329.3 		"/>
	</g>
</g>
<g>
	<g>
		<polygon class="st0" points="255.9,380.4 247,380.4 269.6,329.3 278.5,329.3 		"/>
	</g>
</g>
<g>
	<g>
		<polygon class="st0" points="266.5,380.4 257.6,380.4 280.3,329.3 289.2,329.3 		"/>
	</g>
</g>
<g>
	<g>
		<polygon class="st0" points="277.2,380.4 268.3,380.4 291,329.3 299.8,329.3 		"/>
	</g>
</g>
<g>
	<g>
		<polygon class="st0" points="287.9,380.4 279,380.4 301.7,329.3 310.5,329.3 		"/>
	</g>
</g>
<g>
	<g>
		<polygon class="st0" points="298.5,380.4 289.6,380.4 312.3,329.3 321.2,329.3 		"/>
	</g>
</g>
<g>
	<g>
		<polygon class="st0" points="309.2,380.4 300.3,380.4 323,329.3 331.9,329.3 		"/>
	</g>
</g>
<g>
	<g>
		<polygon class="st0" points="319.8,380.4 311,380.4 333.7,329.3 342.6,329.3 		"/>
	</g>
</g>
<g>
	<g>
		<polygon class="st0" points="330.5,380.4 321.7,380.4 344.3,329.3 353.2,329.3 		"/>
	</g>
</g>
<g>
	<g>
		<polygon class="st0" points="341.2,380.4 332.4,380.4 355,329.3 363.9,329.3 		"/>
	</g>
</g>
<g>
	<g>
		<polygon class="st0" points="351.9,380.4 343,380.4 365.6,329.3 374.5,329.3 		"/>
	</g>
</g>
<g class="st1">
	<g>
		<polygon class="st0" points="362.6,380.4 353.7,380.4 376.3,329.3 385.2,329.3 		"/>
	</g>
</g>
<g class="st1">
	<g>
		<polygon class="st0" points="373.2,380.4 364.3,380.4 387,329.3 395.9,329.3 		"/>
	</g>
</g>
<g class="st1">
	<g>
		<polygon class="st0" points="383.9,380.4 375,380.4 397.6,329.3 406.5,329.3 		"/>
	</g>
</g>
<g class="st1">
	<g>
		<polygon class="st0" points="394.6,380.4 385.7,380.4 408.3,329.3 417.2,329.3 		"/>
	</g>
</g>
<g class="st1">
	<g>
		<polygon class="st0" points="405.2,380.4 396.3,380.4 419,329.3 427.9,329.3 		"/>
	</g>
</g>
<g class="st1">
	<g>
		<polygon class="st0" points="415.9,380.4 407,380.4 429.7,329.3 438.5,329.3 		"/>
	</g>
</g>
<g class="st1">
	<g>
		<polygon class="st0" points="426.6,380.4 417.7,380.4 440.4,329.3 449.2,329.3 		"/>
	</g>
</g>
<g class="st1">
	<g>
		<polygon class="st0" points="437.2,380.4 428.3,380.4 451,329.3 459.8,329.3 		"/>
	</g>
</g>
<g class="st1">
	<g>
		<polygon class="st0" points="447.9,380.4 439,380.4 461.7,329.3 470.6,329.3 		"/>
	</g>
</g>
<g class="st1">
	<g>
		<polygon class="st0" points="458.5,380.4 449.6,380.4 472.4,329.3 481.3,329.3 		"/>
	</g>
</g>
<g class="st1">
	<g>
		<polygon class="st0" points="469.2,380.4 460.4,380.4 483,329.3 491.9,329.3 		"/>
	</g>
</g>
<g class="st1">
	<g>
		<polygon class="st0" points="479.9,380.4 471.1,380.4 493.7,329.3 502.6,329.3 		"/>
	</g>
</g>
<g class="st1">
	<g>
		<polygon class="st0" points="490.5,380.4 481.7,380.4 504.3,329.3 513.2,329.3 		"/>
	</g>
</g>
<g class="st1">
	<g>
		<polygon class="st0" points="501.3,380.4 492.4,380.4 515,329.3 523.9,329.3 		"/>
	</g>
</g>
<g class="st1">
	<g>
		<polygon class="st0" points="511.9,380.4 503,380.4 525.7,329.3 534.6,329.3 		"/>
	</g>
</g>
<g class="st1">
	<g>
		<polygon class="st0" points="522.6,380.4 513.7,380.4 536.3,329.3 545.2,329.3 		"/>
	</g>
</g>
<g class="st1">
	<g>
		<polygon class="st0" points="533.3,380.4 524.4,380.4 547,329.3 555.9,329.3 		"/>
	</g>
</g>
<g class="st1">
	<g>
		<polygon class="st0" points="543.9,380.4 535,380.4 557.6,329.3 566.6,329.3 		"/>
	</g>
</g>
<g class="st1">
	<g>
		<polygon class="st0" points="554.6,380.4 545.7,380.4 568.4,329.3 577.2,329.3 		"/>
	</g>
</g>
<g class="st1">
	<g>
		<polygon class="st0" points="565.3,380.4 556.4,380.4 579.1,329.3 587.9,329.3 		"/>
	</g>
</g>
<g class="st1">
	<g>
		<polygon class="st0" points="575.9,380.4 567,380.4 589.7,329.3 598.5,329.3 		"/>
	</g>
</g>
<g class="st1">
	<g>
		<polygon class="st0" points="586.6,380.4 577.7,380.4 600.4,329.3 609.2,329.3 		"/>
	</g>
</g>
<g class="st1">
	<g>
		<polygon class="st0" points="597.2,380.4 588.3,380.4 611.1,329.3 620,329.3 		"/>
	</g>
</g>
<g class="st1">
	<g>
		<polygon class="st0" points="607.9,380.4 599,380.4 621.7,329.3 630.6,329.3 		"/>
	</g>
</g>
<g class="st1">
	<g>
		<polygon class="st0" points="618.6,380.4 609.8,380.4 632.4,329.3 641.3,329.3 		"/>
	</g>
</g>
<g class="st1">
	<g>
		<polygon class="st0" points="629.2,380.4 620.4,380.4 643,329.3 651.9,329.3 		"/>
	</g>
</g>
<g class="st1">
	<g>
		<path class="st0" d="M661.1,332.6l-21.2,47.8l0,0H631l0,0l22.4-50.6C656.2,330.3,658.8,331.2,661.1,332.6z"/>
	</g>
</g>
<g class="st1">
	<g>
		<path class="st0" d="M668.8,339.2l-18.2,41.1l-0.1,0.1h-8.9l0,0l20.8-47C664.9,335,667,337,668.8,339.2z"/>
	</g>
</g>
<g class="st1">
	<g>
		<path class="st0" d="M674,351.7l-10.7,24c-3.2,2.2-6.9,3.8-10.8,4.4l17.4-39.3C672.1,344,673.5,347.7,674,351.7z"/>
	</g>
</g>
<g class="st1">
	<g>
		<path class="st0" d="M674.2,354.9c0,7.7-3.4,14.6-8.8,19.3l8.8-19.8C674.2,354.4,674.2,354.7,674.2,354.9z"/>
	</g>
</g>
<path class="st0" d="M338.8,314.2c0-0.7,0.1-1.6,0.3-2.5h2.6v1.8c0,1,0.2,1.8,0.5,2.2c0.3,0.5,0.8,0.6,1.5,0.6
	c0.7,0,1.2-0.3,1.5-0.7c0.3-0.5,0.5-1.2,0.5-2.1v-4.2c0-0.6-0.1-1-0.2-1.3c-0.1-0.4-0.2-0.6-0.4-0.8c-0.2-0.2-0.4-0.3-0.6-0.4
	c-0.2-0.1-0.5-0.1-0.7-0.1c-0.5,0-0.9,0.1-1.2,0.4c-0.4,0.3-0.6,0.6-0.8,0.9h-2.4v-11.1h9.4v3h-6.6v5.4c0.4-0.4,0.8-0.7,1.4-0.9
	c0.6-0.2,1.1-0.4,1.7-0.4c1.4,0,2.3,0.5,3,1.4c0.6,0.9,0.9,2.2,0.9,4v3.7c0,1.1-0.2,2-0.5,2.8c-0.3,0.7-0.6,1.4-1.1,1.9
	s-1,0.7-1.7,1c-0.6,0.2-1.3,0.3-1.9,0.3c-0.8,0-1.5-0.1-2.1-0.4c-0.6-0.2-1.1-0.6-1.6-0.9s-0.7-0.9-0.9-1.5
	C338.9,315.6,338.8,315,338.8,314.2z"/>
<path class="st0" d="M351.7,303.1c0-0.9,0.1-1.8,0.3-2.5c0.2-0.6,0.4-1.3,0.6-1.8c0.3-0.5,0.6-0.8,1-1.1c0.4-0.3,0.7-0.6,1.1-0.6
	c0.4-0.1,0.8-0.3,1.2-0.3c0.4-0.1,0.7-0.1,1.1-0.1c0.3,0,0.6,0,1,0.1c0.4,0.1,0.7,0.2,1.2,0.3c0.4,0.2,0.7,0.4,1.1,0.6
	c0.4,0.3,0.7,0.6,1,1.1c0.3,0.5,0.6,1,0.6,1.8c0.2,0.7,0.3,1.6,0.3,2.5v9.2c0,0.9-0.1,1.8-0.3,2.5c-0.2,0.6-0.4,1.3-0.6,1.8
	c-0.3,0.5-0.6,0.8-1,1.2c-0.4,0.3-0.7,0.6-1.1,0.7c-0.4,0.2-0.7,0.3-1.2,0.4c-0.4,0.1-0.7,0.1-1,0.1c-0.4,0-0.7,0-1.1-0.1
	c-0.4-0.1-0.8-0.2-1.2-0.4c-0.4-0.2-0.7-0.4-1.1-0.6c-0.4-0.3-0.7-0.6-1-1.2c-0.3-0.5-0.5-1.1-0.6-1.8c-0.2-0.7-0.3-1.5-0.3-2.5
	V303.1z M355.2,313.8c0,0.9,0.2,1.6,0.5,1.9c0.4,0.4,0.8,0.6,1.5,0.6c0.6,0,1.1-0.2,1.5-0.6c0.3-0.4,0.5-1,0.5-1.9V302
	c0-0.9-0.2-1.7-0.5-2c-0.3-0.5-0.8-0.6-1.5-0.6c-0.6,0-1.2,0.2-1.5,0.6c-0.4,0.5-0.5,1.1-0.5,2V313.8z"/>
<path class="st0" d="M369.9,308.7c-0.5,0-0.9-0.1-1.5-0.2c-0.5-0.1-0.9-0.4-1.3-0.8c-0.4-0.4-0.7-0.9-0.9-1.7
	c-0.2-0.7-0.4-1.7-0.4-2.9v-1.4c0-0.7,0.1-1.5,0.2-2c0.1-0.6,0.3-1,0.5-1.5c0.2-0.4,0.5-0.7,0.7-0.9c0.3-0.3,0.6-0.5,0.8-0.6
	c0.3-0.1,0.6-0.2,0.9-0.3c0.3-0.1,0.6-0.1,0.9-0.1c0.3,0,0.6,0,0.9,0.1c0.3,0.1,0.6,0.1,0.9,0.3c0.3,0.1,0.6,0.4,0.8,0.6
	c0.3,0.3,0.6,0.6,0.7,0.9s0.4,0.9,0.5,1.5s0.2,1.2,0.2,2v1.4c0,1.2-0.1,2.1-0.4,2.9c-0.3,0.7-0.6,1.3-1,1.7
	c-0.5,0.4-0.8,0.6-1.3,0.8C370.7,308.6,370.3,308.7,369.9,308.7z M369.9,306.6c0.6,0,0.9-0.3,1.1-0.7c0.2-0.5,0.3-1.2,0.3-2.1v-2.5
	c0-1-0.1-1.7-0.3-2.2c-0.2-0.5-0.6-0.7-1.1-0.7c-0.6,0-0.9,0.3-1.2,0.7c-0.2,0.5-0.4,1.2-0.4,2.2v2.5c0,1,0.1,1.7,0.4,2.1
	C369,306.4,369.4,306.6,369.9,306.6z M377.6,296.7h2.3l-5.8,22.1h-2.3L377.6,296.7z M377.6,312c0-1.2,0.1-2.1,0.4-2.8
	c0.3-0.7,0.6-1.2,1-1.6c0.4-0.4,0.8-0.6,1.3-0.7s0.9-0.2,1.4-0.2c0.3,0,0.6,0,0.9,0.1c0.3,0.1,0.6,0.1,0.9,0.3
	c0.3,0.1,0.6,0.4,0.8,0.6c0.3,0.3,0.5,0.6,0.7,0.9c0.3,0.4,0.4,0.9,0.5,1.5s0.2,1.2,0.2,2v1.4c0,0.7-0.1,1.5-0.2,2
	c-0.1,0.6-0.3,1.1-0.5,1.5c-0.2,0.4-0.5,0.7-0.7,1c-0.3,0.3-0.6,0.5-0.8,0.6c-0.3,0.2-0.6,0.3-0.9,0.3c-0.3,0.1-0.6,0.1-0.9,0.1
	c-0.3,0-0.6,0-1-0.1c-0.4-0.1-0.6-0.2-0.9-0.3c-0.3-0.2-0.6-0.4-0.8-0.6c-0.3-0.3-0.5-0.6-0.6-1c-0.2-0.4-0.4-0.9-0.5-1.5
	s-0.2-1.3-0.2-2L377.6,312L377.6,312z M380.3,314c0,1,0.1,1.7,0.4,2.1c0.2,0.5,0.6,0.6,1.2,0.6c0.6,0,0.9-0.2,1.1-0.6
	c0.2-0.5,0.3-1.2,0.3-2.1v-2.5c0-1-0.1-1.7-0.3-2.2c-0.2-0.5-0.6-0.7-1.1-0.7s-0.9,0.3-1.2,0.7c-0.2,0.5-0.4,1.2-0.4,2.2V314z"/>
</svg>
