<?xml version="1.0" encoding="utf-8"?>
<!-- Generator: Adobe Illustrator 28.0.0, SVG Export Plug-In . SVG Version: 6.00 Build 0)  -->
<svg version="1.1" id="Layer_1" xmlns:xodm="http://www.corel.com/coreldraw/odm/2003"
	 xmlns="http://www.w3.org/2000/svg" xmlns:xlink="http://www.w3.org/1999/xlink" x="0px" y="0px" viewBox="0 0 720 720"
	 style="enable-background:new 0 0 720 720;" xml:space="preserve">
<style type="text/css">
	.st0{fill-rule:evenodd;clip-rule:evenodd;}
</style>
<polygon class="st0" points="418.4,223 403.3,297.2 436.3,323 471,268.1 "/>
<polygon class="st0" points="297.4,223 312.5,297.2 279.5,323 244.8,268.1 "/>
<polygon class="st0" points="474.1,271.2 439.4,326.1 477.1,462.5 "/>
<polygon class="st0" points="241.7,271.2 276.4,326.1 238.7,462.5 "/>
<path class="st0" d="M358,39.8l53.5,169.3l-50.1,245.7l-1.5,103.4L358,682.1l-1.8-123.8l-1.5-103.5l-50.1-245.7L358,39.8L358,39.8z
	 M358,104.2l14,104.9l-14,197.8l-14-197.8L358,104.2L358,104.2z"/>
</svg>
