<?xml version="1.0" encoding="utf-8"?>
<!-- Generator: Adobe Illustrator 28.0.0, SVG Export Plug-In . SVG Version: 6.00 Build 0)  -->
<svg version="1.1" id="Layer_1" xmlns:xodm="http://www.corel.com/coreldraw/odm/2003"
	 xmlns="http://www.w3.org/2000/svg" xmlns:xlink="http://www.w3.org/1999/xlink" x="0px" y="0px" viewBox="0 0 720 720"
	 style="enable-background:new 0 0 720 720;" xml:space="preserve">
<style type="text/css">
	.st0{fill:#FFD93E;}
	.st1{fill:#FFFFFF;stroke:#000000;stroke-width:3.3784;stroke-miterlimit:10;}
	.st2{fill:none;stroke:#000000;stroke-width:3.3784;stroke-miterlimit:10;}
	.st3{fill-rule:evenodd;clip-rule:evenodd;fill:#FFD93E;}
	.st4{fill-rule:evenodd;clip-rule:evenodd;fill:#F9F9F9;}
	.st5{fill-rule:evenodd;clip-rule:evenodd;}
</style>
<path class="st0" d="M642.2,457.1H69.4c-7.9,0-14.4-6.4-14.4-14.4V241.4c0-7.9,6.4-14.4,14.4-14.4h572.8c7.9,0,14.4,6.4,14.4,14.4
	v201.3C656.6,450.6,650.1,457.1,642.2,457.1z"/>
<rect x="84" y="255.9" class="st1" width="543.6" height="172.2"/>
<line class="st2" x1="254.3" y1="255.9" x2="254.3" y2="428.1"/>
<path class="st3" d="M162.3,283.6c2.3-4,8.1-4,10.4,0l31.9,55.1l32.2,55.8c2.1,3.7-0.6,8.4-4.8,8.4h-64.4h-64.5
	c-4.3,0-7-4.7-4.8-8.4l32.2-55.8L162.3,283.6z"/>
<path class="st4" d="M232.8,395.9l-31.8-55l-31.8-55.1c-0.7-1.2-2.5-1.2-3.3,0l-31.8,55l-31.8,55c-0.7,1.2,0.2,2.8,1.6,2.8h63.6
	h63.6C232.6,398.6,233.5,397.1,232.8,395.9z M230.6,397.4h-63h-63.1c-0.7,0-1-0.7-0.7-1.2l31.5-54.6l31.5-54.6
	c0.3-0.6,1.1-0.6,1.4,0l31.5,54.6l31.5,54.6C231.7,396.6,231.3,397.4,230.6,397.4z"/>
<path class="st5" d="M232.8,395.8l-31.8-55l-31.8-55.1c-0.7-1.2-2.5-1.2-3.3,0l-31.8,55.1l-31.8,55.1c-0.7,1.2,0.2,2.8,1.6,2.8h63.6
	h63.6C232.6,398.6,233.5,397.1,232.8,395.8z M229.1,396.2h-61.5h-61.5c-0.7,0-1-0.7-0.7-1.2l30.8-53.3l30.8-53.3
	c0.3-0.6,1.1-0.6,1.4,0l30.8,53.3l30.8,53.3C230.2,395.4,229.8,396.2,229.1,396.2z"/>
<path class="st5" d="M160.1,354.9l19.8-11.1l-8.1,30.4l4.2,0.9l-9.1,13.5c0,0-4.2-15.8-4.3-15.8l4.2,0.6l0.7-15.8l-15.5,7.5l13-45
	h10.3"/>
<path d="M279.1,312.8l10.5,33.6l6.9-33.6h12.8l6.6,31.4l9.8-31.4h14.4l-17.5,56.1h-14.4l-5.2-25.3l-5.3,25.3h-16.3l-17.5-56.1H279.1
	z"/>
<path d="M358.2,332l-11.5,36.7h-13.6l17.5-56h15.1l17.5,56h-13.6L358.2,332z"/>
<path d="M400.7,347.8v21.1h-14v-56.1h38.5l7,7v21l-7,7H420l12.2,21.1h-14l-12.3-21.1H400.7z M400.7,326.8v6.9h17.4v-6.9H400.7z"/>
<path d="M438.3,312.8h12.8l22.1,37.9v-37.9h14v56.1h-16.4l-18.6-32.1v32.1h-14V312.8z"/>
<path d="M508.1,312.8v56.1h-14v-56.1H508.1z"/>
<path d="M514.8,312.8h12.8l22.1,37.9v-37.9h14v56.1h-16.4l-18.6-32.1v32.1h-14V312.8z"/>
<path d="M576.8,368.9l-7-7v-42l7-7h31.4l7,7v7h-31.4v28h17.4v-7h-10.4v-14h17.4l7,7v20.9l-7,7h-31.4V368.9z"/>
</svg>
