<?xml version="1.0" encoding="UTF-8"?>
<svg id="Layer_1" data-name="Layer 1" xmlns="http://www.w3.org/2000/svg" version="1.1" xmlns:xodm="http://www.corel.com/coreldraw/odm/2003" viewBox="0 0 720 720">
  <defs>
    <style>
      .cls-1 {
        fill: #000;
        stroke-width: 0px;
      }

      .cls-2 {
        fill: none;
        stroke: #000;
        stroke-miterlimit: 10;
        stroke-width: 8px;
      }
    </style>
  </defs>
  <path class="cls-1" d="M57.7,247.3v143.3h605.5v-143.3H57.7ZM661.6,389H59.3v-51.6h-.8v-1.6h.8v-87h602.3v140.2Z"/>
  <rect class="cls-1" x="58.5" y="371.3" width="603.9" height="1.6"/>
  <rect class="cls-1" x="58.5" y="353.6" width="603.9" height="1.6"/>
  <g>
    <rect class="cls-1" x="58.5" y="335.8" width="28" height="1.6"/>
    <rect class="cls-1" x="86.5" y="335.8" width="575.9" height="1.6"/>
  </g>
  <rect class="cls-1" x="58.5" y="318.1" width="603.9" height="1.6"/>
  <rect class="cls-1" x="58.5" y="300.4" width="603.9" height="1.6"/>
  <rect class="cls-1" x="58.5" y="282.7" width="603.9" height="1.6"/>
  <rect class="cls-1" x="58.5" y="265" width="603.9" height="1.6"/>
  <rect class="cls-1" x="632.8" y="248" width="1.6" height="141.8"/>
  <rect class="cls-1" x="604.1" y="248" width="1.6" height="141.8"/>
  <rect class="cls-1" x="575.3" y="248" width="1.6" height="141.8"/>
  <rect class="cls-1" x="546.6" y="248" width="1.6" height="141.8"/>
  <rect class="cls-1" x="517.8" y="248" width="1.6" height="141.8"/>
  <rect class="cls-1" x="489" y="248" width="1.6" height="141.8"/>
  <rect class="cls-1" x="460.3" y="248" width="1.6" height="141.8"/>
  <rect class="cls-1" x="431.5" y="248" width="1.6" height="141.8"/>
  <rect class="cls-1" x="402.8" y="248" width="1.6" height="141.8"/>
  <rect class="cls-1" x="374" y="248" width="1.6" height="141.8"/>
  <rect class="cls-1" x="345.3" y="248" width="1.6" height="141.8"/>
  <rect class="cls-1" x="316.5" y="248" width="1.6" height="141.8"/>
  <rect class="cls-1" x="287.8" y="248" width="1.6" height="141.8"/>
  <rect class="cls-1" x="259" y="248" width="1.6" height="141.8"/>
  <rect class="cls-1" x="230.2" y="248" width="1.6" height="141.8"/>
  <rect class="cls-1" x="201.5" y="248" width="1.6" height="141.8"/>
  <rect class="cls-1" x="172.7" y="248" width="1.6" height="141.8"/>
  <rect class="cls-1" x="144" y="248" width="1.6" height="141.8"/>
  <rect class="cls-1" x="115.2" y="248" width="1.6" height="141.8"/>
  <rect class="cls-1" x="86.5" y="248.1" width="1.6" height="141.8"/>
  <path class="cls-1" d="M662.5,325.1l-.2,4h-.8c0,.1-27.2,4.8-27.2,4.8l-1.6.3-9.5,1.6-6.5,1.1c-.6.1-1.2.3-1.7.5-2.9.8-4.9,1.9-7.2,3-.7.4-1.5.7-2.3,1.1-.5.2-1.1.5-1.6.7-1.1.5-2.4,1-3.8,1.3-6.5,1.7-14.5,3.2-23.4,4-.5,0-1.1.1-1.6.1-8.4.6-17.6.3-27.2-1.3-.5-.1-1.1-.2-1.6-.3-8.5-1.6-17.2-4.3-25.9-8.6-.4-.2-.8-.4-1.3-.7-.5-.2-1.1-.5-1.6-.8q0,0-.2-.1c-7.5-4-15-9.3-22.1-16.1-.6-.5-1.1-1.1-1.7-1.6-1.1-1-2.1-2.1-3.2-3.2-.5-.6-1.1-1.1-1.6-1.7-.6-.6-1.1-1.2-1.7-1.9-6.2-7.2-16.9-8.9-25.5-4-.5.3-1,.6-1.6,1-3.4,2.2-8.3,5.9-13.3,9.8-.7.6-1.4,1.1-2.1,1.6-1.2,1-2.5,2-3.7,3-2.9,2.3-5.6,4.5-8.1,6.4-.6.4-1.1.8-1.6,1.2-1.6,1.2-3,2.3-4.2,3-1.3.8-2.6,1.7-4,2.5-.8.6-1.8,1.1-2.7,1.6-5.3,3-10.7,5.5-16.4,7.6-.5.2-1.1.4-1.6.6-8.8,3-18,5.1-27.2,6-.6.1-1.1.1-1.6.1-9.1.8-18.3.5-27.2-.9-.5-.1-1.1-.2-1.6-.3-9.6-1.6-18.8-4.5-27.2-8.8-.6-.3-1.1-.6-1.6-.8-2-1.1-4-2.2-5.9-3.4-.8-.5-1.6-1-2.4-1.6-1-.6-1.9-1.3-2.8-2-4.6-3.6-10.6-4.6-16-3-.6.2-1.1.3-1.6.6-1,.3-1.9.8-2.8,1.3-2,1.1-3.9,2.2-5.8,3.2-1,.6-2,1.1-3,1.6-5.3,2.7-10.4,4.9-15.5,6.7-.6.2-1.1.4-1.6.6-9.3,3.2-18.4,5.1-27.2,5.6-.6.1-1.1.1-1.6.1-9.4.4-18.5-.8-27.2-3.5-.5-.2-1.1-.3-1.6-.5s-1-.3-1.5-.5c-5.3-1.9-10.8-1.6-15.3.7-3.6,1.8-7,3.4-10.4,4.7-.5.2-1.1.4-1.6.6-1.6.6-3.2,1.2-4.8,1.6-2,.6-3.8,1.2-5.7,1.6-5.2,1.2-10.2,1.9-15,1.9s-1.1,0-1.6-.1c-.6,0-1.1,0-1.6-.1-3.7-.2-7.2-.8-10.6-1.8-1.6-.4-3.2-1-4.7-1.6-4.1-1.5-8.1-3.7-11.8-6.4-.5-.3-1.1-.7-1.6-1.1-3.2-2.5-6.3-5.4-9.3-8.6-.5-.5-.9-1-1.4-1.6-.3-.4-.7-.8-1-1.2-3.4-4.1-6.9-8.5-10.5-12.9-.5-.7-1.1-1.4-1.6-2s-.9-1.1-1.3-1.6c-.7-.9-1.4-1.8-2.1-2.6-.5-.7-1-1.3-1.6-1.9-3.2-4.1-6.3-7.7-9-10.8-.2-.3-.5-.6-.7-.8-.6-.6-1.1-1.1-1.7-1.6-5.3-4.9-11.6-7.6-15.8-9.6-.6-.3-1.1-.6-1.6-.8v-3l.8-1.1c.2.2.5.3.8.5,4.5,2.7,14.2,5.9,21.2,13.9,0,.1,0,.2.2.2.5.5.9,1.1,1.4,1.6,1.4,1.6,2.8,3.3,4.3,5.2.5.6,1.1,1.2,1.6,1.9,2.3,2.8,4.7,5.9,7.3,9,.3.3.6.7.8,1.1.2.2.3.4.5.6,3.3,4.2,6.7,8.5,9.9,12.4,1.1,1.3,2.2,2.5,3.3,3.7.5.6,1,1.1,1.5,1.6,1.2,1.2,2.5,2.4,3.8,3.6.5.5,1.1.8,1.6,1.3,8.2,6.5,17.2,10.1,27.2,10.7.5.1,1.1.1,1.6.1,8.4.3,17.4-1.5,27.2-5.4.5-.2,1.1-.4,1.6-.7,2.8-1.1,5.6-2.4,8.5-4,5.5-2.8,12.3-3.2,18.5-1q.1,0,.1.1c.5.2,1.1.3,1.6.5,8.6,2.9,17.7,4.1,27.2,3.7.5-.1,1.1-.1,1.6-.1,8.8-.6,17.8-2.5,27.2-5.8.5-.2,1.1-.4,1.6-.6,2-.7,4-1.5,6-2.4,1.2-.5,2.4-1,3.6-1.6,4.2-1.9,8.5-4.2,12.8-6.7,1.5-.9,3.2-1.6,4.8-2,.5-.2,1-.4,1.6-.5,6.3-1.5,13.1-.1,18.5,3.9,2.5,1.9,5.1,3.7,7.9,5.3.3.2.5.3.8.5.5.3,1.1.6,1.6.9.1.1.3.2.5.2,8.2,4.3,17.2,7.3,26.7,9.1.5.1,1.1.2,1.6.2,8.8,1.5,18,1.8,27.2,1,.6-.1,1.1-.1,1.6-.1,9.2-1,18.3-3,27.2-6.3.5-.2,1-.4,1.6-.6,2.6-1,5.1-2.1,7.7-3.3,1.1-.5,2.1-1,3.2-1.6,3.4-1.8,6.7-3.7,9.9-5.8,1.6-1.1,3.8-2.8,6.4-4.7.5-.4,1-.8,1.6-1.2,1.7-1.4,3.5-2.8,5.4-4.3.1-.1.2-.1.2-.2.6-.5,1.2-1,1.9-1.5,7.5-5.9,14.8-11.7,19.3-14.3.1-.1.3-.2.4-.2.5-.3,1.1-.6,1.6-.8.6-.3,1.3-.6,2-.8,5.5-2,11.5-2,16.8,0,3.1,1.1,6,2.9,8.4,5.3s.9.9,1.3,1.4l.3.3c2.9,3.3,5.9,6.4,9,9.1.6.6,1.2,1.1,1.8,1.6,5.3,4.6,10.8,8.5,16.4,11.6.5.3,1.1.6,1.6.8,2.5,1.4,4.9,2.5,7.4,3.6,1.4.6,2.7,1.1,4,1.6,5.3,2,10.6,3.5,15.8,4.5.6.1,1.1.2,1.6.3,9.5,1.7,18.7,1.9,27.2,1.4.5,0,1.1-.1,1.6-.1,8.5-.7,16.1-2.1,22.4-3.8,1.8-.5,3.3-1.1,4.7-1.8.4-.2.7-.4,1.1-.6.2-.1.3-.2.5-.3.2-.1.3-.2.5-.2.7-.3,1.4-.7,2.1-1.1,2.1-1.1,4.6-2,7.8-2.8l16.7-2.9,1.6-.3,27.2-4.6,1.2-.2Z"/>
  <path class="cls-1" d="M662.4,356.1v4c-.3-.1-.5-.1-.8-.1-3-.4-6-.6-8.3-.9-7.1-.8-11.7-1.4-18.9-3.7-.2-.1-.5-.1-.7-.2-.3-.1-.7-.2-1-.3-1.1-.4-2.3-.8-3.6-1.3-5.4-2-12.2-4.8-21.8-9-.6-.2-1.1-.6-1.7-1-.5-.3-1.1-.8-1.6-1.4-1.1-.9-2.3-2.1-3.7-3.5-.4-.4-.8-.8-1.2-1.2-.6-.5-1.1-1-1.7-1.6-4.2-4-10-9.4-18.9-16.1-.5-.4-1.1-.8-1.6-1.2-.2-.1-.3-.2-.5-.4-.3-.2-.7-.5-1.1-.8-2-1.5-4.1-3-6.4-4.6-6.8-4.7-13.8-8.1-20.7-10.5-.2-.1-.3-.1-.5-.2-.3-.1-.7-.2-1.1-.3-1.4-.5-2.9-.9-4.3-1.3-8-2.1-15.8-2.9-22.9-3h-1.6c-10.4,0-19.3,1.6-25.2,3-.7.2-1.4.3-2,.5s-1.1.3-1.6.5c-.9.2-1.7.5-2.3.7s-.6.2-.8.3c-3.3,1.1-6.9,1-10-.3-1.1-.4-2-.9-2.9-1.6-.3-.1-.5-.3-.7-.5-3.5-2.9-7-5.6-10.3-7.9-.6-.4-1.1-.8-1.6-1.1-3.8-2.5-7.5-4.7-11.1-6.5-1.1-.6-2.3-1.1-3.4-1.6-4.3-2-8.6-3.5-12.6-4.6-.5-.2-1.1-.3-1.6-.4-9.7-2.4-18.6-2.7-27.2-1.6-.5.1-1.1.2-1.6.2-8.8,1.2-17,3.7-25,6.4-.7.3-1.5.5-2.2.7-.5.2-1.1.4-1.6.6-.2.1-.5.2-.8.3-.6.2-1.2.4-1.8.6-7.6,2.7-16.1,6.8-24.6,11.7-.5.3-1.1.6-1.6.9-1.6,1-3.3,1.9-4.9,2.9-.9.6-1.8,1.1-2.7,1.6-6.9,4.3-13.7,8.8-19.6,12.9-.6.4-1.1.8-1.6,1.1-1,.7-1.9,1.4-2.9,2-.7.6-1.5,1.1-2.2,1.6-4.5,3.2-8.4,6.1-11.3,8.3-3.1,2.4-7.1,3.2-10.8,2.2-.5-.1-.9-.2-1.4-.3-.1,0-.1-.1-.2-.1-4.8-1.8-13.7-4.3-27.2-5.5-.5-.1-1-.1-1.6-.2-4.3-.4-9.1-.6-14.3-.7h-.3c-4.4,0-8.5.5-12.5,1.2-.6.2-1.1.3-1.6.4-9.5,2.2-17.7,6.4-24,10.7-.8.6-1.5,1.1-2.2,1.6-.3.2-.6.5-1,.7-.6.4-1.1.8-1.6,1.2-2.2,1.8-4.1,3.4-5.6,4.9-4.3,4.1-11.1,4.9-16.5,1.9-1.9-1.1-3.5-2.1-5-3-.6-.4-1.1-.7-1.6-1.1-2.7-1.8-4.9-3.3-6.5-4.6-.8-.6-1.4-1.1-1.9-1.6-1.8-1.5-2.7-2.5-2.8-2.6-5-5.5-10.4-9.6-15.9-12.5-.5-.3-1.1-.6-1.6-.8-.1-.1-.2-.2-.3-.2-1.2-.6-2.4-1.1-3.7-1.6-7.7-3-15.5-4.1-23.2-3.8-.5,0-1.1,0-1.6.1-6.9.4-13.7,1.8-20,3.8-1.6.5-3.2,1-4.7,1.6-.8.3-1.6.6-2.4.9-.6.2-1.1.4-1.6.6-13.1,5.4-22.9,12.3-26,14.6h-1.6l-1.2-1.5v-1.5c.4-.3.9-.7,1.6-1.1,3.6-2.5,11.1-7.5,20.9-12,1.2-.6,2.4-1.1,3.7-1.6.8-.4,1.8-.7,2.7-1.1.5-.2,1-.5,1.6-.7,8.2-3.1,17.5-5.5,27.2-6,.6-.1,1.1-.1,1.6-.1,9-.3,18.2,1.1,27.2,5.1.6.2,1.1.5,1.6.8,1.2.6,2.4,1.2,3.6,1.9.9.5,1.8,1,2.7,1.6,4.3,2.8,8.6,6.4,12.7,10.8.1.1,1.9,2.1,6.2,5.3.7.5,1.4,1,2.1,1.4.1.1.2.2.2.2.5.3.8.6,1.4,1,2,1.3,4.3,2.7,7,4.2,3.8,2.1,8.6,1.6,11.7-1.3,1.3-1.2,2.8-2.5,4.5-3.9.6-.5,1.3-1.1,2-1.6.6-.5,1.3-1,2-1.5.5-.4,1-.7,1.6-1.1,7-4.9,16.1-9.8,27.2-12.2.5-.1,1.1-.2,1.6-.3,2.2-.4,4.5-.7,6.9-.9,1.8-.2,3.7-.3,5.6-.3h.4c3.3,0,6.4.1,9.4.3,1.7.1,3.3.2,4.9.3.6.1,1.1.1,1.6.1,12.9,1.2,21.8,3.6,27.2,5.4.6.2,1.1.4,1.6.6,2.8,1.1,5.9.6,8.4-1.2,1.9-1.5,4.2-3.2,6.8-5.1.7-.5,1.5-1.1,2.3-1.6,2.9-2.1,6.2-4.5,9.7-6.9.6-.3,1.1-.7,1.6-1.1,3.8-2.7,7.9-5.4,12.1-8.1.8-.5,1.7-1.1,2.6-1.6,4.1-2.6,8.2-5.1,12.4-7.5.5-.3,1.1-.6,1.6-.9,5.3-2.9,10.4-5.6,15.4-7.7,1.3-.6,2.5-1.1,3.8-1.6,1.4-.6,2.7-1.1,4-1.5,1.3-.5,2.6-.9,4-1.4.5-.2,1.1-.3,1.6-.6,8.6-2.9,17.6-5.7,27.2-7.1.5-.1,1-.1,1.6-.2,8.5-1,17.6-.8,27.2,1.5.5.1,1.1.2,1.6.4,6.9,1.8,14.1,4.6,21.6,8.9.9.5,1.8,1.1,2.8,1.6.9.6,1.8,1.1,2.8,1.8.5.3,1.1.7,1.6,1,4.2,2.8,8.5,6,12.9,9.7,2.7,2.2,6.4,2.9,9.9,1.8,1-.3,2.5-.8,4.4-1.3.5-.2,1-.3,1.6-.5,6.2-1.6,15.8-3.4,27.2-3.4h1.6c8.4.1,17.7,1.2,27.2,4.1.6.2,1.1.3,1.6.5,2.1.7,4.3,1.5,6.5,2.4,1.2.5,2.4,1.1,3.7,1.6,4.3,2,8.5,4.5,12.8,7.4,1.5,1,2.8,2,4.2,3,.6.4,1.1.7,1.6,1.1,2.2,1.6,4.2,3.1,6.1,4.6.7.6,1.4,1.1,2,1.6,8.9,7,14.3,12.4,18.1,16h0c.3.4.6.7.8.9.3.3.5.6.8.8.3.3.6.6.8.8,1.4,1.4,2.5,2.2,3.3,2.6,10.9,4.8,18.2,7.8,23.8,9.8.6.2,1.1.4,1.6.6,3.4,1.1,6.2,1.9,8.9,2.4,3.3.7,6.4,1,10.4,1.5.3.1.6.1,1,.1,2,.2,4.3.5,6.9.8-.6-.3-.3-.3,0-.2Z"/>
  <circle class="cls-1" cx="88.1" cy="315.7" r="7.7"/>
  <circle class="cls-1" cx="187.1" cy="345" r="7.7"/>
  <circle class="cls-1" cx="289.7" cy="328.9" r="7.7"/>
  <circle class="cls-1" cx="479.1" cy="302.4" r="7.7"/>
  <circle class="cls-1" cx="605.1" cy="339.7" r="7.7"/>
  <line class="cls-2" x1="57.7" y1="389.8" x2="663.2" y2="388.7"/>
</svg>