<?xml version="1.0" encoding="utf-8"?>
<!-- Generator: Adobe Illustrator 28.0.0, SVG Export Plug-In . SVG Version: 6.00 Build 0)  -->
<svg version="1.1" id="Layer_1" xmlns:xodm="http://www.corel.com/coreldraw/odm/2003"
	 xmlns="http://www.w3.org/2000/svg" xmlns:xlink="http://www.w3.org/1999/xlink" x="0px" y="0px" viewBox="0 0 720 720"
	 style="enable-background:new 0 0 720 720;" xml:space="preserve">
<style type="text/css">
	.st0{fill:none;stroke:#000000;stroke-width:2.4664;stroke-miterlimit:10;}
	.st1{fill:none;stroke:#000000;stroke-width:2.8441;stroke-miterlimit:10;}
</style>
<g>
	<path d="M594,359.1l-43.8-45.3l-2.6-2.8h-190v0.3l2.3,2.4l14.6,15.2l2.7,2.8h111.4l26.4,27.4l2.7,2.8h78.9L594,359.1z M518.8,359.1
		l-26.4-27.4l-2.7-2.8H378.3l-14.7-15.2h182.7l43.8,45.3H518.8z"/>
</g>
<polygon points="182.6,431.1 63.4,431.1 182.6,305.7 301.7,431.1 "/>
<polygon class="st0" points="663.3,429.9 326.4,429.9 276.5,377 613.5,377 "/>
<polygon points="369.8,416.4 346.2,415.9 321.3,388.7 344.9,389.2 "/>
<polygon points="400.4,416.4 376.8,415.9 351.9,388.7 375.4,389.2 "/>
<polygon points="430.9,416.4 407.4,415.9 382.5,388.7 406,389.2 "/>
<polygon points="461.5,416.4 438,415.9 413,388.7 436.6,389.2 "/>
<polygon points="492.1,416.4 468.5,415.9 443.6,388.7 467.2,389.2 "/>
<polygon points="522.7,416.4 499.1,415.9 474.2,388.7 497.7,389.2 "/>
<polygon points="553.2,416.4 529.7,415.9 504.8,388.7 528.3,389.2 "/>
<polygon points="583.8,416.4 560.3,415.9 535.3,388.7 558.9,389.2 "/>
<polygon points="614.4,416.4 590.8,415.9 565.9,388.7 589.5,389.2 "/>
<g>
	<polygon points="448.5,362.4 257.1,362.4 207.8,311.3 207.8,311 347.1,311 375.8,340.7 427.5,340.7 430.2,343.5 	"/>
</g>
<polygon class="st1" points="476.4,360.5 457,360.5 439.3,342.2 458.7,342.2 "/>
<polygon class="st1" points="507,360.5 487.6,360.5 469.9,342.2 489.3,342.2 "/>
</svg>
