<?xml version="1.0" encoding="utf-8"?>
<!-- Generator: Adobe Illustrator 28.0.0, SVG Export Plug-In . SVG Version: 6.00 Build 0)  -->
<svg version="1.1" id="Layer_1" xmlns:xodm="http://www.corel.com/coreldraw/odm/2003"
	 xmlns="http://www.w3.org/2000/svg" xmlns:xlink="http://www.w3.org/1999/xlink" x="0px" y="0px" viewBox="0 0 720 720"
	 style="enable-background:new 0 0 720 720;" xml:space="preserve">
<style type="text/css">
	.st0{fill:#FFD93E;}
</style>
<rect x="58.3" y="334.6" width="602.4" height="79.2"/>
<rect x="58.3" y="334.6" class="st0" width="21.6" height="79.2"/>
<rect x="101.5" y="334.6" class="st0" width="21.6" height="79.2"/>
<rect x="144.6" y="334.6" class="st0" width="21.6" height="79.2"/>
<rect x="187.8" y="334.6" class="st0" width="21.6" height="79.2"/>
<rect x="231" y="334.6" class="st0" width="21.6" height="79.2"/>
<rect x="274.1" y="334.6" class="st0" width="21.6" height="79.2"/>
<rect x="317.3" y="334.6" class="st0" width="21.6" height="79.2"/>
<rect x="360.5" y="334.6" class="st0" width="21.6" height="79.2"/>
<rect x="403.6" y="334.6" class="st0" width="21.6" height="79.2"/>
<rect x="446.8" y="334.6" class="st0" width="21.6" height="79.2"/>
<rect x="490" y="334.6" class="st0" width="21.6" height="79.2"/>
<rect x="533.2" y="334.6" class="st0" width="21.6" height="79.2"/>
<rect x="576.3" y="334.6" class="st0" width="21.6" height="79.2"/>
<rect x="619.5" y="334.6" class="st0" width="21.6" height="79.2"/>
</svg>
