<?xml version="1.0" encoding="utf-8"?>
<!-- Generator: Adobe Illustrator 28.0.0, SVG Export Plug-In . SVG Version: 6.00 Build 0)  -->
<svg version="1.1" id="Layer_1" xmlns:xodm="http://www.corel.com/coreldraw/odm/2003"
	 xmlns="http://www.w3.org/2000/svg" xmlns:xlink="http://www.w3.org/1999/xlink" x="0px" y="0px" viewBox="0 0 720 720"
	 style="enable-background:new 0 0 720 720;" xml:space="preserve">
<style type="text/css">
	.st0{fill-rule:evenodd;clip-rule:evenodd;fill:#FFFFFF;stroke:#000000;stroke-miterlimit:10;}
	.st1{fill-rule:evenodd;clip-rule:evenodd;fill:#C10C0C;stroke:#000000;stroke-miterlimit:10;}
	.st2{fill:#FFFFFF;}
</style>
<path class="st0" d="M586.7,456.4H133.3c-53.3,0-96.4-43.2-96.4-96.4l0,0c0-53.3,43.2-96.4,96.4-96.4h453.3
	c53.3,0,96.4,43.2,96.4,96.4l0,0C683.1,413.3,639.9,456.4,586.7,456.4z"/>
<path class="st1" d="M583.9,441.6H136.1c-45.7,0-82.7-37-82.7-82.7l0,0c0-45.7,37-82.7,82.7-82.7H584c45.7,0,82.7,37,82.7,82.7l0,0
	C666.7,404.6,629.6,441.6,583.9,441.6z"/>
<path class="st2" d="M110.6,394.6v-67.6h46.5l8.5,8.5v16.9l-8.5,8.5l8.5,8.5v16.8l-8.5,8.5H110.6z M127.5,344v8.5h21.1V344H127.5z
	 M127.5,369.4v8.3h21.1v-8.3H127.5z"/>
<path class="st2" d="M190.6,327.2v67.6h-16.9v-67.6H190.6z"/>
<path class="st2" d="M206.3,394.7l-8.5-8.5v-50.6l8.5-8.5h38l8.5,8.5v50.6l-8.5,8.5H206.3z M214.7,344.1v33.7h21v-33.7H214.7z"/>
<path class="st2" d="M277.7,369.4v25.4h-16.9v-67.6h16.9v25.3h21v-25.3h16.9v67.6h-16.9v-25.4H277.7z"/>
<path class="st2" d="M348,350.4l-13.9,44.2h-16.4l21.1-67.5h18.2l21.1,67.5h-16.4L348,350.4z"/>
<path class="st2" d="M379.6,394.7l28.9-50.6h-28.9v-16.9h54.9l-28.8,50.6h28.8v16.9H379.6z"/>
<path class="st2" d="M464.5,350.4l-13.9,44.2h-16.4l21.1-67.5h18.2l21.1,67.5h-16.4L464.5,350.4z"/>
<path class="st2" d="M515.7,369.4v25.4h-16.9v-67.6h46.4l8.5,8.5v25.3l-8.5,8.5h-6.3l14.7,25.4h-16.9L522,369.4H515.7z M515.7,344.1
	v8.4h21v-8.4H515.7z"/>
<path class="st2" d="M561,394.6v-67.6h46.5l8.5,8.5v50.6l-8.5,8.5H561z M577.9,344v33.7h21.1V344H577.9z"/>
</svg>
