<?xml version="1.0" encoding="utf-8"?>
<!-- Generator: Adobe Illustrator 28.0.0, SVG Export Plug-In . SVG Version: 6.00 Build 0)  -->
<svg version="1.1" id="Layer_1" xmlns:xodm="http://www.corel.com/coreldraw/odm/2003"
	 xmlns="http://www.w3.org/2000/svg" xmlns:xlink="http://www.w3.org/1999/xlink" x="0px" y="0px" viewBox="0 0 720 720"
	 style="enable-background:new 0 0 720 720;" xml:space="preserve">
<style type="text/css">
	.st0{fill:#FFD93E;}
</style>
<rect x="59.8" y="293.8" class="st0" width="603.5" height="77.9"/>
<polygon points="96.8,293.8 68.9,371.8 59.8,371.8 59.8,341.2 76.8,293.8 "/>
<polygon points="108.8,371.8 88.8,371.8 116.7,293.8 136.7,293.8 "/>
<polygon points="148.7,371.8 128.7,371.8 156.6,293.8 176.6,293.8 "/>
<polygon points="188.6,371.8 168.5,371.8 196.5,293.8 216.5,293.8 "/>
<polygon points="228.4,371.8 208.4,371.8 236.3,293.8 256.4,293.8 "/>
<polygon points="268.3,371.8 248.3,371.8 276.2,293.8 296.2,293.8 "/>
<polygon points="308.2,371.8 288.2,371.8 316.1,293.8 336.1,293.8 "/>
<polygon points="348.1,371.8 328.1,371.8 356,293.8 376,293.8 "/>
<polygon points="388,371.8 368,371.8 395.9,293.8 415.9,293.8 "/>
<polygon points="427.9,371.8 407.9,371.8 435.8,293.8 455.8,293.8 "/>
<polygon points="467.8,371.8 447.8,371.8 475.7,293.8 495.7,293.8 "/>
<polygon points="507.7,371.8 487.7,371.8 515.6,293.8 535.6,293.8 "/>
<polygon points="547.6,371.8 527.6,371.8 555.5,293.8 575.5,293.8 "/>
<polygon points="587.5,371.8 567.4,371.8 595.4,293.8 615.4,293.8 "/>
<polygon points="627.3,371.8 607.3,371.8 635.2,293.8 655.3,293.8 "/>
<polygon points="663.3,326.9 663.3,371.8 647.2,371.8 "/>
</svg>
