<?xml version="1.0" encoding="utf-8"?>
<!-- Generator: Adobe Illustrator 28.0.0, SVG Export Plug-In . SVG Version: 6.00 Build 0)  -->
<svg version="1.1" id="Layer_1" xmlns:xodm="http://www.corel.com/coreldraw/odm/2003"
	 xmlns="http://www.w3.org/2000/svg" xmlns:xlink="http://www.w3.org/1999/xlink" x="0px" y="0px" viewBox="0 0 720 720"
	 style="enable-background:new 0 0 720 720;" xml:space="preserve">
<style type="text/css">
	.st0{fill-rule:evenodd;clip-rule:evenodd;}
</style>
<path class="st0" d="M359.8,274.9c2.9,0,13.2-0.1,20.5-0.1c6.2,0,7.5-0.5,10.1-4.8c2.7-4.4,17.2-30.1,21.8-38.4
	c-10-4.3-20.6-7.4-31.7-9.2v42.3h-41.1v-42.4c-11.2,1.7-22,4.9-32.1,9.2c4.6,8.3,19.1,34.1,21.8,38.5c2.6,4.2,3.9,4.7,10.1,4.8
	C346.6,274.8,356.9,274.9,359.8,274.9L359.8,274.9z"/>
<path class="st0" d="M359.8,274.9c2.9,0,13.2-0.1,20.5-0.1c6.2,0,7.5-0.5,10.1-4.8c2.7-4.5,17.5-30.6,21.9-38.7
	c-10-4.4-20.7-7.5-31.8-9.3v42.6h-41.1v-42.7c-11.3,1.7-22.1,4.9-32.3,9.3c4.4,8,19.2,34.3,22,38.8c2.6,4.2,3.9,4.7,10.1,4.8
	C346.6,274.8,356.9,274.9,359.8,274.9L359.8,274.9z"/>
<path class="st0" d="M359.8,433.2c2.9,0,13.2,0.1,20.5,0.1c6.2,0,7.5,0.5,10.1,4.8c2.6,4.3,16.2,28.2,21.3,37.5
	c-9.8,4.2-20.3,7.2-31.2,9v-41.1h-41.1v41.2c-11-1.7-21.6-4.8-31.6-9c5.1-9.2,18.7-33.3,21.3-37.5c2.6-4.2,3.9-4.7,10.1-4.8
	C346.6,433.3,356.9,433.2,359.8,433.2L359.8,433.2z"/>
<path class="st0" d="M436.5,353.3c-0.5,19.2,0,23,1.6,33.1c-3.4,4.7-13.4,14-17.9,17.8c-0.8,0.6-1.1,0.5-1.9-0.2
	c-2.8-2.4-8.7-8.3-9.5-9.1c-0.5,0.8-3.6,3.9-4.3,4.5c0.9,0.7,6.6,6.9,9.2,9.5c0.7,0.7,0.8,1,0.3,1.9c-1.8,3-16.4,15.7-18.8,19.4
	c-0.9,1.4-0.7,1.6-0.1,3.1c2.8,6.8,16.8,30.2,22.8,39.6c38.3-18.7,66.3-55.3,73.1-98.9l-44.1,0.1V333l44.1,0
	c-1.6-10.1-4.3-19.8-8-28.9c-7.8,3.8-36.9,15.9-41.5,18.7c-4.2,2.6-4.7,3.9-4.8,10.1C436.6,340.1,436.5,350.4,436.5,353.3
	L436.5,353.3z"/>
<path class="st0" d="M282.5,353.3c0.5,19.2,0,23-1.6,33.1c3.4,4.7,13.4,14,17.9,17.8c0.8,0.6,1.1,0.5,1.9-0.2
	c2.8-2.4,8.7-8.3,9.5-9.1c0.5,0.8,3.6,3.9,4.3,4.5c-0.9,0.7-6.6,6.9-9.2,9.5c-0.7,0.7-0.8,1-0.3,1.9c1.8,3,16.4,15.7,18.8,19.4
	c0.9,1.4,0.7,1.6,0.1,3.1c-2.9,7.1-17.2,31.5-22.2,39.6c-38.3-18.7-66.2-55.2-73-98.8h43.5V333h-43.5c1.5-10,4.2-19.6,7.8-28.7
	c7.2,3.6,36.4,15.6,41,18.4c4.2,2.6,4.7,3.9,4.8,10.1C282.4,340.1,282.5,350.4,282.5,353.3L282.5,353.3z"/>
<rect x="330.9" y="58.4" class="st0" width="57.6" height="96"/>
<rect x="68.7" y="326.4" class="st0" width="96" height="57.6"/>
<rect x="557.6" y="326.4" class="st0" width="96" height="57.6"/>
<rect x="330.9" y="556.4" class="st0" width="57.6" height="96"/>
<path class="st0" d="M359.8,299c29.9,0,54.2,24.3,54.2,54.2c0,29.9-24.3,54.2-54.2,54.2c-29.9,0-54.2-24.3-54.2-54.2
	S329.9,299,359.8,299L359.8,299z M360.9,322.3c16,0.6,28.9,13.4,29.7,29.3h5.5V344h7.8v18.5h-7.8v-7.7h-5.5
	c-0.8,16-13.7,28.7-29.7,29.3v5.5h7.7v7.8h-18.5v-7.8h7.7V384c-15.6-1-28.1-13.6-28.9-29.3h-4.8v7.7h-7.8V344h7.8v7.7h4.8
	c0.8-15.7,13.3-28.3,28.9-29.3V317h-7.7v-7.8h18.5v7.8h-7.7L360.9,322.3L360.9,322.3z"/>
<rect x="197.8" y="337.6" class="st0" width="71.2" height="32.1"/>
<rect x="450.2" y="337.6" class="st0" width="71.2" height="32.1"/>
<rect x="344.1" y="447.8" class="st0" width="32.1" height="71.2"/>
<rect x="344.1" y="188.4" class="st0" width="32.1" height="71.2"/>
<path class="st0" d="M309.7,312.7c-0.8-0.8-6.7-6.8-9.5-9.1c-0.8-0.7-1.1-0.8-1.9-0.2c-2.8,2-9.8,10.4-13.3,13.1
	c-1.3,1-1.6,0.9-3.1,0.4c-7.7-2.4-35.2-15.9-42.3-19.6c12.7-27.3,34.5-49.5,61.4-62.8c4.8,7.7,19.5,32.7,22.4,39.9
	c0.6,1.5,0.8,1.7-0.1,3.1c-2.4,3.6-17,16.4-18.8,19.4c-0.5,0.9-0.4,1.1,0.3,1.9c2.6,2.6,8.3,8.8,9.2,9.5
	C313.3,308.8,310.2,311.9,309.7,312.7L309.7,312.7z"/>
<path class="st0" d="M408.6,312.8c0.8-0.8,6.7-6.8,9.5-9.1c0.8-0.7,1.1-0.8,1.9-0.2c2.8,2,9.8,10.4,13.3,13.1c1.3,1,1.6,0.9,3.1,0.4
	c8.1-2.6,38.4-17.5,43.3-20.1c-12.9-27.4-34.9-49.6-62.1-62.8c-4.4,7.1-19.7,33-22.7,40.4c-0.6,1.5-0.8,1.7,0.1,3.1
	c2.4,3.6,17,16.4,18.8,19.4c0.5,0.9,0.4,1.1-0.3,1.9c-2.6,2.6-8.3,8.8-9.2,9.5C404.9,308.8,408,312,408.6,312.8z"/>
<circle class="st0" cx="359.4" cy="353.2" r="16.4"/>
<rect x="352.4" y="281.8" class="st0" width="13.8" height="8.5"/>
<rect x="352.4" y="415.9" class="st0" width="13.8" height="8.5"/>
<rect x="243.6" y="229.3" transform="matrix(0.707 -0.7072 0.7072 0.707 -92.9774 244.7652)" class="st0" width="10.6" height="10.6"/>
<rect x="465" y="229.3" transform="matrix(0.7072 -0.707 0.707 0.7072 -28.1532 401.1998)" class="st0" width="10.6" height="10.6"/>
<rect x="465" y="470.6" transform="matrix(0.707 -0.7072 0.7072 0.707 -198.7528 472.0577)" class="st0" width="10.6" height="10.6"/>
<rect x="242.7" y="470.6" transform="matrix(0.7072 -0.707 0.707 0.7072 -263.8502 314.6516)" class="st0" width="10.6" height="10.6"/>
<rect x="230.1" y="242.7" transform="matrix(0.707 -0.7072 0.7072 0.707 -106.458 239.1193)" class="st0" width="10.6" height="10.6"/>
<rect x="478.6" y="242.7" transform="matrix(0.7072 -0.707 0.707 0.7072 -33.6911 414.7192)" class="st0" width="10.6" height="10.6"/>
<rect x="478.6" y="457.2" transform="matrix(0.707 -0.7072 0.7072 0.707 -185.2717 477.7034)" class="st0" width="10.6" height="10.6"/>
<rect x="229.1" y="457.2" transform="matrix(0.7072 -0.707 0.707 0.7072 -258.312 301.1315)" class="st0" width="10.6" height="10.6"/>
<path class="st0" d="M323.2,113.2c-2.2-0.4-41,5.1-70.4,22.5c4.7,9.9,9.6,20,9.6,20s37.3-18.3,62.2-19.8
	C324,125.2,323.4,115.2,323.2,113.2L323.2,113.2z"/>
<path class="st0" d="M396.1,113.2c2.2-0.4,41,5.1,70.4,22.5c-4.7,9.9-9.6,20-9.6,20s-37.3-18.3-62.2-19.8
	C395.2,125.2,395.8,115.2,396.1,113.2L396.1,113.2z"/>
<path class="st0" d="M396.1,597.3c2.2,0.4,41-5.1,70.4-22.5c-4.7-9.9-9.6-20-9.6-20s-37.3,18.3-62.2,19.8
	C395.2,585.3,395.8,595.3,396.1,597.3L396.1,597.3z"/>
<path class="st0" d="M322.2,597.3c-2.2,0.4-41-5.1-70.4-22.5c4.7-9.9,9.6-20,9.6-20s37.3,18.3,62.2,19.8
	C323.1,585.3,322.5,595.3,322.2,597.3z"/>
<path class="st0" d="M130.3,273.3c4.9-13.8,11.3-28.4,19.1-40.3c10.1,4.2,19.6,9.8,19.6,9.8s-9.3,18.7-16.8,39L130.3,273.3z"/>
<path class="st0" d="M588.9,273.3c-4.9-13.8-11.3-28.4-19.1-40.3c-10.1,4.2-19.6,9.8-19.6,9.8s9.3,18.7,16.8,39L588.9,273.3z"/>
<path class="st0" d="M588.9,437.2c-4.9,13.8-11.3,28.4-19.1,40.3c-10.1-4.2-19.6-9.8-19.6-9.8s9.3-18.7,16.8-39L588.9,437.2z"/>
<path class="st0" d="M129.4,437.2c4.9,13.8,11.3,28.4,19.1,40.3c10.1-4.2,19.6-9.8,19.6-9.8s-9.3-18.7-16.8-39
	C151.4,428.7,129.4,437.2,129.4,437.2z"/>
<path class="st0" d="M120.2,319.3c-0.7-4.7,1.5-18,6.2-33.8l22.3,6.7c-3.3,10.2-5.6,20-5.7,27.5
	C132.2,319.5,122.2,319.4,120.2,319.3L120.2,319.3z"/>
<path class="st0" d="M599,319.3c0.7-4.7-1.5-18-6.2-33.8l-22.3,6.7c3.3,10.2,5.6,20,5.7,27.5C587,319.5,597,319.4,599,319.3
	L599,319.3z"/>
<path class="st0" d="M599,391.2c0.7,4.7-1.5,18-6.2,33.8l-22.3-6.7c3.3-10.2,5.6-20,5.7-27.5C587,391,597,391.1,599,391.2z"/>
<path class="st0" d="M119.3,391.2c-0.7,4.7,1.5,18,6.2,33.8l22.3-6.7c-3.3-10.2-5.6-20-5.7-27.5C131.3,391,121.3,391.1,119.3,391.2
	L119.3,391.2z"/>
<polygon class="st0" points="266.6,73.4 273.3,70.9 288.8,109.8 282.1,112.3 "/>
<polygon class="st0" points="452.6,73.4 445.9,70.9 430.4,109.8 437.1,112.3 "/>
<polygon class="st0" points="452.6,637.1 445.9,639.6 430.4,600.7 437.1,598.2 "/>
<polygon class="st0" points="265.7,637.1 272.4,639.6 287.9,600.7 281.2,598.2 "/>
<polygon class="st0" points="75.4,271.9 77.8,265.1 117.6,278.1 115.2,284.9 "/>
<polygon class="st0" points="643.9,271.9 641.4,265.1 601.6,278.1 604,284.9 "/>
<polygon class="st0" points="643.9,438.6 641.4,445.3 601.6,432.3 604,425.6 "/>
<polygon class="st0" points="74.4,438.6 76.9,445.3 116.7,432.3 114.3,425.6 "/>
<polygon class="st0" points="243.7,144.5 238.8,148.3 249.1,161.1 252.1,159.3 "/>
<polygon class="st0" points="475.5,144.5 480.4,148.3 470.1,161.1 467.1,159.3 "/>
<polygon class="st0" points="475.5,566 480.4,562.2 470.1,549.3 467.1,551.2 "/>
<polygon class="st0" points="242.8,566 237.8,562.2 248.2,549.3 251.2,551.2 "/>
<path class="st0" d="M161.2,206.6l-25-19.7l52.5-54.1l21.5,22.9C210.2,155.7,181.5,176.8,161.2,206.6L161.2,206.6z"/>
<path class="st0" d="M558,206.6l25-19.7l-52.5-54.1L509,155.7C509,155.7,537.7,176.8,558,206.6L558,206.6z"/>
<path class="st0" d="M558,503.8l25,19.7l-52.5,54.1L509,554.8C509,554.8,537.7,533.7,558,503.8z"/>
<path class="st0" d="M160.3,503.8l-25,19.7l52.5,54.1l21.5-22.9C209.3,554.8,180.6,533.7,160.3,503.8z"/>
<rect x="186.2" y="200.5" transform="matrix(0.6655 -0.7464 0.7464 0.6655 -94.1792 211.23)" class="st0" width="4.8" height="20.3"/>
<rect x="520.5" y="208.3" transform="matrix(0.7464 -0.6655 0.6655 0.7464 -5.6422 406.5558)" class="st0" width="20.3" height="4.8"/>
<rect x="528.3" y="489.6" transform="matrix(0.6655 -0.7464 0.7464 0.6655 -195.5392 563.3143)" class="st0" width="4.8" height="20.3"/>
<rect x="177.5" y="497.4" transform="matrix(0.7464 -0.6655 0.6655 0.7464 -285.0193 251.5919)" class="st0" width="20.3" height="4.8"/>
</svg>
