<?xml version="1.0" encoding="utf-8"?>
<!-- Generator: Adobe Illustrator 28.0.0, SVG Export Plug-In . SVG Version: 6.00 Build 0)  -->
<svg version="1.1" id="Layer_1" xmlns:xodm="http://www.corel.com/coreldraw/odm/2003"
	 xmlns="http://www.w3.org/2000/svg" xmlns:xlink="http://www.w3.org/1999/xlink" x="0px" y="0px" viewBox="0 0 720 720"
	 style="enable-background:new 0 0 720 720;" xml:space="preserve">
<style type="text/css">
	.st0{fill:#FFD93E;}
</style>
<rect x="59.8" y="288.9" class="st0" width="603.5" height="79.3"/>
<rect x="59.8" y="288.9" width="24.1" height="14.2"/>
<rect x="108.1" y="288.9" width="24.1" height="14.2"/>
<rect x="156.4" y="288.9" width="24.1" height="14.2"/>
<rect x="204.6" y="288.9" width="24.1" height="14.2"/>
<rect x="252.9" y="288.9" width="24.1" height="14.2"/>
<rect x="301.2" y="288.9" width="24.1" height="14.2"/>
<rect x="349.5" y="288.9" width="24.1" height="14.2"/>
<rect x="397.8" y="288.9" width="24.1" height="14.2"/>
<rect x="446" y="288.9" width="24.1" height="14.2"/>
<rect x="494.3" y="288.9" width="24.1" height="14.2"/>
<rect x="542.6" y="288.9" width="24.1" height="14.2"/>
<rect x="590.9" y="288.9" width="24.1" height="14.2"/>
<rect x="639.2" y="288.9" width="24.1" height="14.2"/>
<rect x="59.8" y="354" width="24.1" height="14.2"/>
<rect x="108.1" y="354" width="24.1" height="14.2"/>
<rect x="156.4" y="354" width="24.1" height="14.2"/>
<rect x="204.6" y="354" width="24.1" height="14.2"/>
<rect x="252.9" y="354" width="24.1" height="14.2"/>
<rect x="301.2" y="354" width="24.1" height="14.2"/>
<rect x="349.5" y="354" width="24.1" height="14.2"/>
<rect x="397.8" y="354" width="24.1" height="14.2"/>
<rect x="446" y="354" width="24.1" height="14.2"/>
<rect x="494.3" y="354" width="24.1" height="14.2"/>
<rect x="542.6" y="354" width="24.1" height="14.2"/>
<rect x="590.9" y="354" width="24.1" height="14.2"/>
<rect x="639.2" y="354" width="24.1" height="14.2"/>
</svg>
