<?xml version="1.0" encoding="utf-8"?>
<!-- Generator: Adobe Illustrator 28.0.0, SVG Export Plug-In . SVG Version: 6.00 Build 0)  -->
<svg version="1.1" id="Layer_1" xmlns:xodm="http://www.corel.com/coreldraw/odm/2003"
	 xmlns="http://www.w3.org/2000/svg" xmlns:xlink="http://www.w3.org/1999/xlink" x="0px" y="0px" viewBox="0 0 720 720"
	 style="enable-background:new 0 0 720 720;" xml:space="preserve">
<style type="text/css">
	.st0{fill-rule:evenodd;clip-rule:evenodd;fill:#D5EFFD;stroke:#D5EFFD;stroke-miterlimit:10;}
	.st1{fill-rule:evenodd;clip-rule:evenodd;fill:#21B4F9;stroke:#21B4F9;stroke-miterlimit:10;}
	.st2{fill:#21B4F9;stroke:#21B4F9;stroke-miterlimit:10;}
</style>
<path class="st0" d="M360,568.9c-115.4,0-208.9-93.5-208.9-208.9c0-92.7,60.4-171.3,144.1-198.6l-29.8-91.3
	C143.3,109.9,55.1,224.7,55.1,360c0,168.4,136.5,304.9,304.9,304.9c168.3,0,304.7-136.4,304.9-304.6l-96,0.2
	C568.6,475.6,475.2,568.9,360,568.9z"/>
<path class="st1" d="M359.9,151.4c115.4,0,208.9,93.5,208.9,208.9c0,0.1,0,0.1,0,0.2l96-0.2c0-168.4-136.5-304.8-304.9-304.8
	c-33,0-64.7,5.3-94.4,14.9l29.8,91.3C315.6,155,337.3,151.4,359.9,151.4z"/>
<path class="st2" d="M238.8,411.6c-5.3-2.5-9.6-6.1-12.7-10.9c-3.2-4.8-5.1-10.5-5.7-17.2h19.9c0.4,2.9,1.3,5.4,2.7,7.3
	s3.1,3.4,5.3,4.4s4.7,1.5,7.6,1.5c4.9,0,8.7-1.3,11.3-3.9c2.7-2.6,4-6.4,4-11.2v-3.2c0-5.2-1.2-9.2-3.5-12.1
	c-2.4-2.8-5.7-4.3-10.1-4.3h-9.2v-18.6h9.2c3.7,0,6.6-1.2,8.7-3.7c2-2.5,3.1-5.9,3.1-10.4v-2.8c0-4.2-1.1-7.4-3.3-9.6
	c-2.2-2.2-5.3-3.4-9.3-3.4c-2.4,0-4.6,0.5-6.5,1.5s-3.6,2.6-4.9,4.7c-1.4,2.1-2.3,4.7-2.9,7.7h-19.9c0.9-6.8,2.9-12.7,6-17.7
	c3.1-4.9,7.1-8.7,12-11.2s10.5-3.8,16.6-3.8c10.3,0,18.3,2.7,24,8.1s8.5,12.9,8.5,22.7v2.8c0,5.7-1.5,10.7-4.5,14.9
	c-3,4.2-7.2,7.4-12.7,9.4c6.1,1.4,10.8,4.4,14.1,9.2c3.3,4.8,5,10.9,5,18.3v2.8c0,6.9-1.3,12.8-4,17.7s-6.6,8.6-11.8,11.1
	c-5.2,2.5-11.3,3.8-18.6,3.8C250.2,415.4,244.1,414.1,238.8,411.6z"/>
<path class="st2" d="M322.3,406.5c-5.9-5.9-8.8-14.2-8.8-24.7V328c0-10.6,3-18.9,8.9-24.8s14.5-8.8,25.7-8.8
	c11.3,0,19.9,2.9,25.8,8.8s8.8,14.1,8.8,24.8v53.8c0,10.6-3,18.9-8.9,24.8s-14.5,8.8-25.7,8.8C336.7,415.4,328.1,412.4,322.3,406.5z
	 M359.5,392.1c2.4-3.1,3.7-7.5,3.7-13.2v-48.1c0-5.7-1.2-10.2-3.7-13.2c-2.4-3.1-6.3-4.6-11.5-4.6s-9,1.5-11.5,4.6
	c-2.4,3.1-3.7,7.5-3.7,13.2v48.1c0,5.8,1.2,10.2,3.7,13.2s6.3,4.6,11.5,4.6S357,395.2,359.5,392.1z"/>
<path class="st2" d="M410.5,346.5c-3.6-3.7-5.4-8.8-5.4-15.3V321c0-6.6,1.8-11.7,5.4-15.3s8.6-5.5,15.1-5.5c6.6,0,11.6,1.8,15.2,5.5
	s5.3,8.8,5.3,15.5v10c0,6.6-1.8,11.7-5.4,15.4c-3.6,3.6-8.6,5.5-15.1,5.5C419.1,351.9,414.1,350.1,410.5,346.5z M478.1,301.3h17.3
	l-63,118.3H415L478.1,301.3z M429.2,335.6c0.8-1,1.3-2.5,1.3-4.4v-10.5c0-1.8-0.4-3.2-1.3-4.2c-0.8-1-2-1.5-3.6-1.5
	s-2.8,0.5-3.6,1.5c-0.8,1-1.3,2.4-1.3,4.3v10.4c0,2,0.4,3.4,1.3,4.4c0.8,1,2,1.5,3.6,1.5C427.2,337.1,428.4,336.6,429.2,335.6z
	 M469.3,415.3c-3.6-3.7-5.4-8.8-5.4-15.3v-10.2c0-6.6,1.8-11.7,5.4-15.3c3.6-3.7,8.6-5.5,15.1-5.5c6.6,0,11.6,1.8,15.2,5.5
	s5.3,8.8,5.3,15.5v10c0,6.6-1.8,11.7-5.4,15.4s-8.6,5.5-15.1,5.5C477.9,420.8,472.9,418.9,469.3,415.3z M488.1,404.4
	c0.8-1,1.3-2.5,1.3-4.4v-10.5c0-1.8-0.4-3.2-1.3-4.2c-0.8-1-2-1.5-3.6-1.5s-2.8,0.5-3.6,1.5c-0.8,1-1.3,2.4-1.3,4.3V400
	c0,2,0.4,3.4,1.3,4.4c0.8,1,2,1.5,3.6,1.5C486,405.9,487.2,405.4,488.1,404.4z"/>
</svg>
