<?xml version="1.0" encoding="utf-8"?>
<!-- Generator: Adobe Illustrator 28.0.0, SVG Export Plug-In . SVG Version: 6.00 Build 0)  -->
<svg version="1.1" id="Layer_1" xmlns:xodm="http://www.corel.com/coreldraw/odm/2003"
	 xmlns="http://www.w3.org/2000/svg" xmlns:xlink="http://www.w3.org/1999/xlink" x="0px" y="0px" viewBox="0 0 720 720"
	 style="enable-background:new 0 0 720 720;" xml:space="preserve">
<style type="text/css">
	.st0{fill:#F6B24A;}
</style>
<g>
	<g>
		<polygon class="st0" points="299.9,178.5 299.9,246 115.4,246 104.8,256.7 104.8,298.3 104.9,298.3 104.9,307.2 38,307.2 
			38,298.3 96.1,298.3 96.1,265.4 96,265.5 96,252.9 102.9,246 111.7,237.2 291,237.2 291,178.5 		"/>
	</g>
</g>
<g>
	<g>
		<g>
			<polygon class="st0" points="681.9,298.3 681.9,307.2 615,307.2 615,298.3 615.1,298.3 615.1,256.7 604.5,246 420.1,246 
				420.1,178.5 429,178.5 429,237.2 608.2,237.2 617,246 623.9,252.9 623.9,265.5 623.8,265.4 623.8,298.3 			"/>
		</g>
	</g>
</g>
<g>
	<g>
		<g>
			<path class="st0" d="M115.4,448.4l-10.6-10.6v-41.6h0.1v-8.9H38v68.6l60,60h201.9v-67.5H115.4z M101.7,507l-54.8-54.8v-56.1h49.2
				V429l-0.1-0.1v12.5l15.7,15.7H291V507H101.7z"/>
		</g>
	</g>
</g>
<path class="st0" d="M673,228.8L673,228.8l-41.5-41.5l-8.9-8.9H420.1v8.9H619l54,54v65.8h8.9v-69.5L673,228.8z M98,178.5l-8.9,8.9
	l-42.2,42.2l-8.9,8.9v68.7h8.9v-65l54.8-54.8h198.2v-8.9H98z"/>
<path class="st0" d="M615,387.2v8.9h0.1v41.6l-10.6,10.6H420.1v67.5h203.2l58.6-58.6v-70.1H615z M673,453.7L619.6,507H429v-49.8
	h179.2l8.9-8.9l6.9-6.9v-12.5l-0.1,0.1v-32.9H673V453.7z"/>
<g>
	<g>
		<path class="st0" d="M429.6,265.8L429.6,265.8l165.9,0v0H429.6z M124.4,265.8L124.4,265.8l167.6,0v0H124.4z"/>
	</g>
</g>
<g>
	<g>
		<path class="st0" d="M429.6,430.4L429.6,430.4l165.9,0v0H429.6z M124.4,430.4L124.4,430.4l167.6,0v0H124.4z M124.4,430.4
			L124.4,430.4l167.6,0v0H124.4z"/>
		<path class="st0" d="M421.8,257.9V278H299.8v-20.1H116.5v180.4h183.3v-20.1h122.1v20.1h181.6V257.9H421.8z M595.5,430.4H429.6v-20
			H292v20H124.4V265.8H292v20h137.5v-20h165.9V430.4z"/>
	</g>
</g>
<rect x="314.1" y="319.8" class="st0" width="90.3" height="56.7"/>
<rect x="306.7" y="178.5" class="st0" width="106.7" height="90.3"/>
<rect x="305.9" y="425.6" class="st0" width="106.7" height="90.3"/>
<rect x="38" y="318.8" class="st0" width="66.6" height="23.3"/>
<rect x="38" y="353" class="st0" width="66.6" height="23.3"/>
<rect x="615.3" y="318.8" class="st0" width="66.6" height="23.3"/>
<rect x="615.3" y="353" class="st0" width="66.6" height="23.3"/>
</svg>
