<?xml version="1.0" encoding="utf-8"?>
<!-- Generator: Adobe Illustrator 28.0.0, SVG Export Plug-In . SVG Version: 6.00 Build 0)  -->
<svg version="1.1" id="Layer_1" xmlns:xodm="http://www.corel.com/coreldraw/odm/2003"
	 xmlns="http://www.w3.org/2000/svg" xmlns:xlink="http://www.w3.org/1999/xlink" x="0px" y="0px" viewBox="0 0 720 720"
	 style="enable-background:new 0 0 720 720;" xml:space="preserve">
<style type="text/css">
	.st0{fill:none;stroke:#FFFFFF;stroke-width:1.3184;stroke-miterlimit:10;}
	.st1{fill:#FFFFFF;}
</style>
<g>
	<polygon points="663.3,334 663.3,338.2 590,265 594.2,265 	"/>
</g>
<polygon points="663.3,382.9 594.2,452 98.6,452 98.6,265 545.3,265 "/>
<polygon points="79.8,452 59.8,419.7 59.8,288.9 79.8,265 "/>
<polygon points="93.5,260.1 93.5,456.9 170.9,456.9 170.9,465.1 85.3,465.1 85.3,251.9 170.9,251.9 170.9,260.1 "/>
<g>
	<g>
		<polygon points="663.3,334 663.3,338.2 590,265 594.2,265 		"/>
	</g>
</g>
<g>
	<polygon points="663.3,341.7 663.3,345.9 582.3,265 586.5,265 	"/>
</g>
<g>
	<polygon points="663.3,349.7 663.3,354 574.3,265 578.5,265 	"/>
</g>
<g>
	<polygon points="663.3,357.8 663.3,362 566.2,265 570.4,265 	"/>
</g>
<g>
	<polygon points="663.3,365.9 663.3,370.1 558.2,265 562.4,265 	"/>
</g>
<g>
	<polygon points="663.3,373.9 663.3,378.1 550.1,265 554.3,265 	"/>
</g>
<line class="st0" x1="582.3" y1="392.8" x2="130.2" y2="392.8"/>
<g>
	<path d="M189,397.6v7.5h-1.9v-7.5H189z"/>
	<path d="M191.8,402.2v2.8h-1.9v-7.5h5.1l0.9,0.9v2.8l-0.9,0.9H191.8z M191.8,399.4v0.9h2.3v-0.9H191.8z"/>
	<path d="M198.6,399.4v0.9h3.3l0.9,0.9v2.8l-0.9,0.9h-5.1v-1.9h4.2v-0.9h-3.3l-0.9-0.9v-2.8l0.9-0.9h5.1v1.9H198.6z"/>
	<path d="M205.5,397.6v5.6h2.3v-5.6h1.9v6.5l-0.9,0.9h-4.2l-0.9-0.9v-6.5H205.5z"/>
	<path d="M210.6,397.6h1.7l2.3,5.7l2.3-5.7h1.7v7.5h-1.9v-2.8l-1.1,2.8h-2l-1.1-2.8v2.8h-1.9V397.6z"/>
</g>
<path class="st1" d="M172.1,298.5l11.2,35.8l7.4-35.8h13.7l7,33.4l10.4-33.4H237L218.4,358h-15.3l-5.5-26.9l-5.6,26.9h-17.3
	L156,298.5H172.1z"/>
<path class="st1" d="M256.1,318.9l-12.2,39h-14.4l18.6-59.5h16.1l18.6,59.5h-14.4L256.1,318.9z"/>
<path class="st1" d="M301.3,335.7V358h-14.9v-59.6h40.9l7.5,7.5v22.3l-7.5,7.5h-5.5l13,22.4h-14.9l-13-22.4H301.3z M301.3,313.4v7.4
	h18.5v-7.4H301.3z"/>
<path class="st1" d="M341.2,298.5h13.7l23.5,40.3v-40.3h14.9V358h-17.4l-19.8-34v34h-14.9V298.5z"/>
<path class="st1" d="M415.4,298.5V358h-14.9v-59.6H415.4z"/>
<path class="st1" d="M422.5,298.5h13.7l23.5,40.3v-40.3h14.9V358h-17.4l-19.8-34v34h-14.9V298.5z"/>
<path class="st1" d="M488.5,358l-7.5-7.5v-44.6l7.5-7.5h33.5l7.5,7.5v7.5h-33.5v29.7h18.5v-7.5h-11.1v-14.9h18.5l7.5,7.5v22.4
	l-7.5,7.5H488.5z"/>
<path class="st1" d="M208.8,408.2v26.2h-6.6v-26.2H208.8z"/>
<path class="st1" d="M212,408.2h6l10.3,17.7v-17.7h6.6v26.2h-7.6l-8.7-15v15H212V408.2z"/>
<path class="st1" d="M244.6,424.6v9.8H238v-26.2h21.3v6.6h-14.7v3.3h14.7v6.6H244.6z"/>
<path class="st1" d="M262.2,434.4v-26.2h21.3v6.6h-14.7v3.3h14.7v6.6h-14.7v3.2h14.7v6.6H262.2z"/>
<path class="st1" d="M289.4,434.4l-3.3-3.3v-19.6l3.3-3.3h14.8l3.3,3.3v6.6h-6.6v-3.3h-8.2v13.1h8.2v-3.3h6.6v6.5l-3.3,3.3H289.4z"
	/>
<path class="st1" d="M317.8,414.8h-7.6v-6.6h21.3v6.6h-7.1v19.6h-6.5V414.8z"/>
<path class="st1" d="M334.3,434.4v-26.2h21.3v6.6h-14.7v3.3h14.7v6.6h-14.7v3.2h14.7v6.6H334.3z"/>
<path class="st1" d="M358.6,434.4v-26.2h18l3.3,3.3v19.6l-3.3,3.3H358.6z M365.1,414.7v13.1h8.2v-13.1H365.1z"/>
<path class="st1" d="M392.5,434.4l11.2-19.6h-11.2v-6.6h21.3l-11.2,19.6h11.2v6.6H392.5z"/>
<path class="st1" d="M419,434.4l-3.3-3.3v-19.6l3.3-3.3h14.7l3.3,3.3v19.6l-3.3,3.3H419z M422.2,414.8v13.1h8.2v-13.1H422.2z"/>
<path class="st1" d="M440.1,408.2h6l10.3,17.7v-17.7h6.6v26.2h-7.6l-8.7-15v15h-6.6V408.2z"/>
<path class="st1" d="M466.2,434.4v-26.2h21.3v6.6h-14.7v3.3h14.7v6.6h-14.7v3.2h14.7v6.6H466.2z"/>
</svg>
