<?xml version="1.0" encoding="utf-8"?>
<!-- Generator: Adobe Illustrator 28.0.0, SVG Export Plug-In . SVG Version: 6.00 Build 0)  -->
<svg version="1.1" id="Layer_1" xmlns:xodm="http://www.corel.com/coreldraw/odm/2003"
	 xmlns="http://www.w3.org/2000/svg" xmlns:xlink="http://www.w3.org/1999/xlink" x="0px" y="0px" viewBox="0 0 720 720"
	 style="enable-background:new 0 0 720 720;" xml:space="preserve">
<path d="M549.3,669.3H161.1v-624h388.2L549.3,669.3L549.3,669.3z M168.3,662.1h373.8V52.5H168.3V662.1z"/>
<rect x="164.7" y="122.2" width="381" height="7.2"/>
<rect x="164.7" y="199.2" width="381" height="7.2"/>
<rect x="164.7" y="276.1" width="381" height="7.2"/>
<rect x="164.7" y="353.1" width="381" height="7.2"/>
<rect x="164.7" y="430" width="381" height="7.2"/>
<rect x="164.7" y="506.9" width="381" height="7.2"/>
<rect x="164.7" y="583.9" width="381" height="7.2"/>
<g>
	<rect x="172.1" y="55.6" width="10.2" height="63.3"/>
</g>
<g>
	<rect x="185.6" y="55.6" width="10.2" height="63.3"/>
</g>
<g>
	<rect x="199.1" y="55.6" width="10.2" height="63.3"/>
</g>
<g>
	<rect x="212.6" y="55.6" width="10.2" height="63.3"/>
</g>
<g>
	<rect x="226.2" y="55.6" width="10.2" height="63.3"/>
</g>
<g>
	<rect x="239.7" y="55.6" width="10.2" height="63.3"/>
</g>
<g>
	<rect x="253.2" y="55.6" width="10.2" height="63.3"/>
</g>
<g>
	<rect x="266.8" y="55.6" width="10.2" height="63.3"/>
</g>
<g>
	<rect x="280.3" y="55.6" width="10.2" height="63.3"/>
</g>
<g>
	<rect x="293.8" y="55.6" width="10.2" height="63.3"/>
</g>
<g>
	<rect x="307.4" y="55.6" width="10.2" height="63.3"/>
</g>
<g>
	<rect x="320.9" y="55.6" width="10.2" height="63.3"/>
</g>
<g>
	<rect x="334.4" y="55.6" width="10.2" height="63.3"/>
</g>
<g>
	<rect x="172.1" y="132.6" width="10.2" height="63.3"/>
</g>
<g>
	<rect x="185.6" y="132.6" width="10.2" height="63.3"/>
</g>
<g>
	<rect x="199.1" y="132.6" width="10.2" height="63.3"/>
</g>
<g>
	<rect x="212.6" y="132.6" width="10.2" height="63.3"/>
</g>
<g>
	<rect x="226.2" y="132.6" width="10.2" height="63.3"/>
</g>
<g>
	<rect x="239.7" y="132.6" width="10.2" height="63.3"/>
</g>
<g>
	<rect x="253.2" y="132.6" width="10.2" height="63.3"/>
</g>
<g>
	<rect x="266.8" y="132.6" width="10.2" height="63.3"/>
</g>
<g>
	<rect x="280.3" y="132.6" width="10.2" height="63.3"/>
</g>
<g>
	<rect x="293.8" y="132.6" width="10.2" height="63.3"/>
</g>
<g>
	<rect x="307.4" y="132.6" width="10.2" height="63.3"/>
</g>
<g>
	<rect x="320.9" y="132.6" width="10.2" height="63.3"/>
</g>
<g>
	<rect x="334.4" y="132.6" width="10.2" height="63.3"/>
</g>
<g>
	<rect x="348" y="132.6" width="10.2" height="63.3"/>
</g>
<g>
	<rect x="361.5" y="132.6" width="10.2" height="63.3"/>
</g>
<g>
	<rect x="172.1" y="209.7" width="10.2" height="63.3"/>
</g>
<g>
	<rect x="185.6" y="209.7" width="10.2" height="63.3"/>
</g>
<g>
	<rect x="199.1" y="209.7" width="10.2" height="63.3"/>
</g>
<g>
	<rect x="212.6" y="209.7" width="10.2" height="63.3"/>
</g>
<g>
	<rect x="226.2" y="209.7" width="10.2" height="63.3"/>
</g>
<g>
	<rect x="172.1" y="286.7" width="10.2" height="63.3"/>
</g>
<g>
	<rect x="185.6" y="286.7" width="10.2" height="63.3"/>
</g>
<g>
	<rect x="199.1" y="286.7" width="10.2" height="63.3"/>
</g>
<g>
	<rect x="212.6" y="286.7" width="10.2" height="63.3"/>
</g>
<g>
	<rect x="226.2" y="286.7" width="10.2" height="63.3"/>
</g>
<g>
	<rect x="239.7" y="286.7" width="10.2" height="63.3"/>
</g>
<g>
	<rect x="253.2" y="286.7" width="10.2" height="63.3"/>
</g>
<g>
	<rect x="172.1" y="363.5" width="10.2" height="63.3"/>
</g>
<g>
	<rect x="185.6" y="363.5" width="10.2" height="63.3"/>
</g>
<g>
	<rect x="199.1" y="363.5" width="10.2" height="63.3"/>
</g>
<g>
	<rect x="212.6" y="363.5" width="10.2" height="63.3"/>
</g>
<g>
	<rect x="226.2" y="363.5" width="10.2" height="63.3"/>
</g>
<g>
	<rect x="239.7" y="363.5" width="10.2" height="63.3"/>
</g>
<g>
	<rect x="253.2" y="363.5" width="10.2" height="63.3"/>
</g>
<g>
	<rect x="266.8" y="363.5" width="10.2" height="63.3"/>
</g>
<g>
	<rect x="280.3" y="363.5" width="10.2" height="63.3"/>
</g>
<g>
	<rect x="293.8" y="363.5" width="10.2" height="63.3"/>
</g>
<g>
	<rect x="307.4" y="363.5" width="10.2" height="63.3"/>
</g>
<g>
	<rect x="320.9" y="363.5" width="10.2" height="63.3"/>
</g>
<g>
	<rect x="334.4" y="363.5" width="10.2" height="63.3"/>
</g>
<g>
	<rect x="348" y="363.5" width="10.2" height="63.3"/>
</g>
<g>
	<rect x="361.5" y="363.5" width="10.2" height="63.3"/>
</g>
<g>
	<rect x="375" y="363.5" width="10.2" height="63.3"/>
</g>
<g>
	<rect x="388.6" y="363.5" width="10.2" height="63.3"/>
</g>
<g>
	<rect x="402.1" y="363.5" width="10.2" height="63.3"/>
</g>
<g>
	<rect x="415.6" y="363.5" width="10.2" height="63.3"/>
</g>
<rect x="429.1" y="363.5" width="10.2" height="63.3"/>
<rect x="442.7" y="363.5" width="10.2" height="63.3"/>
<rect x="456.2" y="363.5" width="10.2" height="63.3"/>
<g>
	<rect x="172.1" y="440.4" width="10.2" height="63.3"/>
</g>
<g>
	<rect x="185.6" y="440.4" width="10.2" height="63.3"/>
</g>
<g>
	<rect x="199.1" y="440.4" width="10.2" height="63.3"/>
</g>
<g>
	<rect x="212.6" y="440.4" width="10.2" height="63.3"/>
</g>
<g>
	<rect x="226.2" y="440.4" width="10.2" height="63.3"/>
</g>
<g>
	<rect x="239.7" y="440.4" width="10.2" height="63.3"/>
</g>
<g>
	<rect x="253.2" y="440.4" width="10.2" height="63.3"/>
</g>
<g>
	<rect x="266.8" y="440.4" width="10.2" height="63.3"/>
</g>
<g>
	<rect x="280.3" y="440.4" width="10.2" height="63.3"/>
</g>
<g>
	<rect x="293.8" y="440.4" width="10.2" height="63.3"/>
</g>
<g>
	<rect x="307.4" y="440.4" width="10.2" height="63.3"/>
</g>
<g>
	<rect x="320.9" y="440.4" width="10.2" height="63.3"/>
</g>
<g>
	<rect x="334.4" y="440.4" width="10.2" height="63.3"/>
</g>
<g>
	<rect x="348" y="440.4" width="10.2" height="63.3"/>
</g>
<g>
	<rect x="361.5" y="440.4" width="10.2" height="63.3"/>
</g>
<g>
	<rect x="375" y="440.4" width="10.2" height="63.3"/>
</g>
<g>
	<rect x="388.6" y="440.4" width="10.2" height="63.3"/>
</g>
<g>
	<rect x="402.1" y="440.4" width="10.2" height="63.3"/>
</g>
<g>
	<rect x="172.1" y="517.4" width="10.2" height="63.3"/>
</g>
<g>
	<rect x="185.6" y="517.4" width="10.2" height="63.3"/>
</g>
<g>
	<rect x="199.1" y="517.4" width="10.2" height="63.3"/>
</g>
<g>
	<rect x="212.6" y="517.4" width="10.2" height="63.3"/>
</g>
<g>
	<rect x="226.2" y="517.4" width="10.2" height="63.3"/>
</g>
<g>
	<rect x="239.7" y="517.4" width="10.2" height="63.3"/>
</g>
<g>
	<rect x="253.2" y="517.4" width="10.2" height="63.3"/>
</g>
<g>
	<rect x="266.8" y="517.4" width="10.2" height="63.3"/>
</g>
<g>
	<rect x="280.3" y="517.4" width="10.2" height="63.3"/>
</g>
<g>
	<rect x="293.8" y="517.4" width="10.2" height="63.3"/>
</g>
<g>
	<rect x="172.1" y="594.3" width="10.2" height="63.3"/>
</g>
<g>
	<rect x="185.6" y="594.3" width="10.2" height="63.3"/>
</g>
<g>
	<rect x="199.1" y="594.3" width="10.2" height="63.3"/>
</g>
<g>
	<rect x="212.6" y="594.3" width="10.2" height="63.3"/>
</g>
<g>
	<rect x="226.2" y="594.3" width="10.2" height="63.3"/>
</g>
<g>
	<rect x="239.7" y="594.3" width="10.2" height="63.3"/>
</g>
<g>
	<rect x="253.2" y="594.3" width="10.2" height="63.3"/>
</g>
<g>
	<rect x="266.8" y="594.3" width="10.2" height="63.3"/>
</g>
<g>
	<rect x="280.3" y="594.3" width="10.2" height="63.3"/>
</g>
<g>
	<rect x="293.8" y="594.3" width="10.2" height="63.3"/>
</g>
<g>
	<rect x="307.4" y="594.3" width="10.2" height="63.3"/>
</g>
<g>
	<rect x="320.9" y="594.3" width="10.2" height="63.3"/>
</g>
<g>
	<rect x="334.4" y="594.3" width="10.2" height="63.3"/>
</g>
</svg>
