<?xml version="1.0" encoding="utf-8"?>
<!-- Generator: Adobe Illustrator 28.0.0, SVG Export Plug-In . SVG Version: 6.00 Build 0)  -->
<svg version="1.1" id="Layer_1" xmlns:xodm="http://www.corel.com/coreldraw/odm/2003"
	 xmlns="http://www.w3.org/2000/svg" xmlns:xlink="http://www.w3.org/1999/xlink" x="0px" y="0px" viewBox="0 0 720 720"
	 style="enable-background:new 0 0 720 720;" xml:space="preserve">
<path d="M57.8,301.9V388l543.7-2.4l0.9,0l61-81.5L57.8,301.9z M600.6,382.1l-539.3,2.4v-79l595,2.2L600.6,382.1z"/>
<polygon points="286.8,310.7 242.5,374.2 68.3,374.2 68.3,310.7 "/>
<polygon points="329.2,309.4 281,375.2 261.4,375.2 309.7,309.4 "/>
<polygon points="372.9,309.4 324.7,375.2 305.2,375.2 353.4,309.4 "/>
<polygon points="416.7,309.4 368.5,375.2 348.9,375.2 397.1,309.4 "/>
<polygon points="460.4,309.4 412.2,375.2 392.6,375.2 440.8,309.4 "/>
<polygon points="504.1,309.4 455.9,375.2 436.4,375.2 484.6,309.4 "/>
<polygon points="547.9,309.4 499.6,375.2 480.1,375.2 528.3,309.4 "/>
<polygon points="591.6,309.4 543.4,375.2 523.9,375.2 572,309.4 "/>
<polygon points="635.3,309.4 587.1,375.2 567.6,375.2 615.8,309.4 "/>
</svg>
