<?xml version="1.0" encoding="utf-8"?>
<!-- Generator: Adobe Illustrator 28.0.0, SVG Export Plug-In . SVG Version: 6.00 Build 0)  -->
<svg version="1.1" id="Layer_1" xmlns:xodm="http://www.corel.com/coreldraw/odm/2003"
	 xmlns="http://www.w3.org/2000/svg" xmlns:xlink="http://www.w3.org/1999/xlink" x="0px" y="0px" viewBox="0 0 720 720"
	 style="enable-background:new 0 0 720 720;" xml:space="preserve">
<style type="text/css">
	.st0{fill:#C02026;}
</style>
<g>
	<path class="st0" d="M649.6,387.1H71.5c-17.8,0-32.2-14.4-32.2-32.2l0,0c0-17.8,14.4-32.2,32.2-32.2h578.1
		c17.8,0,32.2,14.4,32.2,32.2l0,0C681.8,372.6,667.4,387.1,649.6,387.1z M71.5,327.9c-14.8,0-27,12-27,27l0,0c0,14.8,12,27,27,27
		h578.1c14.8,0,27-12,27-27l0,0c0-14.8-12-27-27-27H71.5z"/>
</g>
<g>
	<g>
		<path class="st0" d="M66.2,329.9l-16.8,37.9c-2.1-3.6-3.3-7.8-3.5-12.2l8.9-20C58.1,332.8,62,330.8,66.2,329.9z"/>
	</g>
</g>
<g>
	<g>
		<path class="st0" d="M53.6,336.7l-7.6,17C46.3,347.1,49.1,341.1,53.6,336.7z"/>
	</g>
</g>
<g>
	<g>
		<path class="st0" d="M77.2,329.3l-20.5,46.2c-2.4-1.7-4.4-3.8-6.1-6.2l17.7-39.8L77.2,329.3z"/>
	</g>
</g>
<g>
	<g>
		<path class="st0" d="M87.8,329.3L87.8,329.3l-22.3,50.3c-2.7-0.6-5.2-1.7-7.5-3.2l20.9-47.2l0,0H87.8z"/>
	</g>
</g>
<g>
	<g>
		<polygon class="st0" points="75.9,380.4 67,380.4 89.6,329.3 98.5,329.3 		"/>
	</g>
</g>
<g>
	<g>
		<polygon class="st0" points="86.5,380.4 77.6,380.4 100.3,329.3 109.2,329.3 		"/>
	</g>
</g>
<g>
	<g>
		<polygon class="st0" points="97.2,380.4 88.3,380.4 110.9,329.3 119.8,329.3 		"/>
	</g>
</g>
<g>
	<g>
		<polygon class="st0" points="107.9,380.4 99,380.4 121.6,329.3 130.5,329.3 		"/>
	</g>
</g>
<g>
	<g>
		<polygon class="st0" points="118.5,380.4 109.6,380.4 132.3,329.3 141.1,329.3 		"/>
	</g>
</g>
<g>
	<g>
		<polygon class="st0" points="129.2,380.4 120.3,380.4 143,329.3 151.8,329.3 		"/>
	</g>
</g>
<g>
	<g>
		<polygon class="st0" points="139.8,380.4 130.9,380.4 153.6,329.3 162.4,329.3 		"/>
	</g>
</g>
<g>
	<g>
		<polygon class="st0" points="150.5,380.4 141.6,380.4 164.3,329.3 173.2,329.3 		"/>
	</g>
</g>
<g>
	<g>
		<polygon class="st0" points="161.1,380.4 152.2,380.4 174.9,329.3 183.8,329.3 		"/>
	</g>
</g>
<g>
	<g>
		<polygon class="st0" points="171.8,380.4 163,380.4 185.6,329.3 194.5,329.3 		"/>
	</g>
</g>
<g>
	<g>
		<polygon class="st0" points="182.4,380.4 173.6,380.4 196.3,329.3 205.1,329.3 		"/>
	</g>
</g>
<g>
	<g>
		<polygon class="st0" points="193.1,380.4 184.3,380.4 206.9,329.3 215.8,329.3 		"/>
	</g>
</g>
<g>
	<g>
		<polygon class="st0" points="203.9,380.4 195,380.4 217.6,329.3 226.5,329.3 		"/>
	</g>
</g>
<g>
	<g>
		<polygon class="st0" points="214.5,380.4 205.6,380.4 228.2,329.3 237.1,329.3 		"/>
	</g>
</g>
<g>
	<g>
		<polygon class="st0" points="225.2,380.4 216.3,380.4 238.9,329.3 247.8,329.3 		"/>
	</g>
</g>
<g>
	<g>
		<polygon class="st0" points="235.8,380.4 226.9,380.4 249.5,329.3 258.4,329.3 		"/>
	</g>
</g>
<g>
	<g>
		<polygon class="st0" points="246.5,380.4 237.6,380.4 260.2,329.3 269.1,329.3 		"/>
	</g>
</g>
<g>
	<g>
		<polygon class="st0" points="257.1,380.4 248.2,380.4 270.8,329.3 279.7,329.3 		"/>
	</g>
</g>
<g>
	<g>
		<polygon class="st0" points="267.8,380.4 258.9,380.4 281.6,329.3 290.4,329.3 		"/>
	</g>
</g>
<g>
	<g>
		<polygon class="st0" points="278.4,380.4 269.5,380.4 292.3,329.3 301.1,329.3 		"/>
	</g>
</g>
<g>
	<g>
		<polygon class="st0" points="289.1,380.4 280.2,380.4 302.9,329.3 311.7,329.3 		"/>
	</g>
</g>
<g>
	<g>
		<polygon class="st0" points="299.8,380.4 290.9,380.4 313.6,329.3 322.5,329.3 		"/>
	</g>
</g>
<g>
	<g>
		<polygon class="st0" points="310.4,380.4 301.5,380.4 324.2,329.3 333.1,329.3 		"/>
	</g>
</g>
<g>
	<g>
		<polygon class="st0" points="321.1,380.4 312.3,380.4 334.9,329.3 343.8,329.3 		"/>
	</g>
</g>
<g>
	<g>
		<polygon class="st0" points="331.7,380.4 322.9,380.4 345.5,329.3 354.4,329.3 		"/>
	</g>
</g>
<g>
	<g>
		<polygon class="st0" points="342.4,380.4 333.6,380.4 356.2,329.3 365.1,329.3 		"/>
	</g>
</g>
<g>
	<g>
		<polygon class="st0" points="353.1,380.4 344.2,380.4 366.8,329.3 375.7,329.3 		"/>
	</g>
</g>
<g>
	<g>
		<polygon class="st0" points="363.8,380.4 354.9,380.4 377.5,329.3 386.4,329.3 		"/>
	</g>
</g>
<g>
	<g>
		<polygon class="st0" points="374.4,380.4 365.5,380.4 388.2,329.3 397.1,329.3 		"/>
	</g>
</g>
<g>
	<g>
		<polygon class="st0" points="385.1,380.4 376.2,380.4 398.8,329.3 407.7,329.3 		"/>
	</g>
</g>
<g>
	<g>
		<polygon class="st0" points="395.8,380.4 386.9,380.4 409.5,329.3 418.4,329.3 		"/>
	</g>
</g>
<g>
	<g>
		<polygon class="st0" points="406.4,380.4 397.5,380.4 420.1,329.3 429,329.3 		"/>
	</g>
</g>
<g>
	<g>
		<polygon class="st0" points="417.1,380.4 408.2,380.4 430.9,329.3 439.7,329.3 		"/>
	</g>
</g>
<g>
	<g>
		<polygon class="st0" points="427.7,380.4 418.8,380.4 441.5,329.3 450.3,329.3 		"/>
	</g>
</g>
<g>
	<g>
		<polygon class="st0" points="438.4,380.4 429.5,380.4 452.2,329.3 461,329.3 		"/>
	</g>
</g>
<g>
	<g>
		<polygon class="st0" points="449,380.4 440.1,380.4 462.8,329.3 471.7,329.3 		"/>
	</g>
</g>
<g>
	<g>
		<polygon class="st0" points="459.7,380.4 450.8,380.4 473.5,329.3 482.4,329.3 		"/>
	</g>
</g>
<g>
	<g>
		<polygon class="st0" points="470.3,380.4 461.5,380.4 484.2,329.3 493,329.3 		"/>
	</g>
</g>
<g>
	<g>
		<polygon class="st0" points="481,380.4 472.2,380.4 494.8,329.3 503.7,329.3 		"/>
	</g>
</g>
<g>
	<g>
		<polygon class="st0" points="491.7,380.4 482.9,380.4 505.5,329.3 514.4,329.3 		"/>
	</g>
</g>
<g>
	<g>
		<polygon class="st0" points="502.4,380.4 493.5,380.4 516.1,329.3 525,329.3 		"/>
	</g>
</g>
<g>
	<g>
		<polygon class="st0" points="513.1,380.4 504.2,380.4 526.8,329.3 535.7,329.3 		"/>
	</g>
</g>
<g>
	<g>
		<polygon class="st0" points="523.7,380.4 514.8,380.4 537.4,329.3 546.3,329.3 		"/>
	</g>
</g>
<g>
	<g>
		<polygon class="st0" points="534.4,380.4 525.5,380.4 548.1,329.3 557,329.3 		"/>
	</g>
</g>
<g>
	<g>
		<polygon class="st0" points="545,380.4 536.1,380.4 558.7,329.3 567.6,329.3 		"/>
	</g>
</g>
<g>
	<g>
		<polygon class="st0" points="555.7,380.4 546.8,380.4 569.5,329.3 578.3,329.3 		"/>
	</g>
</g>
<g>
	<g>
		<polygon class="st0" points="566.3,380.4 557.4,380.4 580.2,329.3 589,329.3 		"/>
	</g>
</g>
<g>
	<g>
		<polygon class="st0" points="577,380.4 568.1,380.4 590.8,329.3 599.6,329.3 		"/>
	</g>
</g>
<g>
	<g>
		<polygon class="st0" points="587.7,380.4 578.8,380.4 601.5,329.3 610.3,329.3 		"/>
	</g>
</g>
<g>
	<g>
		<polygon class="st0" points="598.3,380.4 589.4,380.4 612.1,329.3 621,329.3 		"/>
	</g>
</g>
<g>
	<g>
		<polygon class="st0" points="609,380.4 600.1,380.4 622.8,329.3 631.7,329.3 		"/>
	</g>
</g>
<g>
	<g>
		<polygon class="st0" points="619.6,380.4 610.8,380.4 633.4,329.3 642.3,329.3 		"/>
	</g>
</g>
<g>
	<g>
		<polygon class="st0" points="630.3,380.4 621.5,380.4 644.1,329.3 653,329.3 		"/>
	</g>
</g>
<g>
	<g>
		<path class="st0" d="M662.2,332.7l-21.2,47.8l0,0H632l0,0l22.4-50.6C657.2,330.3,659.8,331.3,662.2,332.7z"/>
	</g>
</g>
<g>
	<g>
		<path class="st0" d="M669.8,339.2l-18.2,41l-0.1,0.1h-8.9l0,0l20.8-47C666,335.1,668.1,337,669.8,339.2z"/>
	</g>
</g>
<g>
	<g>
		<path class="st0" d="M675,351.8l-10.7,24c-3.2,2.2-6.9,3.8-10.8,4.4l17.4-39.3C673.1,344.1,674.6,347.8,675,351.8z"/>
	</g>
</g>
<g>
	<g>
		<path class="st0" d="M675.2,354.9c0,7.7-3.4,14.6-8.8,19.3l8.8-19.8C675.2,354.4,675.2,354.7,675.2,354.9z"/>
	</g>
</g>
<path class="st0" d="M332.7,316.2h2.5v-14.8l-2.7,2.4l-1.4-1.7l4.9-5.2h2.5l0,0l0,0v19.3h2.5v2.5h-8.3L332.7,316.2L332.7,316.2z"/>
<path class="st0" d="M342.8,303.1c0-0.9,0.1-1.8,0.3-2.5c0.2-0.6,0.4-1.3,0.6-1.8c0.3-0.5,0.6-0.8,1-1.1c0.4-0.3,0.7-0.6,1.1-0.6
	c0.4-0.2,0.8-0.3,1.2-0.3c0.4-0.1,0.7-0.1,1.1-0.1c0.3,0,0.6,0,1,0.1c0.4,0.1,0.7,0.2,1.2,0.3c0.4,0.2,0.7,0.4,1.1,0.6
	c0.4,0.3,0.7,0.6,1,1.1c0.3,0.5,0.6,1,0.6,1.8c0.2,0.7,0.3,1.6,0.3,2.5v9.2c0,0.9-0.1,1.8-0.3,2.5c-0.2,0.6-0.4,1.3-0.7,1.8
	c-0.3,0.5-0.6,0.8-1,1.2c-0.4,0.3-0.7,0.6-1.1,0.7c-0.4,0.2-0.7,0.3-1.2,0.4c-0.4,0.1-0.7,0.1-1,0.1c-0.4,0-0.7,0-1.1-0.1
	c-0.4-0.1-0.8-0.2-1.2-0.4s-0.7-0.4-1.1-0.6c-0.4-0.3-0.6-0.6-1-1.2c-0.4-0.6-0.5-1.1-0.6-1.8c-0.2-0.7-0.3-1.5-0.3-2.5L342.8,303.1
	L342.8,303.1z M346.2,313.7c0,0.9,0.2,1.6,0.5,1.9c0.4,0.4,0.8,0.6,1.5,0.6s1.1-0.2,1.5-0.6c0.3-0.4,0.5-1,0.5-1.9v-11.8
	c0-0.9-0.2-1.7-0.5-2c-0.3-0.5-0.8-0.6-1.5-0.6s-1.2,0.2-1.5,0.6c-0.4,0.5-0.5,1.1-0.5,2V313.7z"/>
<path class="st0" d="M356.1,303.1c0-0.9,0.1-1.8,0.3-2.5c0.2-0.6,0.4-1.3,0.6-1.8c0.3-0.5,0.6-0.8,1-1.1c0.4-0.3,0.7-0.6,1.1-0.6
	c0.4-0.2,0.8-0.3,1.2-0.3s0.7-0.1,1.1-0.1c0.3,0,0.6,0,1,0.1c0.4,0.1,0.7,0.2,1.2,0.3c0.4,0.2,0.7,0.4,1.1,0.6
	c0.4,0.3,0.7,0.6,1,1.1c0.3,0.5,0.6,1,0.6,1.8c0.2,0.7,0.3,1.6,0.3,2.5v9.2c0,0.9-0.1,1.8-0.3,2.5c-0.2,0.6-0.4,1.3-0.6,1.8
	c-0.3,0.5-0.6,0.8-1,1.2c-0.4,0.3-0.7,0.6-1.1,0.7c-0.4,0.2-0.7,0.3-1.2,0.4c-0.4,0.1-0.7,0.1-1,0.1c-0.4,0-0.7,0-1.1-0.1
	c-0.4-0.1-0.8-0.2-1.2-0.4s-0.7-0.4-1.1-0.6c-0.4-0.3-0.7-0.6-1-1.2c-0.3-0.5-0.5-1.1-0.6-1.8c-0.2-0.7-0.3-1.5-0.3-2.5V303.1z
	 M359.5,313.7c0,0.9,0.2,1.6,0.5,1.9c0.4,0.4,0.8,0.6,1.5,0.6c0.6,0,1.1-0.2,1.5-0.6c0.3-0.4,0.5-1,0.5-1.9v-11.8
	c0-0.9-0.2-1.7-0.5-2c-0.3-0.5-0.8-0.6-1.5-0.6c-0.6,0-1.2,0.2-1.5,0.6c-0.4,0.5-0.5,1.1-0.5,2V313.7z"/>
<path class="st0" d="M374.3,308.6c-0.5,0-0.9-0.1-1.5-0.2c-0.5-0.1-0.9-0.4-1.3-0.8c-0.4-0.4-0.7-0.9-0.9-1.7
	c-0.3-0.7-0.4-1.7-0.4-2.9v-1.4c0-0.7,0.1-1.5,0.2-2c0.1-0.6,0.3-1,0.5-1.5c0.2-0.4,0.5-0.7,0.7-0.9c0.3-0.3,0.6-0.5,0.8-0.6
	c0.3-0.1,0.6-0.2,0.9-0.3c0.3-0.1,0.6-0.1,0.9-0.1c0.3,0,0.6,0,0.9,0.1c0.3,0.1,0.6,0.1,0.9,0.3c0.3,0.1,0.6,0.4,0.8,0.6
	c0.3,0.3,0.6,0.6,0.7,0.9c0.2,0.4,0.4,0.9,0.5,1.5c0.1,0.6,0.2,1.2,0.2,2v1.4c0,1.2-0.1,2.1-0.4,2.9c-0.3,0.7-0.6,1.3-1,1.7
	c-0.4,0.4-0.8,0.6-1.3,0.8C375.1,308.6,374.6,308.6,374.3,308.6z M374.3,306.6c0.6,0,0.9-0.2,1.1-0.7c0.2-0.5,0.3-1.2,0.3-2.1v-2.5
	c0-1-0.1-1.7-0.3-2.2c-0.2-0.5-0.6-0.7-1.1-0.7s-0.9,0.3-1.2,0.7c-0.2,0.5-0.4,1.2-0.4,2.2v2.5c0,1,0.1,1.7,0.4,2.1
	C373.3,306.3,373.7,306.6,374.3,306.6z M381.9,296.6h2.3l-5.8,22.1h-2.3L381.9,296.6z M381.9,311.9c0-1.2,0.1-2.1,0.4-2.8
	c0.3-0.7,0.6-1.2,1-1.6c0.4-0.4,0.8-0.6,1.3-0.7s0.9-0.2,1.4-0.2c0.3,0,0.6,0,0.9,0.1c0.3,0.1,0.6,0.1,0.9,0.3
	c0.3,0.1,0.6,0.4,0.8,0.6c0.3,0.3,0.6,0.6,0.7,0.9c0.2,0.4,0.4,0.9,0.5,1.5s0.2,1.2,0.2,2v1.4c0,0.7-0.1,1.5-0.2,2
	c-0.1,0.6-0.3,1.1-0.5,1.5c-0.2,0.4-0.5,0.7-0.7,1c-0.3,0.3-0.6,0.5-0.8,0.6c-0.3,0.2-0.6,0.3-0.9,0.3c-0.3,0.1-0.6,0.1-0.9,0.1
	c-0.3,0-0.6,0-1-0.1c-0.4-0.1-0.6-0.2-0.9-0.3c-0.3-0.2-0.6-0.4-0.8-0.6c-0.3-0.3-0.5-0.6-0.7-1c-0.2-0.4-0.4-0.9-0.5-1.5
	c-0.1-0.6-0.2-1.3-0.2-2L381.9,311.9L381.9,311.9z M384.6,313.9c0,1,0.1,1.7,0.4,2.1c0.2,0.5,0.6,0.7,1.2,0.7c0.6,0,0.9-0.3,1.1-0.7
	c0.2-0.5,0.3-1.2,0.3-2.1v-2.5c0-1-0.1-1.7-0.3-2.2c-0.2-0.5-0.6-0.7-1.1-0.7s-0.9,0.3-1.2,0.7c-0.2,0.5-0.4,1.2-0.4,2.2V313.9z"/>
</svg>
