<?xml version="1.0" encoding="utf-8"?>
<!-- Generator: Adobe Illustrator 28.0.0, SVG Export Plug-In . SVG Version: 6.00 Build 0)  -->
<svg version="1.1" id="Layer_1" xmlns:xodm="http://www.corel.com/coreldraw/odm/2003"
	 xmlns="http://www.w3.org/2000/svg" xmlns:xlink="http://www.w3.org/1999/xlink" x="0px" y="0px" viewBox="0 0 720 720"
	 style="enable-background:new 0 0 720 720;" xml:space="preserve">
<style type="text/css">
	.st0{fill:#F7B24B;}
	.st1{fill:#FFFFFF;}
</style>
<g>
	<path class="st0" d="M59.8,46v580.7h457L640.5,503V46H59.8z M510.7,611.9H74.6v-551h551v436.1L510.7,611.9z"/>
</g>
<polygon class="st0" points="344.4,671 328.7,671 303.6,643 319.3,643 "/>
<polygon class="st0" points="372.3,671 356.7,671 332,643.5 347.7,643.5 "/>
<polygon class="st0" points="400.2,671 384.6,671 359.9,643.5 375.6,643.5 "/>
<polygon class="st0" points="428.1,671 412.4,671 387.8,643.5 403.5,643.5 "/>
<polygon class="st0" points="456,671 440.3,671 415.7,643.5 431.3,643.5 "/>
<polygon class="st0" points="484.4,671 468.8,671 444.1,643.5 459.8,643.5 "/>
<polygon class="st0" points="513,671 497.4,671 472.7,643.5 488.4,643.5 "/>
<polygon class="st0" points="516.7,643.6 516.7,661.1 500.9,643.5 516.6,643.5 "/>
<polygon class="st0" points="317.2,671 301.5,671 276.5,643 292.2,643 "/>
<polygon class="st0" points="290,671 274.4,671 249.3,643 265,643 "/>
<polygon class="st0" points="262.9,671 247.2,671 222.2,643 237.8,643 "/>
<polygon class="st0" points="235.7,671 220.1,671 195,643 210.7,643 "/>
<polygon class="st0" points="208.6,671 192.9,671 167.8,643 183.5,643 "/>
<polygon class="st0" points="181.4,671 165.8,671 140.7,643 156.4,643 "/>
<polygon class="st0" points="154.3,671 138.6,671 113.5,643 129.2,643 "/>
<polygon class="st0" points="127.1,671 111.4,671 86.4,643 102,643 "/>
<g>
	<polygon class="st0" points="99.5,671 83.8,671 61.4,645.7 61.3,645.7 61.3,645.6 59.8,644.1 61.3,643.6 61.5,643.5 74.9,643.5 	
		"/>
</g>
<g>
	<polygon class="st0" points="70.7,671 61.3,671 61.3,660.4 	"/>
</g>
<circle class="st0" cx="620.9" cy="611.5" r="30.1"/>
<path class="st1" d="M620.9,627.6c-8.8,0-16-7.2-16-16c0-8.8,7.2-16,16-16s16,7.2,16,16C636.9,620.4,629.7,627.6,620.9,627.6z"/>
<line class="st0" x1="620.9" y1="557" x2="620.9" y2="578.8"/>
<line class="st0" x1="620.9" y1="643.7" x2="620.9" y2="665.5"/>
<line class="st0" x1="675.5" y1="611.9" x2="653.6" y2="611.9"/>
<line class="st0" x1="675.5" y1="611.9" x2="653.6" y2="611.9"/>
<line class="st0" x1="587.5" y1="611.7" x2="565.7" y2="611.7"/>
<line class="st0" x1="587.5" y1="611.7" x2="565.7" y2="611.7"/>
<path class="st0" d="M659.9,502.1L659.9,502.1c-1.9,0-3.4-1.6-3.4-3.4V50.4c0-1.9,1.6-3.4,3.4-3.4h0c1.9,0,3.4,1.6,3.4,3.4v448.2
	C663.3,500.5,661.8,502.1,659.9,502.1z"/>
<g>
	<path class="st0" d="M59.8,644.1l1.5,1.6v-2.1L59.8,644.1z"/>
</g>
</svg>
