<?xml version="1.0" encoding="utf-8"?>
<!-- Generator: Adobe Illustrator 28.0.0, SVG Export Plug-In . SVG Version: 6.00 Build 0)  -->
<svg version="1.1" id="Layer_1" xmlns:xodm="http://www.corel.com/coreldraw/odm/2003"
	 xmlns="http://www.w3.org/2000/svg" xmlns:xlink="http://www.w3.org/1999/xlink" x="0px" y="0px" viewBox="0 0 720 720"
	 style="enable-background:new 0 0 720 720;" xml:space="preserve">
<style type="text/css">
	.st0{fill:#F7B24B;}
	.st1{fill:#FFFFFF;}
</style>
<rect x="181.2" y="46" width="357.5" height="625"/>
<path class="st0" d="M501.4,391.8H218.8c-5.3,0-9.6-4.3-9.6-9.6V81.4c0-5.3,4.3-9.6,9.6-9.6h282.7c5.3,0,9.6,4.3,9.6,9.6v300.8
	C511,387.5,506.7,391.8,501.4,391.8z"/>
<rect x="235.5" y="98.1" class="st1" width="249.3" height="267.4"/>
<path d="M321.9,177.9v26.8h93.7l26.8,26.8v80l-26.8,26.8H295.1l-26.8-26.8V151.1l26.8-26.8h147.3v53.6H321.9z M321.9,258.2v26.4h67
	v-26.4H321.9z"/>
</svg>
