<?xml version="1.0" encoding="utf-8"?>
<!-- Generator: Adobe Illustrator 28.0.0, SVG Export Plug-In . SVG Version: 6.00 Build 0)  -->
<svg version="1.1" id="Layer_1" xmlns:xodm="http://www.corel.com/coreldraw/odm/2003"
	 xmlns="http://www.w3.org/2000/svg" xmlns:xlink="http://www.w3.org/1999/xlink" x="0px" y="0px" viewBox="0 0 720 720"
	 style="enable-background:new 0 0 720 720;" xml:space="preserve">
<style type="text/css">
	.st0{opacity:0.2;}
	.st1{opacity:0.3;}
	.st2{fill:none;}
</style>
<rect x="67.3" y="218.1" width="5.1" height="5.1"/>
<rect x="67.3" y="254" width="5.1" height="5.1"/>
<rect x="67.3" y="289.8" width="5.1" height="5.1"/>
<rect x="67.3" y="325.7" width="5.1" height="5.1"/>
<rect x="67.3" y="361.6" width="5.1" height="5.1"/>
<rect x="67.3" y="397.5" width="5.1" height="5.1"/>
<rect x="648.5" y="218.1" width="5.1" height="5.1"/>
<rect x="648.5" y="254" width="5.1" height="5.1"/>
<rect x="648.5" y="289.8" width="5.1" height="5.1"/>
<rect x="648.5" y="325.7" width="5.1" height="5.1"/>
<rect x="648.5" y="361.6" width="5.1" height="5.1"/>
<rect x="648.5" y="397.5" width="5.1" height="5.1"/>
<path class="st0" d="M539.6,254v5h5v-5H539.6z M576.6,402.6l-0.7-1.3L534.5,327l-39.9-2.4l-63.1,37.1l-0.9,0.5l-2.1,1.2l-151.1-21.8
	l-62.9,20.1l-1.8,0.6l-21.6,6.8L286.2,264l-65.8-37.2l-76.3,99l-3.9,5L58.3,436.9h537.4L576.6,402.6z"/>
<path class="st0" d="M544.6,259h-5v-5h5V259z M580.9,291.4l82.4,145.6h-67.5l-42.2-147.1l-59.1,34.7l-69.2-4.2l41.9-25.4l4.7-2.8
	l81.4-49.4l26.7,47.3L580.9,291.4z"/>
<path d="M576.6,402.6l-0.7-1.3L534.5,327l-39.9-2.4l-63.1,37.1l-0.9,0.5l-2.1,1.2l-151.1-21.8l-62.9,20.1l-1.8,0.6l-21.6,6.8
	l-67.9,21.7v46.2h472.6L576.6,402.6z"/>
<path d="M553.6,289.8l-59.1,34.7l39.9,2.4l41.4,74.3l0.7,1.3l19.2,34.4L553.6,289.8z"/>
<path class="st1" d="M576.6,402.6l-0.7-1.3L534.5,327l-39.9-2.4l-63.1,37.1l-0.9,0.5l-2.1,1.2l-151.1-21.8l-62.9,20.1l-1.8,0.6
	l-21.6,6.8l-61.4,67.9h466.1L576.6,402.6z M381.4,317.7l14.3,8.1l3.7,2.1l7.1,4l18.8-11.5L381.4,317.7z"/>
<polygon class="st1" points="494.5,324.5 431.5,361.6 430.6,362.2 428.5,363.4 277.3,341.5 214.5,361.6 212.7,362.2 191,369.1 
	286.2,264 305.5,242.6 321.6,258.6 322,259 357.9,294.5 358.3,294.9 381.2,317.6 381.3,317.7 381.3,317.7 395.7,325.7 399.3,327.8 
	406.4,331.8 425.2,320.3 425.4,320.3 "/>
<rect x="58.3" y="436.9" width="605" height="7.5"/>
<rect x="103.6" y="218.1" width="5.1" height="5.1"/>
<rect x="103.6" y="254" width="5.1" height="5.1"/>
<rect x="103.6" y="289.8" width="5.1" height="5.1"/>
<rect x="103.6" y="325.7" width="5.1" height="5.1"/>
<rect x="103.6" y="361.6" width="5.1" height="5.1"/>
<rect x="140" y="218.1" width="5.1" height="5.1"/>
<rect x="140" y="254" width="5.1" height="5.1"/>
<rect x="140" y="289.8" width="5.1" height="5.1"/>
<line class="st2" x1="144" y1="325.7" x2="140.2" y2="330.8"/>
<rect x="176.3" y="218.1" width="5.1" height="5.1"/>
<rect x="176.3" y="254" width="5.1" height="5.1"/>
<rect x="212.6" y="218.1" width="5.1" height="5.1"/>
<rect x="248.9" y="218.1" width="5.1" height="5.1"/>
<rect x="285.3" y="218.1" width="5.1" height="5.1"/>
<rect x="321.6" y="218.1" width="5.1" height="5.1"/>
<rect x="357.9" y="218.1" width="5.1" height="5.1"/>
<rect x="357.9" y="254" width="5.1" height="5.1"/>
<polygon points="363,289.9 363,294.9 358.3,294.9 357.9,294.5 357.9,289.9 "/>
<rect x="394.2" y="218.1" width="5.1" height="5.1"/>
<rect x="394.2" y="254" width="5.1" height="5.1"/>
<rect x="394.2" y="289.8" width="5.1" height="5.1"/>
<line class="st2" x1="399.3" y1="327.8" x2="395.7" y2="325.7"/>
<rect x="430.6" y="218.1" width="5.1" height="5.1"/>
<rect x="430.6" y="254" width="5.1" height="5.1"/>
<rect x="430.6" y="289.8" width="5.1" height="5.1"/>
<rect x="466.9" y="218.1" width="5.1" height="5.1"/>
<rect x="466.9" y="254" width="5.1" height="5.1"/>
<rect x="503.2" y="218.1" width="5.1" height="5.1"/>
<rect x="503.2" y="254" width="5.1" height="5.1"/>
<rect x="539.5" y="218.1" width="5.1" height="5.1"/>
<rect x="539.6" y="254" width="5" height="5"/>
<rect x="575.9" y="218.1" width="5.1" height="5.1"/>
<rect x="575.9" y="254" width="5.1" height="5.1"/>
<polygon points="576.6,402.6 575.9,402.6 575.9,401.3 "/>
<rect x="612.2" y="218.1" width="5.1" height="5.1"/>
<rect x="612.2" y="254" width="5.1" height="5.1"/>
<rect x="612.2" y="289.8" width="5.1" height="5.1"/>
<rect x="612.2" y="325.7" width="5.1" height="5.1"/>
</svg>
