<?xml version="1.0" encoding="utf-8"?>
<!-- Generator: Adobe Illustrator 28.0.0, SVG Export Plug-In . SVG Version: 6.00 Build 0)  -->
<svg version="1.1" id="Layer_1" xmlns:xodm="http://www.corel.com/coreldraw/odm/2003"
	 xmlns="http://www.w3.org/2000/svg" xmlns:xlink="http://www.w3.org/1999/xlink" x="0px" y="0px" viewBox="0 0 720 720"
	 style="enable-background:new 0 0 720 720;" xml:space="preserve">
<style type="text/css">
	.st0{fill:#FFD93E;}
</style>
<rect x="59.8" y="324.2" class="st0" width="604" height="83.4"/>
<rect x="59.8" y="324.3" width="20.8" height="20.8"/>
<rect x="80.6" y="345.1" width="20.8" height="20.8"/>
<rect x="101.5" y="324.3" width="20.8" height="20.8"/>
<rect x="122.3" y="345.1" width="20.8" height="20.8"/>
<rect x="143.1" y="324.3" width="20.8" height="20.8"/>
<rect x="163.9" y="345.1" width="20.8" height="20.8"/>
<rect x="184.8" y="324.3" width="20.8" height="20.8"/>
<rect x="205.6" y="345.1" width="20.8" height="20.8"/>
<rect x="226.4" y="324.3" width="20.8" height="20.8"/>
<rect x="247.2" y="345.1" width="20.8" height="20.8"/>
<rect x="268.1" y="324.3" width="20.8" height="20.8"/>
<rect x="288.9" y="345.1" width="20.8" height="20.8"/>
<rect x="309.7" y="324.3" width="20.8" height="20.8"/>
<rect x="330.5" y="345.1" width="20.8" height="20.8"/>
<rect x="351.4" y="324.3" width="20.8" height="20.8"/>
<rect x="372.2" y="345.1" width="20.8" height="20.8"/>
<rect x="393" y="324.3" width="20.8" height="20.8"/>
<rect x="413.8" y="345.1" width="20.8" height="20.8"/>
<rect x="434.7" y="324.3" width="20.8" height="20.8"/>
<rect x="455.5" y="345.1" width="20.8" height="20.8"/>
<rect x="476.3" y="324.3" width="20.8" height="20.8"/>
<rect x="497.1" y="345.1" width="20.8" height="20.8"/>
<rect x="518" y="324.3" width="20.8" height="20.8"/>
<rect x="538.8" y="345.1" width="20.8" height="20.8"/>
<rect x="559.6" y="324.3" width="20.8" height="20.8"/>
<rect x="580.4" y="345.1" width="20.8" height="20.8"/>
<rect x="601.3" y="324.3" width="20.8" height="20.8"/>
<rect x="622.1" y="345.1" width="20.8" height="20.8"/>
<rect x="642.9" y="324.3" width="20.8" height="20.8"/>
<rect x="59.8" y="365.9" width="20.8" height="20.8"/>
<rect x="80.6" y="386.7" width="20.8" height="20.8"/>
<rect x="101.5" y="365.9" width="20.8" height="20.8"/>
<rect x="122.3" y="386.7" width="20.8" height="20.8"/>
<rect x="143.1" y="365.9" width="20.8" height="20.8"/>
<rect x="163.9" y="386.7" width="20.8" height="20.8"/>
<rect x="184.8" y="365.9" width="20.8" height="20.8"/>
<rect x="205.6" y="386.7" width="20.8" height="20.8"/>
<rect x="226.4" y="365.9" width="20.8" height="20.8"/>
<rect x="247.2" y="386.7" width="20.8" height="20.8"/>
<rect x="268.1" y="365.9" width="20.8" height="20.8"/>
<rect x="288.9" y="386.7" width="20.8" height="20.8"/>
<rect x="309.7" y="365.9" width="20.8" height="20.8"/>
<rect x="330.5" y="386.7" width="20.8" height="20.8"/>
<rect x="351.4" y="365.9" width="20.8" height="20.8"/>
<rect x="372.2" y="386.7" width="20.8" height="20.8"/>
<rect x="393" y="365.9" width="20.8" height="20.8"/>
<rect x="413.8" y="386.7" width="20.8" height="20.8"/>
<rect x="434.7" y="365.9" width="20.8" height="20.8"/>
<rect x="455.5" y="386.7" width="20.8" height="20.8"/>
<rect x="476.3" y="365.9" width="20.8" height="20.8"/>
<rect x="497.1" y="386.7" width="20.8" height="20.8"/>
<rect x="518" y="365.9" width="20.8" height="20.8"/>
<rect x="538.8" y="386.7" width="20.8" height="20.8"/>
<rect x="559.6" y="365.9" width="20.8" height="20.8"/>
<rect x="580.4" y="386.7" width="20.8" height="20.8"/>
<rect x="601.3" y="365.9" width="20.8" height="20.8"/>
<rect x="622.1" y="386.7" width="20.8" height="20.8"/>
<rect x="642.9" y="365.9" width="20.8" height="20.8"/>
</svg>
