<?xml version="1.0" encoding="utf-8"?>
<!-- Generator: Adobe Illustrator 28.0.0, SVG Export Plug-In . SVG Version: 6.00 Build 0)  -->
<svg version="1.1" id="Layer_1" xmlns:xodm="http://www.corel.com/coreldraw/odm/2003"
	 xmlns="http://www.w3.org/2000/svg" xmlns:xlink="http://www.w3.org/1999/xlink" x="0px" y="0px" viewBox="0 0 720 720"
	 style="enable-background:new 0 0 720 720;" xml:space="preserve">
<g>
	<path d="M83.4,302.7l-2.7,3.6L61.1,333l-3.6,4.9v-18.1c0-9.4,7.7-17.1,17.1-17.1H83.4z"/>
</g>
<g>
	<polygon points="78.5,324.5 78.5,349.8 61.1,373.4 57.4,378.3 57.4,353 61.1,348.1 	"/>
	<polygon points="113.2,302.7 110.6,306.3 102.6,317.2 83.9,317.2 91.9,306.3 94.6,302.7 	"/>
</g>
<g>
	<path d="M78.5,364.9v25.3l-13.6,18.4l-2.2,2.9c-3.3-3.1-5.3-7.5-5.3-12.3v-5.8l3.6-4.9L78.5,364.9z"/>
	<polygon points="143.1,302.7 140.4,306.3 132.4,317.2 113.7,317.2 121.7,306.3 124.4,302.7 	"/>
</g>
<g>
	<path d="M99.8,401.8l-8,10.9l-2.7,3.6H74.5c-1.3,0-2.6-0.1-3.8-0.5l2.4-3.2l8-10.8H99.8z"/>
	<polygon points="172.9,302.7 170.3,306.3 162.3,317.2 143.6,317.2 151.6,306.3 154.3,302.7 	"/>
</g>
<g>
	<polygon points="129.6,401.8 121.6,412.7 119,416.3 100.3,416.3 102.9,412.7 110.9,401.8 	"/>
	<polygon points="202.8,302.7 200.1,306.3 192.1,317.2 173.4,317.2 181.5,306.3 184.1,302.7 	"/>
</g>
<g>
	<polygon points="159.5,401.8 151.4,412.7 148.8,416.3 130.1,416.3 132.8,412.7 140.8,401.8 	"/>
	<polygon points="232.6,302.7 230,306.3 222,317.2 203.3,317.2 211.3,306.3 214,302.7 	"/>
</g>
<g>
	<polygon points="189.3,401.8 181.3,412.7 178.7,416.3 160,416.3 162.6,412.7 170.6,401.8 	"/>
	<polygon points="262.5,302.7 259.8,306.3 251.8,317.2 233.1,317.2 241.2,306.3 243.8,302.7 	"/>
</g>
<g>
	<polygon points="219.2,401.8 211.1,412.7 208.5,416.3 189.8,416.3 192.4,412.7 200.5,401.8 	"/>
	<polygon points="292.3,302.7 289.7,306.3 281.7,317.2 263,317.2 271,306.3 273.6,302.7 	"/>
</g>
<g>
	<polygon points="249,401.8 241,412.7 238.4,416.3 219.6,416.3 222.3,412.7 230.3,401.8 	"/>
	<polygon points="322.2,302.7 319.5,306.3 311.5,317.2 292.8,317.2 300.8,306.3 303.5,302.7 	"/>
</g>
<g>
	<polygon points="278.9,401.8 270.9,412.7 268.2,416.3 249.5,416.3 252.2,412.7 260.2,401.8 	"/>
	<polygon points="352,302.7 349.4,306.3 341.3,317.2 322.7,317.2 330.7,306.3 333.3,302.7 	"/>
</g>
<g>
	<polygon points="308.7,401.8 300.7,412.7 298,416.3 279.3,416.3 282,412.7 290,401.8 	"/>
	<polygon points="381.9,302.7 379.2,306.3 371.2,317.2 352.5,317.2 360.5,306.3 363.2,302.7 	"/>
</g>
<g>
	<polygon points="338.6,401.8 330.6,412.7 327.9,416.3 309.2,416.3 311.9,412.7 319.9,401.8 	"/>
	<polygon points="411.8,302.7 409.1,306.3 401,317.2 382.4,317.2 390.4,306.3 393.1,302.7 	"/>
</g>
<g>
	<polygon points="368.4,401.8 360.4,412.7 357.7,416.3 339,416.3 341.7,412.7 349.8,401.8 	"/>
	<polygon points="441.6,302.7 438.9,306.3 430.9,317.2 412.2,317.2 420.2,306.3 422.9,302.7 	"/>
</g>
<g>
	<polygon points="398.3,401.8 390.3,412.7 387.6,416.3 368.9,416.3 371.6,412.7 379.6,401.8 	"/>
	<polygon points="471.5,302.7 468.8,306.3 460.7,317.2 442.1,317.2 450.1,306.3 452.8,302.7 	"/>
</g>
<g>
	<polygon points="428.1,401.8 420.1,412.7 417.4,416.3 398.7,416.3 401.4,412.7 409.5,401.8 	"/>
	<polygon points="501.3,302.7 498.6,306.3 490.6,317.2 471.9,317.2 479.9,306.3 482.6,302.7 	"/>
</g>
<g>
	<polygon points="458,401.8 450,412.7 447.3,416.3 428.6,416.3 431.3,412.7 439.3,401.8 	"/>
	<polygon points="531.2,302.7 528.5,306.3 520.5,317.2 501.8,317.2 509.8,306.3 512.5,302.7 	"/>
</g>
<g>
	<polygon points="487.8,401.8 479.8,412.7 477.2,416.3 458.5,416.3 461.1,412.7 469.1,401.8 	"/>
	<polygon points="561,302.7 558.3,306.3 550.3,317.2 531.6,317.2 539.6,306.3 542.3,302.7 	"/>
</g>
<g>
	<polygon points="517.7,401.8 509.7,412.7 507,416.3 488.3,416.3 491,412.7 499,401.8 	"/>
	<polygon points="590.9,302.7 588.2,306.3 580.2,317.2 561.5,317.2 569.5,306.3 572.2,302.7 	"/>
</g>
<g>
	<polygon points="547.5,401.8 539.5,412.7 536.9,416.3 518.2,416.3 520.8,412.7 528.8,401.8 	"/>
	<polygon points="620.7,302.7 618,306.3 610,317.2 591.3,317.2 599.4,306.3 602,302.7 	"/>
</g>
<g>
	<polygon points="577.4,401.8 569.3,412.7 566.7,416.3 548,416.3 550.7,412.7 558.7,401.8 	"/>
	<path d="M650.2,303.2l-2.4,3.2l-8,10.8h-18.7l8-10.9l2.7-3.6h14.4C647.6,302.7,648.9,302.9,650.2,303.2z"/>
</g>
<g>
	<polygon points="607.2,401.8 599.2,412.7 596.6,416.3 577.9,416.3 580.5,412.7 588.5,401.8 	"/>
	<path d="M663.3,319.8v6.1l-3.6,4.9l-17.4,23.6V329l13.7-18.5l2.2-3C661.3,310.7,663.3,315,663.3,319.8z"/>
</g>
<g>
	<polygon points="637.1,401.8 629,412.7 626.4,416.3 607.7,416.3 610.4,412.7 618.4,401.8 	"/>
	<polygon points="663.3,341 663.3,366.3 659.7,371.2 642.3,394.8 642.3,369.5 659.7,345.9 	"/>
</g>
<g>
	<path d="M663.3,381.4v17.8c0,9.4-7.6,17.1-17.1,17.1h-8.7l2.7-3.6l19.5-26.4L663.3,381.4z"/>
</g>
</svg>
