<?xml version="1.0" encoding="utf-8"?>
<!-- Generator: Adobe Illustrator 28.0.0, SVG Export Plug-In . SVG Version: 6.00 Build 0)  -->
<svg version="1.1" id="Layer_1" xmlns:xodm="http://www.corel.com/coreldraw/odm/2003"
	 xmlns="http://www.w3.org/2000/svg" xmlns:xlink="http://www.w3.org/1999/xlink" x="0px" y="0px" viewBox="0 0 720 720"
	 style="enable-background:new 0 0 720 720;" xml:space="preserve">
<style type="text/css">
	.st0{fill-rule:evenodd;clip-rule:evenodd;fill:#C10C0C;}
	.st1{fill-rule:evenodd;clip-rule:evenodd;fill:#FFFFFF;}
	.st2{fill-rule:evenodd;clip-rule:evenodd;}
</style>
<path class="st0" d="M568.2,703.1H151.8c-22.6,0-40.9-18.3-40.9-40.9V57.8c0-22.6,18.3-40.9,40.9-40.9h416.5
	c22.6,0,40.9,18.3,40.9,40.9v604.4C609,684.8,590.8,703.1,568.2,703.1z"/>
<path class="st1" d="M566,38.2H154c-12.3,0-22.2,9.9-22.2,22.2v599.2c0,12.3,9.9,22.2,22.2,22.2h412c12.3,0,22.2-9.9,22.2-22.2V60.4
	C588.2,48.1,578.2,38.2,566,38.2z M582,658.1c0,10.2-8.3,18.5-18.5,18.5h-407c-10.2,0-18.5-8.3-18.5-18.5V61.9
	c0-10.2,8.3-18.5,18.5-18.5h407c10.2,0,18.5,8.3,18.5,18.5V658.1z"/>
<path class="st1" d="M566,43.2H155.2c-10,0-18,6.6-18,14.9V185H584V58.1C584.1,49.8,576,43.2,566,43.2z"/>
<path d="M156.4,74.6l13.3,42.5l8.7-42.5h16.2l8.4,39.8l12.4-39.8h18.2l-22.2,71h-18.2l-6.6-32l-6.7,32h-20.6l-22.2-71H156.4z"/>
<path d="M256.6,98.9L242,145.4h-17.2L247,74.5h19.1l22.2,70.9H271L256.6,98.9z"/>
<path d="M310.4,118.9v26.7h-17.7v-71h48.7l8.9,8.9V110l-8.9,8.9h-6.6l15.4,26.7h-17.7L317,118.9H310.4z M310.4,92.3v8.7h22v-8.7
	H310.4z"/>
<path d="M358,74.6h16.2l28,48v-48h17.7v71h-20.8L375.6,105v40.6h-17.7v-71H358z"/>
<path d="M446.4,74.6v71h-17.7v-71H446.4z"/>
<path d="M454.9,74.6h16.2l28,48v-48h17.7v71H496L472.5,105v40.6h-17.7v-71H454.9z"/>
<path d="M533.4,145.6l-8.9-8.9V83.6l8.9-8.9h39.8l8.9,8.9v8.9h-39.8v35.5h22V119h-13.2v-17.7h22l8.9,8.9v26.5l-8.9,8.9h-39.8V145.6z
	"/>
<path class="st2" d="M314.8,436.3L435,368.9l-49.2,184.6l25.5,5.5l-55.3,82c0,0-25.5-96-26.1-96l25.5,3.6l4.3-96l-94.1,45.5
	L344.5,225h62.6"/>
</svg>
