<?xml version="1.0" encoding="UTF-8"?>
<!DOCTYPE svg PUBLIC "-//W3C//DTD SVG 1.1//EN" "http://www.w3.org/Graphics/SVG/1.1/DTD/svg11.dtd">
<!-- Creator: CorelDRAW -->
<svg xmlns="http://www.w3.org/2000/svg" xml:space="preserve" width="10in" height="10in" version="1.1" style="shape-rendering:geometricPrecision; text-rendering:geometricPrecision; image-rendering:optimizeQuality; fill-rule:evenodd; clip-rule:evenodd"
viewBox="0 0 10000 10000"
 xmlns:xlink="http://www.w3.org/1999/xlink"
 xmlns:xodm="http://www.corel.com/coreldraw/odm/2003">
 <defs>
  <style type="text/css">
   <![CDATA[
    .fil0 {fill:black}
   ]]>
  </style>
 </defs>
 <g id="Layer_x0020_1">
  <metadata id="CorelCorpID_0Corel-Layer"/>
  <path class="fil0" d="M5609.69 9420.67c1162.83,-520.43 3130.19,-2735.41 1153.72,-5030.59 22.39,220.81 33.35,867.8 -573.75,1219.22 855.85,-3011.56 -1224.56,-4384.43 -1993.64,-5020.58 541.71,873.13 667.95,1519.65 603.74,1882.95 -39.59,-219.72 -317.71,-683.42 -487.54,-810 770.28,2072.88 -1912.5,3017.46 -1220.82,4908.66 -255.44,-253.1 -413.06,-553.8 -450.84,-993.5 -373.93,674.43 -662.27,2966.63 1641.37,3847.92 -1373.95,-1120.78 -511.37,-3534 1235.65,-4243.79 -1354.77,2087.38 2232.35,2039.18 92.11,4239.7z"/>
 </g>
</svg>
