<?xml version="1.0" encoding="utf-8"?>
<!-- Generator: Adobe Illustrator 28.0.0, SVG Export Plug-In . SVG Version: 6.00 Build 0)  -->
<svg version="1.1" id="Layer_1" xmlns:xodm="http://www.corel.com/coreldraw/odm/2003"
	 xmlns="http://www.w3.org/2000/svg" xmlns:xlink="http://www.w3.org/1999/xlink" x="0px" y="0px" viewBox="0 0 720 720"
	 style="enable-background:new 0 0 720 720;" xml:space="preserve">
<path d="M407.5,539.7c0,10.8-3.5,20.7-9.6,28.8l-0.4,0.5v0.1l-3,3.6l-0.1,0.1l-0.1,0.1l-0.3,0.3c-8.8,9.3-21.3,15.1-35,15.1
	c-26.8,0-48.5-21.8-48.5-48.5c0-26.7,21.8-48.5,48.5-48.5C385.7,491.3,407.5,513,407.5,539.7z"/>
<path d="M505.4,440.6l-43.8,52.3c-17.8-38.8-57.1-65.7-102.5-65.7c-45.6,0-84.9,27.2-102.7,66.1l-43.9-52.4
	c31.8-47,85.6-77.9,146.6-77.9C419.9,362.9,473.7,393.7,505.4,440.6z"/>
<path d="M589.8,340L547.9,390c-44.2-55.6-112.4-91.3-188.7-91.3c-76.5,0-144.8,35.8-189,91.5l-41.9-50
	c56-64.7,138.8-105.7,230.9-105.7C451.1,234.5,533.8,275.4,589.8,340z"/>
<path d="M673,240.8l-41.5,49.6c-67.6-73.8-164.7-120.1-272.3-120.1c-107.8,0-205,46.4-272.6,120.3L45,241.1
	c79-83.1,190.6-135,314.1-135C482.5,106.1,594,157.8,673,240.8z"/>
<path d="M407.5,539.7c0,10.8-3.5,20.7-9.6,28.8l-0.4,0.5v0.1l-3,3.6l-0.1,0.1l-0.1,0.1l-0.3,0.3c-8.8,9.3-21.3,15.1-35,15.1
	c-26.8,0-48.5-21.8-48.5-48.5c0-26.7,21.8-48.5,48.5-48.5C385.7,491.3,407.5,513,407.5,539.7z"/>
<path d="M505.4,440.6l-43.8,52.3c-17.8-38.8-57.1-65.7-102.5-65.7c-45.6,0-84.9,27.2-102.7,66.1l-43.9-52.4
	c31.8-47,85.6-77.9,146.6-77.9C419.9,362.9,473.7,393.7,505.4,440.6z"/>
<path d="M589.8,340L547.9,390c-44.2-55.6-112.4-91.3-188.7-91.3c-76.5,0-144.8,35.8-189,91.5l-41.9-50
	c56-64.7,138.8-105.7,230.9-105.7C451.1,234.5,533.8,275.4,589.8,340z"/>
<path d="M407.5,539.7c0,10.8-3.5,20.7-9.6,28.8l-0.4,0.5v0.1l-3,3.6l-0.1,0.1l-0.1,0.1l-0.3,0.3c-8.8,9.3-21.3,15.1-35,15.1
	c-26.8,0-48.5-21.8-48.5-48.5c0-26.7,21.8-48.5,48.5-48.5C385.7,491.3,407.5,513,407.5,539.7z"/>
<path d="M505.4,440.6l-43.8,52.3c-17.8-38.8-57.1-65.7-102.5-65.7c-45.6,0-84.9,27.2-102.7,66.1l-43.9-52.4
	c31.8-47,85.6-77.9,146.6-77.9C419.9,362.9,473.7,393.7,505.4,440.6z"/>
<path d="M589.8,340L547.9,390c-44.2-55.6-112.4-91.3-188.7-91.3c-76.5,0-144.8,35.8-189,91.5l-41.9-50
	c56-64.7,138.8-105.7,230.9-105.7C451.1,234.5,533.8,275.4,589.8,340z"/>
<path d="M407.5,539.7c0,10.8-3.5,20.7-9.6,28.8l-0.4,0.5v0.1l-3,3.6l-0.1,0.1l-0.1,0.1l-0.3,0.3c-8.8,9.3-21.3,15.1-35,15.1
	c-26.8,0-48.5-21.8-48.5-48.5c0-26.7,21.8-48.5,48.5-48.5C385.7,491.3,407.5,513,407.5,539.7z"/>
<path d="M505.4,440.6l-43.8,52.3c-17.8-38.8-57.1-65.7-102.5-65.7c-45.6,0-84.9,27.2-102.7,66.1l-43.9-52.4
	c31.8-47,85.6-77.9,146.6-77.9C419.9,362.9,473.7,393.7,505.4,440.6z"/>
<path d="M407.5,539.7c0,10.8-3.5,20.7-9.6,28.8l-0.4,0.5v0.1l-3,3.6l-0.1,0.1l-0.1,0.1l-0.3,0.3c-8.8,9.3-21.3,15.1-35,15.1
	c-26.8,0-48.5-21.8-48.5-48.5c0-26.7,21.8-48.5,48.5-48.5C385.7,491.3,407.5,513,407.5,539.7z"/>
<path d="M505.4,440.6l-43.8,52.3c-17.8-38.8-57.1-65.7-102.5-65.7c-45.6,0-84.9,27.2-102.7,66.1l-43.9-52.4
	c31.8-47,85.6-77.9,146.6-77.9C419.9,362.9,473.7,393.7,505.4,440.6z"/>
<path d="M589.8,340L547.9,390c-44.2-55.6-112.4-91.3-188.7-91.3c-76.5,0-144.8,35.8-189,91.5l-41.9-50
	c56-64.7,138.8-105.7,230.9-105.7C451.1,234.5,533.8,275.4,589.8,340z"/>
<path d="M407.5,539.7c0,10.8-3.5,20.7-9.6,28.8l-0.4,0.5v0.1l-3,3.6l-0.1,0.1l-0.1,0.1l-0.3,0.3c-8.8,9.3-21.3,15.1-35,15.1
	c-26.8,0-48.5-21.8-48.5-48.5c0-26.7,21.8-48.5,48.5-48.5C385.7,491.3,407.5,513,407.5,539.7z"/>
<path d="M505.4,440.6l-43.8,52.3c-17.8-38.8-57.1-65.7-102.5-65.7c-45.6,0-84.9,27.2-102.7,66.1l-43.9-52.4
	c31.8-47,85.6-77.9,146.6-77.9C419.9,362.9,473.7,393.7,505.4,440.6z"/>
<path d="M589.8,340L547.9,390c-44.2-55.6-112.4-91.3-188.7-91.3c-76.5,0-144.8,35.8-189,91.5l-41.9-50
	c56-64.7,138.8-105.7,230.9-105.7C451.1,234.5,533.8,275.4,589.8,340z"/>
<path d="M407.5,539.7c0,10.8-3.5,20.7-9.6,28.8l-0.4,0.5v0.1l-3,3.6l-0.1,0.1l-0.1,0.1l-0.3,0.3c-8.8,9.3-21.3,15.1-35,15.1
	c-26.8,0-48.5-21.8-48.5-48.5c0-26.7,21.8-48.5,48.5-48.5C385.7,491.3,407.5,513,407.5,539.7z"/>
<path d="M505.4,440.6l-43.8,52.3c-17.8-38.8-57.1-65.7-102.5-65.7c-45.6,0-84.9,27.2-102.7,66.1l-43.9-52.4
	c31.8-47,85.6-77.9,146.6-77.9C419.9,362.9,473.7,393.7,505.4,440.6z"/>
<path d="M407.5,539.7c0,10.8-3.5,20.7-9.6,28.8l-0.4,0.5v0.1l-3,3.6l-0.1,0.1l-0.1,0.1l-0.3,0.3c-8.8,9.3-21.3,15.1-35,15.1
	c-26.8,0-48.5-21.8-48.5-48.5c0-26.7,21.8-48.5,48.5-48.5C385.7,491.3,407.5,513,407.5,539.7z"/>
<path d="M505.4,440.6l-43.8,52.3c-17.8-38.8-57.1-65.7-102.5-65.7c-45.6,0-84.9,27.2-102.7,66.1l-43.9-52.4
	c31.8-47,85.6-77.9,146.6-77.9C419.9,362.9,473.7,393.7,505.4,440.6z"/>
<path d="M407.5,539.7c0,10.8-3.5,20.7-9.6,28.8l-0.4,0.5v0.1l-3,3.6l-0.1,0.1l-0.1,0.1l-0.3,0.3c-8.8,9.3-21.3,15.1-35,15.1
	c-26.8,0-48.5-21.8-48.5-48.5c0-26.7,21.8-48.5,48.5-48.5C385.7,491.3,407.5,513,407.5,539.7z"/>
<path d="M505.4,440.6l-43.8,52.3c-17.8-38.8-57.1-65.7-102.5-65.7c-45.6,0-84.9,27.2-102.7,66.1l-43.9-52.4
	c31.8-47,85.6-77.9,146.6-77.9C419.9,362.9,473.7,393.7,505.4,440.6z"/>
<path d="M589.8,340L547.9,390c-44.2-55.6-112.4-91.3-188.7-91.3c-76.5,0-144.8,35.8-189,91.5l-41.9-50
	c56-64.7,138.8-105.7,230.9-105.7C451.1,234.5,533.8,275.4,589.8,340z"/>
<path d="M407.5,539.7c0,10.8-3.5,20.7-9.6,28.8l-0.4,0.5v0.1l-3,3.6l-0.1,0.1l-0.1,0.1l-0.3,0.3c-8.8,9.3-21.3,15.1-35,15.1
	c-26.8,0-48.5-21.8-48.5-48.5c0-26.7,21.8-48.5,48.5-48.5C385.7,491.3,407.5,513,407.5,539.7z"/>
<path d="M505.4,440.6l-43.8,52.3c-17.8-38.8-57.1-65.7-102.5-65.7c-45.6,0-84.9,27.2-102.7,66.1l-43.9-52.4
	c31.8-47,85.6-77.9,146.6-77.9C419.9,362.9,473.7,393.7,505.4,440.6z"/>
<path d="M407.5,539.7c0,10.8-3.5,20.7-9.6,28.8l-0.4,0.5v0.1l-3,3.6l-0.1,0.1l-0.1,0.1l-0.3,0.3c-8.8,9.3-21.3,15.1-35,15.1
	c-26.8,0-48.5-21.8-48.5-48.5c0-26.7,21.8-48.5,48.5-48.5C385.7,491.3,407.5,513,407.5,539.7z"/>
<path d="M505.4,440.6l-43.8,52.3c-17.8-38.8-57.1-65.7-102.5-65.7c-45.6,0-84.9,27.2-102.7,66.1l-43.9-52.4
	c31.8-47,85.6-77.9,146.6-77.9C419.9,362.9,473.7,393.7,505.4,440.6z"/>
<path d="M407.5,539.7c0,10.8-3.5,20.7-9.6,28.8l-0.4,0.5v0.1l-3,3.6l-0.1,0.1l-0.1,0.1l-0.3,0.3c-8.8,9.3-21.3,15.1-35,15.1
	c-26.8,0-48.5-21.8-48.5-48.5c0-26.7,21.8-48.5,48.5-48.5C385.7,491.3,407.5,513,407.5,539.7z"/>
<path d="M407.5,539.7c0,10.8-3.5,20.7-9.6,28.8l-0.4,0.5v0.1l-3,3.6l-0.1,0.1l-0.1,0.1l-0.3,0.3c-8.8,9.3-21.3,15.1-35,15.1
	c-26.8,0-48.5-21.8-48.5-48.5c0-26.7,21.8-48.5,48.5-48.5C385.7,491.3,407.5,513,407.5,539.7z"/>
<path d="M505.4,440.6l-43.8,52.3c-17.8-38.8-57.1-65.7-102.5-65.7c-45.6,0-84.9,27.2-102.7,66.1l-43.9-52.4
	c31.8-47,85.6-77.9,146.6-77.9C419.9,362.9,473.7,393.7,505.4,440.6z"/>
<path d="M407.5,539.7c0,10.8-3.5,20.7-9.6,28.8l-0.4,0.5v0.1l-3,3.6l-0.1,0.1l-0.1,0.1l-0.3,0.3c-8.8,9.3-21.3,15.1-35,15.1
	c-26.8,0-48.5-21.8-48.5-48.5c0-26.7,21.8-48.5,48.5-48.5C385.7,491.3,407.5,513,407.5,539.7z"/>
<path d="M505.4,440.6l-43.8,52.3c-17.8-38.8-57.1-65.7-102.5-65.7c-45.6,0-84.9,27.2-102.7,66.1l-43.9-52.4
	c31.8-47,85.6-77.9,146.6-77.9C419.9,362.9,473.7,393.7,505.4,440.6z"/>
<path d="M407.5,539.7c0,10.8-3.5,20.7-9.6,28.8l-0.4,0.5v0.1l-3,3.6l-0.1,0.1l-0.1,0.1l-0.3,0.3c-8.8,9.3-21.3,15.1-35,15.1
	c-26.8,0-48.5-21.8-48.5-48.5c0-26.7,21.8-48.5,48.5-48.5C385.7,491.3,407.5,513,407.5,539.7z"/>
<path d="M407.5,539.7c0,10.8-3.5,20.7-9.6,28.8l-0.4,0.5v0.1l-3,3.6l-0.1,0.1l-0.1,0.1l-0.3,0.3c-8.8,9.3-21.3,15.1-35,15.1
	c-26.8,0-48.5-21.8-48.5-48.5c0-26.7,21.8-48.5,48.5-48.5C385.7,491.3,407.5,513,407.5,539.7z"/>
<polyline points="357,573.2 357.3,572.9 357.4,572.7 357.5,572.7 360.5,569.1 360.5,569 361,568.5 "/>
</svg>
