<?xml version="1.0" encoding="utf-8"?>
<!-- Generator: Adobe Illustrator 28.0.0, SVG Export Plug-In . SVG Version: 6.00 Build 0)  -->
<svg version="1.1" id="Layer_1" xmlns:xodm="http://www.corel.com/coreldraw/odm/2003"
	 xmlns="http://www.w3.org/2000/svg" xmlns:xlink="http://www.w3.org/1999/xlink" x="0px" y="0px" viewBox="0 0 720 720"
	 style="enable-background:new 0 0 720 720;" xml:space="preserve">
<style type="text/css">
	.st0{fill-rule:evenodd;clip-rule:evenodd;fill:#C10C0C;}
	.st1{fill:#FFFFFF;}
	.st2{fill-rule:evenodd;clip-rule:evenodd;fill:#F9F9F9;}
</style>
<path class="st0" d="M334.7,55.3c11.2-19.5,39.3-19.5,50.5,0L539,321.5l155.6,269.6c10.4,18-2.6,40.4-23.3,40.4H360H48.7
	c-20.7,0-33.7-22.4-23.3-40.4L181,321.5L334.7,55.3z"/>
<polygon class="st1" points="385.2,209.2 334.8,209.2 342.1,461 377.8,461 "/>
<circle class="st1" cx="360" cy="525.7" r="32.5"/>
<path class="st2" d="M674.8,597.9L521.3,332.1L367.8,66.2c-3.5-6-12.1-6-15.6,0L198.7,332.1L45.2,597.9c-3.5,6,0.9,13.5,7.8,13.5
	h307h307C673.9,611.4,678.2,603.9,674.8,597.9z M664.4,605.3H360H55.6c-3.1,0-5-3.3-3.5-6l152.2-263.6L356.5,72.1
	c1.5-2.7,5.4-2.7,6.9,0l152.2,263.6l152.2,263.6C669.4,601.9,667.5,605.3,664.4,605.3z"/>
</svg>
