<?xml version="1.0" encoding="utf-8"?>
<!-- Generator: Adobe Illustrator 28.0.0, SVG Export Plug-In . SVG Version: 6.00 Build 0)  -->
<svg version="1.1" id="Layer_1" xmlns:xodm="http://www.corel.com/coreldraw/odm/2003"
	 xmlns="http://www.w3.org/2000/svg" xmlns:xlink="http://www.w3.org/1999/xlink" x="0px" y="0px" viewBox="0 0 720 720"
	 style="enable-background:new 0 0 720 720;" xml:space="preserve">
<style type="text/css">
	.st0{fill:#C02026;}
	.st1{opacity:0.5;}
</style>
<g>
	<path class="st0" d="M648.9,387H70.2C52.4,387,38,372.6,38,354.8l0,0c0-17.8,14.4-32.2,32.2-32.2h578.7c17.8,0,32.2,14.4,32.2,32.2
		l0,0C681.1,372.5,666.7,387,648.9,387z M70.2,327.8c-14.8,0-27,12.1-27,27l0,0c0,14.8,12.1,27,27,27h578.7c14.8,0,27-12.1,27-27
		l0,0c0-14.8-12.1-27-27-27H70.2z"/>
</g>
<g>
	<g>
		<path class="st0" d="M64.9,329.8l-16.8,37.9c-2.1-3.6-3.3-7.8-3.5-12.2l8.9-20C56.7,332.6,60.6,330.7,64.9,329.8z"/>
	</g>
</g>
<g>
	<g>
		<path class="st0" d="M52.2,336.6l-7.6,17.1C45,347,47.7,341,52.2,336.6z"/>
	</g>
</g>
<g>
	<g>
		<path class="st0" d="M75.8,329.2l-20.5,46.3c-2.4-1.7-4.5-3.8-6.1-6.2l17.7-39.9L75.8,329.2z"/>
	</g>
</g>
<g>
	<g>
		<path class="st0" d="M86.5,329.2L86.5,329.2l-22.4,50.4c-2.7-0.6-5.2-1.7-7.5-3.2l21-47.2l0,0H86.5z"/>
	</g>
</g>
<g>
	<g>
		<polygon class="st0" points="74.5,380.3 65.6,380.3 88.3,329.2 97.2,329.2 		"/>
	</g>
</g>
<g>
	<g>
		<polygon class="st0" points="85.2,380.3 76.3,380.3 98.9,329.2 107.8,329.2 		"/>
	</g>
</g>
<g>
	<g>
		<polygon class="st0" points="95.9,380.3 87,380.3 109.6,329.2 118.5,329.2 		"/>
	</g>
</g>
<g>
	<g>
		<polygon class="st0" points="106.5,380.3 97.6,380.3 120.3,329.2 129.2,329.2 		"/>
	</g>
</g>
<g>
	<g>
		<polygon class="st0" points="117.2,380.3 108.3,380.3 131,329.2 139.8,329.2 		"/>
	</g>
</g>
<g>
	<g>
		<polygon class="st0" points="127.9,380.3 119,380.3 141.7,329.2 150.5,329.2 		"/>
	</g>
</g>
<g>
	<g>
		<polygon class="st0" points="138.5,380.3 129.6,380.3 152.4,329.2 161.2,329.2 		"/>
	</g>
</g>
<g>
	<g>
		<polygon class="st0" points="149.2,380.3 140.3,380.3 163,329.2 171.9,329.2 		"/>
	</g>
</g>
<g>
	<g>
		<polygon class="st0" points="159.9,380.3 151,380.3 173.7,329.2 182.6,329.2 		"/>
	</g>
</g>
<g class="st1">
	<g>
		<polygon class="st0" points="170.6,380.3 161.7,380.3 184.4,329.2 193.3,329.2 		"/>
	</g>
</g>
<g class="st1">
	<g>
		<polygon class="st0" points="181.2,380.3 172.4,380.3 195,329.2 203.9,329.2 		"/>
	</g>
</g>
<g class="st1">
	<g>
		<polygon class="st0" points="191.9,380.3 183.1,380.3 205.7,329.2 214.6,329.2 		"/>
	</g>
</g>
<g class="st1">
	<g>
		<polygon class="st0" points="202.6,380.3 193.7,380.3 216.4,329.2 225.3,329.2 		"/>
	</g>
</g>
<g class="st1">
	<g>
		<polygon class="st0" points="213.3,380.3 204.4,380.3 227,329.2 235.9,329.2 		"/>
	</g>
</g>
<g class="st1">
	<g>
		<polygon class="st0" points="224,380.3 215.1,380.3 237.7,329.2 246.6,329.2 		"/>
	</g>
</g>
<g class="st1">
	<g>
		<polygon class="st0" points="234.6,380.3 225.7,380.3 248.4,329.2 257.3,329.2 		"/>
	</g>
</g>
<g class="st1">
	<g>
		<polygon class="st0" points="245.3,380.3 236.4,380.3 259,329.2 267.9,329.2 		"/>
	</g>
</g>
<g class="st1">
	<g>
		<polygon class="st0" points="256,380.3 247.1,380.3 269.7,329.2 278.6,329.2 		"/>
	</g>
</g>
<g class="st1">
	<g>
		<polygon class="st0" points="266.6,380.3 257.7,380.3 280.5,329.2 289.3,329.2 		"/>
	</g>
</g>
<g class="st1">
	<g>
		<polygon class="st0" points="277.3,380.3 268.4,380.3 291.1,329.2 299.9,329.2 		"/>
	</g>
</g>
<g class="st1">
	<g>
		<polygon class="st0" points="288,380.3 279.1,380.3 301.8,329.2 310.6,329.2 		"/>
	</g>
</g>
<g class="st1">
	<g>
		<polygon class="st0" points="298.6,380.3 289.7,380.3 312.5,329.2 321.4,329.2 		"/>
	</g>
</g>
<g class="st1">
	<g>
		<polygon class="st0" points="309.3,380.3 300.4,380.3 323.1,329.2 332,329.2 		"/>
	</g>
</g>
<g class="st1">
	<g>
		<polygon class="st0" points="320,380.3 311.2,380.3 333.8,329.2 342.7,329.2 		"/>
	</g>
</g>
<g class="st1">
	<g>
		<polygon class="st0" points="330.7,380.3 321.8,380.3 344.5,329.2 353.4,329.2 		"/>
	</g>
</g>
<g class="st1">
	<g>
		<polygon class="st0" points="341.3,380.3 332.5,380.3 355.1,329.2 364,329.2 		"/>
	</g>
</g>
<g class="st1">
	<g>
		<polygon class="st0" points="352.1,380.3 343.2,380.3 365.8,329.2 374.7,329.2 		"/>
	</g>
</g>
<g class="st1">
	<g>
		<polygon class="st0" points="362.7,380.3 353.8,380.3 376.5,329.2 385.4,329.2 		"/>
	</g>
</g>
<g class="st1">
	<g>
		<polygon class="st0" points="373.4,380.3 364.5,380.3 387.1,329.2 396,329.2 		"/>
	</g>
</g>
<g class="st1">
	<g>
		<polygon class="st0" points="384.1,380.3 375.2,380.3 397.8,329.2 406.7,329.2 		"/>
	</g>
</g>
<g class="st1">
	<g>
		<polygon class="st0" points="394.7,380.3 385.8,380.3 408.5,329.2 417.4,329.2 		"/>
	</g>
</g>
<g class="st1">
	<g>
		<polygon class="st0" points="405.4,380.3 396.5,380.3 419.1,329.2 428,329.2 		"/>
	</g>
</g>
<g class="st1">
	<g>
		<polygon class="st0" points="416.1,380.3 407.2,380.3 429.9,329.2 438.7,329.2 		"/>
	</g>
</g>
<g class="st1">
	<g>
		<polygon class="st0" points="426.7,380.3 417.8,380.3 440.6,329.2 449.4,329.2 		"/>
	</g>
</g>
<g class="st1">
	<g>
		<polygon class="st0" points="437.4,380.3 428.5,380.3 451.2,329.2 460,329.2 		"/>
	</g>
</g>
<g class="st1">
	<g>
		<polygon class="st0" points="448.1,380.3 439.2,380.3 461.9,329.2 470.8,329.2 		"/>
	</g>
</g>
<g class="st1">
	<g>
		<polygon class="st0" points="458.7,380.3 449.8,380.3 472.6,329.2 481.5,329.2 		"/>
	</g>
</g>
<g class="st1">
	<g>
		<polygon class="st0" points="469.4,380.3 460.6,380.3 483.2,329.2 492.1,329.2 		"/>
	</g>
</g>
<g class="st1">
	<g>
		<polygon class="st0" points="480.1,380.3 471.3,380.3 493.9,329.2 502.8,329.2 		"/>
	</g>
</g>
<g class="st1">
	<g>
		<polygon class="st0" points="490.7,380.3 481.9,380.3 504.6,329.2 513.5,329.2 		"/>
	</g>
</g>
<g class="st1">
	<g>
		<polygon class="st0" points="501.5,380.3 492.6,380.3 515.2,329.2 524.1,329.2 		"/>
	</g>
</g>
<g class="st1">
	<g>
		<polygon class="st0" points="512.2,380.3 503.3,380.3 525.9,329.2 534.8,329.2 		"/>
	</g>
</g>
<g class="st1">
	<g>
		<polygon class="st0" points="522.8,380.3 513.9,380.3 536.6,329.2 545.5,329.2 		"/>
	</g>
</g>
<g class="st1">
	<g>
		<polygon class="st0" points="533.5,380.3 524.6,380.3 547.2,329.2 556.1,329.2 		"/>
	</g>
</g>
<g class="st1">
	<g>
		<polygon class="st0" points="544.2,380.3 535.3,380.3 557.9,329.2 566.8,329.2 		"/>
	</g>
</g>
<g class="st1">
	<g>
		<polygon class="st0" points="554.8,380.3 545.9,380.3 568.7,329.2 577.5,329.2 		"/>
	</g>
</g>
<g class="st1">
	<g>
		<polygon class="st0" points="565.5,380.3 556.6,380.3 579.3,329.2 588.1,329.2 		"/>
	</g>
</g>
<g class="st1">
	<g>
		<polygon class="st0" points="576.2,380.3 567.3,380.3 590,329.2 598.8,329.2 		"/>
	</g>
</g>
<g class="st1">
	<g>
		<polygon class="st0" points="586.8,380.3 577.9,380.3 600.7,329.2 609.5,329.2 		"/>
	</g>
</g>
<g class="st1">
	<g>
		<polygon class="st0" points="597.5,380.3 588.6,380.3 611.3,329.2 620.2,329.2 		"/>
	</g>
</g>
<g class="st1">
	<g>
		<polygon class="st0" points="608.2,380.3 599.3,380.3 622,329.2 630.9,329.2 		"/>
	</g>
</g>
<g class="st1">
	<g>
		<polygon class="st0" points="618.8,380.3 610,380.3 632.7,329.2 641.6,329.2 		"/>
	</g>
</g>
<g class="st1">
	<g>
		<polygon class="st0" points="629.5,380.3 620.7,380.3 643.3,329.2 652.2,329.2 		"/>
	</g>
</g>
<g class="st1">
	<g>
		<path class="st0" d="M661.4,332.5l-21.2,47.9l0,0h-8.9l0,0l22.4-50.6C656.5,330.2,659.1,331.2,661.4,332.5z"/>
	</g>
</g>
<g class="st1">
	<g>
		<path class="st0" d="M669.1,339.1l-18.2,41.1l-0.1,0.1h-8.9l0,0l20.8-47C665.2,335,667.4,336.9,669.1,339.1z"/>
	</g>
</g>
<g class="st1">
	<g>
		<path class="st0" d="M674.3,351.6l-10.7,24c-3.2,2.2-6.9,3.8-10.9,4.4l17.4-39.3C672.4,344,673.9,347.7,674.3,351.6z"/>
	</g>
</g>
<g class="st1">
	<g>
		<path class="st0" d="M674.5,354.8c0,7.7-3.4,14.7-8.8,19.3l8.8-19.9C674.5,354.3,674.5,354.6,674.5,354.8z"/>
	</g>
</g>
<path class="st0" d="M337,316.1l4.8-9.3c0.5-0.8,0.8-1.6,1.1-2.2c0.3-0.6,0.5-1.2,0.6-1.7c0.2-0.5,0.3-0.9,0.4-1.2
	c0.1-0.4,0.1-0.6,0.1-0.9c0-0.5,0-0.8-0.1-1.1s-0.2-0.6-0.4-0.7c-0.2-0.2-0.4-0.3-0.6-0.4c-0.3-0.1-0.5-0.1-0.8-0.1
	c-0.7,0-1.3,0.3-1.7,0.9s-0.5,1.5-0.5,2.7v1.2h-2.6c-0.1-0.5-0.2-0.9-0.3-1.3c-0.1-0.4-0.1-0.8-0.1-1.3c0-0.6,0.1-1.1,0.3-1.7
	c0.2-0.6,0.5-1,0.9-1.5c0.4-0.5,0.9-0.8,1.6-1.1c0.6-0.3,1.4-0.4,2.3-0.4c0.9,0,1.8,0.1,2.4,0.4c0.6,0.2,1.2,0.6,1.7,0.9
	c0.5,0.5,0.7,0.9,0.9,1.6c0.2,0.6,0.3,1.3,0.3,2c0,0.5,0,0.8-0.1,1.3c-0.1,0.5-0.2,0.9-0.4,1.4c-0.2,0.5-0.5,1-0.7,1.6
	s-0.6,1.2-1.1,1.9l-4.3,8.2h6.4v2.6h-10.2L337,316.1L337,316.1z"/>
<path class="st0" d="M349.7,302.5c0-0.9,0.1-1.8,0.3-2.5c0.2-0.6,0.4-1.3,0.6-1.8c0.3-0.5,0.6-0.8,1-1.1c0.4-0.3,0.7-0.6,1.1-0.6
	c0.4-0.2,0.8-0.3,1.2-0.3c0.4-0.1,0.7-0.1,1.1-0.1c0.3,0,0.6,0,1,0.1c0.4,0.1,0.7,0.2,1.2,0.3c0.4,0.2,0.7,0.4,1.1,0.6
	c0.4,0.3,0.7,0.6,1,1.1c0.3,0.5,0.6,1,0.6,1.8c0.2,0.7,0.3,1.6,0.3,2.5v9.2c0,0.9-0.1,1.8-0.3,2.5c-0.2,0.6-0.4,1.3-0.7,1.8
	c-0.3,0.5-0.6,0.8-1,1.2c-0.4,0.3-0.7,0.6-1.1,0.7c-0.4,0.2-0.7,0.3-1.2,0.4c-0.4,0.1-0.7,0.1-1,0.1c-0.4,0-0.7,0-1.1-0.1
	c-0.4-0.1-0.8-0.2-1.2-0.4c-0.4-0.2-0.7-0.4-1.1-0.7c-0.4-0.3-0.6-0.6-1-1.2c-0.4-0.6-0.5-1.1-0.6-1.8c-0.2-0.7-0.3-1.5-0.3-2.5
	L349.7,302.5L349.7,302.5z M353,313.2c0,0.9,0.2,1.6,0.5,1.9c0.4,0.4,0.8,0.6,1.5,0.6c0.6,0,1.1-0.2,1.5-0.6c0.3-0.4,0.5-1,0.5-1.9
	v-11.8c0-0.9-0.2-1.7-0.5-2c-0.3-0.5-0.8-0.6-1.5-0.6c-0.6,0-1.2,0.2-1.5,0.6c-0.4,0.5-0.5,1.1-0.5,2V313.2z"/>
<path class="st0" d="M367.8,308.1c-0.5,0-0.9-0.1-1.5-0.2c-0.5-0.1-0.9-0.4-1.3-0.8c-0.4-0.4-0.7-0.9-0.9-1.7
	c-0.2-0.7-0.4-1.7-0.4-2.9v-1.4c0-0.7,0.1-1.5,0.2-2s0.3-1,0.5-1.5c0.2-0.4,0.5-0.7,0.7-0.9c0.3-0.3,0.6-0.5,0.8-0.6
	s0.6-0.2,0.9-0.3c0.3-0.1,0.6-0.1,0.9-0.1s0.6,0,0.9,0.1c0.3,0.1,0.6,0.1,0.9,0.3c0.3,0.1,0.6,0.4,0.8,0.6c0.3,0.3,0.6,0.6,0.7,0.9
	c0.2,0.4,0.4,0.9,0.5,1.5c0.1,0.6,0.2,1.2,0.2,2v1.4c0,1.2-0.1,2.1-0.4,2.9c-0.3,0.7-0.6,1.3-1,1.7c-0.4,0.4-0.8,0.6-1.3,0.8
	C368.7,308,368.2,308.1,367.8,308.1z M367.8,306c0.6,0,0.9-0.2,1.1-0.7c0.2-0.6,0.3-1.2,0.3-2.1v-2.5c0-1-0.1-1.7-0.3-2.2
	c-0.2-0.5-0.6-0.7-1.1-0.7s-0.9,0.3-1.2,0.7c-0.2,0.5-0.4,1.2-0.4,2.2v2.5c0,1,0.1,1.7,0.4,2.1C366.8,305.7,367.2,306,367.8,306z
	 M375.5,296.1h2.3l-5.8,22.1h-2.3L375.5,296.1z M375.5,311.4c0-1.2,0.1-2.1,0.4-2.8c0.3-0.7,0.6-1.2,1-1.6c0.4-0.4,0.8-0.6,1.3-0.7
	c0.5-0.1,0.9-0.2,1.4-0.2c0.3,0,0.6,0,0.9,0.1c0.3,0.1,0.6,0.1,0.9,0.3c0.3,0.1,0.6,0.4,0.8,0.6c0.3,0.3,0.5,0.6,0.7,0.9
	c0.2,0.4,0.4,0.9,0.5,1.5s0.2,1.2,0.2,2v1.4c0,0.7-0.1,1.5-0.2,2c-0.1,0.6-0.3,1.1-0.5,1.5c-0.2,0.4-0.5,0.7-0.7,1
	c-0.3,0.3-0.6,0.5-0.8,0.6c-0.3,0.2-0.6,0.3-0.9,0.3c-0.3,0.1-0.6,0.1-0.9,0.1c-0.3,0-0.6,0-1-0.1c-0.4-0.1-0.6-0.2-0.9-0.3
	c-0.3-0.2-0.6-0.4-0.8-0.6c-0.3-0.3-0.5-0.6-0.6-1c-0.2-0.4-0.4-0.9-0.5-1.5c-0.1-0.6-0.2-1.3-0.2-2L375.5,311.4L375.5,311.4z
	 M378.1,313.4c0,1,0.1,1.7,0.4,2.1s0.6,0.7,1.2,0.7c0.6,0,0.9-0.2,1.1-0.7c0.2-0.5,0.3-1.2,0.3-2.1v-2.5c0-1-0.1-1.7-0.3-2.2
	c-0.2-0.5-0.6-0.7-1.1-0.7s-0.9,0.3-1.2,0.7c-0.2,0.5-0.4,1.2-0.4,2.2V313.4z"/>
</svg>
