<?xml version="1.0" encoding="utf-8"?>
<!-- Generator: Adobe Illustrator 28.0.0, SVG Export Plug-In . SVG Version: 6.00 Build 0)  -->
<svg version="1.1" id="Layer_1" xmlns:xodm="http://www.corel.com/coreldraw/odm/2003"
	 xmlns="http://www.w3.org/2000/svg" xmlns:xlink="http://www.w3.org/1999/xlink" x="0px" y="0px" viewBox="0 0 720 720"
	 style="enable-background:new 0 0 720 720;" xml:space="preserve">
<style type="text/css">
	.st0{fill-rule:evenodd;clip-rule:evenodd;fill:#D5EFFD;stroke:#D5EFFD;stroke-miterlimit:10;}
	.st1{fill-rule:evenodd;clip-rule:evenodd;fill:#21B4F9;stroke:#21B4F9;stroke-miterlimit:10;}
	.st2{fill:#21B4F9;stroke:#21B4F9;stroke-miterlimit:10;}
</style>
<path class="st0" d="M568.9,360.5c-0.3,115.2-93.7,208.4-208.9,208.4c-22.5,0-44.2-3.6-64.5-10.2L265.7,650
	c29.7,9.7,61.5,14.9,94.4,14.9c168.2,0,304.6-136.3,304.9-304.4L568.9,360.5L568.9,360.5z"/>
<path class="st1" d="M151,360.3c0-115.4,93.5-208.9,208.9-208.9s208.9,93.5,208.9,208.9c0,0.1,0,0.1,0,0.2h96c0-0.1,0-0.1,0-0.2
	c0-168.4-136.5-304.9-304.9-304.9S55,191.9,55,360.3c0,135.4,88.3,250.2,210.5,290l29.9-91.3C211.6,531.9,151,453.2,151,360.3z"/>
<path class="st2" d="M294.5,311l-28.6,103.5H245l28.2-99.7H248v17.4h-19.4v-36h66V311H294.5z"/>
<path class="st2" d="M324.5,406.8c-5.9-5.9-8.8-14.2-8.8-24.7v-53.8c0-10.6,3-18.9,8.9-24.8s14.5-8.8,25.7-8.8
	c11.3,0,19.9,2.9,25.8,8.8s8.8,14.1,8.8,24.8v53.8c0,10.6-3,18.9-8.9,24.8s-14.5,8.8-25.7,8.8C338.9,415.7,330.3,412.7,324.5,406.8z
	 M361.7,392.5c2.4-3.1,3.7-7.5,3.7-13.2v-48.1c0-5.7-1.2-10.2-3.7-13.2c-2.4-3.1-6.3-4.6-11.5-4.6s-9,1.5-11.5,4.6
	c-2.4,3.1-3.7,7.5-3.7,13.2v48.1c0,5.8,1.2,10.2,3.7,13.2s6.3,4.6,11.5,4.6C355.4,397.1,359.2,395.5,361.7,392.5z"/>
<path class="st2" d="M412.7,346.8c-3.6-3.7-5.4-8.8-5.4-15.3v-10.2c0-6.6,1.8-11.7,5.4-15.3s8.6-5.5,15.1-5.5
	c6.6,0,11.6,1.8,15.2,5.5s5.3,8.8,5.3,15.5v10c0,6.6-1.8,11.7-5.4,15.4c-3.6,3.6-8.6,5.5-15.1,5.5
	C421.3,352.2,416.3,350.4,412.7,346.8z M480.3,301.6h17.3l-63,118.3h-17.4L480.3,301.6z M431.4,335.9c0.8-1,1.3-2.5,1.3-4.4V321
	c0-1.8-0.4-3.2-1.3-4.2c-0.8-1-2-1.5-3.6-1.5s-2.8,0.5-3.6,1.5c-0.8,1-1.3,2.4-1.3,4.3v10.4c0,2,0.4,3.4,1.3,4.4
	c0.8,1,2,1.5,3.6,1.5C429.4,337.4,430.6,336.9,431.4,335.9z M471.5,415.6c-3.6-3.7-5.4-8.8-5.4-15.3v-10.2c0-6.6,1.8-11.7,5.4-15.3
	c3.6-3.7,8.6-5.5,15.1-5.5c6.6,0,11.6,1.8,15.2,5.5s5.3,8.8,5.3,15.5v10c0,6.6-1.8,11.7-5.4,15.4s-8.6,5.5-15.1,5.5
	C480.1,421.1,475.1,419.2,471.5,415.6z M490.3,404.7c0.8-1,1.3-2.5,1.3-4.4v-10.5c0-1.8-0.4-3.2-1.3-4.2c-0.8-1-2-1.5-3.6-1.5
	s-2.8,0.5-3.6,1.5c-0.8,1-1.3,2.4-1.3,4.3v10.4c0,2,0.4,3.4,1.3,4.4c0.8,1,2,1.5,3.6,1.5C488.2,406.2,489.4,405.7,490.3,404.7z"/>
</svg>
