<?xml version="1.0" encoding="utf-8"?>
<!-- Generator: Adobe Illustrator 28.0.0, SVG Export Plug-In . SVG Version: 6.00 Build 0)  -->
<svg version="1.1" id="Layer_1" xmlns:xodm="http://www.corel.com/coreldraw/odm/2003"
	 xmlns="http://www.w3.org/2000/svg" xmlns:xlink="http://www.w3.org/1999/xlink" x="0px" y="0px" viewBox="0 0 720 720"
	 style="enable-background:new 0 0 720 720;" xml:space="preserve">
<style type="text/css">
	.st0{fill-rule:evenodd;clip-rule:evenodd;}
</style>
<path class="st0" d="M422.2,45.2c-39.2-13-90.4-12.9-129.8,4.6c-119.1,53-162.9,164.5-150.5,282.9C151.3,421.5,261,671,363.7,672
	c99.3,1,208.9-234.8,221.1-319.4C603.6,222.9,560.3,91.1,422.2,45.2z M326,473.8c-95.9,21.4-144.5-45.1-157-132.5
	c-0.5-3.7-1.6-15.4,3.9-15.2c37.3,0.9,147.5,54,159.4,142.6C332.5,472,329.5,473,326,473.8z M303.6,94.5
	c-20,10.9-39.2,14.4-42.8,7.7c-3.6-6.6,9.7-20.9,29.7-31.8c20-10.9,39.2-14.4,42.8-7.7C337,69.4,323.7,83.6,303.6,94.5z
	 M559.5,341.1c-12.5,87.4-61.1,153.9-157,132.5c-3.5-0.8-6.5-1.8-6.3-5.1c11.9-88.6,122.1-141.7,159.4-142.6
	C561,325.7,560,337.4,559.5,341.1z"/>
</svg>
