<?xml version="1.0" encoding="utf-8"?>
<!-- Generator: Adobe Illustrator 28.0.0, SVG Export Plug-In . SVG Version: 6.00 Build 0)  -->
<svg version="1.1" id="Layer_1" xmlns:xodm="http://www.corel.com/coreldraw/odm/2003"
	 xmlns="http://www.w3.org/2000/svg" xmlns:xlink="http://www.w3.org/1999/xlink" x="0px" y="0px" viewBox="0 0 720 720"
	 style="enable-background:new 0 0 720 720;" xml:space="preserve">
<style type="text/css">
	.st0{fill:none;stroke:#FFFFFF;stroke-width:1.019;stroke-miterlimit:10;}
	.st1{fill:none;}
	.st2{fill:#C10C0C;}
	.st3{fill:#FFFFFF;}
</style>
<polyline points="570.1,233.9 664,373.7 664.8,434 622.4,487.8 92,487.8 92,233.9 "/>
<line class="st0" x1="648.2" y1="427.2" x2="107.5" y2="427.2"/>
<g>
	<path d="M82.9,204.1"/>
	<path d="M82.9,515.9"/>
	<line class="st1" x1="167.2" y1="487.8" x2="168.8" y2="487.8"/>
	<path d="M84.5,514.3"/>
	<path d="M84.5,205.7"/>
	<path d="M168.7,233.9"/>
</g>
<g>
	<g>
		<path class="st2" d="M378.8,456.3l-10.9,15.9h6.3l11.2-15.8L374,439.1h-7L378.8,456.3z"/>
	</g>
</g>
<g>
	<g>
		<path class="st2" d="M393.9,456.3L383,472.2h6.3l11.2-15.8l-11.4-17.3H382L393.9,456.3z"/>
	</g>
</g>
<g>
	<g>
		<path class="st2" d="M409.1,456.3l-10.9,15.9h6.3l11.2-15.8l-11.4-17.3h-7.1L409.1,456.3z"/>
	</g>
</g>
<g>
	<g>
		<path class="st2" d="M424.2,456.3l-10.9,15.9h6.3l11.2-15.8l-11.4-17.3h-7.1L424.2,456.3z"/>
	</g>
</g>
<g>
	<g>
		<path class="st2" d="M439.4,456.3l-10.9,15.9h6.3l11.2-15.8l-11.4-17.3h-7.1L439.4,456.3z"/>
	</g>
</g>
<g>
	<g>
		<path class="st2" d="M454.5,456.3l-10.9,15.9h6.3l11.2-15.8l-11.4-17.3h-7.1L454.5,456.3z"/>
	</g>
</g>
<g>
	<g>
		<path class="st2" d="M469.7,456.3l-10.9,15.9h6.3l11.2-15.8l-11.4-17.3h-7.1L469.7,456.3z"/>
	</g>
</g>
<g>
	<g>
		<path class="st2" d="M484.8,456.3l-10.9,15.9h6.3l11.2-15.8L480,439.1h-7L484.8,456.3z"/>
	</g>
</g>
<g>
	<g>
		<path class="st2" d="M500,456.3l-10.9,15.9h6.3l11.2-15.8l-11.4-17.3h-7.1L500,456.3z"/>
	</g>
</g>
<g>
	<g>
		<path class="st2" d="M515.1,456.3l-10.9,15.9h6.3l11.2-15.8l-11.4-17.3h-7.1L515.1,456.3z"/>
	</g>
</g>
<g>
	<g>
		<path class="st2" d="M530.3,456.3l-10.9,15.9h6.3l11.2-15.8l-11.4-17.3h-7.1L530.3,456.3z"/>
	</g>
</g>
<g>
	<g>
		<path class="st2" d="M545.4,456.3l-10.9,15.9h6.3l11.2-15.8l-11.4-17.3h-7.1L545.4,456.3z"/>
	</g>
</g>
<g>
	<g>
		<path class="st2" d="M560.6,456.3l-10.9,15.9h6.3l11.2-15.8l-11.4-17.3h-7.1L560.6,456.3z"/>
	</g>
</g>
<g>
	<g>
		<path class="st2" d="M575.7,456.3l-10.9,15.9h6.3l11.2-15.8L571,439.1h-7.1L575.7,456.3z"/>
	</g>
</g>
<g>
	<g>
		<path class="st2" d="M590.9,456.3L580,472.2h6.3l11.2-15.8l-11.4-17.3H579L590.9,456.3z"/>
	</g>
</g>
<g>
	<g>
		<path class="st2" d="M606,456.3l-10.9,15.9h6.3l11.2-15.8l-11.4-17.3h-7.1L606,456.3z"/>
	</g>
</g>
<g>
	<g>
		<path class="st2" d="M137.1,456.3l-10.9,15.9h6.3l11.2-15.8l-11.4-17.3h-7.1L137.1,456.3z"/>
	</g>
</g>
<g>
	<g>
		<path class="st2" d="M152.2,456.3l-10.9,15.9h6.3l11.2-15.8l-11.4-17.3h-7.1L152.2,456.3z"/>
	</g>
</g>
<g>
	<g>
		<path class="st2" d="M167.4,456.3l-10.9,15.9h6.3l11.2-15.8l-11.4-17.3h-7.1L167.4,456.3z"/>
	</g>
</g>
<g>
	<g>
		<path class="st2" d="M182.5,456.3l-10.9,15.9h6.3l11.2-15.8l-11.4-17.3h-7.1L182.5,456.3z"/>
	</g>
</g>
<g>
	<g>
		<path class="st2" d="M197.7,456.3l-10.9,15.9h6.3l11.2-15.8l-11.4-17.3h-7.1L197.7,456.3z"/>
	</g>
</g>
<g>
	<g>
		<path class="st2" d="M212.8,456.3l-10.9,15.9h6.3l11.2-15.8L208,439.1h-7L212.8,456.3z"/>
	</g>
</g>
<g>
	<g>
		<path class="st2" d="M228,456.3l-10.9,15.9h6.3l11.2-15.8l-11.4-17.3h-7.1L228,456.3z"/>
	</g>
</g>
<g>
	<g>
		<path class="st2" d="M243.1,456.3l-10.9,15.9h6.3l11.2-15.8l-11.4-17.3h-7.1L243.1,456.3z"/>
	</g>
</g>
<g>
	<g>
		<path class="st2" d="M258.3,456.3l-10.9,15.9h6.3l11.2-15.8l-11.4-17.3h-7.1L258.3,456.3z"/>
	</g>
</g>
<g>
	<g>
		<path class="st2" d="M273.4,456.3l-10.9,15.9h6.3l11.2-15.8l-11.4-17.3h-7.1L273.4,456.3z"/>
	</g>
</g>
<g>
	<g>
		<path class="st2" d="M288.5,456.3l-10.9,15.9h6.3l11.2-15.8l-11.4-17.3h-7.1L288.5,456.3z"/>
	</g>
</g>
<g>
	<g>
		<path class="st2" d="M303.7,456.3l-10.9,15.9h6.3l11.2-15.8L299,439.1h-7.1L303.7,456.3z"/>
	</g>
</g>
<g>
	<g>
		<path class="st2" d="M318.8,456.3l-10.9,15.9h6.3l11.2-15.8L314,439.1h-7L318.8,456.3z"/>
	</g>
</g>
<g>
	<g>
		<path class="st2" d="M334,456.3l-10.9,15.9h6.3l11.2-15.8l-11.4-17.3h-7.1L334,456.3z"/>
	</g>
</g>
<g>
	<g>
		<path class="st2" d="M349.1,456.3l-10.9,15.9h6.3l11.2-15.8l-11.4-17.3h-7.1L349.1,456.3z"/>
	</g>
</g>
<g>
	<g>
		<path class="st2" d="M364.3,456.3l-10.9,15.9h6.3l11.2-15.8l-11.4-17.3h-7.1L364.3,456.3z"/>
	</g>
</g>
<polygon points="84.5,489.5 60.3,459.3 60.3,264 84.5,233.9 "/>
<path class="st3" d="M137.9,308v24h-16v-63.8h43.8l8,8V300l-8,8h-5.9l13.9,24h-16l-13.9-24H137.9z M137.9,284.2v7.9h19.9v-7.9H137.9
	z"/>
<path class="st3" d="M203.5,290.1l-13.1,41.8H175l20-63.7h17.2l20,63.7h-15.5L203.5,290.1z"/>
<path class="st3" d="M235.9,331.9v-63.8h43.9l8,8v47.8l-8,8H235.9z M251.9,284.1v31.9h20v-31.9H251.9z"/>
<path class="st3" d="M311.5,268.2V332h-16v-63.8H311.5z"/>
<path class="st3" d="M341.9,290.1l-13.1,41.8h-15.5l20-63.7h17.2l20,63.7H355L341.9,290.1z"/>
<path class="st3" d="M381.7,284.2H363v-16h51.8v16h-17.3V332h-15.9V284.2z"/>
<path class="st3" d="M437.8,268.2V332h-16v-63.8H437.8z"/>
<path class="st3" d="M452.6,332l-8-8v-47.8l8-8h35.9l8,8V324l-8,8H452.6z M460.5,284.2V316h19.9v-31.9H460.5z"/>
<path class="st3" d="M504.1,268.2h14.6l25.2,43.2v-43.2h16V332h-18.6l-21.2-36.5V332h-16V268.2z"/>
<path class="st3" d="M130.4,365.1v26.8h20.2v9h-29.1v-35.8H130.4z"/>
<path class="st3" d="M153.8,400.9v-35.8h29.1v9h-20.1v4.5h20.1v9h-20.1v4.4h20.1v9H153.8z"/>
<path class="st3" d="M199.8,377.4l-7.4,23.5h-8.7l11.2-35.8h9.7l11.2,35.8h-8.7L199.8,377.4z"/>
<path class="st3" d="M219.8,365.1l7.1,22.6l7.1-22.6h9l-11.2,35.8h-9.7l-11.2-35.8H219.8z"/>
<path class="st3" d="M245.2,400.9v-35.8h29.1v9h-20.1v4.5h20.1v9h-20.1v4.4h20.1v9H245.2z"/>
<path class="st3" d="M302.7,374.1h-10.5v-9h29.1v9h-9.7v26.8h-8.9V374.1z"/>
<path class="st3" d="M334.2,387.5v13.5h-9v-35.8h9v13.4h11.2v-13.4h9v35.8h-9v-13.5H334.2z"/>
<path class="st3" d="M367.6,365.1v35.8h-9v-35.8H367.6z"/>
<path class="st3" d="M380.5,374.1v4.4h15.7l4.5,4.5v13.5l-4.5,4.5h-24.7v-9h20.2v-4.5H376l-4.5-4.5v-13.4l4.5-4.5h24.7v9H380.5z"/>
<path class="st3" d="M431.8,377.4l-7.4,23.5h-8.7l11.2-35.8h9.7l11.2,35.8h-8.7L431.8,377.4z"/>
<path class="st3" d="M458.9,387.5v13.5h-9v-35.8h24.6l4.5,4.5V383l-4.5,4.5h-3.3l7.8,13.5h-9l-7.8-13.5H458.9z M458.9,374.1v4.4
	h11.2v-4.4H458.9z"/>
<path class="st3" d="M482.9,400.9v-35.8H512v9h-20.1v4.5H512v9h-20.1v4.4H512v9H482.9z"/>
<path class="st3" d="M528.9,377.4l-7.4,23.5h-8.7l11.2-35.8h9.7l11.2,35.8h-8.7L528.9,377.4z"/>
<path class="st3" d="M556.8,365.1v24.6h-9v-24.6H556.8z M556.8,391.9v9h-9v-9H556.8z"/>
</svg>
