<?xml version="1.0" encoding="utf-8"?>
<!-- Generator: Adobe Illustrator 28.0.0, SVG Export Plug-In . SVG Version: 6.00 Build 0)  -->
<svg version="1.1" id="Layer_1" xmlns:xodm="http://www.corel.com/coreldraw/odm/2003"
	 xmlns="http://www.w3.org/2000/svg" xmlns:xlink="http://www.w3.org/1999/xlink" x="0px" y="0px" viewBox="0 0 720 720"
	 style="enable-background:new 0 0 720 720;" xml:space="preserve">
<style type="text/css">
	.st0{fill:#21B4F9;stroke:#21B4F9;stroke-miterlimit:10;}
	.st1{fill-rule:evenodd;clip-rule:evenodd;fill:#21B4F9;stroke:#21B4F9;stroke-miterlimit:10;}
</style>
<path class="st0" d="M231.7,412.6h-19.5v-96.2l-15.6,7.9v-20.4l17.2-9.6h17.8v118.3L231.7,412.6L231.7,412.6z"/>
<path class="st0" d="M265.7,404.9c-5.9-5.9-8.8-14.2-8.8-24.7v-53.8c0-10.6,3-18.9,8.9-24.8s14.5-8.8,25.7-8.8
	c11.3,0,19.9,2.9,25.8,8.8s8.8,14.1,8.8,24.8v53.8c0,10.6-3,18.9-8.9,24.8s-14.5,8.8-25.7,8.8C280.2,413.8,271.5,410.9,265.7,404.9z
	 M303,390.6c2.4-3.1,3.7-7.5,3.7-13.2v-48.1c0-5.7-1.2-10.2-3.7-13.2c-2.4-3.1-6.3-4.6-11.5-4.6s-9,1.5-11.5,4.6
	c-2.4,3.1-3.7,7.5-3.7,13.2v48.1c0,5.8,1.2,10.2,3.7,13.2s6.3,4.6,11.5,4.6S300.5,393.7,303,390.6z"/>
<path class="st0" d="M357.7,404.9c-5.9-5.9-8.8-14.2-8.8-24.7v-53.8c0-10.6,3-18.9,8.9-24.8s14.5-8.8,25.7-8.8
	c11.3,0,19.9,2.9,25.8,8.8s8.8,14.1,8.8,24.8v53.8c0,10.6-3,18.9-8.9,24.8s-14.5,8.8-25.7,8.8C372,413.8,363.5,410.9,357.7,404.9z
	 M394.9,390.6c2.4-3.1,3.7-7.5,3.7-13.2v-48.1c0-5.7-1.2-10.2-3.7-13.2c-2.4-3.1-6.3-4.6-11.5-4.6s-9,1.5-11.5,4.6
	c-2.4,3.1-3.7,7.5-3.7,13.2v48.1c0,5.8,1.2,10.2,3.7,13.2s6.3,4.6,11.5,4.6S392.4,393.7,394.9,390.6z"/>
<path class="st0" d="M435.7,345.9c-3.6-3.7-5.4-8.8-5.4-15.3v-10.2c0-6.6,1.8-11.7,5.4-15.3c3.6-3.6,8.6-5.5,15.1-5.5
	c6.6,0,11.6,1.8,15.2,5.5s5.3,8.8,5.3,15.5v10c0,6.6-1.8,11.7-5.4,15.4c-3.6,3.6-8.6,5.5-15.1,5.5
	C444.2,351.3,439.2,349.5,435.7,345.9z M503.2,300.7h17.3l-63,118.3h-17.4L503.2,300.7z M454.4,335c0.8-1,1.3-2.5,1.3-4.4v-10.5
	c0-1.8-0.4-3.2-1.3-4.2c-0.8-1-2-1.5-3.6-1.5s-2.8,0.5-3.6,1.5s-1.3,2.4-1.3,4.3v10.4c0,2,0.4,3.4,1.3,4.4c0.8,1,2,1.5,3.6,1.5
	C452.4,336.5,453.5,336,454.4,335z M494.5,414.7c-3.6-3.7-5.4-8.8-5.4-15.3v-10.2c0-6.6,1.8-11.7,5.4-15.3c3.6-3.7,8.6-5.5,15.1-5.5
	c6.6,0,11.6,1.8,15.2,5.5s5.3,8.8,5.3,15.5v10c0,6.6-1.8,11.7-5.4,15.4c-3.6,3.7-8.6,5.5-15.1,5.5C503,420.2,498,418.3,494.5,414.7z
	 M513.2,403.8c0.8-1,1.3-2.5,1.3-4.4v-10.5c0-1.8-0.4-3.2-1.3-4.2c-0.8-1-2-1.5-3.6-1.5s-2.8,0.5-3.6,1.5c-0.8,1-1.3,2.4-1.3,4.3
	v10.4c0,2,0.4,3.4,1.3,4.4c0.8,1,2,1.5,3.6,1.5C511.2,405.3,512.4,404.8,513.2,403.8z"/>
<path class="st1" d="M360,55.1C191.6,55.1,55.1,191.6,55.1,360S191.6,664.9,360,664.9S664.9,528.4,664.9,360S528.4,55.1,360,55.1z
	 M360,568.9c-115.4,0-208.9-93.5-208.9-208.9S244.6,151.1,360,151.1S568.9,244.6,568.9,360S475.4,568.9,360,568.9z"/>
</svg>
