<?xml version="1.0" encoding="utf-8"?>
<!-- Generator: Adobe Illustrator 28.0.0, SVG Export Plug-In . SVG Version: 6.00 Build 0)  -->
<svg version="1.1" id="Layer_1" xmlns:xodm="http://www.corel.com/coreldraw/odm/2003"
	 xmlns="http://www.w3.org/2000/svg" xmlns:xlink="http://www.w3.org/1999/xlink" x="0px" y="0px" viewBox="0 0 720 720"
	 style="enable-background:new 0 0 720 720;" xml:space="preserve">
<style type="text/css">
	.st0{fill:#C10C0C;}
	.st1{fill:none;}
	.st2{fill-rule:evenodd;clip-rule:evenodd;fill:#C10C0C;}
	.st3{fill-rule:evenodd;clip-rule:evenodd;fill:#FFFFFF;}
	.st4{fill:#FFFFFF;}
</style>
<g>
	<polygon points="667.6,253.4 667.6,470.1 625.7,512 527.3,512 446.4,431.2 59.8,431.2 59.8,253.4 423.8,253.4 409.3,267.9 
		416.2,274.8 437.5,253.4 454.5,253.4 440,267.9 446.9,274.8 468.2,253.4 485.2,253.4 470.7,267.9 477.6,274.8 499,253.4 
		515.9,253.4 501.4,267.9 508.3,274.8 529.7,253.4 546.7,253.4 532.2,267.9 539,274.8 560.4,253.4 577.4,253.4 562.9,267.9 
		569.7,274.8 591.1,253.4 608.1,253.4 593.6,267.9 600.5,274.8 621.8,253.4 	"/>
</g>
<g>
	<path d="M432.3,431.2"/>
</g>
<polygon class="st0" points="118.2,439.2 150.2,471.2 130.4,471.2 98.5,439.2 "/>
<polygon class="st0" points="180.9,471.2 163.9,471.2 132,439.2 148.9,439.2 "/>
<polygon class="st0" points="179.7,439.2 211.6,471.2 194.7,471.2 162.7,439.2 "/>
<polygon class="st0" points="210.4,439.2 242.4,471.2 225.4,471.2 193.4,439.2 "/>
<polygon class="st0" points="241.1,439.2 273.1,471.2 256.1,471.2 224.1,439.2 "/>
<polygon class="st0" points="271.8,439.2 303.8,471.2 286.8,471.2 254.8,439.2 "/>
<polygon class="st0" points="514.6,512 477.5,512 436.7,471.2 317.5,471.2 285.5,439.2 441.8,439.2 "/>
<polygon class="st0" points="360.8,214.3 59.8,212.9 59.8,253.6 400.9,253.6 "/>
<path class="st1" d="M413.8,258.1"/>
<path class="st2" d="M207.8,410.5H89.7c-4.3,0-7.8-3.5-7.8-7.8V284.5c0-4.3,3.5-7.8,7.8-7.8h118.2c4.3,0,7.8,3.5,7.8,7.8v118.1
	C215.6,407,212.1,410.5,207.8,410.5z"/>
<path class="st3" d="M86.1,284.5v118.3c0,1.9,1.6,3.5,3.5,3.5h118.3c1.9,0,3.5-1.6,3.5-3.5V284.5c0-1.9-1.6-3.5-3.5-3.5H89.6
	C87.7,281,86.1,282.5,86.1,284.5z M207.6,405.2H89.9c-1.5,0-2.7-1.2-2.7-2.7V284.7c0-1.5,1.2-2.7,2.7-2.7h117.8
	c1.5,0,2.7,1.2,2.7,2.7v117.8C210.3,404,209.1,405.2,207.6,405.2z"/>
<path class="st3" d="M162.5,361.5c4.8-6.8,8.7-15.6,10.5-21.7l0,0c0.1,0.1,0.2,0.2,0.4,0.2h2.7c0.2,0,0.4-0.2,0.5-0.4l1.8-8.2
	c0-0.2,0-0.3-0.1-0.4s-0.2-0.2-0.4-0.2l-3.5,0.1c0.6-13.4-4.9-26.1-19.1-30.9c-4.5-1.5-10.4-1.5-14.9,0.5
	c-13,5.8-18.2,17.5-17.5,30.3l-3-0.1c-0.2,0-0.3,0.1-0.4,0.2s-0.1,0.3-0.1,0.4l1.8,8.2c0,0.2,0.2,0.4,0.5,0.4h2.7c0.1,0,0.1,0,0.2,0
	c2.1,6.6,5.9,15.2,10.5,21.8c-0.9,1.9-1.4,4-1.4,6.2c0,5.8,3.3,10.9,8.2,13.4v3h-1.2v2.3c0,0.2,0.7,0.4,1,0.5c1.6,0.6,4.1,0.9,7,0.9
	c3.1,0,5.9-0.4,7.4-1.1c0.1,0,0.6-0.2,0.6-0.4v-2.3h-1.1v-2.9c4.9-2.5,8.3-7.6,8.3-13.5C164,365.7,163.5,363.5,162.5,361.5
	L162.5,361.5z M161.8,324.5c6.1,0,11.1,5,11.1,11.1s-5,11.1-11.1,11.1s-11.1-5-11.1-11.1S155.7,324.5,161.8,324.5z M161.8,325.7
	c5.5,0,9.9,4.5,9.9,9.9c0,5.5-4.5,9.9-9.9,9.9s-9.9-4.5-9.9-9.9C151.9,330.1,156.3,325.7,161.8,325.7L161.8,325.7z M161.8,328.2
	c4.1,0,7.5,3.3,7.5,7.5c0,4.1-3.3,7.5-7.5,7.5s-7.5-3.3-7.5-7.5C154.4,331.5,157.7,328.2,161.8,328.2L161.8,328.2z M135.9,324.5
	c-6.1,0-11.1,5-11.1,11.1s5,11.1,11.1,11.1s11.1-5,11.1-11.1S142,324.5,135.9,324.5L135.9,324.5z M135.9,325.7
	c-5.5,0-9.9,4.5-9.9,9.9c0,5.5,4.5,9.9,9.9,9.9c5.5,0,9.9-4.5,9.9-9.9C145.8,330.1,141.4,325.7,135.9,325.7z M135.9,327.3
	c-4.6,0-8.3,3.7-8.3,8.3c0,4.6,3.7,8.3,8.3,8.3s8.3-3.7,8.3-8.3S140.5,327.3,135.9,327.3z"/>
<path class="st3" d="M131.1,363.9c-0.5,0.4-0.9,0.5-1.6,0.9c0.4,0.8,1.8,4.8,2,5.7c0.2,0.8,0.5,2.7,0,3.6c-0.7,1.2-4.3,2.5-5.8,3.5
	c-2.6,1.6-5.4,3-5.7,2.9c-0.2,0-0.4,0-0.7-0.1c-1.2-0.4-5.5-5.7-8.6-11.4c-3-5.6-4.9-11.7-4.6-12.8c0.1-0.3,0.2-0.5,0.3-0.6
	c0.2-0.2,2.8-1.8,5.5-3.2c1.6-0.8,4.7-3.1,6-3c1.1,0,2.4,1.3,3,1.9c0.7,0.7,3.3,4,3.7,4.8c0.8-0.4,1.1-0.6,1.7-0.9
	c-0.4-1-0.8-2,0.4-2.9c0.5-0.4,1-0.5,1.9-0.2c4.9,1.4,7.8,6.7,6.4,11.7c-0.2,0.8-0.6,1.2-1.2,1.4
	C132.4,365.6,131.8,364.8,131.1,363.9L131.1,363.9z M132.5,357.5c1.2,2.3,1.4,4.7,0.8,6.7l-5.9-10.9v-0.1
	C129.3,353.8,131.3,355.3,132.5,357.5L132.5,357.5z"/>
<path class="st3" d="M166.4,363.9c0.5,0.4,0.9,0.5,1.6,0.9c-0.4,0.8-1.8,4.8-2,5.7c-0.2,0.8-0.5,2.7,0,3.6c0.7,1.2,4.3,2.5,5.8,3.5
	c2.6,1.6,5.4,3,5.7,2.9c0.2,0,0.4,0,0.7-0.1c1.2-0.4,5.5-5.7,8.6-11.4c3-5.6,4.9-11.7,4.6-12.8c-0.1-0.3-0.2-0.5-0.3-0.6
	c-0.2-0.2-2.8-1.8-5.5-3.2c-1.6-0.8-4.7-3.1-6-3c-1.1,0-2.4,1.3-3,1.9c-0.7,0.7-3.3,4-3.7,4.8c-0.8-0.4-1.1-0.6-1.7-0.9
	c0.4-1,0.8-2-0.4-2.9c-0.5-0.4-1-0.5-1.9-0.2c-4.9,1.4-7.8,6.7-6.4,11.7c0.2,0.8,0.6,1.2,1.2,1.4
	C165.1,365.6,165.7,364.8,166.4,363.9L166.4,363.9z M165,357.5c-1.2,2.3-1.4,4.7-0.8,6.7l5.9-10.9v-0.1
	C168.1,353.8,166.2,355.3,165,357.5L165,357.5z"/>
<path class="st2" d="M148.9,358c2.4,0,4.6,0.8,6.4,2.3l-3.9,3.9c-0.7-0.5-1.6-0.7-2.5-0.7c-1,0-1.8,0.3-2.6,0.8l-3.9-3.9
	C144.2,358.9,146.4,358,148.9,358L148.9,358z M156.7,361.7c1.2,1.5,2,3.4,2.2,5.4h-5.5c-0.1-0.6-0.4-1.1-0.6-1.6L156.7,361.7
	L156.7,361.7z M144.3,367.1h-5.5c0.2-2,1-3.9,2.2-5.3l3.9,3.9C144.6,366.1,144.4,366.6,144.3,367.1z M159,369.2
	c-0.2,2-1,3.9-2.3,5.4l-3.9-3.9c0.3-0.5,0.5-1,0.6-1.6L159,369.2L159,369.2z M155.3,376c-1.7,1.4-3.9,2.3-6.4,2.3
	c-2.4,0-4.7-0.9-6.4-2.3l3.9-3.9c0.7,0.5,1.6,0.8,2.6,0.8c0.9,0,1.8-0.3,2.5-0.7L155.3,376L155.3,376z M141,374.5
	c-1.2-1.5-2-3.3-2.2-5.3h5.5c0.1,0.5,0.3,1,0.6,1.5L141,374.5L141,374.5z"/>
<circle class="st2" cx="148.9" cy="368.1" r="3"/>
<path class="st4" d="M267.7,338.8l-7.2,23H252l11-35h9.5l11,35H275L267.7,338.8z"/>
<path class="st4" d="M289.4,361.8l-4.4-4.4v-26.3l4.4-4.4h19.7l4.4,4.4v8.8h-8.8v-4.4h-11V353h11v-4.4h8.8v8.8l-4.4,4.4H289.4z"/>
<path class="st4" d="M326.6,326.7V353h10.9v-26.3h8.8v30.7l-4.4,4.4h-19.7l-4.4-4.4v-30.7H326.6z"/>
<path class="st4" d="M360.2,335.5H350v-8.8h28.5v8.8H369v26.3h-8.7L360.2,335.5L360.2,335.5z"/>
<path class="st4" d="M382.3,361.8v-35.1h28.5v8.8H391v4.4h19.7v8.8H391v4.3h19.7v8.8L382.3,361.8L382.3,361.8z"/>
<path class="st4" d="M423.5,326.7V353h19.8v8.8h-28.5v-35.1L423.5,326.7L423.5,326.7z"/>
<path class="st4" d="M447.9,344.2l-11-17.5h8.8l6.6,10.5l6.2-10.5h8.5l-10.2,17.5v17.6H448v-17.6H447.9z"/>
<path class="st4" d="M492.6,335.5h-10.2v-8.8h28.5v8.8h-9.5v26.3h-8.7L492.6,335.5L492.6,335.5z"/>
<path class="st4" d="M518.6,361.8l-4.4-4.4v-26.3l4.4-4.4h19.7l4.4,4.4v26.3l-4.4,4.4H518.6z M523,335.5V353h10.9v-17.5H523z"/>
<path class="st4" d="M555.7,326.7l5.5,8.8l5.5-8.8h11l-11,17.5l11,17.6h-10.2l-5.9-9.3l-5.8,9.3h-11l11.3-18.1l-10.6-16.9h10.2
	V326.7z"/>
<path class="st4" d="M588.5,326.7v35.1h-8.8v-35.1H588.5z"/>
<path class="st4" d="M596.6,361.8l-4.4-4.4v-26.3l4.4-4.4h19.8l4.4,4.4v8.8H612v-4.4h-11V353h11v-4.4h8.8v8.8l-4.4,4.4H596.6z"/>
</svg>
