<?xml version="1.0" encoding="utf-8"?>
<!-- Generator: Adobe Illustrator 28.0.0, SVG Export Plug-In . SVG Version: 6.00 Build 0)  -->
<svg version="1.1" id="Layer_1" xmlns:xodm="http://www.corel.com/coreldraw/odm/2003"
	 xmlns="http://www.w3.org/2000/svg" xmlns:xlink="http://www.w3.org/1999/xlink" x="0px" y="0px" viewBox="0 0 720 720"
	 style="enable-background:new 0 0 720 720;" xml:space="preserve">
<style type="text/css">
	.st0{fill:#F6B24A;}
</style>
<g>
	<path class="st0" d="M668.6,372.3H48.7c-5.9,0-10.7-4.8-10.7-10.7v-42.8c0-5.9,4.8-10.7,10.7-10.7h619.9c5.9,0,10.7,4.8,10.7,10.7
		v42.8C679.3,367.5,674.5,372.3,668.6,372.3z M48.7,313.3c-3,0-5.5,2.5-5.5,5.5v42.8c0,3,2.5,5.5,5.5,5.5h619.9c3,0,5.5-2.5,5.5-5.5
		v-42.8c0-3-2.5-5.5-5.5-5.5H48.7z"/>
</g>
<g>
	<g>
		<rect x="46" y="314.7" class="st0" width="8.6" height="51"/>
	</g>
</g>
<g>
	<g>
		<rect x="56.5" y="314.7" class="st0" width="8.6" height="51"/>
	</g>
</g>
<g>
	<g>
		<rect x="66.9" y="314.7" class="st0" width="8.6" height="51"/>
	</g>
</g>
<g>
	<g>
		<rect x="77.4" y="314.7" class="st0" width="8.6" height="51"/>
	</g>
</g>
<g>
	<g>
		<rect x="87.8" y="314.7" class="st0" width="8.6" height="51"/>
	</g>
</g>
<g>
	<g>
		<rect x="98.3" y="314.7" class="st0" width="8.6" height="51"/>
	</g>
</g>
<g>
	<g>
		<rect x="108.7" y="314.7" class="st0" width="8.6" height="51"/>
	</g>
</g>
<g>
	<g>
		<rect x="119.2" y="314.7" class="st0" width="8.6" height="51"/>
	</g>
</g>
<g>
	<g>
		<rect x="129.6" y="314.7" class="st0" width="8.6" height="51"/>
	</g>
</g>
<g>
	<g>
		<rect x="140.1" y="314.7" class="st0" width="8.6" height="51"/>
	</g>
</g>
<g>
	<g>
		<rect x="150.5" y="314.7" class="st0" width="8.6" height="51"/>
	</g>
</g>
<g>
	<g>
		<rect x="161" y="314.7" class="st0" width="8.6" height="51"/>
	</g>
</g>
<g>
	<g>
		<rect x="171.4" y="314.7" class="st0" width="8.6" height="51"/>
	</g>
</g>
<g>
	<g>
		<rect x="181.9" y="314.7" class="st0" width="8.6" height="51"/>
	</g>
</g>
<g>
	<g>
		<rect x="192.3" y="314.7" class="st0" width="8.6" height="51"/>
	</g>
</g>
<g>
	<g>
		<rect x="202.8" y="314.7" class="st0" width="8.6" height="51"/>
	</g>
</g>
<g>
	<g>
		<rect x="213.2" y="314.7" class="st0" width="8.6" height="51"/>
	</g>
</g>
<g>
	<g>
		<rect x="223.7" y="314.7" class="st0" width="8.6" height="51"/>
	</g>
</g>
<g>
	<g>
		<rect x="234.1" y="314.7" class="st0" width="8.6" height="51"/>
	</g>
</g>
<g>
	<g>
		<rect x="244.6" y="314.7" class="st0" width="8.6" height="51"/>
	</g>
</g>
<g>
	<g>
		<rect x="255" y="314.7" class="st0" width="8.6" height="51"/>
	</g>
</g>
<g>
	<g>
		<rect x="265.4" y="314.7" class="st0" width="8.6" height="51"/>
	</g>
</g>
<g>
	<g>
		<rect x="275.9" y="314.7" class="st0" width="8.6" height="51"/>
	</g>
</g>
<g>
	<g>
		<rect x="286.3" y="314.7" class="st0" width="8.6" height="51"/>
	</g>
</g>
<g>
	<g>
		<rect x="296.8" y="314.7" class="st0" width="8.6" height="51"/>
	</g>
</g>
<g>
	<g>
		<rect x="307.2" y="314.7" class="st0" width="8.6" height="51"/>
	</g>
</g>
<g>
	<g>
		<rect x="317.7" y="314.7" class="st0" width="8.6" height="51"/>
	</g>
</g>
<g>
	<g>
		<rect x="328.1" y="314.7" class="st0" width="8.6" height="51"/>
	</g>
</g>
<g>
	<g>
		<rect x="338.6" y="314.7" class="st0" width="8.6" height="51"/>
	</g>
</g>
<g>
	<g>
		<rect x="349" y="314.7" class="st0" width="8.6" height="51"/>
	</g>
</g>
<g>
	<g>
		<rect x="359.5" y="314.7" class="st0" width="8.6" height="51"/>
	</g>
</g>
<g>
	<g>
		<rect x="369.9" y="314.7" class="st0" width="8.6" height="51"/>
	</g>
</g>
<g>
	<g>
		<rect x="380.4" y="314.7" class="st0" width="8.6" height="51"/>
	</g>
</g>
<g>
	<g>
		<rect x="390.8" y="314.7" class="st0" width="8.6" height="51"/>
	</g>
</g>
<g>
	<g>
		<rect x="401.3" y="314.7" class="st0" width="8.6" height="51"/>
	</g>
</g>
<g>
	<g>
		<rect x="411.7" y="314.7" class="st0" width="8.6" height="51"/>
	</g>
</g>
<g>
	<g>
		<rect x="422.2" y="314.7" class="st0" width="8.6" height="51"/>
	</g>
</g>
<g>
	<g>
		<rect x="432.6" y="314.7" class="st0" width="8.6" height="51"/>
	</g>
</g>
<g>
	<g>
		<rect x="443.1" y="314.7" class="st0" width="8.6" height="51"/>
	</g>
</g>
<g>
	<g>
		<rect x="453.5" y="314.7" class="st0" width="8.6" height="51"/>
	</g>
</g>
<g>
	<g>
		<rect x="464" y="314.7" class="st0" width="8.6" height="51"/>
	</g>
</g>
<g>
	<g>
		<rect x="474.4" y="314.7" class="st0" width="8.6" height="51"/>
	</g>
</g>
<g>
	<g>
		<rect x="484.9" y="314.7" class="st0" width="8.6" height="51"/>
	</g>
</g>
<g>
	<g>
		<rect x="495.3" y="314.7" class="st0" width="8.6" height="51"/>
	</g>
</g>
<g>
	<g>
		<rect x="505.8" y="314.7" class="st0" width="8.6" height="51"/>
	</g>
</g>
<g>
	<g>
		<rect x="516.2" y="314.7" class="st0" width="8.6" height="51"/>
	</g>
</g>
<g>
	<g>
		<rect x="526.7" y="314.7" class="st0" width="8.6" height="51"/>
	</g>
</g>
<g>
	<g>
		<rect x="537.1" y="314.7" class="st0" width="8.6" height="51"/>
	</g>
</g>
<g>
	<g>
		<rect x="547.6" y="314.7" class="st0" width="8.6" height="51"/>
	</g>
</g>
<g>
	<g>
		<rect x="558" y="314.7" class="st0" width="8.6" height="51"/>
	</g>
</g>
<g>
	<g>
		<rect x="568.5" y="314.7" class="st0" width="8.6" height="51"/>
	</g>
</g>
<g>
	<g>
		<rect x="578.9" y="314.7" class="st0" width="8.6" height="51"/>
	</g>
</g>
<g>
	<g>
		<rect x="589.4" y="314.7" class="st0" width="8.6" height="51"/>
	</g>
</g>
<g>
	<g>
		<rect x="599.8" y="314.7" class="st0" width="8.6" height="51"/>
	</g>
</g>
<g>
	<g>
		<rect x="610.3" y="314.7" class="st0" width="8.6" height="51"/>
	</g>
</g>
<g>
	<g>
		<rect x="620.7" y="314.7" class="st0" width="8.6" height="51"/>
	</g>
</g>
<g>
	<g>
		<rect x="631.2" y="314.7" class="st0" width="8.6" height="51"/>
	</g>
</g>
<g>
	<g>
		<rect x="641.6" y="314.7" class="st0" width="8.6" height="51"/>
	</g>
</g>
<g>
	<g>
		<rect x="652.1" y="314.7" class="st0" width="8.6" height="51"/>
	</g>
</g>
<g>
	<g>
		<rect x="662.6" y="314.7" class="st0" width="8.6" height="51"/>
	</g>
</g>
<path class="st0" d="M335.9,300.7h2.5v-14.8l-2.7,2.4l-1.4-1.7l4.9-5.1h2.5l0,0l0,0v19.2h2.5v2.5h-8.3V300.7z"/>
<path class="st0" d="M345.8,287.7c0-1,0.1-1.8,0.3-2.5c0.2-0.7,0.4-1.3,0.7-1.7c0.3-0.5,0.6-0.9,1-1.1c0.4-0.3,0.8-0.5,1.2-0.7
	c0.4-0.2,0.8-0.3,1.2-0.3c0.4-0.1,0.8-0.1,1.1-0.1c0.3,0,0.7,0,1.1,0.1c0.4,0,0.8,0.1,1.2,0.3c0.4,0.1,0.8,0.4,1.1,0.6
	c0.4,0.3,0.7,0.7,1,1.1c0.3,0.5,0.5,1.1,0.7,1.8c0.2,0.7,0.3,1.5,0.3,2.5v9.2c0,1-0.1,1.8-0.3,2.5c-0.2,0.7-0.4,1.3-0.7,1.8
	c-0.3,0.5-0.6,0.9-1,1.2s-0.8,0.5-1.1,0.7c-0.4,0.2-0.8,0.3-1.2,0.3c-0.4,0.1-0.7,0.1-1,0.1c-0.3,0-0.7,0-1.1-0.1
	c-0.4-0.1-0.8-0.2-1.2-0.3c-0.4-0.2-0.8-0.4-1.2-0.7c-0.4-0.3-0.7-0.7-1-1.2s-0.5-1.1-0.7-1.8c-0.2-0.7-0.3-1.5-0.3-2.5V287.7z
	 M349.2,298.2c0,0.9,0.2,1.6,0.5,2c0.3,0.4,0.8,0.6,1.5,0.6c0.7,0,1.1-0.2,1.5-0.6c0.3-0.4,0.5-1.1,0.5-2v-11.8c0-1-0.2-1.6-0.5-2.1
	c-0.3-0.4-0.8-0.6-1.5-0.6c-0.7,0-1.2,0.2-1.5,0.6c-0.3,0.4-0.5,1.1-0.5,2.1V298.2z"/>
<path class="st0" d="M359.2,287.7c0-1,0.1-1.8,0.3-2.5c0.2-0.7,0.4-1.3,0.7-1.7c0.3-0.5,0.6-0.9,1-1.1c0.4-0.3,0.8-0.5,1.2-0.7
	c0.4-0.2,0.8-0.3,1.2-0.3c0.4-0.1,0.8-0.1,1.1-0.1c0.3,0,0.7,0,1.1,0.1c0.4,0,0.8,0.1,1.2,0.3c0.4,0.1,0.8,0.4,1.1,0.6
	c0.4,0.3,0.7,0.7,1,1.1c0.3,0.5,0.5,1.1,0.7,1.8c0.2,0.7,0.3,1.5,0.3,2.5v9.2c0,1-0.1,1.8-0.3,2.5c-0.2,0.7-0.4,1.3-0.7,1.8
	c-0.3,0.5-0.6,0.9-1,1.2c-0.4,0.3-0.8,0.5-1.1,0.7c-0.4,0.2-0.8,0.3-1.2,0.3c-0.4,0.1-0.7,0.1-1,0.1c-0.3,0-0.7,0-1.1-0.1
	c-0.4-0.1-0.8-0.2-1.2-0.3c-0.4-0.2-0.8-0.4-1.2-0.7c-0.4-0.3-0.7-0.7-1-1.2c-0.3-0.5-0.5-1.1-0.7-1.8c-0.2-0.7-0.3-1.5-0.3-2.5
	V287.7z M362.5,298.2c0,0.9,0.2,1.6,0.5,2c0.3,0.4,0.8,0.6,1.5,0.6c0.7,0,1.1-0.2,1.5-0.6c0.3-0.4,0.5-1.1,0.5-2v-11.8
	c0-1-0.2-1.6-0.5-2.1c-0.3-0.4-0.8-0.6-1.5-0.6c-0.7,0-1.2,0.2-1.5,0.6c-0.3,0.4-0.5,1.1-0.5,2.1V298.2z"/>
<path class="st0" d="M377.2,293.2c-0.5,0-1-0.1-1.5-0.2c-0.5-0.1-0.9-0.4-1.3-0.8c-0.4-0.4-0.7-1-1-1.7c-0.2-0.7-0.4-1.7-0.4-2.9
	v-1.4c0-0.8,0.1-1.4,0.2-2c0.1-0.6,0.3-1,0.5-1.4c0.2-0.4,0.4-0.7,0.7-1c0.3-0.2,0.6-0.4,0.9-0.6c0.3-0.1,0.6-0.2,0.9-0.3
	c0.3-0.1,0.6-0.1,0.9-0.1c0.3,0,0.6,0,0.9,0.1c0.3,0,0.6,0.1,0.9,0.3c0.3,0.1,0.6,0.3,0.9,0.6c0.3,0.2,0.5,0.6,0.7,1
	c0.2,0.4,0.4,0.9,0.5,1.5s0.2,1.2,0.2,2v1.4c0,1.2-0.1,2.1-0.4,2.8c-0.3,0.7-0.6,1.3-1,1.7c-0.4,0.4-0.8,0.7-1.3,0.8
	C378.1,293.1,377.7,293.2,377.2,293.2z M377.3,291.2c0.5,0,0.9-0.2,1.1-0.7c0.2-0.5,0.3-1.2,0.3-2.2v-2.5c0-1-0.1-1.7-0.3-2.2
	c-0.2-0.5-0.6-0.7-1.1-0.7c-0.6,0-1,0.2-1.2,0.7c-0.2,0.5-0.3,1.2-0.3,2.2v2.5c0,1,0.1,1.7,0.3,2.2
	C376.3,290.9,376.7,291.2,377.3,291.2z M385,281.2h2.3l-5.8,22h-2.3L385,281.2z M385,296.5c0-1.2,0.1-2.1,0.4-2.8
	c0.3-0.7,0.6-1.2,1-1.6c0.4-0.4,0.8-0.6,1.3-0.8c0.5-0.1,1-0.2,1.4-0.2c0.3,0,0.6,0,0.9,0.1c0.3,0,0.6,0.1,0.9,0.3
	c0.3,0.1,0.6,0.3,0.9,0.6c0.3,0.2,0.5,0.6,0.7,1c0.2,0.4,0.4,0.9,0.5,1.5c0.1,0.6,0.2,1.2,0.2,2v1.4c0,0.8-0.1,1.5-0.2,2
	c-0.1,0.6-0.3,1.1-0.5,1.5c-0.2,0.4-0.4,0.7-0.7,1c-0.3,0.3-0.6,0.5-0.9,0.6c-0.3,0.2-0.6,0.3-0.9,0.3c-0.3,0.1-0.6,0.1-0.9,0.1
	c-0.3,0-0.6,0-1-0.1c-0.3-0.1-0.6-0.2-0.9-0.3c-0.3-0.1-0.6-0.3-0.9-0.6c-0.3-0.3-0.5-0.6-0.7-1c-0.2-0.4-0.4-0.9-0.5-1.5
	c-0.1-0.6-0.2-1.3-0.2-2.1V296.5z M387.6,298.5c0,1,0.1,1.7,0.3,2.2c0.2,0.5,0.6,0.7,1.2,0.7c0.5,0,0.9-0.2,1.1-0.7
	c0.2-0.5,0.3-1.2,0.3-2.2V296c0-1-0.1-1.7-0.3-2.2c-0.2-0.5-0.6-0.7-1.1-0.7c-0.6,0-1,0.2-1.2,0.7c-0.2,0.5-0.3,1.2-0.3,2.2V298.5z"
	/>
</svg>
