<?xml version="1.0" encoding="utf-8"?>
<!-- Generator: Adobe Illustrator 28.0.0, SVG Export Plug-In . SVG Version: 6.00 Build 0)  -->
<svg version="1.1" id="Layer_1" xmlns:xodm="http://www.corel.com/coreldraw/odm/2003"
	 xmlns="http://www.w3.org/2000/svg" xmlns:xlink="http://www.w3.org/1999/xlink" x="0px" y="0px" viewBox="0 0 720 720"
	 style="enable-background:new 0 0 720 720;" xml:space="preserve">
<style type="text/css">
	.st0{fill:none;stroke:#FFFFFF;stroke-width:1.019;stroke-miterlimit:10;}
	.st1{fill:none;}
	.st2{fill:#C10C0C;}
	.st3{fill:#FFFFFF;}
</style>
<polyline points="570.1,233.9 664,373.7 664.8,434 622.4,487.8 92,487.8 92,233.9 "/>
<line class="st0" x1="648.2" y1="427.2" x2="107.5" y2="427.2"/>
<g>
	<path d="M82.9,204.1"/>
	<path d="M82.9,515.9"/>
	<line class="st1" x1="167.2" y1="487.8" x2="168.8" y2="487.8"/>
	<path d="M84.5,514.3"/>
	<path d="M84.5,205.7"/>
	<path d="M168.7,233.9"/>
</g>
<g>
	<g>
		<path class="st2" d="M378.8,456.3l-10.9,15.9h6.3l11.2-15.8L374,439.1h-7L378.8,456.3z"/>
	</g>
</g>
<g>
	<g>
		<path class="st2" d="M393.9,456.3L383,472.2h6.3l11.2-15.8l-11.4-17.3H382L393.9,456.3z"/>
	</g>
</g>
<g>
	<g>
		<path class="st2" d="M409.1,456.3l-10.9,15.9h6.3l11.2-15.8l-11.4-17.3h-7.1L409.1,456.3z"/>
	</g>
</g>
<g>
	<g>
		<path class="st2" d="M424.2,456.3l-10.9,15.9h6.3l11.2-15.8l-11.4-17.3h-7.1L424.2,456.3z"/>
	</g>
</g>
<g>
	<g>
		<path class="st2" d="M439.4,456.3l-10.9,15.9h6.3l11.2-15.8l-11.4-17.3h-7.1L439.4,456.3z"/>
	</g>
</g>
<g>
	<g>
		<path class="st2" d="M454.5,456.3l-10.9,15.9h6.3l11.2-15.8l-11.4-17.3h-7.1L454.5,456.3z"/>
	</g>
</g>
<g>
	<g>
		<path class="st2" d="M469.7,456.3l-10.9,15.9h6.3l11.2-15.8l-11.4-17.3h-7.1L469.7,456.3z"/>
	</g>
</g>
<g>
	<g>
		<path class="st2" d="M484.8,456.3l-10.9,15.9h6.3l11.2-15.8L480,439.1h-7L484.8,456.3z"/>
	</g>
</g>
<g>
	<g>
		<path class="st2" d="M500,456.3l-10.9,15.9h6.3l11.2-15.8l-11.4-17.3h-7.1L500,456.3z"/>
	</g>
</g>
<g>
	<g>
		<path class="st2" d="M515.1,456.3l-10.9,15.9h6.3l11.2-15.8l-11.4-17.3h-7.1L515.1,456.3z"/>
	</g>
</g>
<g>
	<g>
		<path class="st2" d="M530.3,456.3l-10.9,15.9h6.3l11.2-15.8l-11.4-17.3h-7.1L530.3,456.3z"/>
	</g>
</g>
<g>
	<g>
		<path class="st2" d="M545.4,456.3l-10.9,15.9h6.3l11.2-15.8l-11.4-17.3h-7.1L545.4,456.3z"/>
	</g>
</g>
<g>
	<g>
		<path class="st2" d="M560.6,456.3l-10.9,15.9h6.3l11.2-15.8l-11.4-17.3h-7.1L560.6,456.3z"/>
	</g>
</g>
<g>
	<g>
		<path class="st2" d="M575.7,456.3l-10.9,15.9h6.3l11.2-15.8L571,439.1h-7.1L575.7,456.3z"/>
	</g>
</g>
<g>
	<g>
		<path class="st2" d="M590.9,456.3L580,472.2h6.3l11.2-15.8l-11.4-17.3H579L590.9,456.3z"/>
	</g>
</g>
<g>
	<g>
		<path class="st2" d="M606,456.3l-10.9,15.9h6.3l11.2-15.8l-11.4-17.3h-7.1L606,456.3z"/>
	</g>
</g>
<g>
	<g>
		<path class="st2" d="M137.1,456.3l-10.9,15.9h6.3l11.2-15.8l-11.4-17.3h-7.1L137.1,456.3z"/>
	</g>
</g>
<g>
	<g>
		<path class="st2" d="M152.2,456.3l-10.9,15.9h6.3l11.2-15.8l-11.4-17.3h-7.1L152.2,456.3z"/>
	</g>
</g>
<g>
	<g>
		<path class="st2" d="M167.4,456.3l-10.9,15.9h6.3l11.2-15.8l-11.4-17.3h-7.1L167.4,456.3z"/>
	</g>
</g>
<g>
	<g>
		<path class="st2" d="M182.5,456.3l-10.9,15.9h6.3l11.2-15.8l-11.4-17.3h-7.1L182.5,456.3z"/>
	</g>
</g>
<g>
	<g>
		<path class="st2" d="M197.7,456.3l-10.9,15.9h6.3l11.2-15.8l-11.4-17.3h-7.1L197.7,456.3z"/>
	</g>
</g>
<g>
	<g>
		<path class="st2" d="M212.8,456.3l-10.9,15.9h6.3l11.2-15.8L208,439.1h-7L212.8,456.3z"/>
	</g>
</g>
<g>
	<g>
		<path class="st2" d="M228,456.3l-10.9,15.9h6.3l11.2-15.8l-11.4-17.3h-7.1L228,456.3z"/>
	</g>
</g>
<g>
	<g>
		<path class="st2" d="M243.1,456.3l-10.9,15.9h6.3l11.2-15.8l-11.4-17.3h-7.1L243.1,456.3z"/>
	</g>
</g>
<g>
	<g>
		<path class="st2" d="M258.3,456.3l-10.9,15.9h6.3l11.2-15.8l-11.4-17.3h-7.1L258.3,456.3z"/>
	</g>
</g>
<g>
	<g>
		<path class="st2" d="M273.4,456.3l-10.9,15.9h6.3l11.2-15.8l-11.4-17.3h-7.1L273.4,456.3z"/>
	</g>
</g>
<g>
	<g>
		<path class="st2" d="M288.5,456.3l-10.9,15.9h6.3l11.2-15.8l-11.4-17.3h-7.1L288.5,456.3z"/>
	</g>
</g>
<g>
	<g>
		<path class="st2" d="M303.7,456.3l-10.9,15.9h6.3l11.2-15.8L299,439.1h-7.1L303.7,456.3z"/>
	</g>
</g>
<g>
	<g>
		<path class="st2" d="M318.8,456.3l-10.9,15.9h6.3l11.2-15.8L314,439.1h-7L318.8,456.3z"/>
	</g>
</g>
<g>
	<g>
		<path class="st2" d="M334,456.3l-10.9,15.9h6.3l11.2-15.8l-11.4-17.3h-7.1L334,456.3z"/>
	</g>
</g>
<g>
	<g>
		<path class="st2" d="M349.1,456.3l-10.9,15.9h6.3l11.2-15.8l-11.4-17.3h-7.1L349.1,456.3z"/>
	</g>
</g>
<g>
	<g>
		<path class="st2" d="M364.3,456.3l-10.9,15.9h6.3l11.2-15.8l-11.4-17.3h-7.1L364.3,456.3z"/>
	</g>
</g>
<polygon points="84.5,489.5 60.3,459.3 60.3,264 84.5,233.9 "/>
<path class="st3" d="M133.3,335.7v-68.9h47.4l8.6,8.6v17.2l-8.6,8.6l8.6,8.6v17.1l-8.6,8.6H133.3z M150.5,284.1v8.6h21.6v-8.6H150.5
	z M150.5,309.9v8.5h21.6v-8.5H150.5z"/>
<path class="st3" d="M222.3,290.6l-14.2,45.1h-16.7l21.6-68.8h18.6l21.6,68.8h-16.7L222.3,290.6z"/>
<path class="st3" d="M265.2,284.2H245v-17.2h56v17.2h-18.7v51.6h-17.1V284.2z"/>
<path class="st3" d="M327.6,284.2h-20.1v-17.2h56v17.2h-18.7v51.6h-17.1V284.2z"/>
<path class="st3" d="M371,335.8v-68.9h56v17.2h-38.7v8.6h38.7V310h-38.7v8.5h38.7v17.2H371z"/>
<path class="st3" d="M452,309.9v25.9h-17.2v-68.9h47.3l8.6,8.6v25.8l-8.6,8.6h-6.4l15,25.9h-17.2l-15-25.9H452z M452,284.2v8.5h21.5
	v-8.5H452z"/>
<path class="st3" d="M515,301.3l-21.6-34.4h17.2l12.9,20.6l12.1-20.6h16.7l-20.1,34.4v34.5H515V301.3z"/>
<path class="st3" d="M135.3,401.7l-4.9-4.9v-29.3l4.9-4.9h22.1l4.9,4.9v9.8h-9.8v-4.9h-12.3v19.5h12.3V387h9.8v9.8l-4.9,4.9H135.3z"
	/>
<path class="st3" d="M176.8,387v14.7H167v-39.1h9.8v14.6H189v-14.6h9.8v39.1H189V387H176.8z"/>
<path class="st3" d="M217.5,376l-8,25.6H200l12.3-39.1h10.6l12.3,39.1h-9.5L217.5,376z"/>
<path class="st3" d="M247.2,387v14.7h-9.8v-39.1h26.9l4.9,4.9v14.6l-4.9,4.9h-3.6l8.5,14.7h-9.8l-8.5-14.7H247.2z M247.2,372.4v4.8
	h12.2v-4.8H247.2z"/>
<path class="st3" d="M277.8,401.7l-4.9-4.9v-29.3l4.9-4.9h22l4.9,4.9v4.9h-22v19.5h12.2V387h-7.3v-9.8h12.2l4.9,4.9v14.7l-4.9,4.9
	H277.8z"/>
<path class="st3" d="M319.2,362.6v39.1h-9.8v-39.1H319.2z"/>
<path class="st3" d="M323.9,362.6h9l15.5,26.5v-26.5h9.8v39.1h-11.4l-13-22.4v22.4h-9.8V362.6z"/>
<path class="st3" d="M367.2,401.7l-4.9-4.9v-29.3l4.9-4.9h22l4.9,4.9v4.9h-22v19.5h12.2V387H377v-9.8h12.2l4.9,4.9v14.7l-4.9,4.9
	H367.2z"/>
<path class="st3" d="M428.6,376l-8,25.6H411l12.3-39.1h10.6l12.3,39.1h-9.5L428.6,376z"/>
<path class="st3" d="M458.2,387v14.7h-9.8v-39.1h26.9l4.9,4.9v14.6l-4.9,4.9h-3.6l8.5,14.7h-9.8l-8.5-14.7H458.2z M458.2,372.4v4.8
	h12.2v-4.8H458.2z"/>
<path class="st3" d="M484.5,401.7v-39.1h31.8v9.8h-22v4.9h22v9.8h-22v4.8h22v9.8H484.5z"/>
<path class="st3" d="M534.7,376l-8,25.6h-9.5l12.3-39.1H540l12.3,39.1h-9.5L534.7,376z"/>
</svg>
