<?xml version="1.0" encoding="utf-8"?>
<!-- Generator: Adobe Illustrator 28.0.0, SVG Export Plug-In . SVG Version: 6.00 Build 0)  -->
<svg version="1.1" id="Layer_1" xmlns:xodm="http://www.corel.com/coreldraw/odm/2003"
	 xmlns="http://www.w3.org/2000/svg" xmlns:xlink="http://www.w3.org/1999/xlink" x="0px" y="0px" viewBox="0 0 720 720"
	 style="enable-background:new 0 0 720 720;" xml:space="preserve">
<style type="text/css">
	.st0{fill:#F7B24B;}
</style>
<g>
	<polygon class="st0" points="472.9,365.7 247.1,365.7 276.2,334.2 310.8,334.2 322.2,345.7 397.3,345.7 408.8,334.2 443.7,334.2 	
		"/>
</g>
<polygon class="st0" points="506.5,365.7 483.4,365.8 461.3,341.5 483.9,341.5 "/>
<polygon class="st0" points="539.9,365.7 516.8,365.8 494.7,341.5 517.3,341.5 "/>
<polygon class="st0" points="573.4,365.7 550.3,365.8 528.2,341.5 550.8,341.5 "/>
<rect x="46.6" y="332.7" class="st0" width="0.1" height="3.1"/>
<polygon class="st0" points="121.2,335.8 112.1,345.2 109.1,348.4 91,367.1 91,370.3 91,370.3 91,367.1 109.1,348.4 112.1,345.2 
	121.2,335.8 "/>
<polygon class="st0" points="129.6,348.4 129.7,348.4 113.5,365.7 113.4,365.7 "/>
<polygon class="st0" points="136,341.5 136.1,341.5 132.6,345.2 132.6,345.2 "/>
<polygon class="st0" points="153.3,329.9 153.3,329.9 150.3,333 142.1,341.5 142,341.5 150.2,333 "/>
<polygon class="st0" points="218.6,384.7 218.6,384.7 215.1,381.5 202.9,370.3 203,370.3 215.2,381.5 "/>
<polygon class="st0" points="598.8,335.8 607.9,345.2 610.9,348.4 629.1,367.2 629.1,370.3 517.1,370.3 504.9,381.5 501.4,384.7 
	218.6,384.7 215.2,381.5 203,370.3 91,370.3 91,367.1 109.1,348.4 112.1,345.2 121.2,335.8 46.6,335.8 46.6,332.7 128.6,332.7 
	125.5,335.8 116.5,345.2 132.6,345.2 136.1,341.5 142.1,341.5 150.3,333 153.3,329.9 292.5,329.9 292.5,333 154.6,333 146.4,341.5 
	158.7,341.5 136.5,365.7 123.1,365.7 118.8,365.7 113.5,365.7 129.7,348.4 113.4,348.4 95.4,367.2 204.2,367.2 207.6,370.3 
	219.8,381.5 500.3,381.5 512.5,370.3 515.9,367.2 624.7,367.2 606.6,348.4 590.4,348.4 606.6,365.7 601.2,365.7 596.9,365.7 
	583.6,365.7 561.4,341.5 573.7,341.5 565.5,333 427.5,333 427.5,329.9 566.7,329.9 569.8,333 578,341.5 584,341.5 587.4,345.2 
	603.6,345.2 594.5,335.8 591.5,332.7 673.4,332.7 673.4,335.8 "/>
<rect x="427.5" y="329.9" class="st0" width="0.1" height="3.1"/>
<polygon class="st0" points="515.8,367.2 515.9,367.2 512.5,370.3 500.3,381.5 500.2,381.5 512.4,370.3 "/>
<polygon class="st0" points="573.6,341.5 565.4,333 565.5,333 573.7,341.5 "/>
<polygon class="st0" points="561.4,341.5 583.6,365.7 583.5,365.7 561.3,341.5 "/>
<polygon class="st0" points="594.5,335.8 603.6,345.2 603.5,345.2 594.5,335.8 591.4,332.7 591.5,332.7 "/>
<polygon class="st0" points="624.7,367.2 624.6,367.2 606.6,348.4 606.6,348.4 "/>
<line class="st0" x1="443.7" y1="334" x2="472.9" y2="365.7"/>
<g>
	<polygon class="st0" points="605.4,374.3 605.4,377.5 519.2,377.5 508.8,387 505.4,390.1 214.6,390.1 211.2,387 200.8,377.5 
		114.6,377.5 114.6,374.3 202.1,374.3 204,376.1 215.8,387 504.2,387 516,376.1 517.9,374.3 	"/>
</g>
<polygon class="st0" points="213.5,365.7 236.6,365.8 258.7,341.5 236.1,341.5 "/>
<polygon class="st0" points="180.1,365.7 203.2,365.8 225.3,341.5 202.7,341.5 "/>
<polygon class="st0" points="146.6,365.7 169.7,365.8 191.8,341.5 169.2,341.5 "/>
<polygon class="st0" points="91,367.1 91,367.2 90.9,367.2 "/>
<line class="st0" x1="276.3" y1="334" x2="247.1" y2="365.7"/>
</svg>
