<?xml version="1.0" encoding="utf-8"?>
<!-- Generator: Adobe Illustrator 28.0.0, SVG Export Plug-In . SVG Version: 6.00 Build 0)  -->
<svg version="1.1" id="Layer_1" xmlns:xodm="http://www.corel.com/coreldraw/odm/2003"
	 xmlns="http://www.w3.org/2000/svg" xmlns:xlink="http://www.w3.org/1999/xlink" x="0px" y="0px" viewBox="0 0 720 720"
	 style="enable-background:new 0 0 720 720;" xml:space="preserve">
<style type="text/css">
	.st0{fill-rule:evenodd;clip-rule:evenodd;}
</style>
<polygon class="st0" points="369.9,117 542.9,350.2 613.6,350.2 369.9,21.2 126.2,350.2 196.9,350.2 "/>
<polygon class="st0" points="370,296.9 516.7,485 587.4,485 370,201 158.3,485.1 229,485.1 "/>
<polygon class="st0" points="370,473.1 490.2,616 560.9,616 370,377.3 184.5,615.9 255.3,615.9 "/>
<polygon class="st0" points="141.8,366.1 85.4,440.4 60.4,440.4 116.4,366.2 "/>
<polygon class="st0" points="597.4,366.1 653.8,440.4 678.8,440.4 622.8,366.2 "/>
<polygon class="st0" points="185.8,366.1 130,440.4 104.9,440.4 160.4,366.1 "/>
<polygon class="st0" points="553.4,366.1 609.2,440.4 634.2,440.4 578.8,366.1 "/>
<polygon class="st0" points="174.3,501 120.2,572.2 95.1,572.2 149.1,500.9 "/>
<polygon class="st0" points="572.5,501 626.6,572.2 651.6,572.2 597.6,500.9 "/>
<polygon class="st0" points="219,500.9 164.7,572.2 139.7,572.2 193.6,500.9 "/>
<polygon class="st0" points="527.8,500.9 582.1,572.2 607.1,572.2 553.2,500.9 "/>
<polygon class="st0" points="200.4,631.7 146.1,703 121.1,703 175,631.7 "/>
<polygon class="st0" points="544.1,631.7 598.4,703 623.4,703 569.5,631.7 "/>
<polygon class="st0" points="245,631.7 190.7,702.9 165.7,703 219.6,631.7 "/>
<polygon class="st0" points="498.4,631.7 552.6,702.9 577.6,703 523.7,631.7 "/>
</svg>
