<?xml version="1.0" encoding="utf-8"?>
<!-- Generator: Adobe Illustrator 28.0.0, SVG Export Plug-In . SVG Version: 6.00 Build 0)  -->
<svg version="1.1" id="Layer_1" xmlns:xodm="http://www.corel.com/coreldraw/odm/2003"
	 xmlns="http://www.w3.org/2000/svg" xmlns:xlink="http://www.w3.org/1999/xlink" x="0px" y="0px" viewBox="0 0 720 720"
	 style="enable-background:new 0 0 720 720;" xml:space="preserve">
<style type="text/css">
	.st0{fill:none;stroke:#FFFFFF;stroke-width:1.019;stroke-miterlimit:10;}
	.st1{fill:none;}
	.st2{fill:#C10C0C;}
</style>
<polyline points="570.1,233.9 664,373.7 664.8,434 622.4,487.8 92,487.8 92,233.9 "/>
<line class="st0" x1="648.2" y1="427.2" x2="107.5" y2="427.2"/>
<line class="st0" x1="648.2" y1="376" x2="107.5" y2="376"/>
<path d="M82.9,204.1"/>
<path d="M82.9,515.9"/>
<line class="st1" x1="167.2" y1="487.8" x2="168.8" y2="487.8"/>
<path d="M84.5,514.3"/>
<path d="M84.5,205.7"/>
<path d="M168.7,233.9"/>
<path class="st2" d="M378.8,456.3l-10.9,15.9h6.3l11.2-15.8L374,439.1h-7L378.8,456.3z"/>
<path class="st2" d="M393.9,456.3L383,472.2h6.3l11.2-15.8l-11.4-17.3H382L393.9,456.3z"/>
<path class="st2" d="M409.1,456.3l-10.9,15.9h6.3l11.2-15.8l-11.4-17.3h-7.1L409.1,456.3z"/>
<path class="st2" d="M424.2,456.3l-10.9,15.9h6.3l11.2-15.8l-11.4-17.3h-7.1L424.2,456.3z"/>
<path class="st2" d="M439.4,456.3l-10.9,15.9h6.3l11.2-15.8l-11.4-17.3h-7.1L439.4,456.3z"/>
<path class="st2" d="M454.5,456.3l-10.9,15.9h6.3l11.2-15.8l-11.4-17.3h-7.1L454.5,456.3z"/>
<path class="st2" d="M469.7,456.3l-10.9,15.9h6.3l11.2-15.8l-11.4-17.3h-7.1L469.7,456.3z"/>
<path class="st2" d="M484.8,456.3l-10.9,15.9h6.3l11.2-15.8L480,439.1h-7L484.8,456.3z"/>
<path class="st2" d="M500,456.3l-10.9,15.9h6.3l11.2-15.8l-11.4-17.3h-7.1L500,456.3z"/>
<path class="st2" d="M515.1,456.3l-10.9,15.9h6.3l11.2-15.8l-11.4-17.3h-7.1L515.1,456.3z"/>
<path class="st2" d="M530.3,456.3l-10.9,15.9h6.3l11.2-15.8l-11.4-17.3h-7.1L530.3,456.3z"/>
<path class="st2" d="M545.4,456.3l-10.9,15.9h6.3l11.2-15.8l-11.4-17.3h-7.1L545.4,456.3z"/>
<path class="st2" d="M560.6,456.3l-10.9,15.9h6.3l11.2-15.8l-11.4-17.3h-7.1L560.6,456.3z"/>
<path class="st2" d="M575.7,456.3l-10.9,15.9h6.3l11.2-15.8L571,439.1h-7.1L575.7,456.3z"/>
<path class="st2" d="M590.9,456.3L580,472.2h6.3l11.2-15.8l-11.4-17.3H579L590.9,456.3z"/>
<path class="st2" d="M606,456.3l-10.9,15.9h6.3l11.2-15.8l-11.4-17.3h-7.1L606,456.3z"/>
<path class="st2" d="M137.1,456.3l-10.9,15.9h6.3l11.2-15.8l-11.4-17.3h-7.1L137.1,456.3z"/>
<path class="st2" d="M152.2,456.3l-10.9,15.9h6.3l11.2-15.8l-11.4-17.3h-7.1L152.2,456.3z"/>
<path class="st2" d="M167.4,456.3l-10.9,15.9h6.3l11.2-15.8l-11.4-17.3h-7.1L167.4,456.3z"/>
<path class="st2" d="M182.5,456.3l-10.9,15.9h6.3l11.2-15.8l-11.4-17.3h-7.1L182.5,456.3z"/>
<path class="st2" d="M197.7,456.3l-10.9,15.9h6.3l11.2-15.8l-11.4-17.3h-7.1L197.7,456.3z"/>
<path class="st2" d="M212.8,456.3l-10.9,15.9h6.3l11.2-15.8L208,439.1h-7L212.8,456.3z"/>
<path class="st2" d="M228,456.3l-10.9,15.9h6.3l11.2-15.8l-11.4-17.3h-7.1L228,456.3z"/>
<path class="st2" d="M243.1,456.3l-10.9,15.9h6.3l11.2-15.8l-11.4-17.3h-7.1L243.1,456.3z"/>
<path class="st2" d="M258.3,456.3l-10.9,15.9h6.3l11.2-15.8l-11.4-17.3h-7.1L258.3,456.3z"/>
<path class="st2" d="M273.4,456.3l-10.9,15.9h6.3l11.2-15.8l-11.4-17.3h-7.1L273.4,456.3z"/>
<path class="st2" d="M288.5,456.3l-10.9,15.9h6.3l11.2-15.8l-11.4-17.3h-7.1L288.5,456.3z"/>
<path class="st2" d="M303.7,456.3l-10.9,15.9h6.3l11.2-15.8L299,439.1h-7.1L303.7,456.3z"/>
<path class="st2" d="M318.8,456.3l-10.9,15.9h6.3l11.2-15.8L314,439.1h-7L318.8,456.3z"/>
<path class="st2" d="M334,456.3l-10.9,15.9h6.3l11.2-15.8l-11.4-17.3h-7.1L334,456.3z"/>
<path class="st2" d="M349.1,456.3l-10.9,15.9h6.3l11.2-15.8l-11.4-17.3h-7.1L349.1,456.3z"/>
<path class="st2" d="M364.3,456.3l-10.9,15.9h6.3l11.2-15.8l-11.4-17.3h-7.1L364.3,456.3z"/>
<polygon points="84.5,489.5 60.3,459.3 60.3,264 84.5,233.9 "/>
</svg>
