<?xml version="1.0" encoding="utf-8"?>
<!-- Generator: Adobe Illustrator 28.0.0, SVG Export Plug-In . SVG Version: 6.00 Build 0)  -->
<svg version="1.1" id="Layer_1" xmlns:xodm="http://www.corel.com/coreldraw/odm/2003"
	 xmlns="http://www.w3.org/2000/svg" xmlns:xlink="http://www.w3.org/1999/xlink" x="0px" y="0px" viewBox="0 0 720 720"
	 style="enable-background:new 0 0 720 720;" xml:space="preserve">
<style type="text/css">
	.st0{fill-rule:evenodd;clip-rule:evenodd;}
	.st1{fill:none;}
</style>
<g>
	<path class="st0" d="M392.6,99.2h-64.5c-24.7,0-44.9,20.3-44.9,44.9v64.5c0,24.7,20.2,44.9,44.9,44.9l13-4.6h38.6l12.9,4.6
		c24.7,0,44.9-20.2,44.9-44.9v-64.5C437.5,119.4,417.3,99.2,392.6,99.2z M326.6,200.5c-13.3,0-24-10.7-24-24s10.7-24,24-24
		s24,10.7,24,24S339.9,200.5,326.6,200.5z M394.7,200.4c-13.3,0-24-10.7-24-24c0-13.3,10.7-24,24-24s24,10.7,24,24
		C418.7,189.7,408,200.4,394.7,200.4z"/>
	<path class="st0" d="M400.8,79.5h-80.9c-31.2,0-56.4,25.3-56.4,56.4v80.9c0,31.1,25.2,56.4,56.4,56.4h80.9
		c31.1,0,56.4-25.2,56.4-56.4v-80.9C457.2,104.8,432,79.5,400.8,79.5z M446.9,212.6c0,27.7-22.7,50.4-50.4,50.4l-16.5-4.6h-38.9
		l-16.9,4.6c-27.7,0-50.4-22.7-50.4-50.4v-72.3c0.1-27.7,22.8-50.4,50.4-50.4h72.3c27.7,0,50.4,22.7,50.4,50.4V212.6z"/>
</g>
<path class="st0" d="M248.1,157.7h25.2v37.7h-25.2c-10.4,0-18.8-8.5-18.8-18.8C229.2,166.2,237.7,157.7,248.1,157.7z M249.5,166.2
	h13.8v20.7h-13.8c-5.7,0-10.3-4.7-10.3-10.3S243.8,166.2,249.5,166.2L249.5,166.2z"/>
<path class="st0" d="M255.8,349.1L255.8,349.1h-37.7v-25.2c0-10.4,8.5-18.8,18.8-18.8c8.6,0,16,5.9,18.2,13.9h11.2v30.1H255.8
	L255.8,349.1z M247.3,325.3v13.8h-20.7v-13.8c0-5.7,4.7-10.3,10.3-10.3C242.6,315,247.3,319.6,247.3,325.3L247.3,325.3z"/>
<path class="st0" d="M464.2,349.1L464.2,349.1h37.7v-25.2c0-10.4-8.5-18.8-18.8-18.8c-8.6,0-16,5.9-18.2,13.9h-11.4v30.1H464.2
	L464.2,349.1z M472.7,325.3v13.8h20.7v-13.8c0-5.7-4.7-10.3-10.3-10.3S472.7,319.6,472.7,325.3z"/>
<path class="st0" d="M472.9,157.7h-25.2v37.7h25.2c10.4,0,18.8-8.5,18.8-18.8C491.7,166.2,483.2,157.7,472.9,157.7z M471.4,166.2
	h-13.8v20.7h13.8c5.7,0,10.3-4.7,10.3-10.3S477.1,166.2,471.4,166.2L471.4,166.2z"/>
<circle class="st0" cx="251.2" cy="176.6" r="5.8"/>
<path class="st0" d="M251.2,85.1c-8.3,0-15.1,6.8-15.1,15.1c0,6.8,4.5,12.5,10.6,14.4v49.7h10.2v-50.1c5.5-2.2,9.4-7.7,9.4-14
	C266.3,91.9,259.5,85.1,251.2,85.1z M251.2,106.3c-3.2,0-5.8-2.6-5.8-5.8s2.6-5.8,5.8-5.8s5.8,2.6,5.8,5.8S254.4,106.3,251.2,106.3z
	"/>
<circle class="st0" cx="469.7" cy="176.6" r="5.8"/>
<circle class="st0" cx="482.9" cy="327" r="5.8"/>
<circle class="st0" cx="236.9" cy="327.1" r="5.8"/>
<path class="st0" d="M390.1,468.3h28.5c4,0,7.3,3.6,7.3,8.1v56.9c0,4.5-3.3,8.1-7.3,8.1h-28.5c-4,0-7.3-3.6-7.3-8.1v-56.9
	C382.9,471.9,386.1,468.3,390.1,468.3z"/>
<path class="st0" d="M301,468.3h28.5c4,0,7.3,3.6,7.3,8.1v56.9c0,4.5-3.3,8.1-7.3,8.1H301c-4,0-7.3-3.6-7.3-8.1v-56.9
	C293.7,471.9,297,468.3,301,468.3z"/>
<path class="st0" d="M467,397.2h31.6c4.4,0,8,2.5,8,5.6v39c0,3.1-3.6,5.6-8,5.6H467c-4.4,0-8-2.5-8-5.6v-39
	C458.9,399.7,462.5,397.2,467,397.2z"/>
<path class="st0" d="M219.7,397.2h31.6c4.4,0,8,2.5,8,5.6v39c0,3.1-3.6,5.6-8,5.6h-31.6c-4.4,0-8-2.5-8-5.6v-39
	C211.7,399.7,215.3,397.2,219.7,397.2z"/>
<path class="st0" d="M469.7,85.1c-8.3,0-15.1,6.8-15.1,15.1c0,6.8,4.5,12.5,10.6,14.4v49.7h10.2v-50.1c5.5-2.2,9.4-7.7,9.4-14
	C484.8,91.9,478,85.1,469.7,85.1z M469.7,105.8c-3.2,0-5.8-2.6-5.8-5.8s2.6-5.8,5.8-5.8s5.8,2.6,5.8,5.8S472.9,105.8,469.7,105.8z"
	/>
<rect x="337.2" y="272.6" class="st0" width="46.2" height="24.2"/>
<path class="st0" d="M281.2,297h157.4c8.2,0,14.9,6.7,14.9,14.9v133.6c0,8.2-6.7,14.9-14.9,14.9H281.2c-8.2,0-14.9-6.7-14.9-14.9
	V311.9C266.3,303.7,273,297,281.2,297z M290.1,306.3h139.5c7.3,0,13.2,5.9,13.2,13.2v118.4c0,7.3-5.9,13.2-13.2,13.2H290.1
	c-7.3,0-13.2-5.9-13.2-13.2V319.4C276.9,312.2,282.9,306.3,290.1,306.3L290.1,306.3z"/>
<path class="st0" d="M296.6,318.9h126c1.5,0,2.8,1.2,2.8,2.8l0,0c0,1.5-1.2,2.8-2.8,2.8h-126c-1.5,0-2.8-1.2-2.8-2.8l0,0
	C293.9,320.1,295.1,318.9,296.6,318.9z"/>
<path class="st0" d="M296.6,341.4h126c1.5,0,2.8,1.2,2.8,2.8l0,0c0,1.5-1.2,2.8-2.8,2.8h-126c-1.5,0-2.8-1.2-2.8-2.8l0,0
	C293.9,342.6,295.1,341.4,296.6,341.4z"/>
<path class="st0" d="M296.6,364h126c1.5,0,2.8,1.2,2.8,2.8l0,0c0,1.5-1.2,2.8-2.8,2.8h-126c-1.5,0-2.8-1.2-2.8-2.8l0,0
	C293.9,365.3,295.1,364,296.6,364z"/>
<path class="st0" d="M296.6,386.8h126c1.5,0,2.8,1.2,2.8,2.8l0,0c0,1.5-1.2,2.8-2.8,2.8h-126c-1.5,0-2.8-1.2-2.8-2.8l0,0
	C293.9,388.1,295.1,386.8,296.6,386.8z"/>
<path class="st0" d="M296.6,409.3h126c1.5,0,2.8,1.2,2.8,2.8l0,0c0,1.5-1.2,2.8-2.8,2.8h-126c-1.5,0-2.8-1.2-2.8-2.8l0,0
	C293.9,410.5,295.1,409.3,296.6,409.3z"/>
<path class="st0" d="M296.6,432h126c1.5,0,2.8,1.2,2.8,2.8l0,0c0,1.5-1.2,2.8-2.8,2.8h-126c-1.5,0-2.8-1.2-2.8-2.8l0,0
	C293.9,433.2,295.1,432,296.6,432z"/>
<rect x="226.5" y="315" class="st1" width="20.9" height="24.2"/>
<path class="st0" d="M500.4,447.3c0.4,1.4,0.7,2.9,0.7,4.4c0,9-8.2,16.4-18.2,16.4s-18.2-7.3-18.2-16.4c0-1.5,0.2-3,0.7-4.4H500.4
	L500.4,447.3z"/>
<path class="st0" d="M253.1,447.3c0.4,1.4,0.7,2.9,0.7,4.4c0,9-8.2,16.4-18.2,16.4c-10.1,0-18.2-7.3-18.2-16.4c0-1.5,0.2-3,0.7-4.4
	H253.1L253.1,447.3z"/>
<path class="st0" d="M223.5,339.7V447l26.8-0.1V339.7H223.5z M241.2,437.4h-8.7v0v-88.3v-0.3h8.7V437.4L241.2,437.4L241.2,437.4z"/>
<path class="st0" d="M469.5,339.7V447l26.8-0.1V339.7H469.5z M487.2,437.5h-8.7v-0.1v-88.2v-0.4h8.7l0.1,88.6h-0.1V437.5z"/>
<path class="st0" d="M285.2,451.2h60.1c4.5,0,8.2,3.7,8.2,8.2v90.9c0,4.5-3.7,8.2-8.2,8.2h-60.1c-4.5,0-8.2-3.7-8.2-8.2v-90.9
	C277,454.9,280.7,451.2,285.2,451.2L285.2,451.2z M292.1,460.2h46.3c3.2,0,5.8,2.6,5.8,5.8v77c0,3.2-2.6,5.8-5.8,5.8h-46.3
	c-3.2,0-5.8-2.6-5.8-5.8v-77C286.3,462.9,288.9,460.2,292.1,460.2L292.1,460.2z"/>
<path class="st0" d="M373.9,451.2h60.5c4.5,0,8.2,3.7,8.2,8.2v90.9c0,4.5-3.7,8.2-8.2,8.2h-60.5c-4.5,0-8.2-3.7-8.2-8.2v-90.9
	C365.7,454.9,369.4,451.2,373.9,451.2z M380.8,460.2h46.7c3.2,0,5.8,2.6,5.8,5.8v77c0,3.2-2.6,5.8-5.8,5.8h-46.7
	c-3.2,0-5.8-2.6-5.8-5.8v-77C375,462.9,377.6,460.2,380.8,460.2z"/>
<path class="st0" d="M350.2,589v13.7c0,10.4-8.5,19-19,19H287c-10.4,0-19-8.5-19-19V589c0-10.4,8.5-19,19-19h44.2
	C341.7,570,350.2,578.5,350.2,589L350.2,589z M340.5,591.4v8.7c0,6.6-5.4,12.1-12.1,12.1h-39.7c-6.6,0-12.1-5.4-12.1-12.1v-8.7
	c0-6.6,5.4-12.1,12.1-12.1h39.7C335.1,579.4,340.5,584.8,340.5,591.4z"/>
<path class="st0" d="M451.8,589v13.7c0,10.4-8.5,19-19,19h-44.2c-10.4,0-19-8.5-19-19V589c0-10.4,8.5-19,19-19h44.2
	C443.2,570,451.8,578.5,451.8,589L451.8,589z M442,591.4v8.7c0,6.6-5.4,12.1-12.1,12.1h-39.7c-6.6,0-12.1-5.4-12.1-12.1v-8.7
	c0-6.6,5.4-12.1,12.1-12.1H430C436.6,579.4,442,584.8,442,591.4L442,591.4z"/>
<rect x="344.2" y="457.2" class="st0" width="30.8" height="21.9"/>
<path class="st0" d="M295.5,595.9h27.3c4.8,0,8.7,2.4,8.7,5.4v11c0,3-3.9,5.4-8.7,5.4h-27.3c-4.8,0-8.7-2.4-8.7-5.4v-11
	C286.8,598.3,290.7,595.9,295.5,595.9z"/>
<path class="st0" d="M396.9,595.9h27.3c4.8,0,8.7,2.4,8.7,5.4v11c0,3-3.9,5.4-8.7,5.4h-27.3c-4.8,0-8.7-2.4-8.7-5.4v-11
	C388.2,598.3,392.1,595.9,396.9,595.9z"/>
<rect x="292.2" y="558.7" class="st0" width="34.3" height="11.4"/>
<rect x="393" y="558.7" class="st0" width="34.3" height="11.4"/>
</svg>
