<?xml version="1.0" encoding="utf-8"?>
<!-- Generator: Adobe Illustrator 28.0.0, SVG Export Plug-In . SVG Version: 6.00 Build 0)  -->
<svg version="1.1" id="Layer_1" xmlns:xodm="http://www.corel.com/coreldraw/odm/2003"
	 xmlns="http://www.w3.org/2000/svg" xmlns:xlink="http://www.w3.org/1999/xlink" x="0px" y="0px" viewBox="0 0 720 720"
	 style="enable-background:new 0 0 720 720;" xml:space="preserve">
<path d="M290.6,43.5c-13.4,2.9-26.5,6.6-39.2,11.2c-9.9,3.5-19.6,7.5-29,11.9c-1.2,0.6-2.5,1.2-3.7,1.8v19L86.9,219.1h-18
	c-0.6,1.2-1.2,2.5-1.7,3.7c-4.1,8.8-7.8,17.8-11,27.1c-4.6,12.7-8.4,25.9-11.2,39.3c-2.8,12.9-4.9,26-6,39.4h10
	c1.6-18.1,4.9-35.8,9.6-52.9c4.1-15,9.2-29.4,15.4-43.4c1.4-3.2,2.8-6.3,4.4-9.4h33.1l111.2-111.2V77.5c3.7-1.8,7.5-3.6,11.3-5.3
	c14-6.2,28.5-11.3,43.5-15.4c17.3-4.8,35.2-8,53.6-9.6v-10C317.1,38.5,303.8,40.6,290.6,43.5z"/>
<path d="M390.2,37.3v10c18.3,1.6,36.3,4.9,53.6,9.6c15,4.1,29.5,9.2,43.5,15.4c3.8,1.7,7.6,3.4,11.3,5.3v34.1l111.2,111.2h33.1
	c1.5,3.1,3,6.2,4.4,9.4c6.1,14,11.3,28.4,15.4,43.4c4.7,17.1,7.9,34.8,9.6,52.9h10c-1.1-13.4-3.2-26.5-6-39.4
	c-2.9-13.4-6.6-26.6-11.2-39.3c-3.2-9.2-6.9-18.2-11-27.1c-0.5-1.2-1.1-2.5-1.7-3.7h-18L502.3,87.4v-19c-1.2-0.6-2.5-1.2-3.7-1.8
	c-9.4-4.5-19.1-8.4-29-11.9c-12.7-4.6-25.8-8.3-39.2-11.2C417.2,40.6,403.9,38.5,390.2,37.3z"/>
<path d="M647,275.8c-2.7-9.6-5.9-18.9-9.6-28.1h-18.5l-145-145V82.4c-10.2-4.2-20.6-7.9-31.2-11C416.6,64,389,60,360.5,60
	s-56.1,4-82.2,11.5c-10.6,3.1-21,6.7-31.2,11v20.3l-145,145H83.6c-3.7,9.2-6.9,18.5-9.6,28.1c-7.5,26.1-11.5,53.7-11.5,82.2
	s4,56.1,11.5,82.2c2.7,9.6,5.9,18.9,9.6,28.1h18.5l145,145v20.3c10.2,4.2,20.6,7.9,31.2,11C304.4,652,332,656,360.5,656l0,0
	c28.5,0,56.1-4,82.2-11.5c9.6-2.7,18.9-6,28.1-9.6v-18.5l145-145h20.3c4.2-10.2,7.9-20.6,11-31.2c7.5-26.1,11.5-53.7,11.5-82.2l0,0
	C658.6,329.5,654.5,301.9,647,275.8z M618.9,358c0,40.7-9.5,79.2-26.3,113.4h-15.2c-23.7,45.2-61,82.1-106.7,105.2v15.1
	c-33.4,15.9-70.8,24.8-110.3,24.8l0,0c-40.7,0-79.2-9.5-113.4-26.3V575c-45.2-23.7-82.2-61-105.2-106.7h-15.1
	c-15.9-33.4-24.8-70.9-24.8-110.3s8.9-76.8,24.8-110.3h15.1c23-45.6,60-83,105.2-106.7v-15.2c34.2-16.8,72.7-26.3,113.4-26.3
	s79.2,9.5,113.4,26.3V141C519,164.7,556,202,579,247.7h15.1C610.1,281.2,618.9,318.6,618.9,358L618.9,358z"/>
<path d="M681.2,387.7h-10c-1.6,18.3-4.9,36.3-9.6,53.6c-4.1,15-9.2,29.5-15.4,43.5c-1.7,3.8-3.4,7.6-5.3,11.3h-34.1L495.7,607.3
	v33.1c-3.1,1.5-6.2,3-9.4,4.4c-14,6.1-28.4,11.3-43.4,15.4c-17.1,4.7-34.8,7.9-52.9,9.6v10c13.4-1.1,26.5-3.2,39.4-6
	c13.4-2.9,26.6-6.6,39.3-11.2c9.2-3.2,18.2-6.9,27.1-11c1.2-0.5,2.5-1.1,3.7-1.7v-18l131.8-131.8h19c0.6-1.2,1.2-2.5,1.8-3.7
	c4.5-9.4,8.4-19.1,11.9-29c4.6-12.7,8.3-25.8,11.2-39.2C677.9,414.7,680,401.4,681.2,387.7z"/>
<path d="M330.8,678.7v-10c-18.3-1.6-36.3-4.9-53.6-9.6c-15-4.1-29.5-9.2-43.5-15.4c-3.8-1.7-7.6-3.4-11.3-5.3v-34.1L111.2,493.2
	H78.1c-1.5-3.1-3-6.2-4.4-9.4c-6.1-14-11.3-28.4-15.4-43.4c-4.7-17.1-7.9-34.8-9.6-52.9h-10c1.1,13.4,3.2,26.5,6,39.4
	c2.9,13.4,6.6,26.6,11.2,39.3c3.2,9.2,6.9,18.2,11,27.1c0.5,1.2,1.1,2.5,1.7,3.7h18l131.8,131.8v19c1.2,0.6,2.5,1.2,3.7,1.8
	c9.4,4.5,19.1,8.4,29,11.9c12.7,4.6,25.8,8.3,39.2,11.2C303.8,675.5,317.1,677.5,330.8,678.7z"/>
</svg>
