<?xml version="1.0" encoding="utf-8"?>
<!-- Generator: Adobe Illustrator 28.0.0, SVG Export Plug-In . SVG Version: 6.00 Build 0)  -->
<svg version="1.1" id="Layer_1" xmlns:xodm="http://www.corel.com/coreldraw/odm/2003"
	 xmlns="http://www.w3.org/2000/svg" xmlns:xlink="http://www.w3.org/1999/xlink" x="0px" y="0px" viewBox="0 0 720 720"
	 style="enable-background:new 0 0 720 720;" xml:space="preserve">
<style type="text/css">
	.st0{fill-rule:evenodd;clip-rule:evenodd;fill:#FFFFFF;stroke:#000000;stroke-miterlimit:10;}
	.st1{fill-rule:evenodd;clip-rule:evenodd;fill:#C10C0C;stroke:#000000;stroke-miterlimit:10;}
	.st2{fill:#FFFFFF;}
</style>
<path class="st0" d="M586.7,456.4H133.3c-53.3,0-96.4-43.2-96.4-96.4l0,0c0-53.3,43.2-96.4,96.4-96.4h453.3
	c53.3,0,96.4,43.2,96.4,96.4l0,0C683.1,413.3,639.9,456.4,586.7,456.4z"/>
<path class="st1" d="M583.9,441.6H136.1c-45.7,0-82.7-37-82.7-82.7l0,0c0-45.7,37-82.7,82.7-82.7H584c45.7,0,82.7,37,82.7,82.7l0,0
	C666.7,404.6,629.6,441.6,583.9,441.6z"/>
<path class="st2" d="M253.3,343v9.3h33l9.4,9.4V390l-9.4,9.4h-51.8v-18.8h42.4v-9.4h-33l-9.4-9.4v-28.2l9.4-9.4h51.8V343H253.3z"/>
<path class="st2" d="M325.7,343h-22v-18.8h61.1V343h-20.4v56.4h-18.7V343z"/>
<path class="st2" d="M381.5,399.4l-9.4-9.4v-56.4l9.4-9.4h42.3l9.4,9.4V390l-9.4,9.4H381.5z M391,343v37.6h23.4V343H391z"/>
<path class="st2" d="M461.2,371.1v28.3h-18.8v-75.3H494l9.4,9.4v28.2l-9.4,9.4H461.2z M461.2,343v9.3h23.4V343H461.2z"/>
</svg>
