<?xml version="1.0" encoding="utf-8"?>
<!-- Generator: Adobe Illustrator 28.0.0, SVG Export Plug-In . SVG Version: 6.00 Build 0)  -->
<svg version="1.1" id="Layer_1" xmlns:xodm="http://www.corel.com/coreldraw/odm/2003"
	 xmlns="http://www.w3.org/2000/svg" xmlns:xlink="http://www.w3.org/1999/xlink" x="0px" y="0px" viewBox="0 0 720 720"
	 style="enable-background:new 0 0 720 720;" xml:space="preserve">
<style type="text/css">
	.st0{fill-rule:evenodd;clip-rule:evenodd;fill:#FFFFFF;stroke:#000000;stroke-miterlimit:10;}
	.st1{fill-rule:evenodd;clip-rule:evenodd;fill:#C10C0C;stroke:#000000;stroke-miterlimit:10;}
	.st2{fill:#FFFFFF;}
</style>
<path class="st0" d="M586.7,456.4H133.3c-53.3,0-96.4-43.2-96.4-96.4l0,0c0-53.3,43.2-96.4,96.4-96.4h453.3
	c53.3,0,96.4,43.2,96.4,96.4l0,0C683.1,413.3,639.9,456.4,586.7,456.4z"/>
<path class="st1" d="M583.9,441.6H136.1c-45.7,0-82.7-37-82.7-82.7l0,0c0-45.7,37-82.7,82.7-82.7H584c45.7,0,82.7,37,82.7,82.7l0,0
	C666.7,404.6,629.6,441.6,583.9,441.6z"/>
<path class="st2" d="M111.1,408.2v-92.5h63.7l11.6,11.6v69.4l-11.6,11.6H111.1z M134.3,338.9v46.2h29v-46.2H134.3z"/>
<path class="st2" d="M230.6,347.6l-19,60.6h-22.4l29-92.4h24.9l29,92.4h-22.4L230.6,347.6z"/>
<path class="st2" d="M277.6,315.9h21.2l36.5,62.7v-62.7h23.2v92.5h-27l-30.7-52.9v52.9h-23.2V315.9z"/>
<path class="st2" d="M380,408.4l-11.6-11.6v-69.3l11.6-11.6h52l11.6,11.6V339h-52v46.2h28.8v-11.6h-17.2v-23.2H432l11.6,11.6v34.7
	L432,408.4H380z"/>
<path class="st2" d="M454.7,408.4v-92.5h75.1V339h-52v11.6h52v23.2h-52v11.4h52v23.2H454.7z"/>
<path class="st2" d="M564.2,373.6v34.7H541v-92.5h63.6l11.6,11.6V362l-11.6,11.6h-8.6l20.2,34.7H593l-20.2-34.7H564.2z M564.2,339
	v11.4H593V339H564.2z"/>
</svg>
