<?xml version="1.0" encoding="utf-8"?>
<!-- Generator: Adobe Illustrator 28.0.0, SVG Export Plug-In . SVG Version: 6.00 Build 0)  -->
<svg version="1.1" id="Layer_1" xmlns:xodm="http://www.corel.com/coreldraw/odm/2003"
	 xmlns="http://www.w3.org/2000/svg" xmlns:xlink="http://www.w3.org/1999/xlink" x="0px" y="0px" viewBox="0 0 720 720"
	 style="enable-background:new 0 0 720 720;" xml:space="preserve">
<path d="M655.2,379.4l8.1-14l-149.5-259l-73.3,0l152.3,263.8l-9.3,24.1h0L435.2,137.4c-12-20.8-31.9-35.7-55.2-41.4
	c-1.1-0.3-2-0.5-2.7-0.6c-4.5-0.9-9.1-1.3-13.8-1.3c-4.7,0-9.3,0.5-13.8,1.3c-0.3,0-0.5,0.1-0.8,0.2c-24.1,5.2-44.7,20.5-57.1,41.9
	L143.5,394.3l-9.3-24.1l152.3-263.8l-73.3,0L67.4,358.9l8.5,13.9l69-119.8h38.3L94.7,406.3c0,0,58.1,100.9,76.8,133.3
	c0,0,0-0.1,0.1-0.1l334.5,0.2l-16,20.2l-304.6,3l37.2,63.1l291.6-2.9l8.6-14.4l-139.1,1.5l-19.5-33l177.7-1.7l94.9-164.4l-93.1-158
	h38.3L655.2,379.4z M222.7,118h37.7l-7.9,13.7h-37.7L222.7,118z M212.2,137.1h37.7l-7.9,13.7h-37.7L212.2,137.1z M201.8,155h37.7
	l-7.9,13.7h-37.7L201.8,155z M191.4,173h37.7l-7.9,13.7h-37.7L191.4,173z M181.1,190.9h37.7l-7.9,13.7h-37.7L181.1,190.9z
	 M170.7,208.8h37.7l-7.9,13.7h-37.7L170.7,208.8z M152.4,240.5l7.9-13.7H198l-7.9,13.7H152.4z M229,611.5L209.8,579l15.8-0.2
	l19.2,32.5L229,611.5z M249.7,611.3l-19.2-32.5l15.8-0.2l19.2,32.5L249.7,611.3z M270.4,611.1l-19.2-32.5l15.8-0.2l19.2,32.4
	L270.4,611.1z M291.1,610.9l-19.2-32.5l15.8-0.2l19.2,32.5L291.1,610.9z M311.8,610.7l-19.2-32.5l15.8-0.2l19.2,32.4L311.8,610.7z
	 M332.5,610.5L313.4,578l15.8-0.2l19.2,32.4L332.5,610.5z M369.1,610.1l-15.8,0.2l-19.2-32.5l15.8-0.2L369.1,610.1z M520.9,481.1
	H206c-18.3,0-29.7-19.8-20.6-35.6l178-308.3l178,308.3L520.9,481.1z M466.8,119.2h37.7l7.9,13.7h-37.7L466.8,119.2z M477.1,137.1
	h37.7l7.9,13.7H485L477.1,137.1z M487.5,155h37.7l7.9,13.7h-37.7L487.5,155z M497.8,173h37.7l7.9,13.7h-37.7L497.8,173z
	 M508.2,190.9h37.7l7.9,13.7h-37.7L508.2,190.9z M518.6,208.8h37.7l7.9,13.7h-37.7L518.6,208.8z M536.8,240.5l-7.9-13.7h37.7
	l7.9,13.7H536.8z"/>
</svg>
