<?xml version="1.0" encoding="UTF-8"?>
<svg id="Layer_1" data-name="Layer 1" xmlns="http://www.w3.org/2000/svg" version="1.1" xmlns:xodm="http://www.corel.com/coreldraw/odm/2003" viewBox="0 0 720 720">
  <defs>
    <style>
      .cls-1 {
        opacity: .5;
      }

      .cls-2 {
        fill: #f6b24a;
        stroke-width: 0px;
      }
    </style>
  </defs>
  <path class="cls-2" d="M671.2,372.7H48.8c-5.9,0-10.7-4.8-10.7-10.7v-43c0-5.9,4.8-10.7,10.7-10.7h622.3c5.9,0,10.7,4.8,10.7,10.7v43c.1,5.9-4.7,10.7-10.6,10.7ZM48.8,313.5c-3,0-5.5,2.5-5.5,5.5v43c0,3,2.5,5.5,5.5,5.5h622.3c3,0,5.5-2.5,5.5-5.5v-43c0-3-2.5-5.5-5.5-5.5H48.8Z"/>
  <rect class="cls-2" x="46.2" y="314.9" width="8.6" height="51.2"/>
  <rect class="cls-2" x="56.7" y="314.9" width="8.6" height="51.2"/>
  <rect class="cls-2" x="67.1" y="314.9" width="8.6" height="51.2"/>
  <rect class="cls-2" x="77.6" y="314.9" width="8.6" height="51.2"/>
  <rect class="cls-2" x="88.1" y="314.9" width="8.6" height="51.2"/>
  <rect class="cls-2" x="98.6" y="314.9" width="8.6" height="51.2"/>
  <rect class="cls-2" x="109.1" y="314.9" width="8.6" height="51.2"/>
  <rect class="cls-2" x="119.6" y="314.9" width="8.6" height="51.2"/>
  <rect class="cls-2" x="130.1" y="314.9" width="8.6" height="51.2"/>
  <rect class="cls-2" x="140.6" y="314.9" width="8.6" height="51.2"/>
  <rect class="cls-2" x="151.1" y="314.9" width="8.6" height="51.2"/>
  <rect class="cls-2" x="161.5" y="314.9" width="8.6" height="51.2"/>
  <rect class="cls-2" x="172" y="314.9" width="8.6" height="51.2"/>
  <rect class="cls-2" x="182.5" y="314.9" width="8.6" height="51.2"/>
  <rect class="cls-2" x="193" y="314.9" width="8.6" height="51.2"/>
  <rect class="cls-2" x="203.5" y="314.9" width="8.6" height="51.2"/>
  <rect class="cls-2" x="214" y="314.9" width="8.6" height="51.2"/>
  <rect class="cls-2" x="224.5" y="314.9" width="8.6" height="51.2"/>
  <rect class="cls-2" x="235" y="314.9" width="8.6" height="51.2"/>
  <rect class="cls-2" x="245.5" y="314.9" width="8.6" height="51.2"/>
  <rect class="cls-2" x="256" y="314.9" width="8.6" height="51.2"/>
  <rect class="cls-2" x="266.4" y="314.9" width="8.6" height="51.2"/>
  <rect class="cls-2" x="276.9" y="314.9" width="8.6" height="51.2"/>
  <rect class="cls-2" x="287.4" y="314.9" width="8.6" height="51.2"/>
  <rect class="cls-2" x="297.9" y="314.9" width="8.6" height="51.2"/>
  <rect class="cls-2" x="308.4" y="314.9" width="8.6" height="51.2"/>
  <rect class="cls-2" x="318.9" y="314.9" width="8.6" height="51.2"/>
  <rect class="cls-2" x="329.4" y="314.9" width="8.6" height="51.2"/>
  <rect class="cls-2" x="339.9" y="314.9" width="8.6" height="51.2"/>
  <rect class="cls-2" x="350.4" y="314.9" width="8.6" height="51.2"/>
  <rect class="cls-2" x="360.8" y="314.9" width="8.6" height="51.2"/>
  <rect class="cls-2" x="371.3" y="314.9" width="8.6" height="51.2"/>
  <rect class="cls-2" x="381.8" y="314.9" width="8.6" height="51.2"/>
  <rect class="cls-2" x="392.3" y="314.9" width="8.6" height="51.2"/>
  <rect class="cls-2" x="402.8" y="314.9" width="8.6" height="51.2"/>
  <rect class="cls-2" x="413.3" y="314.9" width="8.6" height="51.2"/>
  <g class="cls-1">
    <rect class="cls-2" x="423.8" y="314.9" width="8.6" height="51.2"/>
  </g>
  <g class="cls-1">
    <rect class="cls-2" x="434.3" y="314.9" width="8.6" height="51.2"/>
  </g>
  <g class="cls-1">
    <rect class="cls-2" x="444.8" y="314.9" width="8.6" height="51.2"/>
  </g>
  <g class="cls-1">
    <rect class="cls-2" x="455.2" y="314.9" width="8.6" height="51.2"/>
  </g>
  <g class="cls-1">
    <rect class="cls-2" x="465.7" y="314.9" width="8.6" height="51.2"/>
  </g>
  <g class="cls-1">
    <rect class="cls-2" x="476.2" y="314.9" width="8.6" height="51.2"/>
  </g>
  <g class="cls-1">
    <rect class="cls-2" x="486.7" y="314.9" width="8.6" height="51.2"/>
  </g>
  <g class="cls-1">
    <rect class="cls-2" x="497.2" y="314.9" width="8.6" height="51.2"/>
  </g>
  <g class="cls-1">
    <rect class="cls-2" x="507.7" y="314.9" width="8.6" height="51.2"/>
  </g>
  <g class="cls-1">
    <rect class="cls-2" x="518.2" y="314.9" width="8.6" height="51.2"/>
  </g>
  <g class="cls-1">
    <rect class="cls-2" x="528.7" y="314.9" width="8.6" height="51.2"/>
  </g>
  <g class="cls-1">
    <rect class="cls-2" x="539.2" y="314.9" width="8.6" height="51.2"/>
  </g>
  <g class="cls-1">
    <rect class="cls-2" x="549.7" y="314.9" width="8.6" height="51.2"/>
  </g>
  <g class="cls-1">
    <rect class="cls-2" x="560.1" y="314.9" width="8.6" height="51.2"/>
  </g>
  <g class="cls-1">
    <rect class="cls-2" x="570.6" y="314.9" width="8.6" height="51.2"/>
  </g>
  <g class="cls-1">
    <rect class="cls-2" x="581.1" y="314.9" width="8.6" height="51.2"/>
  </g>
  <g class="cls-1">
    <rect class="cls-2" x="591.6" y="314.9" width="8.6" height="51.2"/>
  </g>
  <g class="cls-1">
    <rect class="cls-2" x="602.1" y="314.9" width="8.6" height="51.2"/>
  </g>
  <g class="cls-1">
    <rect class="cls-2" x="612.6" y="314.9" width="8.6" height="51.2"/>
  </g>
  <g class="cls-1">
    <rect class="cls-2" x="623.1" y="314.9" width="8.6" height="51.2"/>
  </g>
  <g class="cls-1">
    <rect class="cls-2" x="633.6" y="314.9" width="8.6" height="51.2"/>
  </g>
  <g class="cls-1">
    <rect class="cls-2" x="644.1" y="314.9" width="8.6" height="51.2"/>
  </g>
  <g class="cls-1">
    <rect class="cls-2" x="654.6" y="314.9" width="8.6" height="51.2"/>
  </g>
  <g class="cls-1">
    <rect class="cls-2" x="665.2" y="314.9" width="8.6" height="51.2"/>
  </g>
  <path class="cls-2" d="M343,289.2c0-1,.1-1.9.3-2.6.2-.7.4-1.3.7-1.8.3-.5.6-.9,1-1.2.4-.3.8-.5,1.2-.7.4-.2.8-.3,1.2-.3s.8-.1,1.1-.1c.9,0,1.6.1,2.2.3.6.2,1.1.5,1.5.9s.7.8.9,1.3c.2.5.3,1,.3,1.6s0,.6-.1,1-.1.7-.3,1.1h-2.5v-.7c0-.7,0-1.2-.1-1.6s-.2-.7-.4-1c-.2-.2-.4-.4-.6-.5-.3-.1-.6-.1-.9-.1-.7,0-1.3.2-1.7.7-.4.5-.6,1.3-.6,2.4v4.2c.3-.4.7-.7,1.3-.9.5-.2,1.1-.4,1.8-.4s1,.1,1.5.2c.5.2,1,.4,1.4.8s.8,1,1,1.6c.3.7.4,1.6.4,2.7v2.1c0,1.2-.1,2.2-.4,3-.2.8-.6,1.5-1,1.9s-1,.9-1.6,1.1-1.3.3-2.1.3-1.7-.1-2.4-.4c-.7-.2-1.3-.6-1.7-1.2-.5-.5-.8-1.2-1.1-2.1-.2-.8-.4-1.9-.4-3.1v-8.5h.1ZM346.3,299.4c0,1,.2,1.7.5,2.2s.9.7,1.6.7,1.1-.2,1.4-.7.5-1.2.5-2.1v-3.2c0-.5,0-1-.1-1.3-.1-.4-.2-.6-.4-.9-.2-.2-.4-.4-.6-.5s-.5-.1-.8-.1-.4,0-.7.1c-.2.1-.4.2-.6.3-.2.1-.3.2-.5.4l-.4.4v4.7h.1Z"/>
  <path class="cls-2" d="M356.3,289c0-1,.1-1.8.3-2.5.2-.7.4-1.3.7-1.8.3-.5.6-.9,1-1.1.4-.3.8-.5,1.2-.7.4-.2.8-.3,1.2-.3.4-.1.8-.1,1.1-.1s.7,0,1.1.1c.4,0,.8.1,1.2.3.4.1.8.4,1.1.7.4.3.7.7,1,1.1.3.5.5,1.1.7,1.8.2.7.3,1.5.3,2.5v9.2c0,1-.1,1.8-.3,2.5-.2.7-.4,1.3-.7,1.8-.3.5-.6.9-1,1.2-.4.3-.8.5-1.2.7-.4.2-.8.3-1.2.3-.4.1-.7.1-1,.1s-.7,0-1.1-.1-.8-.2-1.2-.3c-.4-.2-.8-.4-1.2-.7-.4-.3-.7-.7-1-1.2s-.5-1.1-.7-1.8c-.2-.7-.3-1.5-.3-2.5v-9.2ZM359.7,299.6c0,.9.2,1.6.5,2s.8.6,1.5.6,1.1-.2,1.5-.6c.3-.4.5-1.1.5-2v-11.8c0-1-.2-1.6-.5-2.1-.3-.4-.8-.7-1.5-.7s-1.2.2-1.5.7c-.3.4-.5,1.1-.5,2.1v11.8Z"/>
  <path class="cls-2" d="M374.5,294.6c-.5,0-1-.1-1.5-.2s-.9-.4-1.3-.8-.7-1-1-1.7-.4-1.7-.4-2.9v-1.4c0-.8.1-1.4.2-2s.3-1.1.5-1.5.4-.7.7-1,.6-.4.9-.6c.3-.1.6-.2.9-.3.3-.1.6-.1.9-.1s.6,0,.9.1c.3,0,.6.1.9.3.3.1.6.3.9.6.3.2.5.6.7,1s.4.9.5,1.5.2,1.2.2,2v1.4c0,1.2-.1,2.1-.4,2.8-.3.7-.6,1.3-1,1.7-.4.4-.8.7-1.3.8-.4.2-.9.3-1.3.3ZM374.5,292.5c.5,0,.9-.2,1.1-.7s.3-1.2.3-2.2v-2.5c0-1-.1-1.7-.3-2.2-.2-.5-.6-.7-1.1-.7s-1,.2-1.2.7-.3,1.2-.3,2.2v2.5c0,1,.1,1.7.3,2.2.3.5.7.7,1.2.7ZM382.2,282.5h2.3l-5.9,22.1h-2.3l5.9-22.1ZM382.3,297.9c0-1.2.1-2.1.4-2.8.3-.7.6-1.2,1-1.6s.9-.6,1.3-.8c.5-.1,1-.2,1.4-.2s.6,0,.9.1c.3,0,.6.1.9.3.3.1.6.3.9.6.3.2.5.6.7,1s.4.9.5,1.5.2,1.2.2,2v1.4c0,.8-.1,1.5-.2,2-.1.6-.3,1.1-.5,1.5s-.4.7-.7,1c-.3.3-.6.5-.9.6-.3.2-.6.3-.9.3-.3.1-.6.1-.9.1s-.6,0-1-.1c-.3-.1-.6-.2-.9-.3-.3-.1-.6-.3-.9-.6-.3-.3-.5-.6-.7-1s-.4-.9-.5-1.5-.2-1.3-.2-2.1v-1.4h.1ZM384.9,299.9c0,1,.1,1.7.3,2.2.2.5.6.7,1.2.7s.9-.2,1.1-.7.3-1.2.3-2.2v-2.5c0-1-.1-1.7-.3-2.2-.2-.5-.6-.7-1.1-.7s-1,.2-1.2.7-.3,1.2-.3,2.2v2.5Z"/>
</svg>