<?xml version="1.0" encoding="utf-8"?>
<!-- Generator: Adobe Illustrator 28.0.0, SVG Export Plug-In . SVG Version: 6.00 Build 0)  -->
<svg version="1.1" id="Layer_1" xmlns:xodm="http://www.corel.com/coreldraw/odm/2003"
	 xmlns="http://www.w3.org/2000/svg" xmlns:xlink="http://www.w3.org/1999/xlink" x="0px" y="0px" viewBox="0 0 720 720"
	 style="enable-background:new 0 0 720 720;" xml:space="preserve">
<style type="text/css">
	.st0{fill:#C12026;}
	.st1{opacity:0.5;fill:#C12026;}
</style>
<path class="st0" d="M266.1,319.3h-36.8v-15.2h57.2v9.1L252,417.3h-20.6L266.1,319.3z"/>
<path class="st0" d="M296.1,336.5c0-4.9,0.5-9.2,1.5-12.8c1-3.6,2.3-6.6,4-9.1c1.6-2.5,3.5-4.4,5.7-5.9c2.2-1.5,4.4-2.7,6.6-3.5
	s4.5-1.4,6.8-1.6c2.3-0.3,4.4-0.4,6.3-0.4c1.8,0,3.8,0.1,6,0.4c2.2,0.2,4.5,0.8,6.7,1.5s4.5,1.9,6.6,3.4c2.1,1.5,4,3.5,5.6,5.9
	c1.6,2.5,3,5.5,4,9.1c1,3.6,1.5,8,1.5,13v47.8c0,4.9-0.5,9.2-1.5,12.8c-1,3.6-2.3,6.7-4,9.2c-1.7,2.5-3.6,4.6-5.7,6.1
	c-2.1,1.6-4.4,2.8-6.6,3.6c-2.3,0.9-4.5,1.4-6.7,1.8c-2.2,0.3-4.2,0.5-6,0.5c-2,0-4.1-0.2-6.4-0.5c-2.3-0.3-4.6-0.9-6.9-1.8
	c-2.3-0.9-4.5-2.1-6.6-3.6c-2.1-1.5-4-3.6-5.6-6.1c-1.6-2.5-2.9-5.6-3.9-9.2c-1-3.6-1.5-7.9-1.5-12.9V336.5z M315.6,391.5
	c0,4.7,0.9,8.1,2.8,10.2c1.9,2.1,4.7,3.2,8.6,3.2c3.8,0,6.6-1.1,8.4-3.2c1.9-2.1,2.8-5.5,2.8-10.2v-61.3c0-4.9-0.9-8.6-2.8-10.8
	c-1.9-2.2-4.7-3.4-8.4-3.4c-3.9,0-6.7,1.1-8.6,3.4c-1.9,2.3-2.8,5.9-2.8,10.8V391.5z"/>
<path class="st0" d="M400.3,365.2c-2.8,0-5.6-0.4-8.4-1.1c-2.8-0.7-5.4-2.1-7.6-4.1c-2.3-2.1-4.1-5-5.5-8.7
	c-1.4-3.8-2.1-8.7-2.1-14.9v-7.1c0-4,0.3-7.5,1-10.4s1.6-5.4,2.8-7.5c1.2-2.1,2.6-3.8,4.1-5c1.6-1.3,3.2-2.3,5-3
	c1.8-0.7,3.6-1.2,5.4-1.5c1.8-0.3,3.6-0.4,5.4-0.4c1.7,0,3.4,0.1,5.2,0.4c1.8,0.2,3.6,0.7,5.3,1.4c1.7,0.7,3.4,1.7,4.9,2.9
	c1.6,1.3,2.9,2.9,4.1,5c1.2,2.1,2.1,4.6,2.8,7.6c0.7,3,1,6.5,1,10.5v7.1c0,6-0.8,11-2.3,14.7c-1.5,3.8-3.4,6.7-5.8,8.8
	c-2.3,2.1-4.9,3.5-7.6,4.2C405.4,364.9,402.8,365.2,400.3,365.2z M400.5,354.7c3.1,0,5.2-1.2,6.5-3.6s1.8-6.2,1.8-11.2V327
	c0-5.1-0.6-8.9-1.8-11.3c-1.2-2.4-3.4-3.6-6.5-3.6c-3.2,0-5.5,1.2-6.8,3.6c-1.3,2.4-1.9,6.2-1.9,11.3v12.9c0,5.1,0.7,8.8,1.9,11.2
	C395,353.5,397.2,354.7,400.5,354.7z M444.8,302.9H458l-33.7,114.4H411L444.8,302.9z M444.9,382.4c0-6,0.7-10.9,2.2-14.5
	c1.5-3.6,3.4-6.5,5.7-8.4s4.9-3.3,7.7-3.9s5.5-1,8.1-1c1.7,0,3.4,0.1,5.2,0.4c1.8,0.2,3.6,0.7,5.3,1.4c1.7,0.7,3.4,1.7,5,2.9
	c1.6,1.3,2.9,2.9,4.1,5c1.2,2.1,2.1,4.6,2.8,7.5c0.7,3,1,6.5,1,10.5v7.1c0,4.1-0.4,7.6-1.1,10.6c-0.7,3-1.7,5.6-2.9,7.7
	c-1.2,2.1-2.6,3.9-4.1,5.2c-1.6,1.4-3.2,2.4-4.9,3.2c-1.7,0.8-3.5,1.3-5.3,1.6c-1.8,0.3-3.5,0.4-5.1,0.4c-1.9,0-3.7-0.1-5.6-0.4
	c-1.9-0.3-3.7-0.8-5.4-1.6c-1.7-0.8-3.4-1.8-4.9-3.2c-1.5-1.4-2.9-3.1-4-5.2c-1.1-2.1-2-4.7-2.7-7.7c-0.7-3-1-6.6-1-10.7V382.4z
	 M459.9,392.9c0,5.1,0.6,8.8,1.9,11.2c1.3,2.4,3.6,3.6,6.8,3.6c3.1,0,5.2-1.2,6.5-3.6c1.2-2.4,1.8-6.2,1.8-11.2v-12.9
	c0-5.1-0.6-8.9-1.8-11.3c-1.2-2.4-3.4-3.6-6.5-3.6c-3.2,0-5.5,1.2-6.8,3.6c-1.3,2.4-1.9,6.2-1.9,11.3V392.9z"/>
<path class="st1" d="M199.5,303.6c8.3-24,22-45.9,40.5-64.4c5.5-5.5,11.3-10.6,17.4-15.2l-79-108.7C129.4,152,91.7,203,71.7,262.1
	L199.5,303.6z"/>
<path class="st1" d="M190,359.9c0-16.9,2.4-33.4,7.2-49.2L69.4,269.2c-8.9,28.7-13.7,59.1-13.7,90.7s4.8,62.1,13.7,90.7l127.8-41.5
	C192.5,393.3,190,376.8,190,359.9z"/>
<path class="st0" d="M531.2,359.9c0,16.9-2.4,33.4-7.2,49.2l127.8,41.5c8.9-28.7,13.7-59.1,13.7-90.7s-4.8-62.1-13.7-90.7
	l-127.8,41.5C528.8,326.5,531.2,343,531.2,359.9z"/>
<path class="st0" d="M521.8,416.2c-8.3,24-22,45.9-40.5,64.4c-5.5,5.5-11.3,10.6-17.4,15.2l79,108.7c49-36.6,86.7-87.6,106.7-146.7
	L521.8,416.2z"/>
<path class="st0" d="M240,480.5c-18.5-18.5-32.2-40.4-40.5-64.4L71.7,457.7c20,59.1,57.7,110.1,106.7,146.7l79-108.7
	C251.3,491.1,245.5,486,240,480.5z"/>
<path class="st0" d="M481.3,239.3c18.5,18.5,32.2,40.4,40.5,64.4l127.8-41.5c-20-59.1-57.7-110.1-106.7-146.7l-79,108.7
	C470,228.7,475.8,233.8,481.3,239.3z"/>
<path class="st0" d="M457.9,500.1c-27.4,19.1-59.6,29.6-93.6,30.4v134.3c64.2-0.8,123.7-21.4,172.5-56L457.9,500.1z"/>
<path class="st0" d="M356.9,530.5c-33.9-0.7-66.2-11.3-93.6-30.4l-79,108.7c48.8,34.6,108.3,55.3,172.5,56V530.5z"/>
<path class="st1" d="M263.3,219.7c27.4-19.1,59.6-29.6,93.6-30.4V55c-64.2,0.8-123.7,21.4-172.5,56L263.3,219.7z"/>
<path class="st0" d="M364.3,189.3c33.9,0.7,66.2,11.3,93.6,30.4l79-108.7C488,76.4,428.6,55.8,364.3,55V189.3z"/>
</svg>
