<?xml version="1.0" encoding="utf-8"?>
<!-- Generator: Adobe Illustrator 28.0.0, SVG Export Plug-In . SVG Version: 6.00 Build 0)  -->
<svg version="1.1" id="Layer_1" xmlns:xodm="http://www.corel.com/coreldraw/odm/2003"
	 xmlns="http://www.w3.org/2000/svg" xmlns:xlink="http://www.w3.org/1999/xlink" x="0px" y="0px" viewBox="0 0 720 720"
	 style="enable-background:new 0 0 720 720;" xml:space="preserve">
<path d="M358.9,682c-1.5,0-3,0-4.7,0l0,0v-0.1l0.9-67.6h0.1c1.9,0,3.8,0,5.7,0h0.1v0.1l0.5,67.6h-0.1
	C360.5,681.9,359.7,682,358.9,682z M368.4,681.8L368.4,681.8l-2-67.7h0.1c1.8-0.1,3.7-0.1,5.7-0.2h0.1v0.1l3.4,67.6h-0.1
	C373.2,681.6,370.9,681.7,368.4,681.8L368.4,681.8z M347.2,681.7L347.2,681.7c-2.5-0.1-4.8-0.2-7.2-0.4h-0.1v-0.1l3.9-67.5h0.1
	c1.9,0.1,3.8,0.2,5.7,0.3h0.1v0.1L347.2,681.7z M382.6,681L382.6,681l-4.9-67.5h0.1c1.9-0.1,3.8-0.3,5.7-0.5h0.1v0.1l6.3,67.3h-0.1
	C387.4,680.7,385,680.9,382.6,681L382.6,681z M332.9,680.9L332.9,680.9c-2.4-0.2-4.8-0.4-7.2-0.7h-0.1v-0.1l6.9-67.3h0.1
	c1.9,0.2,3.8,0.4,5.6,0.5h0.1v0.1L332.9,680.9z M396.8,679.7l-7.9-67.2h0.1c1.8-0.2,3.6-0.5,5.6-0.8h0.1v0.1l9.4,67H404
	C401.7,679.1,399.3,679.4,396.8,679.7L396.8,679.7z M318.7,679.4L318.7,679.4c-2.4-0.3-4.7-0.7-7.1-0.9h-0.1l0,0l9.9-66.9h0.1
	c1.9,0.3,3.8,0.6,5.6,0.8h0.1v0.1L318.7,679.4z M411,677.7L411,677.7l-10.8-66.8h0.1c1.9-0.3,3.8-0.7,5.6-0.9h0.1v0.1l12.3,66.5
	h-0.1C415.8,677,413.4,677.3,411,677.7L411,677.7z M304.5,677.3L304.5,677.3c-2.4-0.4-4.7-0.9-7.1-1.3h-0.1v-0.1l12.8-66.4l0,0
	c1.8,0.4,3.7,0.7,5.6,1h0.1v0.1L304.5,677.3z M425.1,675.2L425.1,675.2L411.3,609v-0.2l0.1,0.2c1.9-0.4,3.7-0.8,5.5-1.2h0.1
	l15.3,65.9h-0.1C429.7,674.1,427.4,674.7,425.1,675.2L425.1,675.2z M290.5,674.7L290.5,674.7c-2.4-0.5-4.7-1-7-1.6h-0.1V673
	l15.7-65.8h0.1c1.8,0.5,3.6,0.9,5.5,1.2l0.1-0.4v0.4v0.1L290.5,674.7z M439,671.9L439,671.9l-16.7-65.6l0,0c1.8-0.5,3.7-0.9,5.5-1.4
	h0.1v0.1l18.2,65.1H446C443.6,670.7,441.4,671.4,439,671.9L439,671.9z M276.7,671.4L276.7,671.4c-2.3-0.6-4.6-1.2-6.9-1.9l-0.1,0.4
	v-0.4l0,0l18.7-65.3v0.3c1.8,0.6,3.7,1,5.4,1.5l0,0v0.1L276.7,671.4z M452.7,668.1L452.7,668.1l-19.6-64.7l0,0
	c1.7-0.6,3.5-1,5.4-1.7h0.1l0,0l21,64.3h-0.1C457.4,666.6,455.1,667.4,452.7,668.1L452.7,668.1z M262.9,667.4L262.9,667.4
	c-2.3-0.7-4.5-1.4-6.9-2.2h-0.1v-0.1l21.5-64.1h0.1c1.8,0.6,3.6,1.2,5.4,1.7l0,0v0.1L262.9,667.4z M466.3,663.7L466.3,663.7
	l-22.5-63.8h0.1c1.7-0.6,3.5-1.2,5.3-1.9h0.1v0.1l23.9,63.2l0,0C470.8,662.1,468.6,662.8,466.3,663.7L466.3,663.7z M249.3,662.8
	L249.3,662.8c-2.3-0.9-4.5-1.7-6.8-2.6l0,0l0,0l24.4-63.1h0.1c1.8,0.7,3.5,1.3,5.3,2l0,0v0.1L249.3,662.8z M479.8,658.6L479.8,658.6
	l-25.3-62.7h0.1c1.7-0.7,3.5-1.4,5.2-2.2h0.1l0,0l26.6,62.2h-0.1C484.2,656.8,481.9,657.7,479.8,658.6L479.8,658.6z M235.9,657.7
	L235.9,657.7c-2.2-0.9-4.5-1.9-6.6-2.8h-0.1l0,0l27.1-61.9h0.1c1.6,0.8,3.4,1.5,5.2,2.2h0.1v0.1L235.9,657.7z M492.7,653L492.7,653
	l-28.1-61.6h0.1c1.7-0.8,3.5-1.6,5.1-2.4l0,0l0,0l29.4,60.9h-0.1C497.2,651,495,651.9,492.7,653L492.7,653z M222.8,651.9
	L222.8,651.9c-2.2-1-4.4-2-6.4-3.1l-0.1,0.3v-0.4l0,0l29.9-60.7l0,0c1.7,0.9,3.4,1.6,5.1,2.5h0.1l0,0L222.8,651.9z M505.6,646.8
	L505.6,646.8l-30.7-60.3h0.1c1.7-0.9,3.3-1.7,5-2.7h0.1v0.1l32,59.5h-0.1C509.8,644.6,507.6,645.8,505.6,646.8L505.6,646.8z
	 M210,645.6L210,645.6c-2.2-1.1-4.3-2.3-6.3-3.4l0,0l0,0l32.5-59.2l0,0c1.6,0.9,3.3,1.8,5,2.7h0.1l0,0L210,645.6z M518.1,640.1
	L518.1,640.1l-33.4-58.9l0,0c1.6-0.9,3.2-1.9,4.8-2.8l0,0l0,0l34.7,58.1h-0.1C522.3,637.6,520.3,638.9,518.1,640.1L518.1,640.1z
	 M197.4,638.8L197.4,638.8c-2.2-1.2-4.2-2.5-6.2-3.7h-0.1V635l35.2-57.8l0,0c1.5,0.9,3.1,1.9,4.8,2.8l0,0l0.1,0.1l0,0l0.1,0.1h-0.1
	L197.4,638.8z M530.5,632.9l-0.1-0.2l-35.9-57.2l0,0c1.6-0.9,3.2-2,4.7-3l0,0v0.1l37.1,56.5h-0.1c-2,1.3-4,2.6-6,3.9v0H530.5z
	 M185.2,631.3L185.2,631.3c-2.1-1.3-4.1-2.7-6.1-4l0,0v-0.1l37.6-56.1h0.2h-0.1c1.6,1.1,3.1,2.1,4.7,3l0,0l0,0L185.2,631.3z
	 M542.3,624.9l-38.5-55.7l0,0c1.5-1,3.1-2.2,4.6-3.2l0,0l0,0l39.6,54.8l0,0C546.3,622.2,544.3,623.5,542.3,624.9L542.3,624.9z
	 M173.4,623.3L173.4,623.3c-2-1.4-4-2.8-5.9-4.2l0,0l0,0l40.1-54.5l0,0c1.4,1,3,2.2,4.6,3.3l0,0l0,0L173.4,623.3z M553.9,616.6
	L513,562.7l0,0c1.4-1,2.9-2.3,4.5-3.4l0,0l0,0l42,53l0,0C557.7,613.7,555.8,615.1,553.9,616.6L553.9,616.6z M161.8,614.9
	L161.8,614.9c-1.9-1.4-3.8-2.9-5.7-4.5l0,0l0,0l42.5-52.6l0,0c1.5,1.2,3,2.4,4.5,3.5l0,0l0,0L161.8,614.9z M565,607.7L565,607.7
	l-43.2-52.1l0,0c1.4-1.2,2.9-2.5,4.3-3.7l0,0l0,0l44.3,51.1l0,0C568.6,604.7,566.8,606.2,565,607.7L565,607.7z M150.7,606L150.7,606
	c-1.9-1.6-3.7-3.1-5.5-4.7l0,0l44.7-50.7l0,0c1.3,1.2,2.8,2.5,4.3,3.7l0,0l0,0L150.7,606z M575.8,598.4L575.8,598.4l-45.4-50.1l0,0
	c1.4-1.3,2.8-2.6,4.2-3.9l0,0l46.5,49.1l0,0C579.4,595.2,577.6,596.8,575.8,598.4L575.8,598.4z M140,596.5L140,596.5
	c-1.8-1.6-3.5-3.2-5.2-4.9l-0.1,0.1v-0.2l0,0l46.9-48.7l0,0c1.4,1.3,2.7,2.7,4.1,3.9l0.1-0.1v0.1l0,0v0.2l-0.1-0.1L140,596.5z
	 M586.2,588.5L586.2,588.5l-47.6-48.1l0,0c1.3-1.3,2.7-2.7,4-4l0,0l0,0l48.6,47l0,0C589.6,585.1,587.9,586.8,586.2,588.5
	L586.2,588.5z M129.7,586.6L129.7,586.6c-1.6-1.7-3.3-3.4-5-5.1l0,0l0,0l49-46.6l0,0c1.2,1.3,2.6,2.7,4,4.1l0,0l0,0L129.7,586.6z
	 M596,578.3L596,578.3l-49.7-46v-0.2l0.1,0.1c1.2-1.3,2.5-2.7,3.8-4.2l0,0l0,0l50.6,44.8l0,0C599.3,574.9,597.6,576.6,596,578.3
	L596,578.3z M119.8,576.3L119.8,576.3c-1.6-1.8-3.2-3.6-4.7-5.4l0,0l0,0l51-44.4l0,0c1.2,1.4,2.6,2.8,3.8,4.3l0,0l0,0L119.8,576.3z
	 M605.5,567.6L605.5,567.6l-51.6-43.7l0,0c1.2-1.4,2.5-2.9,3.6-4.4l0,0l0,0l52.5,42.6l0,0C608.6,564,607.1,565.8,605.5,567.6
	L605.5,567.6L605.5,567.6z M110.5,565.5L110.5,565.5c-1.5-1.8-3-3.7-4.5-5.6l0,0l0,0l52.9-42.2v0.1c1.2,1.5,2.4,2.9,3.6,4.4l0,0l0,0
	L110.5,565.5z M614.5,556.5L614.5,556.5l-53.4-41.4l0,0c1.1-1.4,2.2-2.9,3.4-4.5l0,0l0,0l54.4,40.2v0.1
	C617.4,552.8,615.9,554.7,614.5,556.5L614.5,556.5z M101.6,554.3L101.6,554.3c-1.4-1.9-2.8-3.8-4.3-5.7l0,0v-0.1l0,0l54.7-39.7l0,0
	c1.1,1.6,2.3,3.1,3.4,4.5l0,0l0,0L101.6,554.3z M623,545L623,545l-55.2-39l0,0c1.1-1.6,2.2-3.1,3.2-4.6l0,0l0,0l56.1,37.8l0,0
	C625.8,541.2,624.5,543.2,623,545L623,545L623,545z M93.2,542.9L93.2,542.9c-1.4-2.1-2.7-4.1-4.1-6l0,0l0,0l56.4-37.3l0,0
	c1,1.6,2.1,3.1,3.2,4.6l0,0l0,0L93.2,542.9z M631,533.2L631,533.2l-57-36.6l0,0c1-1.6,2-3.2,3-4.8v-0.1l0,0l57.7,35.3l0,0
	C633.6,529.2,632.3,531.2,631,533.2L631,533.2z M85.3,530.9L85.3,530.9c-1.3-2.1-2.6-4.1-3.8-6.2v-0.1h0.1l58-34.8l0,0
	c0.9,1.6,2,3.2,2.9,4.8l0,0h-0.1L85.3,530.9z M638.5,521.1L638.5,521.1l-58.6-34V487c0.9-1.6,1.9-3.3,2.7-4.9l0,0h0.1l59.2,32.7v0.1
	C640.9,516.8,639.7,519,638.5,521.1L638.5,521.1z M78,518.7L78,518.7c-1.2-2.1-2.4-4.2-3.5-6.3l0,0l0,0l59.4-32.2l0,0
	c0.9,1.7,1.8,3.3,2.7,4.9v0.1h-0.1L78,518.7z M645.4,508.5L645.4,508.5l-60-31.4V477c0.9-1.6,1.7-3.3,2.6-5v-0.1h0.1l60.6,30v0.1
	C647.6,504.2,646.5,506.4,645.4,508.5L645.4,508.5z M71.2,506.2L71.2,506.2c-1.1-2.2-2.2-4.4-3.2-6.4v-0.1l0,0l60.8-29.6v0.1
	c0.8,1.6,1.6,3.3,2.5,4.9l0,0v0.2h-0.1L71.2,506.2z M651.8,495.7L590.4,467l0,0c0.9-1.7,1.6-3.5,2.4-5.1l0,0h0.1l61.9,27.3l0,0
	C653.7,491.3,652.8,493.5,651.8,495.7L651.8,495.7z M65.1,493.4L65.1,493.4c-1-2.3-2-4.5-2.9-6.5l0,0l0,0l62.1-26.8l0,0
	c0.8,1.8,1.5,3.5,2.3,5.1v0.1l0,0L65.1,493.4z M657.5,482.6L657.5,482.6l-62.5-26v-0.1c0.7-1.6,1.4-3.4,2.1-5.2v-0.1h0.1l63,24.5
	v0.1C659.3,478.1,658.5,480.3,657.5,482.6L657.5,482.6z M59.4,480.3L59.4,480.3c-0.9-2.3-1.8-4.5-2.7-6.7l0,0l0,0l63.2-24.1l0,0
	c0.7,1.7,1.3,3.5,2.1,5.3l0,0h-0.1L59.4,480.3z M662.7,469.2L662.7,469.2l-63.6-23.1V446c0.7-1.8,1.2-3.5,1.9-5.3l-0.2-0.1h0.3l0,0
	l64,21.7v0.1C664.4,464.6,663.6,466.9,662.7,469.2L662.7,469.2z M54.2,467L54.2,467c-0.8-2.3-1.6-4.5-2.4-6.8V460l64.3-21.2v0.1
	c0.6,1.8,1.2,3.6,1.8,5.3v0.1h-0.1L54.2,467z M667.4,455.6L667.4,455.6l-64.5-20.3v-0.1c0.6-1.7,1.1-3.6,1.6-5.4v-0.1h0.1l64.9,18.8
	v0.1C668.7,451,668.1,453.3,667.4,455.6L667.4,455.6z M49.8,453.4L49.8,453.4c-0.8-2.4-1.4-4.7-2-6.9v-0.1l0,0l65-18.3v0.1l0,0
	c0.5,1.8,1,3.6,1.6,5.4v0.1l0,0L49.8,453.4z M671.3,441.8L671.3,441.8l-65.4-17.3v-0.1c0.5-1.8,0.9-3.7,1.4-5.5l0,0h0.1l65.7,15.9
	v0.1C672.5,437.2,671.9,439.5,671.3,441.8L671.3,441.8z M45.9,439.7L45.9,439.7c-0.6-2.3-1.1-4.6-1.7-7v-0.1h0.1l65.9-15.4v0.1
	c0.4,1.8,0.9,3.6,1.3,5.5v0.1h-0.1L45.9,439.7z M674.7,428L674.7,428l-66.1-14.4v-0.1l0,0c0.4-1.9,0.8-3.7,1.1-5.5l0,0h0.1l66.3,13
	v0.1C675.6,423.3,675.2,425.6,674.7,428L674.7,428z M42.7,425.7L42.7,425.7c-0.5-2.4-0.9-4.6-1.4-7v-0.1h0.1l66.4-12.5v0.1
	c0.4,1.9,0.8,3.7,1.1,5.5v0.1h-0.1L42.7,425.7z M677.4,414L677.4,414l-66.7-11.5v-0.1c0.3-1.9,0.7-3.7,0.9-5.6h0.1v-0.1l66.9,10v0.1
	C678.2,409.2,677.8,411.6,677.4,414L677.4,414z M40,411.7L40,411.7c-0.4-2.4-0.8-4.7-1.1-7.1v-0.1H39l66.9-9.5v0.1
	c0.3,1.8,0.6,3.7,0.9,5.6v0.1h-0.1L40,411.7z M679.5,399.9L679.5,399.9l-67.1-8.5v-0.1c0.3-1.9,0.5-3.7,0.7-5.6v-0.1h0.1l67.2,7v0.1
	C680.1,395.1,679.8,397.5,679.5,399.9L679.5,399.9z M38,397.6L38,397.6c-0.3-2.4-0.6-4.8-0.8-7.1v-0.1l67.4-6.5v0.1
	c0.2,1.9,0.4,3.7,0.6,5.6v0.1h-0.1L38,397.6z M681,385.6L681,385.6l-67.5-5.6V380c0.2-1.8,0.3-3.7,0.4-5.7v-0.1h0.1l67.5,4.1v0.1
	C681.4,380.8,681.2,383.2,681,385.6L681,385.6z M36.6,383.4L36.6,383.4c-0.2-2.3-0.3-4.6-0.5-7.1v-0.1h0.1l67.5-3.6v0.1
	c0.1,1.9,0.2,3.8,0.4,5.7v0.1H104L36.6,383.4z M681.9,371.4l-67.6-2.6v-0.1c0.1-1.9,0.1-3.8,0.2-5.7V363h0.1l67.6,1.1v0.1
	C682.1,366.6,682,369,681.9,371.4L681.9,371.4z M35.9,369.2L35.9,369.2c-0.1-2.4-0.1-4.8-0.2-7.2v-0.1l67.7-0.7v0.1
	c0,1.8,0.1,3.7,0.1,5.7v0.1h-0.1L35.9,369.2z M614.4,357.5L614.4,357.5c0-1.9,0-3.8-0.1-5.7v-0.1h0.1l67.6-1.8v0.1
	c0.1,2.5,0.1,4.8,0.1,7.1l-0.1,0.1L614.4,357.5z M103.4,353.1L103.4,353.1l-67.7-1.5v-0.1c0.1-2.4,0.1-4.8,0.3-7.1v-0.1h0.1
	l67.6,2.9v0.1C103.5,349.4,103.4,351.2,103.4,353.1L103.4,353.1z M614.1,346.2L614.1,346.2c-0.1-1.9-0.2-3.8-0.4-5.7v-0.1h0.1
	l67.5-4.7v0.1c0.2,2.5,0.3,4.8,0.4,7.1v0.1h-0.1L614.1,346.2z M103.9,341.9L103.9,341.9l-67.5-4.5v-0.1c0.2-2.3,0.3-4.7,0.6-7.1
	v-0.1h0.1l67.4,5.9v0.1C104.2,338.1,104,340,103.9,341.9L103.9,341.9z M613.4,334.9L613.4,334.9c-0.2-1.9-0.4-3.8-0.6-5.7v-0.1h0.1
	l67.2-7.7v0.1c0.3,2.4,0.6,4.7,0.8,7.1v0.1h-0.1L613.4,334.9z M104.9,330.6L104.9,330.6l-67.3-7.4v-0.1c0.3-2.4,0.6-4.8,0.9-7.1
	v-0.1h0.1l67,8.8v0.1C105.3,326.8,105.1,328.7,104.9,330.6L104.9,330.6z M612,323.7L612,323.7c-0.3-1.9-0.6-3.8-0.9-5.7v-0.1h0.1
	l66.7-10.7v0.1c0.4,2.4,0.8,4.7,1,7.1v0.1L612,323.7z M106.4,319.4L106.4,319.4l-66.9-10.3V309c0.4-2.4,0.8-4.7,1.1-7v-0.1h0.1
	l66.5,11.8l0,0C106.9,315.6,106.7,317.4,106.4,319.4L106.4,319.4z M610.3,312.6L610.3,312.6c-0.4-1.9-0.7-3.7-1-5.6v-0.1l0,0
	l66.2-13.6v0.1c0.5,2.4,0.9,4.7,1.3,7v0.1h-0.1L610.3,312.6z M108.3,308.2L108.3,308.2L41.9,295v-0.1c0.5-2.4,0.9-4.6,1.5-7v-0.1
	h0.1l66,14.8v0.1C109.1,304.5,108.7,306.3,108.3,308.2h0.5H108.3z M608.1,301.5L608.1,301.5c-0.4-1.8-0.9-3.7-1.3-5.5v-0.1h0.1
	l65.6-16.6v0.1c0.6,2.3,1.1,4.6,1.7,6.9v0.1H674L608.1,301.5z M110.8,297.2L110.8,297.2L45.2,281v-0.1c0.6-2.3,1.1-4.6,1.8-6.9v-0.1
	H47l65.3,17.6v0.1C111.8,293.5,111.3,295.4,110.8,297.2L110.8,297.2z M605.2,290.6L605.2,290.6c-0.5-1.8-0.9-3.6-1.5-5.4l0,0v-0.1
	l0,0V285l0.1,0.1l64.7-19.4l0,0c0.7,2.3,1.3,4.5,2,6.9v0.1h-0.1L605.2,290.6z M113.8,286.4L113.8,286.4l-64.9-19.1v-0.1
	c0.7-2.3,1.4-4.5,2.1-6.8v-0.1H51l64.4,20.6v0.1C114.9,282.7,114.3,284.5,113.8,286.4L113.8,286.4z M602,279.8L602,279.8
	c-0.6-1.8-1.2-3.6-1.8-5.4l0,0h0.1l63.8-22.3l0,0c0.8,2.3,1.5,4.5,2.3,6.8v0.1l0,0L602,279.8z M117.2,275.6L117.2,275.6l-64-22v-0.1
	c0.8-2.2,1.6-4.5,2.4-6.7v-0.1l0,0l63.4,23.4v0.1l0,0C118.4,272,117.8,273.8,117.2,275.6L117.2,275.6z M598.3,269.1L598.3,269.1
	c-0.7-1.7-1.3-3.5-2.1-5.3v-0.1h0.1l62.7-25.1v0.1c0.9,2.2,1.8,4.5,2.6,6.6l0,0L598.3,269.1z M121.1,265L121.1,265l-62.9-24.8v-0.1
	c0.9-2.2,1.8-4.4,2.7-6.6v-0.1l62.4,26.3v0.1C122.5,261.5,121.8,263.2,121.1,265L121.1,265z M594.1,258.7L594.1,258.7
	c-0.8-1.7-1.5-3.5-2.3-5.2l0,0h0.1l61.6-27.9v0.1c0.9,2.2,2,4.4,2.8,6.5v0.1L594.1,258.7z M125.5,254.6L125.5,254.6L63.7,227v-0.1
	c0.9-2.2,2-4.4,3-6.5v-0.1h0.1l61.1,29l0,0C127.1,251.1,126.3,252.8,125.5,254.6L125.5,254.6z M589.5,248.4L589.5,248.4
	c-0.8-1.7-1.6-3.4-2.5-5.1h-0.2l0.2-0.1l60.3-30.6l0,0c1,2.1,2.1,4.3,3.1,6.4l0,0h-0.1L589.5,248.4z M130.3,244.4L130.3,244.4
	L69.9,214l0,0c1-2.1,2.1-4.2,3.3-6.3l0,0h0.1l59.7,31.7l0,0C132.1,241,131.2,242.6,130.3,244.4L130.3,244.4z M584.4,238.4
	L584.4,238.4c-0.9-1.7-1.8-3.3-2.7-5l0,0l0,0l58.9-33.2l0,0c1.1,2.1,2.3,4.2,3.4,6.3l0,0l0,0L584.4,238.4z M135.7,234.4L135.7,234.4
	l-59.1-33.1l0,0c1.1-2.1,2.4-4.2,3.6-6.3l0,0h0.1l58.3,34.3l0,0C137.5,231.1,136.5,232.7,135.7,234.4L135.7,234.4z M578.9,228.6
	L578.9,228.6c-0.9-1.6-2-3.2-2.9-4.8l0,0h0.1l57.3-35.7l0,0c1.2,2,2.5,4.1,3.7,6.1l0,0l0,0L578.9,228.6z M141.3,224.6L141.3,224.6
	l-57.5-35.5l0,0c1.2-2.1,2.6-4.1,3.8-6.1l0,0l0,0l56.7,36.8v0.1C143.4,221.3,142.4,222.9,141.3,224.6L141.3,224.6z M573,219L573,219
	c-1-1.5-2.1-3.1-3.2-4.7l0,0l0,0l55.7-38.3l0,0c1.3,1.9,2.7,3.9,4,6l0,0l0,0L573,219z M147.5,215.2L147.5,215.2l-55.9-38.1l0,0
	c1.3-1.9,2.7-3.9,4.1-5.9l0,0l0,0l55.1,39.3l0,0C149.7,212,148.5,213.6,147.5,215.2L147.5,215.2z M566.6,209.7L566.6,209.7
	c-1.1-1.5-2.3-3-3.4-4.5l0,0l0,0l54-40.7l0,0c1.4,1.8,2.7,3.8,4.2,5.7l0.1-0.1v0.2l0,0L566.6,209.7z M154,205.9L154,205.9
	l-54.1-40.5l0,0c1.4-1.9,2.8-3.8,4.4-5.7l0,0l0,0l53.3,41.7l0,0C156.4,202.8,155.2,204.4,154,205.9L154,205.9z M559.8,200.7h-0.2
	H559.8c-1.2-1.6-2.5-3-3.6-4.5l-0.1-0.1h0.1l52.1-43l0,0c1.5,1.8,3,3.7,4.5,5.5h0.1l-0.1,0.1L559.8,200.7z M161.1,197L161.1,197
	l-52.3-42.8l0,0c1.5-1.8,3-3.7,4.5-5.5l0,0l0,0l51.4,44l0,0C163.5,194,162.3,195.5,161.1,197L161.1,197z M552.5,191.9L552.5,191.9
	c-1.2-1.4-2.6-2.8-3.8-4.3l0,0l0,0l50.2-45.3l0,0c1.6,1.7,3.1,3.6,4.7,5.4l0,0l0,0L552.5,191.9z M168.3,188.4L168.3,188.4
	l-50.4-45.1l0,0c1.6-1.7,3.2-3.5,4.8-5.3l0,0l0,0l49.4,46.2v0.1C171,185.6,169.7,187,168.3,188.4L168.3,188.4z M545,183.6L545,183.6
	c-1.3-1.4-2.7-2.7-4-4.1l0,0l0,0l48.2-47.4l0,0c1.7,1.7,3.3,3.4,4.9,5.1h0.1l-0.1,0.1L545,183.6z M176.1,180.2L176.1,180.2
	l-48.4-47.3l0,0c1.6-1.7,3.3-3.4,5-5l0,0l0,0l47.3,48.3l0,0C178.8,177.4,177.4,178.8,176.1,180.2L176.1,180.2z M537.1,175.5
	L537.1,175.5c-1.3-1.3-2.7-2.7-4.2-3.9l0,0l0,0l46.1-49.5l0,0c1.8,1.7,3.5,3.3,5.2,4.9l0,0l0,0L537.1,175.5z M184.2,172.2
	L184.2,172.2l-46.2-49.4l0,0c1.7-1.6,3.5-3.2,5.3-4.8l0,0l0,0l45.1,50.3l0,0C187,169.7,185.6,170.9,184.2,172.2L184.2,172.2z
	 M528.8,167.8L528.8,167.8L528.8,167.8c-1.5-1.3-2.9-2.6-4.4-3.7l0,0l0,0l43.9-51.5l0,0c1.8,1.5,3.6,3.1,5.4,4.7l0,0l0,0
	L528.8,167.8z M192.5,164.7L192.5,164.7l-44-51.4l0,0c1.8-1.5,3.6-3.1,5.5-4.5l0,0l0,0l42.8,52.3l0,0
	C195.5,162.2,194.1,163.4,192.5,164.7L192.5,164.7z M520.2,160.5L520.2,160.5c-1.5-1.2-2.9-2.4-4.5-3.6l0,0l0,0l41.5-53.4l0,0
	c1.8,1.4,3.7,2.9,5.6,4.5l0,0l0,0L520.2,160.5z M201.3,157.5L201.3,157.5l-41.8-53.3l0,0c1.9-1.5,3.8-2.9,5.7-4.4l0,0h0.1l0,0
	l40.6,54.1h-0.1C204.4,155.2,202.8,156.3,201.3,157.5L201.3,157.5L201.3,157.5z M511.3,153.6L511.3,153.6c-1.5-1.1-3-2.3-4.5-3.3
	l-0.1,0.1v-0.2l0,0L545.8,95l0,0c1.8,1.3,3.8,2.7,5.8,4.2v0.1l0,0L511.3,153.6z M210.3,150.8L210.3,150.8l-39.4-55.1l0,0
	c2.1-1.4,4-2.7,5.8-4.1l0,0h0.2l0,0l38.1,55.8l0,0C213.5,148.6,211.8,149.7,210.3,150.8L210.3,150.8z M502.1,147L502.1,147
	c-1.6-1.1-3.2-2.2-4.7-3.1l0,0l0,0l36.7-56.8l0,0c1.9,1.2,3.9,2.6,6,4l0,0v0.1L502.1,147z M219.6,144.5l-37-56.7l0,0
	c2-1.3,4-2.6,6.1-3.8l0,0l35.6,57.5l0,0C222.8,142.4,221.3,143.3,219.6,144.5L219.6,144.5z M492.6,140.9L492.6,140.9
	c-1.7-1-3.3-2-4.8-2.9l-0.1,0.1v-0.1v-0.1l34.1-58.4l0,0c2.1,1.2,4.1,2.5,6.1,3.7l0.1-0.1v0.2l0,0L492.6,140.9z M229.2,138.5
	l-34.4-58.3l0,0c2-1.2,4.1-2.4,6.2-3.6l0,0l0,0l33.1,58.9l0,0C232.5,136.6,230.9,137.5,229.2,138.5L229.2,138.5z M482.8,135.3v-0.2
	c-1.6-0.9-3.3-1.8-4.9-2.7l0,0l31.5-59.9l0,0c2.1,1.1,4.2,2.3,6.3,3.4l0.1-0.2v0.2l0,0L482.8,135.3z M239,133L239,133l-31.7-59.7
	l0,0c2.1-1.1,4.3-2.2,6.3-3.2l0,0h0.2l0,0l30.4,60.4l0,0C242.5,131.2,240.7,132.1,239,133L239,133z M472.8,129.9L472.8,129.9
	c-1.7-0.9-3.4-1.6-5.1-2.5l-0.1,0.1v-0.1v-0.1l28.8-61.1h0.1c2.2,1,4.4,2.1,6.4,3.1h0.1l0,0L472.8,129.9z M249.1,127.9L249.1,127.9
	l-29.1-61l0,0c2.2-1,4.4-2.1,6.4-3l0,0v0.1l27.8,61.7l0,0C252.6,126.3,250.9,127,249.1,127.9L249.1,127.9z M462.6,125L462.6,125
	c-1.7-0.8-3.5-1.5-5.2-2.3l-0.1,0.1v-0.2v-0.1l26.1-62.4h0.1c2.2,0.9,4.5,1.9,6.6,2.8l0,0l0,0L462.6,125z M259.3,123.3L259.3,123.3
	L233,61.1l0,0c2.1-0.9,4.4-1.8,6.6-2.7h0.1v0.1l24.9,62.8h-0.1C262.8,121.8,261.1,122.6,259.3,123.3L259.3,123.3z M452.2,120.7
	L452.2,120.7c-1.8-0.7-3.6-1.3-5.3-2h-0.1v-0.1L470,55.1h0.1c2.3,0.9,4.5,1.7,6.7,2.6h0.1v0.1L452.2,120.7z M269.8,119.2
	L269.8,119.2l-23.6-63.4h0.1c2.3-0.9,4.5-1.6,6.7-2.4h0.1v0.1l22.2,63.9l0,0C273.3,117.8,271.6,118.5,269.8,119.2L269.8,119.2z
	 M441.6,116.8L441.6,116.8c-1.8-0.7-3.6-1.2-5.4-1.8h-0.1v-0.1l20.4-64.4h0.1c2.3,0.8,4.5,1.5,6.8,2.3h0.1v0.1L441.6,116.8z
	 M280.5,115.5L280.5,115.5L259.7,51h0.1c2.3-0.8,4.5-1.4,6.8-2.1h0.1V49l19.2,64.8h-0.1C284.1,114.3,282.3,114.9,280.5,115.5
	L280.5,115.5z M430.8,113.4L430.8,113.4c-1.8-0.6-3.7-1-5.5-1.5l0,0v-0.1l17.5-65.3h0.1c2.4,0.7,4.6,1.3,6.9,1.9h0.1v0.1
	L430.8,113.4z M291.3,112.2L291.3,112.2L273.4,47l0,0c2.3-0.7,4.6-1.2,6.9-1.8l0,0l0,0l16.4,65.6h-0.1
	C295.1,111.2,293.2,111.7,291.3,112.2L291.3,112.2z M419.9,110.5L419.9,110.5c-1.9-0.5-3.7-0.9-5.6-1.3h-0.1l0,0l14.7-66.1h0.1
	c2.4,0.6,4.7,1,7,1.6l0,0l0,0L419.9,110.5z M302.3,109.5L302.3,109.5l-15-66h0.1c2.3-0.5,4.5-1,7-1.5h0.1v0.1l13.5,66.2h-0.1
	C305.9,108.6,304.1,109,302.3,109.5L302.3,109.5z M408.9,108.1L408.9,108.1c-1.9-0.4-3.8-0.8-5.6-1h-0.1v-0.1l11.7-66.6h0.1
	c2.3,0.4,4.6,0.9,7,1.3h0.1v0.1L408.9,108.1z M313.2,107.2L313.2,107.2l-11.9-66.6h0.1c2.4-0.5,4.7-0.9,7-1.2h0.1v0.1l10.5,66.8
	h-0.1C317,106.6,315.2,106.9,313.2,107.2L313.2,107.2z M397.8,106.1L397.8,106.1c-2-0.3-3.8-0.6-5.7-0.8H392v-0.1l8.7-67.1h0.1
	c2.3,0.3,4.6,0.7,7.1,0.9h0.1v0.1L397.8,106.1z M324.4,105.5L324.4,105.5l-9-67.1h0.1c2.4-0.3,4.7-0.6,7.1-0.9h0.1v0.1l7.6,67.2
	h-0.1C328.2,104.9,326.3,105.2,324.4,105.5L324.4,105.5z M386.5,104.7L386.5,104.7c-2-0.2-3.9-0.4-5.7-0.6h-0.1V104l5.7-67.4h0.1
	c2.3,0.2,4.7,0.5,7.1,0.7h0.1v0.1L386.5,104.7z M335.7,104.2L335.7,104.2l-6.2-67.4h0.1c2.4-0.2,4.7-0.4,7.1-0.6h0.1v0.1l4.5,67.5
	h-0.1C339.4,103.9,337.5,104.1,335.7,104.2L335.7,104.2z M375.3,103.7L375.3,103.7c-1.9-0.1-3.8-0.2-5.7-0.3l-0.1-0.1l2.7-67.6h0.1
	c2.4,0.1,4.7,0.2,7.1,0.4h0.1v0.1L375.3,103.7z M346.9,103.4L346.9,103.4l-3.1-67.6h0.1c2.4-0.1,4.7-0.2,7.1-0.3h0.1v0.1l1.6,67.6
	h-0.1C350.8,103.3,349,103.3,346.9,103.4L346.9,103.4z M363.9,103.2L363.9,103.2c-1.7,0-3.4-0.1-5-0.1l-0.7-0.1l-0.2-67.6h0.6
	c0.1,0,0.2,0,0.3,0h0.3c2,0,4,0,6.1,0.1h0.1L363.9,103.2z"/>
<path d="M361.8,581.7L361.8,581.7l-0.6-38.5h0.1c1.4,0,2.9-0.1,4.4-0.1h0.1v0.1l1.4,38.4h-0.1C365.4,581.6,363.6,581.6,361.8,581.7z
	 M358.9,581.6L358.9,581.6l-0.1-38.4h0.1V581.6z M353.7,581.6L353.7,581.6c-1.9,0-3.7-0.1-5.3-0.2h-0.1l0,0l1.8-38.4h0.1
	c1.5,0.1,2.9,0.1,4.4,0.2h0.1v0.1L353.7,581.6z M372.3,581.3l-2.3-38.5h0.1c1.5-0.1,3-0.2,4.4-0.3h0.1v0.1l3.2,38.3h-0.1
	C375.9,581.1,374.1,581.2,372.3,581.3L372.3,581.3z M343.1,581.2L343.1,581.2c-1.8-0.1-3.5-0.3-5.3-0.5h-0.1v-0.1l3.6-38.3l0,0
	c1.4,0.1,2.8,0.3,4.4,0.4h0.1v0.1L343.1,581.2z M382.9,580.4L382.9,580.4l-4.2-38.3h0.1c1.5-0.2,2.9-0.3,4.4-0.5h0.1v0.1l5,38.1
	h-0.1C386.5,580,384.8,580.2,382.9,580.4L382.9,580.4z M332.6,580.2L332.6,580.2c-1.9-0.2-3.6-0.5-5.3-0.7h-0.1v-0.1l5.4-38.1h0.1
	c1.4,0.2,2.8,0.4,4.4,0.6h0.1L332.6,580.2z M393.3,579.1L393.3,579.1l-6-38l0,0V541h0.1c1.4-0.2,2.8-0.5,4.4-0.8h0.1l6.8,37.9h-0.1
	C396.8,578.5,395.1,578.8,393.3,579.1L393.3,579.1z M322.1,578.7L322.1,578.7c-1.7-0.3-3.5-0.6-5.3-0.9h-0.1v-0.1l7.2-37.8h0.1
	c1.5,0.3,2.9,0.6,4.4,0.8v0.1L322.1,578.7z M403.7,577.2L403.7,577.2l-7.8-37.7l0,0V539l0.1,0.5c1.4-0.3,2.8-0.6,4.3-0.9l0,0l0,0
	l8.6,37.4h-0.1C407.3,576.4,405.5,576.8,403.7,577.2L403.7,577.2z M311.6,576.7L311.6,576.7c-1.8-0.4-3.5-0.8-5.2-1.2h-0.1l0,0
	l9.1-37.3l0,0c1.4,0.4,2.8,0.7,4.3,0.9h0.1l0,0L311.6,576.7z M414.1,574.8L414.1,574.8l-9.6-37.3h0.1c1.4-0.4,2.8-0.8,4.3-1.1h0.1
	v0.1l10.4,37.1h-0.1C417.6,573.9,415.8,574.3,414.1,574.8L414.1,574.8z M301.4,574.1L301.4,574.1c-1.7-0.5-3.4-0.9-5.1-1.4h-0.1
	v-0.1l10.8-36.9h0.1c1.3,0.4,2.7,0.8,4.3,1.1h0.1l0,0L301.4,574.1z M424.3,572l-11.4-36.9l0,0c1.3-0.4,2.7-0.9,4.2-1.3h0.1l0,0
	l12.1,36.5h-0.1C427.7,570.8,426,571.4,424.3,572L424.3,572z M291.2,571.2L291.2,571.2c-1.8-0.6-3.5-1.1-5.1-1.7H286v-0.1l12.6-36.3
	h0.1c1.5,0.5,2.8,0.9,4.2,1.4l0,0v0.1L291.2,571.2z M434.4,568.5L434.4,568.5l-13.1-36.2h0.1c1.4-0.5,2.7-1,4.1-1.5h0.1v0.1
	l13.9,35.8h-0.1C437.7,567.3,436,568,434.4,568.5L434.4,568.5z M281.1,567.7L281.1,567.7c-1.7-0.7-3.3-1.2-4.9-1.9l-0.1,0.1v-0.1
	l0,0l14.3-35.7l0,0c1.4,0.6,2.7,1.1,4.1,1.6h0.1l0,0L281.1,567.7z M444.2,564.8L444.2,564.8l-14.8-35.5l0,0c1.3-0.6,2.6-1.1,4-1.7
	v-0.2l0.1,0.2l15.6,35.2l0,0C447.5,563.3,445.8,564.1,444.2,564.8L444.2,564.8z M271.3,563.8L271.3,563.8c-1.6-0.8-3.3-1.4-4.9-2.2
	l0,0l0,0l16-35l0,0c1.3,0.6,2.6,1.1,4,1.8h0.1l0,0L271.3,563.8z M453.9,560.5L453.9,560.5l-16.5-34.8h0.1c1.3-0.7,2.7-1.3,3.9-1.9
	h0.1l0,0l17.2,34.4h-0.1C457.1,558.9,455.5,559.7,453.9,560.5L453.9,560.5z M261.6,559.4L261.6,559.4c-1.7-0.9-3.3-1.6-4.8-2.4v-0.1
	l0,0l17.6-34.2l0,0c1.3,0.7,2.6,1.3,3.9,2h0.1l-0.1,0.1L261.6,559.4z M463.4,555.8l-0.1-0.2l-18-33.9v-0.2l0.1,0.1
	c1.3-0.8,2.6-1.4,3.8-2.1h0.1l0,0l18.9,33.5l0,0c-1.6,0.9-3.1,1.7-4.6,2.6L463.4,555.8L463.4,555.8z M252.2,554.4L252.2,554.4
	c-1.6-0.9-3.1-1.7-4.6-2.7l0,0v-0.1l19.2-33.3l0,0c1.2,0.7,2.5,1.4,3.8,2.2l0,0v0.1L252.2,554.4z M472.5,550.6l-0.1-0.2l-19.6-33.1
	h0.1c1.1-0.7,2.4-1.4,3.7-2.3l0,0h0.2l-0.1,0.1l20.4,32.6l0,0C475.6,548.7,474.1,549.7,472.5,550.6L472.5,550.6L472.5,550.6z
	 M243,549.1L243,549.1c-1.5-0.9-3-1.9-4.5-2.8v-0.1l0,0l20.8-32.3l0,0c1.3,0.9,2.6,1.6,3.7,2.4l0,0l0,0L243,549.1z M481.5,545
	L481.5,545l-21.2-32.1l0,0c1.1-0.8,2.4-1.6,3.6-2.5h0.1l0,0l22,31.6l0,0C484.5,543,483,543.9,481.5,545L481.5,545z M234.1,543.4
	L234.1,543.4c-1.4-0.9-2.9-2-4.4-3l0,0l22.4-31.4h0.1c1.2,0.9,2.4,1.7,3.6,2.5l0,0l0,0L234.1,543.4z M490.2,538.9L490.2,538.9
	l-22.7-31.1l0,0v-0.1l0.1,0.1c1.1-0.9,2.3-1.7,3.4-2.6h0.1v0.1l0,0l23.4,30.5l0,0C493,536.8,491.6,537.8,490.2,538.9L490.2,538.9z
	 M225.5,537.3L225.5,537.3c-1.5-1.1-2.8-2.2-4.3-3.2l0,0l0,0l23.8-30.2h0.1l0,0c1.2,0.9,2.4,1.8,3.4,2.7l0.1,0.1h-0.1L225.5,537.3z
	 M498.5,532.4L498.5,532.4l-24.2-30l0,0c1.1-0.9,2.3-1.9,3.4-2.7l0,0l24.8,29.4l0,0C501.4,530.2,499.9,531.3,498.5,532.4
	L498.5,532.4z M217.2,530.7L217.2,530.7c-1.5-1.2-2.8-2.4-4.1-3.4l0,0l0,0l25.2-29.1l0,0c1.1,0.9,2.2,1.9,3.3,2.8h0.1l-0.1,0.1
	L217.2,530.7z M506.6,525.6L506.6,525.6l-25.5-28.8l0,0c1.1-0.9,2.2-2,3.2-2.9l0,0l0,0l26.2,28.1l0,0
	C509.3,523.2,508,524.5,506.6,525.6L506.6,525.6z M209.2,523.8L209.2,523.8c-1.3-1.1-2.6-2.4-3.9-3.6l0,0l0,0l26.5-27.9l0,0
	c1,0.9,2.2,2,3.2,3l0,0l0,0L209.2,523.8z M514.3,518.4L514.3,518.4l-26.8-27.6l0,0c1-0.9,2.1-2,3.1-3.1v-0.1l0.1,0.1l27.5,26.9l0,0
	C516.9,516,515.7,517.2,514.3,518.4L514.3,518.4L514.3,518.4z M201.5,516.5L201.5,516.5c-1.3-1.3-2.6-2.6-3.7-3.8l0,0l0,0l27.8-26.5
	l0,0c1,1,2.1,2.1,3,3.1l0,0l0,0L201.5,516.5z M521.7,510.9L521.7,510.9l-28.1-26.3l0,0c1-1,2-2.2,2.9-3.2l0,0l0,0l28.7,25.6l0,0
	C524.2,508.3,523.1,509.5,521.7,510.9L521.7,510.9z M194.2,508.8L194.2,508.8c-1.2-1.3-2.4-2.7-3.6-4l0,0l0,0l29-25.2l0,0
	c0.9,1,1.9,2.2,2.9,3.3l0,0l0,0L194.2,508.8z M528.8,503L528.8,503L499.5,478l0,0c0.9-1.1,1.9-2.3,2.8-3.4l0,0l0,0l29.9,24.2l0,0
	C531.2,500.2,530.1,501.5,528.8,503L528.8,503z M187.2,500.9L187.2,500.9c-1.1-1.4-2.3-2.7-3.4-4.2l0,0l0,0l30.1-23.9l0,0
	c0.9,1.1,1.9,2.4,2.7,3.4l0,0l0,0L187.2,500.9z M535.5,494.8L535.5,494.8L505,471.3l0,0c0.9-1.1,1.8-2.3,2.7-3.5l0,0l0,0l31,22.7
	l0,0C537.7,491.9,536.6,493.3,535.5,494.8L535.5,494.8z M180.7,492.5L180.7,492.5c-1-1.4-2.1-2.8-3.1-4.3l0,0l0,0l31.3-22.4l0,0
	c0.9,1.2,1.7,2.4,2.6,3.5l0,0l0,0L180.7,492.5z M541.7,486.2L541.7,486.2l-31.6-22.1l0,0c0.9-1.2,1.7-2.5,2.5-3.6v-0.1l0.1,0.1
	l32,21.3l0,0C543.8,483.3,542.8,484.8,541.7,486.2L541.7,486.2z M174.5,484L174.5,484c-0.9-1.4-2-2.9-2.9-4.5l0,0l0,0l32.3-20.8v0.1
	c0.9,1.2,1.6,2.5,2.4,3.6v0.1l0,0L174.5,484z M547.6,477.4L547.6,477.4l-32.7-20.6h0.2c0.8-1.2,1.5-2.5,2.3-3.7V453l0.1,0.1l33,19.7
	l0,0C549.6,474.3,548.6,475.8,547.6,477.4L547.6,477.4L547.6,477.4z M168.8,475.1L168.8,475.1c-0.9-1.5-1.9-3.1-2.7-4.5v-0.1h0.1
	l33.3-19.3v0.1c0.8,1.3,1.5,2.6,2.3,3.8v0.1h-0.1L168.8,475.1z M553,468.3L553,468.3l-33.6-19h0.2c0.8-1.3,1.4-2.6,2.1-3.8l0,0h0.1
	l33.9,18.2l0,0C554.8,465.2,554,466.7,553,468.3L553,468.3L553,468.3z M163.4,466L163.4,466c-0.9-1.5-1.7-3.1-2.6-4.7l0,0l0,0
	l34.1-17.7l0,0c0.7,1.3,1.3,2.6,2.1,3.9v0.1H197L163.4,466z M558,459L558,459l-34.5-17.4h0.2c0.7-1.3,1.3-2.7,1.9-3.9l0,0l0,0
	l34.8,16.5v0.1C559.7,455.7,558.9,457.3,558,459L558,459z M158.6,456.6L158.6,456.6c-0.8-1.6-1.5-3.2-2.3-4.8v-0.1l0,0l35-16.1v0.1
	c0.6,1.3,1.2,2.6,1.9,3.9v0.1h-0.1L158.6,456.6z M562.7,449.3l-35.3-15.7h0.2c0.6-1.3,1.1-2.7,1.7-4v-0.1h0.1l35.5,14.8v0.1
	C564.1,446.1,563.3,447.7,562.7,449.3L562.7,449.3z M154.1,447.1L154.1,447.1c-0.8-1.7-1.4-3.3-2.1-4.9V442l0,0l35.6-14.4v0.1
	c0.6,1.3,1.1,2.7,1.7,4.1v0.1l0,0L154.1,447.1z M566.7,439.6L566.7,439.6l-35.9-14v-0.1c0.6-1.3,1-2.7,1.5-4.1v-0.1l0,0l36.2,13.1
	v0.1C568,436.2,567.4,437.9,566.7,439.6L566.7,439.6z M150.2,437.2L150.2,437.2c-0.7-1.7-1.2-3.4-1.8-5v-0.1l0,0l36.3-12.7v0.1
	c0.5,1.3,0.9,2.7,1.5,4.1v0.1l0,0L150.2,437.2z M570.5,429.6l-0.2-0.1l-36.5-12.2v-0.1c0.5-1.4,0.9-2.8,1.3-4.2l0.1-0.3v0.3
	l36.7,11.4v0.1c-0.5,1.6-1,3.3-1.6,5L570.5,429.6z M146.7,427.3L146.7,427.3c-0.6-1.8-1.1-3.5-1.6-5.1V422h0.1l36.9-10.9l0,0
	c0.4,1.3,0.9,2.7,1.3,4.2v0.1h-0.1L146.7,427.3z M573.5,419.5L573.5,419.5L536.4,409v-0.1c0.4-1.3,0.8-2.7,1.1-4.3h0.1l0,0l37.2,9.6
	v0.1C574.4,416,573.9,417.7,573.5,419.5L573.5,419.5z M143.7,417.1L143.7,417.1c-0.5-1.7-0.9-3.4-1.3-5.2v-0.1h0.1l37.3-9.2v0.1
	c0.4,1.4,0.8,2.8,1.1,4.3v0.1h-0.1L143.7,417.1z M576.1,409.2L576.1,409.2l-37.5-8.7v-0.1c0.3-1.4,0.7-2.8,0.9-4.3V396h0.1l37.6,7.8
	v0.1C576.9,405.6,576.5,407.4,576.1,409.2L576.1,409.2z M141.1,406.8L141.1,406.8c-0.4-1.8-0.8-3.6-1-5.2v-0.1l0,0l37.7-7.4v0.1
	c0.3,1.4,0.6,2.8,0.9,4.3v0.1l0,0v0.2l-0.1-0.2L141.1,406.8z M578.3,398.8L578.3,398.8l-37.9-6.9l0,0c0.3-1.4,0.5-2.8,0.8-4.4v-0.1
	l38,6v0.1C578.9,395.3,578.6,397,578.3,398.8L578.3,398.8z M139.2,396.4L139.2,396.4c-0.3-1.8-0.6-3.6-0.9-5.3V391h0.1l38.1-5.6v0.1
	c0.2,1.4,0.5,2.8,0.7,4.4v0.1h-0.1L139.2,396.4z M579.9,388.3L579.9,388.3l-38.2-5.1v-0.1c0.2-1.4,0.4-2.9,0.6-4.4v-0.1h0.1
	l38.2,4.2v0.1C580.4,384.7,580.2,386.5,579.9,388.3L579.9,388.3z M137.5,385.9L137.5,385.9c-0.2-1.8-0.4-3.6-0.6-5.3v-0.1h0.1
	l38.3-3.7v0.1c0.1,1.4,0.3,2.9,0.5,4.4v0.1h-0.1L137.5,385.9z M581.1,377.8L581.1,377.8l-38.4-3.2v-0.1c0.1-1.5,0.3-2.9,0.3-4.4V370
	h0.1l38.4,2.4v0.1C581.3,374.2,581.2,376,581.1,377.8L581.1,377.8z M136.6,375.3L136.6,375.3c-0.1-1.8-0.3-3.6-0.4-5.3v-0.1
	l38.5-1.9v0.1c0.1,1.4,0.2,2.8,0.3,4.4v0.1h-0.1L136.6,375.3z M581.7,367.3L581.7,367.3l-38.5-1.4v-0.1c0.1-1.4,0.1-2.9,0.1-4.4
	v-0.1h0.1l38.5,0.6v0.1C581.8,363.6,581.8,365.4,581.7,367.3L581.7,367.3z M136,364.8L136,364.8c-0.1-1.9-0.1-3.6-0.1-5.3v-0.1h0.1
	l38.4-0.1l0.1,0.1c0,1.4,0,2.9,0.1,4.4v0.1h-0.1L136,364.8z M543.3,357L543.3,357c0-1.5-0.1-3-0.1-4.5v-0.1h0.1l38.5-1.2v0.1
	c0.1,1.8,0.1,3.5,0.1,5.3v0.1L543.3,357z M174.5,354.9l-38.5-0.8v-0.1c0-1.8,0.1-3.5,0.2-5.3v-0.1h0.1l38.4,1.7v0.1
	C174.6,352.1,174.5,353.5,174.5,354.9L174.5,354.9z M543.1,348.3L543.1,348.3c-0.1-1.5-0.2-3-0.3-4.5v-0.1h0.1l38.4-3v0.1
	c0.2,1.8,0.3,3.6,0.4,5.3v0.1h-0.1L543.1,348.3z M174.9,346.2l-38.4-2.6v-0.1c0.1-1.8,0.3-3.6,0.4-5.3v-0.1h0.1l38.3,3.5v0.1
	C175.1,343.3,175,344.8,174.9,346.2L174.9,346.2z M542.4,339.5L542.4,339.5c-0.2-1.5-0.3-2.9-0.5-4.5v-0.1h0.1l38.1-4.9v0.1
	c0.2,1.7,0.5,3.5,0.6,5.3l0,0v0.1L542.4,339.5z M175.6,337.5L175.6,337.5l-38.3-4.5V333c0.2-1.7,0.5-3.5,0.7-5.3v-0.1h0.1l38.1,5.3
	v0.1C176,334.6,175.8,336,175.6,337.5L175.6,337.5z M541.3,330.9L541.3,330.9c-0.2-1.5-0.5-3-0.8-4.4v-0.1h0.1l37.9-6.7v0.1
	c0.3,1.8,0.6,3.5,0.9,5.2v0.1l0,0L541.3,330.9z M176.9,328.8L176.9,328.8l-38-6.3v-0.1c0.3-1.8,0.6-3.5,0.9-5.2v-0.1l37.9,7.1
	l-0.1,0.1C177.4,325.9,177.2,327.3,176.9,328.8L176.9,328.8z M539.7,322.2L539.7,322.2c-0.3-1.5-0.6-2.9-0.9-4.3h-0.4l37.9-8.6l0,0
	c0.4,1.7,0.8,3.5,1.1,5.2v0.1h-0.1L539.7,322.2z M178.5,320.3L178.5,320.3l-37.6-8.1l0,0c0.4-1.7,0.8-3.4,1.1-5.2v-0.1h0.1l37.4,8.9
	v0.1C179.2,317.2,178.9,318.6,178.5,320.3L178.5,320.3z M537.8,313.7L537.8,313.7c-0.4-1.4-0.8-2.8-1.1-4.3v-0.1h0.1l37.1-10.3l0,0
	c0.5,1.7,0.9,3.4,1.3,5.1v0.1h-0.1L537.8,313.7z M180.5,311.7L180.5,311.7l-37.1-9.9v-0.1c0.5-1.7,0.9-3.4,1.4-5.1v-0.1h0.1l37,10.7
	v0.1C181.3,308.8,181,310.2,180.5,311.7L180.5,311.7z M535.6,305.2L535.6,305.2c-0.5-1.5-0.9-2.8-1.4-4.3l0,0l0,0l36.5-12l0,0
	c0.6,1.7,1.1,3.4,1.6,5v0.1L535.6,305.2z M182.9,303.3L182.9,303.3l-36.8-11.6v-0.1c0.6-1.7,1.1-3.4,1.7-5l0,0h0.1l36.4,12.5l0,0
	C183.9,300.4,183.4,301.8,182.9,303.3L182.9,303.3z M532.8,296.9h-0.2H532.8c-0.6-1.4-1-2.8-1.6-4.2l0,0l35.9-13.8v0.1
	c0.7,1.7,1.2,3.3,1.8,4.9h0.3L532.8,296.9z M185.8,295L185.8,295l-36.1-13.4v-0.1c0.6-1.7,1.2-3.3,1.9-4.9l0,0h0.1l35.7,14.2v0.1
	C186.8,292.2,186.4,293.6,185.8,295L185.8,295z M529.6,288.8L529.6,288.8c-0.6-1.3-1.1-2.7-1.7-4.1h-0.2l0.2-0.1l35.2-15.4v0.1
	c0.7,1.6,1.4,3.2,2.1,4.8h0.2l-0.2,0.1L529.6,288.8z M189,286.8l-35.4-15.1v-0.1c0.8-1.7,1.4-3.3,2.2-4.8v-0.1h0.1l35.1,15.9l0,0
	C190.2,284.1,189.7,285.4,189,286.8L189,286.8z M526.1,280.8L526.1,280.8c-0.7-1.4-1.3-2.7-1.9-4l0,0l0,0l34.4-17.2l0,0
	c0.8,1.5,1.5,3.1,2.3,4.7v0.1h-0.1L526.1,280.8z M192.7,278.8L158,262.1V262c0.8-1.6,1.6-3.2,2.4-4.7h0.1l0,0l34.2,17.5l0,0
	C194,276.1,193.4,277.4,192.7,278.8L192.7,278.8z M522.2,273L522.2,273c-0.7-1.2-1.3-2.6-2.1-3.9l0,0l0,0l33.5-18.8v0.1
	c0.9,1.4,1.7,3,2.5,4.6l0.3-0.1l-0.2,0.2l0,0L522.2,273z M196.7,271l-33.8-18.4v-0.1c0.9-1.5,1.7-3,2.6-4.6l0,0h0.1l33.4,19.1v0.1
	C198.1,268.4,197.4,269.7,196.7,271L196.7,271z M517.9,265.3L517.9,265.3c-0.8-1.3-1.5-2.6-2.4-3.8v-0.1l0,0l32.6-20.3l0,0
	c0.9,1.5,1.8,3,2.7,4.5l0,0L517.9,265.3z M201,263.4L201,263.4l-32.9-20l0,0c0.9-1.5,1.9-3,2.8-4.5l0,0l32.4,20.8l0,0
	C202.6,260.8,201.8,262.2,201,263.4L201,263.4z M513.3,257.9L513.3,257.9c-0.8-1.2-1.6-2.5-2.5-3.7l0,0l31.7-21.9v0.1
	c1,1.4,2,2.9,2.9,4.4h0.1l-0.1,0.1L513.3,257.9z M205.8,256L205.8,256l-31.9-21.5v-0.1c1-1.5,2-2.9,3-4.4l0,0l0,0l31.4,22.3l0,0
	C207.5,253.5,206.6,254.8,205.8,256L205.8,256z M508.4,250.7L508.4,250.7c-0.9-1.2-1.8-2.5-2.7-3.6l-0.1-0.1h0.1l30.6-23.3l0,0
	c1,1.3,2.1,2.8,3.1,4.3l0,0l0,0L508.4,250.7z M210.8,248.8l-30.9-23l0,0c1-1.4,2.2-2.8,3.2-4.3l0,0l0,0l30.3,23.7l0,0
	C212.6,246.5,211.8,247.7,210.8,248.8L210.8,248.8z M503.1,243.8L503.1,243.8c-0.9-1.1-1.8-2.3-2.8-3.4h-0.1l0,0l29.5-24.7l0,0
	c1.1,1.3,2.3,2.7,3.3,4.1l0,0L503.1,243.8z M216.2,242l-29.8-24.4l0,0c1.1-1.3,2.3-2.7,3.4-4.1l0,0l0,0l29.1,25.1l0,0
	C218.2,239.6,217.2,240.7,216.2,242L216.2,242z M497.4,237.1L497.4,237.1c-0.9-1.1-2-2.2-2.9-3.3h-0.1l0.1-0.1l28.2-26.1l0,0
	c1.1,1.2,2.4,2.6,3.6,3.9l0,0l0,0L497.4,237.1z M222,235.3L222,235.3l-28.6-25.8l0,0c1.2-1.3,2.4-2.7,3.6-3.9l0,0l0,0l28,26.4l0,0
	C224,233.1,222.9,234.2,222,235.3L222,235.3z M491.4,230.6L491.4,230.6c-1-1.1-2.1-2.2-3.1-3.2l0,0l27-27.4l0,0
	c1.2,1.2,2.6,2.6,3.7,3.8l0,0l0,0L491.4,230.6z M228.1,228.9L228.1,228.9l-27.4-27.1l0,0c1.2-1.2,2.6-2.6,3.8-3.7l0,0l26.7,27.8l0,0
	C230.1,226.8,229.1,227.9,228.1,228.9L228.1,228.9z M485.2,224.4L485.2,224.4c-1.1-1-2.2-2-3.3-3l0,0l25.7-28.6l0,0
	c1.3,1.2,2.7,2.4,3.9,3.6l0,0l0,0L485.2,224.4z M234.3,222.8L234.3,222.8l-26.1-28.4l0,0c1.3-1.2,2.7-2.4,4-3.5l0,0l0,0l25.3,29l0,0
	C236.5,220.9,235.3,221.9,234.3,222.8L234.3,222.8z M478.7,218.6L478.7,218.6c-1.2-1-2.3-2-3.4-2.8l-0.1-0.1h0.1l24.3-29.8l0,0
	c1.3,1,2.7,2.3,4.1,3.4l0,0l0,0L478.7,218.6z M240.9,217.1l-24.6-29.6l0,0c1.4-1.2,2.7-2.3,4.1-3.3l0,0l0,0l23.9,30.1l0,0
	C243.2,215.2,242.1,216.1,240.9,217.1L240.9,217.1z M471.9,213L471.9,213c-1.1-0.9-2.4-1.8-3.5-2.7l0,0l0,0l22.8-30.9l0,0
	c1.4,1,2.8,2.2,4.3,3.2l0,0l0,0L471.9,213z M247.9,211.7L247.9,211.7l-23.3-30.8l0,0c1.4-1,2.8-2.1,4.3-3.1l0,0l0,0l22.5,31.2l0,0
	c-1.2,0.9-2.4,1.7-3.5,2.6L247.9,211.7L247.9,211.7z M464.9,207.8h-0.2H464.9c-1.2-0.9-2.5-1.7-3.7-2.6l0,0l0,0l21.4-31.9h0.1
	c1.5,1,2.9,2,4.4,3h0.1l-0.1,0.1L464.9,207.8z M254.9,206.5L254.9,206.5l-21.8-31.7h0.1c1.4-1,2.9-2,4.4-2.9l0,0l21,32.2l0,0
	C257.3,204.8,256.1,205.7,254.9,206.5L254.9,206.5z M457.6,202.9L457.6,202.9c-1.3-0.8-2.6-1.6-3.8-2.4l0,0l0,0l19.8-33l0,0
	c1.5,0.9,3,1.8,4.5,2.7h0.1l0,0L457.6,202.9z M262.2,201.7L262.2,201.7L242,168.9h0.1c1.5-0.9,3-1.9,4.5-2.7h0.1l0,0l19.4,33.2l0,0
	C264.7,200.2,263.4,200.9,262.2,201.7L262.2,201.7z M450.1,198.4L450.1,198.4c-1.3-0.8-2.7-1.5-3.9-2.2l0,0l0,0l18.3-33.8l0,0
	c1.5,0.9,3.1,1.7,4.6,2.6h0.1l0,0L450.1,198.4z M269.7,197.3L269.7,197.3l-18.7-33.6l0,0c1.5-0.9,3.1-1.7,4.6-2.6h0.1l0,0l17.8,34
	v0.2l-0.1-0.1C272.4,195.8,271.1,196.6,269.7,197.3L269.7,197.3z M442.3,194.2L442.3,194.2c-1.3-0.7-2.7-1.3-4-2l0,0l16.7-34.7h0.1
	c1.6,0.8,3.2,1.5,4.7,2.4h0.1v0.1L442.3,194.2z M277.5,193.3L277.5,193.3l-17.1-34.5h0.1c1.6-0.8,3.1-1.5,4.7-2.3h0.1v0.1l16.2,34.9
	l0,0C280.1,191.9,278.8,192.6,277.5,193.3L277.5,193.3z M434.5,190.4L434.5,190.4c-1.4-0.7-2.7-1.2-4.1-1.8l0,0l15-35.4l0,0
	c1.6,0.7,3.2,1.4,4.8,2.1h0.1L434.5,190.4z M285.4,189.6L285.4,189.6L270,154.2l0,0c1.6-0.7,3.2-1.4,4.8-2.1h0.1l0,0l14.5,35.6l0,0
	C288.1,188.4,286.7,189,285.4,189.6L285.4,189.6z M426.3,187L426.3,187c-1.4-0.6-2.7-1-4.2-1.6H422v-0.1l13.3-36.1h0.1
	c1.7,0.6,3.3,1.2,5,1.9l0,0v0.1L426.3,187z M293.4,186.3L293.4,186.3l-13.7-36h0.1c1.6-0.6,3.3-1.2,4.9-1.8v-0.3l0.1,0.3l12.8,36.3
	h-0.1C296.3,185.2,294.9,185.7,293.4,186.3L293.4,186.3z M418.1,184L418.1,184c-1.5-0.5-2.8-0.9-4.3-1.3h-0.1v-0.1l11.5-36.7h0.1
	c1.7,0.6,3.4,1.1,5,1.6h0.1l0,0L418.1,184z M301.8,183.3L301.8,183.3L301.8,183.3l-12-36.6h0.1c1.8-0.6,3.4-1.1,5-1.6h0.1L306,182
	h-0.1C304.6,182.4,303.2,182.8,301.8,183.3L301.8,183.3L301.8,183.3z M409.7,181.3L409.7,181.3c-1.4-0.4-2.8-0.9-4.3-1.1h-0.1l0,0
	l9.7-37.2h0.1c1.8,0.5,3.5,0.9,5.1,1.4h0.1L409.7,181.3z M310.1,180.9L310.1,180.9L300,143.7l0,0c1.7-0.5,3.4-0.9,5.1-1.3h0.1v0.1
	l9.3,37.3h-0.1C313.1,180,311.6,180.4,310.1,180.9L310.1,180.9z M401.2,179.2L401.2,179.2c-1.5-0.4-2.9-0.7-4.4-0.9h-0.1v-0.1
	l8-37.6h0.1c1.8,0.4,3.5,0.8,5.2,1.1l0,0l0,0L401.2,179.2z M318.6,178.7L318.6,178.7l-8.4-37.6h0.1c1.7-0.4,3.5-0.8,5.2-1.1h0.1
	l7.5,37.7h-0.1C321.5,178.1,320.1,178.4,318.6,178.7L318.6,178.7z M392.7,177.4L392.7,177.4c-1.5-0.3-2.9-0.6-4.4-0.8h-0.1v-0.1
	l6.1-38h0.1c1.8,0.3,3.6,0.6,5.2,0.9h0.1v0.1L392.7,177.4z M327.2,177L327.2,177l-6.6-37.9h0.1c1.7-0.3,3.5-0.6,5.2-0.9h0.1
	l5.7,38.1h-0.1C330.1,176.5,328.7,176.8,327.2,177L327.2,177z M384,175.9L384,175.9c-1.5-0.2-2.9-0.4-4.4-0.6h-0.1v-0.1l4.3-38.2
	h0.1c1.7,0.2,3.5,0.4,5.3,0.7h0.1L384,175.9z M335.8,175.7L335.8,175.7l-4.7-38.2h0.1c1.8-0.2,3.6-0.4,5.3-0.6l0,0h0.1l3.9,38.6
	l-0.1-0.3C338.7,175.4,337.3,175.5,335.8,175.7L335.8,175.7z M375.3,175L375.3,175c-1.5-0.1-2.9-0.3-4.5-0.4h-0.1v-0.1l2.5-38.4h0.1
	c1.8,0.1,3.5,0.3,5.3,0.4h0.1v0.1L375.3,175z M344.5,174.8L344.5,174.8l-2.9-38.4h0.1c1.8-0.1,3.6-0.3,5.3-0.4h0.1v0.1l2.1,38.4
	h-0.1C347.5,174.6,346,174.7,344.5,174.8L344.5,174.8z M366.6,174.4L366.6,174.4c-1.5-0.1-2.9-0.1-4.5-0.1h-0.1v-0.1l0.7-38.5h0.1
	c1.8,0,3.6,0.1,5.3,0.2l0.1,0.1L366.6,174.4z M353.3,174.3l-1.1-38.5h0.1c1.7-0.1,3.5-0.1,5.3-0.1h0.1v0.1l0.3,38.5h-0.1
	C356.4,174.3,354.8,174.3,353.3,174.3L353.3,174.3z"/>
</svg>
