<?xml version="1.0" encoding="utf-8"?>
<!-- Generator: Adobe Illustrator 28.0.0, SVG Export Plug-In . SVG Version: 6.00 Build 0)  -->
<svg version="1.1" id="Layer_1" xmlns:xodm="http://www.corel.com/coreldraw/odm/2003"
	 xmlns="http://www.w3.org/2000/svg" xmlns:xlink="http://www.w3.org/1999/xlink" x="0px" y="0px" viewBox="0 0 720 720"
	 style="enable-background:new 0 0 720 720;" xml:space="preserve">
<style type="text/css">
	.st0{fill-rule:evenodd;clip-rule:evenodd;fill:#C10C0C;}
	.st1{fill-rule:evenodd;clip-rule:evenodd;fill:#FFFFFF;}
</style>
<path class="st0" d="M663.5,703.5h-607c-22.1,0-40-17.9-40-40v-607c0-22.1,17.9-40,40-40h607.1c22.1,0,40,17.9,40,40v607.1
	C703.5,685.6,685.5,703.5,663.5,703.5z"/>
<path class="st1" d="M38.2,56.2v607.6c0,9.9,8.1,18,18,18h607.6c9.9,0,18-8.1,18-18V56.2c0-9.9-8.1-18-18-18H56.2
	C46.2,38.2,38.2,46.3,38.2,56.2z M662.5,676.6H57.4c-7.7,0-14-6.3-14-14V57.4c0-7.7,6.3-14,14-14h605.1c7.7,0,14,6.3,14,14v605.1
	C676.5,670.3,670.2,676.6,662.5,676.6z"/>
</svg>
