<?xml version="1.0" encoding="utf-8"?>
<!-- Generator: Adobe Illustrator 28.0.0, SVG Export Plug-In . SVG Version: 6.00 Build 0)  -->
<svg version="1.1" id="Layer_1" xmlns:xodm="http://www.corel.com/coreldraw/odm/2003"
	 xmlns="http://www.w3.org/2000/svg" xmlns:xlink="http://www.w3.org/1999/xlink" x="0px" y="0px" viewBox="0 0 720 720"
	 style="enable-background:new 0 0 720 720;" xml:space="preserve">
<style type="text/css">
	.st0{fill-rule:evenodd;clip-rule:evenodd;stroke:#000000;stroke-width:0.4997;stroke-miterlimit:10;}
	.st1{fill-rule:evenodd;clip-rule:evenodd;}
</style>
<path class="st0" d="M358.2,78.4c155.6,0,281.7,126.1,281.7,281.7S513.8,641.9,358.2,641.9S76.5,515.7,76.5,360.2
	S202.6,78.4,358.2,78.4L358.2,78.4z M209.1,552.1c6.7-40.9,19.9-77.6,72.3-90.1c-53.7,89.4-8.8,141.2,76.7,141.2
	c90.8,0,132.8-52.6,79.6-141.2c51.5,12.3,65.2,48,72,88.1c55.7-44.5,91.4-113,91.4-189.9c0-134.2-108.8-243-243-243
	s-243,108.8-243,243C115.2,438.2,152,507.6,209.1,552.1L209.1,552.1z"/>
<path class="st1" d="M475.6,394.9c12.4-22.5,19.6-48.7,19.6-76.8c0-82.6-61.8-149.5-137.9-149.5c-76.2,0-137.9,66.9-137.9,149.5
	c0,23.5,5.7,51.3,17.1,72.1c0.7,1.8,1.7,3.4,3.1,5.3c-25.2,8.4-33.1,32.2-33.7,57.1c45.7-42.6,113.4-8.2,107.1,33.3
	c-0.3,1.7-0.9,3.3-1.9,4.7c-4.2,3.3,1.6,4.7-1.3,11.7c-4.1,8.6-6.3,18.3-5,26.4c1.3,8,11.9,17.8,19.6,22.9
	c-3.8-9.3-12.8-25.8-5.1-35c3.1-4.2,6.9-10.3,8.1-13.6c-0.1-1.6-0.9-2.2-1.5-3.6c-5.3-11.3,12.7-11.7,10.6-1.6c-0.2,1-1.2,1.9-1.4,3
	c-0.6,3.2,1.9,2.1,2.2,6.1c0,17.9-15.9,26.4,14.1,44.2c-10.5-20.5,0.3-26.6,1.8-38c0.3-2.5,0.6-2.8-0.7-5c-8-13.6-0.9-21.1,5.8-21.9
	c6.7,0.9,13.8,8.3,5.8,21.9c-1.3,2.2-1,2.4-0.7,5c1.5,11.4,12.3,17.5,1.8,38c30-17.9,14.1-26.3,14.1-44.2c0.4-4,2.9-2.9,2.2-6.1
	c-0.2-1.1-1.2-2-1.4-3c-2.2-10.1,15.8-9.7,10.6,1.6c-0.7,1.4-1.4,2-1.5,3.6c1.2,3.2,5,9.3,8.1,13.6c7.6,9.1-1.4,25.6-5.1,35
	c7.7-5.1,18.3-14.9,19.6-22.9c1.3-8-0.9-17.8-5-26.4c-2.9-7,2.9-8.4-1.3-11.7c-1.1-1.6-1.8-3.4-2-5.4
	c-4.5-44.5,63.7-73.2,107.2-32.7C510,425.8,501.8,403.6,475.6,394.9z M264.8,385.6c-31.9-28.8-17.1-100.1-6.3-132.4
	c-0.9,13.7-1.8,34.9,6.6,46.5c21.6,29.5,51.3,54.2,75.2,58.5c5.3,0.9,8-0.4,12.9-1.2C337.5,400.3,290.4,408.7,264.8,385.6z
	 M378.1,442c-4.6,1.9-12.3-4-20-4.1c-7.2-0.1-14.4,5.8-17.9,4.6c-4.9-1.7-8.5-7-6.3-13.2c2.3-6.6,9-21.7,15.1-28
	c6.6-6.8,11.8-6.4,17.6,0c5.8,6.5,14.4,21.4,16.6,28C385.1,434.9,382.5,440.2,378.1,442z M451.7,385.6
	c-25.6,23.1-72.7,14.7-88.4-28.6c5,0.8,7.7,2.1,12.9,1.2c23.9-4.3,53.6-29,75.2-58.5c8.4-11.6,7.5-32.8,6.6-46.5
	C468.8,285.5,483.6,356.8,451.7,385.6z"/>
</svg>
