<?xml version="1.0" encoding="utf-8"?>
<!-- Generator: Adobe Illustrator 28.0.0, SVG Export Plug-In . SVG Version: 6.00 Build 0)  -->
<svg version="1.1" id="Layer_1" xmlns:xodm="http://www.corel.com/coreldraw/odm/2003"
	 xmlns="http://www.w3.org/2000/svg" xmlns:xlink="http://www.w3.org/1999/xlink" x="0px" y="0px" viewBox="0 0 720 720"
	 style="enable-background:new 0 0 720 720;" xml:space="preserve">
<style type="text/css">
	.st0{fill-rule:evenodd;clip-rule:evenodd;fill:#FFFF00;}
	.st1{fill-rule:evenodd;clip-rule:evenodd;}
</style>
<circle class="st0" cx="354.3" cy="355.8" r="299.4"/>
<path class="st1" d="M354.3,48.5c169.7,0,307.2,137.5,307.2,307.2S524,663,354.3,663S47.1,525.4,47.1,355.8S184.6,48.5,354.3,48.5z
	 M354.3,70c157.8,0,285.8,127.9,285.8,285.8S512.1,641.5,354.3,641.5S68.5,513.6,68.5,355.8S196.5,70,354.3,70z"/>
<path class="st1" d="M354.3,48.5c169.7,0,307.2,137.5,307.2,307.2S524,663,354.3,663S47.1,525.4,47.1,355.8S184.6,48.5,354.3,48.5z
	 M354.3,70c157.8,0,285.8,127.9,285.8,285.8S512.1,641.5,354.3,641.5S68.5,513.6,68.5,355.8S196.5,70,354.3,70z"/>
<circle class="st1" cx="354.3" cy="355.8" r="49.3"/>
<path class="st1" d="M386.5,300.1c0,0,34.9,21.8,30.6,55.1c36.4,0.6,155.6,0.4,182.2,0c-0.4-22.9,0-141.1-122.2-212.8
	C455,177.9,386.5,300.1,386.5,300.1L386.5,300.1z"/>
<path class="st1" d="M322.1,300.7c0,0-34.9,21.8-30.6,55.1c-36.4,0.6-155.6,0.4-182.2,0c0.4-22.9,0-141.1,122.2-212.8
	C253.5,178.5,322.1,300.7,322.1,300.7L322.1,300.7z"/>
<path class="st1" d="M322.3,412.2c0,0,36.5,19.1,63-1.5c18.9,31.1,78.9,134.1,92,157.3c-20,11.3-121.8,71.2-245.4,2
	C251.5,533.1,322.3,412.2,322.3,412.2L322.3,412.2z"/>
</svg>
