<?xml version="1.0" encoding="utf-8"?>
<!-- Generator: Adobe Illustrator 28.0.0, SVG Export Plug-In . SVG Version: 6.00 Build 0)  -->
<svg version="1.1" id="Layer_1" xmlns:xodm="http://www.corel.com/coreldraw/odm/2003"
	 xmlns="http://www.w3.org/2000/svg" xmlns:xlink="http://www.w3.org/1999/xlink" x="0px" y="0px" viewBox="0 0 720 720"
	 style="enable-background:new 0 0 720 720;" xml:space="preserve">
<style type="text/css">
	.st0{fill:#FFD93E;}
</style>
<rect x="57.7" y="309.6" class="st0" width="603.5" height="77.9"/>
<polygon points="83.9,324.3 57.7,324.3 65.3,309.6 91.4,309.6 "/>
<polygon points="65.1,372.8 57.8,387.1 57.8,372.8 "/>
<polygon points="110.4,387.5 84.2,387.5 91.7,372.8 117.9,372.8 "/>
<polygon points="136.8,324.3 110.7,324.3 118.2,309.6 144.4,309.6 "/>
<polygon points="163.3,387.5 137.1,387.5 144.7,372.8 170.8,372.8 "/>
<polygon points="189.8,324.3 163.6,324.3 171.1,309.6 197.3,309.6 "/>
<polygon points="216.2,387.5 190.1,387.5 197.6,372.8 223.8,372.8 "/>
<polygon points="242.7,324.3 216.5,324.3 224.1,309.6 250.2,309.6 "/>
<polygon points="269.1,387.5 243,387.5 250.5,372.8 276.7,372.8 "/>
<polygon points="295.6,324.3 269.4,324.3 277,309.6 303.1,309.6 "/>
<polygon points="322.1,387.5 295.9,387.5 303.4,372.8 329.6,372.8 "/>
<polygon points="348.5,324.3 322.4,324.3 329.9,309.6 356.1,309.6 "/>
<polygon points="375,387.5 348.8,387.5 356.4,372.8 382.5,372.8 "/>
<polygon points="401.5,324.3 375.3,324.3 382.8,309.6 409,309.6 "/>
<polygon points="427.9,387.5 401.8,387.5 409.3,372.8 435.4,372.8 "/>
<polygon points="454.4,324.3 428.2,324.3 435.7,309.6 461.9,309.6 "/>
<polygon points="480.8,387.5 454.7,387.5 462.2,372.8 488.4,372.8 "/>
<polygon points="507.3,324.3 481.1,324.3 488.7,309.6 514.8,309.6 "/>
<polygon points="533.8,387.5 507.6,387.5 515.1,372.8 541.3,372.8 "/>
<polygon points="560.2,324.3 534.1,324.3 541.6,309.6 567.8,309.6 "/>
<polygon points="586.7,387.5 560.5,387.5 568.1,372.8 594.2,372.8 "/>
<polygon points="613.1,324.3 587,324.3 594.5,309.6 620.7,309.6 "/>
<polygon points="639.6,387.5 613.4,387.5 621,372.8 647.1,372.8 "/>
<polygon points="661.2,309.6 661.2,324.3 639.9,324.3 647.5,309.6 "/>
</svg>
