<?xml version="1.0" encoding="utf-8"?>
<!-- Generator: Adobe Illustrator 28.0.0, SVG Export Plug-In . SVG Version: 6.00 Build 0)  -->
<svg version="1.1" id="Layer_1" xmlns:xodm="http://www.corel.com/coreldraw/odm/2003"
	 xmlns="http://www.w3.org/2000/svg" xmlns:xlink="http://www.w3.org/1999/xlink" x="0px" y="0px" viewBox="0 0 720 720"
	 style="enable-background:new 0 0 720 720;" xml:space="preserve">
<style type="text/css">
	.st0{fill:#FFFFFF;}
</style>
<g>
	<g>
		<polygon points="673,310.8 673,409.2 634.3,447.9 86.5,447.9 47.8,409.2 47.8,310.8 86.5,272.1 634.3,272.1 		"/>
	</g>
	<polygon class="st0" points="77.8,310.7 60.6,310.7 94.9,275.8 112.1,275.8 	"/>
	<polygon class="st0" points="107.5,310.7 90.4,310.7 124.7,275.8 141.8,275.8 	"/>
	<polygon class="st0" points="137.2,310.7 120.1,310.7 154.4,275.8 171.5,275.8 	"/>
	<polygon class="st0" points="166.9,310.7 149.8,310.7 184.1,275.8 201.2,275.8 	"/>
	<polygon class="st0" points="196.7,310.7 179.5,310.7 213.8,275.8 230.9,275.8 	"/>
	<polygon class="st0" points="226.4,310.7 209.2,310.7 243.5,275.8 260.7,275.8 	"/>
	<polygon class="st0" points="256.1,310.7 238.9,310.7 273.2,275.8 290.4,275.8 	"/>
	<polygon class="st0" points="285.8,310.7 268.7,310.7 303,275.8 320.1,275.8 	"/>
	<polygon class="st0" points="315.5,310.7 298.4,310.7 332.7,275.8 349.8,275.8 	"/>
	<polygon class="st0" points="345.2,310.7 328.1,310.7 362.4,275.8 379.5,275.8 	"/>
	<polygon class="st0" points="375,310.7 357.8,310.7 392.1,275.8 409.3,275.8 	"/>
	<polygon class="st0" points="404.7,310.7 387.5,310.7 421.8,275.8 439,275.8 	"/>
	<polygon class="st0" points="434.4,310.7 417.3,310.7 451.5,275.8 468.7,275.8 	"/>
	<polygon class="st0" points="464.1,310.7 447,310.7 481.3,275.8 498.4,275.8 	"/>
	<polygon class="st0" points="493.8,310.7 476.7,310.7 511,275.8 528.1,275.8 	"/>
	<polygon class="st0" points="523.5,310.7 506.4,310.7 540.7,275.8 557.8,275.8 	"/>
	<polygon class="st0" points="553.3,310.7 536.1,310.7 570.4,275.8 587.6,275.8 	"/>
	<polygon class="st0" points="583,310.7 565.8,310.7 600.1,275.8 617.3,275.8 	"/>
	<g>
		<polygon class="st0" points="640.3,282.6 612.7,310.7 595.5,310.7 629.8,275.8 633.5,275.8 		"/>
	</g>
	<g>
		<polygon class="st0" points="655.3,297.6 642.4,310.7 625.3,310.7 646.7,289 		"/>
	</g>
	<polygon class="st0" points="77.8,408.4 60.6,408.4 94.9,443.3 112.1,443.3 	"/>
	<polygon class="st0" points="107.5,408.4 90.4,408.4 124.7,443.3 141.8,443.3 	"/>
	<polygon class="st0" points="137.2,408.4 120.1,408.4 154.4,443.3 171.5,443.3 	"/>
	<polygon class="st0" points="166.9,408.4 149.8,408.4 184.1,443.3 201.2,443.3 	"/>
	<polygon class="st0" points="196.7,408.4 179.5,408.4 213.8,443.3 230.9,443.3 	"/>
	<polygon class="st0" points="226.4,408.4 209.2,408.4 243.5,443.3 260.7,443.3 	"/>
	<polygon class="st0" points="256.1,408.4 238.9,408.4 273.2,443.3 290.4,443.3 	"/>
	<polygon class="st0" points="285.8,408.4 268.7,408.4 303,443.3 320.1,443.3 	"/>
	<polygon class="st0" points="315.5,408.4 298.4,408.4 332.7,443.3 349.8,443.3 	"/>
	<polygon class="st0" points="345.2,408.4 328.1,408.4 362.4,443.3 379.5,443.3 	"/>
	<polygon class="st0" points="375,408.4 357.8,408.4 392.1,443.3 409.3,443.3 	"/>
	<polygon class="st0" points="404.7,408.4 387.5,408.4 421.8,443.3 439,443.3 	"/>
	<polygon class="st0" points="434.4,408.4 417.3,408.4 451.5,443.3 468.7,443.3 	"/>
	<polygon class="st0" points="464.1,408.4 447,408.4 481.3,443.3 498.4,443.3 	"/>
	<polygon class="st0" points="493.8,408.4 476.7,408.4 511,443.3 528.1,443.3 	"/>
	<polygon class="st0" points="523.5,408.4 506.4,408.4 540.7,443.3 557.8,443.3 	"/>
	<polygon class="st0" points="553.3,408.4 536.1,408.4 570.4,443.3 587.6,443.3 	"/>
	<polygon class="st0" points="583,408.4 565.8,408.4 600.1,443.3 617.3,443.3 	"/>
	<g>
		<polygon class="st0" points="640.3,436.5 612.7,408.4 595.5,408.4 629.8,443.3 633.5,443.3 		"/>
	</g>
	<g>
		<polygon class="st0" points="655.3,421.5 642.4,408.4 625.3,408.4 646.7,430.1 		"/>
	</g>
</g>
</svg>
