<?xml version="1.0" encoding="utf-8"?>
<!-- Generator: Adobe Illustrator 28.0.0, SVG Export Plug-In . SVG Version: 6.00 Build 0)  -->
<svg version="1.1" id="Layer_1" xmlns:xodm="http://www.corel.com/coreldraw/odm/2003"
	 xmlns="http://www.w3.org/2000/svg" xmlns:xlink="http://www.w3.org/1999/xlink" x="0px" y="0px" viewBox="0 0 720 720"
	 style="enable-background:new 0 0 720 720;" xml:space="preserve">
<path d="M663.2,249c-1.9-2.5-4.1-4.7-6.7-6.6c-6.6-5.2-15-8.3-24.1-8.3H83.2c-17.9,0-32.9,11.8-37.7,27.9c-1.2,3.6-1.7,7.4-1.7,11.3
	v128.4c0,21.8,17.6,39.4,39.4,39.4h549.2c21.8,0,39.4-17.6,39.4-39.4V273.3C671.8,264.1,668.5,255.6,663.2,249z M92.5,282.1H50.8
	V273c0-14.9,10.2-27.4,24.1-30.9h49.4L92.5,282.1z M201.7,282.1h-63.5l31.8-40h63.5L201.7,282.1z M310.4,282.1h-63.5l31.8-40h63.5
	L310.4,282.1z M419.1,282.1h-63.5l31.8-40h63.5L419.1,282.1z M527.9,282.1h-63.5l31.8-40h63.5L527.9,282.1z M636.6,282.1h-63.6
	l31.7-40h35.6c7.4,1.9,13.7,6.3,18.1,12.4L636.6,282.1z"/>
</svg>
