<?xml version="1.0" encoding="utf-8"?>
<!-- Generator: Adobe Illustrator 28.0.0, SVG Export Plug-In . SVG Version: 6.00 Build 0)  -->
<svg version="1.1" id="Layer_1" xmlns:xodm="http://www.corel.com/coreldraw/odm/2003"
	 xmlns="http://www.w3.org/2000/svg" xmlns:xlink="http://www.w3.org/1999/xlink" x="0px" y="0px" viewBox="0 0 720 720"
	 style="enable-background:new 0 0 720 720;" xml:space="preserve">
<style type="text/css">
	.st0{fill-rule:evenodd;clip-rule:evenodd;fill:#FFD93E;}
	.st1{fill-rule:evenodd;clip-rule:evenodd;fill:#F9F9F9;}
	.st2{fill-rule:evenodd;clip-rule:evenodd;}
</style>
<path class="st0" d="M338.7,95c10-17.4,35.1-17.4,45.1,0l137.3,237.7L660,573.4c9.3,16.1-2.3,36.1-20.8,36.1H361.3H83.3
	c-18.5,0-30.1-20-20.8-36.1l138.9-240.7L338.7,95z"/>
<path class="st1" d="M642.4,579.1L505.3,341.8L368.3,104.4c-3.1-5.4-10.8-5.4-13.9,0L217.3,341.8L80.2,579.1
	c-3.1,5.4,0.8,12.1,7,12.1h274.1h274.1C641.6,591.1,645.4,584.4,642.4,579.1z M633.1,585.7H361.3H89.5c-2.8,0-4.5-2.9-3.1-5.4
	L222.3,345l135.9-235.4c1.3-2.4,4.8-2.4,6.2,0L500.2,345l135.9,235.4C637.5,582.7,635.9,585.7,633.1,585.7z"/>
<path class="st2" d="M642.4,579L505.3,341.7L368.1,104.4c-3.1-5.4-10.8-5.4-13.9,0l-137,237.4l-137,237.4c-3.1,5.4,0.8,12.1,7,12.1
	l274.1-0.1l274.1-0.1C641.6,591.1,645.4,584.4,642.4,579z M626.6,580.3H361.2H95.8c-2.7,0-4.4-2.9-3.1-5.2l132.7-229.8l132.7-229.8
	c1.3-2.4,4.7-2.4,6,0l132.7,229.8L629.6,575C631,577.3,629.3,580.3,626.6,580.3z"/>
<path class="st2" d="M359.5,356.1c-36.1,0-65.4,29.3-65.4,65.4s29.3,65.4,65.4,65.4s65.4-29.3,65.4-65.4S395.6,356.1,359.5,356.1z
	 M359.6,474.2c-29.1,0-52.7-23.6-52.7-52.7s23.6-52.7,52.7-52.7s52.7,23.6,52.7,52.7S388.7,474.2,359.6,474.2z"/>
<path class="st2" d="M359.4,503.8L359.4,503.8L359.4,503.8c24.3,37.3,70.2,48.5,109.4,26.7c-32.9,12.6-73.2-6.1-86.7-40.3
	c-4.5-11.6-1.8-36.5,4.5-49.5c-12.5-8.6-19.9-12.4-27.6-11.9c-7.7-0.4-15,3.5-27.4,12.2c6.4,12.9,9.5,37.8,5.1,49.4
	c-13,34.4-53.1,53.6-86.1,41.4C289.9,553.2,335.6,541.4,359.4,503.8z"/>
<path class="st2" d="M430.4,381.7C430.4,381.7,430.4,381.6,430.4,381.7C430.4,381.6,430.4,381.6,430.4,381.7
	c20.4-39.6,7.6-85-30.7-108.3c27.2,22.4,30.8,66.7,7.7,95.3c-7.8,9.7-30.9,19.5-45.3,20.5c-1.3,15.1-1,23.4,3.3,29.8
	c3.4,6.9,10.5,11.3,24.2,17.8c8.1-12,28.2-26.9,40.5-28.8c36.3-5.6,72.8,19.8,78.5,54.5C507.6,417.8,474.8,383.8,430.4,381.7z"/>
<path class="st2" d="M289.1,381.6C289.1,381.6,289.1,381.6,289.1,381.6C289,381.6,289.1,381.7,289.1,381.6
	c-44.5,2.2-77.3,36.1-78.2,80.9c5.8-34.7,42.2-60.1,78.5-54.5c12.3,1.9,32.4,16.9,40.5,28.9c13.7-6.5,20.7-10.9,24.2-17.8
	c4.3-6.4,4.6-14.8,3.3-29.8c-14.4-1-37.5-10.9-45.3-20.6c-23.1-28.6-19.4-72.9,7.7-95.3C281.5,296.7,268.7,342.1,289.1,381.6z"/>
</svg>
