<?xml version="1.0" encoding="utf-8"?>
<!-- Generator: Adobe Illustrator 28.0.0, SVG Export Plug-In . SVG Version: 6.00 Build 0)  -->
<svg version="1.1" id="Layer_1" xmlns:xodm="http://www.corel.com/coreldraw/odm/2003"
	 xmlns="http://www.w3.org/2000/svg" xmlns:xlink="http://www.w3.org/1999/xlink" x="0px" y="0px" viewBox="0 0 720 720"
	 style="enable-background:new 0 0 720 720;" xml:space="preserve">
<style type="text/css">
	.st0{fill:#C12026;}
	.st1{opacity:0.5;fill:#C12026;}
</style>
<path class="st0" d="M226.5,400.5c0-4.4,0.6-9.3,1.8-14.5h14.8v10.2c0,6,0.9,10.2,2.6,12.8c1.7,2.6,4.6,3.9,8.5,3.9
	c4,0,6.8-1.4,8.5-4.3c1.7-2.9,2.5-7,2.5-12.4v-24.2c0-3.1-0.3-5.6-0.8-7.6c-0.5-1.9-1.3-3.4-2.2-4.5c-0.9-1.1-2-1.8-3.3-2.2
	c-1.2-0.4-2.6-0.6-4.1-0.6c-2.7,0-5.1,0.8-7,2.3c-2,1.5-3.6,3.4-4.8,5.5h-14v-63.8h53.7V318h-37.9v30.9c2-2.3,4.6-4.2,7.7-5.5
	c3.1-1.3,6.3-2,9.7-2c7.8,0,13.4,2.6,17.1,7.8c3.6,5.2,5.4,12.9,5.4,23.1v21.2c0,6.4-0.8,11.8-2.5,16.1c-1.7,4.3-3.9,7.8-6.6,10.4
	c-2.7,2.6-5.9,4.5-9.5,5.6c-3.6,1.1-7.3,1.7-11.1,1.7c-4.6,0-8.7-0.6-12.3-1.9c-3.6-1.2-6.6-3-9-5.4c-2.4-2.3-4.2-5.2-5.5-8.5
	C227.2,408.3,226.5,404.6,226.5,400.5z"/>
<path class="st0" d="M300.4,336.9c0-5.5,0.5-10.2,1.5-14.2c1-4,2.3-7.3,4-10c1.6-2.7,3.5-4.9,5.7-6.6c2.1-1.7,4.4-2.9,6.6-3.8
	c2.3-0.9,4.5-1.5,6.8-1.8c2.3-0.3,4.4-0.4,6.3-0.4c1.8,0,3.8,0.1,6,0.4c2.2,0.3,4.5,0.8,6.7,1.7s4.5,2.1,6.6,3.7
	c2.1,1.6,4,3.8,5.6,6.5c1.6,2.7,3,6.1,4,10.1c1,4,1.5,8.8,1.5,14.3v52.8c0,5.5-0.5,10.2-1.5,14.2c-1,4-2.3,7.4-4,10.1
	c-1.7,2.8-3.6,5-5.7,6.8c-2.1,1.7-4.3,3.1-6.6,4c-2.2,1-4.5,1.6-6.7,1.9c-2.2,0.3-4.2,0.5-6,0.5c-2,0-4.1-0.2-6.4-0.5
	c-2.3-0.3-4.6-1-6.9-1.9c-2.3-1-4.5-2.3-6.6-4c-2.1-1.7-4-4-5.6-6.7c-1.6-2.8-2.9-6.2-3.9-10.2c-1-4-1.5-8.7-1.5-14.2V336.9z
	 M319.8,397.7c0,5.2,0.9,8.9,2.8,11.3c1.9,2.3,4.7,3.5,8.6,3.5c3.8,0,6.6-1.2,8.4-3.5c1.9-2.3,2.8-6.1,2.8-11.3V330
	c0-5.5-0.9-9.4-2.8-11.9c-1.9-2.5-4.7-3.7-8.4-3.7c-3.9,0-6.7,1.2-8.6,3.7c-1.9,2.5-2.8,6.5-2.8,11.9V397.7z"/>
<path class="st0" d="M404.4,368.7c-2.8,0-5.6-0.4-8.4-1.2c-2.8-0.8-5.3-2.3-7.6-4.6c-2.3-2.3-4.1-5.5-5.5-9.7
	c-1.4-4.2-2.1-9.7-2.1-16.4V329c0-4.4,0.3-8.3,1-11.5c0.7-3.2,1.6-6,2.8-8.3c1.2-2.3,2.6-4.1,4.1-5.6c1.6-1.4,3.2-2.5,5-3.3
	c1.8-0.8,3.6-1.3,5.4-1.6c1.8-0.3,3.6-0.4,5.4-0.4c1.7,0,3.4,0.1,5.2,0.4c1.8,0.3,3.6,0.8,5.3,1.6c1.7,0.8,3.4,1.9,4.9,3.3
	c1.6,1.4,2.9,3.2,4.1,5.5c1.2,2.3,2.1,5.1,2.8,8.3c0.7,3.3,1,7.1,1,11.6v7.8c0,6.7-0.8,12.1-2.3,16.3c-1.5,4.2-3.4,7.4-5.7,9.7
	c-2.3,2.3-4.9,3.8-7.6,4.6C409.4,368.3,406.8,368.7,404.4,368.7z M404.5,357c3.1,0,5.2-1.3,6.4-4c1.2-2.7,1.8-6.8,1.8-12.4v-14.2
	c0-5.7-0.6-9.8-1.8-12.5c-1.2-2.7-3.4-4-6.4-4c-3.2,0-5.5,1.3-6.8,4c-1.3,2.7-1.9,6.9-1.9,12.5v14.2c0,5.6,0.7,9.7,1.9,12.4
	C399,355.7,401.3,357,404.5,357z M448.7,299.8H462l-33.6,126.4h-13.3L448.7,299.8z M448.9,387.6c0-6.7,0.7-12,2.2-16.1
	c1.5-4,3.4-7.1,5.7-9.3c2.3-2.2,4.9-3.6,7.6-4.3c2.8-0.7,5.5-1.1,8.1-1.1c1.7,0,3.4,0.1,5.2,0.4c1.8,0.3,3.6,0.8,5.3,1.6
	c1.7,0.8,3.4,1.9,4.9,3.3c1.6,1.4,2.9,3.2,4.1,5.5c1.2,2.3,2.1,5.1,2.8,8.3c0.7,3.3,1,7.2,1,11.6v7.8c0,4.5-0.4,8.4-1.1,11.7
	c-0.7,3.3-1.7,6.1-2.9,8.5c-1.2,2.3-2.6,4.3-4.1,5.8s-3.2,2.7-4.9,3.6c-1.7,0.9-3.5,1.5-5.3,1.8c-1.8,0.3-3.5,0.5-5.1,0.5
	c-1.9,0-3.7-0.2-5.6-0.5c-1.9-0.3-3.7-0.9-5.4-1.7c-1.7-0.8-3.4-2-4.9-3.5c-1.5-1.5-2.9-3.4-4-5.8c-1.1-2.3-2-5.2-2.7-8.5
	c-0.7-3.3-1-7.3-1-11.8V387.6z M463.9,399.3c0,5.6,0.6,9.7,1.9,12.4c1.3,2.7,3.6,4,6.8,4c3.1,0,5.2-1.3,6.4-4
	c1.2-2.7,1.8-6.8,1.8-12.4v-14.2c0-5.7-0.6-9.8-1.8-12.5c-1.2-2.7-3.4-4-6.4-4c-3.2,0-5.5,1.3-6.8,4c-1.3,2.7-1.9,6.9-1.9,12.5
	V399.3z"/>
<path class="st1" d="M200.3,306.6c8.3-23.9,22-45.8,40.4-64.3c5.5-5.5,11.3-10.5,17.3-15.2l-78.8-108.5
	c-48.9,36.5-86.5,87.4-106.5,146.5L200.3,306.6z"/>
<path class="st1" d="M190.9,362.8c0-16.9,2.4-33.4,7.2-49.1L70.5,272.2c-8.9,28.6-13.7,59-13.7,90.5s4.8,61.9,13.7,90.5l127.5-41.4
	C193.3,396.2,190.9,379.7,190.9,362.8z"/>
<path class="st0" d="M531.5,362.8c0,16.9-2.4,33.4-7.2,49.1l127.5,41.4c8.9-28.6,13.7-59,13.7-90.5s-4.8-61.9-13.7-90.5l-127.5,41.4
	C529,329.4,531.5,345.9,531.5,362.8z"/>
<path class="st0" d="M522,418.9c-8.3,23.9-22,45.8-40.4,64.3c-5.5,5.5-11.3,10.5-17.3,15.2l78.8,108.5
	c48.9-36.5,86.5-87.4,106.5-146.5L522,418.9z"/>
<path class="st1" d="M240.8,483.2c-18.4-18.4-32.1-40.3-40.4-64.3L72.8,460.4c20,59,57.5,109.9,106.5,146.5l78.8-108.5
	C252.1,493.7,246.3,488.7,240.8,483.2z"/>
<path class="st0" d="M481.6,242.4c18.4,18.4,32.1,40.3,40.4,64.3l127.5-41.4c-20-59-57.5-109.9-106.5-146.5l-78.8,108.5
	C470.3,231.8,476.1,236.9,481.6,242.4z"/>
<path class="st0" d="M458.3,502.7c-27.3,19-59.5,29.6-93.4,30.3v134.1c64.1-0.8,123.5-21.4,172.2-55.9L458.3,502.7z"/>
<path class="st1" d="M357.5,533c-33.9-0.7-66.1-11.3-93.4-30.3l-78.8,108.5c48.7,34.6,108.1,55.2,172.2,55.9V533z"/>
<path class="st1" d="M264.1,222.8c27.3-19,59.5-29.6,93.4-30.3V58.4c-64.1,0.8-123.5,21.4-172.2,55.9L264.1,222.8z"/>
<path class="st0" d="M364.9,192.5c33.9,0.7,66.1,11.3,93.4,30.3l78.8-108.5C488.4,79.8,429,59.2,364.9,58.4V192.5z"/>
</svg>
