<?xml version="1.0" encoding="utf-8"?>
<!-- Generator: Adobe Illustrator 28.0.0, SVG Export Plug-In . SVG Version: 6.00 Build 0)  -->
<svg version="1.1" id="Layer_1" xmlns:xodm="http://www.corel.com/coreldraw/odm/2003"
	 xmlns="http://www.w3.org/2000/svg" xmlns:xlink="http://www.w3.org/1999/xlink" x="0px" y="0px" viewBox="0 0 720 720"
	 style="enable-background:new 0 0 720 720;" xml:space="preserve">
<style type="text/css">
	.st0{fill:#F6B24A;}
	.st1{opacity:0.5;}
</style>
<g>
	<path class="st0" d="M671.1,372.7H48c-5.9,0-10.7-4.8-10.7-10.7v-43c0-5.9,4.8-10.7,10.7-10.7h623.2c5.9,0,10.7,4.8,10.7,10.7v43
		C681.9,367.9,677.1,372.7,671.1,372.7z M48,313.4c-3,0-5.5,2.5-5.5,5.5v43c0,3,2.5,5.5,5.5,5.5h623.2c3,0,5.5-2.5,5.5-5.5v-43
		c0-3-2.5-5.5-5.5-5.5H48z"/>
</g>
<g class="st1">
	<g>
		<rect x="45.3" y="314.8" class="st0" width="8.7" height="51.3"/>
	</g>
</g>
<g class="st1">
	<g>
		<rect x="55.8" y="314.8" class="st0" width="8.7" height="51.3"/>
	</g>
</g>
<g class="st1">
	<g>
		<rect x="66.3" y="314.8" class="st0" width="8.7" height="51.3"/>
	</g>
</g>
<g class="st1">
	<g>
		<rect x="76.8" y="314.8" class="st0" width="8.7" height="51.3"/>
	</g>
</g>
<g class="st1">
	<g>
		<rect x="87.3" y="314.8" class="st0" width="8.7" height="51.3"/>
	</g>
</g>
<g class="st1">
	<g>
		<rect x="97.8" y="314.8" class="st0" width="8.7" height="51.3"/>
	</g>
</g>
<g class="st1">
	<g>
		<rect x="108.3" y="314.8" class="st0" width="8.7" height="51.3"/>
	</g>
</g>
<g class="st1">
	<g>
		<rect x="118.8" y="314.8" class="st0" width="8.7" height="51.3"/>
	</g>
</g>
<g class="st1">
	<g>
		<rect x="129.3" y="314.8" class="st0" width="8.7" height="51.3"/>
	</g>
</g>
<g class="st1">
	<g>
		<rect x="139.8" y="314.8" class="st0" width="8.7" height="51.3"/>
	</g>
</g>
<g class="st1">
	<g>
		<rect x="150.3" y="314.8" class="st0" width="8.7" height="51.3"/>
	</g>
</g>
<g class="st1">
	<g>
		<rect x="160.8" y="314.8" class="st0" width="8.7" height="51.3"/>
	</g>
</g>
<g class="st1">
	<g>
		<rect x="171.3" y="314.8" class="st0" width="8.7" height="51.3"/>
	</g>
</g>
<g class="st1">
	<g>
		<rect x="181.8" y="314.8" class="st0" width="8.7" height="51.3"/>
	</g>
</g>
<g class="st1">
	<g>
		<rect x="192.3" y="314.8" class="st0" width="8.7" height="51.3"/>
	</g>
</g>
<g class="st1">
	<g>
		<rect x="202.8" y="314.8" class="st0" width="8.7" height="51.3"/>
	</g>
</g>
<g class="st1">
	<g>
		<rect x="213.4" y="314.8" class="st0" width="8.7" height="51.3"/>
	</g>
</g>
<g class="st1">
	<g>
		<rect x="223.9" y="314.8" class="st0" width="8.7" height="51.3"/>
	</g>
</g>
<g class="st1">
	<g>
		<rect x="234.4" y="314.8" class="st0" width="8.7" height="51.3"/>
	</g>
</g>
<g class="st1">
	<g>
		<rect x="244.9" y="314.8" class="st0" width="8.7" height="51.3"/>
	</g>
</g>
<g class="st1">
	<g>
		<rect x="255.4" y="314.8" class="st0" width="8.7" height="51.3"/>
	</g>
</g>
<g class="st1">
	<g>
		<rect x="265.9" y="314.8" class="st0" width="8.7" height="51.3"/>
	</g>
</g>
<g class="st1">
	<g>
		<rect x="276.4" y="314.8" class="st0" width="8.7" height="51.3"/>
	</g>
</g>
<g class="st1">
	<g>
		<rect x="286.9" y="314.8" class="st0" width="8.7" height="51.3"/>
	</g>
</g>
<g class="st1">
	<g>
		<rect x="297.4" y="314.8" class="st0" width="8.7" height="51.3"/>
	</g>
</g>
<g class="st1">
	<g>
		<rect x="307.9" y="314.8" class="st0" width="8.7" height="51.3"/>
	</g>
</g>
<g class="st1">
	<g>
		<rect x="318.4" y="314.8" class="st0" width="8.7" height="51.3"/>
	</g>
</g>
<g class="st1">
	<g>
		<rect x="328.9" y="314.8" class="st0" width="8.7" height="51.3"/>
	</g>
</g>
<g class="st1">
	<g>
		<rect x="339.4" y="314.8" class="st0" width="8.7" height="51.3"/>
	</g>
</g>
<g class="st1">
	<g>
		<rect x="349.9" y="314.8" class="st0" width="8.7" height="51.3"/>
	</g>
</g>
<g class="st1">
	<g>
		<rect x="360.4" y="314.8" class="st0" width="8.7" height="51.3"/>
	</g>
</g>
<g class="st1">
	<g>
		<rect x="370.9" y="314.8" class="st0" width="8.7" height="51.3"/>
	</g>
</g>
<g class="st1">
	<g>
		<rect x="381.4" y="314.8" class="st0" width="8.7" height="51.3"/>
	</g>
</g>
<g class="st1">
	<g>
		<rect x="391.9" y="314.8" class="st0" width="8.7" height="51.3"/>
	</g>
</g>
<g class="st1">
	<g>
		<rect x="402.4" y="314.8" class="st0" width="8.7" height="51.3"/>
	</g>
</g>
<g class="st1">
	<g>
		<rect x="412.9" y="314.8" class="st0" width="8.7" height="51.3"/>
	</g>
</g>
<g class="st1">
	<g>
		<rect x="423.4" y="314.8" class="st0" width="8.7" height="51.3"/>
	</g>
</g>
<g class="st1">
	<g>
		<rect x="433.9" y="314.8" class="st0" width="8.7" height="51.3"/>
	</g>
</g>
<g class="st1">
	<g>
		<rect x="444.4" y="314.8" class="st0" width="8.7" height="51.3"/>
	</g>
</g>
<g class="st1">
	<g>
		<rect x="454.9" y="314.8" class="st0" width="8.7" height="51.3"/>
	</g>
</g>
<g class="st1">
	<g>
		<rect x="465.4" y="314.8" class="st0" width="8.7" height="51.3"/>
	</g>
</g>
<g class="st1">
	<g>
		<rect x="475.9" y="314.8" class="st0" width="8.7" height="51.3"/>
	</g>
</g>
<g class="st1">
	<g>
		<rect x="486.4" y="314.8" class="st0" width="8.7" height="51.3"/>
	</g>
</g>
<g class="st1">
	<g>
		<rect x="497" y="314.8" class="st0" width="8.7" height="51.3"/>
	</g>
</g>
<g class="st1">
	<g>
		<rect x="507.5" y="314.8" class="st0" width="8.7" height="51.3"/>
	</g>
</g>
<g class="st1">
	<g>
		<rect x="518" y="314.8" class="st0" width="8.7" height="51.3"/>
	</g>
</g>
<g class="st1">
	<g>
		<rect x="528.5" y="314.8" class="st0" width="8.7" height="51.3"/>
	</g>
</g>
<g class="st1">
	<g>
		<rect x="539" y="314.8" class="st0" width="8.7" height="51.3"/>
	</g>
</g>
<g class="st1">
	<g>
		<rect x="549.5" y="314.8" class="st0" width="8.7" height="51.3"/>
	</g>
</g>
<g class="st1">
	<g>
		<rect x="560" y="314.8" class="st0" width="8.7" height="51.3"/>
	</g>
</g>
<g class="st1">
	<g>
		<rect x="570.5" y="314.8" class="st0" width="8.7" height="51.3"/>
	</g>
</g>
<g class="st1">
	<g>
		<rect x="581" y="314.8" class="st0" width="8.7" height="51.3"/>
	</g>
</g>
<g class="st1">
	<g>
		<rect x="591.5" y="314.8" class="st0" width="8.7" height="51.3"/>
	</g>
</g>
<g class="st1">
	<g>
		<rect x="602" y="314.8" class="st0" width="8.7" height="51.3"/>
	</g>
</g>
<g class="st1">
	<g>
		<rect x="612.5" y="314.8" class="st0" width="8.7" height="51.3"/>
	</g>
</g>
<g class="st1">
	<g>
		<rect x="623" y="314.8" class="st0" width="8.7" height="51.3"/>
	</g>
</g>
<g class="st1">
	<g>
		<rect x="633.5" y="314.8" class="st0" width="8.7" height="51.3"/>
	</g>
</g>
<g class="st1">
	<g>
		<rect x="644" y="314.8" class="st0" width="8.7" height="51.3"/>
	</g>
</g>
<g class="st1">
	<g>
		<rect x="654.6" y="314.8" class="st0" width="8.7" height="51.3"/>
	</g>
</g>
<g class="st1">
	<g>
		<rect x="665.1" y="314.8" class="st0" width="8.7" height="51.3"/>
	</g>
</g>
<path class="st0" d="M339.5,288.2c0-1,0.1-1.8,0.3-2.5c0.2-0.7,0.4-1.3,0.7-1.8c0.3-0.5,0.6-0.9,1-1.1c0.4-0.3,0.8-0.5,1.2-0.7
	s0.8-0.3,1.2-0.3c0.4-0.1,0.8-0.1,1.1-0.1c0.3,0,0.7,0,1.1,0.1s0.8,0.1,1.2,0.3c0.4,0.1,0.8,0.4,1.2,0.7c0.4,0.3,0.7,0.7,1,1.1
	c0.3,0.5,0.5,1.1,0.7,1.8c0.2,0.7,0.3,1.5,0.3,2.5v9.2c0,1-0.1,1.8-0.3,2.5c-0.2,0.7-0.4,1.3-0.7,1.8c-0.3,0.5-0.6,0.9-1,1.2
	c-0.4,0.3-0.8,0.5-1.2,0.7c-0.4,0.2-0.8,0.3-1.2,0.3c-0.4,0.1-0.7,0.1-1,0.1s-0.7,0-1.1-0.1s-0.8-0.2-1.2-0.3
	c-0.4-0.2-0.8-0.4-1.2-0.7c-0.4-0.3-0.7-0.7-1-1.2s-0.5-1.1-0.7-1.8c-0.2-0.7-0.3-1.5-0.3-2.5v-9.2H339.5z M342.9,298.8
	c0,0.9,0.2,1.6,0.5,2s0.8,0.6,1.5,0.6s1.1-0.2,1.5-0.6c0.3-0.4,0.5-1.1,0.5-2V287c0-1-0.2-1.7-0.5-2.1s-0.8-0.7-1.5-0.7
	s-1.2,0.2-1.5,0.7c-0.3,0.4-0.5,1.1-0.5,2.1V298.8z"/>
<path class="st0" d="M357.7,293.7c-0.5,0-1-0.1-1.5-0.2s-0.9-0.4-1.3-0.8s-0.7-1-1-1.7s-0.4-1.7-0.4-2.9v-1.4c0-0.8,0.1-1.4,0.2-2
	s0.3-1.1,0.5-1.5s0.4-0.7,0.7-1c0.3-0.2,0.6-0.4,0.9-0.6c0.3-0.1,0.6-0.2,0.9-0.3c0.3-0.1,0.6-0.1,0.9-0.1s0.6,0,0.9,0.1
	c0.3,0,0.6,0.1,0.9,0.3c0.3,0.1,0.6,0.3,0.9,0.6c0.3,0.2,0.5,0.6,0.7,1s0.4,0.9,0.5,1.5s0.2,1.2,0.2,2v1.4c0,1.2-0.1,2.1-0.4,2.8
	s-0.6,1.3-1,1.7s-0.8,0.7-1.3,0.8S358.1,293.7,357.7,293.7z M357.7,291.7c0.5,0,0.9-0.2,1.1-0.7s0.3-1.2,0.3-2.2v-2.5
	c0-1-0.1-1.7-0.3-2.2c-0.2-0.5-0.6-0.7-1.1-0.7c-0.6,0-1,0.2-1.2,0.7s-0.3,1.2-0.3,2.2v2.5c0,1,0.1,1.7,0.3,2.2
	C356.7,291.5,357.1,291.7,357.7,291.7z M365.4,281.7h2.3l-5.9,22.1h-2.3L365.4,281.7z M365.4,297c0-1.2,0.1-2.1,0.4-2.8
	c0.3-0.7,0.6-1.2,1-1.6s0.9-0.6,1.3-0.8c0.5-0.1,1-0.2,1.4-0.2c0.3,0,0.6,0,0.9,0.1c0.3,0,0.6,0.1,0.9,0.3c0.3,0.1,0.6,0.3,0.9,0.6
	c0.3,0.2,0.5,0.6,0.7,1s0.4,0.9,0.5,1.5s0.2,1.3,0.2,2v1.4c0,0.8-0.1,1.5-0.2,2c-0.1,0.6-0.3,1.1-0.5,1.5s-0.5,0.7-0.7,1
	c-0.3,0.3-0.6,0.5-0.9,0.6c-0.3,0.2-0.6,0.3-0.9,0.3c-0.3,0.1-0.6,0.1-0.9,0.1s-0.7,0-1-0.1s-0.6-0.2-0.9-0.3
	c-0.3-0.1-0.6-0.3-0.9-0.6c-0.3-0.3-0.5-0.6-0.7-1s-0.4-0.9-0.5-1.5s-0.2-1.3-0.2-2.1V297H365.4z M368.1,299.1c0,1,0.1,1.7,0.3,2.2
	c0.2,0.5,0.6,0.7,1.2,0.7c0.5,0,0.9-0.2,1.1-0.7s0.3-1.2,0.3-2.2v-2.5c0-1-0.1-1.7-0.3-2.2c-0.2-0.5-0.6-0.7-1.1-0.7
	c-0.6,0-1,0.2-1.2,0.7s-0.3,1.2-0.3,2.2V299.1z"/>
</svg>
