<?xml version="1.0" encoding="utf-8"?>
<!-- Generator: Adobe Illustrator 28.0.0, SVG Export Plug-In . SVG Version: 6.00 Build 0)  -->
<svg version="1.1" id="Layer_1" xmlns:xodm="http://www.corel.com/coreldraw/odm/2003"
	 xmlns="http://www.w3.org/2000/svg" xmlns:xlink="http://www.w3.org/1999/xlink" x="0px" y="0px" viewBox="0 0 720 720"
	 style="enable-background:new 0 0 720 720;" xml:space="preserve">
<style type="text/css">
	.st0{stroke:#000000;stroke-width:2.1485;stroke-miterlimit:10;}
</style>
<g>
	<g>
		<path d="M74.1,378.4"/>
	</g>
</g>
<g>
	<g>
		<path d="M65.6,377.2l35.7-52H80.7l-15.9,22.4v61.1l16.4,24.9h23.1L65.6,377.2z"/>
	</g>
</g>
<g>
	<g>
		<path d="M97.6,377.2l35.7-52h-20.6L75.9,377l37.2,56.6h23.1L97.6,377.2z"/>
	</g>
</g>
<g>
	<g>
		<path d="M144.7,325.2l-12.6,17.7h21l12.1-17.7H144.7z M153,411.5h-22.4l14.6,22.1h23L153,411.5z"/>
	</g>
</g>
<g>
	<g>
		<path d="M176.7,325.2l-12.5,17.7h21l12.1-17.7H176.7z M185.1,411.5h-22.5l14.6,22.1h23.1L185.1,411.5z"/>
	</g>
</g>
<g>
	<g>
		<path d="M208.7,325.2l-12.5,17.7h21l12.1-17.7H208.7z M217.1,411.5h-22.5l14.6,22.1h23.1L217.1,411.5z"/>
	</g>
</g>
<g>
	<g>
		<path d="M240.7,325.2l-12.5,17.7h21l12.1-17.7H240.7z M249.1,411.5h-22.5l14.6,22.1h23.1L249.1,411.5z"/>
	</g>
</g>
<g>
	<g>
		<path d="M272.7,325.2l-12.5,17.7h21l12.1-17.7H272.7z M281.1,411.5h-22.5l14.6,22.1h23.1L281.1,411.5z"/>
	</g>
</g>
<g>
	<g>
		<path d="M304.7,325.2l-12.5,17.7h21l12.1-17.7H304.7z M313.1,411.5h-22.5l14.6,22.1h23.1L313.1,411.5z"/>
	</g>
</g>
<g>
	<g>
		<path d="M336.7,325.2l-12.5,17.7h21l12.1-17.7H336.7z M345.1,411.5h-22.5l14.6,22.1h23.1L345.1,411.5z"/>
	</g>
</g>
<g>
	<g>
		<path d="M368.7,325.2l-12.5,17.7h21l12.1-17.7H368.7z M377.1,411.5h-22.5l14.6,22.1h23.1L377.1,411.5z"/>
	</g>
</g>
<g>
	<g>
		<path d="M400.7,325.2l-12.5,17.7h21l12.1-17.7H400.7z M409.1,411.5h-22.5l14.6,22.1h23.1L409.1,411.5z"/>
	</g>
</g>
<g>
	<g>
		<path d="M432.7,325.2l-12.6,17.7h21l12.1-17.7H432.7z M441.1,411.5h-22.4l14.6,22.1h23L441.1,411.5z"/>
	</g>
</g>
<g>
	<g>
		<path d="M464.7,325.2l-12.5,17.7h21l12.1-17.7H464.7z M473.1,411.5h-22.5l14.6,22.1h23.1L473.1,411.5z"/>
	</g>
</g>
<g>
	<g>
		<path d="M496.7,325.2l-12.5,17.7h21l12.1-17.7H496.7z M505.1,411.5h-22.5l14.6,22.1h23.1L505.1,411.5z"/>
	</g>
</g>
<g>
	<g>
		<path d="M528.7,325.2l-12.5,17.7h21l12.1-17.7H528.7z M537.1,411.5h-22.5l14.6,22.1h23.1L537.1,411.5z"/>
	</g>
</g>
<g>
	<g>
		<path d="M560.7,325.2l-12.5,17.7h21l12.1-17.7H560.7z M569.1,411.5h-22.5l14.6,22.1h23.1L569.1,411.5z"/>
	</g>
</g>
<g>
	<g>
		<path d="M592.7,325.2l-12.5,17.7h21l12.1-17.7H592.7z M601.1,411.5h-22.5l14.6,22.1h23.1L601.1,411.5z"/>
	</g>
</g>
<g>
	<g>
		<path d="M609.6,377.2l35.7-52h-20.6L588,377l37.2,56.6h23.1L609.6,377.2z"/>
	</g>
</g>
<g>
	<g>
		<path d="M663.3,325.2h-6.6L619.9,377l37.2,56.6h6.1v-24.8l-21.7-31.7l21.7-31.6V325.2z"/>
	</g>
</g>
<g>
	<g>
		<path d="M651.9,377l11.4,17.3v-33.3L651.9,377z"/>
	</g>
</g>
<g>
	<path d="M130,329.4"/>
</g>
<line class="st0" x1="64.7" y1="325.2" x2="663.3" y2="325.2"/>
<rect x="64.7" y="314.4" width="29.2" height="6.3"/>
<rect x="102.7" y="314.4" width="29.2" height="6.3"/>
<rect x="140.7" y="314.4" width="29.2" height="6.3"/>
<rect x="178.6" y="314.4" width="29.2" height="6.3"/>
<rect x="216.6" y="314.4" width="29.2" height="6.3"/>
<rect x="254.5" y="314.4" width="29.2" height="6.3"/>
<rect x="292.5" y="314.4" width="29.2" height="6.3"/>
<rect x="330.4" y="314.4" width="29.2" height="6.3"/>
<rect x="368.4" y="314.4" width="29.2" height="6.3"/>
<rect x="406.3" y="314.4" width="29.2" height="6.3"/>
<rect x="444.3" y="314.4" width="29.2" height="6.3"/>
<rect x="482.3" y="314.4" width="29.2" height="6.3"/>
<rect x="520.2" y="314.4" width="29.2" height="6.3"/>
<rect x="558.2" y="314.4" width="29.2" height="6.3"/>
<rect x="596.1" y="314.4" width="29.2" height="6.3"/>
<rect x="634.1" y="314.4" width="29.2" height="6.3"/>
<line class="st0" x1="64.7" y1="433.4" x2="663.3" y2="433.4"/>
<rect x="64.7" y="437.8" width="29.2" height="6.3"/>
<rect x="102.7" y="437.8" width="29.2" height="6.3"/>
<rect x="140.7" y="437.8" width="29.2" height="6.3"/>
<rect x="178.6" y="437.8" width="29.2" height="6.3"/>
<rect x="216.6" y="437.8" width="29.2" height="6.3"/>
<rect x="254.5" y="437.8" width="29.2" height="6.3"/>
<rect x="292.5" y="437.8" width="29.2" height="6.3"/>
<rect x="330.4" y="437.8" width="29.2" height="6.3"/>
<rect x="368.4" y="437.8" width="29.2" height="6.3"/>
<rect x="406.3" y="437.8" width="29.2" height="6.3"/>
<rect x="444.3" y="437.8" width="29.2" height="6.3"/>
<rect x="482.3" y="437.8" width="29.2" height="6.3"/>
<rect x="520.2" y="437.8" width="29.2" height="6.3"/>
<rect x="558.2" y="437.8" width="29.2" height="6.3"/>
<rect x="596.1" y="437.8" width="29.2" height="6.3"/>
<rect x="634.1" y="437.8" width="29.2" height="6.3"/>
</svg>
