<?xml version="1.0" encoding="utf-8"?>
<!-- Generator: Adobe Illustrator 28.0.0, SVG Export Plug-In . SVG Version: 6.00 Build 0)  -->
<svg version="1.1" id="Layer_1" xmlns:xodm="http://www.corel.com/coreldraw/odm/2003"
	 xmlns="http://www.w3.org/2000/svg" xmlns:xlink="http://www.w3.org/1999/xlink" x="0px" y="0px" viewBox="0 0 720 720"
	 style="enable-background:new 0 0 720 720;" xml:space="preserve">
<style type="text/css">
	.st0{opacity:0.5;}
	.st1{fill:#F6B24A;}
</style>
<g class="st0">
	
		<ellipse transform="matrix(3.327793e-02 -0.9994 0.9994 3.327793e-02 -281.2061 429.2749)" class="st1" cx="81.3" cy="360" rx="23.3" ry="23.3"/>
</g>
<g>
	<circle class="st1" cx="360" cy="81.3" r="38.7"/>
</g>
<g class="st0">
	<circle class="st1" cx="196.2" cy="134.5" r="38.7"/>
</g>
<g class="st0">
	<circle class="st1" cx="94.9" cy="273.9" r="38.7"/>
</g>
<g class="st0">
	
		<ellipse transform="matrix(0.9985 -5.530039e-02 5.530039e-02 0.9985 -24.5243 5.9306)" class="st1" cx="94.9" cy="446.1" rx="38.7" ry="38.7"/>
</g>
<g class="st0">
	<circle class="st1" cx="196.2" cy="585.5" r="38.7"/>
</g>
<g class="st0">
	<circle class="st1" cx="360" cy="638.7" r="38.7"/>
</g>
<g class="st0">
	<circle class="st1" cx="523.8" cy="585.5" r="38.7"/>
</g>
<g class="st0">
	<circle class="st1" cx="625" cy="446.1" r="38.7"/>
</g>
<g class="st0">
	<circle class="st1" cx="625" cy="273.9" r="38.7"/>
</g>
<g class="st0">
	<circle class="st1" cx="523.8" cy="134.5" r="38.7"/>
</g>
<g class="st0">
	<circle class="st1" cx="273.8" cy="94.9" r="23.3"/>
</g>
<g class="st0">
	<circle class="st1" cx="134.5" cy="196.2" r="23.3"/>
</g>
<g class="st0">
	<circle class="st1" cx="134.5" cy="523.8" r="23.3"/>
</g>
<g class="st0">
	<circle class="st1" cx="273.8" cy="625" r="23.3"/>
</g>
<g class="st0">
	<circle class="st1" cx="446.1" cy="625" r="23.3"/>
</g>
<g class="st0">
	<circle class="st1" cx="585.4" cy="523.8" r="23.3"/>
</g>
<g class="st0">
	<circle class="st1" cx="638.6" cy="360" r="23.3"/>
</g>
<g class="st0">
	<circle class="st1" cx="585.4" cy="196.2" r="23.3"/>
</g>
<g>
	<circle class="st1" cx="446.1" cy="94.9" r="23.3"/>
</g>
<path class="st1" d="M220.5,431.1H237v-97l-17.6,15.6l-9.3-10.9l32.3-33.6h16.1l-0.1,0.2l0.1-0.1v125.8h16.4v16.2h-54.3L220.5,431.1
	L220.5,431.1z"/>
<path class="st1" d="M285.7,345.8c0-6.2,0.6-11.6,1.7-16.1s2.6-8.3,4.5-11.4s4-5.6,6.4-7.4c2.4-1.9,5-3.3,7.5-4.4
	c2.6-1,5.2-1.7,7.7-2c2.6-0.3,5-0.5,7.1-0.5c2,0,4.3,0.2,6.9,0.5c2.5,0.3,5.1,0.9,7.7,1.9s5.1,2.4,7.5,4.2c2.4,1.9,4.5,4.3,6.4,7.4
	s3.4,6.9,4.5,11.5s1.7,10,1.7,16.3v60.1c0,6.2-0.6,11.6-1.7,16.1s-2.6,8.4-4.5,11.5c-1.9,3.2-4.1,5.7-6.5,7.7s-4.9,3.5-7.5,4.6
	s-5.1,1.8-7.6,2.2c-2.5,0.4-4.8,0.6-6.8,0.6c-2.2,0-4.6-0.2-7.2-0.6s-5.2-1.1-7.8-2.2c-2.6-1.1-5.1-2.6-7.5-4.5s-4.5-4.5-6.4-7.7
	c-1.8-3.2-3.3-7-4.4-11.6s-1.7-9.9-1.7-16.1L285.7,345.8L285.7,345.8z M307.8,415c0,5.9,1.1,10.2,3.2,12.8c2.1,2.7,5.4,4,9.8,4
	c4.3,0,7.5-1.3,9.6-4s3.2-6.9,3.2-12.8v-77c0-6.2-1.1-10.7-3.2-13.6c-2.1-2.8-5.3-4.2-9.6-4.2c-4.4,0-7.6,1.4-9.8,4.2
	c-2.1,2.8-3.2,7.4-3.2,13.6V415z"/>
<path class="st1" d="M404,381.9c-3.2,0-6.3-0.4-9.5-1.3s-6.1-2.6-8.7-5.2s-4.7-6.2-6.3-11c-1.6-4.7-2.4-11-2.4-18.7v-8.9
	c0-5,0.4-9.4,1.2-13.1c0.8-3.7,1.8-6.8,3.2-9.4c1.4-2.6,2.9-4.7,4.7-6.3c1.8-1.6,3.7-2.9,5.7-3.7c2-0.9,4-1.5,6.1-1.8
	s4.1-0.5,6.1-0.5c1.9,0,3.9,0.2,5.9,0.5s4.1,0.9,6,1.8c2,0.9,3.8,2.1,5.6,3.7c1.8,1.6,3.3,3.7,4.7,6.3c1.3,2.6,2.4,5.8,3.2,9.5
	c0.8,3.7,1.2,8.1,1.2,13.2v8.9c0,7.6-0.9,13.8-2.6,18.5s-3.9,8.4-6.5,11s-5.5,4.4-8.7,5.3C409.7,381.5,406.7,381.9,404,381.9z
	 M404.1,368.7c3.5,0,5.9-1.5,7.3-4.5s2.1-7.7,2.1-14.1V334c0-6.4-0.7-11.2-2.1-14.2c-1.4-3.1-3.8-4.6-7.3-4.6
	c-3.7,0-6.2,1.5-7.7,4.6s-2.2,7.8-2.2,14.2v16c0,6.4,0.7,11.1,2.2,14.1C397.9,367.2,400.5,368.7,404.1,368.7z M454.4,303.6h15.1
	l-38.2,143.7h-15.1L454.4,303.6z M454.6,403.5c0-7.6,0.8-13.7,2.5-18.3c1.7-4.6,3.9-8.1,6.5-10.6s5.5-4.1,8.7-4.9s6.2-1.2,9.2-1.2
	c1.9,0,3.9,0.2,5.9,0.5s4.1,0.9,6,1.8c2,0.9,3.8,2.1,5.6,3.7c1.8,1.6,3.3,3.7,4.7,6.3c1.3,2.6,2.4,5.8,3.2,9.5
	c0.8,3.7,1.2,8.1,1.2,13.2v8.9c0,5.1-0.4,9.5-1.2,13.3c-0.8,3.8-1.9,7-3.2,9.7c-1.4,2.7-2.9,4.9-4.7,6.6c-1.8,1.7-3.7,3.1-5.6,4.1
	c-2,1-4,1.7-6,2c-2,0.4-4,0.5-5.8,0.5c-2.1,0-4.2-0.2-6.4-0.5s-4.2-1-6.2-2c-2-0.9-3.8-2.3-5.6-4c-1.7-1.7-3.3-3.9-4.5-6.6
	c-1.3-2.7-2.3-5.9-3-9.7c-0.8-3.8-1.1-8.3-1.1-13.4v-8.9H454.6z M471.6,416.7c0,6.4,0.7,11.1,2.2,14.1s4,4.5,7.7,4.5
	c3.5,0,5.9-1.5,7.3-4.5s2.1-7.7,2.1-14.1v-16.1c0-6.4-0.7-11.2-2.1-14.2c-1.4-3.1-3.8-4.6-7.3-4.6c-3.7,0-6.2,1.5-7.7,4.6
	s-2.2,7.8-2.2,14.2V416.7z"/>
</svg>
