<?xml version="1.0" encoding="utf-8"?>
<!-- Generator: Adobe Illustrator 28.0.0, SVG Export Plug-In . SVG Version: 6.00 Build 0)  -->
<svg version="1.1" id="Layer_1" xmlns:xodm="http://www.corel.com/coreldraw/odm/2003"
	 xmlns="http://www.w3.org/2000/svg" xmlns:xlink="http://www.w3.org/1999/xlink" x="0px" y="0px" viewBox="0 0 720 720"
	 style="enable-background:new 0 0 720 720;" xml:space="preserve">
<style type="text/css">
	.st0{fill:#C10C0C;}
	.st1{fill:none;}
</style>
<polygon points="637.2,217.9 637.2,486.1 72.1,486.1 72.1,310.9 165.8,217.9 "/>
<polygon class="st0" points="229.3,217.9 165.8,217.9 72.1,311.7 72.1,371.4 59.8,358.5 59.8,306.5 160.7,205.7 215.3,205.7 "/>
<line class="st1" x1="65.3" y1="301" x2="59.8" y2="306.5"/>
<polygon class="st0" points="663.3,387.6 663.3,510.1 359,510.1 384.3,486.1 637.2,486.1 637.2,414.6 "/>
<g>
	<polygon class="st0" points="151.8,296.8 137.3,296.8 166.3,255.3 180.8,255.3 	"/>
	<polygon class="st0" points="177,296.8 162.4,296.8 191.5,255.3 206,255.3 	"/>
	<polygon class="st0" points="202.1,296.8 187.6,296.8 216.6,255.3 231.2,255.3 	"/>
	<polygon class="st0" points="227.3,296.8 212.8,296.8 241.8,255.3 256.3,255.3 	"/>
	<polygon class="st0" points="252.5,296.8 237.9,296.8 267,255.3 281.5,255.3 	"/>
	<polygon class="st0" points="277.6,296.8 263.1,296.8 292.2,255.3 306.7,255.3 	"/>
	<polygon class="st0" points="302.8,296.8 288.3,296.8 317.3,255.3 331.8,255.3 	"/>
	<polygon class="st0" points="328,296.8 313.4,296.8 342.5,255.3 357,255.3 	"/>
	<polygon class="st0" points="353.1,296.8 338.6,296.8 367.7,255.3 382.2,255.3 	"/>
	<polygon class="st0" points="378.3,296.8 363.8,296.8 392.8,255.3 407.3,255.3 	"/>
	<polygon class="st0" points="403.5,296.8 389,296.8 418,255.3 432.5,255.3 	"/>
	<polygon class="st0" points="428.6,296.8 414.1,296.8 443.2,255.3 457.7,255.3 	"/>
	<polygon class="st0" points="453.8,296.8 439.3,296.8 468.3,255.3 482.9,255.3 	"/>
	<polygon class="st0" points="479,296.8 464.5,296.8 493.5,255.3 508,255.3 	"/>
	<polygon class="st0" points="504.2,296.8 489.6,296.8 518.7,255.3 533.2,255.3 	"/>
	<polygon class="st0" points="529.3,296.8 514.8,296.8 543.8,255.3 558.4,255.3 	"/>
	<polygon class="st0" points="554.5,296.8 540,296.8 569,255.3 583.5,255.3 	"/>
	<polygon class="st0" points="579.7,296.8 565.1,296.8 594.2,255.3 608.7,255.3 	"/>
</g>
<g>
	<polygon class="st0" points="662.6,311.5 637.2,337.8 637.2,311.5 	"/>
	<polygon class="st0" points="663.3,324.3 663.3,342.4 637.2,369.6 637.2,351.3 	"/>
	<polygon class="st0" points="637.2,383.5 663.3,356.5 663.3,375.1 637.2,402.1 	"/>
</g>
</svg>
