<?xml version="1.0" encoding="utf-8"?>
<!-- Generator: Adobe Illustrator 28.0.0, SVG Export Plug-In . SVG Version: 6.00 Build 0)  -->
<svg version="1.1" id="Layer_1" xmlns:xodm="http://www.corel.com/coreldraw/odm/2003"
	 xmlns="http://www.w3.org/2000/svg" xmlns:xlink="http://www.w3.org/1999/xlink" x="0px" y="0px" viewBox="0 0 720 720"
	 style="enable-background:new 0 0 720 720;" xml:space="preserve">
<style type="text/css">
	.st0{display:none;fill-rule:evenodd;clip-rule:evenodd;fill:#D5EFFD;stroke:#D5EFFD;stroke-miterlimit:10;}
	.st1{display:none;fill-rule:evenodd;clip-rule:evenodd;fill:#21B4F9;stroke:#21B4F9;stroke-miterlimit:10;}
	.st2{fill-rule:evenodd;clip-rule:evenodd;fill:#D5EFFD;stroke:#D5EFFD;stroke-miterlimit:10;}
	.st3{fill:#21B4F9;stroke:#21B4F9;stroke-miterlimit:10;}
	.st4{display:none;fill:none;stroke:#000000;stroke-miterlimit:10;}
</style>
<path class="st0" d="M360.1,54.8c-168.4,0-304.9,136.5-304.9,304.9s136.5,304.9,304.9,304.9S665,528.1,665,359.7
	S528.5,54.8,360.1,54.8z M360.1,568.6c-115.4,0-208.9-93.5-208.9-208.9s93.5-208.9,208.9-208.9S569,244.3,569,359.7
	S475.5,568.6,360.1,568.6z"/>
<path class="st1" d="M360,55.1C191.6,55.1,55.1,191.6,55.1,360S191.6,664.9,360,664.9S664.9,528.4,664.9,360S528.4,55.1,360,55.1z
	 M360,568.9c-115.4,0-208.9-93.5-208.9-208.9S244.6,151.1,360,151.1S568.9,244.6,568.9,360S475.4,568.9,360,568.9z"/>
<path class="st2" d="M360.1,568.4c-115.4,0-208.9-93.5-208.9-208.9s93.5-208.9,208.9-208.9S569,244.2,569,359.5c0,0.1,0,0.3,0,0.4
	l96-0.2v-0.1c0-168.4-136.5-304.9-304.9-304.9S55.2,191.1,55.2,359.5s136.5,304.9,304.9,304.9c101.1,0,190.7-49.2,246.2-125
	L528.5,483C490.5,534.8,429.2,568.4,360.1,568.4z"/>
<path class="st2" d="M568.9,359.9c-0.1,46.1-15.1,88.6-40.4,123.1l77.7,56.3c36.9-50.4,58.7-112.5,58.7-179.7L568.9,359.9z"/>
<g>
	<g>
		<path class="st3" d="M273.1,406.4c-5.9-5.9-8.8-14.2-8.8-24.7v-53.8c0-10.6,3-18.9,8.9-24.8c5.9-5.9,14.5-8.8,25.7-8.8
			c11.3,0,19.9,2.9,25.8,8.8c5.9,5.9,8.8,14.1,8.8,24.8v53.8c0,10.6-3,18.9-8.9,24.8c-5.9,5.9-14.5,8.8-25.7,8.8
			C287.5,415.2,278.9,412.3,273.1,406.4z M310.3,392c2.4-3.1,3.7-7.5,3.7-13.2v-48.1c0-5.7-1.2-10.2-3.7-13.2
			c-2.4-3.1-6.3-4.6-11.5-4.6s-9,1.5-11.5,4.6c-2.4,3.1-3.7,7.5-3.7,13.2v48.1c0,5.8,1.2,10.2,3.7,13.2s6.3,4.6,11.5,4.6
			S307.8,395.1,310.3,392z"/>
	</g>
</g>
<path class="st3" d="M361.3,346.4c-3.6-3.7-5.4-8.8-5.4-15.3v-10.2c0-6.6,1.8-11.7,5.4-15.3c3.6-3.6,8.6-5.5,15.1-5.5
	c6.6,0,11.6,1.8,15.2,5.5c3.6,3.7,5.3,8.8,5.3,15.5v10c0,6.6-1.8,11.7-5.4,15.4c-3.6,3.6-8.6,5.5-15.1,5.5
	C369.9,351.8,364.9,350,361.3,346.4z M428.9,301.2h17.3l-63,118.3h-17.4L428.9,301.2z M380,335.5c0.8-1,1.3-2.5,1.3-4.4v-10.5
	c0-1.8-0.4-3.2-1.3-4.2c-0.8-1-2-1.5-3.6-1.5c-1.6,0-2.8,0.5-3.6,1.5s-1.3,2.4-1.3,4.3v10.4c0,2,0.4,3.4,1.3,4.4
	c0.8,1,2,1.5,3.6,1.5C378,337,379.2,336.5,380,335.5z M420.1,415.2c-3.6-3.7-5.4-8.8-5.4-15.3v-10.2c0-6.6,1.8-11.7,5.4-15.3
	c3.6-3.7,8.6-5.5,15.1-5.5c6.6,0,11.6,1.8,15.2,5.5c3.6,3.7,5.3,8.8,5.3,15.5v10c0,6.6-1.8,11.7-5.4,15.4c-3.6,3.7-8.6,5.5-15.1,5.5
	C428.7,420.7,423.7,418.8,420.1,415.2z M438.9,404.3c0.8-1,1.3-2.5,1.3-4.4v-10.5c0-1.8-0.4-3.2-1.3-4.2c-0.8-1-2-1.5-3.6-1.5
	c-1.6,0-2.8,0.5-3.6,1.5c-0.8,1-1.3,2.4-1.3,4.3v10.4c0,2,0.4,3.4,1.3,4.4c0.8,1,2,1.5,3.6,1.5C436.8,405.8,438,405.3,438.9,404.3z"
	/>
<line class="st4" x1="261" y1="664.8" x2="459" y2="55.2"/>
<line class="st4" x1="464.6" y1="681.9" x2="255.4" y2="38.1"/>
<line class="st4" x1="634" y1="559.4" x2="86.3" y2="161.5"/>
<line class="st4" x1="89" y1="556.9" x2="631" y2="163.1"/>
<path class="st4" d="M669.3,360"/>
<line class="st4" x1="359.3" y1="360" x2="708.4" y2="360"/>
<line class="st4" x1="11.6" y1="360" x2="359.3" y2="360"/>
</svg>
