<?xml version="1.0" encoding="utf-8"?>
<!-- Generator: Adobe Illustrator 28.0.0, SVG Export Plug-In . SVG Version: 6.00 Build 0)  -->
<svg version="1.1" id="Layer_1" xmlns:xodm="http://www.corel.com/coreldraw/odm/2003"
	 xmlns="http://www.w3.org/2000/svg" xmlns:xlink="http://www.w3.org/1999/xlink" x="0px" y="0px" viewBox="0 0 720 720"
	 style="enable-background:new 0 0 720 720;" xml:space="preserve">
<circle cx="362.2" cy="327" r="7.2"/>
<circle cx="279.8" cy="350.5" r="7.2"/>
<circle cx="189.1" cy="445.5" r="7.2"/>
<path d="M323.8,429c-4.3,0-7.8-3.5-7.8-7.8s3.5-7.8,7.8-7.8s7.8,3.5,7.8,7.8S328.1,429,323.8,429z M323.8,414.5
	c-3.7,0-6.7,3-6.7,6.7s3,6.7,6.7,6.7s6.7-3,6.7-6.7S327.5,414.5,323.8,414.5z"/>
<path d="M218.3,317.1c-4.3,0-7.8-3.5-7.8-7.8s3.5-7.8,7.8-7.8s7.8,3.5,7.8,7.8S222.6,317.1,218.3,317.1z M218.3,302.7
	c-3.7,0-6.7,3-6.7,6.7s3,6.7,6.7,6.7s6.7-3,6.7-6.7S222,302.7,218.3,302.7z"/>
<circle cx="212" cy="259" r="7.2"/>
<path d="M345.2,216.1c-4.3,0-7.8-3.5-7.8-7.8s3.5-7.8,7.8-7.8s7.8,3.5,7.8,7.8S349.5,216.1,345.2,216.1z M345.2,201.6
	c-3.7,0-6.7,3-6.7,6.7s3,6.7,6.7,6.7s6.7-3,6.7-6.7S348.9,201.6,345.2,201.6z"/>
<polygon points="115.8,289.5 59.8,289.5 59.8,286.2 114.4,286.2 164.9,235.8 260.6,235.8 289.7,206.6 337.9,206.6 337.9,209.9 
	291.1,209.9 262,239 166.2,239 "/>
<polygon points="123.8,305 59.8,305 59.8,301.7 122.4,301.7 166.7,257.4 204.7,257.4 204.7,260.7 168.1,260.7 "/>
<polygon points="129.9,335 59.8,335 59.8,331.7 128.5,331.7 173.8,286.4 261.6,286.4 300.5,325.3 355,325.3 355,328.6 299.1,328.6 
	260.2,289.7 175.1,289.7 "/>
<rect x="59.8" y="348.8" width="212.7" height="3.3"/>
<polygon points="158.9,351.6 156.6,349.3 198.2,307.7 211,307.7 211,311 199.6,311 "/>
<polygon points="316.6,422.8 258.1,422.8 232.8,397.5 147.5,397.5 114.5,364.6 59.8,364.6 59.8,361.3 115.9,361.3 148.8,394.2 
	234.2,394.2 259.5,419.6 316.6,419.6 "/>
<polygon points="182.5,441.9 157.6,417 132.3,417 100.7,385.4 59.8,385.4 59.8,382.2 102.1,382.2 133.7,413.7 159,413.7 
	184.8,439.5 "/>
<polygon points="107,280.7 59.8,280.7 59.8,279.6 106.6,279.6 165,221.3 233.7,221.3 252.6,202.4 253.3,203.2 234.2,222.4 
	165.4,222.4 "/>
<polygon points="127.2,319.1 59.8,319.1 59.8,318 126.7,318 173.7,271 296.2,271 296.2,272.1 174.2,272.1 "/>
<polygon points="299.9,399.5 274.4,399.5 264.8,389.8 163.4,389.8 124.5,351 125.3,350.2 163.8,388.7 265.2,388.7 274.9,398.4 
	299.4,398.4 322.8,375 367.3,375 367.3,376.1 323.3,376.1 "/>
<polygon points="252.9,434.1 224.7,434.1 196.1,405.5 157,405.5 147.8,396.3 148.5,395.5 157.4,404.4 196.5,404.4 225.2,433 
	252.9,433 "/>
<polygon points="161.8,441.9 135.2,441.9 91.3,398 59.8,398 59.8,396.9 91.8,396.9 135.7,440.8 161.8,440.8 "/>
<circle cx="444.7" cy="303.6" r="7.2"/>
<circle cx="535.4" cy="208.6" r="7.2"/>
<path d="M400.6,240.7c-4.3,0-7.8-3.5-7.8-7.8s3.5-7.8,7.8-7.8s7.8,3.5,7.8,7.8S404.9,240.7,400.6,240.7z M400.6,226.2
	c-3.7,0-6.7,3-6.7,6.7s3,6.7,6.7,6.7s6.7-3,6.7-6.7S404.3,226.2,400.6,226.2z"/>
<path d="M506.2,352.6c-4.3,0-7.8-3.5-7.8-7.8s3.5-7.8,7.8-7.8s7.8,3.5,7.8,7.8S510.5,352.6,506.2,352.6z M506.2,338.1
	c-3.7,0-6.7,3-6.7,6.7s3,6.7,6.7,6.7s6.7-3,6.7-6.7S509.9,338.1,506.2,338.1z"/>
<circle cx="512.5" cy="395.1" r="7.2"/>
<path d="M379.3,453.6c-4.3,0-7.8-3.5-7.8-7.8s3.5-7.8,7.8-7.8s7.8,3.5,7.8,7.8S383.6,453.6,379.3,453.6z M379.3,439.1
	c-3.7,0-6.7,3-6.7,6.7s3,6.7,6.7,6.7s6.7-3,6.7-6.7C386,442.2,383,439.1,379.3,439.1z"/>
<polygon points="434.7,447.5 386.5,447.5 386.5,444.2 433.4,444.2 462.5,415.1 558.2,415.1 608.7,364.6 664.7,364.6 664.7,367.9 
	610.1,367.9 559.6,418.4 463.9,418.4 "/>
<polygon points="557.8,396.8 519.7,396.8 519.7,393.5 556.4,393.5 600.7,349.2 664.7,349.2 664.7,352.4 602.1,352.4 "/>
<polygon points="550.7,367.7 462.9,367.7 424,328.8 369.5,328.8 369.5,325.5 425.3,325.5 464.2,364.4 549.3,364.4 594.6,319.1 
	664.7,319.1 664.7,322.4 596,322.4 "/>
<rect x="452" y="302" width="212.7" height="3.3"/>
<polygon points="526.3,346.4 513.5,346.4 513.5,343.1 524.9,343.1 565.6,302.5 567.9,304.8 "/>
<polygon points="664.7,292.8 608.6,292.8 575.6,259.9 490.3,259.9 465,234.6 407.9,234.6 407.9,231.3 466.3,231.3 491.6,256.6 
	577,256.6 609.9,289.5 664.7,289.5 "/>
<polygon points="664.7,272 622.4,272 590.8,240.4 565.5,240.4 539.7,214.6 542,212.3 566.8,237.1 592.2,237.1 623.7,268.7 
	664.7,268.7 "/>
<polygon points="471.9,451.7 471.1,450.9 490.3,431.7 559.1,431.7 617.4,373.4 664.7,373.4 664.7,374.5 617.9,374.5 559.5,432.8 
	490.8,432.8 "/>
<polygon points="550.7,383.2 428.3,383.2 428.3,382.1 550.3,382.1 597.3,335 664.7,335 664.7,336.1 597.7,336.1 "/>
<polygon points="599.2,303.9 560.7,265.4 459.2,265.4 449.6,255.7 425.1,255.7 401.7,279.1 357.2,279.1 357.2,278 401.2,278 
	424.6,254.6 450,254.6 459.7,264.3 561.1,264.3 599.9,303.1 "/>
<polygon points="575.9,258.6 567.1,249.7 527.9,249.7 499.3,221.1 471.6,221.1 471.6,220 499.8,220 528.4,248.7 567.5,248.7 
	576.7,257.8 "/>
<polygon points="664.7,257.2 632.7,257.2 588.8,213.3 562.7,213.3 562.7,212.2 589.3,212.2 633.1,256.1 664.7,256.1 "/>
</svg>
