<?xml version="1.0" encoding="utf-8"?>
<!-- Generator: Adobe Illustrator 28.0.0, SVG Export Plug-In . SVG Version: 6.00 Build 0)  -->
<svg version="1.1" id="Layer_1" xmlns:xodm="http://www.corel.com/coreldraw/odm/2003"
	 xmlns="http://www.w3.org/2000/svg" xmlns:xlink="http://www.w3.org/1999/xlink" x="0px" y="0px" viewBox="0 0 720 720"
	 style="enable-background:new 0 0 720 720;" xml:space="preserve">
<style type="text/css">
	.st0{fill:#C02026;}
	.st1{opacity:0.5;}
</style>
<g>
	<path class="st0" d="M649.6,387.7H70.1c-17.8,0-32.2-14.4-32.2-32.2l0,0c0-17.8,14.4-32.2,32.2-32.2h579.4
		c17.8,0,32.2,14.4,32.2,32.2l0,0C681.8,373.2,667.4,387.7,649.6,387.7z M70.1,328.4c-14.9,0-27,12.1-27,27l0,0
		c0,14.9,12.1,27,27,27h579.4c14.9,0,27-12.1,27-27l0,0c0-14.9-12.1-27-27-27H70.1z"/>
</g>
<g>
	<g>
		<path class="st0" d="M64.9,330.4l-16.8,38c-2.1-3.6-3.3-7.8-3.5-12.3l8.9-20.1C56.7,333.2,60.6,331.3,64.9,330.4z"/>
	</g>
</g>
<g>
	<g>
		<path class="st0" d="M52.1,337.2l-7.6,17.1C44.9,347.6,47.7,341.6,52.1,337.2z"/>
	</g>
</g>
<g>
	<g>
		<path class="st0" d="M75.8,329.8l-20.5,46.3c-2.4-1.7-4.5-3.8-6.1-6.2L66.9,330L75.8,329.8z"/>
	</g>
</g>
<g>
	<g>
		<path class="st0" d="M86.5,329.8L86.5,329.8l-22.4,50.4c-2.7-0.7-5.2-1.7-7.5-3.2l21-47.3l0,0H86.5z"/>
	</g>
</g>
<g>
	<g>
		<polygon class="st0" points="74.5,381 65.6,381 88.3,329.8 97.2,329.8 		"/>
	</g>
</g>
<g>
	<g>
		<polygon class="st0" points="85.2,381 76.3,381 98.9,329.8 107.9,329.8 		"/>
	</g>
</g>
<g>
	<g>
		<polygon class="st0" points="95.9,381 87,381 109.6,329.8 118.5,329.8 		"/>
	</g>
</g>
<g>
	<g>
		<polygon class="st0" points="106.6,381 97.6,381 120.3,329.8 129.2,329.8 		"/>
	</g>
</g>
<g>
	<g>
		<polygon class="st0" points="117.2,381 108.3,381 131.1,329.8 139.9,329.8 		"/>
	</g>
</g>
<g>
	<g>
		<polygon class="st0" points="127.9,381 119,381 141.8,329.8 150.6,329.8 		"/>
	</g>
</g>
<g>
	<g>
		<polygon class="st0" points="138.6,381 129.7,381 152.4,329.8 161.3,329.8 		"/>
	</g>
</g>
<g>
	<g>
		<polygon class="st0" points="149.3,381 140.4,381 163.1,329.8 172,329.8 		"/>
	</g>
</g>
<g>
	<g>
		<polygon class="st0" points="160,381 151,381 173.8,329.8 182.7,329.8 		"/>
	</g>
</g>
<g>
	<g>
		<polygon class="st0" points="170.6,381 161.8,381 184.5,329.8 193.4,329.8 		"/>
	</g>
</g>
<g>
	<g>
		<polygon class="st0" points="181.3,381 172.5,381 195.2,329.8 204.1,329.8 		"/>
	</g>
</g>
<g>
	<g>
		<polygon class="st0" points="192,381 183.2,381 205.8,329.8 214.8,329.8 		"/>
	</g>
</g>
<g class="st1">
	<g>
		<polygon class="st0" points="202.8,381 193.9,381 216.5,329.8 225.4,329.8 		"/>
	</g>
</g>
<g class="st1">
	<g>
		<polygon class="st0" points="213.4,381 204.5,381 227.2,329.8 236.1,329.8 		"/>
	</g>
</g>
<g class="st1">
	<g>
		<polygon class="st0" points="224.1,381 215.2,381 237.9,329.8 246.8,329.8 		"/>
	</g>
</g>
<g class="st1">
	<g>
		<polygon class="st0" points="234.8,381 225.9,381 248.6,329.8 257.5,329.8 		"/>
	</g>
</g>
<g class="st1">
	<g>
		<polygon class="st0" points="245.5,381 236.6,381 259.2,329.8 268.2,329.8 		"/>
	</g>
</g>
<g class="st1">
	<g>
		<polygon class="st0" points="256.2,381 247.3,381 269.9,329.8 278.8,329.8 		"/>
	</g>
</g>
<g class="st1">
	<g>
		<polygon class="st0" points="266.9,381 257.9,381 280.7,329.8 289.5,329.8 		"/>
	</g>
</g>
<g class="st1">
	<g>
		<polygon class="st0" points="277.5,381 268.6,381 291.4,329.8 300.2,329.8 		"/>
	</g>
</g>
<g class="st1">
	<g>
		<polygon class="st0" points="288.2,381 279.3,381 302,329.8 310.9,329.8 		"/>
	</g>
</g>
<g class="st1">
	<g>
		<polygon class="st0" points="298.9,381 290,381 312.7,329.8 321.6,329.8 		"/>
	</g>
</g>
<g class="st1">
	<g>
		<polygon class="st0" points="309.6,381 300.7,381 323.4,329.8 332.3,329.8 		"/>
	</g>
</g>
<g class="st1">
	<g>
		<polygon class="st0" points="320.3,381 311.4,381 334.1,329.8 343,329.8 		"/>
	</g>
</g>
<g class="st1">
	<g>
		<polygon class="st0" points="330.9,381 322.1,381 344.8,329.8 353.7,329.8 		"/>
	</g>
</g>
<g class="st1">
	<g>
		<polygon class="st0" points="341.6,381 332.8,381 355.5,329.8 364.4,329.8 		"/>
	</g>
</g>
<g class="st1">
	<g>
		<polygon class="st0" points="352.4,381 343.5,381 366.1,329.8 375,329.8 		"/>
	</g>
</g>
<g class="st1">
	<g>
		<polygon class="st0" points="363.1,381 354.2,381 376.8,329.8 385.7,329.8 		"/>
	</g>
</g>
<g class="st1">
	<g>
		<polygon class="st0" points="373.7,381 364.8,381 387.5,329.8 396.4,329.8 		"/>
	</g>
</g>
<g class="st1">
	<g>
		<polygon class="st0" points="384.4,381 375.5,381 398.2,329.8 407.1,329.8 		"/>
	</g>
</g>
<g class="st1">
	<g>
		<polygon class="st0" points="395.1,381 386.2,381 408.9,329.8 417.8,329.8 		"/>
	</g>
</g>
<g class="st1">
	<g>
		<polygon class="st0" points="405.8,381 396.9,381 419.5,329.8 428.4,329.8 		"/>
	</g>
</g>
<g class="st1">
	<g>
		<polygon class="st0" points="416.5,381 407.6,381 430.3,329.8 439.1,329.8 		"/>
	</g>
</g>
<g class="st1">
	<g>
		<polygon class="st0" points="427.1,381 418.2,381 441,329.8 449.8,329.8 		"/>
	</g>
</g>
<g class="st1">
	<g>
		<polygon class="st0" points="437.8,381 428.9,381 451.7,329.8 460.5,329.8 		"/>
	</g>
</g>
<g class="st1">
	<g>
		<polygon class="st0" points="448.5,381 439.6,381 462.3,329.8 471.3,329.8 		"/>
	</g>
</g>
<g class="st1">
	<g>
		<polygon class="st0" points="459.2,381 450.3,381 473,329.8 481.9,329.8 		"/>
	</g>
</g>
<g class="st1">
	<g>
		<polygon class="st0" points="469.9,381 461,381 483.7,329.8 492.6,329.8 		"/>
	</g>
</g>
<g class="st1">
	<g>
		<polygon class="st0" points="480.5,381 471.7,381 494.4,329.8 503.3,329.8 		"/>
	</g>
</g>
<g class="st1">
	<g>
		<polygon class="st0" points="491.2,381 482.4,381 505.1,329.8 514,329.8 		"/>
	</g>
</g>
<g class="st1">
	<g>
		<polygon class="st0" points="502,381 493.1,381 515.7,329.8 524.7,329.8 		"/>
	</g>
</g>
<g class="st1">
	<g>
		<polygon class="st0" points="512.7,381 503.8,381 526.4,329.8 535.3,329.8 		"/>
	</g>
</g>
<g class="st1">
	<g>
		<polygon class="st0" points="523.4,381 514.4,381 537.1,329.8 546,329.8 		"/>
	</g>
</g>
<g class="st1">
	<g>
		<polygon class="st0" points="534,381 525.1,381 547.8,329.8 556.7,329.8 		"/>
	</g>
</g>
<g class="st1">
	<g>
		<polygon class="st0" points="544.7,381 535.8,381 558.5,329.8 567.4,329.8 		"/>
	</g>
</g>
<g class="st1">
	<g>
		<polygon class="st0" points="555.4,381 546.5,381 569.2,329.8 578.1,329.8 		"/>
	</g>
</g>
<g class="st1">
	<g>
		<polygon class="st0" points="566.1,381 557.2,381 579.9,329.8 588.7,329.8 		"/>
	</g>
</g>
<g class="st1">
	<g>
		<polygon class="st0" points="576.8,381 567.8,381 590.6,329.8 599.4,329.8 		"/>
	</g>
</g>
<g class="st1">
	<g>
		<polygon class="st0" points="587.4,381 578.5,381 601.3,329.8 610.1,329.8 		"/>
	</g>
</g>
<g class="st1">
	<g>
		<polygon class="st0" points="598.1,381 589.2,381 612,329.8 620.9,329.8 		"/>
	</g>
</g>
<g class="st1">
	<g>
		<polygon class="st0" points="608.8,381 599.9,381 622.6,329.8 631.6,329.8 		"/>
	</g>
</g>
<g class="st1">
	<g>
		<polygon class="st0" points="619.5,381 610.7,381 633.3,329.8 642.2,329.8 		"/>
	</g>
</g>
<g class="st1">
	<g>
		<polygon class="st0" points="630.2,381 621.3,381 644,329.8 652.9,329.8 		"/>
	</g>
</g>
<g class="st1">
	<g>
		<path class="st0" d="M662.1,333.2l-21.3,47.9l0,0h-8.9l0,0l22.5-50.7C657.2,330.8,659.8,331.8,662.1,333.2z"/>
	</g>
</g>
<g class="st1">
	<g>
		<path class="st0" d="M669.8,339.7l-18.2,41.1l-0.1,0.1h-8.9l0,0l20.8-47.1C665.9,335.6,668.1,337.5,669.8,339.7z"/>
	</g>
</g>
<g class="st1">
	<g>
		<path class="st0" d="M675,352.3l-10.7,24.1c-3.2,2.2-6.9,3.8-10.9,4.4l17.5-39.4C673.1,344.6,674.6,348.3,675,352.3z"/>
	</g>
</g>
<g class="st1">
	<g>
		<path class="st0" d="M675.2,355.4c0,7.7-3.4,14.7-8.8,19.3l8.8-19.9C675.2,355,675.2,355.3,675.2,355.4z"/>
	</g>
</g>
<path class="st0" d="M337.2,313.1c0-0.4,0-0.7,0.1-1.2c0.1-0.5,0.1-0.9,0.3-1.4h2.6v1.1c0,0.7,0.1,1.2,0.2,1.7
	c0.1,0.5,0.3,0.8,0.5,1.1c0.2,0.3,0.5,0.5,0.7,0.6c0.3,0.1,0.6,0.2,0.9,0.2c0.3,0,0.6,0,0.8-0.1c0.3-0.1,0.5-0.3,0.7-0.5
	s0.3-0.5,0.4-0.7c0.1-0.3,0.2-0.7,0.2-1.2v-2.4c0-0.5,0-0.8-0.1-1.2c-0.1-0.4-0.2-0.7-0.4-0.9c-0.2-0.3-0.4-0.5-0.7-0.6
	c-0.3-0.1-0.7-0.2-1.1-0.2h-1.4v-2.3h1.4c0.3,0,0.6,0,0.7-0.1c0.3-0.1,0.5-0.3,0.7-0.5s0.3-0.5,0.5-0.7c0.1-0.3,0.2-0.7,0.2-1.1
	v-2.3c0-0.8-0.2-1.4-0.5-1.8c-0.3-0.4-0.7-0.6-1.4-0.6s-1.2,0.3-1.6,0.9c-0.4,0.7-0.6,1.5-0.6,2.7v1.2h-2.6
	c-0.1-0.5-0.2-0.8-0.3-1.3c-0.1-0.5-0.1-0.8-0.1-1.3c0-0.6,0.1-1.1,0.3-1.7c0.2-0.6,0.6-1,0.9-1.5s0.9-0.8,1.6-1.1s1.4-0.4,2.2-0.4
	c0.9,0,1.8,0.1,2.4,0.3s1.2,0.6,1.7,0.9c0.5,0.4,0.7,0.9,0.9,1.5c0.2,0.6,0.3,1.3,0.3,2v1.3c0,0.7-0.1,1.2-0.3,1.7
	c-0.2,0.5-0.4,0.9-0.7,1.3c-0.3,0.4-0.6,0.7-0.8,0.9s-0.7,0.5-1,0.7v0.1c0.5,0.2,0.8,0.4,1.2,0.6c0.4,0.3,0.7,0.6,0.9,0.9
	c0.3,0.4,0.5,0.8,0.7,1.3c0.2,0.6,0.2,1.1,0.2,1.9v1.5c0,1-0.2,1.9-0.5,2.5s-0.7,1.2-1.2,1.7c-0.5,0.5-1.1,0.7-1.8,0.9
	c-0.7,0.2-1.4,0.3-2.1,0.3c-1.7,0-3-0.4-3.8-1.2C337.6,315.8,337.2,314.6,337.2,313.1z"/>
<path class="st0" d="M350.4,302c0-0.9,0.1-1.8,0.3-2.5c0.2-0.7,0.4-1.3,0.7-1.8c0.3-0.5,0.7-0.8,1-1.1c0.4-0.3,0.7-0.6,1.1-0.7
	c0.4-0.2,0.8-0.3,1.2-0.3c0.4-0.1,0.7-0.1,1.1-0.1c0.3,0,0.7,0,1,0.1s0.7,0.2,1.2,0.3c0.4,0.2,0.7,0.4,1.1,0.7
	c0.4,0.3,0.7,0.7,1,1.1c0.3,0.5,0.6,1,0.7,1.8c0.2,0.7,0.3,1.6,0.3,2.5v9.2c0,0.9-0.1,1.8-0.3,2.5c-0.2,0.7-0.4,1.3-0.7,1.8
	c-0.3,0.5-0.7,0.8-1,1.2c-0.4,0.3-0.7,0.6-1.1,0.7c-0.4,0.2-0.7,0.3-1.2,0.4c-0.4,0.1-0.7,0.1-1,0.1c-0.4,0-0.7,0-1.1-0.1
	c-0.4-0.1-0.8-0.2-1.2-0.4c-0.4-0.2-0.7-0.4-1.1-0.7c-0.4-0.3-0.7-0.7-1-1.2c-0.3-0.5-0.5-1.1-0.7-1.8c-0.2-0.7-0.3-1.5-0.3-2.5
	L350.4,302L350.4,302z M353.8,312.7c0,0.9,0.2,1.6,0.5,2c0.4,0.4,0.8,0.7,1.5,0.7s1.1-0.2,1.5-0.7c0.3-0.4,0.5-1,0.5-2v-11.8
	c0-0.9-0.2-1.7-0.5-2c-0.3-0.5-0.8-0.7-1.5-0.7s-1.2,0.2-1.5,0.7c-0.4,0.5-0.5,1.1-0.5,2V312.7z"/>
<path class="st0" d="M368.6,307.6c-0.5,0-0.9-0.1-1.5-0.2c-0.5-0.1-0.9-0.4-1.3-0.8c-0.4-0.4-0.7-0.9-0.9-1.7
	c-0.2-0.7-0.4-1.7-0.4-2.9v-1.4c0-0.7,0.1-1.5,0.2-2c0.1-0.6,0.3-1,0.5-1.5c0.2-0.4,0.5-0.7,0.7-0.9c0.3-0.3,0.6-0.5,0.8-0.6
	c0.3-0.1,0.7-0.2,0.9-0.3c0.3-0.1,0.7-0.1,0.9-0.1s0.6,0,0.9,0.1c0.3,0.1,0.7,0.1,0.9,0.3c0.3,0.1,0.6,0.4,0.8,0.6
	c0.3,0.3,0.6,0.6,0.7,0.9c0.2,0.4,0.4,0.9,0.5,1.5c0.1,0.6,0.2,1.2,0.2,2v1.4c0,1.2-0.1,2.1-0.4,2.9c-0.3,0.7-0.6,1.3-1,1.7
	s-0.8,0.7-1.3,0.8C369.5,307.5,369,307.6,368.6,307.6z M368.6,305.5c0.6,0,0.9-0.2,1.1-0.7c0.2-0.5,0.3-1.2,0.3-2.1v-2.5
	c0-1-0.1-1.7-0.3-2.2c-0.2-0.5-0.6-0.7-1.1-0.7c-0.6,0-0.9,0.3-1.2,0.7c-0.2,0.5-0.4,1.2-0.4,2.2v2.5c0,1,0.1,1.7,0.4,2.1
	C367.6,305.3,368.1,305.5,368.6,305.5z M376.3,295.6h2.3l-5.9,22.1h-2.3L376.3,295.6z M376.3,310.9c0-1.2,0.1-2.1,0.4-2.8
	c0.3-0.7,0.6-1.2,1-1.6c0.4-0.4,0.8-0.7,1.3-0.7c0.5-0.1,0.9-0.2,1.4-0.2c0.3,0,0.6,0,0.9,0.1c0.3,0.1,0.7,0.1,0.9,0.3
	c0.3,0.1,0.6,0.4,0.8,0.6c0.3,0.3,0.5,0.6,0.7,0.9s0.4,0.9,0.5,1.5c0.1,0.6,0.2,1.2,0.2,2v1.4c0,0.7-0.1,1.5-0.2,2
	c-0.1,0.6-0.3,1.1-0.5,1.5c-0.2,0.4-0.5,0.7-0.7,1s-0.6,0.5-0.8,0.7s-0.7,0.3-0.9,0.3c-0.3,0.1-0.7,0.1-0.9,0.1s-0.7,0-1-0.1
	c-0.4-0.1-0.7-0.2-0.9-0.3c-0.3-0.2-0.6-0.4-0.8-0.7c-0.3-0.3-0.5-0.6-0.7-1c-0.2-0.4-0.4-0.9-0.5-1.5c-0.1-0.6-0.2-1.3-0.2-2
	L376.3,310.9L376.3,310.9z M378.9,313c0,1,0.1,1.7,0.4,2.1c0.2,0.5,0.7,0.7,1.2,0.7c0.6,0,0.9-0.2,1.1-0.7c0.2-0.5,0.3-1.2,0.3-2.1
	v-2.5c0-1-0.1-1.7-0.3-2.2c-0.2-0.5-0.6-0.7-1.1-0.7c-0.6,0-0.9,0.3-1.2,0.7c-0.2,0.5-0.4,1.2-0.4,2.2V313z"/>
</svg>
