<?xml version="1.0" encoding="utf-8"?>
<!-- Generator: Adobe Illustrator 28.0.0, SVG Export Plug-In . SVG Version: 6.00 Build 0)  -->
<svg version="1.1" id="Layer_1" xmlns:xodm="http://www.corel.com/coreldraw/odm/2003"
	 xmlns="http://www.w3.org/2000/svg" xmlns:xlink="http://www.w3.org/1999/xlink" x="0px" y="0px" viewBox="0 0 720 720"
	 style="enable-background:new 0 0 720 720;" xml:space="preserve">
<style type="text/css">
	.st0{fill-rule:evenodd;clip-rule:evenodd;}
</style>
<path class="st0" d="M365.3,59.9c3.3-0.4,8.1-11.6,9.6-14.8c3.3,0,51.6,1.7,93.3,43.2c-6.4,8.6-11.1,14.5-12.4,16.2
	c-1.3,1.8-3.1,3.2-5,2.2c-2.1-1.3-3.2-2.3-8.4-6.6c-15.8-13.3-44.2-29.5-77.2-29.5c-33,0.1-61.4,16.2-77.2,29.5
	c-5.1,4.3-6.3,5.3-8.4,6.6c-1.9,1-3.7-0.4-5-2.2c-1.3-1.8-6-7.6-12.4-16.2c41.7-41.5,90-43.3,93.3-43.2
	C357.2,48.3,362,59.5,365.3,59.9L365.3,59.9z"/>
<path class="st0" d="M255.5,96.2c-36.2,33.5-36.4,65.8-34.2,121.6c1.1,45.2,0.4,71.1,0.8,80.2c0.2,5.5,0.2,5.5,5.2,8.8
	c2.2,1.3,7.5,3.7,11.7,3.4c2.5-0.2,6.3-1.5,6.5-4.4c0-8.7-1.6-38.5,2.2-44.9c5.1-8.3,13.8-8.9,21.5-3.8c11.6,7.6,21.1,12.2,27.4,9.3
	c0.9-0.6-5.3-3.2-6.1-10.2c-3.2-29.2-2.7-59.8-5.8-89.3C282.2,135.5,271.2,110.2,255.5,96.2L255.5,96.2z"/>
<path class="st0" d="M475.1,96.2c36.2,33.5,36.4,65.8,34.2,121.6c-1.1,45.2-0.4,71.1-0.8,80.2c-0.2,5.5-0.2,5.5-5.2,8.8
	c-2.2,1.3-7.5,3.7-11.7,3.4c-2.5-0.2-6.3-1.5-6.5-4.4c0-8.7,1.6-38.5-2.2-44.9c-5.1-8.3-13.8-8.9-21.5-3.8
	c-11.6,7.6-21.1,12.2-27.4,9.3c-0.9-0.6,5.3-3.2,6.1-10.2c3.2-29.2,2.7-59.8,5.8-89.3C448.4,135.5,459.4,110.2,475.1,96.2
	L475.1,96.2z"/>
<path class="st0" d="M221.5,213.2c-12.4,11.8-17.7,18.7-22.8,28c-18.8,34.1-12.4,89.9,20.3,113.6c8.6,6.2,21,15.1,29.3,20.9
	c2.8,1.9,6.2,2.9,8.6,2.5c4.7-0.7,7-6.5,4.4-9.5c-3.1-3.7-10.9-10.3-13.3-11.6c-1.6-0.9-2.6,1-1.6,2.5c1.3,1.8,9.1,7.2,12.3,10.6
	c1.3,1.4-0.9,5.4-3.4,4.4c-6.9-2.9-31.3-22.1-36.4-27.6C206,333.3,206,323.6,206,305c0-6.4-1.3-46.5,0.8-57.6
	c1.8-9.3,3.7-14,5.8-17.2c1.6-2.5,5.9-6.7,9.2-2.3C221.8,225.6,221.5,213.2,221.5,213.2L221.5,213.2z"/>
<path class="st0" d="M509.1,213.2c12.4,11.8,17.7,18.7,22.8,28c18.8,34.1,12.4,89.9-20.3,113.6c-8.6,6.2-21,15.1-29.3,20.9
	c-2.8,1.9-6.2,2.9-8.6,2.5c-4.7-0.7-7-6.5-4.4-9.5c3.1-3.7,10.9-10.3,13.3-11.6c1.6-0.9,2.6,1,1.6,2.5c-1.3,1.8-9.1,7.2-12.3,10.6
	c-1.3,1.4,0.9,5.4,3.4,4.4c6.9-2.9,31.3-22.1,36.4-27.6c12.9-13.8,12.8-23.5,12.8-42.1c0-6.4,1.3-46.5-0.8-57.6
	c-1.8-9.3-3.7-14-5.8-17.2c-1.6-2.5-5.9-6.7-9.2-2.3C508.8,225.6,509.1,213.2,509.1,213.2L509.1,213.2z"/>
<path class="st0" d="M392.4,340.5c5.6,0,13.7,0.1,18.3,3.1c5.4,3.5,10.7,12.5,15.4,12.5c5.4,0.1,12.4,0.7,27.3-7.4
	c14.9-8.1,23.7-16.6,26.4-21.8c2.7-5.3-0.3-9.7,6.3-9.6c6.6,0.1,21.3-4.2,22.3-4.4c0,1.6,0.6,7.1,0.5,8.4
	c-0.3,0.4-15.1,13.4-26.4,23.4c-19,16.8-33.6,26.5-44.4,48.9C428,414.5,418,442.2,404.6,459c-21.6,27-57.1,27-78.7,0
	c-13.4-16.8-23.4-44.5-33.5-65.5c-10.8-22.4-25.4-32.1-44.4-48.9c-11.3-10-26.2-23-26.4-23.4c-0.1-1.2,0.5-6.8,0.5-8.4
	c1,0.2,15.7,4.5,22.3,4.4c6.6-0.1,3.6,4.3,6.3,9.6s11.5,13.7,26.4,21.8c14.9,8.1,22,7.5,27.3,7.4c4.7-0.1,10-9.1,15.4-12.5
	c4.7-3,12.8-3,18.3-3.1C356,340.4,374.6,340.4,392.4,340.5L392.4,340.5z"/>
<path class="st0" d="M490.2,403.1c-1.6,2-88.7,98.6-91.7,102c-3,3.4-8.5,5.7-10.7,6c-6.5,0.9-38.5,0.9-45,0c-2.2-0.3-7.6-2.7-10.7-6
	c-3-3.4-90.1-100-91.7-102c-1.6-2-7.7-23.5-7.3-26.5c0.4-3.5,7.7,10,31.2,14.9c3.9,0.8,63.3,104.7,74.9,110.2
	c3.7,1.8,48.4,1.8,52.1,0c11.6-5.5,71-109.4,74.9-110.2c23.5-4.9,30.7-18.3,31.2-14.9C497.8,379.6,491.8,401.1,490.2,403.1
	L490.2,403.1z"/>
<path class="st0" d="M221,509.1c-28.3,13.1-18.6,70,26.1,95.2c9.7-29.1,17.1-46.2,34.8-48.4c7.9-1,18.2,2,24.7,5.3
	c8.4,4.2,9.6,10.8,10,10.8c1,0,8.7-0.1,8.7-0.1c-2.5-12-10.9-17.8-29.7-22.2c-12.8-2.9-77.5-26.3-52.9-60.4
	c10-13.8,27.9-20.7,43.6-25.5c2-0.6-1.6-5.4-4.1-5.2c-9.7,0.7-38.1,12.1-50.2,23.6C224,489.7,223,498.9,221,509.1L221,509.1z"/>
<path class="st0" d="M509.6,509.1c28.3,13.1,18.6,70-26.1,95.2c-9.7-29.1-17.1-46.2-34.8-48.4c-7.9-1-18.2,2-24.7,5.3
	c-8.4,4.2-9.6,10.8-10,10.8c-1,0-8.7-0.1-8.7-0.1c2.5-12,10.9-17.8,29.7-22.2c12.8-2.9,77.5-26.3,52.9-60.4
	c-10-13.8-27.9-20.7-43.6-25.5c-2-0.6,1.6-5.4,4.1-5.2c9.7,0.7,38.1,12.1,50.2,23.6C506.6,489.7,507.6,498.9,509.6,509.1
	L509.6,509.1z"/>
<path class="st0" d="M198.3,547c0,0.3-1-8.4-1.4-8.2c-19.3,9.3-52.9,14.1-69,32.3c-11.1,12.6-12.9,30.2-0.8,49.7
	c6-2.9,39.3-20,52.2-21c11.7-0.4,25.6,21,39.1,33.7c1-0.6,4.4-3.7,11.2-7c-5.9-6.2-39.5-24.3-44.1-65.6
	C184.6,553,191.6,549.1,198.3,547L198.3,547z"/>
<path class="st0" d="M532.3,547c0,0.3,1-8.4,1.4-8.2c19.3,9.3,52.9,14.1,69,32.3c11.1,12.6,12.9,30.2,0.8,49.7
	c-6-2.9-39.3-20-52.2-21c-11.7-0.4-25.6,21-39.1,33.7c-1-0.6-4.4-3.7-11.2-7c5.9-6.2,39.5-24.3,44.1-65.6
	C546,553,539,549.1,532.3,547L532.3,547z"/>
<path class="st0" d="M230.4,639.2c-3.5,0.4-6.6,3.1-7.3,6.5c-1.5,7.5-1,12.8-9.6,19.6c-8,6.4-18.2,11.2-21.4,15.5
	c-1,1.4,0.5,3.5,1.9,3.3c2.1-0.3,7.1-3.7,12.2-6.7c4.9-2.9,13.1-7.6,18.8-14.8C229.1,657.8,230,646.8,230.4,639.2L230.4,639.2z"/>
<path class="st0" d="M500.2,639.2c3.5,0.4,6.6,3.1,7.3,6.5c1.5,7.5,1,12.8,9.6,19.6c8,6.4,18.2,11.2,21.4,15.5
	c1,1.4-0.5,3.5-1.9,3.3c-2.1-0.3-7.1-3.7-12.2-6.7c-4.9-2.9-13.1-7.6-18.8-14.8C501.5,657.8,500.6,646.8,500.2,639.2L500.2,639.2z"
	/>
<path class="st0" d="M399.5,594c1.8,0.1,7.1,0.1,7.7,0.4c-0.5,4.4-5.7,12-10.6,14.1c-4.9,2.1-57.6,2.1-62.5,0
	c-5-2.2-10.2-9.7-10.6-14.1c0.6-0.2,5.9-0.3,7.7-0.4c1.2,3.1,2.9,7.7,6.8,8.3c6.3,1.1,48.5,1.1,54.8,0
	C396.5,601.6,398.2,597,399.5,594L399.5,594z"/>
</svg>
