<?xml version="1.0" encoding="utf-8"?>
<!-- Generator: Adobe Illustrator 28.0.0, SVG Export Plug-In . SVG Version: 6.00 Build 0)  -->
<svg version="1.1" id="Layer_1" xmlns:xodm="http://www.corel.com/coreldraw/odm/2003"
	 xmlns="http://www.w3.org/2000/svg" xmlns:xlink="http://www.w3.org/1999/xlink" x="0px" y="0px" viewBox="0 0 720 720"
	 style="enable-background:new 0 0 720 720;" xml:space="preserve">
<style type="text/css">
	.st0{fill-rule:evenodd;clip-rule:evenodd;fill:#FFD93E;}
	.st1{fill-rule:evenodd;clip-rule:evenodd;fill:#F9F9F9;}
	.st2{fill-rule:evenodd;clip-rule:evenodd;}
</style>
<path class="st0" d="M339,95.3c10-17.4,35.1-17.4,45,0l137.2,237.5L660,573.3c9.3,16.1-2.3,36-20.8,36H361.6H83.9
	c-18.5,0-30.1-20-20.8-36l138.8-240.5L339,95.3z"/>
<path class="st1" d="M642.4,578.9L505.5,341.8L368.5,104.6c-3.1-5.4-10.8-5.4-13.9,0L217.7,341.8L80.7,578.9c-3.1,5.4,0.8,12,7,12
	h273.9h273.9C641.6,591,645.4,584.3,642.4,578.9z M633.1,585.5H361.6H90c-2.8,0-4.5-2.9-3.1-5.4L222.7,345l135.8-235.1
	c1.3-2.4,4.8-2.4,6.2,0L500.4,345l135.8,235.1C637.6,582.5,635.9,585.5,633.1,585.5z"/>
<path class="st2" d="M642.4,578.9l-137-237.1l-137-237.2c-3.1-5.4-10.8-5.3-13.9,0L217.6,341.9L80.7,579c-3.1,5.4,0.8,12,7,12
	l273.9-0.1l273.9-0.1C641.6,590.9,645.4,584.2,642.4,578.9z M626.7,580.1H361.5H96.3c-2.7,0-4.4-2.9-3-5.2l132.6-229.6l132.6-229.6
	c1.3-2.4,4.7-2.4,6,0l132.6,229.6l132.6,229.6C631,577.1,629.4,580.1,626.7,580.1z"/>
<path class="st2" d="M426.4,443.2c5.6-1.8,29.2-11.4,29.3-48.5c7.7,5.4,35.9,84.9-23.7,124.4c-34.7,23-64.2-4.7-57.2-39.9
	c5.7-28.3,40.8-36.1,16.3-77.5c-2.9,24.1-15.3,35-31.6,47.3c-19,14.4-39.5,42.5-4,78.7c-19.7,8.8-105.5,4.3-101.4-79.9
	c7.7,15.3,20.7,22.5,27.1,25.8c-22.2-48.2,63-77.5-0.5-121.2c7.4-7.7,68,1.4,41.2,71.4c88.2-41.6-35.5-120.8,47.9-164.5
	C338.1,317.7,460.5,336.9,426.4,443.2L426.4,443.2z"/>
</svg>
