<?xml version="1.0" encoding="utf-8"?>
<!-- Generator: Adobe Illustrator 28.0.0, SVG Export Plug-In . SVG Version: 6.00 Build 0)  -->
<svg version="1.1" id="Layer_1" xmlns:xodm="http://www.corel.com/coreldraw/odm/2003"
	 xmlns="http://www.w3.org/2000/svg" xmlns:xlink="http://www.w3.org/1999/xlink" x="0px" y="0px" viewBox="0 0 720 720"
	 style="enable-background:new 0 0 720 720;" xml:space="preserve">
<style type="text/css">
	.st0{fill-rule:evenodd;clip-rule:evenodd;fill:#FFD93E;}
	.st1{fill-rule:evenodd;clip-rule:evenodd;fill:#F9F9F9;}
	.st2{fill-rule:evenodd;clip-rule:evenodd;}
</style>
<path class="st0" d="M339,95.6c10-17.4,35.1-17.4,45,0L521.2,333L660,573.5c9.3,16.1-2.3,36-20.8,36H361.6H83.9
	c-18.5,0-30.1-20-20.8-36L201.9,333L339,95.6z"/>
<path class="st1" d="M642.4,579.2L505.5,342.1L368.5,104.9c-3.1-5.4-10.8-5.4-13.9,0L217.7,342.1L80.7,579.2c-3.1,5.4,0.8,12,7,12
	h273.9h273.9C641.6,591.2,645.4,584.5,642.4,579.2z M633.1,585.8H361.6H90c-2.8,0-4.5-2.9-3.1-5.4l135.8-235.1l135.8-235.1
	c1.3-2.4,4.8-2.4,6.2,0l135.8,235.1l135.8,235.1C637.6,582.7,635.9,585.8,633.1,585.8z"/>
<path class="st2" d="M642.4,579.1L505.4,342l-137-237.2c-3.1-5.4-10.8-5.3-13.9,0L217.6,342.1L80.7,579.2c-3.1,5.4,0.8,12,7,12
	l273.9-0.1l273.9-0.1C641.6,591.1,645.4,584.4,642.4,579.1z M626.7,580.3H361.5H96.3c-2.7,0-4.4-2.9-3-5.2l132.6-229.6l132.6-229.6
	c1.3-2.4,4.7-2.4,6,0l132.6,229.6l132.6,229.6C631,577.4,629.4,580.3,626.7,580.3z"/>
<polygon points="384,229.4 339,229.4 345.5,454 377.4,454 "/>
<circle cx="361.5" cy="511.7" r="29"/>
</svg>
