<?xml version="1.0" encoding="utf-8"?>
<!-- Generator: Adobe Illustrator 28.0.0, SVG Export Plug-In . SVG Version: 6.00 Build 0)  -->
<svg version="1.1" id="Layer_1" xmlns:xodm="http://www.corel.com/coreldraw/odm/2003"
	 xmlns="http://www.w3.org/2000/svg" xmlns:xlink="http://www.w3.org/1999/xlink" x="0px" y="0px" viewBox="0 0 720 720"
	 style="enable-background:new 0 0 720 720;" xml:space="preserve">
<style type="text/css">
	.st0{fill:#FFD93E;}
</style>
<rect x="59.8" y="295.7" class="st0" width="603.5" height="80.5"/>
<rect x="59.8" y="295.7" width="40.2" height="40.2"/>
<rect x="100" y="336" width="40.2" height="40.2"/>
<rect x="140.3" y="295.7" width="40.2" height="40.2"/>
<rect x="180.5" y="336" width="40.2" height="40.2"/>
<rect x="220.7" y="295.7" width="40.2" height="40.2"/>
<rect x="261" y="336" width="40.2" height="40.2"/>
<rect x="301.2" y="295.7" width="40.2" height="40.2"/>
<rect x="341.4" y="336" width="40.2" height="40.2"/>
<rect x="381.7" y="295.7" width="40.2" height="40.2"/>
<rect x="421.9" y="336" width="40.2" height="40.2"/>
<rect x="462.1" y="295.7" width="40.2" height="40.2"/>
<rect x="502.4" y="336" width="40.2" height="40.2"/>
<rect x="542.6" y="295.7" width="40.2" height="40.2"/>
<rect x="582.8" y="336" width="40.2" height="40.2"/>
<rect x="623.1" y="295.7" width="40.2" height="40.2"/>
</svg>
