<?xml version="1.0" encoding="utf-8"?>
<!-- Generator: Adobe Illustrator 28.0.0, SVG Export Plug-In . SVG Version: 6.00 Build 0)  -->
<svg version="1.1" id="Layer_1" xmlns:xodm="http://www.corel.com/coreldraw/odm/2003"
	 xmlns="http://www.w3.org/2000/svg" xmlns:xlink="http://www.w3.org/1999/xlink" x="0px" y="0px" viewBox="0 0 720 720"
	 style="enable-background:new 0 0 720 720;" xml:space="preserve">
<style type="text/css">
	.st0{fill:none;stroke:#231F20;stroke-width:3.4006;stroke-miterlimit:10;}
</style>
<polygon points="57.6,341.4 93.3,393.2 76.2,393.2 57.6,366.1 "/>
<polygon points="93.3,287.4 57.6,339.2 57.6,314.5 76.2,287.4 "/>
<polygon points="85.9,340.3 122.4,393.2 105.3,393.2 68.9,340.3 105.3,287.4 122.4,287.4 "/>
<polygon points="139.5,375.8 151.5,393.2 134.3,393.2 122.3,375.8 "/>
<polygon points="139.5,304.8 122.3,304.8 134.3,287.4 151.5,287.4 "/>
<polygon points="168.7,375.8 180.6,393.2 163.5,393.2 151.5,375.8 "/>
<polygon points="168.7,304.8 151.5,304.8 163.5,287.4 180.6,287.4 "/>
<polygon points="197.7,375.8 209.7,393.2 192.5,393.2 180.5,375.8 "/>
<polygon points="197.7,304.8 180.5,304.8 192.5,287.4 209.7,287.4 "/>
<polygon points="226.8,375.8 238.8,393.2 221.7,393.2 209.7,375.8 "/>
<polygon points="226.8,304.8 209.7,304.8 221.7,287.4 238.8,287.4 "/>
<polygon points="256,375.8 268,393.2 250.8,393.2 238.8,375.8 "/>
<polygon points="256,304.8 238.8,304.8 250.8,287.4 268,287.4 "/>
<polygon points="285,375.8 297,393.2 279.9,393.2 267.9,375.8 "/>
<polygon points="285,304.8 267.9,304.8 279.9,287.4 297,287.4 "/>
<polygon points="314.2,375.8 326.2,393.2 309,393.2 297,375.8 "/>
<polygon points="314.2,304.8 297,304.8 309,287.4 326.2,287.4 "/>
<polygon points="343.2,375.8 355.2,393.2 338,393.2 326,375.8 "/>
<polygon points="343.2,304.8 326,304.8 338,287.4 355.2,287.4 "/>
<polygon points="372.4,375.8 384.4,393.2 367.2,393.2 355.2,375.8 "/>
<polygon points="372.4,304.8 355.2,304.8 367.2,287.4 384.4,287.4 "/>
<polygon points="401.5,375.8 413.5,393.2 396.4,393.2 384.4,375.8 "/>
<polygon points="401.5,304.8 384.4,304.8 396.4,287.4 413.5,287.4 "/>
<polygon points="430.5,375.8 442.5,393.2 425.4,393.2 413.4,375.8 "/>
<polygon points="430.5,304.8 413.4,304.8 425.4,287.4 442.5,287.4 "/>
<polygon points="459.7,375.8 471.7,393.2 454.5,393.2 442.5,375.8 "/>
<polygon points="459.7,304.8 442.5,304.8 454.5,287.4 471.7,287.4 "/>
<polygon points="488.7,375.8 500.7,393.2 483.6,393.2 471.6,375.8 "/>
<polygon points="488.7,304.8 471.6,304.8 483.6,287.4 500.7,287.4 "/>
<polygon points="517.9,375.8 529.9,393.2 512.7,393.2 500.7,375.8 "/>
<polygon points="517.9,304.8 500.7,304.8 512.7,287.4 529.9,287.4 "/>
<polygon points="546.9,375.8 558.9,393.2 541.8,393.2 529.8,375.8 "/>
<polygon points="546.9,304.8 529.8,304.8 541.8,287.4 558.9,287.4 "/>
<polygon points="576.1,375.8 588.1,393.2 570.9,393.2 558.9,375.8 "/>
<polygon points="576.1,304.8 558.9,304.8 570.9,287.4 588.1,287.4 "/>
<polygon points="605.2,375.8 617.2,393.2 600.1,393.2 588.1,375.8 "/>
<polygon points="605.2,304.8 588.1,304.8 600.1,287.4 617.2,287.4 "/>
<polygon points="609.8,340.3 646.3,393.2 629.1,393.2 592.8,340.3 629.1,287.4 646.3,287.4 "/>
<polygon points="663.2,305.2 638.9,340.3 663.2,375.5 663.2,393.2 658.2,393.2 621.9,340.3 658.2,287.4 663.2,287.4 "/>
<polygon points="663.2,322.6 663.2,358.1 650.9,340.3 "/>
<line class="st0" x1="57.5" y1="287.4" x2="663.2" y2="287.4"/>
<rect x="56.8" y="275.2" width="27.5" height="8"/>
<rect x="95.4" y="275.2" width="27.5" height="8"/>
<rect x="134" y="275.2" width="27.5" height="8"/>
<rect x="172.6" y="275.2" width="27.5" height="8"/>
<rect x="211.2" y="275.2" width="27.5" height="8"/>
<rect x="249.8" y="275.2" width="27.5" height="8"/>
<rect x="288.4" y="275.2" width="27.5" height="8"/>
<rect x="327" y="275.2" width="27.5" height="8"/>
<rect x="365.5" y="275.2" width="27.5" height="8"/>
<rect x="404.1" y="275.2" width="27.5" height="8"/>
<rect x="442.7" y="275.2" width="27.5" height="8"/>
<rect x="481.3" y="275.2" width="27.5" height="8"/>
<rect x="95.4" y="275.2" width="27.5" height="8"/>
<rect x="134" y="275.2" width="27.5" height="8"/>
<rect x="172.6" y="275.2" width="27.5" height="8"/>
<rect x="211.2" y="275.2" width="27.5" height="8"/>
<rect x="249.8" y="275.2" width="27.5" height="8"/>
<rect x="288.4" y="275.2" width="27.5" height="8"/>
<rect x="327" y="275.2" width="27.5" height="8"/>
<rect x="365.5" y="275.2" width="27.5" height="8"/>
<rect x="404.1" y="275.2" width="27.5" height="8"/>
<rect x="442.7" y="275.2" width="27.5" height="8"/>
<rect x="481.3" y="275.2" width="27.5" height="8"/>
<rect x="519.9" y="275.2" width="27.5" height="8"/>
<rect x="134" y="275.2" width="27.5" height="8"/>
<rect x="172.6" y="275.2" width="27.5" height="8"/>
<rect x="211.2" y="275.2" width="27.5" height="8"/>
<rect x="249.8" y="275.2" width="27.5" height="8"/>
<rect x="288.4" y="275.2" width="27.5" height="8"/>
<rect x="327" y="275.2" width="27.5" height="8"/>
<rect x="365.5" y="275.2" width="27.5" height="8"/>
<rect x="404.1" y="275.2" width="27.5" height="8"/>
<rect x="442.7" y="275.2" width="27.5" height="8"/>
<rect x="481.3" y="275.2" width="27.5" height="8"/>
<rect x="519.9" y="275.2" width="27.5" height="8"/>
<rect x="558.5" y="275.2" width="27.5" height="8"/>
<rect x="172.6" y="275.2" width="27.5" height="8"/>
<rect x="211.2" y="275.2" width="27.5" height="8"/>
<rect x="249.8" y="275.2" width="27.5" height="8"/>
<rect x="288.4" y="275.2" width="27.5" height="8"/>
<rect x="327" y="275.2" width="27.5" height="8"/>
<rect x="365.5" y="275.2" width="27.5" height="8"/>
<rect x="404.1" y="275.2" width="27.5" height="8"/>
<rect x="442.7" y="275.2" width="27.5" height="8"/>
<rect x="481.3" y="275.2" width="27.5" height="8"/>
<rect x="519.9" y="275.2" width="27.5" height="8"/>
<rect x="558.5" y="275.2" width="27.5" height="8"/>
<rect x="597.1" y="275.2" width="27.5" height="8"/>
<rect x="211.2" y="275.2" width="27.5" height="8"/>
<rect x="249.8" y="275.2" width="27.5" height="8"/>
<rect x="288.4" y="275.2" width="27.5" height="8"/>
<rect x="327" y="275.2" width="27.5" height="8"/>
<rect x="365.5" y="275.2" width="27.5" height="8"/>
<rect x="404.1" y="275.2" width="27.5" height="8"/>
<rect x="442.7" y="275.2" width="27.5" height="8"/>
<rect x="481.3" y="275.2" width="27.5" height="8"/>
<rect x="519.9" y="275.2" width="27.5" height="8"/>
<rect x="558.5" y="275.2" width="27.5" height="8"/>
<rect x="597.1" y="275.2" width="27.5" height="8"/>
<rect x="635.7" y="275.2" width="27.5" height="8"/>
<rect x="56.8" y="275.2" width="27.5" height="8"/>
<rect x="95.4" y="275.2" width="27.5" height="8"/>
<rect x="134" y="275.2" width="27.5" height="8"/>
<rect x="172.6" y="275.2" width="27.5" height="8"/>
<rect x="211.2" y="275.2" width="27.5" height="8"/>
<rect x="249.8" y="275.2" width="27.5" height="8"/>
<rect x="288.4" y="275.2" width="27.5" height="8"/>
<rect x="327" y="275.2" width="27.5" height="8"/>
<rect x="365.5" y="275.2" width="27.5" height="8"/>
<rect x="404.1" y="275.2" width="27.5" height="8"/>
<rect x="442.7" y="275.2" width="27.5" height="8"/>
<rect x="481.3" y="275.2" width="27.5" height="8"/>
<rect x="95.4" y="275.2" width="27.5" height="8"/>
<rect x="134" y="275.2" width="27.5" height="8"/>
<rect x="172.6" y="275.2" width="27.5" height="8"/>
<rect x="211.2" y="275.2" width="27.5" height="8"/>
<rect x="249.8" y="275.2" width="27.5" height="8"/>
<rect x="288.4" y="275.2" width="27.5" height="8"/>
<rect x="327" y="275.2" width="27.5" height="8"/>
<rect x="365.5" y="275.2" width="27.5" height="8"/>
<rect x="404.1" y="275.2" width="27.5" height="8"/>
<rect x="442.7" y="275.2" width="27.5" height="8"/>
<rect x="481.3" y="275.2" width="27.5" height="8"/>
<rect x="519.9" y="275.2" width="27.5" height="8"/>
<rect x="134" y="275.2" width="27.5" height="8"/>
<rect x="172.6" y="275.2" width="27.5" height="8"/>
<rect x="211.2" y="275.2" width="27.5" height="8"/>
<rect x="249.8" y="275.2" width="27.5" height="8"/>
<rect x="288.4" y="275.2" width="27.5" height="8"/>
<rect x="327" y="275.2" width="27.5" height="8"/>
<rect x="365.5" y="275.2" width="27.5" height="8"/>
<rect x="404.1" y="275.2" width="27.5" height="8"/>
<rect x="442.7" y="275.2" width="27.5" height="8"/>
<rect x="481.3" y="275.2" width="27.5" height="8"/>
<rect x="519.9" y="275.2" width="27.5" height="8"/>
<rect x="558.5" y="275.2" width="27.5" height="8"/>
<rect x="172.6" y="275.2" width="27.5" height="8"/>
<rect x="211.2" y="275.2" width="27.5" height="8"/>
<rect x="249.8" y="275.2" width="27.5" height="8"/>
<rect x="288.4" y="275.2" width="27.5" height="8"/>
<rect x="327" y="275.2" width="27.5" height="8"/>
<rect x="365.5" y="275.2" width="27.5" height="8"/>
<rect x="404.1" y="275.2" width="27.5" height="8"/>
<rect x="442.7" y="275.2" width="27.5" height="8"/>
<rect x="481.3" y="275.2" width="27.5" height="8"/>
<rect x="519.9" y="275.2" width="27.5" height="8"/>
<rect x="558.5" y="275.2" width="27.5" height="8"/>
<rect x="597.1" y="275.2" width="27.5" height="8"/>
<rect x="211.2" y="275.2" width="27.5" height="8"/>
<rect x="249.8" y="275.2" width="27.5" height="8"/>
<rect x="288.4" y="275.2" width="27.5" height="8"/>
<rect x="327" y="275.2" width="27.5" height="8"/>
<rect x="365.5" y="275.2" width="27.5" height="8"/>
<rect x="404.1" y="275.2" width="27.5" height="8"/>
<rect x="442.7" y="275.2" width="27.5" height="8"/>
<rect x="481.3" y="275.2" width="27.5" height="8"/>
<rect x="519.9" y="275.2" width="27.5" height="8"/>
<rect x="558.5" y="275.2" width="27.5" height="8"/>
<rect x="597.1" y="275.2" width="27.5" height="8"/>
<rect x="635.7" y="275.2" width="27.5" height="8"/>
<line class="st0" x1="57.5" y1="393.2" x2="663.2" y2="393.2"/>
<rect x="56.8" y="397.4" width="27.5" height="8"/>
<rect x="95.4" y="397.4" width="27.5" height="8"/>
<rect x="134" y="397.4" width="27.5" height="8"/>
<rect x="172.6" y="397.4" width="27.5" height="8"/>
<rect x="211.2" y="397.4" width="27.5" height="8"/>
<rect x="249.8" y="397.4" width="27.5" height="8"/>
<rect x="288.4" y="397.4" width="27.5" height="8"/>
<rect x="327" y="397.4" width="27.5" height="8"/>
<rect x="365.5" y="397.4" width="27.5" height="8"/>
<rect x="404.1" y="397.4" width="27.5" height="8"/>
<rect x="442.7" y="397.4" width="27.5" height="8"/>
<rect x="481.3" y="397.4" width="27.5" height="8"/>
<rect x="95.4" y="397.4" width="27.5" height="8"/>
<rect x="134" y="397.4" width="27.5" height="8"/>
<rect x="172.6" y="397.4" width="27.5" height="8"/>
<rect x="211.2" y="397.4" width="27.5" height="8"/>
<rect x="249.8" y="397.4" width="27.5" height="8"/>
<rect x="288.4" y="397.4" width="27.5" height="8"/>
<rect x="327" y="397.4" width="27.5" height="8"/>
<rect x="365.5" y="397.4" width="27.5" height="8"/>
<rect x="404.1" y="397.4" width="27.5" height="8"/>
<rect x="442.7" y="397.4" width="27.5" height="8"/>
<rect x="481.3" y="397.4" width="27.5" height="8"/>
<rect x="519.9" y="397.4" width="27.5" height="8"/>
<rect x="134" y="397.4" width="27.5" height="8"/>
<rect x="172.6" y="397.4" width="27.5" height="8"/>
<rect x="211.2" y="397.4" width="27.5" height="8"/>
<rect x="249.8" y="397.4" width="27.5" height="8"/>
<rect x="288.4" y="397.4" width="27.5" height="8"/>
<rect x="327" y="397.4" width="27.5" height="8"/>
<rect x="365.5" y="397.4" width="27.5" height="8"/>
<rect x="404.1" y="397.4" width="27.5" height="8"/>
<rect x="442.7" y="397.4" width="27.5" height="8"/>
<rect x="481.3" y="397.4" width="27.5" height="8"/>
<rect x="519.9" y="397.4" width="27.5" height="8"/>
<rect x="558.5" y="397.4" width="27.5" height="8"/>
<rect x="172.6" y="397.4" width="27.5" height="8"/>
<rect x="211.2" y="397.4" width="27.5" height="8"/>
<rect x="249.8" y="397.4" width="27.5" height="8"/>
<rect x="288.4" y="397.4" width="27.5" height="8"/>
<rect x="327" y="397.4" width="27.5" height="8"/>
<rect x="365.5" y="397.4" width="27.5" height="8"/>
<rect x="404.1" y="397.4" width="27.5" height="8"/>
<rect x="442.7" y="397.4" width="27.5" height="8"/>
<rect x="481.3" y="397.4" width="27.5" height="8"/>
<rect x="519.9" y="397.4" width="27.5" height="8"/>
<rect x="558.5" y="397.4" width="27.5" height="8"/>
<rect x="597.1" y="397.4" width="27.5" height="8"/>
<rect x="211.2" y="397.4" width="27.5" height="8"/>
<rect x="249.8" y="397.4" width="27.5" height="8"/>
<rect x="288.4" y="397.4" width="27.5" height="8"/>
<rect x="327" y="397.4" width="27.5" height="8"/>
<rect x="365.5" y="397.4" width="27.5" height="8"/>
<rect x="404.1" y="397.4" width="27.5" height="8"/>
<rect x="442.7" y="397.4" width="27.5" height="8"/>
<rect x="481.3" y="397.4" width="27.5" height="8"/>
<rect x="519.9" y="397.4" width="27.5" height="8"/>
<rect x="558.5" y="397.4" width="27.5" height="8"/>
<rect x="597.1" y="397.4" width="27.5" height="8"/>
<rect x="635.7" y="397.4" width="27.5" height="8"/>
<rect x="56.8" y="397.4" width="27.5" height="8"/>
<rect x="95.4" y="397.4" width="27.5" height="8"/>
<rect x="134" y="397.4" width="27.5" height="8"/>
<rect x="172.6" y="397.4" width="27.5" height="8"/>
<rect x="211.2" y="397.4" width="27.5" height="8"/>
<rect x="249.8" y="397.4" width="27.5" height="8"/>
<rect x="288.4" y="397.4" width="27.5" height="8"/>
<rect x="327" y="397.4" width="27.5" height="8"/>
<rect x="365.5" y="397.4" width="27.5" height="8"/>
<rect x="404.1" y="397.4" width="27.5" height="8"/>
<rect x="442.7" y="397.4" width="27.5" height="8"/>
<rect x="481.3" y="397.4" width="27.5" height="8"/>
<rect x="95.4" y="397.4" width="27.5" height="8"/>
<rect x="134" y="397.4" width="27.5" height="8"/>
<rect x="172.6" y="397.4" width="27.5" height="8"/>
<rect x="211.2" y="397.4" width="27.5" height="8"/>
<rect x="249.8" y="397.4" width="27.5" height="8"/>
<rect x="288.4" y="397.4" width="27.5" height="8"/>
<rect x="327" y="397.4" width="27.5" height="8"/>
<rect x="365.5" y="397.4" width="27.5" height="8"/>
<rect x="404.1" y="397.4" width="27.5" height="8"/>
<rect x="442.7" y="397.4" width="27.5" height="8"/>
<rect x="481.3" y="397.4" width="27.5" height="8"/>
<rect x="519.9" y="397.4" width="27.5" height="8"/>
<rect x="134" y="397.4" width="27.5" height="8"/>
<rect x="172.6" y="397.4" width="27.5" height="8"/>
<rect x="211.2" y="397.4" width="27.5" height="8"/>
<rect x="249.8" y="397.4" width="27.5" height="8"/>
<rect x="288.4" y="397.4" width="27.5" height="8"/>
<rect x="327" y="397.4" width="27.5" height="8"/>
<rect x="365.5" y="397.4" width="27.5" height="8"/>
<rect x="404.1" y="397.4" width="27.5" height="8"/>
<rect x="442.7" y="397.4" width="27.5" height="8"/>
<rect x="481.3" y="397.4" width="27.5" height="8"/>
<rect x="519.9" y="397.4" width="27.5" height="8"/>
<rect x="558.5" y="397.4" width="27.5" height="8"/>
<rect x="172.6" y="397.4" width="27.5" height="8"/>
<rect x="211.2" y="397.4" width="27.5" height="8"/>
<rect x="249.8" y="397.4" width="27.5" height="8"/>
<rect x="288.4" y="397.4" width="27.5" height="8"/>
<rect x="327" y="397.4" width="27.5" height="8"/>
<rect x="365.5" y="397.4" width="27.5" height="8"/>
<rect x="404.1" y="397.4" width="27.5" height="8"/>
<rect x="442.7" y="397.4" width="27.5" height="8"/>
<rect x="481.3" y="397.4" width="27.5" height="8"/>
<rect x="519.9" y="397.4" width="27.5" height="8"/>
<rect x="558.5" y="397.4" width="27.5" height="8"/>
<rect x="597.1" y="397.4" width="27.5" height="8"/>
<rect x="211.2" y="397.4" width="27.5" height="8"/>
<rect x="249.8" y="397.4" width="27.5" height="8"/>
<rect x="288.4" y="397.4" width="27.5" height="8"/>
<rect x="327" y="397.4" width="27.5" height="8"/>
<rect x="365.5" y="397.4" width="27.5" height="8"/>
<rect x="404.1" y="397.4" width="27.5" height="8"/>
<rect x="442.7" y="397.4" width="27.5" height="8"/>
<rect x="481.3" y="397.4" width="27.5" height="8"/>
<rect x="519.9" y="397.4" width="27.5" height="8"/>
<rect x="558.5" y="397.4" width="27.5" height="8"/>
<rect x="597.1" y="397.4" width="27.5" height="8"/>
<rect x="635.7" y="397.4" width="27.5" height="8"/>
</svg>
