<?xml version="1.0" encoding="utf-8"?>
<!-- Generator: Adobe Illustrator 28.0.0, SVG Export Plug-In . SVG Version: 6.00 Build 0)  -->
<svg version="1.1" id="Layer_1" xmlns:xodm="http://www.corel.com/coreldraw/odm/2003"
	 xmlns="http://www.w3.org/2000/svg" xmlns:xlink="http://www.w3.org/1999/xlink" x="0px" y="0px" viewBox="0 0 720 720"
	 style="enable-background:new 0 0 720 720;" xml:space="preserve">
<style type="text/css">
	.st0{fill:#F7B24B;}
	.st1{fill:none;}
</style>
<path d="M595.2,395v202.2c0,40.7-33.1,73.8-73.8,73.8H188.1c-40.7,0-73.8-33.1-73.8-73.8V395H595.2z"/>
<path class="st0" d="M595.2,120v275H114.3V120c0-40.9,33.1-74,73.8-74h333.3C562.1,46,595.2,79.1,595.2,120z"/>
<line class="st1" x1="605.7" y1="395" x2="595.2" y2="395"/>
<path d="M283.4,347.1l-31.7-31.7v-63l31.7-31.7L251.7,189v-63.4l31.7-31.7h142.6l31.7,31.7V189l-31.7,31.7l31.7,31.7v63l-31.7,31.7
	H283.4z M315.1,157.3V189h79.2v-31.7H315.1z M315.1,252.4v31.3h79.2v-31.3H315.1z"/>
</svg>
