<?xml version="1.0" encoding="utf-8"?>
<!-- Generator: Adobe Illustrator 28.0.0, SVG Export Plug-In . SVG Version: 6.00 Build 0)  -->
<svg version="1.1" id="Layer_1" xmlns:xodm="http://www.corel.com/coreldraw/odm/2003"
	 xmlns="http://www.w3.org/2000/svg" xmlns:xlink="http://www.w3.org/1999/xlink" x="0px" y="0px" viewBox="0 0 720 720"
	 style="enable-background:new 0 0 720 720;" xml:space="preserve">
<g>
	<path d="M269.9,256.7c-27.7,16-50.6,39-66.7,66.7c-16,27.8-24.5,59.1-24.5,91.2l-18.2-0.3c0-35.2,9.4-69.5,26.9-99.9v-0.1
		c17.6-30.4,42.8-55.6,73.2-73.3L269.9,256.7z"/>
</g>
<line x1="255.3" y1="353.6" x2="254.4" y2="353.1"/>
<g>
	<polygon points="302.6,176.5 235.2,199.2 111.6,413.3 125.6,483 121.4,483.9 104.5,399.8 220,199.8 301.3,172.4 	"/>
</g>
<g>
	<path d="M563.9,414.4l-18.2,0.3c0-32.1-8.5-63.4-24.5-91.2c-16.1-27.7-39-50.7-66.7-66.7l9.3-15.7c30.4,17.6,55.5,42.9,73.2,73.3
		v0.1C554.5,344.8,563.9,379.2,563.9,414.4z"/>
</g>
<g>
	<path d="M500.1,324.1l-15.2,10c-26.4-39.8-71.6-65.9-122.7-65.9c-51.1,0-96.3,26.1-122.7,65.9l-15.2-10
		c29.5-44.7,80.4-74.2,137.9-74.2C419.8,249.9,470.6,279.4,500.1,324.1z"/>
</g>
<path d="M438.1,248.1c-5.8-2.6-11.7-5-17.8-7.1l-7.2-21c-16.2-4.4-33.2-6.6-50.9-6.6s-34.6,2.2-50.9,6.6l-7.2,21
	c-6.1,2.1-12,4.5-17.8,7.1l66.7-175.3v111.4h18.3V72.8L438.1,248.1z"/>
<g>
	<rect x="358.6" y="294.6" width="7.2" height="50.5"/>
</g>
<line x1="470" y1="353.1" x2="469.1" y2="353.6"/>
<g>
	<polygon points="619.9,399.8 603,483.9 598.8,483 612.8,413.3 489.2,199.2 421.8,176.5 423.1,172.4 504.4,199.8 	"/>
</g>
<g>
	<path d="M353.3,562.1l-1.2,18.3c-53.4-3.2-104.3-32.6-133.2-82.4c-28.7-49.8-28.7-108.7-4.8-156.6l16.4,8.2
		c-21.2,42.8-21.4,94.9,4.2,139.2C260.3,533.1,305.7,559.1,353.3,562.1z"/>
</g>
<path d="M255.3,564.5L70.2,594.4l96.5-55.8l-9.1-15.7l-96.5,55.6l118.4-145.4c0.8,6.3,1.5,12.6,2.8,18.9l-14.6,16.7
	c4.2,16.2,10.8,32.1,19.7,47.4c8.8,15.2,19.2,28.8,31.2,40.7l21.8-4.3C245.1,556.9,250.3,560.8,255.3,564.5z"/>
<polygon points="303.2,453.5 259.6,478.8 256,472.4 299.6,447.2 "/>
<line x1="255.3" y1="353.6" x2="254.4" y2="353.1"/>
<g>
	<path d="M505.4,497.9c-28.8,49.8-79.7,79.2-133.2,82.4l-1.2-18.3c47.7-3,93-29,118.5-73.3c25.6-44.3,25.5-96.5,4.3-139.2l16.4-8.2
		C534.1,389.3,534.1,448.1,505.4,497.9z"/>
</g>
<polygon points="468.4,472.4 464.8,478.8 421.2,453.5 424.8,447.2 "/>
<g>
	<path d="M384.9,402.3l-0.1-0.1l-22.5-39l-22.5,39l-0.1,0.1l-22.5,39l45.1,0.1h0.3l45.1-0.1L384.9,402.3z M365.3,424.3l-3.2-0.1
		l-3,0.1l-0.1,13.4h-35.5l17.8-30.8l11.6,6.6l1.7-2.6l1.4-2.8l-11.5-6.8l17.8-30.8l17.8,30.8l-11.5,6.8l1.3,2.7l1.8,2.7l11.6-6.6
		l17.8,30.8h-35.5L365.3,424.3z"/>
</g>
<g>
	<path d="M462.3,590.4c-30.4,17.5-65,26.7-100.1,26.7c-35,0-69.7-9.1-100.1-26.7l8.9-16c27.7,16.1,59.1,24.3,91.2,24.5
		c32.1-0.1,63.5-8.4,91.2-24.5L462.3,590.4z"/>
</g>
<path d="M557.7,538.6l96.5,55.8l-185.1-29.9c5-3.7,10.2-7.6,14.9-11.8l21.8,4.3c12-11.8,22.4-25.5,31.2-40.7
	c8.9-15.3,15.5-31.2,19.7-47.4l-14.6-16.7c1.3-6.3,2.1-12.6,2.8-18.9l118.4,145.4l-96.5-55.6L557.7,538.6z"/>
<g>
	<polygon points="542.1,589.5 477.7,646.2 246.7,646.2 182.3,589.5 185.2,586.3 238.6,633.3 485.8,633.3 539.2,586.3 	"/>
</g>
<g>
	<path d="M429,303.7l-4.5,7.9c35.2,21.1,58.9,59.4,59.5,103h9.1C492.5,367.5,466.9,326.3,429,303.7z M294.8,303.7
		c-38,22.5-63.6,63.7-64.3,110.9h9.1c0.6-43.8,24.5-82,59.6-103L294.8,303.7z M421.4,523.1c-17.6,9.8-37.9,15.5-59.5,15.5
		s-41.9-5.7-59.5-15.5l-4.5,8c18.9,10.6,40.8,16.6,64,16.6c23.3,0,45.1-6.1,64-16.7L421.4,523.1z"/>
</g>
</svg>
