<?xml version="1.0" encoding="utf-8"?>
<!-- Generator: Adobe Illustrator 28.0.0, SVG Export Plug-In . SVG Version: 6.00 Build 0)  -->
<svg version="1.1" id="Layer_1" xmlns:xodm="http://www.corel.com/coreldraw/odm/2003"
	 xmlns="http://www.w3.org/2000/svg" xmlns:xlink="http://www.w3.org/1999/xlink" x="0px" y="0px" viewBox="0 0 720 720"
	 style="enable-background:new 0 0 720 720;" xml:space="preserve">
<style type="text/css">
	.st0{opacity:0.5;enable-background:new    ;}
</style>
<path d="M656.9,544.8H66.2c-3.5,0-6.4-2.9-6.4-6.4v-55.7c0-3.5,2.9-6.4,6.4-6.4h590.7c3.5,0,6.4,2.9,6.4,6.4v55.7
	C663.3,541.9,660.4,544.8,656.9,544.8z M73.3,537.6h576.4c3.5,0,6.4-2.9,6.4-6.4v-41.4c0-3.5-2.9-6.4-6.4-6.4H73.3
	c-3.5,0-6.4,2.9-6.4,6.4v41.4C66.9,534.8,69.8,537.6,73.3,537.6z"/>
<path class="st0" d="M72.5,537.6H593v-54.2H72.5c-3.1,0-5.5,2.5-5.5,5.5V532C66.9,535.1,69.4,537.6,72.5,537.6z"/>
<path d="M656.9,469.3H66.2c-3.5,0-6.4-2.9-6.4-6.4v-55.7c0-3.5,2.9-6.4,6.4-6.4h590.7c3.5,0,6.4,2.9,6.4,6.4v55.7
	C663.3,466.4,660.4,469.3,656.9,469.3z M73.3,462.1h576.4c3.5,0,6.4-2.9,6.4-6.4v-41.4c0-3.5-2.9-6.4-6.4-6.4H73.3
	c-3.5,0-6.4,2.9-6.4,6.4v41.4C66.9,459.3,69.8,462.1,73.3,462.1z"/>
<path class="st0" d="M70.5,462.1H283v-54.2H70.5c-2,0-3.6,1.6-3.6,3.6v47.1C66.9,460.5,68.5,462.1,70.5,462.1z"/>
<path d="M656.9,393.8H66.2c-3.5,0-6.4-2.9-6.4-6.4v-55.7c0-3.5,2.9-6.4,6.4-6.4h590.7c3.5,0,6.4,2.9,6.4,6.4v55.7
	C663.3,390.9,660.4,393.8,656.9,393.8z M73.3,386.6h576.4c3.5,0,6.4-2.9,6.4-6.4v-41.4c0-3.5-2.9-6.4-6.4-6.4H73.3
	c-3.5,0-6.4,2.9-6.4,6.4v41.4C66.9,383.7,69.8,386.6,73.3,386.6z"/>
<path class="st0" d="M71.5,386.6h356.1v-54.2H71.5c-2.5,0-4.6,2.1-4.6,4.6v45C66.9,384.6,69,386.6,71.5,386.6z"/>
<path d="M656.9,318.3H66.2c-3.5,0-6.4-2.9-6.4-6.4v-55.7c0-3.5,2.9-6.4,6.4-6.4h590.7c3.5,0,6.4,2.9,6.4,6.4v55.7
	C663.3,315.4,660.4,318.3,656.9,318.3z M73.3,311.1h576.4c3.5,0,6.4-2.9,6.4-6.4v-41.4c0-3.5-2.9-6.4-6.4-6.4H73.3
	c-3.5,0-6.4,2.9-6.4,6.4v41.4C66.9,308.2,69.8,311.1,73.3,311.1z"/>
<path class="st0" d="M70.4,311.1h204v-54.2h-204c-1.9,0-3.5,1.6-3.5,3.5v47.3C66.9,309.5,68.5,311.1,70.4,311.1z"/>
<path d="M656.9,242.7H66.2c-3.5,0-6.4-2.9-6.4-6.4v-55.7c0-3.5,2.9-6.4,6.4-6.4h590.7c3.5,0,6.4,2.9,6.4,6.4v55.7
	C663.3,239.9,660.4,242.7,656.9,242.7z M73.3,235.6h576.4c3.5,0,6.4-2.9,6.4-6.4v-41.4c0-3.5-2.9-6.4-6.4-6.4H73.3
	c-3.5,0-6.4,2.9-6.4,6.4v41.4C66.9,232.7,69.8,235.6,73.3,235.6z"/>
<path class="st0" d="M68.9,235.6h62.6v-54.2H68.9c-1.1,0-1.9,0.9-1.9,1.9v50.3C66.9,234.7,67.8,235.6,68.9,235.6z"/>
</svg>
