<?xml version="1.0" encoding="utf-8"?>
<!-- Generator: Adobe Illustrator 28.0.0, SVG Export Plug-In . SVG Version: 6.00 Build 0)  -->
<svg version="1.1" id="Layer_1" xmlns:xodm="http://www.corel.com/coreldraw/odm/2003"
	 xmlns="http://www.w3.org/2000/svg" xmlns:xlink="http://www.w3.org/1999/xlink" x="0px" y="0px" viewBox="0 0 720 720"
	 style="enable-background:new 0 0 720 720;" xml:space="preserve">
<style type="text/css">
	.st0{fill-rule:evenodd;clip-rule:evenodd;fill:#FFFFFF;stroke:#000000;stroke-miterlimit:10;}
	.st1{fill-rule:evenodd;clip-rule:evenodd;fill:#C10C0C;stroke:#000000;stroke-miterlimit:10;}
	.st2{fill:#FFFFFF;}
</style>
<path class="st0" d="M586.7,456.4H133.3c-53.3,0-96.4-43.2-96.4-96.4l0,0c0-53.3,43.2-96.4,96.4-96.4h453.3
	c53.3,0,96.4,43.2,96.4,96.4l0,0C683.1,413.3,639.9,456.4,586.7,456.4z"/>
<path class="st1" d="M583.9,441.6H136.1c-45.7,0-82.7-37-82.7-82.7l0,0c0-45.7,37-82.7,82.7-82.7H584c45.7,0,82.7,37,82.7,82.7l0,0
	C666.7,404.6,629.6,441.6,583.9,441.6z"/>
<path class="st2" d="M122.1,337.6v46.3h-11.6v-46.3H122.1z"/>
<path class="st2" d="M127.6,337.6h10.6l18.3,31.4v-31.4h11.6v46.3h-13.5l-15.4-26.5v26.5h-11.6V337.6z"/>
<path class="st2" d="M185.4,366.6v17.3h-11.6v-46.3h37.6v11.6h-26v5.8h26v11.6H185.4z"/>
<path class="st2" d="M216.5,383.9v-46.3h37.6v11.6h-26v5.8h26v11.6h-26v5.7h26v11.6H216.5z"/>
<path class="st2" d="M264.9,383.9l-5.8-5.8v-34.7l5.8-5.8H291l5.8,5.8V355h-11.6v-5.8h-14.5v23.1h14.5v-5.8h11.6v11.6l-5.8,5.8
	H264.9z"/>
<path class="st2" d="M315.3,349.2h-13.5v-11.6h37.6v11.6h-12.6v34.7h-11.5V349.2z"/>
<path class="st2" d="M344.4,383.9v-46.3h37.6v11.6h-26v5.8h26v11.6h-26v5.7h26v11.6H344.4z"/>
<path class="st2" d="M387.6,383.9v-46.3h31.9l5.8,5.8v34.7l-5.8,5.8H387.6z M399.2,349.1v23.1h14.5v-23.1H399.2z"/>
<path class="st2" d="M447.7,383.9l19.8-34.7h-19.8v-11.6h37.6l-19.8,34.7h19.8v11.6H447.7z"/>
<path class="st2" d="M494.5,383.9l-5.8-5.8v-34.7l5.8-5.8h26l5.8,5.8v34.7l-5.8,5.8H494.5z M500.3,349.2v23.1h14.4v-23.1H500.3z"/>
<path class="st2" d="M531.9,337.6h10.6l18.3,31.4v-31.4h11.6v46.3h-13.5l-15.4-26.5v26.5h-11.6V337.6z"/>
<path class="st2" d="M578,383.9v-46.3h37.6v11.6h-26v5.8h26v11.6h-26v5.7h26v11.6H578z"/>
</svg>
