<?xml version="1.0" encoding="utf-8"?>
<!-- Generator: Adobe Illustrator 28.0.0, SVG Export Plug-In . SVG Version: 6.00 Build 0)  -->
<svg version="1.1" id="Layer_1" xmlns:xodm="http://www.corel.com/coreldraw/odm/2003"
	 xmlns="http://www.w3.org/2000/svg" xmlns:xlink="http://www.w3.org/1999/xlink" x="0px" y="0px" viewBox="0 0 720 720"
	 style="enable-background:new 0 0 720 720;" xml:space="preserve">
<style type="text/css">
	.st0{fill:#C02026;}
	.st1{opacity:0.5;}
</style>
<g>
	<path class="st0" d="M649.7,386.8H71.8c-17.8,0-32.1-14.4-32.1-32.1l0,0c0-17.8,14.4-32.1,32.1-32.1h577.9
		c17.8,0,32.1,14.4,32.1,32.1l0,0C681.8,372.4,667.4,386.8,649.7,386.8z M71.8,327.7c-14.8,0-27,12-27,27l0,0c0,14.8,12,27,27,27
		h577.9c14.8,0,27-12,27-27l0,0c0-14.8-12-27-27-27H71.8z"/>
</g>
<g>
	<g>
		<path class="st0" d="M66.5,329.7l-16.8,37.9c-2.1-3.6-3.3-7.8-3.5-12.2l8.9-20C58.4,332.6,62.2,330.6,66.5,329.7z"/>
	</g>
</g>
<g>
	<g>
		<path class="st0" d="M53.8,336.5l-7.6,17C46.6,346.9,49.4,340.9,53.8,336.5z"/>
	</g>
</g>
<g>
	<g>
		<path class="st0" d="M77.4,329.1L57,375.3c-2.4-1.7-4.4-3.8-6.1-6.2l17.7-39.8L77.4,329.1z"/>
	</g>
</g>
<g>
	<g>
		<path class="st0" d="M88.1,329.1L88.1,329.1l-22.3,50.3c-2.7-0.6-5.2-1.7-7.5-3.1l20.9-47.1l0,0H88.1z"/>
	</g>
</g>
<g>
	<g>
		<polygon class="st0" points="76.1,380.2 67.2,380.2 89.8,329.1 98.7,329.1 		"/>
	</g>
</g>
<g>
	<g>
		<polygon class="st0" points="86.8,380.2 77.9,380.2 100.5,329.1 109.4,329.1 		"/>
	</g>
</g>
<g>
	<g>
		<polygon class="st0" points="97.4,380.2 88.6,380.2 111.2,329.1 120,329.1 		"/>
	</g>
</g>
<g>
	<g>
		<polygon class="st0" points="108.1,380.2 99.2,380.2 121.8,329.1 130.7,329.1 		"/>
	</g>
</g>
<g>
	<g>
		<polygon class="st0" points="118.7,380.2 109.9,380.2 132.5,329.1 141.3,329.1 		"/>
	</g>
</g>
<g>
	<g>
		<polygon class="st0" points="129.4,380.2 120.5,380.2 143.2,329.1 152,329.1 		"/>
	</g>
</g>
<g>
	<g>
		<polygon class="st0" points="140,380.2 131.2,380.2 153.8,329.1 162.6,329.1 		"/>
	</g>
</g>
<g>
	<g>
		<polygon class="st0" points="150.7,380.2 141.8,380.2 164.5,329.1 173.4,329.1 		"/>
	</g>
</g>
<g>
	<g>
		<polygon class="st0" points="161.4,380.2 152.5,380.2 175.2,329.1 184,329.1 		"/>
	</g>
</g>
<g>
	<g>
		<polygon class="st0" points="172,380.2 163.2,380.2 185.8,329.1 194.7,329.1 		"/>
	</g>
</g>
<g>
	<g>
		<polygon class="st0" points="182.7,380.2 173.9,380.2 196.5,329.1 205.3,329.1 		"/>
	</g>
</g>
<g>
	<g>
		<polygon class="st0" points="193.3,380.2 184.5,380.2 207.1,329.1 216,329.1 		"/>
	</g>
</g>
<g>
	<g>
		<polygon class="st0" points="204.1,380.2 195.2,380.2 217.8,329.1 226.7,329.1 		"/>
	</g>
</g>
<g>
	<g>
		<polygon class="st0" points="214.7,380.2 205.8,380.2 228.4,329.1 237.3,329.1 		"/>
	</g>
</g>
<g>
	<g>
		<polygon class="st0" points="225.4,380.2 216.5,380.2 239.1,329.1 248,329.1 		"/>
	</g>
</g>
<g>
	<g>
		<polygon class="st0" points="236,380.2 227.1,380.2 249.7,329.1 258.6,329.1 		"/>
	</g>
</g>
<g>
	<g>
		<polygon class="st0" points="246.7,380.2 237.8,380.2 260.4,329.1 269.3,329.1 		"/>
	</g>
</g>
<g>
	<g>
		<polygon class="st0" points="257.3,380.2 248.4,380.2 271,329.1 279.9,329.1 		"/>
	</g>
</g>
<g>
	<g>
		<polygon class="st0" points="268,380.2 259.1,380.2 281.8,329.1 290.6,329.1 		"/>
	</g>
</g>
<g>
	<g>
		<polygon class="st0" points="278.6,380.2 269.7,380.2 292.4,329.1 301.2,329.1 		"/>
	</g>
</g>
<g>
	<g>
		<polygon class="st0" points="289.3,380.2 280.4,380.2 303.1,329.1 311.9,329.1 		"/>
	</g>
</g>
<g>
	<g>
		<polygon class="st0" points="299.9,380.2 291,380.2 313.7,329.1 322.6,329.1 		"/>
	</g>
</g>
<g>
	<g>
		<polygon class="st0" points="310.6,380.2 301.7,380.2 324.4,329.1 333.3,329.1 		"/>
	</g>
</g>
<g>
	<g>
		<polygon class="st0" points="321.2,380.2 312.4,380.2 335,329.1 343.9,329.1 		"/>
	</g>
</g>
<g>
	<g>
		<polygon class="st0" points="331.9,380.2 323.1,380.2 345.7,329.1 354.6,329.1 		"/>
	</g>
</g>
<g>
	<g>
		<polygon class="st0" points="342.5,380.2 333.7,380.2 356.3,329.1 365.2,329.1 		"/>
	</g>
</g>
<g>
	<g>
		<polygon class="st0" points="353.3,380.2 344.4,380.2 367,329.1 375.9,329.1 		"/>
	</g>
</g>
<g>
	<g>
		<polygon class="st0" points="363.9,380.2 355,380.2 377.6,329.1 386.5,329.1 		"/>
	</g>
</g>
<g>
	<g>
		<polygon class="st0" points="374.6,380.2 365.7,380.2 388.3,329.1 397.2,329.1 		"/>
	</g>
</g>
<g>
	<g>
		<polygon class="st0" points="385.2,380.2 376.3,380.2 398.9,329.1 407.8,329.1 		"/>
	</g>
</g>
<g>
	<g>
		<polygon class="st0" points="395.9,380.2 387,380.2 409.6,329.1 418.5,329.1 		"/>
	</g>
</g>
<g>
	<g>
		<polygon class="st0" points="406.5,380.2 397.6,380.2 420.2,329.1 429.1,329.1 		"/>
	</g>
</g>
<g>
	<g>
		<polygon class="st0" points="417.2,380.2 408.3,380.2 431,329.1 439.8,329.1 		"/>
	</g>
</g>
<g>
	<g>
		<polygon class="st0" points="427.8,380.2 418.9,380.2 441.6,329.1 450.4,329.1 		"/>
	</g>
</g>
<g>
	<g>
		<polygon class="st0" points="438.5,380.2 429.6,380.2 452.3,329.1 461.1,329.1 		"/>
	</g>
</g>
<g>
	<g>
		<polygon class="st0" points="449.1,380.2 440.2,380.2 462.9,329.1 471.8,329.1 		"/>
	</g>
</g>
<g>
	<g>
		<polygon class="st0" points="459.8,380.2 450.9,380.2 473.6,329.1 482.5,329.1 		"/>
	</g>
</g>
<g>
	<g>
		<polygon class="st0" points="470.4,380.2 461.6,380.2 484.2,329.1 493.1,329.1 		"/>
	</g>
</g>
<g>
	<g>
		<polygon class="st0" points="481.1,380.2 472.3,380.2 494.9,329.1 503.8,329.1 		"/>
	</g>
</g>
<g>
	<g>
		<polygon class="st0" points="491.7,380.2 482.9,380.2 505.5,329.1 514.4,329.1 		"/>
	</g>
</g>
<g class="st1">
	<g>
		<polygon class="st0" points="502.5,380.2 493.6,380.2 516.2,329.1 525.1,329.1 		"/>
	</g>
</g>
<g class="st1">
	<g>
		<polygon class="st0" points="513.1,380.2 504.2,380.2 526.8,329.1 535.7,329.1 		"/>
	</g>
</g>
<g class="st1">
	<g>
		<polygon class="st0" points="523.8,380.2 514.9,380.2 537.5,329.1 546.4,329.1 		"/>
	</g>
</g>
<g class="st1">
	<g>
		<polygon class="st0" points="534.4,380.2 525.5,380.2 548.1,329.1 557,329.1 		"/>
	</g>
</g>
<g class="st1">
	<g>
		<polygon class="st0" points="545.1,380.2 536.2,380.2 558.8,329.1 567.7,329.1 		"/>
	</g>
</g>
<g class="st1">
	<g>
		<polygon class="st0" points="555.7,380.2 546.8,380.2 569.5,329.1 578.3,329.1 		"/>
	</g>
</g>
<g class="st1">
	<g>
		<polygon class="st0" points="566.4,380.2 557.5,380.2 580.2,329.1 589,329.1 		"/>
	</g>
</g>
<g class="st1">
	<g>
		<polygon class="st0" points="577,380.2 568.2,380.2 590.8,329.1 599.6,329.1 		"/>
	</g>
</g>
<g class="st1">
	<g>
		<polygon class="st0" points="587.7,380.2 578.8,380.2 601.5,329.1 610.3,329.1 		"/>
	</g>
</g>
<g class="st1">
	<g>
		<polygon class="st0" points="598.3,380.2 589.5,380.2 612.1,329.1 621,329.1 		"/>
	</g>
</g>
<g class="st1">
	<g>
		<polygon class="st0" points="609,380.2 600.1,380.2 622.8,329.1 631.7,329.1 		"/>
	</g>
</g>
<g class="st1">
	<g>
		<polygon class="st0" points="619.7,380.2 610.9,380.2 633.5,329.1 642.3,329.1 		"/>
	</g>
</g>
<g class="st1">
	<g>
		<polygon class="st0" points="630.3,380.2 621.5,380.2 644.1,329.1 653,329.1 		"/>
	</g>
</g>
<g class="st1">
	<g>
		<path class="st0" d="M662.2,332.5L641,380.3l0,0h-8.9l0,0l22.4-50.6C657.3,330.1,659.8,331.1,662.2,332.5z"/>
	</g>
</g>
<g class="st1">
	<g>
		<path class="st0" d="M669.9,339l-18.2,41l-0.1,0.1h-8.9l0,0l20.7-47C666,334.9,668.1,336.8,669.9,339z"/>
	</g>
</g>
<g class="st1">
	<g>
		<path class="st0" d="M675,351.5l-10.7,24c-3.1,2.2-6.9,3.8-10.8,4.4l17.4-39.3C673.1,343.9,674.6,347.6,675,351.5z"/>
	</g>
</g>
<g class="st1">
	<g>
		<path class="st0" d="M675.2,354.7c0,7.7-3.4,14.6-8.8,19.3l8.8-19.8C675.2,354.2,675.2,354.5,675.2,354.7z"/>
	</g>
</g>
<path class="st0" d="M347.7,299.2h-6.4v-3h9.9v1.8l-6,20h-3.6L347.7,299.2z"/>
<path class="st0" d="M352.9,302.5c0-0.9,0.1-1.8,0.3-2.5c0.2-0.6,0.4-1.3,0.6-1.8c0.3-0.5,0.6-0.8,1-1.1c0.4-0.3,0.7-0.6,1.1-0.6
	c0.4-0.2,0.8-0.3,1.2-0.3s0.7-0.1,1.1-0.1c0.3,0,0.6,0,1,0.1s0.7,0.2,1.2,0.3c0.4,0.2,0.7,0.4,1.1,0.6c0.4,0.3,0.7,0.6,1,1.1
	c0.3,0.5,0.6,1,0.6,1.8c0.2,0.7,0.3,1.6,0.3,2.5v9.2c0,0.9-0.1,1.8-0.3,2.5c-0.2,0.6-0.4,1.3-0.6,1.8c-0.3,0.5-0.6,0.8-1,1.2
	c-0.4,0.3-0.7,0.6-1.1,0.7c-0.4,0.2-0.7,0.3-1.2,0.4c-0.4,0.1-0.7,0.1-1,0.1c-0.4,0-0.7,0-1.1-0.1c-0.4-0.1-0.8-0.2-1.2-0.4
	c-0.4-0.2-0.7-0.4-1.1-0.6c-0.4-0.3-0.7-0.6-1-1.2c-0.3-0.5-0.5-1.1-0.6-1.8c-0.2-0.7-0.3-1.5-0.3-2.5V302.5z M356.3,313.2
	c0,0.9,0.2,1.6,0.5,1.9c0.4,0.4,0.8,0.6,1.5,0.6s1.1-0.2,1.5-0.6c0.3-0.4,0.5-1,0.5-1.9v-11.8c0-0.9-0.2-1.7-0.5-2
	c-0.3-0.5-0.8-0.6-1.5-0.6s-1.2,0.2-1.5,0.6c-0.4,0.5-0.5,1.1-0.5,2V313.2z"/>
<path class="st0" d="M371.1,308.1c-0.5,0-0.9-0.1-1.5-0.2c-0.5-0.1-0.9-0.4-1.3-0.8c-0.4-0.4-0.7-0.9-0.9-1.7
	c-0.3-0.7-0.4-1.7-0.4-2.9v-1.4c0-0.7,0.1-1.5,0.2-2c0.1-0.6,0.3-1,0.5-1.5c0.2-0.4,0.5-0.7,0.7-0.9c0.3-0.3,0.6-0.5,0.8-0.6
	c0.3-0.1,0.6-0.2,0.9-0.3s0.6-0.1,0.9-0.1s0.6,0,0.9,0.1c0.3,0.1,0.6,0.1,0.9,0.3c0.3,0.1,0.6,0.4,0.8,0.6c0.3,0.3,0.6,0.6,0.7,0.9
	c0.2,0.4,0.4,0.9,0.5,1.5c0.1,0.6,0.2,1.2,0.2,2v1.4c0,1.2-0.1,2.1-0.4,2.9c-0.3,0.7-0.6,1.3-1,1.7c-0.4,0.4-0.8,0.6-1.3,0.8
	C371.9,308,371.5,308.1,371.1,308.1z M371.1,306c0.6,0,0.9-0.3,1.1-0.7c0.2-0.5,0.3-1.2,0.3-2.1v-2.5c0-1-0.1-1.7-0.3-2.2
	c-0.2-0.5-0.6-0.7-1.1-0.7s-0.9,0.3-1.2,0.7c-0.2,0.5-0.4,1.2-0.4,2.2v2.5c0,1,0.1,1.7,0.4,2.1C370.1,305.8,370.5,306,371.1,306z
	 M378.7,296h2.3l-5.8,22h-2.3L378.7,296z M378.8,311.4c0-1.2,0.1-2.1,0.4-2.8c0.3-0.7,0.6-1.2,1-1.6c0.4-0.4,0.8-0.6,1.3-0.7
	c0.5-0.1,0.9-0.2,1.4-0.2c0.3,0,0.6,0,0.9,0.1c0.3,0.1,0.6,0.1,0.9,0.3c0.3,0.1,0.6,0.4,0.8,0.6c0.3,0.3,0.5,0.6,0.7,0.9
	c0.2,0.4,0.4,0.9,0.5,1.5c0.1,0.6,0.2,1.2,0.2,2v1.4c0,0.7-0.1,1.5-0.2,2c-0.1,0.6-0.3,1.1-0.5,1.5c-0.2,0.4-0.5,0.7-0.7,1
	c-0.3,0.3-0.6,0.5-0.8,0.6c-0.3,0.2-0.6,0.3-0.9,0.3c-0.3,0.1-0.6,0.1-0.9,0.1c-0.3,0-0.6,0-1-0.1s-0.6-0.2-0.9-0.3
	c-0.3-0.2-0.6-0.4-0.8-0.6c-0.3-0.3-0.5-0.6-0.6-1c-0.2-0.4-0.4-0.9-0.5-1.5c-0.1-0.6-0.2-1.3-0.2-2L378.8,311.4L378.8,311.4z
	 M381.4,313.3c0,1,0.1,1.7,0.4,2.1c0.2,0.5,0.6,0.6,1.2,0.6c0.6,0,0.9-0.2,1.1-0.6c0.2-0.5,0.3-1.2,0.3-2.1v-2.5
	c0-1-0.1-1.7-0.3-2.2c-0.2-0.5-0.6-0.7-1.1-0.7c-0.6,0-0.9,0.3-1.2,0.7c-0.2,0.5-0.4,1.2-0.4,2.2V313.3z"/>
</svg>
