<?xml version="1.0" encoding="utf-8"?>
<!-- Generator: Adobe Illustrator 28.0.0, SVG Export Plug-In . SVG Version: 6.00 Build 0)  -->
<svg version="1.1" id="Layer_1" xmlns:xodm="http://www.corel.com/coreldraw/odm/2003"
	 xmlns="http://www.w3.org/2000/svg" xmlns:xlink="http://www.w3.org/1999/xlink" x="0px" y="0px" viewBox="0 0 720 720"
	 style="enable-background:new 0 0 720 720;" xml:space="preserve">
<style type="text/css">
	.st0{fill-rule:evenodd;clip-rule:evenodd;fill:#C10C0C;}
	.st1{fill-rule:evenodd;clip-rule:evenodd;fill:#FFFFFF;}
</style>
<path class="st0" d="M568.2,703.1H151.8c-22.6,0-40.9-18.3-40.9-40.9V57.8c0-22.6,18.3-40.9,40.9-40.9h416.5
	c22.6,0,40.9,18.3,40.9,40.9v604.4C609,684.8,590.8,703.1,568.2,703.1z"/>
<path class="st1" d="M566,38.2H154c-12.3,0-22.2,9.9-22.2,22.2v599.2c0,12.3,9.9,22.2,22.2,22.2h412c12.3,0,22.2-9.9,22.2-22.2V60.4
	C588.2,48.1,578.2,38.2,566,38.2z M582,658.1c0,10.2-8.3,18.5-18.5,18.5h-407c-10.2,0-18.5-8.3-18.5-18.5V61.9
	c0-10.2,8.3-18.5,18.5-18.5h407c10.2,0,18.5,8.3,18.5,18.5V658.1z"/>
<path class="st1" d="M566,43.2H155.2c-10,0-18,6.6-18,14.9V185H584V58.1C584.1,49.8,576,43.2,566,43.2z"/>
<path d="M147.1,145.7l-9.1-9.1v-54l9.1-9.1h40.6l9.1,9.1v18h-18v-9.1h-22.6v36.1h22.6v-9.1h18v18l-9.1,9.1H147.1z"/>
<path d="M231.2,98.5l-14.8,47.1h-17.5l22.6-71.8h19.4l22.6,71.8H246L231.2,98.5z"/>
<path d="M285.6,73.8v54h22.5v-54h18v62.9l-9.1,9.1h-40.5l-9.1-9.1V73.8H285.6z"/>
<path d="M354.7,91.7h-21.1v-18h58.4v18h-19.4v54h-17.9v-54H354.7z"/>
<path d="M418.1,73.8v72h-18v-72H418.1z"/>
<path d="M434.7,145.7l-9.1-9.1v-54l9.1-9.1h40.5l9.1,9.1v54l-9.1,9.1H434.7z M443.8,91.7v36h22.5v-36H443.8z"/>
<path d="M492.8,73.8h16.5l28.5,48.7V73.8h18v72h-20.9l-23.9-41.1v41.1h-18v-72H492.8z"/>
<path d="M584,73.8v49.5h-18V73.8H584z M584,127.7v18h-18v-18H584z"/>
<polygon points="390.4,215 328.5,215 337.3,523.5 381.6,523.5 "/>
<circle cx="359.7" cy="603.2" r="40.1"/>
</svg>
