<?xml version="1.0" encoding="utf-8"?>
<!-- Generator: Adobe Illustrator 28.0.0, SVG Export Plug-In . SVG Version: 6.00 Build 0)  -->
<svg version="1.1" id="Layer_1" xmlns:xodm="http://www.corel.com/coreldraw/odm/2003"
	 xmlns="http://www.w3.org/2000/svg" xmlns:xlink="http://www.w3.org/1999/xlink" x="0px" y="0px" viewBox="0 0 720 720"
	 style="enable-background:new 0 0 720 720;" xml:space="preserve">
<style type="text/css">
	.st0{fill-rule:evenodd;clip-rule:evenodd;fill:#C10C0C;}
	.st1{fill-rule:evenodd;clip-rule:evenodd;fill:#FFFFFF;}
</style>
<circle class="st0" cx="360" cy="360" r="343.5"/>
<path class="st1" d="M360,37.3C181.8,37.3,37.3,181.8,37.3,360S181.8,682.7,360,682.7S682.7,538.2,682.7,360S538.2,37.3,360,37.3z
	 M360,674.8c-174.8,0-316.4-141.6-316.4-316.4S185.2,41.9,360,41.9s316.4,141.7,316.4,316.5S534.8,674.8,360,674.8z"/>
<path class="st1" d="M233.5,213.7c-0.5,56.8-8.3,212.6-1.4,274.2c3.2,29,9.3,49,32.7,67c28.9,22.3,65.4,17.4,99.6,17.5
	c38.6,0.1,71.5,1.2,90-37.7c22.7-47.8,82.3-194,93.2-221.2c-11.6-19.1-47.7-15-58.3,11.2c-11.7,23.7-35.4,82.4-40.9,94.2
	c-0.6-5.9,0.5-48.3,0.5-96.7c0-51.3-0.1-105.4-0.1-155.2c0-30.3-46.8-29.9-47,0c-0.5,51.3-0.4,103.9,0,155.2c-2.4,0-6.1,0-9.6,0
	c-0.1-60.7,0.5-126.1-0.1-185.5c0.1-27.6-46.7-27.7-46.6,0.1c-0.6,61,0.5,123.9,0,185.5c-1.5,0-8.9,0-9.2,0
	c-0.3-52.9,0.2-113-0.2-155.2c0.3-30.3-46.3-30.2-46.1-0.2c-0.5,51.9-0.5,103-0.2,155.3c-1,0-7.5,0-9.4,0c0-6.7,0.5-79-0.1-106.6
	C280.4,182.7,233.6,184.9,233.5,213.7L233.5,213.7z"/>
</svg>
