<?xml version="1.0" encoding="utf-8"?>
<!-- Generator: Adobe Illustrator 28.0.0, SVG Export Plug-In . SVG Version: 6.00 Build 0)  -->
<svg version="1.1" id="Layer_1" xmlns:xodm="http://www.corel.com/coreldraw/odm/2003"
	 xmlns="http://www.w3.org/2000/svg" xmlns:xlink="http://www.w3.org/1999/xlink" x="0px" y="0px" viewBox="0 0 720 720"
	 style="enable-background:new 0 0 720 720;" xml:space="preserve">
<path d="M373.4,349.4c0,0,0-107.1,0.4-156.5c0-1.5,1.2-3.6,2.4-4.5c4.3-3.1,8.6-6.2,13.3-8.6c3.7-1.9,4.1-4.2,3.5-7.8
	c-5.1-31.1-19.8-117.3-19.8-117.3s-22.4,148.1-33.7,222.9c-44-28.9-130.9-86-130.9-86l83.2,123.3l-240,35.8l0.1,1.2l143,19.5
	l-12.3-21.9H373.4l-51.9-25.9l-6.8-5.6l-58-77.7L373.4,349.4z M482.7,466.1L405,408l-5.6-6.8l-25.9-51.9v190.8l-21.9-12.3l19.5,143
	l1.2,0.1L408,431l123.3,83.2c0,0-57.1-86.8-86-130.9c74.8-11.3,222.9-33.7,222.9-33.7s-86.2-14.7-117.3-19.8
	c-3.6-0.6-5.9-0.2-7.8,3.5c-2.4,4.7-5.5,9.1-8.6,13.3c-0.9,1.3-3,2.4-4.5,2.4c-49.5,0.3-156.5,0.4-156.5,0.4L482.7,466.1z
	 M208.8,510.8l0.6,0.7l1.4-0.6l122.5-80.4l4.4-4l8.6-24.4l-87.3,59l114.5-111.6l-16.3,7.2l-58.5,23.5l-7.8,5.9L208.8,510.8z
	 M410,266.7l-5.9,7.8l-23.5,58.5l-7.2,16.3l111.6-114.5l-59,87.3l24.4-8.6l4-4.4l80.4-122.5l0.6-1.4l-0.7-0.6L410,266.7z"/>
</svg>
