<?xml version="1.0" encoding="utf-8"?>
<!-- Generator: Adobe Illustrator 28.0.0, SVG Export Plug-In . SVG Version: 6.00 Build 0)  -->
<svg version="1.1" id="Layer_1" xmlns:xodm="http://www.corel.com/coreldraw/odm/2003"
	 xmlns="http://www.w3.org/2000/svg" xmlns:xlink="http://www.w3.org/1999/xlink" x="0px" y="0px" viewBox="0 0 720 720"
	 style="enable-background:new 0 0 720 720;" xml:space="preserve">
<style type="text/css">
	.st0{fill:#F6B24A;}
	.st1{opacity:0.5;}
</style>
<circle class="st0" cx="77.6" cy="356.6" r="23.4"/>
<circle class="st0" cx="357.9" cy="76.3" r="38.9"/>
<g class="st1">
	<circle class="st0" cx="193.1" cy="129.8" r="38.9"/>
</g>
<circle class="st0" cx="91.3" cy="270" r="38.9"/>
<circle class="st0" cx="91.3" cy="443.2" r="38.9"/>
<circle class="st0" cx="193.1" cy="583.4" r="38.9"/>
<circle class="st0" cx="357.9" cy="637" r="38.9"/>
<circle class="st0" cx="522.7" cy="583.4" r="38.9"/>
<circle class="st0" cx="624.5" cy="443.2" r="38.9"/>
<circle class="st0" cx="624.5" cy="270" r="38.9"/>
<circle class="st0" cx="522.7" cy="129.8" r="38.9"/>
<g class="st1">
	<circle class="st0" cx="271.3" cy="90" r="23.4"/>
</g>
<circle class="st0" cx="131.1" cy="191.8" r="23.4"/>
<circle class="st0" cx="131.1" cy="521.4" r="23.4"/>
<circle class="st0" cx="271.3" cy="623.2" r="23.4"/>
<circle class="st0" cx="444.5" cy="623.2" r="23.4"/>
<circle class="st0" cx="584.7" cy="521.4" r="23.4"/>
<circle class="st0" cx="638.2" cy="356.6" r="23.4"/>
<circle class="st0" cx="584.7" cy="191.8" r="23.4"/>
<circle class="st0" cx="444.5" cy="90" r="23.4"/>
<path class="st0" d="M267.6,387.4c0,6.6-0.6,12.2-1.8,16.9c-1.2,4.7-2.7,8.6-4.7,11.8c-2,3.2-4.2,5.7-6.7,7.6
	c-2.5,1.9-5.1,3.3-7.7,4.3c-2.7,1-5.3,1.6-7.9,1.9c-2.6,0.3-5,0.4-7.2,0.4c-5.9,0-11-0.7-15.2-2.2c-4.2-1.5-7.6-3.5-10.2-5.9
	c-2.6-2.5-4.6-5.4-5.8-8.7c-1.2-3.3-1.8-6.8-1.8-10.4c0-2,0.2-4.1,0.5-6.4c0.4-2.3,0.9-4.7,1.7-7h16.5v3.1c0,4.4,0.3,7.9,0.8,10.6
	c0.6,2.7,1.4,4.9,2.6,6.5c1.2,1.6,2.6,2.7,4.4,3.3c1.8,0.6,3.9,0.9,6.4,0.9c4.5,0,7.9-1.6,10.3-4.9c2.4-3.3,3.6-8.5,3.6-15.7v-26.3
	c-2.1,2.3-4.9,4.3-8.2,5.9c-3.3,1.6-7.3,2.4-11.8,2.4c-3.2,0-6.5-0.5-9.9-1.5c-3.3-1-6.4-2.9-9.1-5.5c-2.7-2.7-5-6.2-6.7-10.8
	c-1.7-4.5-2.6-10.4-2.6-17.5v-13.9c0-7.6,0.8-14,2.4-19.3c1.6-5.3,3.9-9.5,6.8-12.8c3-3.3,6.5-5.6,10.7-7.1c4.2-1.5,8.8-2.2,14-2.2
	c5.9,0,11,0.7,15.5,2.2c4.5,1.5,8.3,3.9,11.4,7.2c3.1,3.3,5.4,7.8,7,13.2c1.6,5.5,2.4,12.2,2.4,20.2V387.4z M245.6,318.1
	c0-3.2-0.3-6-0.8-8.2c-0.6-2.3-1.4-4.1-2.6-5.4c-1.1-1.4-2.6-2.4-4.4-3c-1.8-0.6-3.9-0.9-6.4-0.9c-4.3,0-7.5,1.5-9.5,4.6
	c-2,3.1-3,7.7-3,13.8v21.9c0,3.5,0.3,6.4,0.9,8.7c0.6,2.3,1.5,4.2,2.6,5.7c1.1,1.4,2.5,2.4,4,3.1c1.6,0.6,3.3,0.9,5.3,0.9
	c1.5,0,2.9-0.2,4.3-0.7c1.4-0.4,2.6-1,3.8-1.8c1.2-0.7,2.2-1.6,3.2-2.5c0.9-1,1.8-1.9,2.5-2.8V318.1z"/>
<path class="st0" d="M286,327c0-6.2,0.6-11.6,1.7-16.2s2.7-8.4,4.5-11.5c1.9-3.1,4-5.6,6.5-7.5c2.5-1.9,5-3.4,7.6-4.4
	c2.6-1,5.2-1.7,7.8-2.1c2.6-0.3,5-0.5,7.2-0.5c2.1,0,4.4,0.2,6.9,0.5s5.1,1,7.7,1.9c2.6,1,5.1,2.4,7.5,4.3c2.4,1.9,4.6,4.4,6.5,7.5
	c1.9,3.1,3.4,7,4.5,11.5c1.1,4.6,1.7,10,1.7,16.4v60.4c0,6.3-0.6,11.7-1.7,16.2c-1.1,4.5-2.7,8.4-4.6,11.6c-1.9,3.2-4.1,5.8-6.5,7.7
	c-2.5,2-5,3.5-7.5,4.6c-2.6,1.1-5.1,1.8-7.7,2.2s-4.8,0.6-6.8,0.6c-2.2,0-4.7-0.2-7.3-0.6s-5.2-1.1-7.9-2.2
	c-2.6-1.1-5.2-2.6-7.6-4.6c-2.4-2-4.6-4.5-6.4-7.7c-1.8-3.2-3.3-7.1-4.4-11.6c-1.1-4.6-1.7-10-1.7-16.2V327z M308.2,396.6
	c0,5.9,1.1,10.2,3.2,12.9s5.4,4,9.8,4c4.3,0,7.5-1.3,9.6-4c2.1-2.7,3.2-7,3.2-12.9v-77.4c0-6.2-1.1-10.8-3.2-13.6
	c-2.1-2.8-5.3-4.3-9.6-4.3c-4.4,0-7.7,1.4-9.8,4.3c-2.2,2.8-3.2,7.4-3.2,13.6V396.6z"/>
<path class="st0" d="M405,363.4c-3.2,0-6.4-0.4-9.6-1.3c-3.2-0.9-6.1-2.6-8.7-5.2c-2.6-2.6-4.7-6.3-6.3-11.1
	c-1.6-4.8-2.4-11-2.4-18.8v-9c0-5.1,0.4-9.5,1.2-13.2c0.8-3.7,1.9-6.9,3.2-9.5c1.4-2.6,2.9-4.7,4.7-6.4c1.8-1.6,3.7-2.9,5.7-3.8
	c2-0.9,4.1-1.5,6.2-1.8c2.1-0.3,4.1-0.5,6.1-0.5c1.9,0,3.9,0.2,5.9,0.5c2.1,0.3,4.1,0.9,6.1,1.8c2,0.9,3.9,2.1,5.7,3.7
	c1.8,1.6,3.3,3.7,4.7,6.3c1.3,2.6,2.4,5.8,3.2,9.5s1.2,8.2,1.2,13.3v9c0,7.6-0.9,13.9-2.6,18.6c-1.7,4.8-3.9,8.5-6.6,11.1
	c-2.7,2.6-5.6,4.4-8.7,5.3C410.7,362.9,407.7,363.4,405,363.4z M405.1,350c3.5,0,6-1.5,7.4-4.6c1.4-3,2.1-7.8,2.1-14.2v-16.2
	c0-6.5-0.7-11.2-2.1-14.3c-1.4-3.1-3.9-4.6-7.4-4.6c-3.7,0-6.3,1.5-7.7,4.6c-1.5,3.1-2.2,7.8-2.2,14.3v16.2c0,6.4,0.7,11.2,2.2,14.2
	C398.9,348.5,401.4,350,405.1,350z M455.7,284.6h15.2l-38.4,144.6h-15.2L455.7,284.6z M455.9,385c0-7.6,0.8-13.8,2.6-18.4
	c1.7-4.6,3.9-8.1,6.5-10.6c2.7-2.5,5.6-4.1,8.7-4.9c3.2-0.8,6.3-1.2,9.2-1.2c1.9,0,3.9,0.2,5.9,0.5c2.1,0.3,4.1,0.9,6.1,1.8
	c2,0.9,3.9,2.1,5.7,3.7c1.8,1.6,3.3,3.7,4.7,6.3c1.3,2.6,2.4,5.8,3.2,9.5c0.8,3.7,1.2,8.2,1.2,13.3v9c0,5.1-0.4,9.6-1.2,13.4
	c-0.8,3.8-1.9,7-3.3,9.7c-1.4,2.7-2.9,4.9-4.7,6.6c-1.8,1.7-3.7,3.1-5.7,4.1c-2,1-4,1.7-6.1,2c-2.1,0.4-4,0.5-5.9,0.5
	c-2.1,0-4.3-0.2-6.4-0.5c-2.2-0.4-4.2-1-6.2-2c-2-0.9-3.9-2.3-5.6-4c-1.8-1.7-3.3-3.9-4.6-6.6c-1.3-2.7-2.3-5.9-3.1-9.8
	c-0.8-3.8-1.1-8.3-1.1-13.5V385z M473,398.4c0,6.4,0.7,11.1,2.2,14.2c1.5,3,4.1,4.6,7.7,4.6c3.5,0,6-1.5,7.4-4.6
	c1.4-3,2.1-7.8,2.1-14.2v-16.2c0-6.5-0.7-11.2-2.1-14.3c-1.4-3.1-3.9-4.6-7.4-4.6c-3.7,0-6.3,1.5-7.7,4.6c-1.5,3.1-2.2,7.8-2.2,14.3
	V398.4z"/>
</svg>
