<?xml version="1.0" encoding="utf-8"?>
<!-- Generator: Adobe Illustrator 28.0.0, SVG Export Plug-In . SVG Version: 6.00 Build 0)  -->
<svg version="1.1" id="Layer_1" xmlns:xodm="http://www.corel.com/coreldraw/odm/2003"
	 xmlns="http://www.w3.org/2000/svg" xmlns:xlink="http://www.w3.org/1999/xlink" x="0px" y="0px" viewBox="0 0 720 720"
	 style="enable-background:new 0 0 720 720;" xml:space="preserve">
<style type="text/css">
	.st0{fill-rule:evenodd;clip-rule:evenodd;fill:#D5EFFD;stroke:#D5EFFD;stroke-miterlimit:10;}
	.st1{fill-rule:evenodd;clip-rule:evenodd;fill:#21B4F9;stroke:#21B4F9;stroke-miterlimit:10;}
	.st2{fill:#21B4F9;stroke:#21B4F9;stroke-miterlimit:10;}
</style>
<path class="st0" d="M569,362.1c0,92.8-60.6,171.4-144.3,198.6l29.7,91.3C576.7,612.3,665,497.6,665.1,362.2L569,362.1z"/>
<path class="st1" d="M360,571.2c-115.4,0-208.9-93.5-208.9-208.9S244.7,153.4,360,153.4s208.8,93.4,208.9,208.7l96,0.1
	C665,193.8,528.5,57.4,360,57.4S55.1,193.9,55.1,362.2S191.6,667.2,360,667.2c33,0,64.7-5.3,94.5-14.9L424.8,561
	C404.4,567.6,382.6,571.2,360,571.2z"/>
<path class="st2" d="M238.2,413c-5.5-2.7-9.8-6.5-12.9-11.5c-3-5-4.6-10.7-4.6-17.3v-2c0-5.9,1.6-11.5,4.7-16.7
	c3.1-5.2,7.3-9.1,12.4-11.8c-4.4-2.3-7.9-5.6-10.6-9.8c-2.7-4.3-4-8.8-4-13.6v-2.9c0-6.2,1.4-11.6,4.3-16.3c2.8-4.7,6.8-8.3,12-10.9
	s11.1-3.9,18-3.9c6.8,0,12.8,1.3,18,3.9s9.2,6.2,12,10.9c2.8,4.7,4.3,10.1,4.3,16.3v2.9c0,4.9-1.4,9.5-4.1,13.7
	c-2.7,4.3-6.3,7.5-10.8,9.7c5.2,2.7,9.4,6.7,12.6,11.8c3.2,5.2,4.8,10.7,4.8,16.6v2c0,6.6-1.5,12.3-4.6,17.3c-3,5-7.3,8.8-12.9,11.5
	c-5.5,2.7-12,4.1-19.3,4.1C250.1,417,243.7,415.6,238.2,413z M266.5,396.2c2.6-1.4,4.7-3.3,6.1-5.8s2.2-5.3,2.2-8.5v-1.1
	c0-3.1-0.7-5.9-2.2-8.3c-1.4-2.4-3.5-4.2-6.1-5.6c-2.6-1.3-5.6-2-9.1-2c-3.5,0-6.5,0.7-9.1,2s-4.6,3.2-6.1,5.6
	c-1.4,2.4-2.2,5.2-2.2,8.3v1.2c0,3.2,0.7,6,2.2,8.5c1.4,2.5,3.5,4.4,6.1,5.7c2.6,1.3,5.7,2,9.1,2
	C260.9,398.2,263.9,397.6,266.5,396.2z M265.2,344.2c2.2-1.3,4-3.1,5.2-5.5s1.8-5.1,1.8-8.2v-1.1c0-2.9-0.6-5.4-1.8-7.6
	c-1.2-2.2-3-3.9-5.2-5.1c-2.3-1.2-4.8-1.8-7.8-1.8c-2.9,0-5.5,0.6-7.8,1.8c-2.3,1.2-4,2.9-5.2,5.1s-1.8,4.8-1.8,7.7v1.2
	c0,3,0.6,5.7,1.8,8.1c1.2,2.3,3,4.1,5.2,5.4s4.8,1.9,7.8,1.9C260.4,346.2,263,345.6,265.2,344.2z"/>
<path class="st2" d="M324.5,408.1c-5.9-5.9-8.8-14.2-8.8-24.7v-53.8c0-10.6,3-18.9,8.9-24.8s14.5-8.8,25.7-8.8
	c11.3,0,19.9,2.9,25.8,8.8s8.8,14.1,8.8,24.8v53.7c0,10.6-3,18.9-8.9,24.8s-14.5,8.8-25.7,8.8C339,417,330.4,414.1,324.5,408.1z
	 M361.8,393.8c2.4-3.1,3.7-7.5,3.7-13.2v-48.1c0-5.7-1.2-10.2-3.7-13.2c-2.4-3.1-6.3-4.6-11.5-4.6s-9,1.5-11.5,4.6
	c-2.4,3.1-3.7,7.5-3.7,13.2v48.1c0,5.8,1.2,10.2,3.7,13.2s6.3,4.6,11.5,4.6C355.5,398.4,359.3,396.9,361.8,393.8z"/>
<path class="st2" d="M412.8,348.1c-3.6-3.7-5.4-8.8-5.4-15.3v-10.2c0-6.6,1.8-11.7,5.4-15.3c3.6-3.6,8.6-5.5,15.1-5.5
	c6.6,0,11.6,1.8,15.2,5.5s5.3,8.8,5.3,15.5v10c0,6.6-1.8,11.7-5.4,15.4c-3.6,3.6-8.6,5.5-15.1,5.5
	C421.4,353.6,416.4,351.8,412.8,348.1z M480.4,303h17.3l-63,118.3h-17.4L480.4,303z M431.5,337.2c0.8-1,1.3-2.5,1.3-4.4v-10.5
	c0-1.8-0.4-3.2-1.3-4.2c-0.8-1-2-1.5-3.6-1.5s-2.8,0.5-3.6,1.5s-1.3,2.4-1.3,4.3v10.4c0,2,0.4,3.4,1.3,4.4c0.8,1,2,1.5,3.6,1.5
	C429.5,338.8,430.7,338.2,431.5,337.2z M471.6,417c-3.6-3.7-5.4-8.8-5.4-15.3v-10.2c0-6.6,1.8-11.7,5.4-15.3
	c3.6-3.7,8.6-5.5,15.1-5.5c6.6,0,11.6,1.8,15.2,5.5c3.6,3.7,5.3,8.8,5.3,15.5v10c0,6.6-1.8,11.7-5.4,15.4c-3.6,3.7-8.6,5.5-15.1,5.5
	C480.2,422.5,475.2,420.6,471.6,417z M490.4,406.1c0.8-1,1.3-2.5,1.3-4.4v-10.5c0-1.8-0.4-3.2-1.3-4.2c-0.8-1-2-1.5-3.6-1.5
	s-2.8,0.5-3.6,1.5c-0.8,1-1.3,2.4-1.3,4.3v10.4c0,2,0.4,3.4,1.3,4.4c0.8,1,2,1.5,3.6,1.5C488.3,407.6,489.5,407.1,490.4,406.1z"/>
</svg>
