<?xml version="1.0" encoding="utf-8"?>
<!-- Generator: Adobe Illustrator 28.0.0, SVG Export Plug-In . SVG Version: 6.00 Build 0)  -->
<svg version="1.1" id="Layer_1" xmlns:xodm="http://www.corel.com/coreldraw/odm/2003"
	 xmlns="http://www.w3.org/2000/svg" xmlns:xlink="http://www.w3.org/1999/xlink" x="0px" y="0px" viewBox="0 0 720 720"
	 style="enable-background:new 0 0 720 720;" xml:space="preserve">
<style type="text/css">
	.st0{fill-rule:evenodd;clip-rule:evenodd;}
</style>
<path class="st0" d="M298.9,478.4c0.9-3.1,7.9-4.5,8.9-0.9c0.8,2.8-0.1,8.3,1.1,11.1c1,2.5,4.6,2.3,5.8,0.1c1.7-3.2,0.4-4.8,1.6-8.6
	c1.2-3.6,6.7-3.9,7.3,0.2c0.7,4.4-0.3,15.6,4,16.4c5,1,4.2-7,5.7-12.3c1-3.5,5.9-3.4,7.5,0c1.5,3.3-1.5,9.9,0.3,13.1
	c1.5,2.6,5.9,2.7,7.1-0.7c1.7-4.8-1.2-15.8,5.1-16.1c9.5-0.1,1.7,19.4,7.9,19.5c5.9-0.2-0.3-19.4,7.5-19.3
	c11.3,0.1,3.2,18.4,9.7,17.8c6.5,0,0.9-19.3,9.8-18.3c6.8,0.9,2.6,14.2,9.9,14.2c7.4,0.2-1.2-16.1,7.9-16.6c9.5,0.7-1,14.6,7.9,14
	c10.7,0-1.1-18.9,9.3-16.7c2,0.4,3.8,2.8,3.8,4.6c1.5,19.2-4.7,26.4-11.7,31.5c-11.8,8.6-64.9,26.5-108-2
	C299.9,504.4,295.2,491.7,298.9,478.4L298.9,478.4z"/>
<path class="st0" d="M498.9,284.3c12.6-7,37.1-23,37.1-23s17.1,19.8,37.2,7.4c5.8-3.6,9.9-8.1,12.1-14.8
	c6.1-18.7-13.8-34.8-27.5-33.7c1.1-4.3,9.7-23.8-6.8-35c-9.3-6.3-18.1-6.6-28.1-1.4c-19.4,10.1-11.7,38.5-10.2,43.5
	c-8.8,5.1-14.1,7.8-20.3,11.4c4.2,13.2,6.5,27.3,6.5,41.9C498.9,281.9,498.9,283.1,498.9,284.3L498.9,284.3z"/>
<path class="st0" d="M498.9,284.3c12.6-7,37.1-23,37.1-23s17.1,19.8,37.2,7.4c5.8-3.6,9.9-8.1,12.1-14.8
	c6.1-18.7-13.8-34.8-27.5-33.7c1.1-4.3,9.7-23.8-6.8-35c-9.3-6.3-18.1-6.6-28.1-1.4c-19.4,10.1-11.7,38.5-10.2,43.5
	c-8.8,5.1-14.1,7.8-20.3,11.4c4.2,13.2,6.5,27.3,6.5,41.9C498.9,281.9,498.9,283.1,498.9,284.3L498.9,284.3z"/>
<path class="st0" d="M224.7,284.4c-12.6-7-37.1-23-37.1-23s-17.1,19.8-37.2,7.4c-5.8-3.6-9.9-8.1-12.1-14.8
	c-6.1-18.7,13.8-34.8,27.5-33.7c-1.1-4.3-9.7-23.8,6.8-35c9.3-6.3,18.1-6.6,28.1-1.4c19.4,10.1,11.7,38.5,10.2,43.5
	c8.8,5.1,14.1,7.8,20.3,11.4c-4.2,13.2-6.5,27.3-6.5,41.9C224.6,282,224.6,283.2,224.7,284.4L224.7,284.4z"/>
<path class="st0" d="M225.4,395c-18.7,10.9-62.2,37.6-62.2,37.6s-17.1-19.8-37.2-7.4c-5.8,3.6-9.9,8.1-12.1,14.8
	c-6.1,18.7,13.8,34.8,27.5,33.7c-1.1,4.3-9.7,23.8,6.8,35c9.3,6.3,18.1,6.6,28.1,1.4c19.4-10.1,11.7-38.5,10.2-43.5
	c8.5-4.9,63.8-37.1,73.3-42.6c-17.4-3.5-36-6.6-35.8-20.4C223.9,400.4,224.5,397.6,225.4,395L225.4,395z"/>
<path class="st0" d="M499,400.1c18.7,10.9,62.2,37.6,62.2,37.6s17.1-19.8,37.2-7.4c5.8,3.6,9.9,8.1,12.1,14.8
	c6.1,18.7-13.8,34.8-27.5,33.7c1.1,4.3,9.7,23.8-6.8,35c-9.3,6.3-18.1,6.6-28.1,1.4c-19.4-10.1-11.7-38.5-10.2-43.5
	c-8.5-4.9-63.8-37.1-73.3-42.6c17.4-3.5,36-6.6,35.8-20.4C500.6,405.6,500,402.8,499,400.1L499,400.1z"/>
<path class="st0" d="M489.7,401.3c1.1-7.3-13.4-26.2-11.4-28.5c10.1-23.5,1.6-40.9,3.6-45.8c3.1-7.8,7.3-35.6,7.3-46.5
	c0-70.9-57.5-128.4-128.4-128.4s-128.4,57.5-128.4,128.4c-0.1,11.1,4.4,38.4,7.7,46.5c2,4.9-6.5,22.2,3.6,45.8
	c0.8,2-9.8,12.6-9.9,25c-0.2,21.5,44.8,17.2,60.3,28.3c4.2,3,5,5.4,5,10.1c0,10.1,0.5,27.2,1.2,29.1c1.1,3,7.7,4.3,8.7,0.9
	c0.7-2.7-0.1-8,1-10.8c1-2.4,4.5-2.2,5.6-0.1c1.6,3.1,1.9,9.4,3.2,13c1.2,3.5,6.5,3.8,7.1-0.1c0.7-4.3-1.5-11.8,2.7-12.6
	c4.8-0.9,3,11.3,4.4,16.5c1,3.4,5.8,3.3,7.3,0c1.5-3.2,0.4-10.5,2.1-13.6c1.4-2.5,5.8-2.6,6.9,0.7c1.7,4.6-1.1,15.4,4.9,15.6
	c9.2,0.1,1.6-18.8,7.7-19c5.7,0.2-0.3,18.9,7.3,18.8c8.4-0.1,1.1-17.5,9.5-17.3c6.4,0,0.9,18.8,9.6,17.8c6.7-0.8-0.1-19.9,6.9-19.9
	c7.2-0.2-1.2,15.6,7.7,16.1c9.3-0.7,0.6-18.6,9.3-18.1c7.8,0,1.2,14.8,4.9,14.8c3.8,0,7.6,0,7.8-3c0.1-1.8-0.5-15.1-1-25.3
	c-0.3-6.4-1.9-7,4.2-10C452.8,417.5,492.9,424.2,489.7,401.3z M331.5,204.4c-3.4-3.2-3.5-8.6-0.3-12c3.2-3.4,8.6-3.5,12-0.3l17,16
	l17.1-15.7c3.4-3.2,8.8-2.9,12,0.5c3.2,3.4,2.9,8.8-0.5,12l-16.2,14.9l16,15.2c3.4,3.2,3.5,8.6,0.3,12c-3.2,3.4-8.6,3.6-12,0.3
	L360,231.4l-17.2,15.8c-3.4,3.2-8.8,2.9-12-0.5c-3.1-3.5-2.9-8.9,0.5-12l16.4-15L331.5,204.4z M315.2,389.8
	c-4.9,1.9-10.3,2.9-16,2.9c-14.5,0-27.5-6.9-35.8-17.5c-6.4-8-10.3-18.1-10.3-29.2c0-25.7,20.8-46.5,46.5-46.5s46.5,20.8,46.5,46.5
	C346.1,366.2,333.2,383.4,315.2,389.8z M381.4,419.9c-8.9,3.7-30.5,3.1-37.9,0.5c-4.9-1.7-8.5-7-6.3-13.2c2.3-6.6,9.3-21.5,15.1-28
	c3-3.4,3.8-4.9,8.8-4.8c5,0,5.8,1.4,8.8,4.8c5.8,6.5,14.4,21.4,16.6,28C388.4,412.8,385.8,418.1,381.4,419.9z M424.4,392.1
	c-0.5,0-1.1,0-1.6,0c-12.9-0.3-24.5-6-32.6-15c-7.6-8.3-12.3-19.4-12.3-31.5c0-25.7,20.8-46.5,46.5-46.5s46.5,20.8,46.5,46.5
	S450.1,392.1,424.4,392.1z"/>
<path class="st0" d="M362.2,48.7c169.6,0,307,137.5,307,307s-137.5,307-307,307s-307-137.5-307-307S192.7,48.7,362.2,48.7
	L362.2,48.7z M362.2,70.2C520,70.2,647.8,198,647.8,355.8S520,641.3,362.2,641.3S76.6,513.5,76.6,355.8S204.5,70.2,362.2,70.2
	L362.2,70.2z"/>
</svg>
