<?xml version="1.0" encoding="utf-8"?>
<!-- Generator: Adobe Illustrator 28.0.0, SVG Export Plug-In . SVG Version: 6.00 Build 0)  -->
<svg version="1.1" id="Layer_1" xmlns:xodm="http://www.corel.com/coreldraw/odm/2003"
	 xmlns="http://www.w3.org/2000/svg" xmlns:xlink="http://www.w3.org/1999/xlink" x="0px" y="0px" viewBox="0 0 720 720"
	 style="enable-background:new 0 0 720 720;" xml:space="preserve">
<style type="text/css">
	.st0{opacity:0.5;}
</style>
<g>
	<path d="M661.6,358.6l-45.1-45.1L614,311H337.3l49.7,49.7l-44.9,44.8l-2.4,2.4h275.8l2.4-2.4l43.6-43.6l1.7-1.7L661.6,358.6z
		 M614.6,405.6h-269l44.8-44.8l-47.3-47.3H613l46.9,46.9L614.6,405.6z"/>
</g>
<g>
	<g>
		<polygon points="372,359.7 323.8,408 108.1,408 59.8,359.7 61.5,358 108.6,311 323.3,311 370.3,358 		"/>
	</g>
</g>
<polygon points="411.6,347.3 394,346.9 375.4,326.6 393,327 "/>
<polygon points="439.3,347.3 421.7,346.9 403.1,326.6 420.7,327 "/>
<polygon points="467,347.3 449.4,346.9 430.7,326.6 448.3,327 "/>
<polygon points="494.6,347.3 477,346.9 458.4,326.6 476,327 "/>
<polygon points="522.3,347.3 504.7,346.9 486.1,326.6 503.7,327 "/>
<polygon class="st0" points="549.5,347.3 531.9,346.9 513.3,326.6 530.9,327 "/>
<polygon class="st0" points="576.7,347.3 559.1,346.9 540.5,326.6 558.1,327 "/>
<polygon class="st0" points="604,347.3 586.4,346.9 567.7,326.6 585.3,327 "/>
<polygon class="st0" points="631.2,347.3 613.6,346.9 594.9,326.6 612.5,327 "/>
<polygon class="st0" points="486.1,392.4 503.7,392 522.3,371.7 504.7,372.1 "/>
<polygon class="st0" points="513.3,392.4 530.9,392 549.5,371.7 531.9,372.1 "/>
<polygon class="st0" points="540.5,392.4 558.1,392 576.7,371.7 559.1,372.1 "/>
<polygon class="st0" points="567.7,392.4 585.3,392 604,371.7 586.4,372.1 "/>
<polygon class="st0" points="594.9,392.4 612.5,392 631.2,371.7 613.6,372.1 "/>
<polygon class="st0" points="458.4,392.4 476,392 494.6,371.7 477,372.1 "/>
<polygon class="st0" points="430.7,392.4 448.3,392 467,371.7 449.4,372.1 "/>
<polygon points="403.1,392.4 420.7,392 439.3,371.7 421.7,372.1 "/>
<polygon points="375.4,392.4 393,392 411.6,371.7 394,372.1 "/>
</svg>
