<?xml version="1.0" encoding="utf-8"?>
<!-- Generator: Adobe Illustrator 28.0.0, SVG Export Plug-In . SVG Version: 6.00 Build 0)  -->
<svg version="1.1" id="Layer_1" xmlns:xodm="http://www.corel.com/coreldraw/odm/2003"
	 xmlns="http://www.w3.org/2000/svg" xmlns:xlink="http://www.w3.org/1999/xlink" x="0px" y="0px" viewBox="0 0 720 720"
	 style="enable-background:new 0 0 720 720;" xml:space="preserve">
<style type="text/css">
	.st0{fill:#C10C0C;}
	.st1{fill:#FFFFFF;}
</style>
<polygon points="358.3,606.3 642.7,113.7 73.8,113.7 "/>
<g>
	<g>
		<polygon class="st0" points="642.7,113.7 619.5,154.1 599.3,154.1 622.7,113.7 		"/>
	</g>
	<g>
		<polygon class="st0" points="604.6,113.7 581.2,154.1 561.1,154.1 584.4,113.7 		"/>
	</g>
	<g>
		<polygon class="st0" points="566.4,113.7 543,154.1 522.8,154.1 546.2,113.7 		"/>
	</g>
	<g>
		<polygon class="st0" points="528.2,113.7 504.8,154.1 484.7,154.1 508,113.7 		"/>
	</g>
	<g>
		<polygon class="st0" points="489.9,113.7 466.6,154.1 446.4,154.1 469.8,113.7 		"/>
	</g>
	<g>
		<polygon class="st0" points="451.8,113.7 428.3,154.1 408.2,154.1 431.5,113.7 		"/>
	</g>
	<g>
		<polygon class="st0" points="413.5,113.7 390.2,154.1 370,154.1 393.4,113.7 		"/>
	</g>
	<g>
		<polygon class="st0" points="375.3,113.7 351.9,154.1 331.8,154.1 355.1,113.7 		"/>
	</g>
	<g>
		<polygon class="st0" points="337.1,113.7 313.7,154.1 293.5,154.1 316.9,113.7 		"/>
	</g>
	<g>
		<polygon class="st0" points="298.9,113.7 275.5,154.1 255.4,154.1 278.7,113.7 		"/>
	</g>
	<g>
		<polygon class="st0" points="260.6,113.7 237.3,154.1 217.1,154.1 240.5,113.7 		"/>
	</g>
	<polygon class="st0" points="222.5,113.7 199,154.1 178.9,154.1 202.2,113.7 	"/>
	<polygon class="st0" points="184.2,113.7 160.9,154.1 140.7,154.1 164.1,113.7 	"/>
	<polygon class="st0" points="146,113.7 125.5,149.1 122.6,154.1 102.5,154.1 105.3,149.1 125.8,113.7 	"/>
	<polygon class="st0" points="107.8,113.7 90.8,143.1 80.7,125.7 87.6,113.7 	"/>
</g>
<path class="st1" d="M222.6,215.3v11.8h41.8l11.9,11.9v35.8l-11.9,11.9h-65.7V263h53.8V251h-41.8l-11.9-11.9v-35.7l11.9-11.9h65.7
	v23.9H222.6z"/>
<path class="st1" d="M314.4,215.3h-27.9v-23.9H364v23.9h-25.9v71.5h-23.7V215.3z"/>
<path class="st1" d="M385.1,286.8l-11.9-11.9v-71.5l11.9-11.9h53.6l11.9,11.9v71.5l-11.9,11.9H385.1z M397.1,215.3V263h29.7v-47.6
	H397.1z"/>
<path class="st1" d="M486,251v35.8h-23.9v-95.4h65.5l11.9,11.9v35.7L527.7,251H486z M486,215.3v11.8h29.7v-11.8H486z"/>
</svg>
