<?xml version="1.0" encoding="utf-8"?>
<!-- Generator: Adobe Illustrator 28.0.0, SVG Export Plug-In . SVG Version: 6.00 Build 0)  -->
<svg version="1.1" id="Layer_1" xmlns:xodm="http://www.corel.com/coreldraw/odm/2003"
	 xmlns="http://www.w3.org/2000/svg" xmlns:xlink="http://www.w3.org/1999/xlink" x="0px" y="0px" viewBox="0 0 720 720"
	 style="enable-background:new 0 0 720 720;" xml:space="preserve">
<style type="text/css">
	.st0{fill:#F6B24A;}
	.st1{opacity:0.5;}
</style>
<g>
	<path class="st0" d="M670.6,372.5H48.5c-5.9,0-10.7-4.8-10.7-10.7v-43c0-5.9,4.8-10.7,10.7-10.7h622.2c5.9,0,10.7,4.8,10.7,10.7v43
		C681.4,367.7,676.6,372.5,670.6,372.5z M48.5,313.4c-3,0-5.5,2.5-5.5,5.5v43c0,3,2.5,5.5,5.5,5.5h622.2c3,0,5.5-2.5,5.5-5.5v-43
		c0-3-2.5-5.5-5.5-5.5H48.5z"/>
</g>
<g>
	<g>
		<rect x="45.8" y="314.8" class="st0" width="8.6" height="51.2"/>
	</g>
</g>
<g>
	<g>
		<rect x="56.3" y="314.8" class="st0" width="8.6" height="51.2"/>
	</g>
</g>
<g>
	<g>
		<rect x="66.8" y="314.8" class="st0" width="8.6" height="51.2"/>
	</g>
</g>
<g>
	<g>
		<rect x="77.3" y="314.8" class="st0" width="8.6" height="51.2"/>
	</g>
</g>
<g>
	<g>
		<rect x="87.7" y="314.8" class="st0" width="8.6" height="51.2"/>
	</g>
</g>
<g>
	<g>
		<rect x="98.2" y="314.8" class="st0" width="8.6" height="51.2"/>
	</g>
</g>
<g class="st1">
	<g>
		<rect x="108.7" y="314.8" class="st0" width="8.6" height="51.2"/>
	</g>
</g>
<g class="st1">
	<g>
		<rect x="119.2" y="314.8" class="st0" width="8.6" height="51.2"/>
	</g>
</g>
<g class="st1">
	<g>
		<rect x="129.7" y="314.8" class="st0" width="8.6" height="51.2"/>
	</g>
</g>
<g class="st1">
	<g>
		<rect x="140.2" y="314.8" class="st0" width="8.6" height="51.2"/>
	</g>
</g>
<g class="st1">
	<g>
		<rect x="150.7" y="314.8" class="st0" width="8.6" height="51.2"/>
	</g>
</g>
<g class="st1">
	<g>
		<rect x="161.1" y="314.8" class="st0" width="8.6" height="51.2"/>
	</g>
</g>
<g class="st1">
	<g>
		<rect x="171.6" y="314.8" class="st0" width="8.6" height="51.2"/>
	</g>
</g>
<g class="st1">
	<g>
		<rect x="182.1" y="314.8" class="st0" width="8.6" height="51.2"/>
	</g>
</g>
<g class="st1">
	<g>
		<rect x="192.6" y="314.8" class="st0" width="8.6" height="51.2"/>
	</g>
</g>
<g class="st1">
	<g>
		<rect x="203.1" y="314.8" class="st0" width="8.6" height="51.2"/>
	</g>
</g>
<g class="st1">
	<g>
		<rect x="213.6" y="314.8" class="st0" width="8.6" height="51.2"/>
	</g>
</g>
<g class="st1">
	<g>
		<rect x="224.1" y="314.8" class="st0" width="8.6" height="51.2"/>
	</g>
</g>
<g class="st1">
	<g>
		<rect x="234.6" y="314.8" class="st0" width="8.6" height="51.2"/>
	</g>
</g>
<g class="st1">
	<g>
		<rect x="245" y="314.8" class="st0" width="8.6" height="51.2"/>
	</g>
</g>
<g class="st1">
	<g>
		<rect x="255.5" y="314.8" class="st0" width="8.6" height="51.2"/>
	</g>
</g>
<g class="st1">
	<g>
		<rect x="266" y="314.8" class="st0" width="8.6" height="51.2"/>
	</g>
</g>
<g class="st1">
	<g>
		<rect x="276.5" y="314.8" class="st0" width="8.6" height="51.2"/>
	</g>
</g>
<g class="st1">
	<g>
		<rect x="287" y="314.8" class="st0" width="8.6" height="51.2"/>
	</g>
</g>
<g class="st1">
	<g>
		<rect x="297.5" y="314.8" class="st0" width="8.6" height="51.2"/>
	</g>
</g>
<g class="st1">
	<g>
		<rect x="308" y="314.8" class="st0" width="8.6" height="51.2"/>
	</g>
</g>
<g class="st1">
	<g>
		<rect x="318.5" y="314.8" class="st0" width="8.6" height="51.2"/>
	</g>
</g>
<g class="st1">
	<g>
		<rect x="328.9" y="314.8" class="st0" width="8.6" height="51.2"/>
	</g>
</g>
<g class="st1">
	<g>
		<rect x="339.4" y="314.8" class="st0" width="8.6" height="51.2"/>
	</g>
</g>
<g class="st1">
	<g>
		<rect x="349.9" y="314.8" class="st0" width="8.6" height="51.2"/>
	</g>
</g>
<g class="st1">
	<g>
		<rect x="360.4" y="314.8" class="st0" width="8.6" height="51.2"/>
	</g>
</g>
<g class="st1">
	<g>
		<rect x="370.9" y="314.8" class="st0" width="8.6" height="51.2"/>
	</g>
</g>
<g class="st1">
	<g>
		<rect x="381.4" y="314.8" class="st0" width="8.6" height="51.2"/>
	</g>
</g>
<g class="st1">
	<g>
		<rect x="391.9" y="314.8" class="st0" width="8.6" height="51.2"/>
	</g>
</g>
<g class="st1">
	<g>
		<rect x="402.3" y="314.8" class="st0" width="8.6" height="51.2"/>
	</g>
</g>
<g class="st1">
	<g>
		<rect x="412.8" y="314.8" class="st0" width="8.6" height="51.2"/>
	</g>
</g>
<g class="st1">
	<g>
		<rect x="423.3" y="314.8" class="st0" width="8.6" height="51.2"/>
	</g>
</g>
<g class="st1">
	<g>
		<rect x="433.8" y="314.8" class="st0" width="8.6" height="51.2"/>
	</g>
</g>
<g class="st1">
	<g>
		<rect x="444.3" y="314.8" class="st0" width="8.6" height="51.2"/>
	</g>
</g>
<g class="st1">
	<g>
		<rect x="454.8" y="314.8" class="st0" width="8.6" height="51.2"/>
	</g>
</g>
<g class="st1">
	<g>
		<rect x="465.3" y="314.8" class="st0" width="8.6" height="51.2"/>
	</g>
</g>
<g class="st1">
	<g>
		<rect x="475.8" y="314.8" class="st0" width="8.6" height="51.2"/>
	</g>
</g>
<g class="st1">
	<g>
		<rect x="486.2" y="314.8" class="st0" width="8.6" height="51.2"/>
	</g>
</g>
<g class="st1">
	<g>
		<rect x="496.7" y="314.8" class="st0" width="8.6" height="51.2"/>
	</g>
</g>
<g class="st1">
	<g>
		<rect x="507.2" y="314.8" class="st0" width="8.6" height="51.2"/>
	</g>
</g>
<g class="st1">
	<g>
		<rect x="517.7" y="314.8" class="st0" width="8.6" height="51.2"/>
	</g>
</g>
<g class="st1">
	<g>
		<rect x="528.2" y="314.8" class="st0" width="8.6" height="51.2"/>
	</g>
</g>
<g class="st1">
	<g>
		<rect x="538.7" y="314.8" class="st0" width="8.6" height="51.2"/>
	</g>
</g>
<g class="st1">
	<g>
		<rect x="549.2" y="314.8" class="st0" width="8.6" height="51.2"/>
	</g>
</g>
<g class="st1">
	<g>
		<rect x="559.7" y="314.8" class="st0" width="8.6" height="51.2"/>
	</g>
</g>
<g class="st1">
	<g>
		<rect x="570.1" y="314.8" class="st0" width="8.6" height="51.2"/>
	</g>
</g>
<g class="st1">
	<g>
		<rect x="580.6" y="314.8" class="st0" width="8.6" height="51.2"/>
	</g>
</g>
<g class="st1">
	<g>
		<rect x="591.1" y="314.8" class="st0" width="8.6" height="51.2"/>
	</g>
</g>
<g class="st1">
	<g>
		<rect x="601.6" y="314.8" class="st0" width="8.6" height="51.2"/>
	</g>
</g>
<g class="st1">
	<g>
		<rect x="612.1" y="314.8" class="st0" width="8.6" height="51.2"/>
	</g>
</g>
<g class="st1">
	<g>
		<rect x="622.6" y="314.8" class="st0" width="8.6" height="51.2"/>
	</g>
</g>
<g class="st1">
	<g>
		<rect x="633.1" y="314.8" class="st0" width="8.6" height="51.2"/>
	</g>
</g>
<g class="st1">
	<g>
		<rect x="643.6" y="314.8" class="st0" width="8.6" height="51.2"/>
	</g>
</g>
<g class="st1">
	<g>
		<rect x="654.1" y="314.8" class="st0" width="8.6" height="51.2"/>
	</g>
</g>
<g class="st1">
	<g>
		<rect x="664.6" y="314.8" class="st0" width="8.6" height="51.2"/>
	</g>
</g>
<path class="st0" d="M341.3,300.5h2.5v-14.9l-2.7,2.4l-1.4-1.7l5-5.2h2.5l0,0l0,0v19.3h2.5v2.5h-8.3v-2.4H341.3z"/>
<path class="st0" d="M351.3,287.4c0-1,0.1-1.8,0.3-2.5c0.2-0.7,0.4-1.3,0.7-1.8c0.3-0.5,0.6-0.9,1-1.1c0.4-0.3,0.8-0.5,1.2-0.7
	c0.4-0.2,0.8-0.3,1.2-0.3c0.4-0.1,0.8-0.1,1.1-0.1c0.3,0,0.7,0,1.1,0.1c0.4,0,0.8,0.1,1.2,0.3c0.4,0.1,0.8,0.4,1.2,0.7
	c0.4,0.3,0.7,0.7,1,1.1c0.3,0.5,0.5,1.1,0.7,1.8c0.2,0.7,0.3,1.5,0.3,2.5v9.2c0,1-0.1,1.8-0.3,2.5c-0.2,0.7-0.4,1.3-0.7,1.8
	c-0.3,0.5-0.6,0.9-1,1.2c-0.4,0.3-0.8,0.5-1.1,0.7c-0.4,0.2-0.8,0.3-1.2,0.3c-0.4,0.1-0.7,0.1-1,0.1s-0.7,0-1.1-0.1
	s-0.8-0.2-1.2-0.3c-0.4-0.2-0.8-0.4-1.2-0.7c-0.4-0.3-0.7-0.7-1-1.2s-0.5-1.1-0.7-1.8c-0.2-0.7-0.3-1.5-0.3-2.5v-9.2H351.3z
	 M354.7,298c0,0.9,0.2,1.6,0.5,2s0.8,0.6,1.5,0.6s1.1-0.2,1.5-0.6c0.3-0.4,0.5-1.1,0.5-2v-11.8c0-1-0.2-1.6-0.5-2.1
	c-0.3-0.4-0.8-0.7-1.5-0.7s-1.2,0.2-1.5,0.7c-0.3,0.4-0.5,1.1-0.5,2.1V298z"/>
<path class="st0" d="M369.5,292.9c-0.5,0-1-0.1-1.5-0.2s-0.9-0.4-1.3-0.8s-0.7-1-1-1.7c-0.2-0.7-0.4-1.7-0.4-2.9V286
	c0-0.8,0.1-1.4,0.2-2s0.3-1,0.5-1.5c0.2-0.4,0.4-0.7,0.7-1s0.6-0.4,0.9-0.6c0.3-0.1,0.6-0.2,0.9-0.3c0.3-0.1,0.6-0.1,0.9-0.1
	s0.6,0,0.9,0.1c0.3,0,0.6,0.1,0.9,0.3c0.3,0.1,0.6,0.3,0.9,0.6c0.3,0.2,0.5,0.6,0.7,1s0.4,0.9,0.5,1.5s0.2,1.2,0.2,2v1.4
	c0,1.2-0.1,2.1-0.4,2.8c-0.3,0.7-0.6,1.3-1,1.7c-0.4,0.4-0.8,0.7-1.3,0.8C370.3,292.9,369.9,292.9,369.5,292.9z M369.5,290.9
	c0.5,0,0.9-0.2,1.1-0.7s0.3-1.2,0.3-2.2v-2.5c0-1-0.1-1.7-0.3-2.2c-0.2-0.5-0.6-0.7-1.1-0.7c-0.6,0-1,0.2-1.2,0.7s-0.3,1.2-0.3,2.2
	v2.5c0,1,0.1,1.7,0.3,2.2C368.5,290.7,368.9,290.9,369.5,290.9z M377.2,280.9h2.3l-5.9,22.1h-2.3L377.2,280.9z M377.2,296.3
	c0-1.2,0.1-2.1,0.4-2.8c0.3-0.7,0.6-1.2,1-1.6s0.9-0.6,1.3-0.8c0.5-0.1,1-0.2,1.4-0.2c0.3,0,0.6,0,0.9,0.1c0.3,0,0.6,0.1,0.9,0.3
	c0.3,0.1,0.6,0.3,0.9,0.6c0.3,0.2,0.5,0.6,0.7,1s0.4,0.9,0.5,1.5s0.2,1.2,0.2,2v1.4c0,0.8-0.1,1.5-0.2,2c-0.1,0.6-0.3,1.1-0.5,1.5
	s-0.4,0.7-0.7,1c-0.3,0.3-0.6,0.5-0.9,0.6c-0.3,0.2-0.6,0.3-0.9,0.3c-0.3,0.1-0.6,0.1-0.9,0.1s-0.6,0-1-0.1s-0.6-0.2-0.9-0.3
	c-0.3-0.1-0.6-0.3-0.9-0.6c-0.3-0.3-0.5-0.6-0.7-1s-0.4-0.9-0.5-1.5s-0.2-1.3-0.2-2.1v-1.4H377.2z M379.8,298.3c0,1,0.1,1.7,0.3,2.2
	c0.2,0.5,0.6,0.7,1.2,0.7c0.5,0,0.9-0.2,1.1-0.7s0.3-1.2,0.3-2.2v-2.5c0-1-0.1-1.7-0.3-2.2c-0.2-0.5-0.6-0.7-1.1-0.7
	c-0.6,0-1,0.2-1.2,0.7s-0.3,1.2-0.3,2.2V298.3z"/>
</svg>
