<?xml version="1.0" encoding="utf-8"?>
<!-- Generator: Adobe Illustrator 28.0.0, SVG Export Plug-In . SVG Version: 6.00 Build 0)  -->
<svg version="1.1" id="Layer_1" xmlns:xodm="http://www.corel.com/coreldraw/odm/2003"
	 xmlns="http://www.w3.org/2000/svg" xmlns:xlink="http://www.w3.org/1999/xlink" x="0px" y="0px" viewBox="0 0 720 720"
	 style="enable-background:new 0 0 720 720;" xml:space="preserve">
<style type="text/css">
	.st0{fill-rule:evenodd;clip-rule:evenodd;stroke:#000000;stroke-width:0.4997;stroke-miterlimit:10;}
	.st1{fill-rule:evenodd;clip-rule:evenodd;}
</style>
<path class="st0" d="M449.9,107.8c2.5-17.6,3.8-34.8,5.7-48.9c-10.7-0.5-137.7-24.1-128.3,109h-21.8c-14.2,0-25.8,11.6-25.8,25.8
	v25.9c0,14.2,11.6,25.8,25.8,25.8h94.2c14.2,0,25.8-11.6,25.8-25.8v-25.9c0-14.2-11.6-25.8-25.8-25.8l-21.3-0.1
	C378.1,118.3,387,95.6,449.9,107.8z M405.8,181.8c5.5,0,10,5.4,10,12.1v24.3c0,6.7-4.5,12.1-10,12.1h-35.2c-5.5,0-10-5.4-10-12.1
	v-24.3c0-6.6,4.5-12.1,10-12.1H405.8z"/>
<g>
	<path class="st1" d="M360.4,476.8c-5.6-6.3-11.4-6.3-17.1,0s-13.3,13.5-15.5,19.9c-3.7,10.6,10.1,18.7,17.6,9.2
		c4.7-5.2,8.2-5.2,12.9,0c7.5,9.5,21.3,1.4,17.6-9.2C373.6,490.3,366,483.1,360.4,476.8z"/>
	<path class="st1" d="M292.1,399.1c-25,0-45.3,20.3-45.3,45.3c0,12.3,4.9,23.4,12.9,31.6c6.3,2.5,18.4,5.7,31.2,1.3
		c-4.3,4.3-9.4,7.9-13.3,10c4.6,1.5,9.4,2.4,14.5,2.4c25,0,45.3-20.3,45.3-45.3S317.1,399.1,292.1,399.1z"/>
	<path class="st1" d="M350.3,366.7c0.3,0.4,0.6,0.7,0.9,1c-0.8,1.4-11.5,19.6-14.5,25.3c19.8,11.1,36.2,1.5,39.4-0.3
		c-2.1-3.6-11.4-19.6-14.6-24.9c0.3-0.3,0.6-0.7,0.9-1c0.5,0.3,19.5,11.4,25.3,14.5c11.1-19.8,1.5-36.2-0.3-39.4
		c-3.7,2.1-20,11.6-25.1,14.7c-0.3-0.3-0.6-0.6-0.9-0.9c3.2-5.2,12.6-21.3,14.7-25.1c-3.2-1.8-19.6-11.4-39.4-0.3
		c3.1,5.9,14.5,25.3,14.5,25.3h0.1c-0.3,0.2-0.5,0.5-0.8,0.8c-5.2-3.2-21.4-12.6-25.1-14.7c-1.8,3.2-11.4,19.6-0.3,39.4
		C330.7,378.1,348.6,367.7,350.3,366.7z"/>
	<path class="st1" d="M282.4,481.4c0,0-10.7,1-19-2c0,0,6.8,5.3,10.2,6.3C275.5,486.2,282.8,481.7,282.4,481.4z"/>
	<path class="st1" d="M405.1,481.2c0,0-10.7,1-19-2c0,0,6.8,5.3,10.2,6.3C398.2,486,405.5,481.5,405.1,481.2z"/>
	<path class="st1" d="M498.4,385c-0.6-69-43.4-95-63.5-108.3c-20.1-13.3-27.4-32.3-27.4-32.3h-54.4l-54.2,0c0,0-7.3,19-27.4,32.3
		C251.4,289.9,208.7,316,208,385s-0.7,169.5-0.2,194.5c-0.1,26.5,17.7,60.7,51.5,73.7c21.1,9.8,73.4,5.4,93.8,6.7h0.1h0.1
		c20.4-1.3,72.6,3.1,93.8-6.7c33.8-13,51.6-47.2,51.5-73.7C499.1,554.6,499.1,454,498.4,385z M285.2,590.9c-4.3,0-7.8-6.4-7.8-14.2
		s3.5-14.2,7.8-14.2c4.3,0,7.8,6.4,7.8,14.2S289.5,590.9,285.2,590.9z M305.7,601.1c-6,0-10.9-6.3-10.9-14.1s4.9-14.1,10.9-14.1
		s10.9,6.3,10.9,14.1S311.7,601.1,305.7,601.1z M334.5,604.9c-8,0-14.4-6.9-14.4-15.5s6.4-15.5,14.4-15.5c8,0,14.4,6.9,14.4,15.5
		S342.5,604.9,334.5,604.9z M370.2,605c-8,0-14.4-6.9-14.4-15.5s6.4-15.5,14.4-15.5c8,0,14.4,6.9,14.4,15.5S378.2,605,370.2,605z
		 M398.7,601.1c-6,0-10.9-6.3-10.9-14.1s4.9-14.1,10.9-14.1s10.9,6.3,10.9,14.1S404.7,601.1,398.7,601.1z M420.1,590.9
		c-4.3,0-7.8-6.4-7.8-14.2s3.5-14.2,7.8-14.2c4.3,0,7.8,6.4,7.8,14.2S424.4,590.9,420.1,590.9z M459.6,516.7
		c-6.2,2.1-9.5,0.9-13-0.5c-12.2-4.9-48.2-6.1-58.1,0.1c12.3-2.8,32.3-1.2,43.8,4.6c2.2,1.1,1.8,2.5,0,4.1
		c-2.9,2.6-10.3,7.5-12.9,6.8c-2.6-0.7-3.8-10.1-1.9-11.8c1.9-1.7-4.5,0.5-5.4,10.4c-0.9,9.9,2.2,23.9-0.2,25.1
		c-2.3,1.2-6.1-4.7-10.4-11.6c-2.5-0.8,2.1,8.6-3.5,15.8c-4,3-8.2,1.5-10.3-1c-2-2.4-5.2-16.4-7.7-16.4c-4.2,1.7,1.2,22.6-11.6,22.9
		c-14.7,0.4-12.8-13.3-16.6-14.5c-3.8,1.2-1.9,14.9-16.6,14.5c-12.8-0.3-7.5-21.3-11.6-22.9c-2.5,0-5.7,14.1-7.7,16.4
		c-2.1,2.5-6.3,3.9-10.3,1c-5.6-7.1-1-16.6-3.5-15.8c-4.2,6.8-8,12.8-10.4,11.6c-2.4-1.1,0.7-15.2-0.2-25.1
		c-1-9.9-7.3-12.1-5.4-10.4c1.9,1.6,0.7,11.1-1.9,11.8c-2.6,0.7-10.1-4.2-12.9-6.8c-1.8-1.6-2.2-3,0-4.1c11.5-5.7,31.4-7.4,43.8-4.6
		c-9.9-6.2-45.9-5-58.1-0.1c-3.5,1.4-6.8,2.6-13,0.5c-10-3.3-20.5-21.1-16.7-33c3.8-11.9,10.9-11.3,10.1-13.2
		c-9.9-22.9-1.6-39.8-3.5-44.6c-18.4-46.1,6-99.9,46.8-126.1c26.2-16.1,42.7-49.5,43.8-54.9c18.3,0,36.5,0,54.6,0
		c1.1,5.5,17.6,38.8,43.8,54.9c40.8,26.3,65.2,80,46.8,126.1c-1.9,4.8,6.4,21.7-3.5,44.6c-0.8,1.9,6.3,1.3,10.1,13.2
		C480.1,495.6,469.6,513.4,459.6,516.7z"/>
	<path class="st1" d="M413.7,398.7c-25,0-45.3,20.3-45.3,45.3c0,12.1,4.8,23.1,12.5,31.3c5.8,2.5,18.7,6.6,32.6,1.8
		c-4.4,4.3-9.5,8-13.5,10.1c4.3,1.4,8.9,2.1,13.7,2.1c25,0,45.3-20.3,45.3-45.3S438.7,398.7,413.7,398.7z"/>
</g>
</svg>
