<?xml version="1.0" encoding="utf-8"?>
<!-- Generator: Adobe Illustrator 28.0.0, SVG Export Plug-In . SVG Version: 6.00 Build 0)  -->
<svg version="1.1" id="Layer_1" xmlns:xodm="http://www.corel.com/coreldraw/odm/2003"
	 xmlns="http://www.w3.org/2000/svg" xmlns:xlink="http://www.w3.org/1999/xlink" x="0px" y="0px" viewBox="0 0 720 720"
	 style="enable-background:new 0 0 720 720;" xml:space="preserve">
<style type="text/css">
	.st0{fill-rule:evenodd;clip-rule:evenodd;}
</style>
<g id="Layer_x0020_1">
	<g>
		<path class="st0" d="M296.7,466.1c-12.3-1.4-17.2-2.5-29.2-7.1c8.1,8.9,11.2,12.6,26.2,14.4c6.2,1,18.4,5,22.4,9.6
			C316,479.7,311.6,467.8,296.7,466.1z"/>
		<path class="st0" d="M405.2,483.1c4-4.6,16.2-8.7,22.4-9.6c15-1.8,18.1-5.5,26.2-14.4c-12,4.6-16.9,5.7-29.2,7.1
			C409.8,467.8,405.4,479.7,405.2,483.1z"/>
		<path class="st0" d="M344.1,414.9c21.1-13.9,8-46.6-19.8-50.5c8,3.4,23.4,22.3,14.5,35.9c-5.7-8-17.1-17.9-29.9-20.4
			c-11.9-2.3-39.4-0.1-43.7,30.3c-5.8,41.1,47.4,49.2,66.1,20.3c-3.5,17.7-23,27.2-23,27.2C348.4,453.3,344.7,419.3,344.1,414.9z"/>
		<path class="st0" d="M372.5,449.2L372.5,449.2c-7.4-8.4-14.9-8.4-22.3,0c-5.3,6-9.7,17-12.4,25.1c-2,6-5.9,11.1-4.4,17.3
			c1.6,6.8,12.2,13.9,21,13.9c2.4,0,4.6-1,6.9-1c2.3,0,4.6,1,7,1c8.9,0,19.5-7.2,21-13.9c1.5-6.2-2.4-11.3-4.4-17.3
			C382.2,466.1,377.8,455.2,372.5,449.2z"/>
		<path class="st0" d="M500.3,479.9c-2.8-11.4-14.6-26.1-13.9-28.8c2.2-5.9,2.9-11.1,3.2-16.1c0.2-2.8,0-7.7,0.3-8.6
			c0.4-1.1,2.6-7.4,3.8-11.4c3.4-11.7,6.3-24.5,6.3-37.3l0,0c-1.9-95.2-84.9-136.5-138.6-135.6c-53.7-0.9-136.7,40.5-138.6,135.6
			c0,12.8,2.9,25.6,6.3,37.3c1.2,4,3.3,10.3,3.8,11.4c0.3,0.9,0.2,5.8,0.3,8.6c0.3,5.1,1,10.2,3.2,16.1c0.7,2.5-8.6,15.4-12.4,26.2
			c-2,5.6-2.7,9.3,1.6,13.9c6.3,6.7,20.3,12.2,27.8,13.9c9.5,2.2,20.5-1.4,29.1,4.6c7.2,5.1,14.5,18.1,14.6,23
			c-3,5.6-11.1,31.7,17.5,37.7c3.9,0.8,5.7,4.6,9.4,6.4c2.3,1.1,6-0.3,9.6,1.5c8.7,4.4,18.1,4.7,27.2,3c9.1,1.8,19.4,1.4,28-3
			c3.6-1.8,7.3-0.4,9.6-1.5c3.7-1.8,5.5-5.6,9.4-6.4c28.6-5.9,20.5-32.1,17.5-37.7c0.1-5,8.7-18,15.9-23.2
			c8.4-6.8,18.4-2.2,27.9-4.4c8.2-1.9,22.7-6.8,28.9-14.6C501.2,486.9,501.4,484.4,500.3,479.9z M480.6,392.1
			c-3.1-9.5-15.4-20.4-18.5-22.9c3.2-10.1,1.4-24.8-1.4-32.4s-6.2-15.2-16.3-23c17.9,27.6,10.8,45.2,8.2,51.2
			c-5.2-1.4-17.7-2.4-20.7-0.5c4.8,2.2,9,3.6,13.4,6.7c15.2,10.5,27.4,29.4,27.2,48.7c-0.5,20.1-6,26.8-7.1,32.4
			c-0.1,0.6,1.5,1.2,2.1,1.7c3,2.4,5.5,7.7,7.7,12.3c1.1,2.4,2.2,4.7,3,6.6c1.8,4.5,2.3,5.8-2.3,8c-3.8,1.8-9.3,4-15.1,4.5
			c-7.5,0.5-11.1-0.2-19.8,1.9c-17.6,4.8-23.7,17.9-25.1,20.3c-1.3,2.1-6.2,11.8-6.6,15.6c-0.1,0.8,0.1,1.1,0.5,1.7
			c0.1,0.2,0.2,0.4,0.4,0.6c1.9,3.3,3,6.9,4.5,10.6c1.5,3.6,2.4,7,2.3,8.7c-0.1,3.9-7.1,11-9.8,9.9c-0.8-0.6-3.6-8.2-6.8-15.6
			c-3.1-7.2-6.5-14.1-6.8-14.2c-0.5,0.4,5.6,32,5.5,32.7c-0.1,0.8-11.4,6-11.9,5.6c-0.4-0.5-4.6-38.6-5.7-38.3
			c-1.3,0.5-0.7,38.2-1.7,40.5c-1.1,2-11.7,2.7-13.3,1.4c-1-0.8-4-22.4-5.5-33.7v0c-1.5,11.3-3.9,32.9-4.9,33.7
			c-1.7,1.4-12.2,0.6-13.3-1.4c-1-2.3-0.4-40-1.7-40.5c-1-0.3-7.2,38.1-7.6,38.6c-0.5,0.4-9.8-5.1-9.9-5.9c-0.1-0.7,6-32.3,5.5-32.7
			c-0.3,0.1-3.7,7-6.8,14.2c-3.2,7.4-6,15-6.8,15.6c-2.7,1.1-9.6-6-9.8-9.9c-0.1-1.6,0.8-5.1,2.3-8.7c1.5-3.6,3.1-7.2,5-10.6
			c0.1-0.2,0.3-0.4,0.4-0.6c0.4-0.5,0.6-0.9,0.5-1.7c-0.4-3.8-5.8-13.5-7.1-15.6c-1.4-2.4-7.5-15.6-25.1-20.3
			c-8.7-2-12.3-1.4-19.8-1.9c-5.8-0.5-11.3-2.6-15.1-4.4c-3.9-1.8-4.2-4-2.5-7.7c0.9-2,2-4.4,3.2-7c2.6-5.4,5.6-11.8,9.3-13.3
			c0.5-0.2,0.6-0.4,0.5-0.9c-1.2-5.5-6.6-12.4-7-32.2c-0.2-19.4,12-38.2,27.2-48.7c4.5-3.1,8.6-4.4,13.4-6.7
			c-3-1.9-15.5-0.9-20.7,0.5c-2.6-6-9.7-23.7,8.2-51.2c-10,7.8-13.5,15.4-16.3,23c-2.7,7.6-4.5,22.3-1.4,32.4
			c-3,2.6-15.3,13.4-18.5,22.9c-2-12.2-2.1-35.2,5.8-57.6C284.7,231,438,231,474.8,334.5C482.7,356.9,482.7,379.9,480.6,392.1z"/>
		<path class="st0" d="M413.1,379.8c-12.8,2.5-24.2,12.4-29.9,20.4c-8.9-13.6,6.5-32.4,14.5-35.9c-27.8,3.9-40.9,36.5-19.8,50.5
			c-0.6,4.5-4.2,38.4,35.7,42.8c0,0-19.5-9.5-23-27.2c0,0,0,0,0,0h0c0,0,0,0,0,0c18.7,28.9,71.9,20.8,66.1-20.3
			C452.5,379.7,425,377.5,413.1,379.8z"/>
	</g>
	<path class="st0" d="M316.2,77.8C219.2,245.4,123,411.3,26.7,578.4c-9.5,16.5-14.4,31.6-4.3,49.4c11.5,18.6,31.2,19.7,53,19.8
		c190.6,0.2,378.6,0.2,569.3,0c21.8,0,41.5-1.2,53-19.8c10-17.8,5.2-32.9-4.3-49.4C595.8,409.2,498.9,240.6,400.4,70.2
		c-9.5-16.5-20.2-28.2-40.6-28.4C338,42.4,327.1,58.9,316.2,77.8L316.2,77.8z M66.8,621.5c-17.5,0-28.1-14.9-17.8-30.9
		c97.6-169.1,195.9-337.4,294-507.2c8.7-15.1,27-16.9,35.6,0.1C476.3,252.5,573.4,421.6,671,590.6c10.3,15.9-0.3,30.9-17.8,30.9
		C457.9,621.5,263.3,621.5,66.8,621.5L66.8,621.5z"/>
</g>
</svg>
