<?xml version="1.0" encoding="utf-8"?>
<!-- Generator: Adobe Illustrator 28.0.0, SVG Export Plug-In . SVG Version: 6.00 Build 0)  -->
<svg version="1.1" id="Layer_1" xmlns:xodm="http://www.corel.com/coreldraw/odm/2003"
	 xmlns="http://www.w3.org/2000/svg" xmlns:xlink="http://www.w3.org/1999/xlink" x="0px" y="0px" viewBox="0 0 720 720"
	 style="enable-background:new 0 0 720 720;" xml:space="preserve">
<style type="text/css">
	.st0{fill:#F6B24A;}
	.st1{opacity:0.5;}
</style>
<g>
	<path class="st0" d="M670.9,372.1H48.7c-5.9,0-10.7-4.8-10.7-10.7v-43c0-5.9,4.8-10.7,10.7-10.7h622.1c5.9,0,10.7,4.8,10.7,10.7v43
		C681.6,367.3,676.8,372.1,670.9,372.1z M48.7,312.9c-3,0-5.5,2.5-5.5,5.5v43c0,3,2.5,5.5,5.5,5.5h622.1c3,0,5.5-2.5,5.5-5.5v-43
		c0-3-2.5-5.5-5.5-5.5H48.7z"/>
</g>
<g>
	<g>
		<rect x="46.1" y="314.3" class="st0" width="8.6" height="51.2"/>
	</g>
</g>
<g>
	<g>
		<rect x="56.5" y="314.3" class="st0" width="8.6" height="51.2"/>
	</g>
</g>
<g>
	<g>
		<rect x="67" y="314.3" class="st0" width="8.6" height="51.2"/>
	</g>
</g>
<g>
	<g>
		<rect x="77.5" y="314.3" class="st0" width="8.6" height="51.2"/>
	</g>
</g>
<g>
	<g>
		<rect x="88" y="314.3" class="st0" width="8.6" height="51.2"/>
	</g>
</g>
<g>
	<g>
		<rect x="98.5" y="314.3" class="st0" width="8.6" height="51.2"/>
	</g>
</g>
<g>
	<g>
		<rect x="109" y="314.3" class="st0" width="8.6" height="51.2"/>
	</g>
</g>
<g>
	<g>
		<rect x="119.5" y="314.3" class="st0" width="8.6" height="51.2"/>
	</g>
</g>
<g>
	<g>
		<rect x="129.9" y="314.3" class="st0" width="8.6" height="51.2"/>
	</g>
</g>
<g>
	<g>
		<rect x="140.4" y="314.3" class="st0" width="8.6" height="51.2"/>
	</g>
</g>
<g>
	<g>
		<rect x="150.9" y="314.3" class="st0" width="8.6" height="51.2"/>
	</g>
</g>
<g>
	<g>
		<rect x="161.4" y="314.3" class="st0" width="8.6" height="51.2"/>
	</g>
</g>
<g>
	<g>
		<rect x="171.9" y="314.3" class="st0" width="8.6" height="51.2"/>
	</g>
</g>
<g>
	<g>
		<rect x="182.4" y="314.3" class="st0" width="8.6" height="51.2"/>
	</g>
</g>
<g>
	<g>
		<rect x="192.9" y="314.3" class="st0" width="8.6" height="51.2"/>
	</g>
</g>
<g>
	<g>
		<rect x="203.3" y="314.3" class="st0" width="8.6" height="51.2"/>
	</g>
</g>
<g>
	<g>
		<rect x="213.8" y="314.3" class="st0" width="8.6" height="51.2"/>
	</g>
</g>
<g>
	<g>
		<rect x="224.3" y="314.3" class="st0" width="8.6" height="51.2"/>
	</g>
</g>
<g>
	<g>
		<rect x="234.8" y="314.3" class="st0" width="8.6" height="51.2"/>
	</g>
</g>
<g>
	<g>
		<rect x="245.3" y="314.3" class="st0" width="8.6" height="51.2"/>
	</g>
</g>
<g>
	<g>
		<rect x="255.8" y="314.3" class="st0" width="8.6" height="51.2"/>
	</g>
</g>
<g>
	<g>
		<rect x="266.3" y="314.3" class="st0" width="8.6" height="51.2"/>
	</g>
</g>
<g>
	<g>
		<rect x="276.8" y="314.3" class="st0" width="8.6" height="51.2"/>
	</g>
</g>
<g>
	<g>
		<rect x="287.2" y="314.3" class="st0" width="8.6" height="51.2"/>
	</g>
</g>
<g>
	<g>
		<rect x="297.7" y="314.3" class="st0" width="8.6" height="51.2"/>
	</g>
</g>
<g>
	<g>
		<rect x="308.2" y="314.3" class="st0" width="8.6" height="51.2"/>
	</g>
</g>
<g>
	<g>
		<rect x="318.7" y="314.3" class="st0" width="8.6" height="51.2"/>
	</g>
</g>
<g>
	<g>
		<rect x="329.2" y="314.3" class="st0" width="8.6" height="51.2"/>
	</g>
</g>
<g>
	<g>
		<rect x="339.7" y="314.3" class="st0" width="8.6" height="51.2"/>
	</g>
</g>
<g>
	<g>
		<rect x="350.2" y="314.3" class="st0" width="8.6" height="51.2"/>
	</g>
</g>
<g>
	<g>
		<rect x="360.6" y="314.3" class="st0" width="8.6" height="51.2"/>
	</g>
</g>
<g>
	<g>
		<rect x="371.1" y="314.3" class="st0" width="8.6" height="51.2"/>
	</g>
</g>
<g>
	<g>
		<rect x="381.6" y="314.3" class="st0" width="8.6" height="51.2"/>
	</g>
</g>
<g>
	<g>
		<rect x="392.1" y="314.3" class="st0" width="8.6" height="51.2"/>
	</g>
</g>
<g>
	<g>
		<rect x="402.6" y="314.3" class="st0" width="8.6" height="51.2"/>
	</g>
</g>
<g>
	<g>
		<rect x="413.1" y="314.3" class="st0" width="8.6" height="51.2"/>
	</g>
</g>
<g>
	<g>
		<rect x="423.6" y="314.3" class="st0" width="8.6" height="51.2"/>
	</g>
</g>
<g>
	<g>
		<rect x="434" y="314.3" class="st0" width="8.6" height="51.2"/>
	</g>
</g>
<g>
	<g>
		<rect x="444.5" y="314.3" class="st0" width="8.6" height="51.2"/>
	</g>
</g>
<g>
	<g>
		<rect x="455" y="314.3" class="st0" width="8.6" height="51.2"/>
	</g>
</g>
<g>
	<g>
		<rect x="465.5" y="314.3" class="st0" width="8.6" height="51.2"/>
	</g>
</g>
<g>
	<g>
		<rect x="476" y="314.3" class="st0" width="8.6" height="51.2"/>
	</g>
</g>
<g>
	<g>
		<rect x="486.5" y="314.3" class="st0" width="8.6" height="51.2"/>
	</g>
</g>
<g>
	<g>
		<rect x="497" y="314.3" class="st0" width="8.6" height="51.2"/>
	</g>
</g>
<g>
	<g>
		<rect x="507.4" y="314.3" class="st0" width="8.6" height="51.2"/>
	</g>
</g>
<g>
	<g>
		<rect x="517.9" y="314.3" class="st0" width="8.6" height="51.2"/>
	</g>
</g>
<g>
	<g>
		<rect x="528.4" y="314.3" class="st0" width="8.6" height="51.2"/>
	</g>
</g>
<g>
	<g>
		<rect x="538.9" y="314.3" class="st0" width="8.6" height="51.2"/>
	</g>
</g>
<g>
	<g>
		<rect x="549.4" y="314.3" class="st0" width="8.6" height="51.2"/>
	</g>
</g>
<g>
	<g>
		<rect x="559.9" y="314.3" class="st0" width="8.6" height="51.2"/>
	</g>
</g>
<g>
	<g>
		<rect x="570.4" y="314.3" class="st0" width="8.6" height="51.2"/>
	</g>
</g>
<g>
	<g>
		<rect x="580.9" y="314.3" class="st0" width="8.6" height="51.2"/>
	</g>
</g>
<g>
	<g>
		<rect x="591.3" y="314.3" class="st0" width="8.6" height="51.2"/>
	</g>
</g>
<g>
	<g>
		<rect x="601.8" y="314.3" class="st0" width="8.6" height="51.2"/>
	</g>
</g>
<g class="st1">
	<g>
		<rect x="612.3" y="314.3" class="st0" width="8.6" height="51.2"/>
	</g>
</g>
<g class="st1">
	<g>
		<rect x="622.8" y="314.3" class="st0" width="8.6" height="51.2"/>
	</g>
</g>
<g class="st1">
	<g>
		<rect x="633.3" y="314.3" class="st0" width="8.6" height="51.2"/>
	</g>
</g>
<g class="st1">
	<g>
		<rect x="643.8" y="314.3" class="st0" width="8.6" height="51.2"/>
	</g>
</g>
<g class="st1">
	<g>
		<rect x="654.3" y="314.3" class="st0" width="8.6" height="51.2"/>
	</g>
</g>
<g class="st1">
	<g>
		<rect x="664.9" y="314.3" class="st0" width="8.6" height="51.2"/>
	</g>
</g>
<path class="st0" d="M350.2,296.2c0,1-0.1,1.9-0.3,2.6c-0.2,0.7-0.4,1.3-0.7,1.8c-0.3,0.5-0.6,0.9-1,1.2c-0.4,0.3-0.8,0.5-1.2,0.7
	c-0.4,0.2-0.8,0.3-1.2,0.3c-0.4,0-0.8,0.1-1.1,0.1c-0.9,0-1.7-0.1-2.3-0.3c-0.6-0.2-1.2-0.5-1.6-0.9s-0.7-0.8-0.9-1.3
	c-0.2-0.5-0.3-1-0.3-1.6c0-0.3,0-0.6,0.1-1s0.1-0.7,0.3-1.1h2.5v0.5c0,0.7,0,1.2,0.1,1.6s0.2,0.7,0.4,1c0.2,0.2,0.4,0.4,0.7,0.5
	c0.3,0.1,0.6,0.1,1,0.1c0.7,0,1.2-0.2,1.6-0.7s0.6-1.3,0.6-2.4v-4c-0.3,0.4-0.7,0.7-1.3,0.9c-0.5,0.2-1.1,0.4-1.8,0.4
	c-0.5,0-1-0.1-1.5-0.2c-0.5-0.2-1-0.4-1.4-0.8s-0.8-1-1-1.6c-0.3-0.7-0.4-1.6-0.4-2.7v-2.1c0-1.2,0.1-2.1,0.4-2.9s0.6-1.5,1-2
	c0.5-0.5,1-0.9,1.6-1.1s1.3-0.3,2.1-0.3c0.9,0,1.7,0.1,2.4,0.3c0.7,0.2,1.3,0.6,1.7,1.1c0.5,0.5,0.8,1.2,1.1,2
	c0.2,0.8,0.4,1.9,0.4,3.1L350.2,296.2L350.2,296.2z M346.8,285.7c0-0.5,0-0.9-0.1-1.3c-0.1-0.3-0.2-0.6-0.4-0.8
	c-0.2-0.2-0.4-0.4-0.7-0.5c-0.3-0.1-0.6-0.1-1-0.1c-0.7,0-1.1,0.2-1.4,0.7s-0.5,1.2-0.5,2.1v3.3c0,0.5,0,1,0.1,1.3s0.2,0.6,0.4,0.9
	c0.2,0.2,0.4,0.4,0.6,0.5s0.5,0.1,0.8,0.1c0.2,0,0.4,0,0.7-0.1c0.2-0.1,0.4-0.2,0.6-0.3c0.2-0.1,0.3-0.2,0.5-0.4
	c0.1-0.1,0.3-0.3,0.4-0.4V285.7z"/>
<path class="st0" d="M353,287c0-1,0.1-1.8,0.3-2.5c0.2-0.7,0.4-1.3,0.7-1.8c0.3-0.5,0.6-0.9,1-1.1c0.4-0.3,0.8-0.5,1.2-0.7
	c0.4-0.2,0.8-0.3,1.2-0.3c0.4-0.1,0.8-0.1,1.1-0.1c0.3,0,0.7,0,1.1,0.1c0.4,0,0.8,0.1,1.2,0.3c0.4,0.1,0.8,0.4,1.1,0.7
	c0.4,0.3,0.7,0.7,1,1.1c0.3,0.5,0.5,1.1,0.7,1.8c0.2,0.7,0.3,1.5,0.3,2.5v9.2c0,1-0.1,1.8-0.3,2.5c-0.2,0.7-0.4,1.3-0.7,1.8
	c-0.3,0.5-0.6,0.9-1,1.2c-0.4,0.3-0.8,0.5-1.2,0.7c-0.4,0.2-0.8,0.3-1.2,0.3c-0.4,0.1-0.7,0.1-1,0.1s-0.7,0-1.1-0.1
	s-0.8-0.2-1.2-0.3c-0.4-0.2-0.8-0.4-1.2-0.7c-0.4-0.3-0.7-0.7-1-1.2s-0.5-1.1-0.7-1.8c-0.2-0.7-0.3-1.5-0.3-2.5V287z M356.4,297.6
	c0,0.9,0.2,1.6,0.5,2s0.8,0.6,1.5,0.6s1.1-0.2,1.5-0.6c0.3-0.4,0.5-1.1,0.5-2v-11.8c0-1-0.2-1.6-0.5-2.1c-0.3-0.4-0.8-0.7-1.5-0.7
	s-1.2,0.2-1.5,0.7c-0.3,0.4-0.5,1.1-0.5,2.1V297.6z"/>
<path class="st0" d="M371.1,292.6c-0.5,0-1-0.1-1.5-0.2s-0.9-0.4-1.3-0.8s-0.7-1-1-1.7c-0.2-0.7-0.4-1.7-0.4-2.9v-1.4
	c0-0.8,0.1-1.4,0.2-2s0.3-1,0.5-1.4s0.4-0.7,0.7-1c0.3-0.2,0.6-0.4,0.9-0.6c0.3-0.1,0.6-0.2,0.9-0.3c0.3-0.1,0.6-0.1,0.9-0.1
	s0.6,0,0.9,0.1c0.3,0,0.6,0.1,0.9,0.3c0.3,0.1,0.6,0.3,0.9,0.6c0.3,0.2,0.5,0.6,0.7,1s0.4,0.9,0.5,1.5s0.2,1.2,0.2,2v1.4
	c0,1.2-0.1,2.1-0.4,2.8s-0.6,1.3-1,1.7c-0.4,0.4-0.8,0.7-1.3,0.8C372,292.5,371.6,292.6,371.1,292.6z M371.2,290.5
	c0.5,0,0.9-0.2,1.1-0.7s0.3-1.2,0.3-2.2v-2.5c0-1-0.1-1.7-0.3-2.2c-0.2-0.5-0.6-0.7-1.1-0.7c-0.6,0-1,0.2-1.2,0.7s-0.3,1.2-0.3,2.2
	v2.5c0,1,0.1,1.7,0.3,2.2C370.2,290.3,370.6,290.5,371.2,290.5z M378.9,280.5h2.3l-5.9,22.1H373L378.9,280.5z M378.9,295.9
	c0-1.2,0.1-2.1,0.4-2.8c0.3-0.7,0.6-1.2,1-1.6s0.9-0.6,1.3-0.8c0.5-0.1,1-0.2,1.4-0.2c0.3,0,0.6,0,0.9,0.1c0.3,0,0.6,0.1,0.9,0.3
	c0.3,0.1,0.6,0.3,0.9,0.6c0.3,0.2,0.5,0.6,0.7,1s0.4,0.9,0.5,1.5s0.2,1.2,0.2,2v1.4c0,0.8-0.1,1.5-0.2,2c-0.1,0.6-0.3,1.1-0.5,1.5
	s-0.4,0.7-0.7,1c-0.3,0.3-0.6,0.5-0.9,0.6c-0.3,0.2-0.6,0.3-0.9,0.3c-0.3,0.1-0.6,0.1-0.9,0.1s-0.6,0-1-0.1
	c-0.3-0.1-0.6-0.2-0.9-0.3c-0.3-0.1-0.6-0.3-0.9-0.6c-0.3-0.3-0.5-0.6-0.7-1s-0.4-0.9-0.5-1.5s-0.2-1.3-0.2-2.1v-1.4H378.9z
	 M381.5,297.9c0,1,0.1,1.7,0.3,2.2c0.2,0.5,0.6,0.7,1.2,0.7c0.5,0,0.9-0.2,1.1-0.7s0.3-1.2,0.3-2.2v-2.5c0-1-0.1-1.7-0.3-2.2
	s-0.6-0.7-1.1-0.7c-0.6,0-1,0.2-1.2,0.7s-0.3,1.2-0.3,2.2V297.9z"/>
</svg>
