<?xml version="1.0" encoding="utf-8"?>
<!-- Generator: Adobe Illustrator 28.0.0, SVG Export Plug-In . SVG Version: 6.00 Build 0)  -->
<svg version="1.1" id="Layer_1" xmlns:xodm="http://www.corel.com/coreldraw/odm/2003"
	 xmlns="http://www.w3.org/2000/svg" xmlns:xlink="http://www.w3.org/1999/xlink" x="0px" y="0px" viewBox="0 0 720 720"
	 style="enable-background:new 0 0 720 720;" xml:space="preserve">
<style type="text/css">
	.st0{fill-rule:evenodd;clip-rule:evenodd;}
	.st1{fill:none;stroke:#000000;stroke-width:0.4997;stroke-miterlimit:10;}
</style>
<path class="st0" d="M555.2,226.7c0.1-4.4-3.9-6.5-5.7-10.5c-5.4-12.2-6.5-24.6-10.8-37.4v69.8c0.2-0.3,0.4-0.6,0.6-0.9
	C543.9,240.6,555.3,234.8,555.2,226.7L555.2,226.7z M462.2,595.5c2.6,0,4.8,2.1,4.8,4.8s-2.1,4.8-4.8,4.8s-4.8-2.1-4.8-4.8
	S459.6,595.5,462.2,595.5z M444,462.3c2.6,0,4.8,2.1,4.8,4.8s-2.1,4.8-4.8,4.8c-2.6,0-4.8-2.1-4.8-4.8S441.4,462.3,444,462.3z
	 M529.1,156.1c-2.8-5.3-5.8-10.3-9.1-15.2v338.3c3.1-0.2,6.1-0.7,9.1-1.4V156.1L529.1,156.1z M510.3,128.3
	c-3.9-4.6-8.1-8.9-12.6-12.9v196.8c0,2-1.7,3.7-3.7,3.7l0,0c-2,0-3.7-1.7-3.7-3.7V109c-3.9-3.1-8-6.1-12.2-9v373.1
	c4.3,0.7,8.7,1.8,13.3,3c5.6,1.5,12.2,2.7,18.9,3.1V128.3L510.3,128.3z M468.4,94c-6.2-3.6-12.6-6.9-19.4-9.9v362.1
	c0,2.7-2.2,4.8-4.8,4.8l0,0c-2.7,0-4.8-2.2-4.8-4.8V80c-3.1-1.2-6.3-2.4-9.5-3.5v577.9l9.5,0v-66.6c0-2.7,2.2-4.8,4.8-4.8l0,0
	c2.7,0,4.8,2.2,4.8,4.8v66.6l22.2,0v-40.1c0-2.7,2.2-4.8,4.8-4.8l0,0c2.7,0,4.8,2.2,4.8,4.8v40.1l22,0c3.4,0,9.8,0,9-5.4
	c-2.5-15.1-17.9-39.5-71-73.7c-3-2-6.6-6.3-7.9-12.2c-0.9-4-0.9-21.1-0.4-37.5c0.5-16.4-0.3-29.4,2.4-33.7
	c9.3-15.1,20.6-19.8,33.4-19.7L468.4,94L468.4,94z M420.2,73.3c-8.6-2.6-17.5-5-26.8-7v588l11.7,0V471.7h15.1V73.3L420.2,73.3z
	 M383.7,64.4c-3-0.6-6.1-1.3-9.2-1.4v91.6v26v267.2v3.4v203.2l9.2,0V64.4L383.7,64.4z M353.6,62.3c-4,0-7.9,0-11.8,0v164.8h1.5
	v427.3h10.3L353.6,62.3L353.6,62.3z M334.5,62.5c-8.9,0.3-17.4,1-25.4,2v73.8h12.7v3.8h-12.7v2.1h12.7v60.4h12.7V62.5L334.5,62.5z
	 M321.8,210v8.3h12.7V210H321.8z M321.8,223.8v3.3h12.7v-3.3H321.8z M299.4,65.9c-3.8,0.6-7.4,1.4-11,2.2v586.3l11,0V227.1V65.9
	L299.4,65.9z M278.7,70.6c-3.7,1.1-7.2,2.2-10.7,3.5v580.2l10.7,0L278.7,70.6L278.7,70.6z M260.6,77.2c-9.9,4.3-19,9.7-27.6,16.3
	v293.1c15.9,28.4,23.9,42.2,18.8,81.1c-2.6,20.7-8.4,38-18.8,54.2v132.6c8.9,0,18.1,0,27.6,0V262.1h-19.5V92.7h19.5V77.2L260.6,77.2
	z M225.6,99.5c-6.9,6.1-13.5,13.1-19.7,21c-0.1,0.1-0.2,0.3-0.3,0.4v224c7.3,10.1,14.5,19,20.1,27.8V99.5z M198.2,130.8
	c-24.3,34.5-28.1,62.3-29.2,99.5c-0.9,30.8,7.3,58.7,15.5,78.3c4,9.5,8.7,17.9,13.7,25.5V130.8L198.2,130.8z M225.6,532.1
	c-5.6,7.2-12.3,14.2-20.1,21.3v100.9c6.4,0,13.1,0,20.1,0V532.1L225.6,532.1z M198.2,559.9c-2.4,2-4.8,4-7.4,6.1
	c-41,34.6-62.1,58.9-67.5,79c-2.6,11.1,4.6,9.1,12,9.1c7.5,0.1,31.1,0.1,63,0.2V559.9L198.2,559.9z M538.8,474.3
	c3.5-1.7,6.8-4,9.7-6.8c10.4-16.3,3.1-27.9,0.2-33.4c-2-3.8-2.2-8.9,1.6-12.3c3.1-2.6,7.8-4.7,10.4-6.3c4-2.6,4.7-5.7,3.6-8.9
	c-2.8-8.3-13.9-11.9-14-12.4c-0.2-0.9,5.4-4.2,6.7-5.2c4.2-3.2,10-6.4,12-11.2c0.8-2,0.7-4.8-1.6-7c-3.6-3.3-7.6-4-8.1-11.8
	c-0.4-7.3,1.6-9.4,5.1-11c3-1.4,9.5-4,13.2-6.1c4.5-2.6,7.6-7.2,7.4-12.4c-0.2-5.6-2.4-11.2-6.6-14.9c-7.3-6.4-13-11.7-18-17.2v28.9
	c0,2.3-1.9,4.1-4.1,4.1l0,0c-2.3,0-4.1-1.9-4.1-4.1v-39.3c-4-5.7-7.8-12.2-12.2-20.4c-0.4-0.6-0.7-1.1-1.1-1.6L538.8,474.3
	L538.8,474.3z"/>
<circle class="st1" cx="462.2" cy="600.3" r="4.8"/>
<rect x="240" y="96.9" class="st0" width="20.7" height="4.6"/>
<rect x="240" y="105" class="st0" width="20.7" height="3.7"/>
<rect x="240" y="112.2" class="st0" width="20.7" height="4.5"/>
<rect x="240" y="123.6" class="st0" width="20.7" height="6.8"/>
<rect x="240" y="142.6" class="st0" width="20.7" height="3.3"/>
<rect x="240" y="153.1" class="st0" width="20.7" height="4.5"/>
<rect x="240" y="161.5" class="st0" width="20.7" height="3.3"/>
<rect x="240" y="167.7" class="st0" width="20.7" height="4.7"/>
<rect x="240" y="177.6" class="st0" width="20.7" height="3.6"/>
<rect x="240" y="185.7" class="st0" width="20.7" height="4.8"/>
<rect x="240" y="195.4" class="st0" width="20.7" height="4"/>
<rect x="240" y="201.6" class="st0" width="20.7" height="5.4"/>
<rect x="240" y="217.9" class="st0" width="20.7" height="3"/>
<rect x="240" y="223.4" class="st0" width="20.7" height="3.7"/>
<rect x="240" y="232.2" class="st0" width="20.7" height="7.4"/>
<rect x="240" y="244" class="st0" width="20.7" height="4.3"/>
<rect x="240" y="251.7" class="st0" width="20.7" height="5.2"/>
<rect x="309" y="337.6" class="st0" width="24.9" height="10.8"/>
<rect x="309" y="329" class="st0" width="24.9" height="1.8"/>
<rect x="309" y="352.3" class="st0" width="24.9" height="1.8"/>
<rect x="309" y="357.6" class="st0" width="24.9" height="4.6"/>
<rect x="309" y="365.8" class="st0" width="24.9" height="3.1"/>
<rect x="309" y="375.5" class="st0" width="24.9" height="6.6"/>
<rect x="309" y="389.3" class="st0" width="24.9" height="13.6"/>
<rect x="309" y="410.6" class="st0" width="24.9" height="10.8"/>
<rect x="309" y="430.4" class="st0" width="24.9" height="8.1"/>
<rect x="308.8" y="424.3" class="st0" width="24.9" height="2.5"/>
<rect x="308.8" y="442" class="st0" width="24.9" height="2.5"/>
<rect x="308.8" y="463.8" class="st0" width="24.9" height="1.2"/>
<rect x="361.3" y="451.9" class="st0" width="14.7" height="1.2"/>
<rect x="361.3" y="566.6" class="st0" width="14.7" height="1.2"/>
<rect x="361.3" y="457.6" class="st0" width="14.7" height="7.9"/>
<rect x="361.3" y="467.5" class="st0" width="14.7" height="95.3"/>
<rect x="308.8" y="504.9" class="st0" width="24.9" height="1.6"/>
<rect x="308.8" y="540.5" class="st0" width="24.9" height="1.3"/>
<rect x="308.8" y="567.7" class="st0" width="24.9" height="1.3"/>
<rect x="308.8" y="625.9" class="st0" width="24.9" height="1.3"/>
<rect x="308.8" y="583" class="st0" width="24.9" height="2.8"/>
<rect x="308.8" y="589" class="st0" width="24.9" height="2.8"/>
<rect x="308.8" y="636.1" class="st0" width="24.9" height="4.2"/>
<rect x="308.8" y="649.5" class="st0" width="24.9" height="3.2"/>
<rect x="308.8" y="596.6" class="st0" width="24.9" height="2.1"/>
<rect x="308.8" y="630.8" class="st0" width="24.9" height="2.1"/>
<rect x="308.8" y="643.6" class="st0" width="24.9" height="2.1"/>
<rect x="308.8" y="511.3" class="st0" width="24.9" height="2.4"/>
<rect x="308.8" y="547.8" class="st0" width="24.9" height="4"/>
<rect x="308.8" y="555.6" class="st0" width="24.9" height="6.7"/>
<rect x="308.8" y="573.1" class="st0" width="24.9" height="6.7"/>
<rect x="308.8" y="615.9" class="st0" width="24.9" height="6.7"/>
<rect x="308.8" y="602.2" class="st0" width="24.9" height="10.7"/>
<rect x="308.8" y="535.3" class="st0" width="24.9" height="2.1"/>
<rect x="308.8" y="472.3" class="st0" width="24.9" height="3.8"/>
<rect x="403.9" y="478.7" class="st0" width="16.5" height="5.2"/>
<rect x="403.9" y="499.3" class="st0" width="16.5" height="5.9"/>
<rect x="403.9" y="490.5" class="st0" width="16.5" height="3.8"/>
<rect x="308.8" y="450.6" class="st0" width="24.9" height="6.1"/>
<rect x="308.8" y="487" class="st0" width="24.9" height="12.3"/>
<rect x="308.8" y="517.6" class="st0" width="24.9" height="12.3"/>
<rect x="361.8" y="64.6" class="st0" width="14" height="3.5"/>
<rect x="361.8" y="70.2" class="st0" width="14" height="1.8"/>
<rect x="361.8" y="75.7" class="st0" width="14" height="0.9"/>
<rect x="361.8" y="80.2" class="st0" width="14" height="1.2"/>
<rect x="361.8" y="148.6" class="st0" width="14" height="1.2"/>
<rect x="361.8" y="153.7" class="st0" width="14" height="0.6"/>
<rect x="361.8" y="87.9" class="st0" width="14" height="1.6"/>
<rect x="361.8" y="93" class="st0" width="14" height="2"/>
<rect x="361.8" y="98.4" class="st0" width="14" height="2.7"/>
<rect x="361.8" y="104.5" class="st0" width="14" height="3.1"/>
<rect x="361.8" y="117.9" class="st0" width="14" height="3.1"/>
<rect x="361.8" y="126.9" class="st0" width="14" height="2.6"/>
<rect x="361.8" y="134.7" class="st0" width="14" height="11.4"/>
<rect x="361.8" y="110.5" class="st0" width="14" height="4.4"/>
</svg>
