<?xml version="1.0" encoding="utf-8"?>
<!-- Generator: Adobe Illustrator 28.0.0, SVG Export Plug-In . SVG Version: 6.00 Build 0)  -->
<svg version="1.1" id="Layer_1" xmlns:xodm="http://www.corel.com/coreldraw/odm/2003"
	 xmlns="http://www.w3.org/2000/svg" xmlns:xlink="http://www.w3.org/1999/xlink" x="0px" y="0px" viewBox="0 0 720 720"
	 style="enable-background:new 0 0 720 720;" xml:space="preserve">
<ellipse cx="600.9" cy="360.1" rx="81" ry="37.5"/>
<ellipse transform="matrix(0.809 -0.5878 0.5878 0.809 -22.4151 367.8825)" cx="554.9" cy="218.4" rx="81" ry="37.5"/>
<ellipse transform="matrix(0.309 -0.9511 0.9511 0.309 175.6865 503.5952)" cx="434.4" cy="130.9" rx="81" ry="37.5"/>
<ellipse transform="matrix(0.9511 -0.309 0.309 0.9511 -26.4756 94.6232)" cx="285.5" cy="130.9" rx="37.5" ry="81"/>
<ellipse transform="matrix(0.5878 -0.809 0.809 0.5878 -108.7087 223.5164)" cx="165" cy="218.4" rx="37.5" ry="81"/>
<ellipse cx="119" cy="360.1" rx="81" ry="37.5"/>
<ellipse transform="matrix(0.809 -0.5878 0.5878 0.809 -263.4001 192.7967)" cx="165" cy="501.7" rx="81" ry="37.5"/>
<ellipse transform="matrix(0.309 -0.9511 0.9511 0.309 -363.1722 678.681)" cx="285.5" cy="589.3" rx="81" ry="37.5"/>
<ellipse transform="matrix(0.9511 -0.309 0.309 0.9511 -160.8335 163.082)" cx="434.4" cy="589.3" rx="37.5" ry="81"/>
<ellipse transform="matrix(0.5878 -0.809 0.809 0.5878 -177.1674 655.7482)" cx="554.9" cy="501.7" rx="37.5" ry="81"/>
<g>
	<path d="M233.1,399h11.5v-67.6l-12.3,10.8l-6.5-7.6l22.5-23.4h11.2l-0.1,0.1l0.1-0.1V399h11.4v11.3h-37.8V399z"/>
	<path d="M278.5,339.6c0-4.3,0.4-8.1,1.2-11.2c0.8-3.2,1.8-5.8,3.1-7.9c1.3-2.1,2.8-3.9,4.5-5.2c1.7-1.3,3.4-2.3,5.2-3
		c1.8-0.7,3.6-1.2,5.4-1.4c1.8-0.2,3.4-0.3,5-0.3c1.4,0,3,0.1,4.8,0.3c1.8,0.2,3.5,0.7,5.3,1.3c1.8,0.7,3.5,1.7,5.2,3
		c1.7,1.3,3.2,3,4.5,5.2c1.3,2.2,2.3,4.8,3.1,8c0.8,3.2,1.2,7,1.2,11.4v41.9c0,4.3-0.4,8.1-1.2,11.2c-0.8,3.2-1.8,5.8-3.2,8
		c-1.3,2.2-2.8,4-4.5,5.4c-1.7,1.4-3.4,2.4-5.2,3.2c-1.8,0.8-3.5,1.3-5.3,1.5c-1.8,0.3-3.3,0.4-4.7,0.4c-1.5,0-3.2-0.1-5-0.4
		c-1.8-0.3-3.6-0.8-5.4-1.5c-1.8-0.8-3.6-1.8-5.2-3.2c-1.7-1.4-3.2-3.1-4.4-5.3c-1.3-2.2-2.3-4.9-3.1-8.1c-0.8-3.2-1.2-6.9-1.2-11.3
		V339.6z M293.9,387.8c0,4.1,0.7,7.1,2.2,8.9c1.5,1.9,3.8,2.8,6.8,2.8c3,0,5.2-0.9,6.7-2.8s2.2-4.8,2.2-8.9v-53.6
		c0-4.3-0.7-7.5-2.2-9.5c-1.5-2-3.7-3-6.7-3c-3.1,0-5.3,1-6.8,3c-1.5,2-2.2,5.1-2.2,9.5V387.8z"/>
	<path d="M339.2,339.6c0-4.3,0.4-8.1,1.2-11.2c0.8-3.2,1.8-5.8,3.1-7.9c1.3-2.1,2.8-3.9,4.5-5.2c1.7-1.3,3.5-2.3,5.2-3
		c1.8-0.7,3.6-1.2,5.4-1.4c1.8-0.2,3.4-0.3,5-0.3c1.4,0,3,0.1,4.8,0.3c1.8,0.2,3.5,0.7,5.3,1.3c1.8,0.7,3.5,1.7,5.2,3
		c1.7,1.3,3.2,3,4.5,5.2c1.3,2.2,2.3,4.8,3.1,8c0.8,3.2,1.2,7,1.2,11.4v41.9c0,4.3-0.4,8.1-1.2,11.2c-0.8,3.2-1.8,5.8-3.2,8
		c-1.3,2.2-2.8,4-4.5,5.4c-1.7,1.4-3.4,2.4-5.2,3.2c-1.8,0.8-3.5,1.3-5.3,1.5c-1.8,0.3-3.3,0.4-4.7,0.4c-1.5,0-3.2-0.1-5-0.4
		c-1.8-0.3-3.6-0.8-5.4-1.5c-1.8-0.8-3.6-1.8-5.2-3.2c-1.7-1.4-3.2-3.1-4.4-5.3c-1.3-2.2-2.3-4.9-3.1-8.1c-0.8-3.2-1.2-6.9-1.2-11.3
		V339.6z M354.6,387.8c0,4.1,0.7,7.1,2.2,8.9c1.5,1.9,3.8,2.8,6.8,2.8c3,0,5.2-0.9,6.7-2.8s2.2-4.8,2.2-8.9v-53.6
		c0-4.3-0.7-7.5-2.2-9.5c-1.5-2-3.7-3-6.7-3c-3.1,0-5.3,1-6.8,3c-1.5,2-2.2,5.1-2.2,9.5V387.8z"/>
	<path d="M421.6,364.7c-2.2,0-4.4-0.3-6.6-0.9c-2.2-0.6-4.2-1.8-6-3.6c-1.8-1.8-3.3-4.3-4.4-7.7c-1.1-3.3-1.7-7.6-1.7-13v-6.2
		c0-3.5,0.3-6.6,0.8-9.1c0.5-2.6,1.3-4.8,2.2-6.6c0.9-1.8,2-3.3,3.3-4.4c1.2-1.1,2.6-2,3.9-2.6c1.4-0.6,2.8-1,4.3-1.3
		c1.4-0.2,2.9-0.3,4.3-0.3c1.3,0,2.7,0.1,4.1,0.3c1.4,0.2,2.8,0.6,4.2,1.2c1.4,0.6,2.7,1.5,3.9,2.6c1.2,1.1,2.3,2.6,3.2,4.4
		c0.9,1.8,1.7,4,2.2,6.6c0.5,2.6,0.8,5.7,0.8,9.2v6.2c0,5.3-0.6,9.6-1.8,12.9s-2.7,5.9-4.5,7.7c-1.8,1.8-3.8,3-6,3.7
		C425.6,364.4,423.5,364.7,421.6,364.7z M421.7,355.5c2.4,0,4.1-1.1,5.1-3.2c1-2.1,1.4-5.4,1.4-9.8v-11.3c0-4.5-0.5-7.8-1.4-9.9
		c-1-2.1-2.7-3.2-5.1-3.2c-2.6,0-4.3,1.1-5.4,3.2c-1,2.1-1.5,5.4-1.5,9.9v11.3c0,4.4,0.5,7.7,1.5,9.8
		C417.4,354.5,419.2,355.5,421.7,355.5z M456.8,310.2h10.5l-26.6,100.1h-10.6L456.8,310.2z M456.9,379.8c0-5.3,0.6-9.5,1.8-12.7
		c1.2-3.2,2.7-5.6,4.5-7.4s3.9-2.9,6.1-3.4c2.2-0.6,4.3-0.8,6.4-0.8c1.3,0,2.7,0.1,4.1,0.3c1.4,0.2,2.8,0.6,4.2,1.2
		c1.4,0.6,2.7,1.5,3.9,2.6c1.2,1.1,2.3,2.6,3.2,4.4c0.9,1.8,1.7,4,2.2,6.6c0.5,2.6,0.8,5.7,0.8,9.2v6.2c0,3.6-0.3,6.6-0.8,9.3
		c-0.6,2.6-1.3,4.9-2.3,6.7c-0.9,1.9-2,3.4-3.3,4.6c-1.2,1.2-2.5,2.1-3.9,2.8c-1.4,0.7-2.8,1.2-4.2,1.4c-1.4,0.2-2.8,0.4-4.1,0.4
		c-1.5,0-2.9-0.1-4.4-0.4c-1.5-0.2-2.9-0.7-4.3-1.4c-1.4-0.7-2.7-1.6-3.9-2.8c-1.2-1.2-2.3-2.7-3.2-4.6s-1.6-4.1-2.1-6.8
		c-0.5-2.6-0.8-5.8-0.8-9.4V379.8z M468.8,389c0,4.4,0.5,7.7,1.5,9.8c1,2.1,2.8,3.2,5.4,3.2c2.4,0,4.1-1.1,5.1-3.2s1.4-5.4,1.4-9.8
		v-11.3c0-4.5-0.5-7.8-1.4-9.9c-1-2.1-2.7-3.2-5.1-3.2c-2.6,0-4.3,1.1-5.4,3.2c-1,2.1-1.5,5.4-1.5,9.9V389z"/>
</g>
</svg>
