<?xml version="1.0" encoding="utf-8"?>
<!-- Generator: Adobe Illustrator 28.0.0, SVG Export Plug-In . SVG Version: 6.00 Build 0)  -->
<svg version="1.1" id="Layer_1" xmlns:xodm="http://www.corel.com/coreldraw/odm/2003"
	 xmlns="http://www.w3.org/2000/svg" xmlns:xlink="http://www.w3.org/1999/xlink" x="0px" y="0px" viewBox="0 0 720 720"
	 style="enable-background:new 0 0 720 720;" xml:space="preserve">
<path d="M255.3,537.2c0-5.6,1-9.8,4.6-13.9c29.6-33,58.9-66.3,88.2-99.5c7.4-8.3,14.7-16.7,21.9-25.2c1.4-1.7,2.5-1.3,4.1-0.6
	c4.9,2.4,16.3,4.6,16.3,4.6s-2.6,3.9-4.3,5.5c-12.1,11.9-24.3,23.7-36.3,35.6C319.5,473.6,256.8,535.6,255.3,537.2z"/>
<path d="M450.7,415.2c0,0,19.5-28.3,27.3-40c1.3-1.9,1.8-4.6,1.8-6.9c0.1-7.8,3.5-13.5,8.9-19.1c13.5-14,40.8-43.8,40.8-43.8
	l-17.6,36.9c0,0,67.1-65.6,100.2-98.7c0.3,0.2,0.5,0.5,0.8,0.7C559.2,301.6,450.7,415.2,450.7,415.2z"/>
<polygon points="281.7,481 276.1,485.8 244.2,453.9 249.1,448.3 265,465.3 "/>
<path d="M242.4,545.3c0.1,0.8-0.1,5.9-2.7,8.4c-7.9,7.5-15.6,15.2-23.4,22.8c-0.7,0.7-1.5,1.3-2.7,1.4
	C223.7,566.4,233.1,555.8,242.4,545.3z"/>
<path d="M246.1,546.9c1.2-5.4-0.2-10.9,4.5-14.5C252,536.6,250,543.7,246.1,546.9z"/>
<path d="M662.5,67.2c-0.6,0.9-1.2,2-2,3.3c-9.3,15-32.1,51.9-44.5,71.6c-0.4,0.7-6.1,0.5-9.5,0.2c2.2,0.7,5.7,3.9-2.3,18.4
	c-6.7,12.2-12.7,24.6-19.4,37.7l0,0c7.2-1.7,20.5-5,20.5-5l0,0c0,0-47.9,24.9-48.4,25.2l0,0l47.4-92.7l13.5-3.1l0,0
	c0,0,3.8-3.6,6.9-8.6c3.5-5.7,10.7-17.6,14-23.1c-5.6,3.3-17.5,10.4-23.1,14c-5,3.1-8.6,6.9-8.6,6.9l0,0l-3.1,13.5l-92.7,47.4l0,0
	c0.3-0.6,25.2-48.4,25.2-48.4l0,0c0,0-3.2,13.3-5,20.5l0,0c13.1-6.7,25.6-12.8,37.7-19.4c14.5-8,17.7-4.5,18.4-2.3
	c-0.4-3.3-0.5-9.1,0.2-9.5c19.7-12.4,56.6-35.2,71.6-44.5C660.5,68.5,661.6,67.8,662.5,67.2z"/>
<polygon points="296.3,466.4 290.7,471.2 258.6,439.1 263.4,433.4 279.5,450.6 279.5,450.6 "/>
<polygon points="259.3,486.5 59.8,671.2 246.2,473.5 "/>
<path d="M192.6,474.5c5.6,0,9.8-1,13.9-4.6c33-29.6,66.3-58.9,99.5-88.2c8.3-7.4,16.7-14.7,25.2-21.9c1.7-1.4,1.3-2.5,0.6-4.1
	c-2.4-4.9-4.6-16.3-4.6-16.3s-3.9,2.6-5.5,4.3C309.8,355.8,298,368,286.1,380C256.1,410.3,194.2,473,192.6,474.5z"/>
<path d="M314.6,279.1c0,0,28.3-19.5,40-27.3c1.9-1.3,4.6-1.8,6.9-1.8c7.8-0.1,13.5-3.5,19.1-8.9c14-13.5,43.8-40.8,43.8-40.8
	l-36.9,17.6c0,0,65.6-67.1,98.7-100.2c-0.2-0.3-0.5-0.5-0.7-0.8C428.2,170.6,314.6,279.1,314.6,279.1z"/>
<path d="M184.4,487.4c-0.8-0.1-5.9,0.1-8.4,2.7c-7.5,7.9-15.2,15.6-22.8,23.4c-0.7,0.7-1.3,1.5-1.4,2.7
	C163.4,506,174,496.7,184.4,487.4z"/>
<path d="M182.9,483.7c5.4-1.2,10.9,0.2,14.5-4.5C193.1,477.8,186.1,479.8,182.9,483.7z"/>
<path d="M625,194.5c-0.9,0.7-31.2,23.5-46.5,35.1c-0.1-0.4-4.1-1.5-5.5-1.2c-11.8,3.3-47.4,13.4-47.4,13.4s20.6-43.7,32.8-69.5
	c0.3-0.5,0.5-1.1,0.7-1.6c-0.5,0.2-1,0.5-1.6,0.7c-25.8,12.2-69.5,32.8-69.5,32.8s10-35.6,13.4-47.5c0.4-1.4-0.8-5.4-1.2-5.5
	c11.3-15,33.6-44.6,35-46.4c-3.8,3.6-157.4,152.4-234.4,227.6c0.2,0.3,159.5-71.8,175.5-79c-7.2,16-79.3,175.3-79,175.5
	C472.9,351.6,622.7,196.9,625,194.5z M485.6,228.7c0.1-0.9,1-1.9,1.8-2.3c12-6.7,24-13.3,36-19.9c-6.6,12-13.2,24-19.9,36
	c-0.4,0.8-1.5,1.7-2.3,1.8c-5.9,1-11.8,1.8-18.4,2.8C483.7,240.4,484.5,234.5,485.6,228.7z M476.2,219.4
	c-10,9.8-19.8,19.7-29.8,29.5c-1.3,1.3-3,2.4-4.7,3.1c-11.8,4.4-41.5,15.2-42.5,15.5c1.3-1.1,54.2-46,81.8-68.7
	c-0.4,4.8-1,8.7-1.1,12.6C479.9,214.7,478.6,217.1,476.2,219.4z M477.8,288c0.6-1.7,1.8-3.4,3.1-4.7c9.8-10,19.7-19.8,29.5-29.8
	c2.3-2.4,4.7-3.6,8-3.7c3.9-0.1,7.9-0.6,12.6-1.1c-23,27.9-68.7,81.8-68.7,81.8S473.3,300,477.8,288z"/>
<path d="M449.8,279.9c-0.1,0.2-0.1,0.4-0.2,0.6c-2.1,5.9-4.1,11.4-6.2,17c-0.1,0.2-10.1,23.5-20.4,31.5
	c-9.3,7.2-13.5,17.7-18.7,27.7s-10.6,20-15.7,30.1c-1.2,2.3-2.4,2.9-4.7,2c-1.8-0.7-3.6-1.2-6-2c4.2-8.6,12.8-25.8,13.3-26.9
	c-1.7,1.6-57.4,53.6-84.5,79.1c-3.6,3.3-12.8,11.2-12.8,11.2l-14.4-14.4c0,0,7.9-9.2,11.2-12.8c25.7-27.3,78.1-83.4,79.2-84.5
	c-0.6,0.3-18.2,9-26.9,13.3c-0.8-2.4-1.3-4.2-2-6c-0.9-2.3-0.3-3.5,2-4.7c10.1-5.1,20.1-10.5,30.1-15.7c9.9-5.2,20.5-9.4,27.7-18.7
	c8-10.3,31.3-20.4,31.5-20.4c5.6-2,11.1-4,17-6.2C449.4,280.1,449.6,280,449.8,279.9z"/>
</svg>
