<?xml version="1.0" encoding="utf-8"?>
<!-- Generator: Adobe Illustrator 28.0.0, SVG Export Plug-In . SVG Version: 6.00 Build 0)  -->
<svg version="1.1" id="Layer_1" xmlns:xodm="http://www.corel.com/coreldraw/odm/2003"
	 xmlns="http://www.w3.org/2000/svg" xmlns:xlink="http://www.w3.org/1999/xlink" x="0px" y="0px" viewBox="0 0 720 720"
	 style="enable-background:new 0 0 720 720;" xml:space="preserve">
<style type="text/css">
	.st0{fill-rule:evenodd;clip-rule:evenodd;fill:#FFD93E;}
	.st1{fill-rule:evenodd;clip-rule:evenodd;fill:#F9F9F9;}
	.st2{fill-rule:evenodd;clip-rule:evenodd;}
</style>
<path class="st0" d="M340.7,108c10.1-17.5,35.3-17.5,45.3,0l138,238.9l139.6,242c9.3,16.2-2.3,36.3-20.9,36.3H363.4H84
	c-18.6,0-30.2-20.1-20.9-36.3l139.6-242L340.7,108z"/>
<path class="st1" d="M645.9,594.6L508.2,356L370.4,117.4c-3.1-5.4-10.9-5.4-14,0L218.6,356L80.9,594.6c-3.1,5.4,0.8,12.1,7,12.1
	h275.5h275.5C645.1,606.7,649,599.9,645.9,594.6z M636.6,601.2H363.4H90.2c-2.8,0-4.5-3-3.1-5.4l136.6-236.6l136.6-236.6
	c1.3-2.4,4.8-2.4,6.2,0L503,359.2l136.6,236.6C641.1,598.1,639.4,601.2,636.6,601.2z"/>
<path class="st2" d="M645.9,594.5L508.1,356L370.3,117.4c-3.1-5.4-10.9-5.4-14,0L218.6,356L80.9,594.6c-3.1,5.4,0.8,12.1,7,12.1
	l275.5-0.1l275.5-0.1C645.1,606.6,649,599.9,645.9,594.5z M630.1,595.7H363.3H96.6c-2.7,0-4.4-2.9-3.1-5.3l133.4-231l133.4-231
	c1.3-2.4,4.7-2.4,6,0l133.4,231l133.4,231C634.5,592.8,632.8,595.7,630.1,595.7z"/>
<polygon points="412.8,448 466.8,502 417.3,551.5 363.3,497.5 309.3,551.5 259.9,502 313.9,448 259.9,394 309.3,344.6 363.3,398.6 
	417.3,344.6 466.8,394 "/>
</svg>
