<?xml version="1.0" encoding="utf-8"?>
<!-- Generator: Adobe Illustrator 28.0.0, SVG Export Plug-In . SVG Version: 6.00 Build 0)  -->
<svg version="1.1" id="Layer_1" xmlns:xodm="http://www.corel.com/coreldraw/odm/2003"
	 xmlns="http://www.w3.org/2000/svg" xmlns:xlink="http://www.w3.org/1999/xlink" x="0px" y="0px" viewBox="0 0 720 720"
	 style="enable-background:new 0 0 720 720;" xml:space="preserve">
<style type="text/css">
	.st0{fill:none;stroke:#FFFFFF;stroke-width:1.3184;stroke-miterlimit:10;}
	.st1{fill:#FFFFFF;}
</style>
<g>
	<polygon points="663.3,334 663.3,338.2 590,265 594.2,265 	"/>
</g>
<polygon points="663.3,382.9 594.2,452 98.6,452 98.6,265 545.3,265 "/>
<polygon points="79.8,452 59.8,419.7 59.8,288.9 79.8,265 "/>
<polygon points="93.5,260.1 93.5,456.9 170.9,456.9 170.9,465.1 85.3,465.1 85.3,251.9 170.9,251.9 170.9,260.1 "/>
<g>
	<g>
		<polygon points="663.3,334 663.3,338.2 590,265 594.2,265 		"/>
	</g>
</g>
<g>
	<polygon points="663.3,341.7 663.3,345.9 582.3,265 586.5,265 	"/>
</g>
<g>
	<polygon points="663.3,349.7 663.3,354 574.3,265 578.5,265 	"/>
</g>
<g>
	<polygon points="663.3,357.8 663.3,362 566.2,265 570.4,265 	"/>
</g>
<g>
	<polygon points="663.3,365.9 663.3,370.1 558.2,265 562.4,265 	"/>
</g>
<g>
	<polygon points="663.3,373.9 663.3,378.1 550.1,265 554.3,265 	"/>
</g>
<line class="st0" x1="582.3" y1="392.8" x2="130.2" y2="392.8"/>
<g>
	<path d="M189,397.6v7.5h-1.9v-7.5H189z"/>
	<path d="M191.8,402.2v2.8h-1.9v-7.5h5.1l0.9,0.9v2.8l-0.9,0.9H191.8z M191.8,399.4v0.9h2.3v-0.9H191.8z"/>
	<path d="M198.6,399.4v0.9h3.3l0.9,0.9v2.8l-0.9,0.9h-5.1v-1.9h4.2v-0.9h-3.3l-0.9-0.9v-2.8l0.9-0.9h5.1v1.9H198.6z"/>
	<path d="M205.5,397.6v5.6h2.3v-5.6h1.9v6.5l-0.9,0.9h-4.2l-0.9-0.9v-6.5H205.5z"/>
	<path d="M210.6,397.6h1.7l2.3,5.7l2.3-5.7h1.7v7.5h-1.9v-2.8l-1.1,2.8h-2l-1.1-2.8v2.8h-1.9V397.6z"/>
</g>
<path class="st1" d="M163.5,357.7l-7.4-7.4v-44.2l7.4-7.4h33.2l7.4,7.4v14.8h-14.8v-7.4h-18.5v29.4h18.5v-7.4h14.8v14.7l-7.4,7.4
	H163.5z"/>
<path class="st1" d="M232.3,319l-12.1,38.6h-14.3l18.5-58.9h15.9l18.5,58.9h-14.3L232.3,319z"/>
<path class="st1" d="M277,298.7v44.2h18.4v-44.2h14.8v51.6l-7.4,7.4h-33.1l-7.4-7.4v-51.6H277z"/>
<path class="st1" d="M333.6,313.5h-17.2v-14.8h47.9v14.8h-16v44.2h-14.7V313.5z"/>
<path class="st1" d="M385.4,298.7v59h-14.8v-59H385.4z"/>
<path class="st1" d="M399.1,357.7l-7.4-7.4v-44.2l7.4-7.4h33.1l7.4,7.4v44.2l-7.4,7.4H399.1z M406.4,313.5v29.4h18.4v-29.4H406.4z"
	/>
<path class="st1" d="M446.7,298.7h13.5l23.3,39.9v-39.9h14.8v59H481L461.4,324v33.7h-14.8V298.7z"/>
<path class="st1" d="M521.3,298.7v40.5h-14.8v-40.5H521.3z M521.3,342.9v14.8h-14.8v-14.8H521.3z"/>
<path class="st1" d="M179,405.9l4.8,7.7l4.8-7.7h9.6l-9.6,15.3l9.6,15.4h-9l-5.1-8.2l-5.1,8.2h-9.6l9.9-15.8l-9.3-14.8H179z"/>
<path class="st1" d="M218.3,419.2v7.1h-19.5v-7.1H218.3z"/>
<path class="st1" d="M228.3,425.1v11.5h-7.7v-30.7h21.1l3.8,3.8v11.5l-3.8,3.8h-2.9l6.7,11.5h-7.7l-6.7-11.5H228.3z M228.3,413.6
	v3.8h9.5v-3.8H228.3z"/>
<path class="st1" d="M259.8,416.5l-6.3,20.1h-7.4l9.6-30.6h8.3l9.6,30.6h-7.4L259.8,416.5z"/>
<path class="st1" d="M277.7,421.2l-9.6-15.3h7.7l5.7,9.2l5.4-9.2h7.4l-9,15.3v15.4h-7.7V421.2z"/>
<path class="st1" d="M315.9,425.1v11.5h-7.7v-30.7h21.1l3.8,3.8v11.5l-3.8,3.8h-2.9l6.7,11.5h-7.7l-6.7-11.5H315.9z M315.9,413.6
	v3.8h9.5v-3.8H315.9z"/>
<path class="st1" d="M347.5,416.5l-6.3,20.1h-7.4l9.6-30.6h8.3l9.6,30.6h-7.4L347.5,416.5z"/>
<path class="st1" d="M363,436.5v-30.7h21.1l3.8,3.8v23l-3.8,3.8H363z M370.7,413.6v15.3h9.6v-15.3H370.7z"/>
<path class="st1" d="M399.4,405.9v30.7h-7.7v-30.7H399.4z"/>
<path class="st1" d="M414,416.5l-6.3,20.1h-7.4l9.6-30.6h8.3l9.6,30.6h-7.4L414,416.5z"/>
<path class="st1" d="M433.1,413.6h-9v-7.7H449v7.7h-8.3v23h-7.6V413.6z"/>
<path class="st1" d="M460.1,405.9v30.7h-7.7v-30.7H460.1z"/>
<path class="st1" d="M467.1,436.6l-3.8-3.8v-23l3.8-3.8h17.2l3.8,3.8v23l-3.8,3.8H467.1z M471,413.6v15.3h9.5v-15.3H471z"/>
<path class="st1" d="M491.9,405.9h7l12.1,20.8v-20.8h7.7v30.7h-9l-10.2-17.5v17.5h-7.7V405.9z"/>
</svg>
