<?xml version="1.0" encoding="utf-8"?>
<!-- Generator: Adobe Illustrator 28.0.0, SVG Export Plug-In . SVG Version: 6.00 Build 0)  -->
<svg version="1.1" id="Layer_1" xmlns:xodm="http://www.corel.com/coreldraw/odm/2003"
	 xmlns="http://www.w3.org/2000/svg" xmlns:xlink="http://www.w3.org/1999/xlink" x="0px" y="0px" viewBox="0 0 720 720"
	 style="enable-background:new 0 0 720 720;" xml:space="preserve">
<style type="text/css">
	.st0{fill:#F6B24A;}
</style>
<path class="st0" d="M671.2,372.1H50.3c-5.9,0-10.7-4.8-10.7-10.7v-42.9c0-5.9,4.8-10.7,10.7-10.7h620.9c5.9,0,10.7,4.8,10.7,10.7
	v42.9C681.9,367.2,677.1,372.1,671.2,372.1z M50.3,313c-3,0-5.5,2.5-5.5,5.5v42.9c0,3,2.5,5.5,5.5,5.5h620.9c3,0,5.5-2.5,5.5-5.5
	v-42.9c0-3-2.5-5.5-5.5-5.5H50.3z"/>
<g>
	<rect x="47.6" y="314.4" class="st0" width="8.6" height="51.1"/>
</g>
<g>
	<rect x="58.1" y="314.4" class="st0" width="8.6" height="51.1"/>
</g>
<g>
	<rect x="68.6" y="314.4" class="st0" width="8.6" height="51.1"/>
</g>
<g>
	<rect x="79" y="314.4" class="st0" width="8.6" height="51.1"/>
</g>
<g>
	<rect x="89.5" y="314.4" class="st0" width="8.6" height="51.1"/>
</g>
<g>
	<rect x="99.9" y="314.4" class="st0" width="8.6" height="51.1"/>
</g>
<g>
	<rect x="110.4" y="314.4" class="st0" width="8.6" height="51.1"/>
</g>
<g>
	<rect x="120.9" y="314.4" class="st0" width="8.6" height="51.1"/>
</g>
<g>
	<rect x="131.3" y="314.4" class="st0" width="8.6" height="51.1"/>
</g>
<g>
	<rect x="141.8" y="314.4" class="st0" width="8.6" height="51.1"/>
</g>
<g>
	<rect x="152.3" y="314.4" class="st0" width="8.6" height="51.1"/>
</g>
<g>
	<rect x="162.7" y="314.4" class="st0" width="8.6" height="51.1"/>
</g>
<g>
	<rect x="173.2" y="314.4" class="st0" width="8.6" height="51.1"/>
</g>
<g>
	<rect x="183.7" y="314.4" class="st0" width="8.6" height="51.1"/>
</g>
<g>
	<rect x="194.1" y="314.4" class="st0" width="8.6" height="51.1"/>
</g>
<g>
	<rect x="204.6" y="314.4" class="st0" width="8.6" height="51.1"/>
</g>
<g>
	<rect x="215.1" y="314.4" class="st0" width="8.6" height="51.1"/>
</g>
<g>
	<rect x="225.5" y="314.4" class="st0" width="8.6" height="51.1"/>
</g>
<g>
	<rect x="236" y="314.4" class="st0" width="8.6" height="51.1"/>
</g>
<g>
	<rect x="246.5" y="314.4" class="st0" width="8.6" height="51.1"/>
</g>
<g>
	<rect x="256.9" y="314.4" class="st0" width="8.6" height="51.1"/>
</g>
<g>
	<rect x="267.4" y="314.4" class="st0" width="8.6" height="51.1"/>
</g>
<g>
	<rect x="277.9" y="314.4" class="st0" width="8.6" height="51.1"/>
</g>
<g>
	<rect x="288.3" y="314.4" class="st0" width="8.6" height="51.1"/>
</g>
<g>
	<rect x="298.8" y="314.4" class="st0" width="8.6" height="51.1"/>
</g>
<g>
	<rect x="309.3" y="314.4" class="st0" width="8.6" height="51.1"/>
</g>
<g>
	<rect x="319.7" y="314.4" class="st0" width="8.6" height="51.1"/>
</g>
<g>
	<rect x="330.2" y="314.4" class="st0" width="8.6" height="51.1"/>
</g>
<g>
	<rect x="340.6" y="314.4" class="st0" width="8.6" height="51.1"/>
</g>
<g>
	<rect x="351.1" y="314.4" class="st0" width="8.6" height="51.1"/>
</g>
<g>
	<rect x="361.6" y="314.4" class="st0" width="8.6" height="51.1"/>
</g>
<g>
	<rect x="372" y="314.4" class="st0" width="8.6" height="51.1"/>
</g>
<g>
	<rect x="382.5" y="314.4" class="st0" width="8.6" height="51.1"/>
</g>
<g>
	<rect x="393" y="314.4" class="st0" width="8.6" height="51.1"/>
</g>
<g>
	<rect x="403.4" y="314.4" class="st0" width="8.6" height="51.1"/>
</g>
<g>
	<rect x="413.9" y="314.4" class="st0" width="8.6" height="51.1"/>
</g>
<g>
	<rect x="424.4" y="314.4" class="st0" width="8.6" height="51.1"/>
</g>
<g>
	<rect x="434.8" y="314.4" class="st0" width="8.6" height="51.1"/>
</g>
<g>
	<rect x="445.3" y="314.4" class="st0" width="8.6" height="51.1"/>
</g>
<g>
	<rect x="455.8" y="314.4" class="st0" width="8.6" height="51.1"/>
</g>
<g>
	<rect x="466.2" y="314.4" class="st0" width="8.6" height="51.1"/>
</g>
<g>
	<rect x="476.7" y="314.4" class="st0" width="8.6" height="51.1"/>
</g>
<g>
	<rect x="487.2" y="314.4" class="st0" width="8.6" height="51.1"/>
</g>
<g>
	<rect x="497.6" y="314.4" class="st0" width="8.6" height="51.1"/>
</g>
<g>
	<rect x="508.1" y="314.4" class="st0" width="8.6" height="51.1"/>
</g>
<g>
	<rect x="518.6" y="314.4" class="st0" width="8.6" height="51.1"/>
</g>
<g>
	<rect x="529" y="314.4" class="st0" width="8.6" height="51.1"/>
</g>
<g>
	<rect x="539.5" y="314.4" class="st0" width="8.6" height="51.1"/>
</g>
<g>
	<rect x="550" y="314.4" class="st0" width="8.6" height="51.1"/>
</g>
<g>
	<rect x="560.4" y="314.4" class="st0" width="8.6" height="51.1"/>
</g>
<g>
	<rect x="570.9" y="314.4" class="st0" width="8.6" height="51.1"/>
</g>
<g>
	<rect x="581.4" y="314.4" class="st0" width="8.6" height="51.1"/>
</g>
<g>
	<rect x="591.8" y="314.4" class="st0" width="8.6" height="51.1"/>
</g>
<g>
	<rect x="602.3" y="314.4" class="st0" width="8.6" height="51.1"/>
</g>
<g>
	<rect x="612.7" y="314.4" class="st0" width="8.6" height="51.1"/>
</g>
<g>
	<rect x="623.2" y="314.4" class="st0" width="8.6" height="51.1"/>
</g>
<g>
	<rect x="633.7" y="314.4" class="st0" width="8.6" height="51.1"/>
</g>
<g>
	<rect x="644.2" y="314.4" class="st0" width="8.6" height="51.1"/>
</g>
<g>
	<rect x="654.7" y="314.4" class="st0" width="8.6" height="51.1"/>
</g>
<g>
	<rect x="665.2" y="314.4" class="st0" width="8.6" height="51.1"/>
</g>
<path class="st0" d="M342.4,296.6c0-0.6,0.1-1.2,0.2-1.7s0.3-0.9,0.6-1.3c0.2-0.4,0.5-0.7,0.9-1c0.3-0.3,0.7-0.5,1.1-0.7v-0.1
	c-0.3-0.2-0.6-0.3-0.8-0.6c-0.3-0.2-0.5-0.5-0.8-0.8c-0.2-0.3-0.4-0.7-0.6-1.2c-0.1-0.5-0.2-1-0.2-1.6v-1.5c0-0.7,0.1-1.3,0.3-1.8
	c0.2-0.5,0.4-1,0.7-1.3c0.3-0.4,0.6-0.7,1-0.9c0.4-0.2,0.7-0.4,1.1-0.5s0.8-0.2,1.2-0.3c0.4,0,0.7-0.1,1.1-0.1c0.3,0,0.7,0,1.1,0.1
	c0.4,0,0.8,0.1,1.2,0.3c0.4,0.1,0.8,0.3,1.1,0.5c0.4,0.2,0.7,0.5,1,0.9s0.5,0.8,0.7,1.3s0.3,1.1,0.3,1.8v1.5c0,0.6-0.1,1.1-0.2,1.6
	s-0.3,0.9-0.6,1.2c-0.2,0.3-0.5,0.6-0.8,0.8c-0.3,0.2-0.6,0.4-0.8,0.6v0.1c0.4,0.2,0.8,0.4,1.1,0.7c0.3,0.3,0.6,0.6,0.9,1
	c0.2,0.4,0.4,0.8,0.6,1.3c0.1,0.5,0.2,1.1,0.2,1.7v1.3c0,0.7-0.1,1.4-0.2,2c-0.2,0.6-0.4,1-0.6,1.5c-0.3,0.4-0.6,0.7-0.9,1
	c-0.4,0.3-0.7,0.5-1.2,0.6c-0.4,0.2-0.8,0.3-1.3,0.3c-0.4,0.1-0.9,0.1-1.3,0.1s-0.9,0-1.3-0.1s-0.9-0.2-1.3-0.3
	c-0.4-0.2-0.8-0.4-1.2-0.6c-0.4-0.3-0.7-0.6-0.9-1c-0.3-0.4-0.5-0.9-0.6-1.4c-0.2-0.6-0.2-1.2-0.2-2v-1.4H342.4z M345.8,298.2
	c0,0.6,0.1,1,0.2,1.4s0.3,0.6,0.5,0.8c0.2,0.2,0.4,0.3,0.7,0.4c0.3,0.1,0.5,0.1,0.8,0.1s0.6,0,0.8-0.1c0.3-0.1,0.5-0.2,0.7-0.4
	c0.2-0.2,0.4-0.5,0.5-0.8c0.1-0.4,0.2-0.8,0.2-1.4v-2.4c0-0.5,0-0.9-0.1-1.2c-0.1-0.3-0.2-0.6-0.4-0.8c-0.2-0.2-0.4-0.4-0.7-0.5
	c-0.3-0.1-0.5-0.1-0.8-0.1h-0.3c-0.6,0-1.1,0.2-1.5,0.6s-0.5,1.1-0.5,2v2.4H345.8z M348.1,290.8c0.2,0,0.5,0,0.7-0.1
	s0.4-0.2,0.6-0.4c0.2-0.2,0.3-0.5,0.4-0.8s0.1-0.7,0.1-1.2v-1.8c0-0.9-0.2-1.6-0.5-2.1s-0.8-0.7-1.5-0.7s-1.2,0.2-1.5,0.7
	s-0.4,1.2-0.4,2.1v1.8c0,0.5,0,0.9,0.1,1.2c0.1,0.3,0.2,0.6,0.4,0.8c0.2,0.2,0.3,0.3,0.6,0.4c0.2,0.1,0.5,0.1,0.7,0.1H348.1z"/>
<path class="st0" d="M355.9,287.7c0-1,0.1-1.8,0.3-2.5c0.2-0.7,0.4-1.3,0.7-1.7c0.3-0.5,0.6-0.9,1-1.1c0.4-0.3,0.8-0.5,1.2-0.7
	c0.4-0.2,0.8-0.3,1.2-0.3c0.4-0.1,0.8-0.1,1.1-0.1c0.3,0,0.7,0,1.1,0.1s0.8,0.1,1.2,0.3c0.4,0.1,0.8,0.4,1.1,0.7
	c0.4,0.3,0.7,0.7,1,1.1c0.3,0.5,0.5,1.1,0.7,1.8c0.2,0.7,0.3,1.5,0.3,2.5v9.2c0,1-0.1,1.8-0.3,2.5c-0.2,0.7-0.4,1.3-0.7,1.8
	c-0.3,0.5-0.6,0.9-1,1.2c-0.4,0.3-0.8,0.5-1.1,0.7c-0.4,0.2-0.8,0.3-1.2,0.3c-0.4,0.1-0.7,0.1-1,0.1s-0.7,0-1.1-0.1
	s-0.8-0.2-1.2-0.3c-0.4-0.2-0.8-0.4-1.2-0.7c-0.4-0.3-0.7-0.7-1-1.2s-0.5-1.1-0.7-1.8c-0.2-0.7-0.3-1.5-0.3-2.5v-9.3H355.9z
	 M359.3,298.3c0,0.9,0.2,1.6,0.5,2s0.8,0.6,1.5,0.6s1.1-0.2,1.5-0.6c0.3-0.4,0.5-1.1,0.5-2v-11.8c0-1-0.2-1.6-0.5-2.1
	c-0.3-0.4-0.8-0.6-1.5-0.6s-1.2,0.2-1.5,0.6s-0.5,1.1-0.5,2.1V298.3z"/>
<path class="st0" d="M374.1,293.2c-0.5,0-1-0.1-1.5-0.2s-0.9-0.4-1.3-0.8s-0.7-1-1-1.7c-0.2-0.7-0.4-1.7-0.4-2.9v-1.4
	c0-0.8,0.1-1.4,0.2-2s0.3-1,0.5-1.4s0.4-0.7,0.7-1c0.3-0.2,0.6-0.4,0.9-0.6c0.3-0.1,0.6-0.2,0.9-0.3c0.3-0.1,0.6-0.1,0.9-0.1
	s0.6,0,0.9,0.1c0.3,0,0.6,0.1,0.9,0.3c0.3,0.1,0.6,0.3,0.9,0.6c0.3,0.2,0.5,0.6,0.7,1s0.4,0.9,0.5,1.5s0.2,1.2,0.2,2v1.4
	c0,1.2-0.1,2.1-0.4,2.8c-0.3,0.7-0.6,1.3-1,1.7c-0.4,0.4-0.8,0.7-1.3,0.8C374.9,293.1,374.5,293.2,374.1,293.2z M374.1,291.2
	c0.5,0,0.9-0.2,1.1-0.7s0.3-1.2,0.3-2.2v-2.5c0-1-0.1-1.7-0.3-2.2c-0.2-0.5-0.6-0.7-1.1-0.7c-0.6,0-1,0.2-1.2,0.7s-0.3,1.2-0.3,2.2
	v2.5c0,1,0.1,1.7,0.3,2.2C373.1,291,373.5,291.2,374.1,291.2z M381.8,281.2h2.3l-5.9,22h-2.3L381.8,281.2z M381.8,296.5
	c0-1.2,0.1-2.1,0.4-2.8c0.3-0.7,0.6-1.2,1-1.6s0.8-0.6,1.3-0.8c0.5-0.1,1-0.2,1.4-0.2c0.3,0,0.6,0,0.9,0.1c0.3,0,0.6,0.1,0.9,0.3
	c0.3,0.1,0.6,0.3,0.9,0.6c0.3,0.2,0.5,0.6,0.7,1s0.4,0.9,0.5,1.5s0.2,1.2,0.2,2v1.4c0,0.8-0.1,1.5-0.2,2c-0.1,0.6-0.3,1.1-0.5,1.5
	s-0.4,0.7-0.7,1c-0.3,0.3-0.6,0.5-0.9,0.6c-0.3,0.2-0.6,0.3-0.9,0.3c-0.3,0.1-0.6,0.1-0.9,0.1s-0.6,0-1-0.1
	c-0.3-0.1-0.6-0.2-0.9-0.3c-0.3-0.1-0.6-0.3-0.9-0.6c-0.3-0.3-0.5-0.6-0.7-1s-0.4-0.9-0.5-1.5s-0.2-1.3-0.2-2.1v-1.4H381.8z
	 M384.4,298.5c0,1,0.1,1.7,0.3,2.2c0.2,0.5,0.6,0.7,1.2,0.7c0.5,0,0.9-0.2,1.1-0.7s0.3-1.2,0.3-2.2V296c0-1-0.1-1.7-0.3-2.2
	c-0.2-0.5-0.6-0.7-1.1-0.7c-0.6,0-1,0.2-1.2,0.7s-0.3,1.2-0.3,2.2V298.5z"/>
</svg>
