<?xml version="1.0" encoding="utf-8"?>
<!-- Generator: Adobe Illustrator 28.0.0, SVG Export Plug-In . SVG Version: 6.00 Build 0)  -->
<svg version="1.1" id="Layer_1" xmlns:xodm="http://www.corel.com/coreldraw/odm/2003"
	 xmlns="http://www.w3.org/2000/svg" xmlns:xlink="http://www.w3.org/1999/xlink" x="0px" y="0px" viewBox="0 0 720 720"
	 style="enable-background:new 0 0 720 720;" xml:space="preserve">
<style type="text/css">
	.st0{fill:#FFD93E;}
	.st1{fill:none;}
</style>
<rect x="62.5" y="320" class="st0" width="600.8" height="79"/>
<polygon points="62.5,359.5 71.5,359.5 87.8,320 73.4,320 62.5,346.4 "/>
<polygon points="96.3,359.5 81.9,359.5 98.2,320 112.6,320 "/>
<polygon points="121.1,359.5 106.7,359.5 123,320 137.4,320 "/>
<polygon points="145.9,359.5 131.5,359.5 147.8,320 162.2,320 "/>
<polygon points="170.7,359.5 156.3,359.5 172.6,320 187,320 "/>
<polygon points="195.5,359.5 181.1,359.5 197.4,320 211.8,320 "/>
<polygon points="220.3,359.5 206,359.5 222.3,320 236.6,320 "/>
<polygon points="245.2,359.5 230.8,359.5 247.1,320 261.5,320 "/>
<polygon points="270,359.5 255.6,359.5 271.9,320 286.3,320 "/>
<polygon points="294.8,359.5 280.4,359.5 296.7,320 311.1,320 "/>
<polygon points="319.6,359.5 305.2,359.5 321.5,320 335.9,320 "/>
<polygon points="344.4,359.5 330,359.5 346.3,320 360.7,320 "/>
<polygon points="369.2,359.5 354.8,359.5 371.1,320 385.5,320 "/>
<polygon points="394,359.5 379.7,359.5 396,320 410.3,320 "/>
<polygon points="418.8,359.5 404.5,359.5 420.8,320 435.1,320 "/>
<polygon points="443.7,359.5 429.3,359.5 445.6,320 460,320 "/>
<polygon points="468.5,359.5 454.1,359.5 470.4,320 484.8,320 "/>
<polygon points="493.3,359.5 478.9,359.5 495.2,320 509.6,320 "/>
<polygon points="518.1,359.5 503.7,359.5 520,320 534.4,320 "/>
<polygon points="542.9,359.5 528.5,359.5 544.8,320 559.2,320 "/>
<polygon points="567.7,359.5 553.3,359.5 569.6,320 584,320 "/>
<polygon points="592.5,359.5 578.2,359.5 594.5,320 608.8,320 "/>
<polygon points="617.4,359.5 603,359.5 619.3,320 633.7,320 "/>
<polygon points="642.2,359.5 627.8,359.5 644.1,320 658.5,320 "/>
<polygon points="663.3,333.6 663.3,359.5 652.6,359.5 "/>
<line class="st1" x1="62.5" y1="359.5" x2="62.5" y2="346.4"/>
</svg>
