<?xml version="1.0" encoding="utf-8"?>
<!-- Generator: Adobe Illustrator 28.0.0, SVG Export Plug-In . SVG Version: 6.00 Build 0)  -->
<svg version="1.1" id="Layer_1" xmlns:xodm="http://www.corel.com/coreldraw/odm/2003"
	 xmlns="http://www.w3.org/2000/svg" xmlns:xlink="http://www.w3.org/1999/xlink" x="0px" y="0px" viewBox="0 0 720 720"
	 style="enable-background:new 0 0 720 720;" xml:space="preserve">
<style type="text/css">
	.st0{fill:#C10C0C;}
	.st1{fill:#FFFFFF;}
</style>
<polygon points="358.3,606.3 642.7,113.7 73.8,113.7 "/>
<g>
	<g>
		<polygon class="st0" points="642.7,113.7 619.5,154.1 599.3,154.1 622.7,113.7 		"/>
	</g>
	<g>
		<polygon class="st0" points="604.6,113.7 581.2,154.1 561.1,154.1 584.4,113.7 		"/>
	</g>
	<g>
		<polygon class="st0" points="566.4,113.7 543,154.1 522.8,154.1 546.2,113.7 		"/>
	</g>
	<g>
		<polygon class="st0" points="528.2,113.7 504.8,154.1 484.7,154.1 508,113.7 		"/>
	</g>
	<g>
		<polygon class="st0" points="489.9,113.7 466.6,154.1 446.4,154.1 469.8,113.7 		"/>
	</g>
	<g>
		<polygon class="st0" points="451.8,113.7 428.3,154.1 408.2,154.1 431.5,113.7 		"/>
	</g>
	<g>
		<polygon class="st0" points="413.5,113.7 390.2,154.1 370,154.1 393.4,113.7 		"/>
	</g>
	<g>
		<polygon class="st0" points="375.3,113.7 351.9,154.1 331.8,154.1 355.1,113.7 		"/>
	</g>
	<g>
		<polygon class="st0" points="337.1,113.7 313.7,154.1 293.5,154.1 316.9,113.7 		"/>
	</g>
	<g>
		<polygon class="st0" points="298.9,113.7 275.5,154.1 255.4,154.1 278.7,113.7 		"/>
	</g>
	<g>
		<polygon class="st0" points="260.6,113.7 237.3,154.1 217.1,154.1 240.5,113.7 		"/>
	</g>
	<polygon class="st0" points="222.5,113.7 199,154.1 178.9,154.1 202.2,113.7 	"/>
	<polygon class="st0" points="184.2,113.7 160.9,154.1 140.7,154.1 164.1,113.7 	"/>
	<polygon class="st0" points="146,113.7 125.5,149.1 122.6,154.1 102.5,154.1 105.3,149.1 125.8,113.7 	"/>
	<polygon class="st0" points="107.8,113.7 90.8,143.1 80.7,125.7 87.6,113.7 	"/>
</g>
<path class="st1" d="M172.9,249.1l-7.7-7.7v-46.2l7.7-7.7h34.7l7.7,7.7v15.4h-15.4v-7.7h-19.3v30.8h19.3V226h15.4v15.4l-7.7,7.7
	H172.9z"/>
<path class="st1" d="M244.8,208.7L232.1,249h-14.9l19.3-61.5h16.6l19.3,61.5h-14.9L244.8,208.7z"/>
<path class="st1" d="M291.4,187.5v46.2h19.2v-46.2h15.4v53.9l-7.7,7.7h-34.6l-7.7-7.7v-53.9H291.4z"/>
<path class="st1" d="M350.6,202.9h-18v-15.4h50v15.4h-16.7v46.2h-15.3V202.9z"/>
<path class="st1" d="M404.8,187.5v61.6h-15.4v-61.6H404.8z"/>
<path class="st1" d="M419,249.1l-7.7-7.7v-46.2l7.7-7.7h34.6l7.7,7.7v46.2l-7.7,7.7H419z M426.7,202.9v30.8h19.2v-30.8H426.7z"/>
<path class="st1" d="M468.8,187.5h14.1l24.3,41.7v-41.7h15.4v61.6h-18l-20.5-35.2v35.2h-15.4V187.5z"/>
<path class="st1" d="M546.8,187.5v42.3h-15.4v-42.3H546.8z M546.8,233.7v15.4h-15.4v-15.4H546.8z"/>
</svg>
