<?xml version="1.0" encoding="utf-8"?>
<!-- Generator: Adobe Illustrator 28.0.0, SVG Export Plug-In . SVG Version: 6.00 Build 0)  -->
<svg version="1.1" id="Layer_1" xmlns:xodm="http://www.corel.com/coreldraw/odm/2003"
	 xmlns="http://www.w3.org/2000/svg" xmlns:xlink="http://www.w3.org/1999/xlink" x="0px" y="0px" viewBox="0 0 720 720"
	 style="enable-background:new 0 0 720 720;" xml:space="preserve">
<style type="text/css">
	.st0{fill-rule:evenodd;clip-rule:evenodd;}
</style>
<path class="st0" d="M591.7,95.9H118.3c-20.1,0-36.4,17.3-36.4,38.6v327.3c0,21.3,16.3,38.6,36.4,38.6h473.4
	c20.1,0,36.4-17.3,36.4-38.6V134.5C628.1,113.2,611.8,95.9,591.7,95.9z M504.4,181.6l33.4-35l10.3,10.3l-37.6,39.5l-84.9-0.3
	l-0.3-14.8L504.4,181.6z M438,300.1l68.5,0.1c2.5-5.5,8-9.4,14.5-9.4c8.8,0,15.9,7.1,15.9,15.9s-7.1,15.9-15.9,15.9
	c-5.7,0-10.7-3-13.5-7.6l-62.1-0.3L428.9,335H294.3l-16.8-20.2H175v-62.9c-5.5-2.5-9.3-8-9.3-14.4c0-8.8,7.1-15.9,15.9-15.9
	s15.9,7.1,15.9,15.9c0,5.7-3.1,10.8-7.7,13.6v49.1l95.1-0.3l16.8,20.9l119.6-0.1L438,300.1z M389,301.2h-14.7V195.6H389V301.2z
	 M360.3,147.9c8.8,0,15.9,7.1,15.9,15.9s-7.1,15.9-15.9,15.9c-8.8,0-15.9-7.1-15.9-15.9S351.5,147.9,360.3,147.9z M329.3,195.6H344
	v105.6h-14.7V195.6z M174,147.2l33.4,35L277,182c2.8-4.6,7.8-7.7,13.6-7.7c8.8,0,15.9,7.1,15.9,15.9s-7.1,15.9-15.9,15.9
	c-6.4,0-11.9-3.8-14.4-9.2l-74.8,0.2l-37.6-39.4L174,147.2z M142.6,344h93.2c2.4-5.6,8.4-10.4,15.9-10.4s15.5,7.1,15.5,15.9
	s-8.5,15.9-15.5,15.9c-7.1,0-12.4-2.8-15.2-7.3h-94.3L142.6,344z M310.4,416.8H310v1.1l-101.5-0.4l-33.4,35l-10.3-10.3l37.6-39.4
	l93.3,0.2v-40.2h14.7V416.8z M355.2,443.4h-13.9v-15.1h13.9V443.4z M355.2,411.6h-13.9v-15.1h13.9V411.6z M355.2,380h-13.9v-15.1
	h13.9V380z M382.9,443.4H369v-15.1h13.9V443.4z M382.9,411.6H369v-15.1h13.9V411.6z M382.9,380H369v-15.1h13.9V380z M537.8,453
	l-33.4-34.9l-89.4,0.5l0.1-1h-0.5v-54h14.7v40.1l81.2-0.4l37.6,39.4L537.8,453z M571,373.4h-85.3c-2.8,4.7-7.4,8.9-14.5,8.9
	c-7.1,0-15.7-7.4-15.7-16.5c0-9.1,7-16.5,15.7-16.5c6.4,0,12,4,14.4,9.8H571V373.4z M571,252.9h-87.3c-2.8,4.4-7.7,7.4-13.4,7.4
	c-8.8,0-15.9-7.1-15.9-15.9c0-8.8,7.1-15.9,15.9-15.9c6.5,0,12,3.9,14.5,9.5H571V252.9z"/>
<path class="st0" d="M471.9,621.3H406V514.7H305v106.6h-64.7c-7,0-12.8,5.8-12.8,12.8l0,0c0,7,5.8,12.8,12.8,12.8h231.6
	c7,0,12.8-5.8,12.8-12.8l0,0C484.7,627,478.9,621.3,471.9,621.3z"/>
</svg>
