<?xml version="1.0" encoding="utf-8"?>
<!-- Generator: Adobe Illustrator 28.0.0, SVG Export Plug-In . SVG Version: 6.00 Build 0)  -->
<svg version="1.1" id="Layer_1" xmlns:xodm="http://www.corel.com/coreldraw/odm/2003"
	 xmlns="http://www.w3.org/2000/svg" xmlns:xlink="http://www.w3.org/1999/xlink" x="0px" y="0px" viewBox="0 0 720 720"
	 style="enable-background:new 0 0 720 720;" xml:space="preserve">
<style type="text/css">
	.st0{opacity:0.5;}
</style>
<ellipse cx="600.9" cy="361.9" rx="81" ry="37.5"/>
<ellipse transform="matrix(0.809 -0.5878 0.5878 0.809 -23.506 368.2369)" cx="554.9" cy="220.3" rx="81" ry="37.5"/>
<ellipse transform="matrix(0.309 -0.9511 0.9511 0.309 173.9215 504.8775)" cx="434.4" cy="132.7" rx="81" ry="37.5"/>
<ellipse transform="matrix(0.9511 -0.309 0.309 0.9511 -27.0491 94.7141)" class="st0" cx="285.5" cy="132.7" rx="37.5" ry="81"/>
<ellipse transform="matrix(0.5878 -0.809 0.809 0.5878 -110.2101 224.2814)" class="st0" cx="165" cy="220.3" rx="37.5" ry="81"/>
<ellipse class="st0" cx="119" cy="361.9" rx="81" ry="37.5"/>
<ellipse transform="matrix(0.809 -0.5878 0.5878 0.809 -264.491 193.1511)" class="st0" cx="165" cy="503.6" rx="81" ry="37.5"/>
<ellipse transform="matrix(0.309 -0.9511 0.9511 0.309 -364.9373 679.9634)" class="st0" cx="285.5" cy="591.1" rx="81" ry="37.5"/>
<ellipse transform="matrix(0.9511 -0.309 0.309 0.9511 -161.407 163.1728)" class="st0" cx="434.4" cy="591.1" rx="37.5" ry="81"/>
<ellipse transform="matrix(0.5878 -0.809 0.809 0.5878 -178.6689 656.5132)" class="st0" cx="554.9" cy="503.6" rx="37.5" ry="81"/>
<path d="M244.3,394.3c0-1.8,0.1-3.8,0.4-5.9c0.2-2.1,0.6-4.4,1.2-6.6h12.6v5.4c0,3.3,0.3,6.1,0.8,8.4c0.6,2.2,1.3,4.1,2.3,5.4
	c1,1.4,2.1,2.3,3.4,2.9c1.3,0.6,2.8,0.9,4.4,0.9c1.5,0,2.9-0.2,4.2-0.7c1.2-0.4,2.3-1.2,3.2-2.2c0.9-1,1.5-2.3,2-3.8
	c0.5-1.6,0.7-3.5,0.7-5.7v-11.8c0-2.2-0.2-4.2-0.6-6c-0.4-1.7-1-3.2-1.9-4.4c-0.9-1.2-2-2.1-3.4-2.7c-1.4-0.6-3.2-0.9-5.2-0.9h-6.8
	V355h6.8c1.3,0,2.6-0.2,3.7-0.7c1.2-0.4,2.2-1.1,3.1-2.1c0.9-1,1.6-2.2,2.1-3.8c0.5-1.5,0.7-3.4,0.7-5.6v-11.2c0-4-0.8-6.9-2.3-8.7
	c-1.5-1.9-3.8-2.8-6.9-2.8c-3.4,0-6,1.5-7.8,4.5c-1.8,3-2.7,7.4-2.7,13v6.1h-12.5c-0.5-2.1-0.9-4.1-1.2-6.2
	c-0.3-2.1-0.5-4.2-0.5-6.5c0-2.7,0.5-5.4,1.5-8.1c1-2.7,2.5-5.1,4.5-7.3c2-2.2,4.6-3.9,7.7-5.2c3.1-1.3,6.7-2,10.9-2
	c4.5,0,8.4,0.5,11.7,1.6c3.2,1,5.9,2.6,8,4.6c2.1,2,3.6,4.5,4.6,7.4c1,2.9,1.5,6.3,1.5,10v6.6c0,3-0.4,5.7-1.2,8.1
	c-0.8,2.4-1.8,4.4-3,6.1c-1.2,1.7-2.6,3.2-4.2,4.5c-1.6,1.2-3.1,2.2-4.8,3v0.5c2.1,0.7,4,1.6,5.8,2.8c1.8,1.1,3.3,2.6,4.6,4.4
	c1.3,1.8,2.3,4,3.1,6.5c0.7,2.5,1.1,5.6,1.1,9v7.1c0,4.9-0.7,9-2.1,12.4c-1.4,3.4-3.3,6.1-5.7,8.1c-2.4,2.1-5.2,3.5-8.5,4.5
	c-3.2,0.9-6.6,1.4-10.2,1.4c-8.2,0-14.4-2-18.7-5.9C246.4,407.1,244.3,401.5,244.3,394.3z"/>
<path d="M309.2,339.9c0-4.7,0.4-8.7,1.3-12.1c0.9-3.4,2-6.2,3.4-8.5c1.4-2.3,3-4.2,4.8-5.6c1.8-1.4,3.7-2.5,5.6-3.3
	c1.9-0.8,3.9-1.3,5.8-1.5c1.9-0.2,3.7-0.4,5.3-0.4c1.5,0,3.3,0.1,5.2,0.3c1.9,0.2,3.8,0.7,5.7,1.4c1.9,0.7,3.8,1.8,5.6,3.2
	c1.8,1.4,3.4,3.3,4.8,5.6c1.4,2.3,2.5,5.2,3.4,8.6c0.8,3.4,1.3,7.5,1.3,12.2v45.1c0,4.7-0.4,8.7-1.3,12.1c-0.9,3.4-2,6.3-3.4,8.6
	c-1.4,2.4-3,4.3-4.9,5.8c-1.8,1.5-3.7,2.6-5.6,3.4c-1.9,0.8-3.8,1.4-5.7,1.7c-1.9,0.3-3.6,0.4-5.1,0.4c-1.7,0-3.5-0.1-5.4-0.4
	c-2-0.3-3.9-0.8-5.9-1.7c-2-0.8-3.8-1.9-5.6-3.4c-1.8-1.5-3.4-3.4-4.8-5.7c-1.4-2.4-2.5-5.3-3.3-8.7c-0.8-3.4-1.3-7.4-1.3-12.1
	V339.9z M325.7,391.7c0,4.4,0.8,7.6,2.4,9.6c1.6,2,4,3,7.3,3c3.2,0,5.6-1,7.2-3c1.6-2,2.4-5.2,2.4-9.6V334c0-4.7-0.8-8.1-2.4-10.2
	c-1.6-2.1-4-3.2-7.2-3.2c-3.3,0-5.7,1.1-7.3,3.2c-1.6,2.1-2.4,5.5-2.4,10.2V391.7z"/>
<path d="M397.9,367c-2.4,0-4.8-0.3-7.1-1c-2.4-0.7-4.6-2-6.5-3.9c-1.9-1.9-3.5-4.7-4.7-8.2c-1.2-3.6-1.8-8.2-1.8-14v-6.7
	c0-3.8,0.3-7.1,0.9-9.8c0.6-2.8,1.4-5.1,2.4-7.1c1-2,2.2-3.5,3.5-4.7c1.3-1.2,2.7-2.1,4.2-2.8c1.5-0.7,3-1.1,4.6-1.4
	c1.6-0.2,3.1-0.4,4.6-0.4c1.4,0,2.9,0.1,4.4,0.3c1.5,0.2,3,0.7,4.5,1.3c1.5,0.7,2.9,1.6,4.2,2.8c1.3,1.2,2.5,2.8,3.5,4.7
	c1,2,1.8,4.3,2.4,7.1c0.6,2.8,0.9,6.1,0.9,9.9v6.7c0,5.7-0.6,10.3-1.9,13.9c-1.3,3.6-2.9,6.3-4.9,8.3c-2,2-4.1,3.3-6.5,4
	C402.1,366.6,399.9,367,397.9,367z M398,357c2.6,0,4.5-1.1,5.5-3.4c1-2.3,1.6-5.8,1.6-10.6V331c0-4.8-0.5-8.4-1.6-10.7
	c-1-2.3-2.9-3.4-5.5-3.4c-2.7,0-4.7,1.1-5.8,3.4c-1.1,2.3-1.7,5.8-1.7,10.7v12.1c0,4.8,0.6,8.3,1.7,10.6
	C393.3,355.9,395.2,357,398,357z M435.7,308.2H447L418.3,416H407L435.7,308.2z M435.8,383.1c0-5.7,0.6-10.3,1.9-13.7
	c1.3-3.4,2.9-6.1,4.9-7.9c2-1.8,4.1-3.1,6.5-3.7c2.4-0.6,4.7-0.9,6.9-0.9c1.4,0,2.9,0.1,4.4,0.3c1.5,0.2,3,0.7,4.5,1.3
	c1.5,0.7,2.9,1.6,4.2,2.8c1.3,1.2,2.5,2.8,3.5,4.7s1.8,4.3,2.4,7.1c0.6,2.8,0.9,6.1,0.9,9.9v6.7c0,3.8-0.3,7.2-0.9,10
	s-1.4,5.2-2.4,7.2c-1,2-2.2,3.6-3.5,4.9c-1.3,1.3-2.7,2.3-4.2,3.1c-1.5,0.8-3,1.3-4.5,1.5c-1.5,0.3-3,0.4-4.4,0.4
	c-1.6,0-3.2-0.1-4.8-0.4c-1.6-0.3-3.1-0.8-4.6-1.5c-1.5-0.7-2.9-1.7-4.2-3c-1.3-1.3-2.4-2.9-3.4-4.9c-1-2-1.7-4.4-2.3-7.3
	c-0.6-2.8-0.8-6.2-0.8-10.1V383.1z M448.6,393c0,4.8,0.6,8.3,1.7,10.6c1.1,2.3,3,3.4,5.8,3.4c2.6,0,4.5-1.1,5.5-3.4
	c1-2.3,1.6-5.8,1.6-10.6v-12.1c0-4.8-0.5-8.4-1.6-10.7c-1-2.3-2.9-3.4-5.5-3.4c-2.7,0-4.7,1.1-5.8,3.4c-1.1,2.3-1.7,5.8-1.7,10.7
	V393z"/>
</svg>
