<?xml version="1.0" encoding="utf-8"?>
<!-- Generator: Adobe Illustrator 28.0.0, SVG Export Plug-In . SVG Version: 6.00 Build 0)  -->
<svg version="1.1" id="Layer_1" xmlns:xodm="http://www.corel.com/coreldraw/odm/2003"
	 xmlns="http://www.w3.org/2000/svg" xmlns:xlink="http://www.w3.org/1999/xlink" x="0px" y="0px" viewBox="0 0 720 720"
	 style="enable-background:new 0 0 720 720;" xml:space="preserve">
<style type="text/css">
	.st0{fill:#C10C0C;}
	.st1{fill:#FFFFFF;}
</style>
<polygon points="358.3,606.3 642.7,113.7 73.8,113.7 "/>
<g>
	<g>
		<polygon class="st0" points="642.7,113.7 619.5,154.1 599.3,154.1 622.7,113.7 		"/>
	</g>
	<g>
		<polygon class="st0" points="604.6,113.7 581.2,154.1 561.1,154.1 584.4,113.7 		"/>
	</g>
	<g>
		<polygon class="st0" points="566.4,113.7 543,154.1 522.8,154.1 546.2,113.7 		"/>
	</g>
	<g>
		<polygon class="st0" points="528.2,113.7 504.8,154.1 484.7,154.1 508,113.7 		"/>
	</g>
	<g>
		<polygon class="st0" points="489.9,113.7 466.6,154.1 446.4,154.1 469.8,113.7 		"/>
	</g>
	<g>
		<polygon class="st0" points="451.8,113.7 428.3,154.1 408.2,154.1 431.5,113.7 		"/>
	</g>
	<g>
		<polygon class="st0" points="413.5,113.7 390.2,154.1 370,154.1 393.4,113.7 		"/>
	</g>
	<g>
		<polygon class="st0" points="375.3,113.7 351.9,154.1 331.8,154.1 355.1,113.7 		"/>
	</g>
	<g>
		<polygon class="st0" points="337.1,113.7 313.7,154.1 293.5,154.1 316.9,113.7 		"/>
	</g>
	<g>
		<polygon class="st0" points="298.9,113.7 275.5,154.1 255.4,154.1 278.7,113.7 		"/>
	</g>
	<g>
		<polygon class="st0" points="260.6,113.7 237.3,154.1 217.1,154.1 240.5,113.7 		"/>
	</g>
	<polygon class="st0" points="222.5,113.7 199,154.1 178.9,154.1 202.2,113.7 	"/>
	<polygon class="st0" points="184.2,113.7 160.9,154.1 140.7,154.1 164.1,113.7 	"/>
	<polygon class="st0" points="146,113.7 125.5,149.1 122.6,154.1 102.5,154.1 105.3,149.1 125.8,113.7 	"/>
	<polygon class="st0" points="107.8,113.7 90.8,143.1 80.7,125.7 87.6,113.7 	"/>
</g>
<path class="st1" d="M196.8,219l10.1,32.4l6.7-32.4H226l6.3,30.3l9.5-30.3h13.9l-16.9,54h-13.9l-5-24.4l-5.1,24.4h-15.7l-16.9-54
	H196.8z"/>
<path class="st1" d="M273,237.6l-11.1,35.4h-13.1l16.9-53.9h14.6l16.9,53.9h-13.1L273,237.6z"/>
<path class="st1" d="M314,252.7V273h-13.5v-54h37.1l6.8,6.8V246l-6.8,6.8h-5l11.8,20.3h-13.5L319,252.7H314z M314,232.5v6.7h16.8
	v-6.7H314z"/>
<path class="st1" d="M350.2,219h12.4l21.3,36.6V219h13.5v54h-15.8l-17.9-30.9V273h-13.5V219z"/>
<path class="st1" d="M417.5,219v54H404v-54H417.5z"/>
<path class="st1" d="M423.9,219h12.4l21.3,36.6V219h13.5v54h-15.8l-17.9-30.9V273h-13.5V219z"/>
<path class="st1" d="M483.7,273l-6.8-6.8v-40.5l6.8-6.8h30.3l6.8,6.8v6.8h-30.3v27h16.8v-6.8h-10.1v-13.5h16.8l6.8,6.8v20.3
	l-6.8,6.8H483.7z"/>
</svg>
