<?xml version="1.0" encoding="utf-8"?>
<!-- Generator: Adobe Illustrator 28.0.0, SVG Export Plug-In . SVG Version: 6.00 Build 0)  -->
<svg version="1.1" id="Layer_1" xmlns:xodm="http://www.corel.com/coreldraw/odm/2003"
	 xmlns="http://www.w3.org/2000/svg" xmlns:xlink="http://www.w3.org/1999/xlink" x="0px" y="0px" viewBox="0 0 720 720"
	 style="enable-background:new 0 0 720 720;" xml:space="preserve">
<style type="text/css">
	.st0{fill-rule:evenodd;clip-rule:evenodd;fill:#C10C0C;}
	.st1{fill-rule:evenodd;clip-rule:evenodd;fill:#FFFFFF;}
</style>
<circle class="st0" cx="361.6" cy="359.5" r="301.8"/>
<path class="st1" d="M361.6,76C205,76,78.1,203,78.1,359.5S205,643,361.6,643S645,516,645,359.5S518.1,76,361.6,76z M361.6,636
	C208,636,83.6,511.6,83.6,358.1s124.4-278,277.9-278s277.9,124.5,277.9,278S515.1,636,361.6,636z"/>
<path class="st1" d="M361.1,252.1c-58.8,0-106.5,47.7-106.5,106.5s47.7,106.5,106.5,106.5s106.5-47.7,106.5-106.5
	S419.9,252.1,361.1,252.1z M361.3,444.5c-47.4,0-85.8-38.5-85.8-85.8s38.5-85.9,85.8-85.9s85.8,38.5,85.8,85.8
	S408.7,444.5,361.3,444.5z"/>
<path class="st1" d="M361,492.9L361,492.9h0.1c39.5,60.8,114.3,79.1,178.1,43.6c-53.6,20.5-119.4-10-141.3-65.7
	c-7.4-18.8-2.9-59.5,7.3-80.7c-20.3-14-32.5-20.3-44.9-19.3c-12.5-0.7-24.5,5.7-44.7,19.9c10.4,21.1,15.5,61.7,8.3,80.6
	c-21.2,56-86.5,87.3-140.4,67.6C247.7,573.4,322.1,554.1,361,492.9z"/>
<path class="st1" d="M476.7,293.8c0,0,0.1-0.1,0.1-0.1c-0.1,0-0.1,0-0.1,0c33.3-64.4,12.4-138.4-49.9-176.4
	c44.3,36.5,50.2,108.8,12.5,155.3c-12.8,15.8-50.4,31.8-73.8,33.5c-2.1,24.6-1.6,38.2,5.3,48.6c5.6,11.2,17.1,18.5,39.4,29
	c13.2-19.5,46-43.9,66.1-47c59.2-9.2,118.6,32.2,128,88.8C602.6,352.6,549.1,297.3,476.7,293.8z"/>
<path class="st1" d="M246.4,293.7c-0.1,0-0.1,0-0.1,0c0,0,0.1,0.1,0.1,0.1c-72.4,3.5-126,58.7-127.5,131.8
	c9.4-56.6,68.8-98,128-88.8c20,3.1,52.8,27.6,66,47.1c22.4-10.5,33.8-17.8,39.4-29c6.9-10.5,7.5-24.1,5.3-48.6
	c-23.4-1.6-61.1-17.8-73.8-33.5c-37.7-46.6-31.7-118.8,12.6-155.3C234,155.2,213.1,229.2,246.4,293.7z"/>
</svg>
