<?xml version="1.0" encoding="utf-8"?>
<!-- Generator: Adobe Illustrator 28.0.0, SVG Export Plug-In . SVG Version: 6.00 Build 0)  -->
<svg version="1.1" id="Layer_1" xmlns:xodm="http://www.corel.com/coreldraw/odm/2003"
	 xmlns="http://www.w3.org/2000/svg" xmlns:xlink="http://www.w3.org/1999/xlink" x="0px" y="0px" viewBox="0 0 720 720"
	 style="enable-background:new 0 0 720 720;" xml:space="preserve">
<polygon points="270.5,99.5 270.5,149.4 211.5,149.4 118.2,310.3 147.5,361.5 104.2,386.3 62.4,313.2 186.3,99.5 "/>
<polygon points="318.6,180.6 318.6,230.5 260.9,230.5 213.1,312.9 241.8,363 198.6,387.7 157.3,315.7 235.6,180.6 "/>
<polygon points="196.7,547 239.9,522.1 269.4,573.2 455.4,573.6 485.1,522.5 528.2,547.6 485.8,620.5 238.8,620 "/>
<polygon points="242.9,464.8 286,439.9 314.9,489.9 410.1,490.1 439.2,440.2 482.2,465.2 440.5,537 284.4,536.8 "/>
<polygon points="621.2,387.2 578,362.3 607.5,311.2 514.8,149.9 455.7,149.7 455.9,99.8 540.2,100.1 663.3,314.3 "/>
<polygon points="526.9,388.3 483.7,363.4 512.6,313.4 465.1,230.9 407.4,230.6 407.6,180.8 490.6,181.1 568.4,316.4 "/>
</svg>
