<?xml version="1.0" encoding="utf-8"?>
<!-- Generator: Adobe Illustrator 28.0.0, SVG Export Plug-In . SVG Version: 6.00 Build 0)  -->
<svg version="1.1" id="Layer_1" xmlns:xodm="http://www.corel.com/coreldraw/odm/2003"
	 xmlns="http://www.w3.org/2000/svg" xmlns:xlink="http://www.w3.org/1999/xlink" x="0px" y="0px" viewBox="0 0 720 720"
	 style="enable-background:new 0 0 720 720;" xml:space="preserve">
<g>
	<g>
		<path d="M375.7,94.4c-149.8,0-271.5,121.8-271.5,271.6c0,123.5,82.8,228,195.8,260.8c3.6,1.1,7.3,2,11,2.9l0.8-3
			c-3.7-0.9-7.4-1.8-11-3C189.1,591.2,107.4,488,107.4,366c0-148,120.4-268.3,268.3-268.3C523.7,97.6,644,218,644,366
			c0,22.1-2.7,43.5-7.7,63.9c-0.9,3.7-1.8,7.4-3,11l3.1,0.9c1.1-3.6,2.1-7.3,3-11c5.2-20.8,7.9-42.5,7.9-64.8
			C647.3,216.2,525.4,94.4,375.7,94.4z"/>
	</g>
</g>
<g>
	<path d="M375.7,122.3C243.5,122.3,136,229.9,136,362.1c0,132.3,107.6,239.8,239.7,239.8c132.3,0,239.7-107.6,239.7-239.8
		C615.4,229.9,507.9,122.3,375.7,122.3z M375.7,598.6c-130.5,0-236.6-106.1-236.6-236.6s106.1-236.6,236.6-236.6
		c130.5,0,236.6,106.1,236.6,236.6S506.2,598.6,375.7,598.6z"/>
	<path d="M551.8,362.1c0,38.7-12.6,74.5-33.8,103.5c-0.6,0.9-1.2,1.8-1.9,2.6c-0.1,0.1-0.1,0.1-0.2,0.2l-2.6-1.7l0.1-0.1l-24.7-14.8
		l-2.7-1.7c0.7-0.8,1.2-1.6,1.9-2.4c18.2-23.8,28.9-53.5,28.9-85.7c0-54.7-31.3-102.2-77-125.6c-0.8-0.4-1.7-0.9-2.6-1.3l1.3-2.9
		l14.8-24.6l1.6-2.7c0.9,0.4,1.8,0.9,2.7,1.5C513.7,235.9,551.8,294.5,551.8,362.1z"/>
</g>
<g>
	<path d="M375.7,122.3C243.5,122.3,136,229.9,136,362.1c0,132.3,107.6,239.8,239.7,239.8c132.3,0,239.7-107.6,239.7-239.8
		C615.4,229.9,507.9,122.3,375.7,122.3z M375.7,598.6c-130.5,0-236.6-106.1-236.6-236.6s106.1-236.6,236.6-236.6
		c130.5,0,236.6,106.1,236.6,236.6S506.2,598.6,375.7,598.6z"/>
	<path d="M438.7,232.2l-1.3,2.9c-0.1,0-0.2-0.1-0.3-0.1c-18.5-9-39.4-14-61.4-14c-22.7,0-44,5.4-62.9,14.8l-1.5-2.8
		c19.4-9.8,41.3-15.3,64.4-15.3C398.2,217.7,419.7,222.8,438.7,232.2z"/>
	<path d="M231.3,363.7h3.3c0.9,77.1,63.8,139.6,141.1,139.6c44.5,0,84.4-20.8,110.3-53.1l0.1-0.1l2.7,1.7
		c-26.5,33.2-67.3,54.6-113.1,54.6C296.7,506.4,232.2,442.6,231.3,363.7z"/>
	<path d="M516,468.4c-32.2,42.5-83.1,69.9-140.3,69.9c-96.6,0-175.2-78.2-176.1-174.6h3.1c0.9,94.7,78.2,171.3,173,171.3
		c56.1,0,106-26.8,137.6-68.3L516,468.4z"/>
</g>
<g>
	<g>
		<path d="M375.7,154.1c-33.5,0-65.3,8-93.3,22.2l1.5,2.9c27.6-14,58.9-21.9,91.9-21.9c113,0,204.7,91.9,204.7,204.7
			c0,113-91.8,204.8-204.7,204.8c-112.3,0-203.8-91-204.7-203.2h-3.3c0.9,114,93.9,206.3,208,206.3c114.6,0,208-93.2,208-208
			C583.7,247.4,490.3,154.1,375.7,154.1z"/>
	</g>
</g>
<g>
	<g>
		<path d="M455.1,204.9l-1.6,2.7c-23.4-11.8-49.9-18.5-77.9-18.5c-27.8,0-54.1,6.6-77.4,18.3l-1.5-2.7c23.8-12,50.5-18.7,78.9-18.7
			C404.3,186,431.2,192.8,455.1,204.9z"/>
	</g>
</g>
<g>
	<g>
		<path d="M375.7,249.5c-17.9,0-34.9,4.2-49.9,11.7l1.6,2.9c14.6-7.4,31-11.4,48.4-11.4c60.4,0,109.4,49.1,109.4,109.4
			c0,60.4-49,109.4-109.4,109.4c-59.7,0-108.5-48.1-109.4-107.7h-3.1c0.9,61.4,51,110.9,112.5,110.9c62,0,112.5-50.5,112.5-112.6
			C488.2,300,437.7,249.5,375.7,249.5z"/>
	</g>
	<g>
		<path d="M377.9,363.8H167.7v-3.3c0.6-79.3,45.8-148.2,111.7-182.7c0.9-0.6,1.9-1,2.9-1.5l1.5,2.9l13,25.5l1.5,2.7l13,25.6l1.5,2.8
			l13,25.5l1.6,2.9l13,25.5l1.5,2.9l13,25.4l1.7,2.7l0.6,0.8L377.9,363.8z"/>
	</g>
</g>
<g>
	<g>
		<path d="M375.7,281.3c-12.7,0-24.7,2.9-35.3,8.3l1.5,2.9c10.2-5.2,21.7-8,33.9-8c42.7,0,77.6,34.8,77.6,77.5
			c0,42.9-34.9,77.6-77.6,77.6c-42.2,0-76.6-33.9-77.4-75.9H295c0.8,43.8,36.7,79.1,80.7,79.1c44.5,0,80.8-36.2,80.8-80.8
			C456.5,317.5,420.2,281.3,375.7,281.3z"/>
	</g>
</g>
<g>
	<g>
		<path d="M375.7,313.1c-7.5,0-14.6,1.7-20.9,4.7l1.7,2.7c5.7-2.7,12.3-4.3,19.2-4.3c25.2,0,45.8,20.5,45.8,45.8
			s-20.5,45.8-45.8,45.8c-24.7,0-44.9-19.6-45.7-44.1h-3.1c0.8,26.3,22.3,47.3,48.8,47.3c27,0,49-22,49-49
			C424.7,335.1,402.7,313.1,375.7,313.1z"/>
	</g>
</g>
<rect x="370" y="614.5" width="11.4" height="46.2"/>
<polygon points="407.1,659 395.7,660 391.7,614 403.1,613.1 "/>
<polygon points="432.5,655.2 421.2,657.1 413.3,611.8 424.5,609.8 "/>
<polygon points="316.9,607.5 311.7,626.7 311,629.7 305,652 293.9,649.1 300,626.8 300.8,623.7 305.9,604.6 "/>
<polygon points="338.2,611.8 330.1,657.1 318.9,655.2 327,609.8 "/>
<polygon points="359.8,614 355.7,660 344.4,659 348.4,613.1 "/>
<polygon points="457.5,649.1 446.5,652 434.5,607.5 445.5,604.6 "/>
<polygon points="481.8,640.9 471.2,644.9 455.3,601.5 466,597.6 "/>
<rect x="484.8" y="589" transform="matrix(0.9059 -0.4234 0.4234 0.9059 -213.0379 265.231)" width="11.4" height="46.2"/>
<polygon points="527.9,618.3 518,624 495,584.1 504.9,578.3 "/>
<polygon points="549.3,604 540,610.7 513.6,572.8 522.9,566.3 "/>
<polygon points="569.4,588.1 560.7,595.4 531.1,560.1 539.8,552.8 "/>
<polygon points="588,570.3 580,578.3 547.3,545.8 555.4,537.7 "/>
<polygon points="605,551.1 597.7,559.7 562.4,530.1 569.8,521.4 "/>
<polygon points="620.2,530.3 613.7,539.6 575.9,513.3 582.5,503.9 "/>
<polygon points="633.7,508.5 628,518.2 588,495.2 593.8,485.3 "/>
<polygon points="645.1,485.3 640.3,495.7 598.5,476.3 603.3,465.9 "/>
<polygon points="654.1,465 650.2,475.6 606.9,459.9 610.8,449.1 "/>
<polygon points="661.8,436.8 658.8,447.8 636.4,441.8 633.3,440.9 614.2,435.9 617.2,424.9 636.3,429.9 639.4,430.8 "/>
<g>
	<path d="M285.1,140.1l-3.2,1.3L212.4,72H83.9v0.1c0,7.1-5.7,12.9-12.8,12.9c-7.2,0-12.9-5.8-12.9-12.9S64,59.3,71.2,59.3
		c5.9,0,10.9,4,12.3,9.5h130.2l3.1,3.1L285.1,140.1z"/>
</g>
<path d="M656.8,129.1c0,7.1-5.7,12.8-12.8,12.8c-7.1,0-12.8-5.7-12.8-12.8v-0.4h-85.9L464,209.8l-2.7-1.6l79.5-79.6l3.1-3.1h87.8
	c1.5-5.4,6.4-9.3,12.2-9.3C651.1,116.2,656.8,121.9,656.8,129.1z"/>
</svg>
