<?xml version="1.0" encoding="utf-8"?>
<!-- Generator: Adobe Illustrator 28.0.0, SVG Export Plug-In . SVG Version: 6.00 Build 0)  -->
<svg version="1.1" id="Layer_1" xmlns:xodm="http://www.corel.com/coreldraw/odm/2003"
	 xmlns="http://www.w3.org/2000/svg" xmlns:xlink="http://www.w3.org/1999/xlink" x="0px" y="0px" viewBox="0 0 720 720"
	 style="enable-background:new 0 0 720 720;" xml:space="preserve">
<style type="text/css">
	.st0{fill:#C12026;}
	.st1{opacity:0.5;fill:#C12026;enable-background:new    ;}
</style>
<path class="st0" d="M284.6,387c0,5.8-0.5,10.7-1.5,14.8c-1,4.1-2.4,7.6-4.1,10.4s-3.7,5-5.8,6.7c-2.2,1.6-4.4,2.9-6.8,3.8
	c-2.3,0.9-4.7,1.4-6.9,1.7c-2.3,0.2-4.4,0.4-6.3,0.4c-5.2,0-9.6-0.6-13.3-1.9s-6.7-3-9-5.2s-4-4.7-5.1-7.6s-1.6-5.9-1.6-9.1
	c0-1.7,0.2-3.6,0.5-5.7s0.8-4.1,1.5-6.2h14.5v2.7c0,3.8,0.2,6.9,0.7,9.3s1.2,4.3,2.3,5.7c1,1.4,2.3,2.4,3.9,2.9
	c1.6,0.5,3.4,0.8,5.6,0.8c3.9,0,6.9-1.4,9.1-4.3c2.1-2.9,3.2-7.5,3.2-13.8v-23.1c-1.9,2.1-4.3,3.8-7.2,5.2
	c-2.9,1.4-6.4,2.1-10.4,2.1c-2.8,0-5.7-0.5-8.7-1.4c-2.9-0.9-5.6-2.5-8-4.9c-2.4-2.3-4.4-5.5-5.9-9.5s-2.3-9.1-2.3-15.3v-12.2
	c0-6.7,0.7-12.3,2.1-16.9c1.4-4.6,3.4-8.4,6-11.2c2.6-2.9,5.7-4.9,9.4-6.2c3.7-1.3,7.8-1.9,12.3-1.9c5.1,0,9.7,0.7,13.6,1.9
	c3.9,1.3,7.3,3.4,10,6.4c2.7,2.9,4.8,6.8,6.2,11.6c1.4,4.8,2.1,10.7,2.1,17.7V387H284.6z M265.3,326.2c0-2.8-0.2-5.3-0.7-7.2
	c-0.5-2-1.2-3.6-2.2-4.8c-1-1.2-2.3-2.1-3.9-2.6s-3.4-0.8-5.6-0.8c-3.8,0-6.5,1.3-8.3,4s-2.6,6.7-2.6,12.1v19.3c0,3,0.3,5.6,0.8,7.6
	c0.5,2.1,1.3,3.7,2.3,5c1,1.2,2.2,2.1,3.5,2.7c1.4,0.5,2.9,0.8,4.6,0.8c1.3,0,2.6-0.2,3.8-0.6c1.2-0.4,2.3-0.9,3.3-1.5
	s2-1.4,2.8-2.2c0.8-0.8,1.6-1.7,2.2-2.5L265.3,326.2L265.3,326.2z"/>
<path class="st0" d="M300.7,334c0-5.5,0.5-10.2,1.5-14.2s2.3-7.3,4-10.1c1.6-2.7,3.5-4.9,5.7-6.6s4.4-3,6.6-3.9
	c2.3-0.9,4.6-1.5,6.8-1.8c2.3-0.3,4.4-0.4,6.3-0.4c1.8,0,3.8,0.1,6.1,0.4s4.5,0.8,6.8,1.7c2.3,0.9,4.5,2.1,6.6,3.7s4,3.8,5.7,6.6
	c1.6,2.7,3,6.1,4,10.1s1.5,8.8,1.5,14.4V387c0,5.5-0.5,10.2-1.5,14.2s-2.3,7.4-4,10.2c-1.7,2.8-3.6,5.1-5.7,6.8
	c-2.2,1.7-4.4,3.1-6.6,4c-2.3,1-4.5,1.6-6.7,1.9s-4.2,0.5-6,0.5c-2,0-4.1-0.2-6.4-0.5s-4.6-1-6.9-1.9c-2.3-1-4.5-2.3-6.7-4
	s-4-4-5.6-6.8s-2.9-6.2-3.9-10.2s-1.5-8.8-1.5-14.3L300.7,334L300.7,334z M320.2,395.1c0,5.2,0.9,9,2.8,11.3
	c1.9,2.4,4.8,3.5,8.6,3.5c3.8,0,6.6-1.2,8.5-3.5c1.9-2.4,2.8-6.1,2.8-11.3v-68c0-5.5-0.9-9.5-2.8-12s-4.7-3.7-8.5-3.7
	c-3.9,0-6.7,1.2-8.6,3.7s-2.8,6.5-2.8,12V395.1z"/>
<path class="st0" d="M405.1,365.9c-2.8,0-5.6-0.4-8.4-1.2c-2.8-0.8-5.4-2.3-7.6-4.6c-2.3-2.3-4.1-5.5-5.5-9.7s-2.1-9.7-2.1-16.5V326
	c0-4.5,0.3-8.3,1-11.6c0.7-3.3,1.6-6,2.8-8.3c1.2-2.3,2.6-4.2,4.2-5.6s3.2-2.5,5-3.3s3.6-1.3,5.4-1.6c1.8-0.3,3.6-0.4,5.4-0.4
	c1.7,0,3.4,0.1,5.2,0.4c1.8,0.3,3.6,0.8,5.3,1.6c1.7,0.8,3.4,1.9,5,3.3s2.9,3.2,4.1,5.5s2.1,5.1,2.8,8.4c0.7,3.3,1,7.2,1,11.7v7.9
	c0,6.7-0.8,12.2-2.3,16.4c-1.5,4.2-3.4,7.4-5.8,9.7c-2.3,2.3-4.9,3.9-7.6,4.7C410.2,365.5,407.6,365.9,405.1,365.9z M405.3,354.2
	c3.1,0,5.2-1.3,6.5-4s1.8-6.8,1.8-12.5v-14.3c0-5.7-0.6-9.9-1.8-12.6c-1.2-2.7-3.4-4-6.5-4c-3.2,0-5.5,1.3-6.8,4s-1.9,6.9-1.9,12.6
	v14.3c0,5.6,0.6,9.8,1.9,12.5C399.8,352.9,402.1,354.2,405.3,354.2z M449.7,296.8H463l-33.7,126.9h-13.4L449.7,296.8z M449.8,384.9
	c0-6.7,0.7-12.1,2.2-16.1s3.4-7.1,5.7-9.3c2.3-2.2,4.9-3.6,7.7-4.3c2.8-0.7,5.5-1.1,8.1-1.1c1.7,0,3.4,0.1,5.2,0.4
	c1.8,0.3,3.6,0.8,5.3,1.6c1.7,0.8,3.4,1.9,5,3.3s2.9,3.2,4.1,5.5s2.1,5.1,2.8,8.4c0.7,3.3,1,7.2,1,11.7v7.9c0,4.5-0.4,8.4-1.1,11.8
	c-0.7,3.3-1.7,6.2-2.9,8.5c-1.2,2.3-2.6,4.3-4.1,5.8c-1.6,1.5-3.2,2.7-5,3.6s-3.5,1.5-5.3,1.8s-3.5,0.5-5.1,0.5
	c-1.9,0-3.7-0.2-5.6-0.5s-3.7-0.9-5.4-1.7c-1.7-0.8-3.4-2-4.9-3.5s-2.9-3.5-4-5.8s-2-5.2-2.7-8.6s-1-7.3-1-11.9L449.8,384.9
	L449.8,384.9z M464.9,396.6c0,5.6,0.6,9.8,1.9,12.5s3.6,4,6.8,4c3.1,0,5.2-1.3,6.5-4c1.2-2.7,1.8-6.8,1.8-12.5v-14.3
	c0-5.7-0.6-9.9-1.8-12.6c-1.2-2.7-3.4-4-6.5-4c-3.2,0-5.5,1.3-6.8,4s-1.9,6.9-1.9,12.6V396.6z"/>
<path class="st1" d="M198.4,303.6c8.4-24,22.1-46,40.6-64.5c5.5-5.5,11.3-10.6,17.4-15.2L177.3,115c-49.1,36.6-86.9,87.7-106.9,147
	L198.4,303.6z"/>
<path class="st0" d="M189,360c0-16.9,2.5-33.5,7.2-49.3L68.1,269.1c-8.9,28.7-13.8,59.3-13.8,90.9s4.8,62.2,13.8,90.9l128.1-41.6
	C191.4,393.5,189,376.9,189,360z"/>
<path class="st0" d="M530.9,360c0,16.9-2.5,33.5-7.2,49.3l128.1,41.6c8.9-28.7,13.8-59.3,13.8-90.9s-4.8-62.2-13.8-90.9l-128.1,41.6
	C528.5,326.5,530.9,343.1,530.9,360z"/>
<path class="st0" d="M521.5,416.4c-8.4,24-22.1,46-40.6,64.5c-5.5,5.5-11.3,10.6-17.4,15.2L542.6,605
	c49.1-36.7,86.9-87.8,106.9-147.1L521.5,416.4z"/>
<path class="st0" d="M239,480.9c-18.5-18.5-32.2-40.5-40.6-64.5L70.4,458c20,59.3,57.8,110.4,106.9,147.1l79.1-108.9
	C250.4,491.5,244.5,486.4,239,480.9z"/>
<path class="st0" d="M480.9,239.1c18.5,18.5,32.2,40.5,40.6,64.5l128-41.6c-20-59.3-57.8-110.4-106.9-147.1l-79.1,108.9
	C469.5,228.5,475.3,233.6,480.9,239.1z"/>
<path class="st0" d="M457.4,500.5c-27.4,19.1-59.8,29.7-93.8,30.4v134.6c64.4-0.8,124-21.4,172.9-56.2L457.4,500.5z"/>
<path class="st0" d="M356.2,530.9c-34-0.7-66.4-11.3-93.8-30.4l-79.1,108.9c48.9,34.7,108.5,55.4,172.9,56.2V530.9z"/>
<path class="st1" d="M262.5,219.5c27.4-19.1,59.8-29.7,93.8-30.4V54.4c-64.4,0.8-124,21.4-172.9,56.2L262.5,219.5z"/>
<path class="st0" d="M363.7,189.1c34,0.7,66.4,11.3,93.8,30.4l79.1-108.9c-49-34.7-108.6-55.4-172.9-56.2V189.1z"/>
</svg>
