<?xml version="1.0" encoding="utf-8"?>
<!-- Generator: Adobe Illustrator 28.0.0, SVG Export Plug-In . SVG Version: 6.00 Build 0)  -->
<svg version="1.1" id="Layer_1" xmlns:xodm="http://www.corel.com/coreldraw/odm/2003"
	 xmlns="http://www.w3.org/2000/svg" xmlns:xlink="http://www.w3.org/1999/xlink" x="0px" y="0px" viewBox="0 0 720 720"
	 style="enable-background:new 0 0 720 720;" xml:space="preserve">
<style type="text/css">
	.st0{fill:#FFD93E;}
	.st1{fill:#FFFFFF;stroke:#000000;stroke-width:3.3784;stroke-miterlimit:10;}
	.st2{fill:none;stroke:#000000;stroke-width:3.3784;stroke-miterlimit:10;}
	.st3{fill-rule:evenodd;clip-rule:evenodd;fill:#FFD93E;}
	.st4{fill-rule:evenodd;clip-rule:evenodd;fill:#F9F9F9;}
	.st5{fill-rule:evenodd;clip-rule:evenodd;}
</style>
<path class="st0" d="M642.2,457.1H69.4c-7.9,0-14.4-6.4-14.4-14.4V241.4c0-7.9,6.4-14.4,14.4-14.4h572.8c7.9,0,14.4,6.4,14.4,14.4
	v201.3C656.6,450.6,650.1,457.1,642.2,457.1z"/>
<rect x="84" y="255.9" class="st1" width="543.6" height="172.2"/>
<line class="st2" x1="254.3" y1="255.9" x2="254.3" y2="428.1"/>
<path class="st3" d="M161.2,282.9c2.3-4.1,8.2-4.1,10.5,0l32,55.3l32.3,56c2.2,3.7-0.5,8.4-4.8,8.4h-64.7h-64.7
	c-4.3,0-7-4.7-4.8-8.4l32.3-56L161.2,282.9z"/>
<path class="st4" d="M231.9,395.5L200,340.3L168.1,285c-0.7-1.3-2.5-1.3-3.2,0L133,340.3l-31.9,55.2c-0.7,1.3,0.2,2.8,1.6,2.8h63.8
	h63.8C231.7,398.3,232.6,396.7,231.9,395.5z M229.7,397h-63.2h-63.3c-0.7,0-1-0.7-0.7-1.3l31.6-54.8l31.6-54.8
	c0.3-0.6,1.1-0.6,1.4,0l31.6,54.8l31.6,54.8C230.8,396.3,230.4,397,229.7,397z"/>
<path class="st5" d="M231.9,395.5L200,340.3L168.1,285c-0.7-1.3-2.5-1.2-3.2,0l-31.9,55.3l-31.9,55.2c-0.7,1.3,0.2,2.8,1.6,2.8
	l63.8,0l63.8,0C231.7,398.3,232.6,396.7,231.9,395.5z M228.2,395.8h-61.8h-61.8c-0.6,0-1-0.7-0.7-1.2l30.9-53.5l30.9-53.5
	c0.3-0.6,1.1-0.6,1.4,0l30.9,53.5l30.9,53.5C229.2,395.1,228.9,395.8,228.2,395.8z"/>
<polygon points="171.7,314 161.2,314 162.7,366.3 170.2,366.3 "/>
<circle cx="166.5" cy="379.8" r="6.8"/>
<path d="M273.2,369.1l-7.1-7.1v-42.3l7.1-7.1H305l7.1,7.1v14.1H298v-7.1h-17.7V355H298v-7.1h14.1V362l-7.1,7.1H273.2z"/>
<path d="M339.1,332.1L327.5,369h-13.7l17.7-56.3h15.2l17.7,56.3h-13.7L339.1,332.1z"/>
<path d="M381.8,312.7V355h17.6v-42.3h14.1V362l-7.1,7.1h-31.7l-7.1-7.1v-49.3H381.8z"/>
<path d="M435.9,326.8h-16.5v-14.1h45.8v14.1H450v42.3h-14V326.8z"/>
<path d="M485.6,312.7v56.4h-14.1v-56.4H485.6z"/>
<path d="M498.6,369.1l-7.1-7.1v-42.3l7.1-7.1h31.7l7.1,7.1V362l-7.1,7.1H498.6z M505.7,326.8V355h17.6v-28.2H505.7z"/>
<path d="M544.1,312.7h12.9l22.3,38.2v-38.2h14.1v56.4H577l-18.7-32.2v32.2h-14.1V312.7z"/>
<path d="M615.6,312.7v38.8h-14.1v-38.8H615.6z M615.6,355v14.1h-14.1V355H615.6z"/>
</svg>
