<?xml version="1.0" encoding="utf-8"?>
<!-- Generator: Adobe Illustrator 28.0.0, SVG Export Plug-In . SVG Version: 6.00 Build 0)  -->
<svg version="1.1" id="Layer_1" xmlns:xodm="http://www.corel.com/coreldraw/odm/2003"
	 xmlns="http://www.w3.org/2000/svg" xmlns:xlink="http://www.w3.org/1999/xlink" x="0px" y="0px" viewBox="0 0 720 720"
	 style="enable-background:new 0 0 720 720;" xml:space="preserve">
<style type="text/css">
	.st0{opacity:0.5;}
</style>
<ellipse class="st0" cx="600.9" cy="358.1" rx="81" ry="37.5"/>
<ellipse transform="matrix(0.809 -0.5878 0.5878 0.809 -21.2378 367.5)" cx="554.9" cy="216.4" rx="81" ry="37.5"/>
<ellipse transform="matrix(0.309 -0.9511 0.9511 0.309 177.5914 502.2112)" cx="434.4" cy="128.9" rx="81" ry="37.5"/>
<ellipse transform="matrix(0.9511 -0.309 0.309 0.9511 -25.8566 94.5252)" class="st0" cx="285.5" cy="128.9" rx="37.5" ry="81"/>
<ellipse transform="matrix(0.5878 -0.809 0.809 0.5878 -107.0882 222.6908)" class="st0" cx="165" cy="216.4" rx="37.5" ry="81"/>
<ellipse class="st0" cx="119" cy="358.1" rx="81" ry="37.5"/>
<ellipse transform="matrix(0.809 -0.5878 0.5878 0.809 -262.2228 192.4141)" class="st0" cx="165" cy="499.7" rx="81" ry="37.5"/>
<ellipse transform="matrix(0.309 -0.9511 0.9511 0.309 -361.2673 677.2969)" class="st0" cx="285.5" cy="587.3" rx="81" ry="37.5"/>
<ellipse transform="matrix(0.9511 -0.309 0.309 0.9511 -160.2145 162.984)" class="st0" cx="434.4" cy="587.3" rx="37.5" ry="81"/>
<ellipse transform="matrix(0.5878 -0.809 0.809 0.5878 -175.547 654.9225)" class="st0" cx="554.9" cy="499.7" rx="37.5" ry="81"/>
<path d="M243.9,403.3l23.9-45.9c2.2-4.2,4-7.8,5.3-10.9c1.4-3.1,2.4-5.9,3.2-8.2c0.8-2.3,1.3-4.4,1.6-6.1c0.3-1.7,0.4-3.3,0.4-4.7
	c0-2.2-0.2-4-0.6-5.5c-0.4-1.5-1-2.7-1.8-3.6s-1.8-1.6-2.9-1.9s-2.5-0.6-4-0.6c-3.7,0-6.4,1.5-8.1,4.6c-1.7,3.1-2.5,7.5-2.5,13.2
	v6.1h-12.7c-0.5-2.4-0.9-4.5-1.2-6.5c-0.3-2-0.5-4.1-0.5-6.4c0-2.7,0.5-5.5,1.4-8.2c1-2.7,2.4-5.2,4.5-7.4c2-2.2,4.6-4,7.8-5.3
	c3.1-1.3,6.9-2,11.3-2c4.7,0,8.8,0.5,12.1,1.6c3.4,1.1,6.1,2.7,8.3,4.8c2.2,2.1,3.7,4.7,4.7,7.7c1,3,1.5,6.5,1.5,10.3
	c0,2.2-0.2,4.4-0.6,6.5c-0.4,2.1-1.1,4.4-2,6.8c-0.9,2.4-2.1,5.1-3.6,7.9c-1.5,2.9-3.3,6.2-5.4,9.9L262.7,400h31.6v12.9h-50.4V403.3
	z"/>
<path d="M306.9,335.7c0-4.7,0.4-8.8,1.3-12.2c0.9-3.4,2-6.3,3.4-8.7c1.4-2.3,3-4.2,4.9-5.7c1.9-1.4,3.8-2.5,5.7-3.3
	c2-0.8,3.9-1.3,5.9-1.6c2-0.3,3.8-0.4,5.4-0.4c1.6,0,3.3,0.1,5.2,0.3c1.9,0.2,3.9,0.7,5.8,1.5c2,0.7,3.9,1.8,5.7,3.2
	c1.8,1.4,3.5,3.3,4.9,5.7c1.4,2.4,2.5,5.3,3.4,8.7c0.9,3.5,1.3,7.6,1.3,12.4v45.7c0,4.7-0.4,8.8-1.3,12.2c-0.9,3.4-2,6.4-3.5,8.8
	c-1.4,2.4-3.1,4.4-4.9,5.9c-1.9,1.5-3.8,2.7-5.7,3.5c-1.9,0.8-3.9,1.4-5.8,1.7c-1.9,0.3-3.6,0.4-5.2,0.4c-1.7,0-3.5-0.1-5.5-0.4
	c-2-0.3-4-0.9-5.9-1.7c-2-0.8-3.9-2-5.7-3.4c-1.8-1.5-3.4-3.4-4.8-5.8s-2.5-5.3-3.4-8.8c-0.8-3.5-1.3-7.6-1.3-12.3V335.7z
	 M323.7,388.3c0,4.5,0.8,7.7,2.4,9.7c1.6,2,4.1,3,7.4,3c3.3,0,5.7-1,7.3-3c1.6-2,2.4-5.3,2.4-9.7v-58.5c0-4.7-0.8-8.2-2.4-10.3
	c-1.6-2.1-4-3.2-7.3-3.2c-3.3,0-5.8,1.1-7.4,3.2c-1.6,2.2-2.4,5.6-2.4,10.3V388.3z"/>
<path d="M396.8,363.2c-2.4,0-4.8-0.3-7.2-1c-2.4-0.7-4.6-2-6.6-4c-2-2-3.6-4.7-4.8-8.4c-1.2-3.6-1.8-8.3-1.8-14.2v-6.8
	c0-3.8,0.3-7.2,0.9-10c0.6-2.8,1.4-5.2,2.4-7.2c1-2,2.2-3.6,3.6-4.8c1.3-1.2,2.8-2.2,4.3-2.8c1.5-0.7,3.1-1.1,4.7-1.4
	c1.6-0.3,3.1-0.4,4.7-0.4c1.4,0,2.9,0.1,4.5,0.3c1.6,0.2,3.1,0.7,4.6,1.4c1.5,0.7,2.9,1.6,4.3,2.8c1.4,1.2,2.5,2.8,3.5,4.8
	c1,2,1.8,4.4,2.4,7.2c0.6,2.8,0.9,6.2,0.9,10.1v6.8c0,5.8-0.7,10.5-2,14.1c-1.3,3.6-3,6.4-5,8.4c-2,2-4.2,3.3-6.6,4
	S399,363.2,396.8,363.2z M397,353.1c2.7,0,4.5-1.1,5.6-3.4s1.6-5.9,1.6-10.7v-12.3c0-4.9-0.5-8.5-1.6-10.8c-1.1-2.3-2.9-3.5-5.6-3.5
	c-2.8,0-4.7,1.2-5.9,3.5c-1.1,2.3-1.7,5.9-1.7,10.8v12.3c0,4.9,0.6,8.4,1.7,10.7S394.2,353.1,397,353.1z M435.2,303.6h11.5
	l-29,109.3h-11.5L435.2,303.6z M435.3,379.6c0-5.8,0.6-10.4,1.9-13.9c1.3-3.5,2.9-6.2,4.9-8c2-1.9,4.2-3.1,6.6-3.7s4.7-0.9,7-0.9
	c1.4,0,2.9,0.1,4.5,0.3c1.6,0.2,3.1,0.7,4.6,1.4c1.5,0.7,2.9,1.6,4.3,2.8c1.3,1.2,2.5,2.8,3.5,4.8c1,2,1.8,4.4,2.4,7.2
	c0.6,2.8,0.9,6.2,0.9,10.1v6.8c0,3.9-0.3,7.3-0.9,10.1c-0.6,2.9-1.4,5.3-2.5,7.3c-1,2-2.2,3.7-3.6,5c-1.3,1.3-2.8,2.3-4.3,3.1
	c-1.5,0.8-3,1.3-4.6,1.6c-1.6,0.3-3,0.4-4.4,0.4c-1.6,0-3.2-0.1-4.8-0.4c-1.6-0.3-3.2-0.8-4.7-1.5c-1.5-0.7-2.9-1.7-4.2-3
	c-1.3-1.3-2.5-3-3.4-5c-1-2-1.7-4.5-2.3-7.4c-0.6-2.9-0.9-6.3-0.9-10.2V379.6z M448.3,389.6c0,4.9,0.6,8.4,1.7,10.7
	c1.1,2.3,3.1,3.4,5.9,3.4c2.7,0,4.5-1.1,5.6-3.4c1.1-2.3,1.6-5.9,1.6-10.7v-12.3c0-4.9-0.5-8.5-1.6-10.8c-1.1-2.3-2.9-3.5-5.6-3.5
	c-2.8,0-4.7,1.2-5.9,3.5c-1.1,2.3-1.7,5.9-1.7,10.8V389.6z"/>
</svg>
