<?xml version="1.0" encoding="utf-8"?>
<!-- Generator: Adobe Illustrator 28.0.0, SVG Export Plug-In . SVG Version: 6.00 Build 0)  -->
<svg version="1.1" id="Layer_1" xmlns:xodm="http://www.corel.com/coreldraw/odm/2003"
	 xmlns="http://www.w3.org/2000/svg" xmlns:xlink="http://www.w3.org/1999/xlink" x="0px" y="0px" viewBox="0 0 720 720"
	 style="enable-background:new 0 0 720 720;" xml:space="preserve">
<style type="text/css">
	.st0{fill:#F6B24A;}
</style>
<g>
	<path class="st0" d="M678.7,316.5l-4.7-4.7l-50.6-50.5l-7.9-7.9h-66.1l-7.9,7.9l-18.9,18.9H198.2l-26.8-26.8h-67L38,319.8v66.2
		l66.3,66.3h67l26.8-26.8h324.5l18.9,18.9l7.9,7.9h66.1l7.9-7.9l50.6-50.5l4.7-4.7l3.2-3.2v-66.2L678.7,316.5z M674,382.6l-6.5,6.5
		l-55.2,55.2h-59.5L526,417.5H194.9l-26.8,26.8h-60.5l-61.7-61.7V323l61.7-61.7h60.5l26.8,26.8H526l26.8-26.8h59.5l55.2,55.2
		l6.5,6.5V382.6z"/>
</g>
<polygon class="st0" points="538.3,253.4 519.2,272.5 200.9,272.5 181.8,253.4 "/>
<path class="st0" d="M521,156.9H199.9l-56.3,56.3l5.6,5.6l15.8,15.8l7.2,7.2h376.7l6.3-6.3l0.9-0.9l15.8-15.8l5.6-5.6L521,156.9z
	 M545.5,233.9H175.4l-20.7-20.7l48.4-48.4h314.6l48.4,48.4L545.5,233.9z"/>
<polygon class="st0" points="137,218.2 148.2,230.2 159.5,242.1 137,242.1 114.5,242.1 125.7,230.2 "/>
<polygon class="st0" points="584.1,218.2 595.3,230.1 606.6,242 584.1,242 561.6,242 572.8,230.1 "/>
<g>
	<polygon class="st0" points="538.3,452.2 519.2,433.1 200.9,433.1 181.8,452.2 	"/>
</g>
<path class="st0" d="M571.8,486.8L556,471.1l-0.9-0.9l-6.3-6.3H172.1l-7.2,7.2l-15.8,15.8l-5.6,5.6l56.3,56.3H521l56.3-56.3
	L571.8,486.8z M517.8,540.8H203.2l-48.4-48.4l20.7-20.7h370.2l20.7,20.7L517.8,540.8z"/>
<polygon class="st0" points="137,487.4 148.2,475.5 159.5,463.6 137,463.6 114.5,463.6 125.7,475.5 "/>
<polygon class="st0" points="584.1,487.5 595.3,475.6 606.6,463.6 584.1,463.6 561.6,463.6 572.8,475.6 "/>
</svg>
