<?xml version="1.0" encoding="utf-8"?>
<!-- Generator: Adobe Illustrator 28.0.0, SVG Export Plug-In . SVG Version: 6.00 Build 0)  -->
<svg version="1.1" id="Layer_1" xmlns:xodm="http://www.corel.com/coreldraw/odm/2003"
	 xmlns="http://www.w3.org/2000/svg" xmlns:xlink="http://www.w3.org/1999/xlink" x="0px" y="0px" viewBox="0 0 720 720"
	 style="enable-background:new 0 0 720 720;" xml:space="preserve">
<style type="text/css">
	.st0{fill:#C12026;}
	.st1{opacity:0.5;fill:#C12026;}
</style>
<path class="st0" d="M233.3,399c0-2.1,0.1-4.4,0.4-6.9c0.3-2.5,0.8-5.1,1.4-7.8h14.8v6.4c0,3.9,0.3,7.2,1,9.8
	c0.7,2.6,1.5,4.8,2.7,6.4c1.1,1.6,2.5,2.8,4,3.4c1.6,0.7,3.3,1,5.1,1c1.8,0,3.4-0.3,4.9-0.8c1.5-0.5,2.7-1.4,3.7-2.5
	c1-1.2,1.8-2.7,2.3-4.5c0.5-1.8,0.8-4.1,0.8-6.7V383c0-2.6-0.2-5-0.7-7c-0.5-2-1.2-3.8-2.2-5.2c-1-1.4-2.4-2.4-4-3.2
	c-1.7-0.7-3.7-1.1-6.1-1.1h-8V353h8c1.6,0,3-0.3,4.4-0.8c1.4-0.5,2.6-1.3,3.6-2.5s1.8-2.6,2.4-4.4c0.6-1.8,0.9-4,0.9-6.6v-13.1
	c0-4.6-0.9-8-2.7-10.2c-1.8-2.2-4.5-3.3-8-3.3c-3.9,0-7,1.8-9.1,5.3c-2.1,3.5-3.2,8.6-3.2,15.2v7.1h-14.6c-0.5-2.4-1-4.9-1.4-7.3
	c-0.4-2.4-0.6-5-0.6-7.6c0-3.2,0.6-6.3,1.8-9.5c1.2-3.1,2.9-6,5.3-8.5c2.4-2.5,5.4-4.6,9-6.1c3.6-1.6,7.9-2.3,12.8-2.3
	c5.3,0,9.9,0.6,13.7,1.8c3.8,1.2,6.9,3,9.3,5.4c2.4,2.4,4.2,5.3,5.3,8.7c1.1,3.4,1.7,7.3,1.7,11.7v7.7c0,3.6-0.5,6.7-1.4,9.5
	c-0.9,2.8-2.1,5.2-3.5,7.2c-1.4,2-3.1,3.8-4.9,5.2c-1.8,1.4-3.7,2.6-5.6,3.5v0.6c2.4,0.8,4.7,1.9,6.8,3.3c2.1,1.3,3.9,3.1,5.4,5.2
	c1.5,2.1,2.7,4.6,3.6,7.6c0.9,3,1.3,6.5,1.3,10.6v8.3c0,5.8-0.8,10.6-2.5,14.5c-1.7,3.9-3.9,7.1-6.7,9.5c-2.8,2.4-6.1,4.2-9.9,5.2
	c-3.8,1.1-7.8,1.6-12,1.6c-9.6,0-16.8-2.3-21.9-6.9C235.8,414,233.3,407.4,233.3,399z"/>
<path class="st0" d="M309.3,335.3c0-5.5,0.5-10.2,1.5-14.1c1-4,2.3-7.3,3.9-10c1.6-2.7,3.5-4.9,5.7-6.5c2.1-1.7,4.3-2.9,6.6-3.8
	c2.3-0.9,4.5-1.5,6.8-1.8c2.3-0.3,4.3-0.4,6.2-0.4c1.8,0,3.8,0.1,6,0.4c2.2,0.3,4.5,0.8,6.7,1.7c2.3,0.9,4.5,2.1,6.6,3.7
	c2.1,1.6,4,3.8,5.6,6.5c1.6,2.7,2.9,6.1,3.9,10.1c1,4,1.5,8.8,1.5,14.3v52.8c0,5.5-0.5,10.2-1.5,14.1c-1,4-2.3,7.3-4,10.1
	c-1.7,2.8-3.6,5-5.7,6.8c-2.1,1.7-4.3,3.1-6.6,4c-2.2,0.9-4.5,1.6-6.7,1.9c-2.2,0.3-4.2,0.5-6,0.5c-1.9,0-4.1-0.2-6.4-0.5
	c-2.3-0.3-4.6-1-6.9-1.9c-2.3-1-4.5-2.3-6.6-4c-2.1-1.7-4-3.9-5.6-6.7c-1.6-2.8-2.9-6.2-3.9-10.2c-1-4-1.5-8.7-1.5-14.2V335.3z
	 M328.6,396c0,5.2,0.9,8.9,2.8,11.3c1.9,2.3,4.7,3.5,8.6,3.5c3.8,0,6.6-1.2,8.4-3.5c1.9-2.3,2.8-6.1,2.8-11.3v-67.6
	c0-5.5-0.9-9.4-2.8-11.9c-1.9-2.5-4.7-3.7-8.4-3.7c-3.8,0-6.7,1.2-8.6,3.7c-1.9,2.5-2.8,6.5-2.8,11.9V396z"/>
<path class="st0" d="M413.1,367c-2.8,0-5.6-0.4-8.4-1.2c-2.8-0.8-5.3-2.3-7.6-4.6c-2.3-2.3-4.1-5.5-5.5-9.6
	c-1.4-4.2-2.1-9.6-2.1-16.4v-7.8c0-4.4,0.3-8.3,1-11.5c0.7-3.2,1.6-6,2.8-8.3c1.2-2.3,2.6-4.1,4.1-5.6c1.6-1.4,3.2-2.5,5-3.3
	c1.8-0.8,3.5-1.3,5.4-1.6c1.8-0.3,3.6-0.4,5.4-0.4c1.7,0,3.4,0.1,5.2,0.4c1.8,0.3,3.6,0.8,5.3,1.6c1.7,0.8,3.4,1.9,4.9,3.3
	c1.6,1.4,2.9,3.2,4.1,5.5c1.2,2.3,2.1,5.1,2.8,8.3c0.7,3.3,1,7.1,1,11.6v7.8c0,6.7-0.8,12.1-2.3,16.3c-1.5,4.2-3.4,7.4-5.7,9.7
	c-2.3,2.3-4.8,3.8-7.6,4.6S415.6,367,413.1,367z M413.3,355.4c3.1,0,5.2-1.3,6.4-4c1.2-2.7,1.8-6.8,1.8-12.4v-14.2
	c0-5.7-0.6-9.8-1.8-12.5c-1.2-2.7-3.4-4-6.4-4c-3.2,0-5.5,1.3-6.8,4c-1.3,2.7-1.9,6.8-1.9,12.5V339c0,5.6,0.6,9.7,1.9,12.4
	C407.8,354.1,410.1,355.4,413.3,355.4z M457.4,298.2h13.2l-33.5,126.2h-13.3L457.4,298.2z M457.6,385.9c0-6.7,0.7-12,2.2-16
	c1.5-4,3.4-7.1,5.7-9.3c2.3-2.2,4.9-3.6,7.6-4.3c2.8-0.7,5.5-1.1,8-1.1c1.7,0,3.4,0.1,5.2,0.4c1.8,0.3,3.6,0.8,5.3,1.6
	c1.7,0.8,3.4,1.9,4.9,3.3c1.6,1.4,2.9,3.2,4.1,5.5c1.2,2.3,2.1,5.1,2.8,8.3c0.7,3.3,1,7.1,1,11.6v7.8c0,4.5-0.4,8.4-1.1,11.7
	s-1.7,6.1-2.9,8.5c-1.2,2.3-2.6,4.3-4.1,5.8c-1.6,1.5-3.2,2.7-4.9,3.6c-1.7,0.9-3.5,1.5-5.3,1.8c-1.8,0.3-3.5,0.5-5.1,0.5
	c-1.9,0-3.7-0.2-5.6-0.5c-1.9-0.3-3.7-0.9-5.4-1.7c-1.7-0.8-3.4-2-4.9-3.5c-1.5-1.5-2.9-3.4-4-5.8c-1.1-2.3-2-5.2-2.7-8.5
	c-0.7-3.3-1-7.3-1-11.8V385.9z M472.6,397.6c0,5.6,0.6,9.7,1.9,12.4c1.3,2.7,3.5,4,6.8,4c3.1,0,5.2-1.3,6.4-4
	c1.2-2.7,1.8-6.8,1.8-12.4v-14.2c0-5.7-0.6-9.8-1.8-12.5c-1.2-2.7-3.4-4-6.4-4c-3.2,0-5.5,1.3-6.8,4c-1.3,2.7-1.9,6.8-1.9,12.5
	V397.6z"/>
<path class="st1" d="M200.9,305c8.3-23.9,22-45.8,40.4-64.2c5.5-5.5,11.3-10.5,17.3-15.1l-78.7-108.3
	C131,153.9,93.5,204.7,73.5,263.6L200.9,305z"/>
<path class="st1" d="M191.5,361.1c0-16.9,2.4-33.3,7.1-49.1L71.3,270.7c-8.9,28.6-13.7,58.9-13.7,90.4s4.8,61.9,13.7,90.4
	l127.4-41.4C193.9,394.5,191.5,378,191.5,361.1z"/>
<path class="st0" d="M531.6,361.1c0,16.9-2.4,33.3-7.1,49.1l127.4,41.4c8.9-28.6,13.7-58.9,13.7-90.4s-4.8-61.9-13.7-90.4
	l-127.4,41.4C529.2,327.8,531.6,344.3,531.6,361.1z"/>
<path class="st1" d="M522.2,417.2c-8.3,23.9-22,45.8-40.4,64.2c-5.5,5.5-11.3,10.5-17.3,15.1l78.7,108.3
	c48.9-36.5,86.4-87.3,106.4-146.3L522.2,417.2z"/>
<path class="st1" d="M241.3,481.4c-18.4-18.4-32.1-40.3-40.4-64.2L73.5,458.6c19.9,59,57.5,109.8,106.4,146.3l78.7-108.3
	C252.6,491.9,246.8,486.9,241.3,481.4z"/>
<path class="st0" d="M481.8,240.9c18.4,18.4,32.1,40.3,40.4,64.2l127.4-41.4c-19.9-59-57.5-109.8-106.4-146.3l-78.7,108.3
	C470.6,230.3,476.4,235.4,481.8,240.9z"/>
<path class="st1" d="M458.5,500.9c-27.3,19-59.5,29.6-93.3,30.3v133.9c64-0.8,123.3-21.3,172-55.9L458.5,500.9z"/>
<path class="st1" d="M357.9,531.2c-33.8-0.7-66-11.3-93.3-30.3l-78.7,108.3c48.7,34.5,108,55.1,172,55.9V531.2z"/>
<path class="st1" d="M264.6,221.3c27.3-19,59.5-29.6,93.3-30.3V57.2c-64,0.8-123.3,21.3-172,55.9L264.6,221.3z"/>
<path class="st0" d="M365.3,191.1c33.8,0.7,66,11.3,93.3,30.3L537.3,113c-48.7-34.5-108-55.1-172-55.9V191.1z"/>
</svg>
