<?xml version="1.0" encoding="utf-8"?>
<!-- Generator: Adobe Illustrator 28.0.0, SVG Export Plug-In . SVG Version: 6.00 Build 0)  -->
<svg version="1.1" id="Layer_1" xmlns:xodm="http://www.corel.com/coreldraw/odm/2003"
	 xmlns="http://www.w3.org/2000/svg" xmlns:xlink="http://www.w3.org/1999/xlink" x="0px" y="0px" viewBox="0 0 720 720"
	 style="enable-background:new 0 0 720 720;" xml:space="preserve">
<style type="text/css">
	.st0{fill-rule:evenodd;clip-rule:evenodd;fill:#FFD93E;}
	.st1{fill-rule:evenodd;clip-rule:evenodd;fill:#F9F9F9;}
	.st2{fill-rule:evenodd;clip-rule:evenodd;}
</style>
<g>
	<path class="st0" d="M339,93.3c10-17.4,35.1-17.4,45,0l137.2,237.5L660,571.3c9.3,16.1-2.3,36-20.8,36H361.6H83.9
		c-18.5,0-30.1-20-20.8-36l138.8-240.5L339,93.3z"/>
	<path class="st1" d="M642.4,577L505.5,339.9L368.5,102.7c-3.1-5.4-10.8-5.4-13.9,0L217.7,339.9L80.7,577c-3.1,5.4,0.8,12,7,12
		h273.9h273.9C641.6,589,645.4,582.3,642.4,577z M633.1,583.6H361.6H90c-2.8,0-4.5-2.9-3.1-5.4l135.8-235.1l135.8-235.1
		c1.3-2.4,4.8-2.4,6.2,0l135.8,235.1l135.8,235.1C637.6,580.5,635.9,583.6,633.1,583.6z"/>
	<path class="st2" d="M642.4,576.9l-137-237.1l-137-237.2c-3.1-5.4-10.8-5.3-13.9,0L217.6,339.9L80.7,577c-3.1,5.4,0.8,12,7,12
		l273.9-0.1l273.9-0.1C641.6,588.9,645.4,582.2,642.4,576.9z M626.7,578.1H361.5H96.3c-2.7,0-4.4-2.9-3-5.2l132.6-229.6l132.6-229.6
		c1.3-2.4,4.7-2.4,6,0l132.6,229.6l132.6,229.6C631,575.2,629.4,578.1,626.7,578.1z"/>
</g>
<g>
	<path class="st2" d="M463.8,392c0,9.9-2.2,19.8-4.9,28.9c-0.9,3.1-2.6,8-2.9,8.8c-0.3,0.7-0.1,4.5-0.3,6.7
		c-0.2,3.9-0.8,7.9-2.5,12.5c-0.6,2,8.5,13.4,10.7,22.2c0.8,3.4,0.7,5.4-1.6,8.2c-4.8,6.1-16,9.8-22.4,11.3
		c-7.3,1.7-15.1-1.8-21.6,3.4c-5.5,4-12.2,14.1-12.3,17.9c2.4,4.3,8.6,24.5-13.5,29.1c-3.1,0.6-4.4,3.6-7.3,5
		c-1.8,0.9-4.7-0.2-7.4,1.2c-6.7,3.4-14.7,3.6-21.7,2.3c-7,1.4-14.3,1.1-21-2.3c-2.8-1.4-5.6-0.3-7.4-1.2c-2.9-1.4-4.2-4.3-7.3-5
		c-22.1-4.6-15.9-24.8-13.5-29.1c-0.1-3.8-5.8-13.8-11.3-17.8c-6.7-4.6-15.2-1.8-22.5-3.5c-5.8-1.4-16.6-5.6-21.5-10.8
		c-3.4-3.6-2.8-6.4-1.3-10.8c2.9-8.4,10.1-18.3,9.5-20.2c-1.7-4.6-2.3-8.5-2.5-12.5c-0.1-2.2,0-5.9-0.3-6.7c-0.3-0.8-2-5.7-2.9-8.8
		c-2.7-9.1-4.8-18.9-4.9-28.9c1.5-73.6,65.6-105.6,107.2-104.9C398.1,286.4,462.3,318.4,463.8,392L463.8,392z"/>
	<path class="st0" d="M356.3,512.1c1.2,8.7,3.5,25.5,4.3,26.1c1.3,1.1,9.4,0.5,10.3-1.1c0.8-1.8,0.3-31,1.3-31.3
		c0.8-0.3,4.1,29.3,4.4,29.6c0.4,0.3,9.1-3.7,9.2-4.3c0-0.5-4.7-25-4.3-25.3c0.2,0.1,2.8,5.4,5.3,10.9c2.5,5.7,4.6,11.6,5.3,12.1
		c2.1,0.9,7.5-4.6,7.6-7.6c0-1.3-0.6-3.9-1.8-6.7c-1.2-2.8-2-5.6-3.5-8.2c-0.1-0.2-0.2-0.3-0.3-0.5c-0.3-0.4-0.4-0.7-0.4-1.3
		c0.3-2.9,4.1-10.4,5.1-12c1.1-1.8,5.8-12,19.4-15.7c6.8-1.6,9.5-1.1,15.3-1.4c4.5-0.4,8.8-2.1,11.7-3.4c3.5-1.7,3.2-2.7,1.8-6.2
		c-0.7-1.5-1.5-3.3-2.3-5.1c-1.7-3.6-3.6-7.6-5.9-9.5c-0.5-0.4-1.8-0.9-1.7-1.3c0.8-4.3,5.1-9.5,5.5-25.1c0.2-15-9.3-29.5-21-37.7
		c-3.5-2.4-6.7-3.4-10.4-5.2c2.3-1.4,12-0.7,16,0.4c2-4.6,7.5-18.3-6.3-39.6c7.8,6,10.5,11.9,12.6,17.8c2.1,5.9,3.5,17.2,1.1,25
		c2.3,2,11.9,10.4,14.3,17.7c1.6-9.5,1.6-27.2-4.5-44.5c-28.4-80-147-80-175.4,0c-6.1,17.3-6.1,35.1-4.5,44.5
		c2.4-7.3,11.9-15.7,14.3-17.7c-2.4-7.8-1-19.2,1.1-25c2.1-5.9,4.8-11.8,12.6-17.8c-13.9,21.3-8.3,35-6.3,39.6
		c4-1.1,13.7-1.9,16-0.4c-3.7,1.7-6.9,2.8-10.4,5.2c-11.7,8.1-21.2,22.7-21,37.7c0.4,15.3,4.6,20.6,5.5,24.9c0.1,0.4,0,0.6-0.4,0.7
		c-2.9,1.2-5.2,6.1-7.2,10.3c-0.9,2-1.8,3.8-2.4,5.4c-1.3,2.9-1.1,4.6,1.9,6c2.9,1.4,7.2,3.1,11.7,3.4c5.8,0.3,8.6-0.1,15.3,1.4
		c13.6,3.7,18.3,13.9,19.4,15.7c1,1.6,5.2,9.1,5.5,12c0.1,0.6-0.1,0.9-0.4,1.3c-0.1,0.1-0.2,0.3-0.3,0.5c-1.4,2.6-2.7,5.3-3.8,8.2
		c-1.1,2.8-1.8,5.4-1.8,6.7c0.1,3,5.5,8.5,7.6,7.6c0.6-0.5,2.8-6.4,5.3-12.1c2.4-5.5,5.1-10.9,5.3-10.9c0.4,0.3-4.3,24.7-4.3,25.3
		c0.1,0.6,7.3,4.9,7.7,4.6c0.3-0.3,5.1-30.1,5.9-29.8c1,0.4,0.5,29.6,1.3,31.3c0.9,1.6,9,2.1,10.3,1.1
		C353.3,537.5,355.1,520.8,356.3,512.1L356.3,512.1z M283.9,454.8c6.3,6.9,8.7,9.7,20.3,11.1c4.8,0.7,14.3,3.9,17.3,7.5
		c-0.1-2.6-3.5-11.8-15-13.1C296.9,459.3,293.2,458.4,283.9,454.8z M428,454.8c-6.3,6.9-8.7,9.7-20.3,11.1
		c-4.8,0.7-14.3,3.9-17.3,7.5c0.1-2.6,3.5-11.8,15-13.1C414.9,459.3,418.7,458.4,428,454.8z M365.1,447.2c4.1,4.6,7.5,13.1,9.6,19.4
		c1.5,4.6,4.5,8.6,3.4,13.4c-1.2,5.2-9.4,10.8-16.3,10.8c-1.9,0-3.6-0.8-5.4-0.8c-1.7,0-3.5,0.8-5.3,0.8c-6.9,0-15-5.5-16.3-10.8
		c-1.1-4.8,1.9-8.7,3.4-13.4c2.1-6.3,5.5-14.7,9.6-19.4C353.5,440.7,359.4,440.7,365.1,447.2L365.1,447.2z M333.3,432.8
		c-14.5,22.4-55.6,16.1-51.1-15.7c3.3-23.6,24.6-25.2,33.8-23.5c9.9,1.9,18.7,9.6,23.1,15.8c6.9-10.5-5-25.1-11.2-27.7
		c21.5,3,31.6,28.3,15.3,39c0.5,3.5,3.3,29.7-27.6,33.1C315.5,453.8,330.6,446.5,333.3,432.8L333.3,432.8z M379.1,432.7
		c14.5,22.4,55.6,16.1,51.1-15.7c-3.3-23.6-24.6-25.2-33.8-23.5c-9.9,1.9-18.7,9.6-23.1,15.8c-6.9-10.5,5-25.1,11.2-27.7
		c-21.5,3-31.6,28.3-15.3,39c-0.5,3.5-3.3,29.7,27.6,33.1C396.9,453.7,381.8,446.4,379.1,432.7L379.1,432.7z"/>
</g>
</svg>
