<?xml version="1.0" encoding="utf-8"?>
<!-- Generator: Adobe Illustrator 28.0.0, SVG Export Plug-In . SVG Version: 6.00 Build 0)  -->
<svg version="1.1" id="Layer_1" xmlns:xodm="http://www.corel.com/coreldraw/odm/2003"
	 xmlns="http://www.w3.org/2000/svg" xmlns:xlink="http://www.w3.org/1999/xlink" x="0px" y="0px" viewBox="0 0 720 720"
	 style="enable-background:new 0 0 720 720;" xml:space="preserve">
<style type="text/css">
	.st0{fill:none;stroke:#FFFFFF;stroke-width:1.3184;stroke-miterlimit:10;}
	.st1{fill:#FFFFFF;}
</style>
<g>
	<polygon points="663.3,334 663.3,338.2 590,265 594.2,265 	"/>
</g>
<polygon points="663.3,382.9 594.2,452 98.6,452 98.6,265 545.3,265 "/>
<polygon points="79.8,452 59.8,419.7 59.8,288.9 79.8,265 "/>
<polygon points="93.5,260.1 93.5,456.9 170.9,456.9 170.9,465.1 85.3,465.1 85.3,251.9 170.9,251.9 170.9,260.1 "/>
<g>
	<g>
		<polygon points="663.3,334 663.3,338.2 590,265 594.2,265 		"/>
	</g>
</g>
<g>
	<polygon points="663.3,341.7 663.3,345.9 582.3,265 586.5,265 	"/>
</g>
<g>
	<polygon points="663.3,349.7 663.3,354 574.3,265 578.5,265 	"/>
</g>
<g>
	<polygon points="663.3,357.8 663.3,362 566.2,265 570.4,265 	"/>
</g>
<g>
	<polygon points="663.3,365.9 663.3,370.1 558.2,265 562.4,265 	"/>
</g>
<g>
	<polygon points="663.3,373.9 663.3,378.1 550.1,265 554.3,265 	"/>
</g>
<line class="st0" x1="582.3" y1="392.8" x2="130.2" y2="392.8"/>
<g>
	<path d="M189,397.6v7.5h-1.9v-7.5H189z"/>
	<path d="M191.8,402.2v2.8h-1.9v-7.5h5.1l0.9,0.9v2.8l-0.9,0.9h-3.2V402.2z M191.8,399.4v0.9h2.3v-0.9H191.8z"/>
	<path d="M198.6,399.4v0.9h3.3l0.9,0.9v2.8l-0.9,0.9h-5.1V403h4.2v-0.9h-3.3l-0.9-0.9v-2.8l0.9-0.9h5.1v1.9H198.6z"/>
	<path d="M205.5,397.6v5.6h2.3v-5.6h1.9v6.5l-0.9,0.9h-4.2l-0.9-0.9v-6.5H205.5z"/>
	<path d="M210.6,397.6h1.7l2.3,5.7l2.3-5.7h1.7v7.5h-1.9v-2.8l-1.1,2.8h-2l-1.1-2.8v2.8h-1.9V397.6z"/>
</g>
<path class="st1" d="M181.7,358.4v-58.7h40.4l7.3,7.3v44l-7.3,7.3h-40.4V358.4z M196.4,314.4v29.3h18.4v-29.3H196.4z"/>
<path class="st1" d="M257.6,320l-12.1,38.4h-14.2l18.4-58.6h15.8l18.4,58.6h-14.2L257.6,320z"/>
<path class="st1" d="M287.3,299.8h13.5l23.2,39.8v-39.8h14.7v58.7h-17.1L302,325v33.5h-14.7V299.8z"/>
<path class="st1" d="M352.4,358.5l-7.3-7.3v-44l7.3-7.3h33l7.3,7.3v7.3h-33v29.3H378v-7.3h-10.9v-14.7h18.3l7.3,7.3v22l-7.3,7.3h-33
	V358.5z"/>
<path class="st1" d="M399.8,358.5v-58.7h47.7v14.7h-33v7.3h33v14.7h-33v7.3h33v14.7H399.8z"/>
<path class="st1" d="M469.2,336.5v22h-14.7v-58.7h40.3l7.3,7.3v22l-7.3,7.3h-5.5l12.8,22h-14.7l-12.8-22h-5.4V336.5z M469.2,314.5
	v7.3h18.3v-7.3H469.2z"/>
<path class="st1" d="M173.9,412.8l-6.6,21.2h-7.8l10.1-32.3h8.7l10.1,32.3h-7.9L173.9,412.8z"/>
<path class="st1" d="M198.4,401.6v24.2h18.2v8.1h-26.3v-32.3L198.4,401.6L198.4,401.6z"/>
<path class="st1" d="M231.7,433.9v-32.3h26.2v8.1h-18.1v4h18.1v8.1h-18.1v4h18.1v8.1L231.7,433.9L231.7,433.9z"/>
<path class="st1" d="M261.6,401.6h7.4l12.8,21.9v-21.9h8.1v32.3h-9.4l-10.7-18.5v18.5h-8.1L261.6,401.6L261.6,401.6z"/>
<path class="st1" d="M301.5,409.8v4h14.2l4,4v12.1l-4,4h-22.2v-8.1h18.2v-4h-14.2l-4-4v-12.1l4-4h22.2v8.1H301.5z"/>
<path class="st1" d="M347.8,412.8l-6.6,21.2h-7.8l10.1-32.3h8.7l10.1,32.3h-7.8L347.8,412.8z"/>
<path class="st1" d="M367.8,433.9l-4-4v-24.2l4-4H386l4,4v8.1h-8.1v-4h-10.1v16.1h10.1v-4h8.1v8.1l-4,4.1h-18.2V433.9z"/>
<path class="st1" d="M402.9,409.8h-9.4v-8.1h26.2v8.1h-8.8V434h-8L402.9,409.8L402.9,409.8z"/>
<path class="st1" d="M431.2,401.6v32.3h-8.1v-32.3H431.2z"/>
<path class="st1" d="M227.3,401.8v32.3h-8.1v-32.3H227.3z"/>
<path class="st1" d="M441.2,401.6l6.4,20.4l6.4-20.4h8.1L452,433.9h-8.7l-10.1-32.3H441.2z"/>
<path class="st1" d="M472.2,401.6v32.3h-8.1v-32.3H472.2z"/>
<path class="st1" d="M485.2,409.8h-9.4v-8.1H502v8.1h-8.8V434h-8V409.8z"/>
<path class="st1" d="M513.2,417.8l-10.1-16.1h8.1l6,9.6l5.7-9.6h7.8l-9.4,16.1V434h-8.1V417.8z"/>
</svg>
