<?xml version="1.0" encoding="utf-8"?>
<!-- Generator: Adobe Illustrator 28.0.0, SVG Export Plug-In . SVG Version: 6.00 Build 0)  -->
<svg version="1.1" id="Layer_1" xmlns:xodm="http://www.corel.com/coreldraw/odm/2003"
	 xmlns="http://www.w3.org/2000/svg" xmlns:xlink="http://www.w3.org/1999/xlink" x="0px" y="0px" viewBox="0 0 720 720"
	 style="enable-background:new 0 0 720 720;" xml:space="preserve">
<style type="text/css">
	.st0{fill:#F6B24A;}
	.st1{opacity:0.5;}
</style>
<path class="st0" d="M195.1,400.3c0-2.4,0.2-5,0.5-7.9c0.3-2.9,0.9-5.8,1.6-8.9h16.9v7.3c0,4.5,0.4,8.2,1.1,11.2
	c0.8,3,1.8,5.4,3.1,7.3c1.3,1.8,2.8,3.2,4.6,3.9c1.8,0.8,3.7,1.2,5.9,1.2c2.1,0,3.9-0.3,5.6-0.9c1.7-0.6,3.1-1.5,4.3-2.9
	c1.2-1.3,2.1-3.1,2.7-5.1c0.6-2.1,0.9-4.6,0.9-7.7V382c0-3-0.3-5.7-0.8-8c-0.5-2.3-1.4-4.3-2.6-5.9c-1.2-1.6-2.7-2.8-4.6-3.6
	c-1.9-0.8-4.2-1.3-7-1.3h-9.1v-15.5h9.1c1.8,0,3.5-0.3,5-0.9c1.6-0.6,2.9-1.5,4.1-2.8c1.2-1.3,2.1-3,2.8-5.1c0.7-2.1,1-4.6,1-7.5
	v-15c0-5.3-1-9.2-3.1-11.7c-2.1-2.5-5.1-3.7-9.2-3.7c-4.5,0-8,2-10.4,6.1c-2.4,4-3.6,9.9-3.6,17.5v8.1H197c-0.6-2.8-1.1-5.6-1.6-8.3
	c-0.4-2.8-0.7-5.7-0.7-8.7c0-3.6,0.7-7.2,2-10.8c1.3-3.6,3.4-6.8,6.1-9.8c2.7-2.9,6.1-5.2,10.3-7c4.2-1.8,9.1-2.7,14.7-2.7
	c6.1,0,11.3,0.7,15.7,2.1c4.4,1.4,7.9,3.4,10.7,6.1c2.8,2.7,4.8,6,6.1,10c1.3,3.9,2,8.4,2,13.4v8.8c0,4.1-0.5,7.7-1.6,10.8
	c-1,3.2-2.4,5.9-4,8.2c-1.6,2.3-3.5,4.3-5.6,6c-2.1,1.6-4.2,3-6.4,4v0.7c2.8,1,5.4,2.2,7.8,3.7c2.4,1.5,4.5,3.5,6.2,5.9
	c1.8,2.4,3.1,5.3,4.1,8.7c1,3.4,1.5,7.4,1.5,12.1v9.5c0,6.6-1,12.1-2.8,16.7c-1.9,4.5-4.5,8.2-7.7,10.9c-3.2,2.8-7,4.8-11.3,6
	c-4.3,1.2-8.9,1.8-13.7,1.8c-10.9,0-19.3-2.6-25-8C198,417.5,195.1,410,195.1,400.3z"/>
<path class="st0" d="M282.2,327.4c0-6.2,0.6-11.6,1.7-16.2c1.1-4.5,2.7-8.4,4.5-11.5c1.9-3.1,4-5.6,6.5-7.5c2.5-1.9,5-3.4,7.6-4.4
	c2.6-1,5.2-1.7,7.8-2.1c2.6-0.3,5-0.5,7.2-0.5c2.1,0,4.4,0.2,6.9,0.5c2.5,0.3,5.1,1,7.7,1.9c2.6,1,5.1,2.4,7.5,4.3
	c2.4,1.9,4.6,4.4,6.4,7.5c1.9,3.1,3.4,7,4.5,11.5c1.1,4.6,1.7,10,1.7,16.4v60.4c0,6.3-0.6,11.6-1.7,16.2c-1.1,4.5-2.7,8.4-4.6,11.6
	c-1.9,3.2-4.1,5.8-6.5,7.7c-2.5,2-5,3.5-7.5,4.6c-2.6,1.1-5.1,1.8-7.7,2.2c-2.5,0.4-4.8,0.6-6.8,0.6c-2.2,0-4.7-0.2-7.3-0.6
	c-2.6-0.4-5.2-1.1-7.9-2.2c-2.6-1.1-5.1-2.6-7.6-4.6c-2.4-2-4.6-4.5-6.4-7.7s-3.3-7.1-4.4-11.6c-1.1-4.6-1.7-10-1.7-16.2V327.4z
	 M304.3,396.9c0,5.9,1.1,10.2,3.2,12.9c2.1,2.7,5.4,4,9.8,4c4.3,0,7.5-1.3,9.6-4c2.1-2.7,3.2-7,3.2-12.9v-77.4
	c0-6.2-1.1-10.8-3.2-13.6c-2.1-2.8-5.3-4.3-9.6-4.3c-4.4,0-7.7,1.4-9.8,4.3c-2.1,2.8-3.2,7.4-3.2,13.6V396.9z"/>
<path class="st0" d="M401.1,363.7c-3.2,0-6.4-0.4-9.6-1.3c-3.2-0.9-6.1-2.6-8.7-5.2c-2.6-2.6-4.7-6.3-6.3-11
	c-1.6-4.8-2.4-11-2.4-18.8v-9c0-5.1,0.4-9.5,1.2-13.2c0.8-3.7,1.9-6.9,3.2-9.5c1.4-2.6,2.9-4.7,4.7-6.4c1.8-1.6,3.7-2.9,5.7-3.8
	c2-0.9,4.1-1.5,6.2-1.8c2.1-0.3,4.1-0.5,6.2-0.5c1.9,0,3.9,0.2,5.9,0.5c2.1,0.3,4.1,0.9,6.1,1.8c2,0.9,3.9,2.1,5.6,3.7
	c1.8,1.6,3.3,3.7,4.7,6.3c1.3,2.6,2.4,5.8,3.2,9.5c0.8,3.7,1.2,8.2,1.2,13.3v9c0,7.6-0.9,13.8-2.6,18.6c-1.7,4.8-3.9,8.5-6.6,11.1
	s-5.6,4.4-8.7,5.3C406.8,363.2,403.9,363.7,401.1,363.7z M401.2,350.4c3.5,0,6-1.5,7.4-4.6c1.4-3,2.1-7.8,2.1-14.2v-16.2
	c0-6.5-0.7-11.2-2.1-14.3c-1.4-3.1-3.8-4.6-7.4-4.6c-3.7,0-6.3,1.5-7.7,4.6c-1.5,3.1-2.2,7.8-2.2,14.3v16.2c0,6.4,0.7,11.1,2.2,14.2
	C395,348.9,397.6,350.4,401.2,350.4z M451.8,284.9h15.1l-38.4,144.5h-15.2L451.8,284.9z M452,385.4c0-7.6,0.9-13.8,2.6-18.4
	c1.7-4.6,3.9-8.1,6.5-10.6c2.7-2.5,5.6-4.1,8.7-4.9c3.2-0.8,6.2-1.2,9.2-1.2c1.9,0,3.9,0.2,5.9,0.5c2.1,0.3,4.1,0.9,6.1,1.8
	c2,0.9,3.9,2.1,5.7,3.7c1.8,1.6,3.3,3.7,4.7,6.3c1.3,2.6,2.4,5.8,3.2,9.5c0.8,3.7,1.2,8.2,1.2,13.3v9c0,5.1-0.4,9.6-1.2,13.4
	c-0.8,3.8-1.9,7-3.3,9.7c-1.4,2.7-2.9,4.9-4.7,6.6c-1.8,1.7-3.7,3.1-5.6,4.1c-2,1-4,1.7-6.1,2.1c-2.1,0.4-4,0.5-5.9,0.5
	c-2.1,0-4.3-0.2-6.4-0.5c-2.1-0.4-4.2-1-6.2-2c-2-0.9-3.8-2.3-5.6-4c-1.8-1.7-3.3-3.9-4.6-6.6c-1.3-2.7-2.3-5.9-3.1-9.8
	c-0.7-3.8-1.1-8.3-1.1-13.5V385.4z M469.1,398.7c0,6.4,0.7,11.1,2.2,14.2c1.5,3,4.1,4.6,7.7,4.6c3.5,0,6-1.5,7.4-4.6
	c1.4-3,2.1-7.8,2.1-14.2v-16.2c0-6.5-0.7-11.2-2.1-14.3c-1.4-3.1-3.8-4.6-7.4-4.6c-3.7,0-6.3,1.5-7.7,4.6c-1.5,3.1-2.2,7.8-2.2,14.3
	V398.7z"/>
<g class="st1">
	<circle class="st0" cx="78.2" cy="356.9" r="23.4"/>
</g>
<g>
	<circle class="st0" cx="358.4" cy="76.7" r="38.9"/>
</g>
<g class="st1">
	<circle class="st0" cx="193.7" cy="130.2" r="38.9"/>
</g>
<g class="st1">
	<circle class="st0" cx="91.9" cy="270.3" r="38.9"/>
</g>
<g class="st1">
	<circle class="st0" cx="91.9" cy="443.5" r="38.9"/>
</g>
<g class="st1">
	<circle class="st0" cx="193.7" cy="583.7" r="38.9"/>
</g>
<g class="st1">
	<circle class="st0" cx="358.4" cy="637.2" r="38.9"/>
</g>
<g class="st1">
	<circle class="st0" cx="523.1" cy="583.7" r="38.9"/>
</g>
<g class="st1">
	<circle class="st0" cx="624.9" cy="443.5" r="38.9"/>
</g>
<g>
	<circle class="st0" cx="624.9" cy="270.3" r="38.9"/>
</g>
<g>
	<circle class="st0" cx="523.1" cy="130.2" r="38.9"/>
</g>
<g class="st1">
	<circle class="st0" cx="271.8" cy="90.4" r="23.4"/>
</g>
<g class="st1">
	<circle class="st0" cx="131.7" cy="192.2" r="23.4"/>
</g>
<g class="st1">
	<circle class="st0" cx="131.7" cy="521.7" r="23.4"/>
</g>
<g class="st1">
	<circle class="st0" cx="271.8" cy="623.5" r="23.4"/>
</g>
<g class="st1">
	<circle class="st0" cx="445" cy="623.5" r="23.4"/>
</g>
<g class="st1">
	<circle class="st0" cx="585.1" cy="521.7" r="23.4"/>
</g>
<g>
	<circle class="st0" cx="638.6" cy="356.9" r="23.4"/>
</g>
<g>
	<circle class="st0" cx="585.1" cy="192.2" r="23.4"/>
</g>
<g>
	<circle class="st0" cx="445" cy="90.4" r="23.4"/>
</g>
</svg>
