<?xml version="1.0" encoding="utf-8"?>
<!-- Generator: Adobe Illustrator 28.0.0, SVG Export Plug-In . SVG Version: 6.00 Build 0)  -->
<svg version="1.1" id="Layer_1" xmlns:xodm="http://www.corel.com/coreldraw/odm/2003"
	 xmlns="http://www.w3.org/2000/svg" xmlns:xlink="http://www.w3.org/1999/xlink" x="0px" y="0px" viewBox="0 0 720 720"
	 style="enable-background:new 0 0 720 720;" xml:space="preserve">
<style type="text/css">
	.st0{fill:#FFFFFF;}
</style>
<path d="M640.5,528.8c0,6.3-0.2,12.5-0.8,18.8c-0.4,9.4-1.6,18.6-3.1,27.8H82.4c-1.6-9.2-2.7-18.4-3.1-27.8
	c-0.6-6.3-0.8-12.5-0.8-18.8c0-2.9,0-6.1,0.2-9h561.6C640.5,522.7,640.5,525.8,640.5,528.8z"/>
<path d="M673.5,494.4h-628c0.7-5.3,1.3-10.3,2.2-15.6c0.7-5.3,1.5-10.3,2.6-15.6c17.6-87,71.1-161,144.5-206l-75.5-130.7l9.7-5.5
	l9.4-5.5l75.5,131.1c43.5-22.8,93.1-35.8,145.6-35.8c56.2,0,108.7,14.7,154.4,40.4L592,115.6l9.4,5.5l9.7,5.5l-78.6,136.1
	c68.9,45,119.2,116.8,136.1,200.5c1.1,5.3,2,10.3,2.6,15.6C672.2,484.1,672.8,489.1,673.5,494.4z"/>
<ellipse transform="matrix(0.1602 -0.9871 0.9871 0.1602 -156.0392 533.9979)" class="st0" cx="235.8" cy="358.7" rx="29.9" ry="29.9"/>
<circle class="st0" cx="467.5" cy="358.7" r="29.9"/>
</svg>
