<?xml version="1.0" encoding="utf-8"?>
<!-- Generator: Adobe Illustrator 28.0.0, SVG Export Plug-In . SVG Version: 6.00 Build 0)  -->
<svg version="1.1" id="Layer_1" xmlns:xodm="http://www.corel.com/coreldraw/odm/2003"
	 xmlns="http://www.w3.org/2000/svg" xmlns:xlink="http://www.w3.org/1999/xlink" x="0px" y="0px" viewBox="0 0 720 720"
	 style="enable-background:new 0 0 720 720;" xml:space="preserve">
<style type="text/css">
	.st0{fill:#C10C0C;}
	.st1{fill:#FFFFFF;}
</style>
<polygon points="358.3,606.3 642.7,113.7 73.8,113.7 "/>
<g>
	<g>
		<polygon class="st0" points="642.7,113.7 619.5,154.1 599.3,154.1 622.7,113.7 		"/>
	</g>
	<g>
		<polygon class="st0" points="604.6,113.7 581.2,154.1 561.1,154.1 584.4,113.7 		"/>
	</g>
	<g>
		<polygon class="st0" points="566.4,113.7 543,154.1 522.8,154.1 546.2,113.7 		"/>
	</g>
	<g>
		<polygon class="st0" points="528.2,113.7 504.8,154.1 484.7,154.1 508,113.7 		"/>
	</g>
	<g>
		<polygon class="st0" points="489.9,113.7 466.6,154.1 446.4,154.1 469.8,113.7 		"/>
	</g>
	<g>
		<polygon class="st0" points="451.8,113.7 428.3,154.1 408.2,154.1 431.5,113.7 		"/>
	</g>
	<g>
		<polygon class="st0" points="413.5,113.7 390.2,154.1 370,154.1 393.4,113.7 		"/>
	</g>
	<g>
		<polygon class="st0" points="375.3,113.7 351.9,154.1 331.8,154.1 355.1,113.7 		"/>
	</g>
	<g>
		<polygon class="st0" points="337.1,113.7 313.7,154.1 293.5,154.1 316.9,113.7 		"/>
	</g>
	<g>
		<polygon class="st0" points="298.9,113.7 275.5,154.1 255.4,154.1 278.7,113.7 		"/>
	</g>
	<g>
		<polygon class="st0" points="260.6,113.7 237.3,154.1 217.1,154.1 240.5,113.7 		"/>
	</g>
	<polygon class="st0" points="222.5,113.7 199,154.1 178.9,154.1 202.2,113.7 	"/>
	<polygon class="st0" points="184.2,113.7 160.9,154.1 140.7,154.1 164.1,113.7 	"/>
	<polygon class="st0" points="146,113.7 125.5,149.1 122.6,154.1 102.5,154.1 105.3,149.1 125.8,113.7 	"/>
	<polygon class="st0" points="107.8,113.7 90.8,143.1 80.7,125.7 87.6,113.7 	"/>
</g>
<path class="st1" d="M189.7,190.1v53.5h-13.4v-53.5H189.7z"/>
<path class="st1" d="M196.1,190.1h12.3l21.1,36.2v-36.2h13.4v53.5h-15.6L209.5,213v30.6h-13.4V190.1z"/>
<path class="st1" d="M262.7,223.6v20h-13.4v-53.5h43.4v13.4h-30v6.7h30v13.4H262.7z"/>
<path class="st1" d="M298.7,243.6v-53.5h43.4v13.4h-30v6.7h30v13.4h-30v6.6h30v13.4H298.7z"/>
<path class="st1" d="M354.5,243.6l-6.7-6.7v-40.1l6.7-6.7h30.1l6.7,6.7v13.4H378v-6.7h-16.7v26.7H378v-6.7h13.4v13.4l-6.7,6.7H354.5
	z"/>
<path class="st1" d="M412.6,203.5H397v-13.4h43.4v13.4h-14.5v40.1h-13.3V203.5z"/>
<path class="st1" d="M446.3,243.6v-53.5h43.4v13.4h-30v6.7h30v13.4h-30v6.6h30v13.4H446.3z"/>
<path class="st1" d="M496.1,243.5V190H533l6.7,6.7v40.1l-6.7,6.7H496.1z M509.5,203.4v26.7h16.7v-26.7H509.5z"/>
<path class="st1" d="M236.3,336.9l27.9-49h-27.9v-16.4h53.1l-27.9,49h27.9v16.4H236.3z"/>
<path class="st1" d="M302.4,336.9l-8.2-8.2v-49l8.2-8.2h36.7l8.2,8.2v49l-8.2,8.2H302.4z M310.6,287.9v32.6h20.4v-32.6H310.6z"/>
<path class="st1" d="M355.2,271.5h15l25.8,44.3v-44.3h16.4v65.4h-19.1l-21.7-37.4v37.4h-16.4V271.5z"/>
<path class="st1" d="M420.3,336.9v-65.4h53.1v16.4h-36.7v8.2h36.7v16.4h-36.7v8.1h36.7v16.4H420.3z"/>
</svg>
