<?xml version="1.0" encoding="utf-8"?>
<!-- Generator: Adobe Illustrator 28.0.0, SVG Export Plug-In . SVG Version: 6.00 Build 0)  -->
<svg version="1.1" id="Layer_1" xmlns:xodm="http://www.corel.com/coreldraw/odm/2003"
	 xmlns="http://www.w3.org/2000/svg" xmlns:xlink="http://www.w3.org/1999/xlink" x="0px" y="0px" viewBox="0 0 720 720"
	 style="enable-background:new 0 0 720 720;" xml:space="preserve">
<style type="text/css">
	.st0{fill-rule:evenodd;clip-rule:evenodd;stroke:#000000;stroke-width:0.4997;stroke-miterlimit:10;}
	.st1{fill-rule:evenodd;clip-rule:evenodd;}
</style>
<path class="st0" d="M353.5,292c37.1,0,67.1,30,67.1,67.1s-30,67.1-67.1,67.1s-67.1-30-67.1-67.1S316.4,292,353.5,292z M353.5,300
	c32.6,0,59.1,26.5,59.1,59.1s-26.5,59.1-59.1,59.1s-59.1-26.5-59.1-59.1S320.8,300,353.5,300z"/>
<path class="st0" d="M371,180c81.5,7.9,147.1,70.1,160.1,150l-22.5-3.9c-13.9-65.6-68.3-116.2-135.8-124.4L371,180L371,180z
	 M532.6,376.6c-7.9,81.8-70.5,147.6-150.8,160.2l3.9-22.5c66-13.6,116.9-68.2,125.2-135.9L532.6,376.6L532.6,376.6z M335.2,538.2
	c-81.4-8.2-146.8-70.7-159.4-150.7l22.5,3.9C211.8,457,266,507.9,333.4,516.4L335.2,538.2z M174.5,340.8
	c8.2-81.1,70.2-146.2,149.8-159.2l-3.9,22.5c-65.2,13.8-115.6,67.8-124.2,134.9L174.5,340.8L174.5,340.8z"/>
<path class="st0" d="M365.9,119.2c120.8,6.2,218,101.5,227.1,221.5l-29.2-5c-11.1-101-93.3-180.6-195.5-187.6L365.9,119.2
	L365.9,119.2z M593.4,371.6c-6.2,121-101.9,218.4-222.3,227.2l5-29.2c101.4-10.8,181.3-93.2,188.4-195.6L593.4,371.6z M340.3,599
	c-120.7-6.5-217.7-102.1-226.4-222.2l29.2,5c10.8,101.1,92.7,180.9,194.8,188.4L340.3,599L340.3,599z M113.6,345.9
	c6.6-120.3,101.7-217.1,221.3-226.3l-5,29.2c-100.7,11.2-180,92.9-187.5,194.6C142.4,343.4,113.6,345.9,113.6,345.9z"/>
<path class="st1" d="M353.2,659c0,0,37.3-219.3,41.7-241.9c-11.4,8.9-25.8,14.3-41.4,14.3c-0.3,0-0.5,0-0.8,0l0.5,92.1l-10.8-80.9
	l-7,0L353.2,659L353.2,659z"/>
<path class="st1" d="M353.2,59.6c0,0-37.6,220.9-41.7,242.1c11.5-9.3,26.1-14.8,42-14.8c0,0,0.1,0,0.1,0l-0.5-91.8l10.8,80.9l7,0
	L353.2,59.6L353.2,59.6z"/>
<path class="st1" d="M53.7,358.7c0,0,218.3,37.1,241.7,41.6c-8.8-11.4-14.1-25.6-14.1-41.2c0-0.3,0-0.6,0-0.9l-92.1,0.5l80.9-10.8
	l0-7L53.7,358.7L53.7,358.7z"/>
<path class="st1" d="M652.4,358.7c0,0-217.5-37-241.6-41.6c9.3,11.5,14.8,26.1,14.9,42.1l91.2-0.5L436,369.5l0,7L652.4,358.7
	L652.4,358.7z"/>
<polygon class="st1" points="353.3,403.7 350.7,381.4 349.3,369 339.5,376.8 321.9,390.7 335.8,373.1 343.6,363.2 331.2,361.8 
	309,359.2 331.2,356.6 343.8,355.2 335.8,345.1 321.9,327.5 339.5,341.4 349.3,349.2 350.7,336.8 353.3,314.5 355.9,336.8 
	357.4,349.4 367.5,341.4 385.1,327.5 371.1,345.1 363.1,355.2 375.8,356.6 398.1,359.2 375.8,361.8 363.3,363.3 371.1,373.1 
	385.1,390.7 367.5,376.8 357.4,368.8 355.9,381.4 "/>
</svg>
